999
dxfrw 0.6.3
  0
SECTION
  2
HEADER
  9
$ACADVER
  1
AC1021
  9
$DWGCODEPAGE
  3
ANSI_1252
  9
$INSBASE
 10
0
 20
0
 30
0
  9
$EXTMIN
 10
-41.99999999999994
 20
-21.99999999999999
 30
0
  9
$EXTMAX
 10
126.8226493637325
 20
22.00000000000007
 30
0
  9
$LIMMIN
 10
0
 20
0
  9
$LIMMAX
 10
420
 20
297
  9
$ORTHOMODE
 70
    0
  9
$REGENMODE
 70
    1
  9
$FILLMODE
 70
    1
  9
$QTEXTMODE
 70
    0
  9
$MIRRTEXT
 70
    0
  9
$LTSCALE
 40
1
  9
$ATTMODE
 70
    1
  9
$TEXTSIZE
 40
3
  9
$TRACEWID
 40
1
  9
$TEXTSTYLE
  7
STANDARD
  9
$CLAYER
  8
0
  9
$CELTYPE
  6
CONTINUOUS
  9
$CECOLOR
 62
    7
  9
$CELTSCALE
 40
1
  9
$DISPSILH
 70
    0
  9
$DIMSCALE
 40
1
  9
$DIMASZ
 40
2.5
  9
$DIMEXO
 40
0.625
  9
$DIMDLI
 40
3.75
  9
$DIMRND
 40
0
  9
$DIMDLE
 40
0
  9
$DIMEXE
 40
1.25
  9
$DIMTP
 40
0
  9
$DIMTM
 40
0
  9
$DIMTXT
 40
2.5
  9
$DIMCEN
 40
2.5
  9
$DIMTSZ
 40
0
  9
$DIMTOL
 70
    0
  9
$DIMLIM
 70
    0
  9
$DIMTIH
 70
    0
  9
$DIMTOH
 70
    0
  9
$DIMSE1
 70
    0
  9
$DIMSE2
 70
    0
  9
$DIMTAD
 70
    1
  9
$DIMZIN
 70
    8
  9
$DIMBLK
  1
OPEN30
  9
$DIMASO
 70
    1
  9
$DIMSHO
 70
    1
  9
$DIMPOST
  1

  9
$DIMAPOST
  1

  9
$DIMALT
 70
    0
  9
$DIMALTD
 70
    3
  9
$DIMALTF
 40
0.03937007874016
  9
$DIMLFAC
 40
1
  9
$DIMTOFL
 70
    1
  9
$DIMTVP
 40
0
  9
$DIMTIX
 70
    0
  9
$DIMSOXD
 70
    0
  9
$DIMSAH
 70
    0
  9
$DIMBLK1
  1

  9
$DIMBLK2
  1

  9
$DIMSTYLE
  2
MISUMI
  9
$DIMCLRD
 70
  137
  9
$DIMCLRE
 70
  137
  9
$DIMCLRT
 70
  137
  9
$DIMTFAC
 40
1
  9
$DIMGAP
 40
0.625
  9
$DIMJUST
 70
    0
  9
$DIMSD1
 70
    0
  9
$DIMSD2
 70
    0
  9
$DIMTOLJ
 70
    0
  9
$DIMTZIN
 70
    8
  9
$DIMALTZ
 70
    0
  9
$DIMALTTZ
 70
    0
  9
$DIMUPT
 70
    0
  9
$DIMDEC
 70
    4
  9
$DIMTDEC
 70
    2
  9
$DIMALTU
 70
    2
  9
$DIMALTTD
 70
    3
  9
$DIMTXSTY
  7
STANDARD
  9
$DIMAUNIT
 70
    0
  9
$DIMADEC
 70
    0
  9
$DIMALTRND
 40
0
  9
$DIMAZIN
 70
    0
  9
$DIMDSEP
 70
   44
  9
$DIMATFIT
 70
    3
  9
$DIMFRAC
 70
    0
  9
$DIMLDRBLK
  1
STANDARD
  9
$DIMLUNIT
 70
    2
  9
$DIMLWD
 70
   -2
  9
$DIMLWE
 70
   -2
  9
$DIMTMOVE
 70
    0
  9
$DIMFXL
 40
1
  9
$DIMFXLON
 70
    0
  9
$DIMJOGANG
 40
0.7854
  9
$DIMTFILL
 70
    0
  9
$DIMTFILLCLR
 70
    0
  9
$DIMARCSYM
 70
    0
  9
$DIMLTYPE
  6

  9
$DIMLTEX1
  6

  9
$DIMLTEX2
  6

  9
$LUNITS
 70
    2
  9
$LUPREC
 70
    2
  9
$SKETCHINC
 40
1
  9
$FILLETRAD
 40
0
  9
$AUNITS
 70
    0
  9
$AUPREC
 70
    0
  9
$MENU
  1
.
  9
$ELEVATION
 40
0
  9
$PELEVATION
 40
0
  9
$THICKNESS
 40
0
  9
$LIMCHECK
 70
    0
  9
$CHAMFERA
 40
0.5
  9
$CHAMFERB
 40
0.5
  9
$CHAMFERC
 40
0
  9
$CHAMFERD
 40
0
  9
$SKPOLY
 70
    0
  9
$USRTIMER
 70
    1
  9
$ANGBASE
 50
0
  9
$ANGDIR
 70
    0
  9
$PDMODE
 70
   35
  9
$PDSIZE
 40
0
  9
$PLINEWID
 40
0
  9
$SPLFRAME
 70
    0
  9
$SPLINETYPE
 70
    6
  9
$SPLINESEGS
 70
    8
  9
$HANDSEED
  5
20000
  9
$SURFTAB1
 70
    6
  9
$SURFTAB2
 70
    6
  9
$SURFTYPE
 70
    6
  9
$SURFU
 70
    6
  9
$SURFV
 70
    6
  9
$UCSBASE
  2

  9
$UCSNAME
  2

  9
$UCSORG
 10
0
 20
0
 30
0
  9
$UCSXDIR
 10
1
 20
0
 30
0
  9
$UCSYDIR
 10
0
 20
1
 30
0
  9
$UCSORTHOREF
  2

  9
$UCSORTHOVIEW
 70
    0
  9
$UCSORGTOP
 10
0
 20
0
 30
0
  9
$UCSORGBOTTOM
 10
0
 20
0
 30
0
  9
$UCSORGLEFT
 10
0
 20
0
 30
0
  9
$UCSORGRIGHT
 10
0
 20
0
 30
0
  9
$UCSORGFRONT
 10
0
 20
0
 30
0
  9
$UCSORGBACK
 10
0
 20
0
 30
0
  9
$PUCSBASE
  2

  9
$PUCSNAME
  2

  9
$PUCSORG
 10
0
 20
0
 30
0
  9
$PUCSXDIR
 10
1
 20
0
 30
0
  9
$PUCSYDIR
 10
0
 20
1
 30
0
  9
$PUCSORTHOREF
  2

  9
$PUCSORTHOVIEW
 70
    0
  9
$PUCSORGTOP
 10
0
 20
0
 30
0
  9
$PUCSORGBOTTOM
 10
0
 20
0
 30
0
  9
$PUCSORGLEFT
 10
0
 20
0
 30
0
  9
$PUCSORGRIGHT
 10
0
 20
0
 30
0
  9
$PUCSORGFRONT
 10
0
 20
0
 30
0
  9
$PUCSORGBACK
 10
0
 20
0
 30
0
  9
$USERI1
 70
    0
  9
$USERI2
 70
    0
  9
$USERI3
 70
    0
  9
$USERI4
 70
    0
  9
$USERI5
 70
    0
  9
$USERR1
 40
0
  9
$USERR2
 40
0
  9
$USERR3
 40
0
  9
$USERR4
 40
0
  9
$USERR5
 40
0
  9
$WORLDVIEW
 70
    1
  9
$SHADEDGE
 70
    3
  9
$SHADEDIF
 70
   70
  9
$TILEMODE
 70
    1
  9
$MAXACTVP
 70
   64
  9
$PINSBASE
 10
0
 20
0
 30
0
  9
$PLIMCHECK
 70
    0
  9
$PEXTMIN
 10
0
 20
0
 30
0
  9
$PEXTMAX
 10
0
 20
0
 30
0
  9
$GRIDMODE
 70
    0
  9
$SNAPSTYLE
 70
    0
  9
$PLIMMIN
 10
0
 20
0
  9
$PLIMMAX
 10
12
 20
9
  9
$UNITMODE
 70
    0
  9
$VISRETAIN
 70
    1
  9
$PLINEGEN
 70
    0
  9
$PSLTSCALE
 70
    1
  9
$TREEDEPTH
 70
 3020
  9
$CMLSTYLE
  2
Standard
  9
$CMLJUST
 70
    0
  9
$CMLSCALE
 40
20
  9
$PROXYGRAPHICS
 70
    1
  9
$MEASUREMENT
 70
    1
  9
$CELWEIGHT
370
   -1
  9
$ENDCAPS
280
    0
  9
$JOINSTYLE
280
    0
  9
$LWDISPLAY
290
    0
  9
$INSUNITS
 70
    0
  9
$HYPERLINKBASE
  1

  9
$STYLESHEET
  1

  9
$XEDIT
290
    1
  9
$CEPSNTYPE
380
    0
  9
$PSTYLEMODE
290
    1
  9
$EXTNAMES
290
    1
  9
$PSVPSCALE
 40
1
  9
$OLESTARTUP
290
    0
  9
$SORTENTS
280
  127
  9
$INDEXCTL
280
    0
  9
$HIDETEXT
280
    1
  9
$XCLIPFRAME
290
    0
  9
$HALOGAP
280
    0
  9
$OBSCOLOR
 70
  257
  9
$OBSLTYPE
280
    0
  9
$INTERSECTIONDISPLAY
280
    0
  9
$INTERSECTIONCOLOR
 70
  257
  9
$DIMASSOC
280
    1
  9
$PROJECTNAME
  1

  9
$CAMERADISPLAY
290
    0
  9
$LENSLENGTH
 40
50
  9
$CAMERAHEIGHT
 40
0
  9
$STEPSPERSEC
 40
2
  9
$STEPSIZE
 40
50
  9
$3DDWFPREC
 40
2
  9
$PSOLWIDTH
 40
5
  9
$PSOLHEIGHT
 40
80
  9
$LOFTANG1
 40
1.570796326794897
  9
$LOFTANG2
 40
1.570796326794897
  9
$LOFTMAG1
 40
0
  9
$LOFTMAG2
 40
0
  9
$LOFTPARAM
 70
    7
  9
$LOFTNORMALS
280
    1
  9
$LATITUDE
 40
1
  9
$LONGITUDE
 40
1
  9
$NORTHDIRECTION
 40
0
  9
$TIMEZONE
 70
-8000
  9
$LIGHTGLYPHDISPLAY
280
    1
  9
$TILEMODELIGHTSYNCH
280
    1
  9
$SOLIDHIST
280
    1
  9
$SHOWHIST
280
    1
  9
$DWFFRAME
280
    2
  9
$DGNFRAME
280
    0
  9
$REALWORLDSCALE
290
    1
  9
$INTERFERECOLOR
 62
    1
  9
$CSHADOW
280
    0
  9
$SHADOWPLANELOCATION
 40
0
  0
ENDSEC
  0
SECTION
  2
CLASSES
  0
ENDSEC
  0
SECTION
  2
TABLES
  0
TABLE
  2
VPORT
  5
8
330
0
100
AcDbSymbolTable
 70
    1
  0
VPORT
  5
31
330
2
100
AcDbSymbolTableRecord
100
AcDbViewportTableRecord
  2
*ACTIVE
 70
    0
 10
0
 20
0
 11
1
 21
1
 12
122.98797316107
 22
48.22605326578541
 13
0
 23
0
 14
10
 24
10
 15
10
 25
10
 16
0
 26
0
 36
1
 17
0
 27
0
 37
0
 40
343.3510395190847
 41
2.088709677419355
 42
50
 43
0
 44
0
 50
0
 51
0
 71
    0
 72
  100
 73
    1
 74
    3
 75
    0
 76
    0
 77
    0
 78
    0
281
    0
 65
    1
110
0
120
0
130
0
111
1
121
0
131
0
112
0
122
1
132
0
 79
    0
146
0
348
10020
 60
    7
 61
    5
292
1
282
    1
141
0
142
0
 63
  250
421
3358443
  0
ENDTAB
  0
TABLE
  2
LTYPE
  5
5
330
0
100
AcDbSymbolTable
 70
    4
  0
LTYPE
  5
14
330
5
100
AcDbSymbolTableRecord
100
AcDbLinetypeTableRecord
  2
ByBlock
 70
    0
  3

 72
   65
 73
    0
 40
0
  0
LTYPE
  5
15
330
5
100
AcDbSymbolTableRecord
100
AcDbLinetypeTableRecord
  2
ByLayer
 70
    0
  3

 72
   65
 73
    0
 40
0
  0
LTYPE
  5
16
330
5
100
AcDbSymbolTableRecord
100
AcDbLinetypeTableRecord
  2
Continuous
 70
    0
  3
Solid line
 72
   65
 73
    0
 40
0
  0
LTYPE
  5
32
330
5
100
AcDbSymbolTableRecord
100
AcDbLinetypeTableRecord
  2
DOT
 70
    0
  3
Dot . . . . . . . . . . . . . . . . . . . . . .
 72
   65
 73
    2
 40
6.35
 49
0
 74
    0
 49
-6.35
 74
    0
  0
LTYPE
  5
33
330
5
100
AcDbSymbolTableRecord
100
AcDbLinetypeTableRecord
  2
DOTTINY
 70
    0
  3
Dot (.15x) .....................................
 72
   65
 73
    2
 40
0.9525
 49
0
 74
    0
 49
-0.9525
 74
    0
  0
LTYPE
  5
34
330
5
100
AcDbSymbolTableRecord
100
AcDbLinetypeTableRecord
  2
DOT2
 70
    0
  3
Dot (.5x) .....................................
 72
   65
 73
    2
 40
3.175
 49
0
 74
    0
 49
-3.175
 74
    0
  0
LTYPE
  5
35
330
5
100
AcDbSymbolTableRecord
100
AcDbLinetypeTableRecord
  2
DOTX2
 70
    0
  3
Dot (2x) .  .  .  .  .  .  .  .  .  .  .  .  .
 72
   65
 73
    2
 40
12.7
 49
0
 74
    0
 49
-12.7
 74
    0
  0
LTYPE
  5
36
330
5
100
AcDbSymbolTableRecord
100
AcDbLinetypeTableRecord
  2
DASHED
 70
    0
  3
Dashed _ _ _ _ _ _ _ _ _ _ _ _ _ _ _ _ _
 72
   65
 73
    2
 40
19.05
 49
12.7
 74
    0
 49
-6.35
 74
    0
  0
LTYPE
  5
37
330
5
100
AcDbSymbolTableRecord
100
AcDbLinetypeTableRecord
  2
DASHEDTINY
 70
    0
  3
Dashed (.15x) _ _ _ _ _ _ _ _ _ _ _ _ _ _ _ _ _
 72
   65
 73
    2
 40
2.8575
 49
1.905
 74
    0
 49
-0.9525
 74
    0
  0
LTYPE
  5
38
330
5
100
AcDbSymbolTableRecord
100
AcDbLinetypeTableRecord
  2
DASHED2
 70
    0
  3
Dashed (.5x) _ _ _ _ _ _ _ _ _ _ _ _ _ _ _ _ _
 72
   65
 73
    2
 40
9.524999999999999
 49
6.35
 74
    0
 49
-3.175
 74
    0
  0
LTYPE
  5
39
330
5
100
AcDbSymbolTableRecord
100
AcDbLinetypeTableRecord
  2
DASHEDX2
 70
    0
  3
Dashed (2x) ____  ____  ____  ____  ____  ___
 72
   65
 73
    2
 40
38.09999999999999
 49
25.4
 74
    0
 49
-12.7
 74
    0
  0
LTYPE
  5
3A
330
5
100
AcDbSymbolTableRecord
100
AcDbLinetypeTableRecord
  2
DASHDOT
 70
    0
  3
Dash dot __ . __ . __ . __ . __ . __ . __ . __
 72
   65
 73
    4
 40
25.4
 49
12.7
 74
    0
 49
-6.35
 74
    0
 49
0
 74
    0
 49
-6.35
 74
    0
  0
LTYPE
  5
3B
330
5
100
AcDbSymbolTableRecord
100
AcDbLinetypeTableRecord
  2
DASHDOTTINY
 70
    0
  3
Dash dot (.15x) _._._._._._._._._._._._._._._.
 72
   65
 73
    4
 40
3.81
 49
1.905
 74
    0
 49
-0.9525
 74
    0
 49
0
 74
    0
 49
-0.9525
 74
    0
  0
LTYPE
  5
3C
330
5
100
AcDbSymbolTableRecord
100
AcDbLinetypeTableRecord
  2
DASHDOT2
 70
    0
  3
Dash dot (.5x) _._._._._._._._._._._._._._._.
 72
   65
 73
    4
 40
12.7
 49
6.35
 74
    0
 49
-3.175
 74
    0
 49
0
 74
    0
 49
-3.175
 74
    0
  0
LTYPE
  5
3D
330
5
100
AcDbSymbolTableRecord
100
AcDbLinetypeTableRecord
  2
DASHDOTX2
 70
    0
  3
Dash dot (2x) ____  .  ____  .  ____  .  ___
 72
   65
 73
    4
 40
50.8
 49
25.4
 74
    0
 49
-12.7
 74
    0
 49
0
 74
    0
 49
-12.7
 74
    0
  0
LTYPE
  5
3E
330
5
100
AcDbSymbolTableRecord
100
AcDbLinetypeTableRecord
  2
DIVIDE
 70
    0
  3
Divide ____ . . ____ . . ____ . . ____ . . ____
 72
   65
 73
    6
 40
31.75
 49
12.7
 74
    0
 49
-6.35
 74
    0
 49
0
 74
    0
 49
-6.35
 74
    0
 49
0
 74
    0
 49
-6.35
 74
    0
  0
LTYPE
  5
3F
330
5
100
AcDbSymbolTableRecord
100
AcDbLinetypeTableRecord
  2
DIVIDETINY
 70
    0
  3
Divide (.15x) __..__..__..__..__..__..__..__.._
 72
   65
 73
    6
 40
4.7625
 49
1.905
 74
    0
 49
-0.9525
 74
    0
 49
0
 74
    0
 49
-0.9525
 74
    0
 49
0
 74
    0
 49
-0.9525
 74
    0
  0
LTYPE
  5
40
330
5
100
AcDbSymbolTableRecord
100
AcDbLinetypeTableRecord
  2
DIVIDE2
 70
    0
  3
Divide (.5x) __..__..__..__..__..__..__..__.._
 72
   65
 73
    6
 40
15.875
 49
6.35
 74
    0
 49
-3.175
 74
    0
 49
0
 74
    0
 49
-3.175
 74
    0
 49
0
 74
    0
 49
-3.175
 74
    0
  0
LTYPE
  5
41
330
5
100
AcDbSymbolTableRecord
100
AcDbLinetypeTableRecord
  2
DIVIDEX2
 70
    0
  3
Divide (2x) ________  .  .  ________  .  .  _
 72
   65
 73
    6
 40
63.5
 49
25.4
 74
    0
 49
-12.7
 74
    0
 49
0
 74
    0
 49
-12.7
 74
    0
 49
0
 74
    0
 49
-12.7
 74
    0
  0
LTYPE
  5
42
330
5
100
AcDbSymbolTableRecord
100
AcDbLinetypeTableRecord
  2
BORDER
 70
    0
  3
Border __ __ . __ __ . __ __ . __ __ . __ __ .
 72
   65
 73
    6
 40
44.45
 49
12.7
 74
    0
 49
-6.35
 74
    0
 49
12.7
 74
    0
 49
-6.35
 74
    0
 49
0
 74
    0
 49
-6.35
 74
    0
  0
LTYPE
  5
43
330
5
100
AcDbSymbolTableRecord
100
AcDbLinetypeTableRecord
  2
BORDERTINY
 70
    0
  3
Border (.15x) __.__.__.__.__.__.__.__.__.__.__.
 72
   65
 73
    6
 40
6.6675
 49
1.905
 74
    0
 49
-0.9525
 74
    0
 49
1.905
 74
    0
 49
-0.9525
 74
    0
 49
0
 74
    0
 49
-0.9525
 74
    0
  0
LTYPE
  5
44
330
5
100
AcDbSymbolTableRecord
100
AcDbLinetypeTableRecord
  2
BORDER2
 70
    0
  3
Border (.5x) __.__.__.__.__.__.__.__.__.__.__.
 72
   65
 73
    6
 40
22.225
 49
6.35
 74
    0
 49
-3.175
 74
    0
 49
6.35
 74
    0
 49
-3.175
 74
    0
 49
0
 74
    0
 49
-3.175
 74
    0
  0
LTYPE
  5
45
330
5
100
AcDbSymbolTableRecord
100
AcDbLinetypeTableRecord
  2
BORDERX2
 70
    0
  3
Border (2x) ____  ____  .  ____  ____  .  ___
 72
   65
 73
    6
 40
88.89999999999999
 49
25.4
 74
    0
 49
-12.7
 74
    0
 49
25.4
 74
    0
 49
-12.7
 74
    0
 49
0
 74
    0
 49
-12.7
 74
    0
  0
LTYPE
  5
46
330
5
100
AcDbSymbolTableRecord
100
AcDbLinetypeTableRecord
  2
CENTER
 70
    0
  3
Center ____ _ ____ _ ____ _ ____ _ ____ _ ____
 72
   65
 73
    4
 40
50.8
 49
31.75
 74
    0
 49
-6.35
 74
    0
 49
6.35
 74
    0
 49
-6.35
 74
    0
  0
LTYPE
  5
47
330
5
100
AcDbSymbolTableRecord
100
AcDbLinetypeTableRecord
  2
CENTERTINY
 70
    0
  3
Center (.15x) ___ _ ___ _ ___ _ ___ _ ___ _ ___
 72
   65
 73
    4
 40
7.619999999999999
 49
4.7625
 74
    0
 49
-0.9525
 74
    0
 49
0.9525
 74
    0
 49
-0.9525
 74
    0
  0
LTYPE
  5
48
330
5
100
AcDbSymbolTableRecord
100
AcDbLinetypeTableRecord
  2
CENTER2
 70
    0
  3
Center (.5x) ___ _ ___ _ ___ _ ___ _ ___ _ ___
 72
   65
 73
    4
 40
28.575
 49
19.05
 74
    0
 49
-3.175
 74
    0
 49
3.175
 74
    0
 49
-3.175
 74
    0
  0
LTYPE
  5
49
330
5
100
AcDbSymbolTableRecord
100
AcDbLinetypeTableRecord
  2
CENTERX2
 70
    0
  3
Center (2x) ________  __  ________  __  _____
 72
   65
 73
    4
 40
101.6
 49
63.5
 74
    0
 49
-12.7
 74
    0
 49
12.7
 74
    0
 49
-12.7
 74
    0
  0
ENDTAB
  0
TABLE
  2
LAYER
  5
2
330
0
100
AcDbSymbolTable
 70
    1
  0
LAYER
  5
10
330
2
100
AcDbSymbolTableRecord
100
AcDbLayerTableRecord
  2
0
 70
    0
 62
    7
  6
CONTINUOUS
370
   -3
390
F
  0
LAYER
  5
4A
330
2
100
AcDbSymbolTableRecord
100
AcDbLayerTableRecord
  2
CENTER
 70
    0
 62
    1
  6
CENTER
370
   -3
390
F
  0
LAYER
  5
4B
330
2
100
AcDbSymbolTableRecord
100
AcDbLayerTableRecord
  2
DEFPOINTS
 70
    0
 62
    7
  6
CONTINUOUS
370
   -3
390
F
  0
ENDTAB
  0
TABLE
  2
STYLE
  5
3
330
0
100
AcDbSymbolTable
 70
    3
  0
STYLE
  5
4C
330
2
100
AcDbSymbolTableRecord
100
AcDbTextStyleTableRecord
  2
STANDARD
 70
    0
 40
0
 41
1
 50
0
 71
    0
 42
1
  3
STANDARD
  4

  0
ENDTAB
  0
TABLE
  2
VIEW
  5
6
330
0
100
AcDbSymbolTable
 70
    0
  0
ENDTAB
  0
TABLE
  2
UCS
  5
7
330
0
100
AcDbSymbolTable
 70
    0
  0
ENDTAB
  0
TABLE
  2
APPID
  5
9
330
0
100
AcDbSymbolTable
 70
    1
  0
APPID
  5
12
330
9
100
AcDbSymbolTableRecord
100
AcDbRegAppTableRecord
  2
ACAD
 70
    0
  0
APPID
  5
4D
330
9
100
AcDbSymbolTableRecord
100
AcDbRegAppTableRecord
  2
LibreCad
 70
    0
  0
ENDTAB
  0
TABLE
  2
DIMSTYLE
  5
A
330
0
100
AcDbSymbolTable
 70
    1
100
AcDbDimStyleTable
 71
    1
  0
DIMSTYLE
105
4E
330
A
100
AcDbSymbolTableRecord
100
AcDbDimStyleTableRecord
  2
Standard
 70
    0
 40
1
 41
2.5
 42
0.625
 43
0.38
 44
1.25
 45
0
 46
0
 47
0
 48
0
 49
1
140
2.5
141
0.09
142
0
143
25.4
144
1
145
0
146
1
147
0.625
148
0
 71
    0
 72
    0
 73
    0
 74
    1
 75
    0
 76
    0
 77
    0
 78
    8
 79
    0
170
    0
171
    2
172
    0
173
    0
174
    0
175
    0
176
  137
177
  137
178
  137
179
    0
271
    4
272
    4
273
    2
274
    2
275
    0
276
    0
277
    2
278
    0
279
    0
280
    0
281
    0
282
    0
283
    1
284
    0
285
    0
286
    0
288
    0
289
    3
340
standard
341

371
   -2
372
   -2
  0
ENDTAB
  0
TABLE
  2
BLOCK_RECORD
  5
1
330
0
100
AcDbSymbolTable
 70
    2
  0
BLOCK_RECORD
  5
1F
330
1
100
AcDbSymbolTableRecord
100
AcDbBlockTableRecord
  2
*Model_Space
 70
    0
280
    1
281
    0
  0
BLOCK_RECORD
  5
1E
330
1
100
AcDbSymbolTableRecord
100
AcDbBlockTableRecord
  2
*Paper_Space
 70
    0
280
    1
281
    0
  0
BLOCK_RECORD
  5
4F
330
1
100
AcDbSymbolTableRecord
100
AcDbBlockTableRecord
  2
_OPEN30
 70
    0
280
    1
281
    0
  0
BLOCK_RECORD
  5
52
330
1
100
AcDbSymbolTableRecord
100
AcDbBlockTableRecord
  2
*U20
 70
    0
280
    1
281
    0
  0
BLOCK_RECORD
  5
55
330
1
100
AcDbSymbolTableRecord
100
AcDbBlockTableRecord
  2
*U21
 70
    0
280
    1
281
    0
  0
ENDTAB
  0
ENDSEC
  0
SECTION
  2
BLOCKS
  0
BLOCK
  5
20
330
1F
100
AcDbEntity
  8
0
100
AcDbBlockBegin
  2
*Model_Space
 70
    0
 10
0
 20
0
 30
0
  3
*Model_Space
  1

  0
ENDBLK
  5
21
330
1F
100
AcDbEntity
  8
0
100
AcDbBlockEnd
  0
BLOCK
  5
1C
330
1B
100
AcDbEntity
  8
0
100
AcDbBlockBegin
  2
*Paper_Space
 70
    0
 10
0
 20
0
 30
0
  3
*Paper_Space
  1

  0
ENDBLK
  5
1D
330
1F
100
AcDbEntity
  8
0
100
AcDbBlockEnd
  0
BLOCK
  5
50
330
4F
100
AcDbEntity
  8
0
100
AcDbBlockBegin
  2
_OPEN30
 70
    0
 10
0
 20
0
  3
_OPEN30
  1

  0
LINE
  5
58
100
AcDbEntity
  8
0
  6
ByBlock
 62
    0
370
   -1
100
AcDbLine
 10
-1
 20
0.26794919
 11
0
 21
0
  0
LINE
  5
59
100
AcDbEntity
  8
0
  6
ByBlock
 62
    0
370
   -1
100
AcDbLine
 10
0
 20
0
 11
-1
 21
-0.26794919
  0
LINE
  5
5A
100
AcDbEntity
  8
0
  6
ByBlock
 62
    0
370
   -1
100
AcDbLine
 10
0
 20
0
 11
-1
 21
0
  0
ENDBLK
  5
51
330
4F
100
AcDbEntity
  8
0
100
AcDbBlockEnd
  0
BLOCK
  5
53
330
52
100
AcDbEntity
  8
0
100
AcDbBlockBegin
  2
*U20
 70
    0
 10
0
 20
0
  3
*U20
  1

  0
TEXT
  5
5B
100
AcDbEntity
  8
0
  6
CONTINUOUS
 62
    7
370
   -1
100
AcDbText
 10
-39.99999999999995
 20
-54.70508899647677
 30
0
 40
3
  1
NEFS8-4080-50
 50
0
 41
1
 51
0
  7
STANDARD
 71
    0
210
0
220
0
230
1
100
AcDbText
  0
ENDBLK
  5
54
330
52
100
AcDbEntity
  8
0
100
AcDbBlockEnd
  0
BLOCK
  5
56
330
55
100
AcDbEntity
  8
0
100
AcDbBlockBegin
  2
*U21
 70
    0
 10
0
 20
0
  3
*U21
  1

  0
TEXT
  5
5C
100
AcDbEntity
  8
0
  6
CONTINUOUS
 62
    7
370
   -1
100
AcDbText
 10
-39.99999999999995
 20
-60.01431328305955
 30
0
 40
3
  1
NEFS8-4080
 50
0
 41
1
 51
0
  7
STANDARD
 71
    0
210
0
220
0
230
1
100
AcDbText
  0
ENDBLK
  5
57
330
55
100
AcDbEntity
  8
0
100
AcDbBlockEnd
  0
ENDSEC
  0
SECTION
  2
ENTITIES
  0
ARC
  5
5D
100
AcDbEntity
  8
0
  6
CONTINUOUS
 62
    7
370
   -1
100
AcDbCircle
 10
25.45000000000005
 20
5.450000000000045
 40
0.3000000000000114
100
AcDbArc
 50
0
 51
90
  0
ARC
  5
5E
100
AcDbEntity
  8
0
  6
CONTINUOUS
 62
    7
370
   -1
100
AcDbCircle
 10
22.80000000000004
 20
5.450000000000045
 40
0.3000000000000043
100
AcDbArc
 50
90
 51
180
  0
LINE
  5
5F
100
AcDbEntity
  8
0
  6
CONTINUOUS
 62
    7
370
   -1
100
AcDbLine
 10
22.50000089410006
 20
5.09534077720005
 11
22.50000089410006
 21
5.450000055100048
  0
ARC
  5
60
100
AcDbEntity
  8
0
  6
CONTINUOUS
 62
    7
370
   -1
100
AcDbCircle
 10
22.20000000000005
 20
5.095341009200055
 40
0.2999999999999987
100
AcDbArc
 50
246.6469077746015
 51
0
  0
ARC
  5
61
100
AcDbEntity
  8
0
  6
CONTINUOUS
 62
    7
370
   -1
100
AcDbCircle
 10
20.00000000000006
 20
5.68e-14
 40
5.249999999999988
100
AcDbArc
 50
66.64690777460147
 51
113.3530922253985
  0
ARC
  5
62
100
AcDbEntity
  8
0
  6
CONTINUOUS
 62
    7
370
   -1
100
AcDbCircle
 10
17.80000000000004
 20
5.095341009200055
 40
0.3000000000000046
100
AcDbArc
 50
180
 51
293.3530922253985
  0
LINE
  5
63
100
AcDbEntity
  8
0
  6
CONTINUOUS
 62
    7
370
   -1
100
AcDbLine
 10
17.50000007450006
 20
5.450000055100048
 11
17.50000007450006
 21
5.09534077720005
  0
ARC
  5
64
100
AcDbEntity
  8
0
  6
CONTINUOUS
 62
    7
370
   -1
100
AcDbCircle
 10
17.20000000000004
 20
5.450000000000045
 40
0.3000000000000114
100
AcDbArc
 50
0
 51
90
  0
LINE
  5
65
100
AcDbEntity
  8
0
  6
CONTINUOUS
 62
    7
370
   -1
100
AcDbLine
 10
14.55000042910006
 20
5.750000011199929
 11
17.20000058409997
 21
5.750000011199929
  0
ARC
  5
66
100
AcDbEntity
  8
0
  6
CONTINUOUS
 62
    7
370
   -1
100
AcDbCircle
 10
14.55000000000004
 20
5.450000000000045
 40
0.2999999999999972
100
AcDbArc
 50
90
 51
180
  0
LINE
  5
67
100
AcDbEntity
  8
0
  6
CONTINUOUS
 62
    7
370
   -1
100
AcDbLine
 10
14.25000000740007
 20
2.799999900099933
 11
14.25000000740007
 21
5.450000055100048
  0
ARC
  5
68
100
AcDbEntity
  8
0
  6
CONTINUOUS
 62
    7
370
   -1
100
AcDbCircle
 10
14.55000000000004
 20
2.800000000000054
 40
0.2999999999999972
100
AcDbArc
 50
180
 51
270
  0
LINE
  5
69
100
AcDbEntity
  8
0
  6
CONTINUOUS
 62
    7
370
   -1
100
AcDbLine
 10
14.90465924140005
 20
2.499999944100053
 11
14.55000042910006
 21
2.499999944100053
  0
ARC
  5
6A
100
AcDbEntity
  8
0
  6
CONTINUOUS
 62
    7
370
   -1
100
AcDbCircle
 10
14.90465899080004
 20
2.200000000000045
 40
0.3000000000000083
100
AcDbArc
 50
336.6469077745986
 51
90
  0
ARC
  5
6B
100
AcDbEntity
  8
0
  6
CONTINUOUS
 62
    7
370
   -1
100
AcDbCircle
 10
20.00000000000006
 20
5.68e-14
 40
5.249999999999995
100
AcDbArc
 50
156.6469077745986
 51
203.3530922254014
  0
ARC
  5
6C
100
AcDbEntity
  8
0
  6
CONTINUOUS
 62
    7
370
   -1
100
AcDbCircle
 10
14.90465899080004
 20
-2.199999999999945
 40
0.2999999999999987
100
AcDbArc
 50
270
 51
23.35309222540141
  0
LINE
  5
6D
100
AcDbEntity
  8
0
  6
CONTINUOUS
 62
    7
370
   -1
100
AcDbLine
 10
14.55000042910006
 20
-2.499999944099954
 11
14.90465924140005
 21
-2.499999944099954
  0
ARC
  5
6E
100
AcDbEntity
  8
0
  6
CONTINUOUS
 62
    7
370
   -1
100
AcDbCircle
 10
14.55000000000004
 20
-2.799999999999954
 40
0.3000000000000043
100
AcDbArc
 50
90
 51
180
  0
LINE
  5
6F
100
AcDbEntity
  8
0
  6
CONTINUOUS
 62
    7
370
   -1
100
AcDbLine
 10
14.25000000740007
 20
-5.45000005519995
 11
14.25000000740007
 21
-2.799999900199949
  0
ARC
  5
70
100
AcDbEntity
  8
0
  6
CONTINUOUS
 62
    7
370
   -1
100
AcDbCircle
 10
14.55000000000004
 20
-5.449999999999945
 40
0.2999999999999972
100
AcDbArc
 50
180
 51
270
  0
LINE
  5
71
100
AcDbEntity
  8
0
  6
CONTINUOUS
 62
    7
370
   -1
100
AcDbLine
 10
17.20000058409997
 20
-5.750000011199958
 11
14.55000042910006
 21
-5.750000011199958
  0
ARC
  5
72
100
AcDbEntity
  8
0
  6
CONTINUOUS
 62
    7
370
   -1
100
AcDbCircle
 10
17.20000000000004
 20
-5.449999999999945
 40
0.2999999999999972
100
AcDbArc
 50
270
 51
0
  0
LINE
  5
73
100
AcDbEntity
  8
0
  6
CONTINUOUS
 62
    7
370
   -1
100
AcDbLine
 10
17.50000007450006
 20
-5.09534077720005
 11
17.50000007450006
 21
-5.45000005519995
  0
ARC
  5
74
100
AcDbEntity
  8
0
  6
CONTINUOUS
 62
    7
370
   -1
100
AcDbCircle
 10
17.80000000000004
 20
-5.095341009199955
 40
0.3000000000000046
100
AcDbArc
 50
66.64690777460147
 51
180
  0
ARC
  5
75
100
AcDbEntity
  8
0
  6
CONTINUOUS
 62
    7
370
   -1
100
AcDbCircle
 10
20.00000000000006
 20
5.68e-14
 40
5.25
100
AcDbArc
 50
246.6469077746015
 51
293.3530922253985
  0
ARC
  5
76
100
AcDbEntity
  8
0
  6
CONTINUOUS
 62
    7
370
   -1
100
AcDbCircle
 10
22.20000000000005
 20
-5.095341009199955
 40
0.2999999999999972
100
AcDbArc
 50
0
 51
113.3530922253985
  0
LINE
  5
77
100
AcDbEntity
  8
0
  6
CONTINUOUS
 62
    7
370
   -1
100
AcDbLine
 10
22.50000089410006
 20
-5.45000005519995
 11
22.50000089410006
 21
-5.09534077720005
  0
ARC
  5
78
100
AcDbEntity
  8
0
  6
CONTINUOUS
 62
    7
370
   -1
100
AcDbCircle
 10
22.80000000000004
 20
-5.449999999999945
 40
0.2999999999999972
100
AcDbArc
 50
180
 51
270
  0
LINE
  5
79
100
AcDbEntity
  8
0
  6
CONTINUOUS
 62
    7
370
   -1
100
AcDbLine
 10
25.45000053940007
 20
-5.750000011199958
 11
22.80000038440008
 21
-5.750000011199958
  0
ARC
  5
7A
100
AcDbEntity
  8
0
  6
CONTINUOUS
 62
    7
370
   -1
100
AcDbCircle
 10
25.45000000000005
 20
-5.449999999999945
 40
0.3000000000000114
100
AcDbArc
 50
270
 51
0
  0
LINE
  5
7B
100
AcDbEntity
  8
0
  6
CONTINUOUS
 62
    7
370
   -1
100
AcDbLine
 10
25.75000002979996
 20
-2.799999900199949
 11
25.75000002979996
 21
-5.45000005519995
  0
ARC
  5
7C
100
AcDbEntity
  8
0
  6
CONTINUOUS
 62
    7
370
   -1
100
AcDbCircle
 10
25.45000000000005
 20
-2.799999999999954
 40
0.3000000000000043
100
AcDbArc
 50
0
 51
90
  0
LINE
  5
7D
100
AcDbEntity
  8
0
  6
CONTINUOUS
 62
    7
370
   -1
100
AcDbLine
 10
25.09534172709996
 20
-2.499999944099954
 11
25.45000053940007
 21
-2.499999944099954
  0
ARC
  5
7E
100
AcDbEntity
  8
0
  6
CONTINUOUS
 62
    7
370
   -1
100
AcDbCircle
 10
25.09534100920007
 20
-2.199999999999945
 40
0.2999999999999972
100
AcDbArc
 50
156.6469077745986
 51
270
  0
ARC
  5
7F
100
AcDbEntity
  8
0
  6
CONTINUOUS
 62
    7
370
   -1
100
AcDbCircle
 10
20.00000000000006
 20
5.68e-14
 40
5.249999999999995
100
AcDbArc
 50
336.6469077745986
 51
23.35309222540141
  0
ARC
  5
80
100
AcDbEntity
  8
0
  6
CONTINUOUS
 62
    7
370
   -1
100
AcDbCircle
 10
25.09534100920007
 20
2.200000000000045
 40
0.2999999999999987
100
AcDbArc
 50
90
 51
203.3530922254014
  0
LINE
  5
81
100
AcDbEntity
  8
0
  6
CONTINUOUS
 62
    7
370
   -1
100
AcDbLine
 10
25.45000053940007
 20
2.499999944100053
 11
25.09534172709996
 21
2.499999944100053
  0
ARC
  5
82
100
AcDbEntity
  8
0
  6
CONTINUOUS
 62
    7
370
   -1
100
AcDbCircle
 10
25.45000000000005
 20
2.800000000000054
 40
0.3000000000000043
100
AcDbArc
 50
270
 51
0
  0
LINE
  5
83
100
AcDbEntity
  8
0
  6
CONTINUOUS
 62
    7
370
   -1
100
AcDbLine
 10
25.75000002979996
 20
5.450000055100048
 11
25.75000002979996
 21
2.799999900099933
  0
ARC
  5
84
100
AcDbEntity
  8
0
  6
CONTINUOUS
 62
    7
370
   -1
100
AcDbCircle
 10
31.79999999999998
 20
11.80000000000005
 40
0.5
100
AcDbArc
 50
180
 51
270
  0
LINE
  5
85
100
AcDbEntity
  8
0
  6
CONTINUOUS
 62
    7
370
   -1
100
AcDbLine
 10
37.60000047090006
 20
11.30000036210005
 11
31.80000185969996
 21
11.30000036210005
  0
LINE
  5
86
100
AcDbEntity
  8
0
  6
CONTINUOUS
 62
    7
370
   -1
100
AcDbLine
 10
38.10000047090006
 20
13.05224187670005
 11
38.10000047090006
 21
11.80000036209993
  0
ARC
  5
87
100
AcDbEntity
  8
0
  6
CONTINUOUS
 62
    7
370
   -1
100
AcDbCircle
 10
37.60000047090006
 20
11.80000036209993
 40
0.5
100
AcDbArc
 50
270
 51
0
  0
ARC
  5
88
100
AcDbEntity
  8
0
  6
CONTINUOUS
 62
    7
370
   -1
100
AcDbCircle
 10
37.10000000000005
 20
13.05224172590006
 40
1
100
AcDbArc
 50
0
 51
70.26548510880097
  0
ARC
  5
89
100
AcDbEntity
  8
0
  6
CONTINUOUS
 62
    7
370
   -1
100
AcDbCircle
 10
39.70000000000005
 20
20.30000000000006
 40
6.700000000000008
100
AcDbArc
 50
211.2974122203004
 51
250.265485108801
  0
ARC
  5
8A
100
AcDbEntity
  8
0
  6
CONTINUOUS
 62
    7
370
   -1
100
AcDbCircle
 10
33.12048634020005
 20
16.30000000000005
 40
1.000000000000011
100
AcDbArc
 50
31.29741222030046
 51
90
  0
LINE
  5
8B
100
AcDbEntity
  8
0
  6
CONTINUOUS
 62
    7
370
   -1
100
AcDbLine
 10
32.10000084640004
 20
17.30000041420005
 11
33.12048688530007
 21
17.30000041420005
  0
LINE
  5
8C
100
AcDbEntity
  8
0
  6
CONTINUOUS
 62
    7
370
   -1
100
AcDbLine
 10
31.30000084640006
 20
11.80000044399993
 11
31.30000084640006
 21
16.50000041420004
  0
ARC
  5
8D
100
AcDbEntity
  8
0
  6
CONTINUOUS
 62
    7
370
   -1
100
AcDbCircle
 10
32.10000084640004
 20
16.50000041420004
 40
0.8
100
AcDbArc
 50
90
 51
180
  0
LINE
  5
8E
100
AcDbEntity
  8
0
  6
CONTINUOUS
 62
    7
370
   -1
100
AcDbLine
 10
31.80000185969996
 20
-11.30000036209996
 11
37.60000047090006
 21
-11.30000036209996
  0
ARC
  5
8F
100
AcDbEntity
  8
0
  6
CONTINUOUS
 62
    7
370
   -1
100
AcDbCircle
 10
31.79999999999998
 20
-11.79999999999995
 40
0.5
100
AcDbArc
 50
90
 51
180
  0
LINE
  5
90
100
AcDbEntity
  8
0
  6
CONTINUOUS
 62
    7
370
   -1
100
AcDbLine
 10
31.30000084639997
 20
-16.50000041429995
 11
31.30000084640006
 21
-11.80000044409995
  0
LINE
  5
91
100
AcDbEntity
  8
0
  6
CONTINUOUS
 62
    7
370
   -1
100
AcDbLine
 10
33.12048688530007
 20
-17.30000041429996
 11
32.10000084639998
 21
-17.30000041429996
  0
ARC
  5
92
100
AcDbEntity
  8
0
  6
CONTINUOUS
 62
    7
370
   -1
100
AcDbCircle
 10
32.10000084639998
 20
-16.50000041429995
 40
0.8
100
AcDbArc
 50
180
 51
270
  0
ARC
  5
93
100
AcDbEntity
  8
0
  6
CONTINUOUS
 62
    7
370
   -1
100
AcDbCircle
 10
33.12048634020005
 20
-16.29999999999995
 40
1
100
AcDbArc
 50
270
 51
328.7025877797002
  0
ARC
  5
94
100
AcDbEntity
  8
0
  6
CONTINUOUS
 62
    7
370
   -1
100
AcDbCircle
 10
39.70000000000005
 20
-20.29999999999995
 40
6.700000000000021
100
AcDbArc
 50
109.734514891199
 51
148.7025877796995
  0
ARC
  5
95
100
AcDbEntity
  8
0
  6
CONTINUOUS
 62
    7
370
   -1
100
AcDbCircle
 10
37.10000000000005
 20
-13.05224172589994
 40
1
100
AcDbArc
 50
289.734514891199
 51
0
  0
LINE
  5
96
100
AcDbEntity
  8
0
  6
CONTINUOUS
 62
    7
370
   -1
100
AcDbLine
 10
38.10000047090006
 20
-11.80000036209996
 11
38.10000047090006
 21
-13.05224187669995
  0
ARC
  5
97
100
AcDbEntity
  8
0
  6
CONTINUOUS
 62
    7
370
   -1
100
AcDbCircle
 10
37.60000047090006
 20
-11.80000036209996
 40
0.5
100
AcDbArc
 50
0
 51
90
  0
ARC
  5
98
100
AcDbEntity
  8
0
  6
CONTINUOUS
 62
    7
370
   -1
100
AcDbCircle
 10
6.500000000000056
 20
-16.49999999999994
 40
1.000000000000001
100
AcDbArc
 50
270
 51
0
  0
LINE
  5
99
100
AcDbEntity
  8
0
  6
CONTINUOUS
 62
    7
370
   -1
100
AcDbLine
 10
7.499999832400078
 20
-16.49999991059997
 11
7.499999832400078
 21
-12.13639602069996
  0
ARC
  5
9A
100
AcDbEntity
  8
0
  6
CONTINUOUS
 62
    7
370
   -1
100
AcDbCircle
 10
8.500000000000057
 20
-12.13639610309997
 40
1
100
AcDbArc
 50
135.0000000000005
 51
180
  0
LINE
  5
9B
100
AcDbEntity
  8
0
  6
CONTINUOUS
 62
    7
370
   -1
100
AcDbLine
 10
7.792893331500067
 20
-11.42928935589995
 11
12.75710668410008
 21
-6.465075537599958
  0
ARC
  5
9C
100
AcDbEntity
  8
0
  6
CONTINUOUS
 62
    7
370
   -1
100
AcDbCircle
 10
12.05000000000004
 20
-5.757968978299942
 40
1.000000000000001
100
AcDbArc
 50
315.0000000000006
 51
0
  0
LINE
  5
9D
100
AcDbEntity
  8
0
  6
CONTINUOUS
 62
    7
370
   -1
100
AcDbLine
 10
13.05000018330005
 20
-5.757968872799949
 11
13.05000018330005
 21
-2.369011053799965
  0
ARC
  5
9E
100
AcDbEntity
  8
0
  6
CONTINUOUS
 62
    7
370
   -1
100
AcDbCircle
 10
13.45000000000004
 20
-2.369011134499956
 40
0.4000000000000057
100
AcDbArc
 50
112.7015222537996
 51
180
  0
ARC
  5
9F
100
AcDbEntity
  8
0
  6
CONTINUOUS
 62
    7
370
   -1
100
AcDbCircle
 10
13.14125555800007
 20
-1.630988865499958
 40
0.3999999999999979
100
AcDbArc
 50
292.7015222537995
 51
13.37632571609981
  0
ARC
  5
A0
100
AcDbEntity
  8
0
  6
CONTINUOUS
 62
    7
370
   -1
100
AcDbCircle
 10
20.00000000000006
 20
5.68e-14
 40
6.649999999999991
100
AcDbArc
 50
166.6236742839001
 51
193.3763257160998
  0
ARC
  5
A1
100
AcDbEntity
  8
0
  6
CONTINUOUS
 62
    7
370
   -1
100
AcDbCircle
 10
13.14125555800007
 20
1.630988865500043
 40
0.3999999999999971
100
AcDbArc
 50
346.6236742839002
 51
67.29847774620039
  0
ARC
  5
A2
100
AcDbEntity
  8
0
  6
CONTINUOUS
 62
    7
370
   -1
100
AcDbCircle
 10
13.45000000000004
 20
2.369011134500041
 40
0.4000000000000057
100
AcDbArc
 50
180
 51
247.2984777462004
  0
LINE
  5
A3
100
AcDbEntity
  8
0
  6
CONTINUOUS
 62
    7
370
   -1
100
AcDbLine
 10
13.05000018330005
 20
2.369011053800036
 11
13.05000018330005
 21
5.757968872800034
  0
ARC
  5
A4
100
AcDbEntity
  8
0
  6
CONTINUOUS
 62
    7
370
   -1
100
AcDbCircle
 10
12.05000000000004
 20
5.757968978300056
 40
1.000000000000001
100
AcDbArc
 50
0
 51
44.99999999999942
  0
LINE
  5
A5
100
AcDbEntity
  8
0
  6
CONTINUOUS
 62
    7
370
   -1
100
AcDbLine
 10
12.75710668410008
 20
6.465075537500055
 11
7.792893331500067
 21
11.42928935590005
  0
ARC
  5
A6
100
AcDbEntity
  8
0
  6
CONTINUOUS
 62
    7
370
   -1
100
AcDbCircle
 10
8.500000000000057
 20
12.13639610300005
 40
1
100
AcDbArc
 50
180
 51
224.9999999999994
  0
LINE
  5
A7
100
AcDbEntity
  8
0
  6
CONTINUOUS
 62
    7
370
   -1
100
AcDbLine
 10
7.499999832400078
 20
12.13639602060003
 11
7.499999832400078
 21
16.49999991060004
  0
ARC
  5
A8
100
AcDbEntity
  8
0
  6
CONTINUOUS
 62
    7
370
   -1
100
AcDbCircle
 10
6.500000000000056
 20
16.50000000000004
 40
1.000000000000007
100
AcDbArc
 50
0
 51
90
  0
ARC
  5
A9
100
AcDbEntity
  8
0
  6
CONTINUOUS
 62
    7
370
   -1
100
AcDbCircle
 10
-8.499999999999943
 20
12.13639610300005
 40
1.000000000000001
100
AcDbArc
 50
315.0000000000006
 51
0
  0
ARC
  5
AA
100
AcDbEntity
  8
0
  6
CONTINUOUS
 62
    7
370
   -1
100
AcDbCircle
 10
-12.04999999999995
 20
5.757968978300056
 40
1.000000000000001
100
AcDbArc
 50
135.0000000000005
 51
180
  0
ARC
  5
AB
100
AcDbEntity
  8
0
  6
CONTINUOUS
 62
    7
370
   -1
100
AcDbCircle
 10
-12.04999999999995
 20
-5.757968978299942
 40
1.000000000000001
100
AcDbArc
 50
180
 51
224.9999999999994
  0
ARC
  5
AC
100
AcDbEntity
  8
0
  6
CONTINUOUS
 62
    7
370
   -1
100
AcDbCircle
 10
-8.499999999999943
 20
-12.13639610309997
 40
1.000000000000001
100
AcDbArc
 50
0
 51
44.99999999999942
  0
ARC
  5
AD
100
AcDbEntity
  8
0
  6
CONTINUOUS
 62
    7
370
   -1
100
AcDbCircle
 10
-25.45000000000005
 20
2.800000000000054
 40
0.3000000000000043
100
AcDbArc
 50
180
 51
270
  0
LINE
  5
AE
100
AcDbEntity
  8
0
  6
CONTINUOUS
 62
    7
370
   -1
100
AcDbLine
 10
-25.45000053939994
 20
2.499999944100053
 11
-25.09534172710005
 21
2.499999944100053
  0
ARC
  5
AF
100
AcDbEntity
  8
0
  6
CONTINUOUS
 62
    7
370
   -1
100
AcDbCircle
 10
-25.09534100919994
 20
2.200000000000045
 40
0.2999999999999987
100
AcDbArc
 50
336.6469077745986
 51
90
  0
ARC
  5
B0
100
AcDbEntity
  8
0
  6
CONTINUOUS
 62
    7
370
   -1
100
AcDbCircle
 10
-19.99999999999994
 20
5.68e-14
 40
5.249999999999976
100
AcDbArc
 50
156.6469077745986
 51
203.3530922254014
  0
ARC
  5
B1
100
AcDbEntity
  8
0
  6
CONTINUOUS
 62
    7
370
   -1
100
AcDbCircle
 10
-25.09534100919994
 20
-2.199999999999945
 40
0.2999999999999972
100
AcDbArc
 50
270
 51
23.35309222540141
  0
LINE
  5
B2
100
AcDbEntity
  8
0
  6
CONTINUOUS
 62
    7
370
   -1
100
AcDbLine
 10
-25.09534172710005
 20
-2.499999944099954
 11
-25.45000053939994
 21
-2.499999944099954
  0
ARC
  5
B3
100
AcDbEntity
  8
0
  6
CONTINUOUS
 62
    7
370
   -1
100
AcDbCircle
 10
-25.45000000000005
 20
-2.799999999999954
 40
0.3000000000000043
100
AcDbArc
 50
90
 51
180
  0
LINE
  5
B4
100
AcDbEntity
  8
0
  6
CONTINUOUS
 62
    7
370
   -1
100
AcDbLine
 10
-25.75000002979994
 20
-2.799999900199949
 11
-25.75000002979994
 21
-5.45000005519995
  0
ARC
  5
B5
100
AcDbEntity
  8
0
  6
CONTINUOUS
 62
    7
370
   -1
100
AcDbCircle
 10
-25.45000000000005
 20
-5.449999999999945
 40
0.2999999999999972
100
AcDbArc
 50
180
 51
270
  0
LINE
  5
B6
100
AcDbEntity
  8
0
  6
CONTINUOUS
 62
    7
370
   -1
100
AcDbLine
 10
-25.45000053939994
 20
-5.750000011199958
 11
-22.80000038449994
 21
-5.750000011199958
  0
ARC
  5
B7
100
AcDbEntity
  8
0
  6
CONTINUOUS
 62
    7
370
   -1
100
AcDbCircle
 10
-22.79999999999994
 20
-5.449999999999945
 40
0.2999999999999972
100
AcDbArc
 50
270
 51
0
  0
LINE
  5
B8
100
AcDbEntity
  8
0
  6
CONTINUOUS
 62
    7
370
   -1
100
AcDbLine
 10
-22.50000089409994
 20
-5.45000005519995
 11
-22.50000089409994
 21
-5.09534077720005
  0
ARC
  5
B9
100
AcDbEntity
  8
0
  6
CONTINUOUS
 62
    7
370
   -1
100
AcDbCircle
 10
-22.19999999999995
 20
-5.095341009199955
 40
0.2999999999999987
100
AcDbArc
 50
66.64690777460147
 51
180
  0
ARC
  5
BA
100
AcDbEntity
  8
0
  6
CONTINUOUS
 62
    7
370
   -1
100
AcDbCircle
 10
-19.99999999999994
 20
5.68e-14
 40
5.249999999999995
100
AcDbArc
 50
246.6469077746015
 51
293.3530922253985
  0
ARC
  5
BB
100
AcDbEntity
  8
0
  6
CONTINUOUS
 62
    7
370
   -1
100
AcDbCircle
 10
-17.79999999999995
 20
-5.095341009199955
 40
0.3000000000000043
100
AcDbArc
 50
0
 51
113.3530922253985
  0
LINE
  5
BC
100
AcDbEntity
  8
0
  6
CONTINUOUS
 62
    7
370
   -1
100
AcDbLine
 10
-17.50000007449992
 20
-5.09534077720005
 11
-17.50000007449992
 21
-5.45000005519995
  0
ARC
  5
BD
100
AcDbEntity
  8
0
  6
CONTINUOUS
 62
    7
370
   -1
100
AcDbCircle
 10
-17.19999999999996
 20
-5.449999999999945
 40
0.2999999999999901
100
AcDbArc
 50
180
 51
270
  0
LINE
  5
BE
100
AcDbEntity
  8
0
  6
CONTINUOUS
 62
    7
370
   -1
100
AcDbLine
 10
-17.20000058409994
 20
-5.750000011199958
 11
-14.55000042919994
 21
-5.750000011199958
  0
ARC
  5
BF
100
AcDbEntity
  8
0
  6
CONTINUOUS
 62
    7
370
   -1
100
AcDbCircle
 10
-14.54999999999995
 20
-5.449999999999945
 40
0.3000000000000043
100
AcDbArc
 50
270
 51
0
  0
LINE
  5
C0
100
AcDbEntity
  8
0
  6
CONTINUOUS
 62
    7
370
   -1
100
AcDbLine
 10
-14.25000000749995
 20
-5.45000005519995
 11
-14.25000000749995
 21
-2.799999900199949
  0
ARC
  5
C1
100
AcDbEntity
  8
0
  6
CONTINUOUS
 62
    7
370
   -1
100
AcDbCircle
 10
-14.54999999999995
 20
-2.799999999999954
 40
0.3000000000000043
100
AcDbArc
 50
0
 51
90
  0
LINE
  5
C2
100
AcDbEntity
  8
0
  6
CONTINUOUS
 62
    7
370
   -1
100
AcDbLine
 10
-14.55000042919994
 20
-2.499999944099954
 11
-14.90465924139994
 21
-2.499999944099954
  0
ARC
  5
C3
100
AcDbEntity
  8
0
  6
CONTINUOUS
 62
    7
370
   -1
100
AcDbCircle
 10
-14.90465899079996
 20
-2.199999999999945
 40
0.2999999999999987
100
AcDbArc
 50
156.6469077745986
 51
270
  0
ARC
  5
C4
100
AcDbEntity
  8
0
  6
CONTINUOUS
 62
    7
370
   -1
100
AcDbCircle
 10
-19.99999999999994
 20
5.68e-14
 40
5.25
100
AcDbArc
 50
336.6469077745986
 51
23.35309222540141
  0
ARC
  5
C5
100
AcDbEntity
  8
0
  6
CONTINUOUS
 62
    7
370
   -1
100
AcDbCircle
 10
-14.90465899079996
 20
2.200000000000045
 40
0.3000000000000043
100
AcDbArc
 50
90
 51
203.3530922254014
  0
LINE
  5
C6
100
AcDbEntity
  8
0
  6
CONTINUOUS
 62
    7
370
   -1
100
AcDbLine
 10
-14.90465924139994
 20
2.499999944100053
 11
-14.55000042919994
 21
2.499999944100053
  0
ARC
  5
C7
100
AcDbEntity
  8
0
  6
CONTINUOUS
 62
    7
370
   -1
100
AcDbCircle
 10
-14.54999999999995
 20
2.800000000000054
 40
0.3000000000000043
100
AcDbArc
 50
270
 51
0
  0
LINE
  5
C8
100
AcDbEntity
  8
0
  6
CONTINUOUS
 62
    7
370
   -1
100
AcDbLine
 10
-14.25000000749995
 20
2.799999900099933
 11
-14.25000000749995
 21
5.450000055100048
  0
ARC
  5
C9
100
AcDbEntity
  8
0
  6
CONTINUOUS
 62
    7
370
   -1
100
AcDbCircle
 10
-14.54999999999995
 20
5.450000000000045
 40
0.3000000000000043
100
AcDbArc
 50
0
 51
90
  0
LINE
  5
CA
100
AcDbEntity
  8
0
  6
CONTINUOUS
 62
    7
370
   -1
100
AcDbLine
 10
-14.55000042919994
 20
5.750000011199929
 11
-17.20000058409994
 21
5.750000011199929
  0
ARC
  5
CB
100
AcDbEntity
  8
0
  6
CONTINUOUS
 62
    7
370
   -1
100
AcDbCircle
 10
-17.19999999999996
 20
5.450000000000045
 40
0.3000000000000043
100
AcDbArc
 50
90
 51
180
  0
LINE
  5
CC
100
AcDbEntity
  8
0
  6
CONTINUOUS
 62
    7
370
   -1
100
AcDbLine
 10
-17.50000007449992
 20
5.450000055100048
 11
-17.50000007449992
 21
5.09534077720005
  0
ARC
  5
CD
100
AcDbEntity
  8
0
  6
CONTINUOUS
 62
    7
370
   -1
100
AcDbCircle
 10
-17.79999999999995
 20
5.095341009200055
 40
0.3000000000000043
100
AcDbArc
 50
246.6469077746015
 51
0
  0
ARC
  5
CE
100
AcDbEntity
  8
0
  6
CONTINUOUS
 62
    7
370
   -1
100
AcDbCircle
 10
-19.99999999999994
 20
5.68e-14
 40
5.249999999999988
100
AcDbArc
 50
66.64690777460147
 51
113.3530922253985
  0
ARC
  5
CF
100
AcDbEntity
  8
0
  6
CONTINUOUS
 62
    7
370
   -1
100
AcDbCircle
 10
-22.19999999999995
 20
5.095341009200055
 40
0.3000000000000015
100
AcDbArc
 50
180
 51
293.3530922253985
  0
LINE
  5
D0
100
AcDbEntity
  8
0
  6
CONTINUOUS
 62
    7
370
   -1
100
AcDbLine
 10
-22.50000089409994
 20
5.09534077720005
 11
-22.50000089409994
 21
5.450000055100048
  0
ARC
  5
D1
100
AcDbEntity
  8
0
  6
CONTINUOUS
 62
    7
370
   -1
100
AcDbCircle
 10
-22.79999999999994
 20
5.450000000000045
 40
0.3000000000000043
100
AcDbArc
 50
0
 51
90
  0
LINE
  5
D2
100
AcDbEntity
  8
0
  6
CONTINUOUS
 62
    7
370
   -1
100
AcDbLine
 10
-22.80000038449994
 20
5.750000011199929
 11
-25.45000053939994
 21
5.750000011199929
  0
ARC
  5
D3
100
AcDbEntity
  8
0
  6
CONTINUOUS
 62
    7
370
   -1
100
AcDbCircle
 10
-25.45000000000005
 20
5.450000000000045
 40
0.3000000000000043
100
AcDbArc
 50
90
 51
180
  0
LINE
  5
D4
100
AcDbEntity
  8
0
  6
CONTINUOUS
 62
    7
370
   -1
100
AcDbLine
 10
-25.75000002979994
 20
5.450000055100048
 11
-25.75000002979994
 21
2.799999900099933
  0
LINE
  5
D5
100
AcDbEntity
  8
0
  6
CONTINUOUS
 62
    7
370
   -1
100
AcDbLine
 10
-32.10000084639994
 20
17.30000041420005
 11
-33.12048688529994
 21
17.30000041420005
  0
ARC
  5
D6
100
AcDbEntity
  8
0
  6
CONTINUOUS
 62
    7
370
   -1
100
AcDbCircle
 10
-33.12048634020005
 20
16.30000000000005
 40
1.000000000000007
100
AcDbArc
 50
90
 51
148.7025877796995
  0
ARC
  5
D7
100
AcDbEntity
  8
0
  6
CONTINUOUS
 62
    7
370
   -1
100
AcDbCircle
 10
-39.69999999999995
 20
20.30000000000006
 40
6.7
100
AcDbArc
 50
289.734514891199
 51
328.7025877797002
  0
ARC
  5
D8
100
AcDbEntity
  8
0
  6
CONTINUOUS
 62
    7
370
   -1
100
AcDbCircle
 10
-37.09999999999995
 20
13.05224172590006
 40
1
100
AcDbArc
 50
109.734514891199
 51
180
  0
LINE
  5
D9
100
AcDbEntity
  8
0
  6
CONTINUOUS
 62
    7
370
   -1
100
AcDbLine
 10
-38.10000047089993
 20
13.05224187670005
 11
-38.10000047089993
 21
11.80000036209993
  0
LINE
  5
DA
100
AcDbEntity
  8
0
  6
CONTINUOUS
 62
    7
370
   -1
100
AcDbLine
 10
-37.60000047089993
 20
11.30000036210005
 11
-31.80000185969995
 21
11.30000036210005
  0
ARC
  5
DB
100
AcDbEntity
  8
0
  6
CONTINUOUS
 62
    7
370
   -1
100
AcDbCircle
 10
-37.60000047089993
 20
11.80000036209993
 40
0.5
100
AcDbArc
 50
180
 51
270
  0
ARC
  5
DC
100
AcDbEntity
  8
0
  6
CONTINUOUS
 62
    7
370
   -1
100
AcDbCircle
 10
-31.79999999999994
 20
11.80000000000005
 40
0.5
100
AcDbArc
 50
270
 51
0
  0
LINE
  5
DD
100
AcDbEntity
  8
0
  6
CONTINUOUS
 62
    7
370
   -1
100
AcDbLine
 10
-31.30000084639994
 20
11.80000044399993
 11
-31.30000084639994
 21
16.50000041420004
  0
ARC
  5
DE
100
AcDbEntity
  8
0
  6
CONTINUOUS
 62
    7
370
   -1
100
AcDbCircle
 10
-32.10000084639994
 20
16.50000041420004
 40
0.8
100
AcDbArc
 50
0
 51
90
  0
ARC
  5
DF
100
AcDbEntity
  8
0
  6
CONTINUOUS
 62
    7
370
   -1
100
AcDbCircle
 10
-37.09999999999995
 20
-13.05224172589994
 40
1
100
AcDbArc
 50
180
 51
250.265485108801
  0
ARC
  5
E0
100
AcDbEntity
  8
0
  6
CONTINUOUS
 62
    7
370
   -1
100
AcDbCircle
 10
-39.69999999999995
 20
-20.29999999999995
 40
6.700000000000006
100
AcDbArc
 50
31.29741222030046
 51
70.26548510880097
  0
ARC
  5
E1
100
AcDbEntity
  8
0
  6
CONTINUOUS
 62
    7
370
   -1
100
AcDbCircle
 10
-33.12048634020005
 20
-16.29999999999995
 40
1.000000000000001
100
AcDbArc
 50
211.2974122203004
 51
270
  0
LINE
  5
E2
100
AcDbEntity
  8
0
  6
CONTINUOUS
 62
    7
370
   -1
100
AcDbLine
 10
-33.12048688529994
 20
-17.30000041429996
 11
-32.10000084639994
 21
-17.30000041429996
  0
ARC
  5
E3
100
AcDbEntity
  8
0
  6
CONTINUOUS
 62
    7
370
   -1
100
AcDbCircle
 10
-32.10000084639994
 20
-16.50000041429995
 40
0.8
100
AcDbArc
 50
270
 51
0
  0
LINE
  5
E4
100
AcDbEntity
  8
0
  6
CONTINUOUS
 62
    7
370
   -1
100
AcDbLine
 10
-31.30000084639994
 20
-16.50000041429995
 11
-31.30000084639994
 21
-11.80000044409995
  0
ARC
  5
E5
100
AcDbEntity
  8
0
  6
CONTINUOUS
 62
    7
370
   -1
100
AcDbCircle
 10
-31.79999999999994
 20
-11.79999999999995
 40
0.5
100
AcDbArc
 50
0
 51
90
  0
LINE
  5
E6
100
AcDbEntity
  8
0
  6
CONTINUOUS
 62
    7
370
   -1
100
AcDbLine
 10
-31.80000185969995
 20
-11.30000036209996
 11
-37.60000047089993
 21
-11.30000036209996
  0
LINE
  5
E7
100
AcDbEntity
  8
0
  6
CONTINUOUS
 62
    7
370
   -1
100
AcDbLine
 10
-38.10000047089993
 20
-11.80000036209996
 11
-38.10000047089993
 21
-13.05224187669995
  0
ARC
  5
E8
100
AcDbEntity
  8
0
  6
CONTINUOUS
 62
    7
370
   -1
100
AcDbCircle
 10
-37.60000047089993
 20
-11.80000036209996
 40
0.5
100
AcDbArc
 50
90
 51
180
  0
ARC
  5
E9
100
AcDbEntity
  8
0
  6
CONTINUOUS
 62
    7
370
   -1
100
AcDbCircle
 10
14.70000000000004
 20
14.80000000000005
 40
0.3000000000000114
100
AcDbArc
 50
270
 51
0
  0
LINE
  5
EA
100
AcDbEntity
  8
0
  6
CONTINUOUS
 62
    7
370
   -1
100
AcDbLine
 10
14.70000017429996
 20
14.49999958270003
 11
9.999999776500061
 21
14.49999958270003
  0
LINE
  5
EB
100
AcDbEntity
  8
0
  6
CONTINUOUS
 62
    7
370
   -1
100
AcDbLine
 10
9.999999776500061
 20
14.49999958270003
 11
9.999999776500061
 21
11.76776736970005
  0
LINE
  5
EC
100
AcDbEntity
  8
0
  6
CONTINUOUS
 62
    7
370
   -1
100
AcDbLine
 10
9.999999776500061
 20
11.76776736970005
 11
14.26776684820007
 21
7.499999832300048
  0
LINE
  5
ED
100
AcDbEntity
  8
0
  6
CONTINUOUS
 62
    7
370
   -1
100
AcDbLine
 10
14.26776684820007
 20
7.499999832300048
 11
16.49999991060005
 21
7.499999832300048
  0
LINE
  5
EE
100
AcDbEntity
  8
0
  6
CONTINUOUS
 62
    7
370
   -1
100
AcDbLine
 10
16.49999991060005
 20
7.499999832300048
 11
18.24758760629996
 21
7.223209366200038
  0
LINE
  5
EF
100
AcDbEntity
  8
0
  6
CONTINUOUS
 62
    7
370
   -1
100
AcDbLine
 10
18.24758760629996
 20
7.223209366200038
 11
19.21700127420004
 21
7.482962682800035
  0
ARC
  5
F0
100
AcDbEntity
  8
0
  6
CONTINUOUS
 62
    7
370
   -1
100
AcDbCircle
 10
19.34641016150007
 20
7.000000000000056
 40
0.5000000000000016
100
AcDbArc
 50
59.99999999999986
 51
105.0000000000011
  0
LINE
  5
F1
100
AcDbEntity
  8
0
  6
CONTINUOUS
 62
    7
370
   -1
100
AcDbLine
 10
19.59641091520007
 20
7.433012593500038
 11
19.99999955300006
 21
7.19999987630004
  0
LINE
  5
F2
100
AcDbEntity
  8
0
  6
CONTINUOUS
 62
    7
370
   -1
100
AcDbLine
 10
19.99999955300006
 20
7.19999987630004
 11
20.40359005330007
 21
7.433012593500038
  0
ARC
  5
F3
100
AcDbEntity
  8
0
  6
CONTINUOUS
 62
    7
370
   -1
100
AcDbCircle
 10
20.65358983850007
 20
7.000000000000056
 40
0.4999999999999979
100
AcDbArc
 50
89.95307338979158
 51
120.0000000000001
  0
LINE
  5
F4
100
AcDbEntity
  8
0
  6
CONTINUOUS
 62
    7
370
   -1
100
AcDbLine
 10
20.65399935036277
 20
7.499999832300048
 11
25.73223225770005
 21
7.499999832300048
  0
LINE
  5
F5
100
AcDbEntity
  8
0
  6
CONTINUOUS
 62
    7
370
   -1
100
AcDbLine
 10
25.73223225770005
 20
7.499999832300048
 11
29.99999932940009
 21
11.76776736970005
  0
LINE
  5
F6
100
AcDbEntity
  8
0
  6
CONTINUOUS
 62
    7
370
   -1
100
AcDbLine
 10
29.99999932940009
 20
11.76776736970005
 11
29.99999932940009
 21
14.49999958270003
  0
LINE
  5
F7
100
AcDbEntity
  8
0
  6
CONTINUOUS
 62
    7
370
   -1
100
AcDbLine
 10
29.99999932940009
 20
14.49999958270003
 11
25.29999986290005
 21
14.49999958270003
  0
ARC
  5
F8
100
AcDbEntity
  8
0
  6
CONTINUOUS
 62
    7
370
   -1
100
AcDbCircle
 10
25.30000000000004
 20
14.80000000000005
 40
0.3000000000000043
100
AcDbArc
 50
180
 51
270
  0
ARC
  5
F9
100
AcDbEntity
  8
0
  6
CONTINUOUS
 62
    7
370
   -1
100
AcDbCircle
 10
25.30000000000004
 20
19.70000000000006
 40
0.3000000000000114
100
AcDbArc
 50
90
 51
180
  0
LINE
  5
FA
100
AcDbEntity
  8
0
  6
CONTINUOUS
 62
    7
370
   -1
100
AcDbLine
 10
25.29999986290005
 20
19.99999955290003
 11
37.00000047680007
 21
19.99999955290003
  0
ARC
  5
FB
100
AcDbEntity
  8
0
  6
CONTINUOUS
 62
    7
370
   -1
100
AcDbCircle
 10
37.00000000000006
 20
17.00000000000004
 40
3
100
AcDbArc
 50
0
 51
90
  0
LINE
  5
FC
100
AcDbEntity
  8
0
  6
CONTINUOUS
 62
    7
370
   -1
100
AcDbLine
 10
39.99999910590006
 20
17.00000092379993
 11
39.99999910590006
 21
5.299999844300032
  0
ARC
  5
FD
100
AcDbEntity
  8
0
  6
CONTINUOUS
 62
    7
370
   -1
100
AcDbCircle
 10
39.70000000000005
 20
5.300000000000054
 40
0.2999999999999972
100
AcDbArc
 50
270
 51
0
  0
ARC
  5
FE
100
AcDbEntity
  8
0
  6
CONTINUOUS
 62
    7
370
   -1
100
AcDbCircle
 10
34.80000000000004
 20
5.300000000000054
 40
0.3000000000000114
100
AcDbArc
 50
180
 51
270
  0
LINE
  5
FF
100
AcDbEntity
  8
0
  6
CONTINUOUS
 62
    7
370
   -1
100
AcDbLine
 10
34.49999913570005
 20
5.299999844300032
 11
34.49999913570005
 21
9.999999776500047
  0
LINE
  5
100
100
AcDbEntity
  8
0
  6
CONTINUOUS
 62
    7
370
   -1
100
AcDbLine
 10
34.49999913570005
 20
9.999999776500047
 11
31.76776692270005
 21
9.999999776500047
  0
LINE
  5
101
100
AcDbEntity
  8
0
  6
CONTINUOUS
 62
    7
370
   -1
100
AcDbLine
 10
31.76776692270005
 20
9.999999776500047
 11
27.49999985100007
 21
5.732233170400036
  0
LINE
  5
102
100
AcDbEntity
  8
0
  6
CONTINUOUS
 62
    7
370
   -1
100
AcDbLine
 10
27.49999985100007
 20
5.732233170400036
 11
27.49999985100007
 21
3.500000108000037
  0
LINE
  5
103
100
AcDbEntity
  8
0
  6
CONTINUOUS
 62
    7
370
   -1
100
AcDbLine
 10
27.49999985100007
 20
3.500000108000037
 11
27.22320891920006
 21
1.752412761500053
  0
LINE
  5
104
100
AcDbEntity
  8
0
  6
CONTINUOUS
 62
    7
370
   -1
100
AcDbLine
 10
27.22320891920006
 20
1.752412761500053
 11
27.48296223580008
 21
0.7829993847000482
  0
ARC
  5
105
100
AcDbEntity
  8
0
  6
CONTINUOUS
 62
    7
370
   -1
100
AcDbCircle
 10
27.00000000000006
 20
0.6535898385000394
 40
0.5
100
AcDbArc
 50
329.9999999999987
 51
15.00000000000038
  0
LINE
  5
106
100
AcDbEntity
  8
0
  6
CONTINUOUS
 62
    7
370
   -1
100
AcDbLine
 10
27.43301354350007
 20
0.4035898309000459
 11
27.20000036060006
 21
5.68e-14
  0
LINE
  5
107
100
AcDbEntity
  8
0
  6
CONTINUOUS
 62
    7
370
   -1
100
AcDbLine
 10
27.20000036060006
 20
5.68e-14
 11
27.43301354350007
 21
-0.4035898309999482
  0
ARC
  5
108
100
AcDbEntity
  8
0
  6
CONTINUOUS
 62
    7
370
   -1
100
AcDbCircle
 10
27.00000000000006
 20
-0.6535898384999542
 40
0.5
100
AcDbArc
 50
359.9557670661225
 51
30.00000000000125
  0
LINE
  5
109
100
AcDbEntity
  8
0
  6
CONTINUOUS
 62
    7
370
   -1
100
AcDbLine
 10
27.49999985100007
 20
-0.6539758436179568
 11
27.49999985100007
 21
-5.732233170399965
  0
LINE
  5
10A
100
AcDbEntity
  8
0
  6
CONTINUOUS
 62
    7
370
   -1
100
AcDbLine
 10
27.49999985100007
 20
-5.732233170399965
 11
31.76776692270005
 21
-9.99999977649996
  0
LINE
  5
10B
100
AcDbEntity
  8
0
  6
CONTINUOUS
 62
    7
370
   -1
100
AcDbLine
 10
31.76776692270005
 20
-9.99999977649996
 11
34.49999913570005
 21
-9.99999977649996
  0
LINE
  5
10C
100
AcDbEntity
  8
0
  6
CONTINUOUS
 62
    7
370
   -1
100
AcDbLine
 10
34.49999913570005
 20
-9.99999977649996
 11
34.49999913570005
 21
-5.299999844299946
  0
ARC
  5
10D
100
AcDbEntity
  8
0
  6
CONTINUOUS
 62
    7
370
   -1
100
AcDbCircle
 10
34.80000000000004
 20
-5.299999999999954
 40
0.3000000000000114
100
AcDbArc
 50
90
 51
180
  0
ARC
  5
10E
100
AcDbEntity
  8
0
  6
CONTINUOUS
 62
    7
370
   -1
100
AcDbCircle
 10
39.70000000000005
 20
-5.299999999999954
 40
0.3000000000000114
100
AcDbArc
 50
0
 51
90
  0
LINE
  5
10F
100
AcDbEntity
  8
0
  6
CONTINUOUS
 62
    7
370
   -1
100
AcDbLine
 10
39.99999910590006
 20
-5.299999844299946
 11
39.99999910590006
 21
-17.00000092390006
  0
ARC
  5
110
100
AcDbEntity
  8
0
  6
CONTINUOUS
 62
    7
370
   -1
100
AcDbCircle
 10
37.00000000000006
 20
-16.99999999999994
 40
3
100
AcDbArc
 50
270
 51
0
  0
LINE
  5
111
100
AcDbEntity
  8
0
  6
CONTINUOUS
 62
    7
370
   -1
100
AcDbLine
 10
37.00000047680007
 20
-19.99999955299997
 11
25.29999986290005
 21
-19.99999955299997
  0
ARC
  5
112
100
AcDbEntity
  8
0
  6
CONTINUOUS
 62
    7
370
   -1
100
AcDbCircle
 10
25.30000000000004
 20
-19.69999999999997
 40
0.3000000000000007
100
AcDbArc
 50
180
 51
270
  0
ARC
  5
113
100
AcDbEntity
  8
0
  6
CONTINUOUS
 62
    7
370
   -1
100
AcDbCircle
 10
25.30000000000004
 20
-14.79999999999995
 40
0.2999999999999972
100
AcDbArc
 50
90
 51
180
  0
LINE
  5
114
100
AcDbEntity
  8
0
  6
CONTINUOUS
 62
    7
370
   -1
100
AcDbLine
 10
25.29999986290005
 20
-14.49999958279996
 11
29.99999932940009
 21
-14.49999958279996
  0
LINE
  5
115
100
AcDbEntity
  8
0
  6
CONTINUOUS
 62
    7
370
   -1
100
AcDbLine
 10
29.99999932940009
 20
-14.49999958279996
 11
29.99999932940009
 21
-11.76776736979997
  0
LINE
  5
116
100
AcDbEntity
  8
0
  6
CONTINUOUS
 62
    7
370
   -1
100
AcDbLine
 10
29.99999932940009
 20
-11.76776736979997
 11
25.73223225770005
 21
-7.499999832400064
  0
LINE
  5
117
100
AcDbEntity
  8
0
  6
CONTINUOUS
 62
    7
370
   -1
100
AcDbLine
 10
25.73223225770005
 20
-7.499999832400064
 11
23.49999919530009
 21
-7.499999832400064
  0
LINE
  5
118
100
AcDbEntity
  8
0
  6
CONTINUOUS
 62
    7
370
   -1
100
AcDbLine
 10
23.49999919530009
 20
-7.499999832400064
 11
21.75241336230008
 21
-7.223209366199952
  0
LINE
  5
119
100
AcDbEntity
  8
0
  6
CONTINUOUS
 62
    7
370
   -1
100
AcDbLine
 10
21.75241336230008
 20
-7.223209366199952
 11
20.78299969430006
 21
-7.482962682899952
  0
ARC
  5
11A
100
AcDbEntity
  8
0
  6
CONTINUOUS
 62
    7
370
   -1
100
AcDbCircle
 10
20.65358983850007
 20
-6.999999999999943
 40
0.4999999999999979
100
AcDbArc
 50
239.9999999999999
 51
285.0000000000012
  0
LINE
  5
11B
100
AcDbEntity
  8
0
  6
CONTINUOUS
 62
    7
370
   -1
100
AcDbLine
 10
20.40359005330007
 20
-7.433012593599954
 11
19.99999955300006
 21
-7.199999876299955
  0
LINE
  5
11C
100
AcDbEntity
  8
0
  6
CONTINUOUS
 62
    7
370
   -1
100
AcDbLine
 10
19.99999955300006
 20
-7.199999876299955
 11
19.59641091520007
 21
-7.433012593599954
  0
ARC
  5
11D
100
AcDbEntity
  8
0
  6
CONTINUOUS
 62
    7
370
   -1
100
AcDbCircle
 10
19.34641016150007
 20
-6.999999999999943
 40
0.5000000000000016
100
AcDbArc
 50
269.9530874022181
 51
300.0000000000001
  0
LINE
  5
11E
100
AcDbEntity
  8
0
  6
CONTINUOUS
 62
    7
370
   -1
100
AcDbLine
 10
19.34600077188022
 20
-7.499999832400064
 11
14.26776684820007
 21
-7.499999832400064
  0
LINE
  5
11F
100
AcDbEntity
  8
0
  6
CONTINUOUS
 62
    7
370
   -1
100
AcDbLine
 10
14.26776684820007
 20
-7.499999832400064
 11
9.999999776500061
 21
-11.76776736979997
  0
LINE
  5
120
100
AcDbEntity
  8
0
  6
CONTINUOUS
 62
    7
370
   -1
100
AcDbLine
 10
9.999999776500061
 20
-11.76776736979997
 11
9.999999776500061
 21
-14.49999958279996
  0
LINE
  5
121
100
AcDbEntity
  8
0
  6
CONTINUOUS
 62
    7
370
   -1
100
AcDbLine
 10
9.999999776500061
 20
-14.49999958279996
 11
14.70000017429996
 21
-14.49999958279996
  0
ARC
  5
122
100
AcDbEntity
  8
0
  6
CONTINUOUS
 62
    7
370
   -1
100
AcDbCircle
 10
14.70000000000004
 20
-14.79999999999995
 40
0.3000000000000114
100
AcDbArc
 50
0
 51
90
  0
ARC
  5
123
100
AcDbEntity
  8
0
  6
CONTINUOUS
 62
    7
370
   -1
100
AcDbCircle
 10
14.70000000000004
 20
-19.69999999999997
 40
0.3000000000000114
100
AcDbArc
 50
270
 51
0
  0
ARC
  5
124
100
AcDbEntity
  8
0
  6
CONTINUOUS
 62
    7
370
   -1
100
AcDbCircle
 10
14.70000000000004
 20
19.70000000000006
 40
0.3000000000000114
100
AcDbArc
 50
0
 51
90
  0
LINE
  5
125
100
AcDbEntity
  8
0
  6
CONTINUOUS
 62
    7
370
   -1
100
AcDbLine
 10
22.80000038440008
 20
5.750000011199929
 11
25.45000053940007
 21
5.750000011199929
  0
ARC
  5
126
100
AcDbEntity
  8
0
  6
CONTINUOUS
 62
    7
370
   -1
100
AcDbCircle
 10
-14.69999999999996
 20
19.70000000000006
 40
0.3000000000000114
100
AcDbArc
 50
90
 51
180
  0
ARC
  5
127
100
AcDbEntity
  8
0
  6
CONTINUOUS
 62
    7
370
   -1
100
AcDbCircle
 10
-14.69999999999996
 20
14.80000000000005
 40
0.3000000000000043
100
AcDbArc
 50
180
 51
270
  0
LINE
  5
128
100
AcDbEntity
  8
0
  6
CONTINUOUS
 62
    7
370
   -1
100
AcDbLine
 10
-14.70000017439994
 20
14.49999958270003
 11
-9.999999776499948
 21
14.49999958270003
  0
LINE
  5
129
100
AcDbEntity
  8
0
  6
CONTINUOUS
 62
    7
370
   -1
100
AcDbLine
 10
-9.999999776499948
 20
14.49999958270003
 11
-9.999999776499948
 21
11.76776736970005
  0
LINE
  5
12A
100
AcDbEntity
  8
0
  6
CONTINUOUS
 62
    7
370
   -1
100
AcDbLine
 10
-9.999999776499948
 20
11.76776736970005
 11
-14.26776684819995
 21
7.499999832300048
  0
LINE
  5
12B
100
AcDbEntity
  8
0
  6
CONTINUOUS
 62
    7
370
   -1
100
AcDbLine
 10
-14.26776684819995
 20
7.499999832300048
 11
-19.34600064959605
 21
7.499999832300048
  0
ARC
  5
12C
100
AcDbEntity
  8
0
  6
CONTINUOUS
 62
    7
370
   -1
100
AcDbCircle
 10
-19.34641016149993
 20
7.000000000000056
 40
0.5
100
AcDbArc
 50
89.95307338660309
 51
120.0000000000001
  0
LINE
  5
12D
100
AcDbEntity
  8
0
  6
CONTINUOUS
 62
    7
370
   -1
100
AcDbLine
 10
-19.59641091530005
 20
7.433012593500038
 11
-19.99999955299995
 21
7.19999987630004
  0
LINE
  5
12E
100
AcDbEntity
  8
0
  6
CONTINUOUS
 62
    7
370
   -1
100
AcDbLine
 10
-19.99999955299995
 20
7.19999987630004
 11
-20.40359005329995
 21
7.433012593500038
  0
ARC
  5
12F
100
AcDbEntity
  8
0
  6
CONTINUOUS
 62
    7
370
   -1
100
AcDbCircle
 10
-20.65358983849993
 20
7.000000000000056
 40
0.5
100
AcDbArc
 50
59.99999999999986
 51
105.0000000000011
  0
LINE
  5
130
100
AcDbEntity
  8
0
  6
CONTINUOUS
 62
    7
370
   -1
100
AcDbLine
 10
-20.78299969439993
 20
7.482962682800035
 11
-21.75241336229995
 21
7.223209366200038
  0
LINE
  5
131
100
AcDbEntity
  8
0
  6
CONTINUOUS
 62
    7
370
   -1
100
AcDbLine
 10
-21.75241336229995
 20
7.223209366200038
 11
-23.49999919529993
 21
7.499999832300048
  0
LINE
  5
132
100
AcDbEntity
  8
0
  6
CONTINUOUS
 62
    7
370
   -1
100
AcDbLine
 10
-23.49999919529993
 20
7.499999832300048
 11
-25.73223225769993
 21
7.499999832300048
  0
LINE
  5
133
100
AcDbEntity
  8
0
  6
CONTINUOUS
 62
    7
370
   -1
100
AcDbLine
 10
-25.73223225769993
 20
7.499999832300048
 11
-29.99999932949993
 21
11.76776736970005
  0
LINE
  5
134
100
AcDbEntity
  8
0
  6
CONTINUOUS
 62
    7
370
   -1
100
AcDbLine
 10
-29.99999932949993
 20
11.76776736970005
 11
-29.99999932949993
 21
14.49999958270003
  0
LINE
  5
135
100
AcDbEntity
  8
0
  6
CONTINUOUS
 62
    7
370
   -1
100
AcDbLine
 10
-29.99999932949993
 20
14.49999958270003
 11
-25.29999986289994
 21
14.49999958270003
  0
ARC
  5
136
100
AcDbEntity
  8
0
  6
CONTINUOUS
 62
    7
370
   -1
100
AcDbCircle
 10
-25.29999999999994
 20
14.80000000000005
 40
0.3000000000000043
100
AcDbArc
 50
270
 51
0
  0
ARC
  5
137
100
AcDbEntity
  8
0
  6
CONTINUOUS
 62
    7
370
   -1
100
AcDbCircle
 10
-25.29999999999994
 20
19.70000000000006
 40
0.3000000000000114
100
AcDbArc
 50
0
 51
90
  0
LINE
  5
138
100
AcDbEntity
  8
0
  6
CONTINUOUS
 62
    7
370
   -1
100
AcDbLine
 10
-25.29999986289994
 20
19.99999955290003
 11
-37.00000047679993
 21
19.99999955290003
  0
ARC
  5
139
100
AcDbEntity
  8
0
  6
CONTINUOUS
 62
    7
370
   -1
100
AcDbCircle
 10
-36.99999999999994
 20
17.00000000000004
 40
3.000000000000003
100
AcDbArc
 50
90
 51
180
  0
LINE
  5
13A
100
AcDbEntity
  8
0
  6
CONTINUOUS
 62
    7
370
   -1
100
AcDbLine
 10
-39.99999910589993
 20
17.00000092379993
 11
-39.99999910589993
 21
5.299999844300032
  0
ARC
  5
13B
100
AcDbEntity
  8
0
  6
CONTINUOUS
 62
    7
370
   -1
100
AcDbCircle
 10
-39.69999999999995
 20
5.300000000000054
 40
0.3000000000000043
100
AcDbArc
 50
180
 51
270
  0
ARC
  5
13C
100
AcDbEntity
  8
0
  6
CONTINUOUS
 62
    7
370
   -1
100
AcDbCircle
 10
-34.79999999999994
 20
5.300000000000054
 40
0.2999999999999972
100
AcDbArc
 50
270
 51
0
  0
LINE
  5
13D
100
AcDbEntity
  8
0
  6
CONTINUOUS
 62
    7
370
   -1
100
AcDbLine
 10
-34.49999913569994
 20
5.299999844300032
 11
-34.49999913569994
 21
9.999999776500047
  0
LINE
  5
13E
100
AcDbEntity
  8
0
  6
CONTINUOUS
 62
    7
370
   -1
100
AcDbLine
 10
-34.49999913569994
 20
9.999999776500047
 11
-31.76776692269994
 21
9.999999776500047
  0
LINE
  5
13F
100
AcDbEntity
  8
0
  6
CONTINUOUS
 62
    7
370
   -1
100
AcDbLine
 10
-31.76776692269994
 20
9.999999776500047
 11
-27.49999985099993
 21
5.732233170400036
  0
LINE
  5
140
100
AcDbEntity
  8
0
  6
CONTINUOUS
 62
    7
370
   -1
100
AcDbLine
 10
-27.49999985099993
 20
5.732233170400036
 11
-27.49999985099993
 21
0.6539758436625362
  0
ARC
  5
141
100
AcDbEntity
  8
0
  6
CONTINUOUS
 62
    7
370
   -1
100
AcDbCircle
 10
-26.99999999999994
 20
0.6535898385000394
 40
0.4999999999999928
100
AcDbArc
 50
179.9557670638361
 51
210.0000000000012
  0
LINE
  5
142
100
AcDbEntity
  8
0
  6
CONTINUOUS
 62
    7
370
   -1
100
AcDbLine
 10
-27.43301354349993
 20
0.4035898309000459
 11
-27.20000036059995
 21
5.68e-14
  0
LINE
  5
143
100
AcDbEntity
  8
0
  6
CONTINUOUS
 62
    7
370
   -1
100
AcDbLine
 10
-27.20000036059995
 20
5.68e-14
 11
-27.43301354349993
 21
-0.4035898309999482
  0
ARC
  5
144
100
AcDbEntity
  8
0
  6
CONTINUOUS
 62
    7
370
   -1
100
AcDbCircle
 10
-26.99999999999994
 20
-0.6535898384999542
 40
0.5
100
AcDbArc
 50
149.9999999999987
 51
195.0000000000004
  0
LINE
  5
145
100
AcDbEntity
  8
0
  6
CONTINUOUS
 62
    7
370
   -1
100
AcDbLine
 10
-27.48296223579995
 20
-0.7829993846999628
 11
-27.22320891919995
 21
-1.752412761599941
  0
LINE
  5
146
100
AcDbEntity
  8
0
  6
CONTINUOUS
 62
    7
370
   -1
100
AcDbLine
 10
-27.22320891919995
 20
-1.752412761599941
 11
-27.49999985099993
 21
-3.500000108099968
  0
LINE
  5
147
100
AcDbEntity
  8
0
  6
CONTINUOUS
 62
    7
370
   -1
100
AcDbLine
 10
-27.49999985099993
 20
-3.500000108099968
 11
-27.49999985099993
 21
-5.732233170399965
  0
LINE
  5
148
100
AcDbEntity
  8
0
  6
CONTINUOUS
 62
    7
370
   -1
100
AcDbLine
 10
-27.49999985099993
 20
-5.732233170399965
 11
-31.76776692269994
 21
-9.99999977649996
  0
LINE
  5
149
100
AcDbEntity
  8
0
  6
CONTINUOUS
 62
    7
370
   -1
100
AcDbLine
 10
-31.76776692269994
 20
-9.99999977649996
 11
-34.49999913569994
 21
-9.99999977649996
  0
LINE
  5
14A
100
AcDbEntity
  8
0
  6
CONTINUOUS
 62
    7
370
   -1
100
AcDbLine
 10
-34.49999913569994
 20
-9.99999977649996
 11
-34.49999913569994
 21
-5.299999844299946
  0
ARC
  5
14B
100
AcDbEntity
  8
0
  6
CONTINUOUS
 62
    7
370
   -1
100
AcDbCircle
 10
-34.79999999999994
 20
-5.299999999999954
 40
0.3000000000000043
100
AcDbArc
 50
0
 51
90
  0
ARC
  5
14C
100
AcDbEntity
  8
0
  6
CONTINUOUS
 62
    7
370
   -1
100
AcDbCircle
 10
-39.69999999999995
 20
-5.299999999999954
 40
0.3000000000000114
100
AcDbArc
 50
90
 51
180
  0
LINE
  5
14D
100
AcDbEntity
  8
0
  6
CONTINUOUS
 62
    7
370
   -1
100
AcDbLine
 10
-39.99999910589993
 20
-5.299999844299946
 11
-39.99999910589993
 21
-17.00000092390006
  0
ARC
  5
14E
100
AcDbEntity
  8
0
  6
CONTINUOUS
 62
    7
370
   -1
100
AcDbCircle
 10
-36.99999999999994
 20
-16.99999999999994
 40
3.000000000000003
100
AcDbArc
 50
180
 51
270
  0
LINE
  5
14F
100
AcDbEntity
  8
0
  6
CONTINUOUS
 62
    7
370
   -1
100
AcDbLine
 10
-37.00000047679993
 20
-19.99999955299997
 11
-25.29999986289994
 21
-19.99999955299997
  0
ARC
  5
150
100
AcDbEntity
  8
0
  6
CONTINUOUS
 62
    7
370
   -1
100
AcDbCircle
 10
-25.29999999999994
 20
-19.69999999999997
 40
0.3000000000000007
100
AcDbArc
 50
270
 51
0
  0
ARC
  5
151
100
AcDbEntity
  8
0
  6
CONTINUOUS
 62
    7
370
   -1
100
AcDbCircle
 10
-25.29999999999994
 20
-14.79999999999995
 40
0.2999999999999972
100
AcDbArc
 50
0
 51
90
  0
LINE
  5
152
100
AcDbEntity
  8
0
  6
CONTINUOUS
 62
    7
370
   -1
100
AcDbLine
 10
-25.29999986289994
 20
-14.49999958279996
 11
-29.99999932949993
 21
-14.49999958279996
  0
LINE
  5
153
100
AcDbEntity
  8
0
  6
CONTINUOUS
 62
    7
370
   -1
100
AcDbLine
 10
-29.99999932949993
 20
-14.49999958279996
 11
-29.99999932949993
 21
-11.76776736979997
  0
LINE
  5
154
100
AcDbEntity
  8
0
  6
CONTINUOUS
 62
    7
370
   -1
100
AcDbLine
 10
-29.99999932949993
 20
-11.76776736979997
 11
-25.73223225769993
 21
-7.499999832400064
  0
LINE
  5
155
100
AcDbEntity
  8
0
  6
CONTINUOUS
 62
    7
370
   -1
100
AcDbLine
 10
-25.73223225769993
 20
-7.499999832400064
 11
-20.65399922810593
 21
-7.499999832400064
  0
ARC
  5
156
100
AcDbEntity
  8
0
  6
CONTINUOUS
 62
    7
370
   -1
100
AcDbCircle
 10
-20.65358983849993
 20
-6.999999999999943
 40
0.5
100
AcDbArc
 50
269.9530874034265
 51
300.0000000000001
  0
LINE
  5
157
100
AcDbEntity
  8
0
  6
CONTINUOUS
 62
    7
370
   -1
100
AcDbLine
 10
-20.40359005329995
 20
-7.433012593599954
 11
-19.99999955299995
 21
-7.199999876299955
  0
LINE
  5
158
100
AcDbEntity
  8
0
  6
CONTINUOUS
 62
    7
370
   -1
100
AcDbLine
 10
-19.99999955299995
 20
-7.199999876299955
 11
-19.59641091530005
 21
-7.433012593599954
  0
ARC
  5
159
100
AcDbEntity
  8
0
  6
CONTINUOUS
 62
    7
370
   -1
100
AcDbCircle
 10
-19.34641016149993
 20
-6.999999999999943
 40
0.5
100
AcDbArc
 50
239.9999999999999
 51
285.0000000000012
  0
LINE
  5
15A
100
AcDbEntity
  8
0
  6
CONTINUOUS
 62
    7
370
   -1
100
AcDbLine
 10
-19.21700127419996
 20
-7.482962682899952
 11
-18.24758760629993
 21
-7.223209366199952
  0
LINE
  5
15B
100
AcDbEntity
  8
0
  6
CONTINUOUS
 62
    7
370
   -1
100
AcDbLine
 10
-18.24758760629993
 20
-7.223209366199952
 11
-16.49999991059994
 21
-7.499999832400064
  0
LINE
  5
15C
100
AcDbEntity
  8
0
  6
CONTINUOUS
 62
    7
370
   -1
100
AcDbLine
 10
-16.49999991059994
 20
-7.499999832400064
 11
-14.26776684819995
 21
-7.499999832400064
  0
LINE
  5
15D
100
AcDbEntity
  8
0
  6
CONTINUOUS
 62
    7
370
   -1
100
AcDbLine
 10
-14.26776684819995
 20
-7.499999832400064
 11
-9.999999776499948
 21
-11.76776736979997
  0
LINE
  5
15E
100
AcDbEntity
  8
0
  6
CONTINUOUS
 62
    7
370
   -1
100
AcDbLine
 10
-9.999999776499948
 20
-11.76776736979997
 11
-9.999999776499948
 21
-14.49999958279996
  0
LINE
  5
15F
100
AcDbEntity
  8
0
  6
CONTINUOUS
 62
    7
370
   -1
100
AcDbLine
 10
-9.999999776499948
 20
-14.49999958279996
 11
-14.70000017439994
 21
-14.49999958279996
  0
ARC
  5
160
100
AcDbEntity
  8
0
  6
CONTINUOUS
 62
    7
370
   -1
100
AcDbCircle
 10
-14.69999999999996
 20
-14.79999999999995
 40
0.3000000000000043
100
AcDbArc
 50
90
 51
180
  0
ARC
  5
161
100
AcDbEntity
  8
0
  6
CONTINUOUS
 62
    7
370
   -1
100
AcDbCircle
 10
-14.69999999999996
 20
-19.69999999999997
 40
0.3000000000000043
100
AcDbArc
 50
180
 51
270
  0
LINE
  5
162
100
AcDbEntity
  8
0
  6
CONTINUOUS
 62
    7
370
   -1
100
AcDbLine
 10
-14.70000017439994
 20
-19.99999955299997
 11
14.70000017429996
 21
-19.99999955299997
  0
LINE
  5
163
100
AcDbEntity
  8
0
  6
CONTINUOUS
 62
    7
370
   -1
100
AcDbLine
 10
6.500000134100076
 20
-17.50000007449995
 11
-6.500000134099934
 21
-17.50000007449995
  0
ARC
  5
164
100
AcDbEntity
  8
0
  6
CONTINUOUS
 62
    7
370
   -1
100
AcDbCircle
 10
-6.499999999999943
 20
-16.49999999999994
 40
1.000000000000001
100
AcDbArc
 50
180
 51
270
  0
LINE
  5
165
100
AcDbEntity
  8
0
  6
CONTINUOUS
 62
    7
370
   -1
100
AcDbLine
 10
-7.499999832399936
 20
-16.49999991059997
 11
-7.499999832399936
 21
-12.13639602069996
  0
LINE
  5
166
100
AcDbEntity
  8
0
  6
CONTINUOUS
 62
    7
370
   -1
100
AcDbLine
 10
-7.792893331500039
 20
-11.42928935589995
 11
-12.75710668419995
 21
-6.465075537599958
  0
LINE
  5
167
100
AcDbEntity
  8
0
  6
CONTINUOUS
 62
    7
370
   -1
100
AcDbLine
 10
-13.05000018329994
 20
-5.757968872799949
 11
-13.05000018329994
 21
-2.369011053799965
  0
ARC
  5
168
100
AcDbEntity
  8
0
  6
CONTINUOUS
 62
    7
370
   -1
100
AcDbCircle
 10
-13.44999999999996
 20
-2.369011134499956
 40
0.4000000000000057
100
AcDbArc
 50
0
 51
67.29847774620039
  0
ARC
  5
169
100
AcDbEntity
  8
0
  6
CONTINUOUS
 62
    7
370
   -1
100
AcDbCircle
 10
-13.14125555799992
 20
-1.630988865499958
 40
0.3999999999999999
100
AcDbArc
 50
166.6236742839001
 51
247.2984777462004
  0
ARC
  5
16A
100
AcDbEntity
  8
0
  6
CONTINUOUS
 62
    7
370
   -1
100
AcDbCircle
 10
-19.99999999999994
 20
5.68e-14
 40
6.649999999999987
100
AcDbArc
 50
346.6236742839002
 51
13.37632571609981
  0
ARC
  5
16B
100
AcDbEntity
  8
0
  6
CONTINUOUS
 62
    7
370
   -1
100
AcDbCircle
 10
-13.14125555799992
 20
1.630988865500043
 40
0.4000000000000015
100
AcDbArc
 50
112.7015222537996
 51
193.3763257160998
  0
ARC
  5
16C
100
AcDbEntity
  8
0
  6
CONTINUOUS
 62
    7
370
   -1
100
AcDbCircle
 10
-13.44999999999996
 20
2.369011134500041
 40
0.4000000000000057
100
AcDbArc
 50
292.7015222537995
 51
0
  0
LINE
  5
16D
100
AcDbEntity
  8
0
  6
CONTINUOUS
 62
    7
370
   -1
100
AcDbLine
 10
-13.05000018329994
 20
2.369011053800036
 11
-13.05000018329994
 21
5.757968872800034
  0
LINE
  5
16E
100
AcDbEntity
  8
0
  6
CONTINUOUS
 62
    7
370
   -1
100
AcDbLine
 10
-12.75710668419995
 20
6.465075537500055
 11
-7.792893331500039
 21
11.42928935590005
  0
LINE
  5
16F
100
AcDbEntity
  8
0
  6
CONTINUOUS
 62
    7
370
   -1
100
AcDbLine
 10
-7.499999832399936
 20
12.13639602060003
 11
-7.499999832399936
 21
16.49999991060004
  0
ARC
  5
170
100
AcDbEntity
  8
0
  6
CONTINUOUS
 62
    7
370
   -1
100
AcDbCircle
 10
-6.499999999999943
 20
16.50000000000004
 40
1.000000000000007
100
AcDbArc
 50
90
 51
180
  0
LINE
  5
171
100
AcDbEntity
  8
0
  6
CONTINUOUS
 62
    7
370
   -1
100
AcDbLine
 10
-6.500000134099934
 20
17.50000007450005
 11
6.500000134100076
 21
17.50000007450005
  0
LINE
  5
172
100
AcDbEntity
  8
0
  6
CONTINUOUS
 62
    7
370
   -1
100
AcDbLine
 10
14.70000017429996
 20
19.99999955290003
 11
-14.70000017439994
 21
19.99999955290003
  0
LINE
  5
173
100
AcDbEntity
  8
0
  6
CONTINUOUS
 62
    7
370
   -1
100
AcDbLine
 10
-5.499999999999943
 20
-17.49999999999994
 11
-5.262198550334346
 21
-17.49999999999994
  0
LINE
  5
174
100
AcDbEntity
  8
0
  6
CONTINUOUS
 62
    7
370
   -1
100
AcDbLine
 10
-5.499999999999943
 20
-19.99999955299997
 11
-5.262198550334346
 21
-19.99999955299997
  0
LINE
  5
175
100
AcDbEntity
  8
0
  6
CONTINUOUS
 62
    7
370
   -1
100
AcDbLine
 10
-14.99999999999994
 20
18.27469507659533
 11
-14.99999999999994
 21
19.70000000000006
  0
LINE
  5
176
100
AcDbEntity
  8
0
  6
CONTINUOUS
 62
    7
370
   -1
100
AcDbLine
 10
-14.99999999999994
 20
16.22530492340463
 11
-14.99999999999994
 21
14.80000000000005
  0
ARC
  5
177
100
AcDbEntity
  8
0
  6
CONTINUOUS
 62
    7
370
   -1
100
AcDbCircle
 10
-15.49999999999994
 20
17.25000000000004
 40
1
100
AcDbArc
 50
307.9798724448666
 51
52.02012755513159
  0
ARC
  5
178
100
AcDbEntity
  8
0
  6
CONTINUOUS
 62
    7
370
   -1
100
AcDbCircle
 10
-14.69999999999996
 20
16.22530492340463
 40
0.3
100
AcDbArc
 50
127.9798724448666
 51
180
  0
ARC
  5
179
100
AcDbEntity
  8
0
  6
CONTINUOUS
 62
    7
370
   -1
100
AcDbCircle
 10
-14.69999999999996
 20
18.27469507659533
 40
0.3
100
AcDbArc
 50
180
 51
232.0201275551321
  0
LINE
  5
17A
100
AcDbEntity
  8
0
  6
CONTINUOUS
 62
    7
370
   -1
100
AcDbLine
 10
-24.99999999999995
 20
16.22530492340463
 11
-24.99999999999995
 21
14.79999999999994
  0
LINE
  5
17B
100
AcDbEntity
  8
0
  6
CONTINUOUS
 62
    7
370
   -1
100
AcDbLine
 10
-24.99999999999995
 20
18.27469507659533
 11
-24.99999999999995
 21
19.70000000000006
  0
ARC
  5
17C
100
AcDbEntity
  8
0
  6
CONTINUOUS
 62
    7
370
   -1
100
AcDbCircle
 10
-24.49999999999994
 20
17.25000000000004
 40
1
100
AcDbArc
 50
127.9798724448684
 51
232.0201275551316
  0
ARC
  5
17D
100
AcDbEntity
  8
0
  6
CONTINUOUS
 62
    7
370
   -1
100
AcDbCircle
 10
-25.29999999999994
 20
16.22530492340463
 40
0.3
100
AcDbArc
 50
0
 51
52.02012755513337
  0
ARC
  5
17E
100
AcDbEntity
  8
0
  6
CONTINUOUS
 62
    7
370
   -1
100
AcDbCircle
 10
-25.29999999999994
 20
18.27469507659533
 40
0.3
100
AcDbArc
 50
307.9798724448666
 51
0
  0
LINE
  5
17F
100
AcDbEntity
  8
0
  6
CONTINUOUS
 62
    7
370
   -1
100
AcDbLine
 10
-38.27469507659525
 20
5.000000000000056
 11
-39.69999999999995
 21
5.000000000000056
  0
LINE
  5
180
100
AcDbEntity
  8
0
  6
CONTINUOUS
 62
    7
370
   -1
100
AcDbLine
 10
-36.22530492340464
 20
5.000000000000056
 11
-34.79999999999994
 21
5.000000000000056
  0
ARC
  5
181
100
AcDbEntity
  8
0
  6
CONTINUOUS
 62
    7
370
   -1
100
AcDbCircle
 10
-37.24999999999994
 20
4.500000000000056
 40
1
100
AcDbArc
 50
37.97987244486727
 51
142.0201275551327
  0
ARC
  5
182
100
AcDbEntity
  8
0
  6
CONTINUOUS
 62
    7
370
   -1
100
AcDbCircle
 10
-36.22530492340464
 20
5.300000000000054
 40
0.3
100
AcDbArc
 50
217.9798724448672
 51
270
  0
ARC
  5
183
100
AcDbEntity
  8
0
  6
CONTINUOUS
 62
    7
370
   -1
100
AcDbCircle
 10
-38.27469507659525
 20
5.300000000000054
 40
0.3
100
AcDbArc
 50
270
 51
322.0201275551327
  0
LINE
  5
184
100
AcDbEntity
  8
0
  6
CONTINUOUS
 62
    7
370
   -1
100
AcDbLine
 10
-36.22530492340464
 20
-4.999999999999943
 11
-34.79999999999994
 21
-4.999999999999943
  0
LINE
  5
185
100
AcDbEntity
  8
0
  6
CONTINUOUS
 62
    7
370
   -1
100
AcDbLine
 10
-38.27469507659525
 20
-4.999999999999943
 11
-39.69999999999995
 21
-4.999999999999943
  0
ARC
  5
186
100
AcDbEntity
  8
0
  6
CONTINUOUS
 62
    7
370
   -1
100
AcDbCircle
 10
-37.24999999999994
 20
-4.499999999999943
 40
1
100
AcDbArc
 50
217.9798724448672
 51
322.0201275551327
  0
ARC
  5
187
100
AcDbEntity
  8
0
  6
CONTINUOUS
 62
    7
370
   -1
100
AcDbCircle
 10
-36.22530492340464
 20
-5.299999999999954
 40
0.3
100
AcDbArc
 50
90
 51
142.0201275551327
  0
ARC
  5
188
100
AcDbEntity
  8
0
  6
CONTINUOUS
 62
    7
370
   -1
100
AcDbCircle
 10
-38.27469507659525
 20
-5.299999999999954
 40
0.3
100
AcDbArc
 50
37.97987244486727
 51
90
  0
LINE
  5
189
100
AcDbEntity
  8
0
  6
CONTINUOUS
 62
    7
370
   -1
100
AcDbLine
 10
-25.00000000000004
 20
-18.27469507659525
 11
-25.00000000000004
 21
-19.69999999999993
  0
LINE
  5
18A
100
AcDbEntity
  8
0
  6
CONTINUOUS
 62
    7
370
   -1
100
AcDbLine
 10
-25.00000000000004
 20
-16.22530492340466
 11
-25.00000000000004
 21
-14.79999999999995
  0
ARC
  5
18B
100
AcDbEntity
  8
0
  6
CONTINUOUS
 62
    7
370
   -1
100
AcDbCircle
 10
-24.49999999999994
 20
-17.24999999999994
 40
1
100
AcDbArc
 50
127.9798724448666
 51
232.0201275551334
  0
ARC
  5
18C
100
AcDbEntity
  8
0
  6
CONTINUOUS
 62
    7
370
   -1
100
AcDbCircle
 10
-25.29999999999994
 20
-16.22530492340466
 40
0.3
100
AcDbArc
 50
307.9798724448666
 51
0
  0
ARC
  5
18D
100
AcDbEntity
  8
0
  6
CONTINUOUS
 62
    7
370
   -1
100
AcDbCircle
 10
-25.29999999999994
 20
-18.27469507659525
 40
0.3
100
AcDbArc
 50
0
 51
52.02012755513337
  0
LINE
  5
18E
100
AcDbEntity
  8
0
  6
CONTINUOUS
 62
    7
370
   -1
100
AcDbLine
 10
-14.99999999999994
 20
-16.22530492340466
 11
-14.99999999999994
 21
-14.79999999999995
  0
LINE
  5
18F
100
AcDbEntity
  8
0
  6
CONTINUOUS
 62
    7
370
   -1
100
AcDbLine
 10
-14.99999999999994
 20
-18.27469507659536
 11
-14.99999999999994
 21
-19.69999999999994
  0
ARC
  5
190
100
AcDbEntity
  8
0
  6
CONTINUOUS
 62
    7
370
   -1
100
AcDbCircle
 10
-15.50000000000003
 20
-17.24999999999994
 40
1
100
AcDbArc
 50
307.9798724448666
 51
52.02012755513337
  0
ARC
  5
191
100
AcDbEntity
  8
0
  6
CONTINUOUS
 62
    7
370
   -1
100
AcDbCircle
 10
-14.69999999999996
 20
-16.22530492340466
 40
0.3
100
AcDbArc
 50
180
 51
232.0201275551334
  0
ARC
  5
192
100
AcDbEntity
  8
0
  6
CONTINUOUS
 62
    7
370
   -1
100
AcDbCircle
 10
-14.69999999999996
 20
-18.27469507659536
 40
0.3
100
AcDbArc
 50
127.9798724448666
 51
180
  0
LINE
  5
193
100
AcDbEntity
  8
0
  6
CONTINUOUS
 62
    7
370
   -1
100
AcDbLine
 10
14.99999999999983
 20
18.27469507659533
 11
14.99999999999983
 21
19.70000000000014
  0
LINE
  5
194
100
AcDbEntity
  8
0
  6
CONTINUOUS
 62
    7
370
   -1
100
AcDbLine
 10
14.99999999999983
 20
16.22530492340475
 11
14.99999999999997
 21
14.80000000000014
  0
ARC
  5
195
100
AcDbEntity
  8
0
  6
CONTINUOUS
 62
    7
370
   -1
100
AcDbCircle
 10
15.49999999999974
 20
17.25000000000015
 40
1
100
AcDbArc
 50
127.9798724448666
 51
232.0201275551339
  0
ARC
  5
196
100
AcDbEntity
  8
0
  6
CONTINUOUS
 62
    7
370
   -1
100
AcDbCircle
 10
14.69999999999999
 20
16.22530492340475
 40
0.3
100
AcDbArc
 50
0
 51
52.02012755513337
  0
ARC
  5
197
100
AcDbEntity
  8
0
  6
CONTINUOUS
 62
    7
370
   -1
100
AcDbCircle
 10
14.69999999999999
 20
18.27469507659533
 40
0.3
100
AcDbArc
 50
307.9798724448666
 51
0
  0
LINE
  5
198
100
AcDbEntity
  8
0
  6
CONTINUOUS
 62
    7
370
   -1
100
AcDbLine
 10
24.99999999999975
 20
16.22530492340483
 11
24.99999999999975
 21
14.80000000000005
  0
LINE
  5
199
100
AcDbEntity
  8
0
  6
CONTINUOUS
 62
    7
370
   -1
100
AcDbLine
 10
24.99999999999975
 20
18.27469507659533
 11
24.99999999999975
 21
19.70000000000014
  0
ARC
  5
19A
100
AcDbEntity
  8
0
  6
CONTINUOUS
 62
    7
370
   -1
100
AcDbCircle
 10
24.49999999999983
 20
17.25000000000015
 40
1
100
AcDbArc
 50
307.9798724448666
 51
52.02012755513337
  0
ARC
  5
19B
100
AcDbEntity
  8
0
  6
CONTINUOUS
 62
    7
370
   -1
100
AcDbCircle
 10
25.29999999999976
 20
16.22530492340483
 40
0.3
100
AcDbArc
 50
127.9798724448666
 51
180
  0
ARC
  5
19C
100
AcDbEntity
  8
0
  6
CONTINUOUS
 62
    7
370
   -1
100
AcDbCircle
 10
25.29999999999976
 20
18.27469507659533
 40
0.3
100
AcDbArc
 50
180
 51
232.0201275551339
  0
LINE
  5
19D
100
AcDbEntity
  8
0
  6
CONTINUOUS
 62
    7
370
   -1
100
AcDbLine
 10
38.27469507659524
 20
5.000000000000241
 11
39.69999999999999
 21
5.000000000000241
  0
LINE
  5
19E
100
AcDbEntity
  8
0
  6
CONTINUOUS
 62
    7
370
   -1
100
AcDbLine
 10
36.22530492340468
 20
5.000000000000241
 11
34.79999999999999
 21
5.000000000000142
  0
ARC
  5
19F
100
AcDbEntity
  8
0
  6
CONTINUOUS
 62
    7
370
   -1
100
AcDbCircle
 10
37.24999999999997
 20
4.500000000000241
 40
1
100
AcDbArc
 50
37.97987244486727
 51
142.0201275551327
  0
ARC
  5
1A0
100
AcDbEntity
  8
0
  6
CONTINUOUS
 62
    7
370
   -1
100
AcDbCircle
 10
36.22530492340468
 20
5.300000000000139
 40
0.3
100
AcDbArc
 50
270
 51
322.0201275551327
  0
ARC
  5
1A1
100
AcDbEntity
  8
0
  6
CONTINUOUS
 62
    7
370
   -1
100
AcDbCircle
 10
38.27469507659524
 20
5.300000000000238
 40
0.3
100
AcDbArc
 50
217.9798724448672
 51
270
  0
LINE
  5
1A2
100
AcDbEntity
  8
0
  6
CONTINUOUS
 62
    7
370
   -1
100
AcDbLine
 10
36.22530492340468
 20
-4.999999999999758
 11
34.79999999999999
 21
-4.999999999999758
  0
LINE
  5
1A3
100
AcDbEntity
  8
0
  6
CONTINUOUS
 62
    7
370
   -1
100
AcDbLine
 10
38.27469507659535
 20
-4.999999999999758
 11
39.70000000000005
 21
-4.999999999999758
  0
ARC
  5
1A4
100
AcDbEntity
  8
0
  6
CONTINUOUS
 62
    7
370
   -1
100
AcDbCircle
 10
37.24999999999997
 20
-4.499999999999758
 40
1
100
AcDbArc
 50
217.9798724448672
 51
322.0201275551327
  0
ARC
  5
1A5
100
AcDbEntity
  8
0
  6
CONTINUOUS
 62
    7
370
   -1
100
AcDbCircle
 10
36.22530492340468
 20
-5.299999999999755
 40
0.3
100
AcDbArc
 50
37.97987244486727
 51
90
  0
ARC
  5
1A6
100
AcDbEntity
  8
0
  6
CONTINUOUS
 62
    7
370
   -1
100
AcDbCircle
 10
38.27469507659535
 20
-5.299999999999755
 40
0.3
100
AcDbArc
 50
90
 51
142.0201275551327
  0
LINE
  5
1A7
100
AcDbEntity
  8
0
  6
CONTINUOUS
 62
    7
370
   -1
100
AcDbLine
 10
25.00000000000017
 20
-18.27469507659516
 11
25.00000000000017
 21
-19.69999999999979
  0
LINE
  5
1A8
100
AcDbEntity
  8
0
  6
CONTINUOUS
 62
    7
370
   -1
100
AcDbLine
 10
25.00000000000017
 20
-16.22530492340445
 11
25.00000000000006
 21
-14.79999999999985
  0
ARC
  5
1A9
100
AcDbEntity
  8
0
  6
CONTINUOUS
 62
    7
370
   -1
100
AcDbCircle
 10
24.50000000000017
 20
-17.24999999999986
 40
1
100
AcDbArc
 50
307.9798724448661
 51
52.02012755513386
  0
ARC
  5
1AA
100
AcDbEntity
  8
0
  6
CONTINUOUS
 62
    7
370
   -1
100
AcDbCircle
 10
25.30000000000004
 20
-16.22530492340445
 40
0.3
100
AcDbArc
 50
180
 51
232.0201275551339
  0
ARC
  5
1AB
100
AcDbEntity
  8
0
  6
CONTINUOUS
 62
    7
370
   -1
100
AcDbCircle
 10
25.30000000000004
 20
-18.27469507659516
 40
0.3
100
AcDbArc
 50
127.9798724448661
 51
180
  0
LINE
  5
1AC
100
AcDbEntity
  8
0
  6
CONTINUOUS
 62
    7
370
   -1
100
AcDbLine
 10
15.00000000000006
 20
-16.22530492340456
 11
15.00000000000006
 21
-14.79999999999985
  0
LINE
  5
1AD
100
AcDbEntity
  8
0
  6
CONTINUOUS
 62
    7
370
   -1
100
AcDbLine
 10
15.00000000000014
 20
-18.27469507659525
 11
15.00000000000014
 21
-19.69999999999987
  0
ARC
  5
1AE
100
AcDbEntity
  8
0
  6
CONTINUOUS
 62
    7
370
   -1
100
AcDbCircle
 10
15.50000000000006
 20
-17.24999999999994
 40
1
100
AcDbArc
 50
127.9798724448661
 51
232.0201275551339
  0
ARC
  5
1AF
100
AcDbEntity
  8
0
  6
CONTINUOUS
 62
    7
370
   -1
100
AcDbCircle
 10
14.70000000000004
 20
-16.22530492340456
 40
0.3
100
AcDbArc
 50
307.9798724448661
 51
0
  0
ARC
  5
1B0
100
AcDbEntity
  8
0
  6
CONTINUOUS
 62
    7
370
   -1
100
AcDbCircle
 10
14.70000000000016
 20
-18.27469507659525
 40
0.3
100
AcDbArc
 50
0
 51
52.02012755513386
  0
LINE
  5
1B1
100
AcDbEntity
  8
CENTER
  6
CENTER
 62
    1
370
   -1
100
AcDbLine
 10
20.00000000000005
 20
-21.99999999999999
 11
20.00000000000006
 21
22.00000000000007
  0
LINE
  5
1B2
100
AcDbEntity
  8
CENTER
  6
CENTER
 62
    1
370
   -1
100
AcDbLine
 10
41.99999910590006
 20
5.67e-14
 11
-41.99999999999994
 21
6.44e-14
  0
LINE
  5
1B3
100
AcDbEntity
  8
CENTER
  6
CENTER
 62
    1
370
   -1
100
AcDbLine
 10
-19.99999999999995
 20
-21.99999999999999
 11
-19.99999999999994
 21
22.00000000000007
  0
CIRCLE
  5
1B4
100
AcDbEntity
  8
0
  6
CONTINUOUS
 62
    3
370
   -1
100
AcDbCircle
 10
-19.99999999999991
 20
5.81e-14
 40
5.25
  0
CIRCLE
  5
1B5
100
AcDbEntity
  8
0
  6
CONTINUOUS
 62
    3
370
   -1
100
AcDbCircle
 10
20.00000000000008
 20
5.81e-14
 40
5.25
  0
ENDSEC
  0
SECTION
  2
OBJECTS
  0
DICTIONARY
  5
C
330
0
100
AcDbDictionary
281
    1
  3
ACAD_GROUP
350
D
  0
DICTIONARY
  5
D
330
C
100
AcDbDictionary
281
    1
  0
PLOTSETTINGS
  5
1B6
100
AcDbPlotSettings
  6
1x1
 40
0
 41
0
 42
0
 43
0
  0
ENDSEC
  0
EOF
