  0
SECTION
  2
HEADER
  9
$ACADVER
  1
AC1009
  9
$INSBASE
 10
0.0
 20
0.0
 30
0.0
  9
$EXTMIN
 10
-47.42704335377789
 20
-71.529117293662466
 30
0.0
  9
$EXTMAX
 10
204.9130326354998
 20
82.235121306500346
 30
0.0
  9
$LIMMIN
 10
0.0
 20
0.0
  9
$LIMMAX
 10
420.0
 20
297.0
  9
$ORTHOMODE
 70
     0
  9
$REGENMODE
 70
     1
  9
$FILLMODE
 70
     1
  9
$QTEXTMODE
 70
     0
  9
$MIRRTEXT
 70
     0
  9
$DRAGMODE
 70
     2
  9
$LTSCALE
 40
1.0
  9
$OSMODE
 70
  2109
  9
$ATTMODE
 70
     1
  9
$TEXTSIZE
 40
3.0
  9
$TRACEWID
 40
1.0
  9
$TEXTSTYLE
  7
STANDARD
  9
$CLAYER
  8
0
  9
$CELTYPE
  6
CONTINUOUS
  9
$CECOLOR
 62
     7
  9
$DIMSCALE
 40
1.0
  9
$DIMASZ
 40
2.5
  9
$DIMEXO
 40
0.625
  9
$DIMDLI
 40
3.75
  9
$DIMRND
 40
0.0
  9
$DIMDLE
 40
0.0
  9
$DIMEXE
 40
1.25
  9
$DIMTP
 40
0.0
  9
$DIMTM
 40
0.0
  9
$DIMTXT
 40
2.5
  9
$DIMCEN
 40
2.5
  9
$DIMTSZ
 40
0.0
  9
$DIMTOL
 70
     0
  9
$DIMLIM
 70
     0
  9
$DIMTIH
 70
     0
  9
$DIMTOH
 70
     0
  9
$DIMSE1
 70
     0
  9
$DIMSE2
 70
     0
  9
$DIMTAD
 70
     1
  9
$DIMZIN
 70
     8
  9
$DIMBLK
  1
OPEN30
  9
$DIMASO
 70
     1
  9
$DIMSHO
 70
     1
  9
$DIMPOST
  1

  9
$DIMAPOST
  1

  9
$DIMALT
 70
     0
  9
$DIMALTD
 70
     3
  9
$DIMALTF
 40
0.03937007874016
  9
$DIMLFAC
 40
1.0
  9
$DIMTOFL
 70
     1
  9
$DIMTVP
 40
0.0
  9
$DIMTIX
 70
     0
  9
$DIMSOXD
 70
     0
  9
$DIMSAH
 70
     0
  9
$DIMBLK1
  1

  9
$DIMBLK2
  1

  9
$DIMSTYLE
  2
MISUMI
  9
$DIMCLRD
 70
   137
  9
$DIMCLRE
 70
   137
  9
$DIMCLRT
 70
   137
  9
$DIMTFAC
 40
1.0
  9
$DIMGAP
 40
0.625
  9
$LUNITS
 70
     2
  9
$LUPREC
 70
     2
  9
$SKETCHINC
 40
1.0
  9
$FILLETRAD
 40
0.0
  9
$AUNITS
 70
     0
  9
$AUPREC
 70
     0
  9
$MENU
  1
.
  9
$ELEVATION
 40
0.0
  9
$PELEVATION
 40
0.0
  9
$THICKNESS
 40
0.0
  9
$LIMCHECK
 70
     0
  9
$BLIPMODE
 70
     0
  9
$CHAMFERA
 40
0.5
  9
$CHAMFERB
 40
0.5
  9
$SKPOLY
 70
     0
  9
$TDCREATE
 40
2455135.5720697111
  9
$TDUPDATE
 40
2455656.609587709
  9
$TDINDWG
 40
0.0749816319
  9
$TDUSRTIMER
 40
0.0749814468
  9
$USRTIMER
 70
     1
  9
$ANGBASE
 50
0.0
  9
$ANGDIR
 70
     0
  9
$PDMODE
 70
    35
  9
$PDSIZE
 40
0.0
  9
$PLINEWID
 40
0.0
  9
$COORDS
 70
     1
  9
$SPLFRAME
 70
     0
  9
$SPLINETYPE
 70
     6
  9
$SPLINESEGS
 70
     8
  9
$ATTDIA
 70
     0
  9
$ATTREQ
 70
     1
  9
$HANDLING
 70
     1
  9
$HANDSEED
  5
21F0
  9
$SURFTAB1
 70
     6
  9
$SURFTAB2
 70
     6
  9
$SURFTYPE
 70
     6
  9
$SURFU
 70
     6
  9
$SURFV
 70
     6
  9
$UCSNAME
  2

  9
$UCSORG
 10
0.0
 20
0.0
 30
0.0
  9
$UCSXDIR
 10
1.0
 20
0.0
 30
0.0
  9
$UCSYDIR
 10
0.0
 20
1.0
 30
0.0
  9
$PUCSNAME
  2

  9
$PUCSORG
 10
0.0
 20
0.0
 30
0.0
  9
$PUCSXDIR
 10
1.0
 20
0.0
 30
0.0
  9
$PUCSYDIR
 10
0.0
 20
1.0
 30
0.0
  9
$USERI1
 70
     0
  9
$USERI2
 70
     0
  9
$USERI3
 70
     0
  9
$USERI4
 70
     0
  9
$USERI5
 70
     0
  9
$USERR1
 40
0.0
  9
$USERR2
 40
0.0
  9
$USERR3
 40
0.0
  9
$USERR4
 40
0.0
  9
$USERR5
 40
0.0
  9
$WORLDVIEW
 70
     1
  9
$SHADEDGE
 70
     3
  9
$SHADEDIF
 70
    70
  9
$TILEMODE
 70
     1
  9
$MAXACTVP
 70
    64
  9
$PLIMCHECK
 70
     0
  9
$PEXTMIN
 10
0.0
 20
0.0
 30
0.0
  9
$PEXTMAX
 10
0.0
 20
0.0
 30
0.0
  9
$PLIMMIN
 10
0.0
 20
0.0
  9
$PLIMMAX
 10
12.0
 20
9.0
  9
$UNITMODE
 70
     0
  9
$VISRETAIN
 70
     1
  9
$PLINEGEN
 70
     0
  9
$PSLTSCALE
 70
     1
  0
ENDSEC
  0
SECTION
  2
TABLES
  0
TABLE
  2
VPORT
 70
     1
  0
VPORT
  2
*ACTIVE
 70
     0
 10
0.0
 20
0.0
 11
1.0
 21
1.0
 12
95.662964096237289
 22
34.172626680520473
 13
0.0
 23
0.0
 14
10.0
 24
10.0
 15
10.0
 25
10.0
 16
0.0
 26
0.0
 36
1.0
 17
0.0
 27
0.0
 37
0.0
 40
320.39302654586618
 41
1.0918367346938771
 42
50.0
 43
0.0
 44
0.0
 50
0.0
 51
0.0
 71
     0
 72
  1000
 73
     1
 74
     3
 75
     0
 76
     0
 77
     0
 78
     0
  0
ENDTAB
  0
TABLE
  2
LTYPE
 70
     4
  0
LTYPE
  2
CONTINUOUS
 70
     0
  3
Solid line
 72
    65
 73
     0
 40
0.0
  0
LTYPE
  2
CENTER
 70
     0
  3
Center ____ _ ____ _ ____ _ ____ _ ____ _ ____
 72
    65
 73
     4
 40
50.799999999999997
 49
31.75
 49
-6.3499999999999988
 49
6.3499999999999988
 49
-6.3499999999999988
  0
LTYPE
  2
DASHED
 70
     0
  3
Dashed __ __ __ __ __ __ __ __ __ __ __ __ __ _
 72
    65
 73
     2
 40
19.050000000000001
 49
12.699999999999999
 49
-6.3499999999999988
  0
LTYPE
  2
PHANTOM
 70
     0
  3
Phantom ______  __  __  ______  __  __  ______
 72
    65
 73
     6
 40
63.5
 49
31.75
 49
-6.3499999999999988
 49
6.3499999999999988
 49
-6.3499999999999988
 49
6.3499999999999988
 49
-6.3499999999999988
  0
ENDTAB
  0
TABLE
  2
LAYER
 70
     3
  0
LAYER
  2
0
 70
     0
 62
     7
  6
CONTINUOUS
  0
LAYER
  2
CENTER
 70
     0
 62
     1
  6
CENTER
  0
LAYER
  2
DEFPOINTS
 70
     0
 62
     7
  6
CONTINUOUS
  0
ENDTAB
  0
TABLE
  2
STYLE
 70
     1
  0
STYLE
  2
STANDARD
 70
     0
 40
3.0
 41
1.0
 50
0.0
 71
     0
 42
3.0
  3
txt.shx
  4
bigfont.shx
  0
ENDTAB
  0
TABLE
  2
VIEW
 70
     0
  0
ENDTAB
  0
TABLE
  2
UCS
 70
     0
  0
ENDTAB
  0
TABLE
  2
APPID
 70
     8
  0
APPID
  2
ACAD
 70
     0
  0
APPID
  2
ACAD_MLEADERVER
 70
     0
  0
APPID
  2
ACAD_PSEXT
 70
     0
  0
APPID
  2
ACAD_DSTYLE_DIMRADIAL_EXTENSION
 70
     0
  0
APPID
  2
ACAD_EXEMPT_FROM_CAD_STANDARDS
 70
     0
  0
APPID
  2
GRADIENTCOLOR1ACI
 70
     0
  0
APPID
  2
GRADIENTCOLOR2ACI
 70
     0
  0
APPID
  2
ACAECLAYERSTANDARD
 70
     0
  0
ENDTAB
  0
TABLE
  2
DIMSTYLE
 70
     1
  0
DIMSTYLE
  2
MISUMI
 70
     0
  3

  4

  5
OPEN30
  6

  7

 40
1.0
 41
2.5
 42
0.625
 43
3.75
 44
1.25
 45
0.0
 46
0.0
 47
0.0
 48
0.0
140
2.5
141
2.5
142
0.0
143
0.03937007874016
144
1.0
145
0.0
146
1.0
147
0.625
 71
     0
 72
     0
 73
     0
 74
     0
 75
     0
 76
     0
 77
     1
 78
     8
170
     0
171
     3
172
     1
173
     0
174
     0
175
     0
176
   137
177
   137
178
   137
  0
ENDTAB
  0
ENDSEC
  0
SECTION
  2
BLOCKS
  0
BLOCK
  8
0
  2
$MODEL_SPACE
 70
     0
 10
0.0
 20
0.0
 30
0.0
  3
$MODEL_SPACE
  1

  0
ENDBLK
  5
21
  8
0
  0
BLOCK
 67
     1
  8
0
  2
$PAPER_SPACE
 70
     0
 10
0.0
 20
0.0
 30
0.0
  3
$PAPER_SPACE
  1

  0
ENDBLK
  5
53
 67
     1
  8
0
  0
BLOCK
  8
0
 62
     7
  2
_OPEN30
 70
     0
 10
0.0
 20
0.0
 30
0.0
  3
_OPEN30
  1

  0
LINE
  5
D7
  8
0
  6
BYBLOCK
 62
     0
 10
-1.0
 20
0.26794919
 30
0.0
 11
0.0
 21
0.0
 31
0.0
  0
LINE
  5
D8
  8
0
  6
BYBLOCK
 62
     0
 10
0.0
 20
0.0
 30
0.0
 11
-1.0
 21
-0.26794919
 31
0.0
  0
LINE
  5
D9
  8
0
  6
BYBLOCK
 62
     0
 10
0.0
 20
0.0
 30
0.0
 11
-1.0
 21
0.0
 31
0.0
  0
ENDBLK
  5
DB
  8
0
 62
     7
  0
BLOCK
  8
0
 62
     7
  2
*U24
 70
     1
 10
0.0
 20
0.0
 30
0.0
  3
*U24
  1

  0
TEXT
  5
21E9
  8
0
  6
CONTINUOUS
 62
     7
 10
-20.0
 20
-65.510154159867795
 30
0.0
 40
3.0
  1
NEFS8-808040-50
  0
ENDBLK
  5
21EB
  8
0
 62
     7
  0
BLOCK
  8
0
 62
     7
  2
*U25
 70
     1
 10
0.0
 20
0.0
 30
0.0
  3
*U25
  1

  0
TEXT
  5
21ED
  8
0
  6
CONTINUOUS
 62
     7
 10
-20.0
 20
-71.529117293662466
 30
0.0
 40
3.0
  1
NEFS8-808040
  0
ENDBLK
  5
21EF
  8
0
 62
     7
  0
ENDSEC
  0
SECTION
  2
ENTITIES
  0
LINE
  5
1B00
  8
CENTER
  6
CENTER
 62
     1
 10
0.0
 20
-21.999999511208159
 30
0.0
 11
0.0
 21
62.000000488791819
 31
0.0
  0
LINE
  5
1B01
  8
CENTER
  6
CENTER
 62
     1
 10
-22.000000000000011
 20
40.000000488791819
 30
0.0
 11
21.999999999999929
 21
40.000000488791819
 31
0.0
  0
LINE
  5
1B02
  8
CENTER
  6
CENTER
 62
     1
 10
40.000000000000021
 20
-21.99999951120817
 30
0.0
 11
40.000000000000021
 21
22.00000048879183
 31
0.0
  0
LINE
  5
1B03
  8
CENTER
  6
CENTER
 62
     1
 10
-22.000000000000011
 20
0.0000004887918124
 30
0.0
 11
61.999999999999929
 21
0.0000004887918124
 31
0.0
  0
LINE
  5
1B07
  8
0
  6
CONTINUOUS
 62
     7
 10
-2.57523900000001
 20
45.522618488791707
 30
0.0
 11
-2.38180100000001
 21
45.107790488791807
 31
0.0
  0
LINE
  5
1B08
  8
0
  6
CONTINUOUS
 62
     7
 10
2.57523900000001
 20
45.522618488791707
 30
0.0
 11
2.3818019999999929
 21
45.107790488791807
 31
0.0
  0
ARC
  5
1B09
  8
0
  6
CONTINUOUS
 62
     7
 10
2.0192789999999832
 20
45.276837488791827
 30
0.0
 40
0.4
 50
249.0597350000005
 51
335.00000000000028
  0
ARC
  5
1B0A
  8
0
  6
CONTINUOUS
 62
     7
 10
-2.0192780000000141
 20
45.276837488791827
 30
0.0
 40
0.4
 50
204.99999999999969
 51
290.94026499999939
  0
ARC
  5
1B0B
  8
0
  6
CONTINUOUS
 62
     7
 10
-3.4815470000000199
 20
45.100000488791821
 30
0.0
 40
1.0
 50
24.999999999999702
 51
90.0
  0
ARC
  5
1B0C
  8
0
  6
CONTINUOUS
 62
     7
 10
3.4815469999999911
 20
45.100000488791821
 30
0.0
 40
1.0
 50
90.0
 51
155.00000000000031
  0
LINE
  5
1B0D
  8
0
  6
CONTINUOUS
 62
     7
 10
-5.1077900000000076
 20
37.618198488791833
 30
0.0
 11
-5.5226180000000076
 21
37.424760488791847
 31
0.0
  0
LINE
  5
1B0E
  8
0
  6
CONTINUOUS
 62
     7
 10
-5.1077900000000076
 20
42.381801488791822
 30
0.0
 11
-5.5226180000000076
 21
42.575239488791837
 31
0.0
  0
LINE
  5
1B0F
  8
0
  6
CONTINUOUS
 62
     7
 10
2.3818019999999929
 20
34.892209488791842
 30
0.0
 11
2.57523900000001
 21
34.477381488791842
 31
0.0
  0
LINE
  5
1B10
  8
0
  6
CONTINUOUS
 62
     7
 10
-2.38180100000001
 20
34.892209488791842
 30
0.0
 11
-2.57523900000001
 21
34.477381488791842
 31
0.0
  0
ARC
  5
1B11
  8
0
  6
CONTINUOUS
 62
     7
 10
0.0
 20
40.000000488791819
 30
0.0
 40
5.25
 50
69.059735000000529
 51
110.9402649999994
  0
ARC
  5
1B12
  8
0
  6
CONTINUOUS
 62
     7
 10
0.0
 20
40.000000488791819
 30
0.0
 40
5.25
 50
339.0597350000005
 51
20.940265000000242
  0
LINE
  5
1B13
  8
0
  6
CONTINUOUS
 62
     7
 10
5.1077900000000076
 20
42.381801488791822
 30
0.0
 11
5.52261799999998
 21
42.575239488791837
 31
0.0
  0
LINE
  5
1B14
  8
0
  6
CONTINUOUS
 62
     7
 10
5.1077900000000076
 20
37.618198488791833
 30
0.0
 11
5.52261799999998
 21
37.424760488791847
 31
0.0
  0
ARC
  5
1B15
  8
0
  6
CONTINUOUS
 62
     7
 10
-5.1000000000000076
 20
36.51845348879182
 30
0.0
 40
1.0
 50
114.9999999999996
 51
180.0
  0
ARC
  5
1B16
  8
0
  6
CONTINUOUS
 62
     7
 10
0.0
 20
40.000000488791819
 30
0.0
 40
5.25
 50
249.0597350000005
 51
290.94026499999939
  0
ARC
  5
1B17
  8
0
  6
CONTINUOUS
 62
     7
 10
-5.1000000000000076
 20
43.481546488791828
 30
0.0
 40
1.0
 50
180.0
 51
245.00000000000031
  0
ARC
  5
1B18
  8
0
  6
CONTINUOUS
 62
     7
 10
-3.4815470000000199
 20
34.900000488791839
 30
0.0
 40
1.0
 50
270.0
 51
335.00000000000028
  0
ARC
  5
1B19
  8
0
  6
CONTINUOUS
 62
     7
 10
3.4815469999999911
 20
34.900000488791839
 30
0.0
 40
1.0
 50
204.99999999999969
 51
270.0
  0
ARC
  5
1B1A
  8
0
  6
CONTINUOUS
 62
     7
 10
0.0
 20
40.000000488791819
 30
0.0
 40
5.25
 50
159.0597349999997
 51
200.94026500000021
  0
ARC
  5
1B1B
  8
0
  6
CONTINUOUS
 62
     7
 10
5.0999999999999801
 20
36.51845348879182
 30
0.0
 40
1.0
 50
0.0
 51
65.000000000000313
  0
ARC
  5
1B1C
  8
0
  6
CONTINUOUS
 62
     7
 10
5.0999999999999801
 20
43.481546488791828
 30
0.0
 40
1.0
 50
294.99999999999972
 51
0.0
  0
ARC
  5
1B1D
  8
0
  6
CONTINUOUS
 62
     7
 10
-5.2768370000000138
 20
42.019278488791841
 30
0.0
 40
0.4
 50
339.0597350000005
 51
65.000000000000313
  0
ARC
  5
1B1E
  8
0
  6
CONTINUOUS
 62
     7
 10
-5.2768370000000138
 20
37.980721488791843
 30
0.0
 40
0.4
 50
294.99999999999972
 51
20.940265000000242
  0
ARC
  5
1B1F
  8
0
  6
CONTINUOUS
 62
     7
 10
-2.0192780000000141
 20
34.723162488791829
 30
0.0
 40
0.4
 50
69.059735000000529
 51
155.00000000000031
  0
ARC
  5
1B20
  8
0
  6
CONTINUOUS
 62
     7
 10
2.0192789999999832
 20
34.723162488791829
 30
0.0
 40
0.4
 50
24.999999999999702
 51
110.9402649999994
  0
ARC
  5
1B21
  8
0
  6
CONTINUOUS
 62
     7
 10
5.2768380000000121
 20
37.980721488791843
 30
0.0
 40
0.4
 50
159.0597349999997
 51
245.00000000000031
  0
ARC
  5
1B22
  8
0
  6
CONTINUOUS
 62
     7
 10
5.2768380000000121
 20
42.019278488791841
 30
0.0
 40
0.4
 50
114.9999999999996
 51
200.94026500000021
  0
LINE
  5
1B23
  8
0
  6
CONTINUOUS
 62
     7
 10
-2.57523900000001
 20
-5.5226185112081794
 30
0.0
 11
-2.38180100000001
 21
-5.1077905112081794
 31
0.0
  0
LINE
  5
1B24
  8
0
  6
CONTINUOUS
 62
     7
 10
2.57523900000001
 20
-5.5226185112081794
 30
0.0
 11
2.3818019999999929
 21
-5.1077905112081794
 31
0.0
  0
ARC
  5
1B25
  8
0
  6
CONTINUOUS
 62
     7
 10
2.0192789999999832
 20
-5.2768375112081847
 30
0.0
 40
0.4
 50
24.999999999999702
 51
110.9402649999994
  0
ARC
  5
1B26
  8
0
  6
CONTINUOUS
 62
     7
 10
-2.0192780000000141
 20
-5.2768375112081847
 30
0.0
 40
0.4
 50
69.059735000000529
 51
155.00000000000031
  0
ARC
  5
1B27
  8
0
  6
CONTINUOUS
 62
     7
 10
-3.4815470000000199
 20
-5.0999995112081811
 30
0.0
 40
1.0
 50
270.0
 51
335.00000000000028
  0
ARC
  5
1B28
  8
0
  6
CONTINUOUS
 62
     7
 10
3.4815469999999911
 20
-5.0999995112081811
 30
0.0
 40
1.0
 50
204.99999999999969
 51
270.0
  0
LINE
  5
1B29
  8
0
  6
CONTINUOUS
 62
     7
 10
-5.1077900000000076
 20
2.3818014887918082
 30
0.0
 11
-5.5226180000000076
 21
2.5752394887918082
 31
0.0
  0
LINE
  5
1B2A
  8
0
  6
CONTINUOUS
 62
     7
 10
-5.1077900000000076
 20
-2.3818015112081801
 30
0.0
 11
-5.5226180000000076
 21
-2.575239511208181
 31
0.0
  0
LINE
  5
1B2B
  8
0
  6
CONTINUOUS
 62
     7
 10
2.3818019999999929
 20
5.10779048879182
 30
0.0
 11
2.57523900000001
 21
5.5226184887918199
 31
0.0
  0
LINE
  5
1B2C
  8
0
  6
CONTINUOUS
 62
     7
 10
-2.38180100000001
 20
5.10779048879182
 30
0.0
 11
-2.57523900000001
 21
5.5226184887918199
 31
0.0
  0
ARC
  5
1B2D
  8
0
  6
CONTINUOUS
 62
     7
 10
0.0
 20
0.0000004887918124
 30
0.0
 40
5.25
 50
249.0597350000005
 51
290.94026499999939
  0
ARC
  5
1B2E
  8
0
  6
CONTINUOUS
 62
     7
 10
0.0
 20
0.0000004887918124
 30
0.0
 40
5.25
 50
339.0597350000005
 51
20.940265000000242
  0
LINE
  5
1B2F
  8
0
  6
CONTINUOUS
 62
     7
 10
5.1077900000000076
 20
-2.3818015112081801
 30
0.0
 11
5.52261799999998
 21
-2.575239511208181
 31
0.0
  0
LINE
  5
1B30
  8
0
  6
CONTINUOUS
 62
     7
 10
5.1077900000000076
 20
2.3818014887918082
 30
0.0
 11
5.52261799999998
 21
2.5752394887918082
 31
0.0
  0
ARC
  5
1B31
  8
0
  6
CONTINUOUS
 62
     7
 10
-5.1000000000000076
 20
3.4815464887918059
 30
0.0
 40
1.0
 50
180.0
 51
245.00000000000031
  0
ARC
  5
1B32
  8
0
  6
CONTINUOUS
 62
     7
 10
0.0
 20
0.0000004887918124
 30
0.0
 40
5.25
 50
69.059735000000529
 51
110.9402649999994
  0
ARC
  5
1B33
  8
0
  6
CONTINUOUS
 62
     7
 10
-5.1000000000000076
 20
-3.4815465112081792
 30
0.0
 40
1.0
 50
114.9999999999996
 51
180.0
  0
ARC
  5
1B34
  8
0
  6
CONTINUOUS
 62
     7
 10
-3.4815470000000199
 20
5.10000048879182
 30
0.0
 40
1.0
 50
24.999999999999702
 51
90.0
  0
ARC
  5
1B35
  8
0
  6
CONTINUOUS
 62
     7
 10
3.4815469999999911
 20
5.10000048879182
 30
0.0
 40
1.0
 50
90.0
 51
155.00000000000031
  0
ARC
  5
1B36
  8
0
  6
CONTINUOUS
 62
     7
 10
0.0
 20
0.0000004887918124
 30
0.0
 40
5.25
 50
159.0597349999997
 51
200.94026500000021
  0
ARC
  5
1B37
  8
0
  6
CONTINUOUS
 62
     7
 10
5.0999999999999801
 20
3.4815464887918059
 30
0.0
 40
1.0
 50
294.99999999999972
 51
0.0
  0
ARC
  5
1B38
  8
0
  6
CONTINUOUS
 62
     7
 10
5.0999999999999801
 20
-3.4815465112081792
 30
0.0
 40
1.0
 50
0.0
 51
65.000000000000313
  0
ARC
  5
1B39
  8
0
  6
CONTINUOUS
 62
     7
 10
-5.2768370000000138
 20
-2.019278511208185
 30
0.0
 40
0.4
 50
294.99999999999972
 51
20.940265000000242
  0
ARC
  5
1B3A
  8
0
  6
CONTINUOUS
 62
     7
 10
-5.2768370000000138
 20
2.0192784887918118
 30
0.0
 40
0.4
 50
339.0597350000005
 51
65.000000000000313
  0
ARC
  5
1B3B
  8
0
  6
CONTINUOUS
 62
     7
 10
-2.0192780000000141
 20
5.2768374887918119
 30
0.0
 40
0.4
 50
204.99999999999969
 51
290.94026499999939
  0
ARC
  5
1B3C
  8
0
  6
CONTINUOUS
 62
     7
 10
2.0192789999999832
 20
5.2768374887918119
 30
0.0
 40
0.4
 50
249.0597350000005
 51
335.00000000000028
  0
ARC
  5
1B3D
  8
0
  6
CONTINUOUS
 62
     7
 10
5.2768380000000121
 20
2.0192784887918118
 30
0.0
 40
0.4
 50
114.9999999999996
 51
200.94026500000021
  0
ARC
  5
1B3E
  8
0
  6
CONTINUOUS
 62
     7
 10
5.2768380000000121
 20
-2.019278511208185
 30
0.0
 40
0.4
 50
159.0597349999997
 51
245.00000000000031
  0
LINE
  5
1B3F
  8
0
  6
CONTINUOUS
 62
     7
 10
3.4815469999999911
 20
-6.0999995112081811
 30
0.0
 11
5.5999999999999801
 21
-6.0999995112081811
 31
0.0
  0
LINE
  5
1B40
  8
0
  6
CONTINUOUS
 62
     7
 10
6.0999999999999801
 20
-3.4815465112081792
 30
0.0
 11
6.0999999999999801
 21
-5.5999995112081811
 31
0.0
  0
LINE
  5
1B41
  8
0
  6
CONTINUOUS
 62
     7
 10
6.0999999999999801
 20
3.4815464887918059
 30
0.0
 11
6.0999999999999801
 21
5.6000004887917214
 31
0.0
  0
LINE
  5
1B42
  8
0
  6
CONTINUOUS
 62
     7
 10
3.4815469999999911
 20
6.10000048879182
 30
0.0
 11
5.5999999999999801
 21
6.10000048879182
 31
0.0
  0
LINE
  5
1B43
  8
0
  6
CONTINUOUS
 62
     7
 10
-3.4815470000000199
 20
6.10000048879182
 30
0.0
 11
-5.6000000000000076
 21
6.10000048879182
 31
0.0
  0
LINE
  5
1B44
  8
0
  6
CONTINUOUS
 62
     7
 10
-6.1000000000000218
 20
3.4815464887918059
 30
0.0
 11
-6.1000000000000218
 21
5.6000004887917214
 31
0.0
  0
ARC
  5
1B45
  8
0
  6
CONTINUOUS
 62
     7
 10
-5.6000000000000076
 20
5.6000004887917214
 30
0.0
 40
0.5
 50
90.0
 51
180.0
  0
ARC
  5
1B46
  8
0
  6
CONTINUOUS
 62
     7
 10
5.5999999999999801
 20
-5.5999995112081811
 30
0.0
 40
0.5
 50
270.0
 51
0.0
  0
ARC
  5
1B47
  8
0
  6
CONTINUOUS
 62
     7
 10
5.5999999999999801
 20
5.6000004887917214
 30
0.0
 40
0.5
 50
0.0
 51
90.0
  0
LINE
  5
1B48
  8
0
  6
CONTINUOUS
 62
     7
 10
-3.4815470000000199
 20
-6.0999995112081811
 30
0.0
 11
-5.6000000000000076
 21
-6.0999995112081811
 31
0.0
  0
LINE
  5
1B49
  8
0
  6
CONTINUOUS
 62
     7
 10
-6.1000000000000218
 20
-3.4815465112081792
 30
0.0
 11
-6.1000000000000218
 21
-5.5999995112081811
 31
0.0
  0
ARC
  5
1B4A
  8
0
  6
CONTINUOUS
 62
     7
 10
-5.6000000000000076
 20
-5.5999995112081811
 30
0.0
 40
0.5
 50
180.0
 51
270.0
  0
LINE
  5
1B4B
  8
0
  6
CONTINUOUS
 62
     7
 10
45.52261799999993
 20
-2.575239511208181
 30
0.0
 11
45.107790000000023
 21
-2.3818015112081801
 31
0.0
  0
LINE
  5
1B4C
  8
0
  6
CONTINUOUS
 62
     7
 10
45.52261799999993
 20
2.5752394887918082
 30
0.0
 11
45.107790000000023
 21
2.3818014887918082
 31
0.0
  0
ARC
  5
1B4D
  8
0
  6
CONTINUOUS
 62
     7
 10
45.276837999999927
 20
2.0192784887918118
 30
0.0
 40
0.4
 50
114.9999999999996
 51
200.94026500000021
  0
ARC
  5
1B4E
  8
0
  6
CONTINUOUS
 62
     7
 10
45.276837999999927
 20
-2.019278511208185
 30
0.0
 40
0.4
 50
159.0597349999997
 51
245.00000000000031
  0
ARC
  5
1B4F
  8
0
  6
CONTINUOUS
 62
     7
 10
45.100000000000023
 20
-3.4815465112081792
 30
0.0
 40
1.0
 50
0.0
 51
65.000000000000313
  0
ARC
  5
1B50
  8
0
  6
CONTINUOUS
 62
     7
 10
45.100000000000023
 20
3.4815464887918059
 30
0.0
 40
1.0
 50
294.99999999999972
 51
0.0
  0
LINE
  5
1B51
  8
0
  6
CONTINUOUS
 62
     7
 10
37.618198999999919
 20
-5.1077905112081794
 30
0.0
 11
37.424760999999933
 21
-5.5226185112081794
 31
0.0
  0
LINE
  5
1B52
  8
0
  6
CONTINUOUS
 62
     7
 10
42.381801999999936
 20
-5.1077905112081794
 30
0.0
 11
42.57523900000001
 21
-5.5226185112081794
 31
0.0
  0
LINE
  5
1B53
  8
0
  6
CONTINUOUS
 62
     7
 10
34.892209999999928
 20
2.3818014887918082
 30
0.0
 11
34.477381999999942
 21
2.5752394887918082
 31
0.0
  0
LINE
  5
1B54
  8
0
  6
CONTINUOUS
 62
     7
 10
34.892209999999928
 20
-2.3818015112081801
 30
0.0
 11
34.477381999999942
 21
-2.575239511208181
 31
0.0
  0
ARC
  5
1B55
  8
0
  6
CONTINUOUS
 62
     7
 10
40.000000000000021
 20
0.0000004887918124
 30
0.0
 40
5.25
 50
339.0597350000005
 51
20.940265000000242
  0
ARC
  5
1B56
  8
0
  6
CONTINUOUS
 62
     7
 10
40.000000000000021
 20
0.0000004887918124
 30
0.0
 40
5.25
 50
69.059735000000529
 51
110.9402649999994
  0
LINE
  5
1B57
  8
0
  6
CONTINUOUS
 62
     7
 10
42.381801999999936
 20
5.10779048879182
 30
0.0
 11
42.57523900000001
 21
5.5226184887918199
 31
0.0
  0
LINE
  5
1B58
  8
0
  6
CONTINUOUS
 62
     7
 10
37.618198999999919
 20
5.10779048879182
 30
0.0
 11
37.424760999999933
 21
5.5226184887918199
 31
0.0
  0
ARC
  5
1B59
  8
0
  6
CONTINUOUS
 62
     7
 10
36.518453000000022
 20
-5.0999995112081811
 30
0.0
 40
1.0
 50
270.0
 51
335.00000000000028
  0
ARC
  5
1B5A
  8
0
  6
CONTINUOUS
 62
     7
 10
40.000000000000021
 20
0.0000004887918124
 30
0.0
 40
5.25
 50
159.0597349999997
 51
200.94026500000021
  0
ARC
  5
1B5B
  8
0
  6
CONTINUOUS
 62
     7
 10
43.481546999999921
 20
-5.0999995112081811
 30
0.0
 40
1.0
 50
204.99999999999969
 51
270.0
  0
ARC
  5
1B5C
  8
0
  6
CONTINUOUS
 62
     7
 10
34.899999999999928
 20
-3.4815465112081792
 30
0.0
 40
1.0
 50
114.9999999999996
 51
180.0
  0
ARC
  5
1B5D
  8
0
  6
CONTINUOUS
 62
     7
 10
34.899999999999928
 20
3.4815464887918059
 30
0.0
 40
1.0
 50
180.0
 51
245.00000000000031
  0
ARC
  5
1B5E
  8
0
  6
CONTINUOUS
 62
     7
 10
40.000000000000021
 20
0.0000004887918124
 30
0.0
 40
5.25
 50
249.0597350000005
 51
290.94026499999939
  0
ARC
  5
1B5F
  8
0
  6
CONTINUOUS
 62
     7
 10
36.518453000000022
 20
5.10000048879182
 30
0.0
 40
1.0
 50
24.999999999999702
 51
90.0
  0
ARC
  5
1B60
  8
0
  6
CONTINUOUS
 62
     7
 10
43.481546999999921
 20
5.10000048879182
 30
0.0
 40
1.0
 50
90.0
 51
155.00000000000031
  0
ARC
  5
1B61
  8
0
  6
CONTINUOUS
 62
     7
 10
42.019278999999933
 20
-5.2768375112081847
 30
0.0
 40
0.4
 50
24.999999999999702
 51
110.9402649999994
  0
ARC
  5
1B62
  8
0
  6
CONTINUOUS
 62
     7
 10
37.980722000000021
 20
-5.2768375112081847
 30
0.0
 40
0.4
 50
69.059735000000529
 51
155.00000000000031
  0
ARC
  5
1B63
  8
0
  6
CONTINUOUS
 62
     7
 10
34.723162999999929
 20
-2.019278511208185
 30
0.0
 40
0.4
 50
294.99999999999972
 51
20.940265000000242
  0
ARC
  5
1B64
  8
0
  6
CONTINUOUS
 62
     7
 10
34.723162999999929
 20
2.0192784887918118
 30
0.0
 40
0.4
 50
339.0597350000005
 51
65.000000000000313
  0
ARC
  5
1B65
  8
0
  6
CONTINUOUS
 62
     7
 10
37.980722000000021
 20
5.2768374887918119
 30
0.0
 40
0.4
 50
204.99999999999969
 51
290.94026499999939
  0
ARC
  5
1B66
  8
0
  6
CONTINUOUS
 62
     7
 10
42.019278999999933
 20
5.2768374887918119
 30
0.0
 40
0.4
 50
249.0597350000005
 51
335.00000000000028
  0
LINE
  5
1B67
  8
0
  6
CONTINUOUS
 62
     7
 10
46.100000000000023
 20
3.4815464887918059
 30
0.0
 11
46.100000000000023
 21
5.6000004887917214
 31
0.0
  0
LINE
  5
1B68
  8
0
  6
CONTINUOUS
 62
     7
 10
43.481546999999921
 20
6.10000048879182
 30
0.0
 11
45.600000000000023
 21
6.10000048879182
 31
0.0
  0
LINE
  5
1B69
  8
0
  6
CONTINUOUS
 62
     7
 10
36.518453000000022
 20
6.10000048879182
 30
0.0
 11
34.399999999999942
 21
6.10000048879182
 31
0.0
  0
LINE
  5
1B6A
  8
0
  6
CONTINUOUS
 62
     7
 10
33.899999999999928
 20
3.4815464887918059
 30
0.0
 11
33.899999999999928
 21
5.6000004887917214
 31
0.0
  0
LINE
  5
1B6B
  8
0
  6
CONTINUOUS
 62
     7
 10
33.899999999999928
 20
-3.4815465112081792
 30
0.0
 11
33.899999999999928
 21
-5.5999995112081811
 31
0.0
  0
LINE
  5
1B6C
  8
0
  6
CONTINUOUS
 62
     7
 10
36.518453000000022
 20
-6.0999995112081811
 30
0.0
 11
34.399999999999942
 21
-6.0999995112081811
 31
0.0
  0
ARC
  5
1B6D
  8
0
  6
CONTINUOUS
 62
     7
 10
34.399999999999942
 20
-5.5999995112081811
 30
0.0
 40
0.5
 50
180.0
 51
270.0
  0
ARC
  5
1B6E
  8
0
  6
CONTINUOUS
 62
     7
 10
45.600000000000023
 20
5.6000004887917214
 30
0.0
 40
0.5
 50
0.0
 51
90.0
  0
ARC
  5
1B6F
  8
0
  6
CONTINUOUS
 62
     7
 10
34.399999999999942
 20
5.6000004887917214
 30
0.0
 40
0.5
 50
90.0
 51
180.0
  0
LINE
  5
1B70
  8
0
  6
CONTINUOUS
 62
     7
 10
46.100000000000023
 20
-3.4815465112081792
 30
0.0
 11
46.100000000000023
 21
-5.5999995112081811
 31
0.0
  0
LINE
  5
1B71
  8
0
  6
CONTINUOUS
 62
     7
 10
43.481546999999921
 20
-6.0999995112081811
 30
0.0
 11
45.600000000000023
 21
-6.0999995112081811
 31
0.0
  0
ARC
  5
1B72
  8
0
  6
CONTINUOUS
 62
     7
 10
45.600000000000023
 20
-5.5999995112081811
 30
0.0
 40
0.5
 50
270.0
 51
0.0
  0
ARC
  5
1B73
  8
0
  6
CONTINUOUS
 62
     7
 10
-20.0
 20
60.000000488791827
 30
0.0
 40
6.4000000000000004
 50
296.48387600000223
 51
333.5161240000013
  0
ARC
  5
1B74
  8
0
  6
CONTINUOUS
 62
     7
 10
-16.699999999999999
 20
53.376556488791927
 30
0.0
 40
1.0
 50
116.4838760000022
 51
180.0
  0
ARC
  5
1B75
  8
0
  6
CONTINUOUS
 62
     7
 10
-13.37655700000005
 20
56.700000488791702
 30
0.0
 40
1.0
 50
90.0
 51
153.51612400000141
  0
ARC
  5
1B76
  8
0
  6
CONTINUOUS
 62
     7
 10
19.999999999999929
 20
60.000000488791827
 30
0.0
 40
6.4000000000000004
 50
206.48387599999859
 51
243.5161239999978
  0
ARC
  5
1B77
  8
0
  6
CONTINUOUS
 62
     7
 10
16.699999999999928
 20
53.376556488791927
 30
0.0
 40
1.0
 50
0.0
 51
63.516123999997767
  0
ARC
  5
1B78
  8
0
  6
CONTINUOUS
 62
     7
 10
13.376556999999931
 20
56.700000488791702
 30
0.0
 40
1.0
 50
26.483875999998592
 51
90.0
  0
LINE
  5
1B79
  8
0
  6
CONTINUOUS
 62
     7
 10
13.376556999999931
 20
57.700000488791702
 30
0.0
 11
12.399999999999929
 21
57.700000488791702
 31
0.0
  0
LINE
  5
1B7A
  8
0
  6
CONTINUOUS
 62
     7
 10
17.699999999999928
 20
53.376556488791927
 30
0.0
 11
17.699999999999928
 21
52.400000488791832
 31
0.0
  0
ARC
  5
1B7B
  8
0
  6
CONTINUOUS
 62
     7
 10
12.399999999999929
 20
56.700000488791702
 30
0.0
 40
1.0
 50
90.0
 51
221.40962199999831
  0
ARC
  5
1B7C
  8
0
  6
CONTINUOUS
 62
     7
 10
16.699999999999928
 20
52.400000488791832
 30
0.0
 40
1.0
 50
228.5903780000011
 51
0.0
  0
LINE
  5
1B7D
  8
0
  6
CONTINUOUS
 62
     7
 10
11.899999999999929
 20
55.377124488791829
 30
0.0
 11
11.899999999999929
 21
52.400000488791832
 31
0.0
  0
LINE
  5
1B7E
  8
0
  6
CONTINUOUS
 62
     7
 10
15.37712499999993
 20
51.900000488791832
 30
0.0
 11
12.399999999999929
 21
51.900000488791832
 31
0.0
  0
ARC
  5
1B7F
  8
0
  6
CONTINUOUS
 62
     7
 10
12.399999999999929
 20
52.400000488791832
 30
0.0
 40
0.5
 50
180.0
 51
270.0
  0
ARC
  5
1B80
  8
0
  6
CONTINUOUS
 62
     7
 10
10.899999999999929
 20
55.377124488791829
 30
0.0
 40
1.0
 50
0.0
 51
41.409621999998294
  0
ARC
  5
1B81
  8
0
  6
CONTINUOUS
 62
     7
 10
15.37712499999993
 20
50.900000488791832
 30
0.0
 40
1.0
 50
48.590378000001103
 51
90.0
  0
ARC
  5
1B82
  8
0
  6
CONTINUOUS
 62
     7
 10
-20.0
 20
-19.99999951120817
 30
0.0
 40
6.4000000000000004
 50
26.483875999998592
 51
63.516123999997767
  0
ARC
  5
1B83
  8
0
  6
CONTINUOUS
 62
     7
 10
-16.699999999999999
 20
-13.37655651120822
 30
0.0
 40
1.0
 50
180.0
 51
243.5161239999978
  0
ARC
  5
1B84
  8
0
  6
CONTINUOUS
 62
     7
 10
-13.37655700000005
 20
-16.699999511208219
 30
0.0
 40
1.0
 50
206.48387599999859
 51
270.0
  0
LINE
  5
1B85
  8
0
  6
CONTINUOUS
 62
     7
 10
-13.37655700000005
 20
-17.699999511208219
 30
0.0
 11
-12.39999999999997
 21
-17.699999511208219
 31
0.0
  0
LINE
  5
1B86
  8
0
  6
CONTINUOUS
 62
     7
 10
-17.699999999999989
 20
-13.37655651120822
 30
0.0
 11
-17.699999999999989
 21
-12.39999951120822
 31
0.0
  0
ARC
  5
1B87
  8
0
  6
CONTINUOUS
 62
     7
 10
-12.39999999999997
 20
-16.699999511208219
 30
0.0
 40
1.0
 50
270.0
 51
41.409621999998294
  0
ARC
  5
1B88
  8
0
  6
CONTINUOUS
 62
     7
 10
-16.699999999999999
 20
-12.39999951120822
 30
0.0
 40
1.0
 50
48.590378000001103
 51
180.0
  0
LINE
  5
1B89
  8
0
  6
CONTINUOUS
 62
     7
 10
-11.89999999999997
 20
-15.37712451120821
 30
0.0
 11
-11.89999999999997
 21
-12.39999951120822
 31
0.0
  0
LINE
  5
1B8A
  8
0
  6
CONTINUOUS
 62
     7
 10
-15.377123999999981
 20
-11.899999511208209
 30
0.0
 11
-12.39999999999997
 21
-11.899999511208209
 31
0.0
  0
ARC
  5
1B8B
  8
0
  6
CONTINUOUS
 62
     7
 10
-12.39999999999997
 20
-12.39999951120822
 30
0.0
 40
0.5
 50
0.0
 51
90.0
  0
ARC
  5
1B8C
  8
0
  6
CONTINUOUS
 62
     7
 10
-10.899999999999981
 20
-15.37712451120821
 30
0.0
 40
1.0
 50
180.0
 51
221.40962199999831
  0
ARC
  5
1B8D
  8
0
  6
CONTINUOUS
 62
     7
 10
-15.377123999999981
 20
-10.8999995112082
 30
0.0
 40
1.0
 50
228.5903780000011
 51
270.0
  0
ARC
  5
1B8E
  8
0
  6
CONTINUOUS
 62
     7
 10
59.999999999999943
 20
-19.99999951120817
 30
0.0
 40
6.4000000000000004
 50
116.4838760000022
 51
153.51612400000141
  0
ARC
  5
1B8F
  8
0
  6
CONTINUOUS
 62
     7
 10
53.376556999999927
 20
-16.699999511208219
 30
0.0
 40
1.0
 50
270.0
 51
333.5161240000013
  0
ARC
  5
1B90
  8
0
  6
CONTINUOUS
 62
     7
 10
56.699999999999932
 20
-13.37655651120822
 30
0.0
 40
1.0
 50
296.48387600000223
 51
0.0
  0
ARC
  5
1B91
  8
0
  6
CONTINUOUS
 62
     7
 10
59.999999999999943
 20
20.00000048879183
 30
0.0
 40
6.4000000000000004
 50
206.48387599999859
 51
243.5161239999978
  0
ARC
  5
1B92
  8
0
  6
CONTINUOUS
 62
     7
 10
53.376556999999927
 20
16.700000488791812
 30
0.0
 40
1.0
 50
26.483875999998592
 51
90.0
  0
ARC
  5
1B93
  8
0
  6
CONTINUOUS
 62
     7
 10
56.699999999999932
 20
13.37655648879182
 30
0.0
 40
1.0
 50
0.0
 51
63.516123999997767
  0
LINE
  5
1B94
  8
0
  6
CONTINUOUS
 62
     7
 10
57.699999999999932
 20
13.37655648879182
 30
0.0
 11
57.699999999999932
 21
12.40000048879182
 31
0.0
  0
LINE
  5
1B95
  8
0
  6
CONTINUOUS
 62
     7
 10
53.376556999999927
 20
17.700000488791812
 30
0.0
 11
52.39999999999992
 21
17.700000488791812
 31
0.0
  0
ARC
  5
1B96
  8
0
  6
CONTINUOUS
 62
     7
 10
56.699999999999932
 20
12.40000048879182
 30
0.0
 40
1.0
 50
228.5903780000011
 51
0.0
  0
ARC
  5
1B97
  8
0
  6
CONTINUOUS
 62
     7
 10
52.39999999999992
 20
16.700000488791812
 30
0.0
 40
1.0
 50
90.0
 51
221.40962199999831
  0
LINE
  5
1B98
  8
0
  6
CONTINUOUS
 62
     7
 10
55.377124999999921
 20
11.900000488791809
 30
0.0
 11
52.39999999999992
 21
11.900000488791809
 31
0.0
  0
LINE
  5
1B99
  8
0
  6
CONTINUOUS
 62
     7
 10
51.89999999999992
 20
15.377124488791811
 30
0.0
 11
51.89999999999992
 21
12.40000048879182
 31
0.0
  0
ARC
  5
1B9A
  8
0
  6
CONTINUOUS
 62
     7
 10
52.39999999999992
 20
12.40000048879182
 30
0.0
 40
0.5
 50
180.0
 51
270.0
  0
ARC
  5
1B9B
  8
0
  6
CONTINUOUS
 62
     7
 10
55.377124999999921
 20
10.90000048879182
 30
0.0
 40
1.0
 50
48.590378000001103
 51
90.0
  0
ARC
  5
1B9C
  8
0
  6
CONTINUOUS
 62
     7
 10
50.89999999999992
 20
15.377124488791811
 30
0.0
 40
1.0
 50
0.0
 51
41.409621999998294
  0
LINE
  5
1B9D
  8
0
  6
CONTINUOUS
 62
     7
 10
57.699999999999932
 20
-13.37655651120822
 30
0.0
 11
57.699999999999932
 21
-12.39999951120822
 31
0.0
  0
LINE
  5
1B9E
  8
0
  6
CONTINUOUS
 62
     7
 10
53.376556999999927
 20
-17.699999511208219
 30
0.0
 11
52.39999999999992
 21
-17.699999511208219
 31
0.0
  0
ARC
  5
1B9F
  8
0
  6
CONTINUOUS
 62
     7
 10
56.699999999999932
 20
-12.39999951120822
 30
0.0
 40
1.0
 50
0.0
 51
131.4096219999989
  0
ARC
  5
1BA0
  8
0
  6
CONTINUOUS
 62
     7
 10
52.39999999999992
 20
-16.699999511208219
 30
0.0
 40
1.0
 50
138.59037800000169
 51
270.0
  0
LINE
  5
1BA1
  8
0
  6
CONTINUOUS
 62
     7
 10
55.377124999999921
 20
-11.899999511208209
 30
0.0
 11
52.39999999999992
 21
-11.899999511208209
 31
0.0
  0
LINE
  5
1BA2
  8
0
  6
CONTINUOUS
 62
     7
 10
51.89999999999992
 20
-15.37712451120821
 30
0.0
 11
51.89999999999992
 21
-12.39999951120822
 31
0.0
  0
ARC
  5
1BA3
  8
0
  6
CONTINUOUS
 62
     7
 10
52.39999999999992
 20
-12.39999951120822
 30
0.0
 40
0.5
 50
90.0
 51
180.0
  0
ARC
  5
1BA4
  8
0
  6
CONTINUOUS
 62
     7
 10
55.377124999999921
 20
-10.8999995112082
 30
0.0
 40
1.0
 50
270.0
 51
311.40962199999888
  0
ARC
  5
1BA5
  8
0
  6
CONTINUOUS
 62
     7
 10
50.89999999999992
 20
-15.37712451120821
 30
0.0
 40
1.0
 50
318.59037800000181
 51
0.0
  0
LINE
  5
1BA6
  8
0
  6
CONTINUOUS
 62
     7
 10
-17.699999999999989
 20
12.20000048879181
 30
0.0
 11
-17.699999999999989
 21
27.800000488791721
 31
0.0
  0
LINE
  5
1BA7
  8
0
  6
CONTINUOUS
 62
     7
 10
-14.913943000000019
 20
27.700000488791819
 30
0.0
 11
-10.946446000000041
 21
27.700000488791819
 31
0.0
  0
LINE
  5
1BA8
  8
0
  6
CONTINUOUS
 62
     7
 10
-10.946446000000041
 20
12.300000488791721
 30
0.0
 11
-14.913943000000019
 21
12.300000488791721
 31
0.0
  0
LINE
  5
1BA9
  8
0
  6
CONTINUOUS
 62
     7
 10
17.699999999999928
 20
27.800000488791721
 30
0.0
 11
17.699999999999928
 21
19.52842748879182
 31
0.0
  0
LINE
  5
1BAA
  8
0
  6
CONTINUOUS
 62
     7
 10
14.913943000000019
 20
27.700000488791819
 30
0.0
 11
10.94644700000002
 21
27.700000488791819
 31
0.0
  0
ARC
  5
1BAB
  8
0
  6
CONTINUOUS
 62
     7
 10
-14.913943000000019
 20
11.300000488791721
 30
0.0
 40
1.0
 50
90.0
 51
153.25631599999841
  0
ARC
  5
1BAC
  8
0
  6
CONTINUOUS
 62
     7
 10
-16.699999999999999
 20
12.20000048879181
 30
0.0
 40
1.0
 50
180.0
 51
333.25631599999838
  0
ARC
  5
1BAD
  8
0
  6
CONTINUOUS
 62
     7
 10
-10.946446000000041
 20
11.300000488791721
 30
0.0
 40
1.0
 50
44.999999999999417
 51
90.0
  0
ARC
  5
1BAE
  8
0
  6
CONTINUOUS
 62
     7
 10
-10.946446000000041
 20
28.700000488791819
 30
0.0
 40
1.0
 50
270.0
 51
315.00000000000063
  0
ARC
  5
1BAF
  8
0
  6
CONTINUOUS
 62
     7
 10
-14.913943000000019
 20
28.700000488791819
 30
0.0
 40
1.0
 50
206.74368400000159
 51
270.0
  0
ARC
  5
1BB0
  8
0
  6
CONTINUOUS
 62
     7
 10
-16.699999999999999
 20
27.800000488791721
 30
0.0
 40
1.0
 50
26.74368400000159
 51
180.0
  0
ARC
  5
1BB1
  8
0
  6
CONTINUOUS
 62
     7
 10
10.94644700000002
 20
28.700000488791819
 30
0.0
 40
1.0
 50
224.9999999999994
 51
270.0
  0
ARC
  5
1BB2
  8
0
  6
CONTINUOUS
 62
     7
 10
14.913943000000019
 20
28.700000488791819
 30
0.0
 40
1.0
 50
270.0
 51
333.25631599999838
  0
ARC
  5
1BB3
  8
0
  6
CONTINUOUS
 62
     7
 10
16.699999999999928
 20
27.800000488791721
 30
0.0
 40
1.0
 50
0.0
 51
153.25631599999841
  0
ARC
  5
1BB4
  8
0
  6
CONTINUOUS
 62
     7
 10
16.699999999999928
 20
19.52842748879182
 30
0.0
 40
1.0
 50
315.00000000000063
 51
0.0
  0
LINE
  5
1BB5
  8
0
  6
CONTINUOUS
 62
     7
 10
12.19999999999993
 20
-17.699999511208219
 30
0.0
 11
27.79999999999993
 21
-17.699999511208219
 31
0.0
  0
LINE
  5
1BB6
  8
0
  6
CONTINUOUS
 62
     7
 10
27.699999999999928
 20
-14.913942511208189
 30
0.0
 11
27.699999999999928
 21
-10.946446511208199
 31
0.0
  0
LINE
  5
1BB7
  8
0
  6
CONTINUOUS
 62
     7
 10
12.299999999999921
 20
-10.946446511208199
 30
0.0
 11
12.299999999999921
 21
-14.913942511208189
 31
0.0
  0
LINE
  5
1BB8
  8
0
  6
CONTINUOUS
 62
     7
 10
27.79999999999993
 20
17.700000488791812
 30
0.0
 11
19.528426999999919
 21
17.700000488791812
 31
0.0
  0
LINE
  5
1BB9
  8
0
  6
CONTINUOUS
 62
     7
 10
27.699999999999928
 20
14.91394248879172
 30
0.0
 11
27.699999999999928
 21
10.94644648879181
 31
0.0
  0
ARC
  5
1BBA
  8
0
  6
CONTINUOUS
 62
     7
 10
11.299999999999921
 20
-14.913942511208189
 30
0.0
 40
1.0
 50
296.74368400000162
 51
0.0
  0
ARC
  5
1BBB
  8
0
  6
CONTINUOUS
 62
     7
 10
12.19999999999993
 20
-16.699999511208219
 30
0.0
 40
1.0
 50
116.74368400000149
 51
270.0
  0
ARC
  5
1BBC
  8
0
  6
CONTINUOUS
 62
     7
 10
11.299999999999921
 20
-10.946446511208199
 30
0.0
 40
1.0
 50
0.0
 51
44.999999999999417
  0
ARC
  5
1BBD
  8
0
  6
CONTINUOUS
 62
     7
 10
28.699999999999928
 20
-10.946446511208199
 30
0.0
 40
1.0
 50
135.00000000000051
 51
180.0
  0
ARC
  5
1BBE
  8
0
  6
CONTINUOUS
 62
     7
 10
28.699999999999928
 20
-14.913942511208189
 30
0.0
 40
1.0
 50
180.0
 51
243.25631599999841
  0
ARC
  5
1BBF
  8
0
  6
CONTINUOUS
 62
     7
 10
27.79999999999993
 20
-16.699999511208219
 30
0.0
 40
1.0
 50
270.0
 51
63.256315999998421
  0
ARC
  5
1BC0
  8
0
  6
CONTINUOUS
 62
     7
 10
28.699999999999928
 20
10.94644648879181
 30
0.0
 40
1.0
 50
180.0
 51
224.9999999999994
  0
ARC
  5
1BC1
  8
0
  6
CONTINUOUS
 62
     7
 10
28.699999999999928
 20
14.91394248879172
 30
0.0
 40
1.0
 50
116.74368400000149
 51
180.0
  0
ARC
  5
1BC2
  8
0
  6
CONTINUOUS
 62
     7
 10
27.79999999999993
 20
16.700000488791812
 30
0.0
 40
1.0
 50
296.74368400000162
 51
90.0
  0
ARC
  5
1BC3
  8
0
  6
CONTINUOUS
 62
     7
 10
19.528426999999919
 20
16.700000488791812
 30
0.0
 40
1.0
 50
90.0
 51
135.00000000000051
  0
LINE
  5
1BC4
  8
0
  6
CONTINUOUS
 62
     7
 10
32.499999999999929
 20
5.7322334887917199
 30
0.0
 11
32.499999999999929
 21
-5.732233511208193
 31
0.0
  0
LINE
  5
1BC5
  8
0
  6
CONTINUOUS
 62
     7
 10
27.992892999999931
 20
-10.239339511208181
 30
0.0
 11
32.499999999999929
 21
-5.732233511208193
 31
0.0
  0
LINE
  5
1BC6
  8
0
  6
CONTINUOUS
 62
     7
 10
27.992892999999931
 20
10.23933948879181
 30
0.0
 11
32.499999999999929
 21
5.7322334887917199
 31
0.0
  0
LINE
  5
1BC7
  8
0
  6
CONTINUOUS
 62
     7
 10
7.5
 20
6.0857864887918112
 30
0.0
 11
7.5
 21
-5.732233511208193
 31
0.0
  0
LINE
  5
1BC8
  8
0
  6
CONTINUOUS
 62
     7
 10
12.007107000000021
 20
-10.239339511208181
 30
0.0
 11
7.5
 21
-5.732233511208193
 31
0.0
  0
LINE
  5
1BC9
  8
0
  6
CONTINUOUS
 62
     7
 10
18.821321000000019
 20
17.407106488791811
 30
0.0
 11
7.5
 21
6.0857864887918112
 31
0.0
  0
LINE
  5
1BCA
  8
0
  6
CONTINUOUS
 62
     7
 10
-10.0
 20
51.767766488791821
 30
0.0
 11
-10.0
 21
54.500000488791819
 31
0.0
  0
LINE
  5
1BCB
  8
0
  6
CONTINUOUS
 62
     7
 10
9.9999999999999272
 20
54.500000488791819
 30
0.0
 11
9.9999999999999272
 21
51.767766488791821
 31
0.0
  0
LINE
  5
1BCC
  8
0
  6
CONTINUOUS
 62
     7
 10
5.732233000000007
 20
32.500000488791827
 30
0.0
 11
-5.732233000000007
 21
32.500000488791827
 31
0.0
  0
LINE
  5
1BCD
  8
0
  6
CONTINUOUS
 62
     7
 10
-5.3000000000000114
 20
54.500000488791819
 30
0.0
 11
-10.0
 21
54.500000488791819
 31
0.0
  0
LINE
  5
1BCE
  8
0
  6
CONTINUOUS
 62
     7
 10
5.2999999999999821
 20
54.500000488791819
 30
0.0
 11
9.9999999999999272
 21
54.500000488791819
 31
0.0
  0
LINE
  5
1BCF
  8
0
  6
CONTINUOUS
 62
     7
 10
9.9999999999999272
 20
51.767766488791821
 30
0.0
 11
5.732233000000007
 21
47.500000488791819
 31
0.0
  0
LINE
  5
1BD0
  8
0
  6
CONTINUOUS
 62
     7
 10
-10.239340000000031
 20
27.992893488791811
 30
0.0
 11
-5.732233000000007
 21
32.500000488791827
 31
0.0
  0
LINE
  5
1BD1
  8
0
  6
CONTINUOUS
 62
     7
 10
-5.732233000000007
 20
47.500000488791819
 30
0.0
 11
-10.0
 21
51.767766488791821
 31
0.0
  0
LINE
  5
1BD2
  8
0
  6
CONTINUOUS
 62
     7
 10
-11.76776699999999
 20
50.000000488791827
 30
0.0
 11
-7.5
 21
45.732233488791692
 31
0.0
  0
LINE
  5
1BD3
  8
0
  6
CONTINUOUS
 62
     7
 10
11.76776699999993
 20
30.00000048879183
 30
0.0
 11
7.5
 21
34.267766488791821
 31
0.0
  0
LINE
  5
1BD4
  8
0
  6
CONTINUOUS
 62
     7
 10
-7.5
 20
34.267766488791821
 30
0.0
 11
-11.76776699999999
 21
30.00000048879183
 31
0.0
  0
LINE
  5
1BD5
  8
0
  6
CONTINUOUS
 62
     7
 10
-14.5
 20
50.000000488791827
 30
0.0
 11
-11.76776699999999
 21
50.000000488791827
 31
0.0
  0
LINE
  5
1BD6
  8
0
  6
CONTINUOUS
 62
     7
 10
-11.76776699999999
 20
30.00000048879183
 30
0.0
 11
-14.5
 21
30.00000048879183
 31
0.0
  0
LINE
  5
1BD7
  8
0
  6
CONTINUOUS
 62
     7
 10
-14.5
 20
45.300000488791689
 30
0.0
 11
-14.5
 21
50.000000488791827
 31
0.0
  0
LINE
  5
1BD8
  8
0
  6
CONTINUOUS
 62
     7
 10
-14.5
 20
34.700000488791702
 30
0.0
 11
-14.5
 21
30.00000048879183
 31
0.0
  0
LINE
  5
1BD9
  8
0
  6
CONTINUOUS
 62
     7
 10
14.499999999999931
 20
30.00000048879183
 30
0.0
 11
11.76776699999993
 21
30.00000048879183
 31
0.0
  0
LINE
  5
1BDA
  8
0
  6
CONTINUOUS
 62
     7
 10
10.239339999999929
 20
27.992893488791811
 30
0.0
 11
5.732233000000007
 21
32.500000488791827
 31
0.0
  0
LINE
  5
1BDB
  8
0
  6
CONTINUOUS
 62
     7
 10
11.76776699999993
 20
50.000000488791827
 30
0.0
 11
14.499999999999931
 21
50.000000488791827
 31
0.0
  0
LINE
  5
1BDC
  8
0
  6
CONTINUOUS
 62
     7
 10
7.5
 20
45.732233488791692
 30
0.0
 11
11.76776699999993
 21
50.000000488791827
 31
0.0
  0
LINE
  5
1BDD
  8
0
  6
CONTINUOUS
 62
     7
 10
14.499999999999931
 20
34.700000488791702
 30
0.0
 11
14.499999999999931
 21
30.00000048879183
 31
0.0
  0
LINE
  5
1BDE
  8
0
  6
CONTINUOUS
 62
     7
 10
14.499999999999931
 20
45.300000488791689
 30
0.0
 11
14.499999999999931
 21
50.000000488791827
 31
0.0
  0
LINE
  5
1BDF
  8
0
  6
CONTINUOUS
 62
     7
 10
6.0857869999999821
 20
7.5000004887918124
 30
0.0
 11
-5.732233000000007
 21
7.5000004887918124
 31
0.0
  0
LINE
  5
1BE0
  8
0
  6
CONTINUOUS
 62
     7
 10
-10.239340000000031
 20
12.00710648879182
 30
0.0
 11
-5.732233000000007
 21
7.5000004887918124
 31
0.0
  0
LINE
  5
1BE1
  8
0
  6
CONTINUOUS
 62
     7
 10
-7.5
 20
-5.732233511208193
 30
0.0
 11
-11.76776699999999
 21
-9.9999995112081876
 31
0.0
  0
LINE
  5
1BE2
  8
0
  6
CONTINUOUS
 62
     7
 10
-7.5
 20
5.7322334887917199
 30
0.0
 11
-11.76776699999999
 21
10.000000488791811
 31
0.0
  0
LINE
  5
1BE3
  8
0
  6
CONTINUOUS
 62
     7
 10
-14.5
 20
-9.9999995112081876
 30
0.0
 11
-11.76776699999999
 21
-9.9999995112081876
 31
0.0
  0
LINE
  5
1BE4
  8
0
  6
CONTINUOUS
 62
     7
 10
-11.76776699999999
 20
10.000000488791811
 30
0.0
 11
-14.5
 21
10.000000488791811
 31
0.0
  0
LINE
  5
1BE5
  8
0
  6
CONTINUOUS
 62
     7
 10
-14.5
 20
-5.2999995112081839
 30
0.0
 11
-14.5
 21
-9.9999995112081876
 31
0.0
  0
LINE
  5
1BE6
  8
0
  6
CONTINUOUS
 62
     7
 10
-14.5
 20
5.3000004887917243
 30
0.0
 11
-14.5
 21
10.000000488791811
 31
0.0
  0
LINE
  5
1BE7
  8
0
  6
CONTINUOUS
 62
     7
 10
51.767766999999942
 20
-9.9999995112081876
 30
0.0
 11
54.500000000000021
 21
-9.9999995112081876
 31
0.0
  0
LINE
  5
1BE8
  8
0
  6
CONTINUOUS
 62
     7
 10
54.500000000000021
 20
10.000000488791811
 30
0.0
 11
51.767766999999942
 21
10.000000488791811
 31
0.0
  0
LINE
  5
1BE9
  8
0
  6
CONTINUOUS
 62
     7
 10
54.500000000000021
 20
-5.2999995112081839
 30
0.0
 11
54.500000000000021
 21
-9.9999995112081876
 31
0.0
  0
LINE
  5
1BEA
  8
0
  6
CONTINUOUS
 62
     7
 10
54.500000000000021
 20
5.3000004887917243
 30
0.0
 11
54.500000000000021
 21
10.000000488791811
 31
0.0
  0
LINE
  5
1BEB
  8
0
  6
CONTINUOUS
 62
     7
 10
51.767766999999942
 20
10.000000488791811
 30
0.0
 11
47.499999999999943
 21
5.7322334887917199
 31
0.0
  0
LINE
  5
1BEC
  8
0
  6
CONTINUOUS
 62
     7
 10
47.499999999999943
 20
-5.732233511208193
 30
0.0
 11
51.767766999999942
 21
-9.9999995112081876
 31
0.0
  0
LINE
  5
1BED
  8
0
  6
CONTINUOUS
 62
     7
 10
49.999999999999943
 20
-11.767766511208221
 30
0.0
 11
45.732232999999923
 21
-7.4999995112081868
 31
0.0
  0
LINE
  5
1BEE
  8
0
  6
CONTINUOUS
 62
     7
 10
29.999999999999929
 20
11.7677664887918
 30
0.0
 11
34.267766999999942
 21
7.5000004887918124
 31
0.0
  0
LINE
  5
1BEF
  8
0
  6
CONTINUOUS
 62
     7
 10
34.267766999999942
 20
-7.4999995112081868
 30
0.0
 11
29.999999999999929
 21
-11.767766511208221
 31
0.0
  0
LINE
  5
1BF0
  8
0
  6
CONTINUOUS
 62
     7
 10
49.999999999999943
 20
-14.49999951120817
 30
0.0
 11
49.999999999999943
 21
-11.767766511208221
 31
0.0
  0
LINE
  5
1BF1
  8
0
  6
CONTINUOUS
 62
     7
 10
29.999999999999929
 20
-11.767766511208221
 30
0.0
 11
29.999999999999929
 21
-14.49999951120817
 31
0.0
  0
LINE
  5
1BF2
  8
0
  6
CONTINUOUS
 62
     7
 10
45.299999999999933
 20
-14.49999951120817
 30
0.0
 11
49.999999999999943
 21
-14.49999951120817
 31
0.0
  0
LINE
  5
1BF3
  8
0
  6
CONTINUOUS
 62
     7
 10
34.699999999999932
 20
-14.49999951120817
 30
0.0
 11
29.999999999999929
 21
-14.49999951120817
 31
0.0
  0
LINE
  5
1BF4
  8
0
  6
CONTINUOUS
 62
     7
 10
29.999999999999929
 20
14.500000488791811
 30
0.0
 11
29.999999999999929
 21
11.7677664887918
 31
0.0
  0
LINE
  5
1BF5
  8
0
  6
CONTINUOUS
 62
     7
 10
49.999999999999943
 20
11.7677664887918
 30
0.0
 11
49.999999999999943
 21
14.500000488791811
 31
0.0
  0
LINE
  5
1BF6
  8
0
  6
CONTINUOUS
 62
     7
 10
45.732232999999923
 20
7.5000004887918124
 30
0.0
 11
49.999999999999943
 21
11.7677664887918
 31
0.0
  0
LINE
  5
1BF7
  8
0
  6
CONTINUOUS
 62
     7
 10
34.699999999999932
 20
14.500000488791811
 30
0.0
 11
29.999999999999929
 21
14.500000488791811
 31
0.0
  0
LINE
  5
1BF8
  8
0
  6
CONTINUOUS
 62
     7
 10
45.299999999999933
 20
14.500000488791811
 30
0.0
 11
49.999999999999943
 21
14.500000488791811
 31
0.0
  0
LINE
  5
1BF9
  8
0
  6
CONTINUOUS
 62
     7
 10
-5.732233000000007
 20
-7.4999995112081868
 30
0.0
 11
-10.0
 21
-11.767766511208221
 31
0.0
  0
LINE
  5
1BFA
  8
0
  6
CONTINUOUS
 62
     7
 10
5.732233000000007
 20
-7.4999995112081868
 30
0.0
 11
9.9999999999999272
 21
-11.767766511208221
 31
0.0
  0
LINE
  5
1BFB
  8
0
  6
CONTINUOUS
 62
     7
 10
-10.0
 20
-14.49999951120817
 30
0.0
 11
-10.0
 21
-11.767766511208221
 31
0.0
  0
LINE
  5
1BFC
  8
0
  6
CONTINUOUS
 62
     7
 10
9.9999999999999272
 20
-11.767766511208221
 30
0.0
 11
9.9999999999999272
 21
-14.49999951120817
 31
0.0
  0
LINE
  5
1BFD
  8
0
  6
CONTINUOUS
 62
     7
 10
-5.3000000000000114
 20
-14.49999951120817
 30
0.0
 11
-10.0
 21
-14.49999951120817
 31
0.0
  0
LINE
  5
1BFE
  8
0
  6
CONTINUOUS
 62
     7
 10
5.2999999999999821
 20
-14.49999951120817
 30
0.0
 11
9.9999999999999272
 21
-14.49999951120817
 31
0.0
  0
LINE
  5
1BFF
  8
0
  6
CONTINUOUS
 62
     7
 10
17.407106999999922
 20
18.821320488791809
 30
0.0
 11
6.0857869999999821
 21
7.5000004887918124
 31
0.0
  0
LINE
  5
1C00
  8
0
  6
CONTINUOUS
 62
     7
 10
34.699999999999932
 20
20.00000048879183
 30
0.0
 11
20.29999999999993
 21
20.00000048879183
 31
0.0
  0
LINE
  5
1C01
  8
0
  6
CONTINUOUS
 62
     7
 10
45.299999999999933
 20
-19.99999951120817
 30
0.0
 11
56.999999999999943
 21
-19.99999951120817
 31
0.0
  0
LINE
  5
1C02
  8
0
  6
CONTINUOUS
 62
     7
 10
-20.0
 20
-5.2999995112081839
 30
0.0
 11
-20.0
 21
-16.99999951120817
 31
0.0
  0
LINE
  5
1C03
  8
0
  6
CONTINUOUS
 62
     7
 10
19.999999999999929
 20
45.300000488791689
 30
0.0
 11
19.999999999999929
 21
57.000000488791819
 31
0.0
  0
LINE
  5
1C04
  8
0
  6
CONTINUOUS
 62
     7
 10
-5.3000000000000114
 20
60.000000488791827
 30
0.0
 11
-17.0
 21
60.000000488791827
 31
0.0
  0
LINE
  5
1C05
  8
0
  6
CONTINUOUS
 62
     7
 10
59.999999999999943
 20
5.3000004887917243
 30
0.0
 11
59.999999999999943
 21
17.000000488791809
 31
0.0
  0
ARC
  5
1C06
  8
0
  6
CONTINUOUS
 62
     7
 10
-17.0
 20
-16.99999951120817
 30
0.0
 40
3.0
 50
180.0
 51
270.0
  0
ARC
  5
1C07
  8
0
  6
CONTINUOUS
 62
     7
 10
-17.0
 20
57.000000488791819
 30
0.0
 40
3.0
 50
90.0
 51
180.0
  0
ARC
  5
1C08
  8
0
  6
CONTINUOUS
 62
     7
 10
17.000000000000028
 20
57.000000488791819
 30
0.0
 40
3.0
 50
0.0
 51
90.0
  0
ARC
  5
1C09
  8
0
  6
CONTINUOUS
 62
     7
 10
56.999999999999943
 20
17.000000488791809
 30
0.0
 40
3.0
 50
0.0
 51
90.0
  0
ARC
  5
1C0A
  8
0
  6
CONTINUOUS
 62
     7
 10
56.999999999999943
 20
-16.99999951120817
 30
0.0
 40
3.0
 50
270.0
 51
0.0
  0
LINE
  5
1C0B
  8
0
  6
CONTINUOUS
 62
     7
 10
34.699999999999932
 20
-19.99999951120817
 30
0.0
 11
5.2999999999999821
 21
-19.99999951120817
 31
0.0
  0
LINE
  5
1C0C
  8
0
  6
CONTINUOUS
 62
     7
 10
-5.3000000000000114
 20
-19.99999951120817
 30
0.0
 11
-17.0
 21
-19.99999951120817
 31
0.0
  0
LINE
  5
1C0D
  8
0
  6
CONTINUOUS
 62
     7
 10
-20.0
 20
5.3000004887917243
 30
0.0
 11
-20.0
 21
34.700000488791702
 31
0.0
  0
LINE
  5
1C0E
  8
0
  6
CONTINUOUS
 62
     7
 10
-20.0
 20
45.300000488791689
 30
0.0
 11
-20.0
 21
57.000000488791819
 31
0.0
  0
LINE
  5
1C0F
  8
0
  6
CONTINUOUS
 62
     7
 10
5.2999999999999821
 20
60.000000488791827
 30
0.0
 11
17.000000000000028
 21
60.000000488791827
 31
0.0
  0
LINE
  5
1C10
  8
0
  6
CONTINUOUS
 62
     7
 10
19.999999999999929
 20
34.700000488791702
 30
0.0
 11
19.999999999999929
 21
20.300000488791721
 31
0.0
  0
LINE
  5
1C11
  8
0
  6
CONTINUOUS
 62
     7
 10
45.299999999999933
 20
20.00000048879183
 30
0.0
 11
56.999999999999943
 21
20.00000048879183
 31
0.0
  0
LINE
  5
1C12
  8
0
  6
CONTINUOUS
 62
     7
 10
59.999999999999943
 20
-5.2999995112081839
 30
0.0
 11
59.999999999999943
 21
-16.99999951120817
 31
0.0
  0
ARC
  5
1C13
  8
0
  6
CONTINUOUS
 62
     7
 10
20.29999999999993
 20
20.300000488791721
 30
0.0
 40
0.3
 50
180.0
 51
270.0
  0
LINE
  5
1C14
  8
0
  6
CONTINUOUS
 62
     7
 10
3.4815469999999911
 20
46.100000488791807
 30
0.0
 11
5.5999999999999801
 21
46.100000488791807
 31
0.0
  0
LINE
  5
1C15
  8
0
  6
CONTINUOUS
 62
     7
 10
6.0999999999999801
 20
43.481546488791828
 30
0.0
 11
6.0999999999999801
 21
45.600000488791821
 31
0.0
  0
LINE
  5
1C16
  8
0
  6
CONTINUOUS
 62
     7
 10
6.0999999999999801
 20
36.51845348879182
 30
0.0
 11
6.0999999999999801
 21
34.400000488791832
 31
0.0
  0
LINE
  5
1C17
  8
0
  6
CONTINUOUS
 62
     7
 10
3.4815469999999911
 20
33.900000488791832
 30
0.0
 11
5.5999999999999801
 21
33.900000488791832
 31
0.0
  0
LINE
  5
1C18
  8
0
  6
CONTINUOUS
 62
     7
 10
-3.4815470000000199
 20
33.900000488791832
 30
0.0
 11
-5.6000000000000076
 21
33.900000488791832
 31
0.0
  0
LINE
  5
1C19
  8
0
  6
CONTINUOUS
 62
     7
 10
-6.1000000000000218
 20
36.51845348879182
 30
0.0
 11
-6.1000000000000218
 21
34.400000488791832
 31
0.0
  0
ARC
  5
1C1A
  8
0
  6
CONTINUOUS
 62
     7
 10
-5.6000000000000076
 20
34.400000488791832
 30
0.0
 40
0.5
 50
180.0
 51
270.0
  0
ARC
  5
1C1B
  8
0
  6
CONTINUOUS
 62
     7
 10
5.5999999999999801
 20
45.600000488791821
 30
0.0
 40
0.5
 50
0.0
 51
90.0
  0
ARC
  5
1C1C
  8
0
  6
CONTINUOUS
 62
     7
 10
5.5999999999999801
 20
34.400000488791832
 30
0.0
 40
0.5
 50
270.0
 51
0.0
  0
LINE
  5
1C1D
  8
0
  6
CONTINUOUS
 62
     7
 10
-3.4815470000000199
 20
46.100000488791807
 30
0.0
 11
-5.6000000000000076
 21
46.100000488791807
 31
0.0
  0
LINE
  5
1C1E
  8
0
  6
CONTINUOUS
 62
     7
 10
-6.1000000000000218
 20
43.481546488791828
 30
0.0
 11
-6.1000000000000218
 21
45.600000488791821
 31
0.0
  0
ARC
  5
1C1F
  8
0
  6
CONTINUOUS
 62
     7
 10
-5.6000000000000076
 20
45.600000488791821
 30
0.0
 40
0.5
 50
90.0
 51
180.0
  0
ARC
  5
1C20
  8
0
  6
CONTINUOUS
 62
     7
 10
-7.0
 20
40.65358948879183
 30
0.0
 40
0.5
 50
180.0
 51
210.00000000000011
  0
LINE
  5
1C21
  8
0
  6
CONTINUOUS
 62
     7
 10
-7.5
 20
45.732233488791692
 30
0.0
 11
-7.5
 21
40.65358948879183
 31
0.0
  0
LINE
  5
1C22
  8
0
  6
CONTINUOUS
 62
     7
 10
-7.4330120000000193
 20
40.40358948879183
 30
0.0
 11
-7.2000000000000446
 21
40.000000488791819
 31
0.0
  0
LINE
  5
1C23
  8
0
  6
CONTINUOUS
 62
     7
 10
-7.5
 20
34.267767488791698
 30
0.0
 11
-7.5
 21
36.500000488791827
 31
0.0
  0
ARC
  5
1C24
  8
0
  6
CONTINUOUS
 62
     7
 10
0.6535900000000084
 20
47.000000488791819
 30
0.0
 40
0.5
 50
90.0
 51
120.0000000000001
  0
LINE
  5
1C25
  8
0
  6
CONTINUOUS
 62
     7
 10
5.732233000000007
 20
47.500000488791819
 30
0.0
 11
0.6535900000000084
 21
47.500000488791819
 31
0.0
  0
LINE
  5
1C26
  8
0
  6
CONTINUOUS
 62
     7
 10
0.4035900000000084
 20
47.433012488791697
 30
0.0
 11
0.0
 21
47.200000488791702
 31
0.0
  0
LINE
  5
1C27
  8
0
  6
CONTINUOUS
 62
     7
 10
-5.732233000000007
 20
47.500000488791819
 30
0.0
 11
-3.5000000000000142
 21
47.500000488791819
 31
0.0
  0
ARC
  5
1C28
  8
0
  6
CONTINUOUS
 62
     7
 10
7.0
 20
39.346410488791847
 30
0.0
 40
0.5
 50
0.0
 51
30.000000000000139
  0
LINE
  5
1C29
  8
0
  6
CONTINUOUS
 62
     7
 10
7.5
 20
34.267767488791698
 30
0.0
 11
7.5
 21
39.346410488791847
 31
0.0
  0
LINE
  5
1C2A
  8
0
  6
CONTINUOUS
 62
     7
 10
7.4330129999999883
 20
39.596410488791847
 30
0.0
 11
7.1999999999999877
 21
40.000000488791819
 31
0.0
  0
LINE
  5
1C2B
  8
0
  6
CONTINUOUS
 62
     7
 10
7.5
 20
45.732233488791692
 30
0.0
 11
7.5
 21
43.500000488791827
 31
0.0
  0
LINE
  5
1C2C
  8
0
  6
CONTINUOUS
 62
     7
 10
-7.5
 20
5.7322334887917199
 30
0.0
 11
-7.5
 21
0.653589488791809
 31
0.0
  0
LINE
  5
1C2D
  8
0
  6
CONTINUOUS
 62
     7
 10
-7.5
 20
-5.7322325112082799
 30
0.0
 11
-7.5
 21
-3.4999995112081872
 31
0.0
  0
LINE
  5
1C2E
  8
0
  6
CONTINUOUS
 62
     7
 10
45.732232999999923
 20
-7.4999995112081868
 30
0.0
 11
43.499999999999943
 21
-7.4999995112081868
 31
0.0
  0
LINE
  5
1C2F
  8
0
  6
CONTINUOUS
 62
     7
 10
34.267766999999942
 20
-7.4999995112081868
 30
0.0
 11
39.346409999999942
 21
-7.4999995112081868
 31
0.0
  0
LINE
  5
1C30
  8
0
  6
CONTINUOUS
 62
     7
 10
47.499999999999943
 20
5.7322334887917199
 30
0.0
 11
47.499999999999943
 21
3.5000004887918119
 31
0.0
  0
LINE
  5
1C31
  8
0
  6
CONTINUOUS
 62
     7
 10
47.499999999999943
 20
-5.7322325112082799
 30
0.0
 11
47.499999999999943
 21
-0.6535895112081818
 31
0.0
  0
LINE
  5
1C32
  8
0
  6
CONTINUOUS
 62
     7
 10
34.267766999999942
 20
7.5000004887918124
 30
0.0
 11
36.49999999999995
 21
7.5000004887918124
 31
0.0
  0
LINE
  5
1C33
  8
0
  6
CONTINUOUS
 62
     7
 10
45.732232999999923
 20
7.5000004887918124
 30
0.0
 11
40.65359000000003
 21
7.5000004887918124
 31
0.0
  0
LINE
  5
1C34
  8
0
  6
CONTINUOUS
 62
     7
 10
5.732233000000007
 20
-7.4999995112081868
 30
0.0
 11
3.5
 21
-7.4999995112081868
 31
0.0
  0
LINE
  5
1C35
  8
0
  6
CONTINUOUS
 62
     7
 10
-5.732233000000007
 20
-7.4999995112081868
 30
0.0
 11
-0.6535900000000084
 21
-7.4999995112081868
 31
0.0
  0
LINE
  5
1C36
  8
0
  6
CONTINUOUS
 62
     7
 10
19.699999999999928
 20
45.000000488791819
 30
0.0
 11
14.799999999999921
 21
45.000000488791819
 31
0.0
  0
LINE
  5
1C37
  8
0
  6
CONTINUOUS
 62
     7
 10
14.799999999999921
 20
35.000000488791827
 30
0.0
 11
19.699999999999928
 21
35.000000488791827
 31
0.0
  0
LINE
  5
1C38
  8
0
  6
CONTINUOUS
 62
     7
 10
-5.0000000000000142
 20
-19.699999511208219
 30
0.0
 11
-5.0000000000000142
 21
-14.799999511208179
 31
0.0
  0
LINE
  5
1C39
  8
0
  6
CONTINUOUS
 62
     7
 10
5.0
 20
-14.799999511208179
 30
0.0
 11
5.0
 21
-19.699999511208219
 31
0.0
  0
LINE
  5
1C3A
  8
0
  6
CONTINUOUS
 62
     7
 10
59.699999999999932
 20
5.0000004887918124
 30
0.0
 11
54.799999999999933
 21
5.0000004887918124
 31
0.0
  0
LINE
  5
1C3B
  8
0
  6
CONTINUOUS
 62
     7
 10
-14.80000000000002
 20
-4.9999995112081868
 30
0.0
 11
-19.699999999999989
 21
-4.9999995112081868
 31
0.0
  0
LINE
  5
1C3C
  8
0
  6
CONTINUOUS
 62
     7
 10
34.999999999999929
 20
-19.699999511208219
 30
0.0
 11
34.999999999999929
 21
-14.799999511208179
 31
0.0
  0
LINE
  5
1C3D
  8
0
  6
CONTINUOUS
 62
     7
 10
44.999999999999943
 20
-14.799999511208179
 30
0.0
 11
44.999999999999943
 21
-19.699999511208219
 31
0.0
  0
ARC
  5
1C3E
  8
0
  6
CONTINUOUS
 62
     7
 10
-19.699999999999989
 20
-5.2999995112081839
 30
0.0
 40
0.3
 50
90.0
 51
180.0
  0
ARC
  5
1C3F
  8
0
  6
CONTINUOUS
 62
     7
 10
-14.80000000000002
 20
-5.2999995112081839
 30
0.0
 40
0.3
 50
0.0
 51
90.0
  0
LINE
  5
1C40
  8
0
  6
CONTINUOUS
 62
     7
 10
54.799999999999933
 20
-4.9999995112081868
 30
0.0
 11
59.699999999999932
 21
-4.9999995112081868
 31
0.0
  0
ARC
  5
1C41
  8
0
  6
CONTINUOUS
 62
     7
 10
-5.3000000000000114
 20
-14.799999511208179
 30
0.0
 40
0.3
 50
0.0
 51
90.0
  0
LINE
  5
1C42
  8
0
  6
CONTINUOUS
 62
     7
 10
-5.0000000000000142
 20
59.700000488791702
 30
0.0
 11
-5.0000000000000142
 21
54.800000488791689
 31
0.0
  0
ARC
  5
1C43
  8
0
  6
CONTINUOUS
 62
     7
 10
-5.3000000000000114
 20
-19.699999511208219
 30
0.0
 40
0.3
 50
270.0
 51
0.0
  0
ARC
  5
1C44
  8
0
  6
CONTINUOUS
 62
     7
 10
5.2999999999999821
 20
-19.699999511208219
 30
0.0
 40
0.3
 50
180.0
 51
270.0
  0
ARC
  5
1C45
  8
0
  6
CONTINUOUS
 62
     7
 10
5.2999999999999821
 20
-14.799999511208179
 30
0.0
 40
0.3
 50
90.0
 51
180.0
  0
LINE
  5
1C46
  8
0
  6
CONTINUOUS
 62
     7
 10
5.0
 20
54.800000488791689
 30
0.0
 11
5.0
 21
59.700000488791702
 31
0.0
  0
ARC
  5
1C47
  8
0
  6
CONTINUOUS
 62
     7
 10
34.699999999999932
 20
-14.799999511208179
 30
0.0
 40
0.3
 50
0.0
 51
90.0
  0
LINE
  5
1C48
  8
0
  6
CONTINUOUS
 62
     7
 10
34.999999999999929
 20
19.700000488791812
 30
0.0
 11
34.999999999999929
 21
14.80000048879181
 31
0.0
  0
ARC
  5
1C49
  8
0
  6
CONTINUOUS
 62
     7
 10
34.699999999999932
 20
-19.699999511208219
 30
0.0
 40
0.3
 50
270.0
 51
0.0
  0
ARC
  5
1C4A
  8
0
  6
CONTINUOUS
 62
     7
 10
45.299999999999933
 20
-19.699999511208219
 30
0.0
 40
0.3
 50
180.0
 51
270.0
  0
ARC
  5
1C4B
  8
0
  6
CONTINUOUS
 62
     7
 10
45.299999999999933
 20
-14.799999511208179
 30
0.0
 40
0.3
 50
90.0
 51
180.0
  0
LINE
  5
1C4C
  8
0
  6
CONTINUOUS
 62
     7
 10
44.999999999999943
 20
14.80000048879181
 30
0.0
 11
44.999999999999943
 21
19.700000488791812
 31
0.0
  0
ARC
  5
1C4D
  8
0
  6
CONTINUOUS
 62
     7
 10
59.699999999999932
 20
-5.2999995112081839
 30
0.0
 40
0.3
 50
0.0
 51
90.0
  0
ARC
  5
1C4E
  8
0
  6
CONTINUOUS
 62
     7
 10
54.799999999999933
 20
-5.2999995112081839
 30
0.0
 40
0.3
 50
90.0
 51
180.0
  0
ARC
  5
1C4F
  8
0
  6
CONTINUOUS
 62
     7
 10
54.799999999999933
 20
5.3000004887917243
 30
0.0
 40
0.3
 50
180.0
 51
270.0
  0
LINE
  5
1C50
  8
0
  6
CONTINUOUS
 62
     7
 10
-19.699999999999989
 20
5.0000004887918124
 30
0.0
 11
-14.80000000000002
 21
5.0000004887918124
 31
0.0
  0
ARC
  5
1C51
  8
0
  6
CONTINUOUS
 62
     7
 10
59.699999999999932
 20
5.3000004887917243
 30
0.0
 40
0.3
 50
270.0
 51
0.0
  0
ARC
  5
1C52
  8
0
  6
CONTINUOUS
 62
     7
 10
45.299999999999933
 20
19.700000488791812
 30
0.0
 40
0.3
 50
90.0
 51
180.0
  0
ARC
  5
1C53
  8
0
  6
CONTINUOUS
 62
     7
 10
45.299999999999933
 20
14.80000048879181
 30
0.0
 40
0.3
 50
180.0
 51
270.0
  0
ARC
  5
1C54
  8
0
  6
CONTINUOUS
 62
     7
 10
34.699999999999932
 20
14.80000048879181
 30
0.0
 40
0.3
 50
270.0
 51
0.0
  0
ARC
  5
1C55
  8
0
  6
CONTINUOUS
 62
     7
 10
34.699999999999932
 20
19.700000488791812
 30
0.0
 40
0.3
 50
0.0
 51
90.0
  0
ARC
  5
1C56
  8
0
  6
CONTINUOUS
 62
     7
 10
19.699999999999928
 20
34.700000488791702
 30
0.0
 40
0.3
 50
0.0
 51
90.0
  0
ARC
  5
1C57
  8
0
  6
CONTINUOUS
 62
     7
 10
14.799999999999921
 20
34.700000488791702
 30
0.0
 40
0.3
 50
90.0
 51
180.0
  0
LINE
  5
1C58
  8
0
  6
CONTINUOUS
 62
     7
 10
-14.80000000000002
 20
35.000000488791827
 30
0.0
 11
-19.699999999999989
 21
35.000000488791827
 31
0.0
  0
ARC
  5
1C59
  8
0
  6
CONTINUOUS
 62
     7
 10
14.799999999999921
 20
45.300000488791689
 30
0.0
 40
0.3
 50
180.0
 51
270.0
  0
LINE
  5
1C5A
  8
0
  6
CONTINUOUS
 62
     7
 10
-19.699999999999989
 20
45.000000488791819
 30
0.0
 11
-14.80000000000002
 21
45.000000488791819
 31
0.0
  0
ARC
  5
1C5B
  8
0
  6
CONTINUOUS
 62
     7
 10
19.699999999999928
 20
45.300000488791689
 30
0.0
 40
0.3
 50
270.0
 51
0.0
  0
ARC
  5
1C5C
  8
0
  6
CONTINUOUS
 62
     7
 10
5.2999999999999821
 20
59.700000488791702
 30
0.0
 40
0.3
 50
90.0
 51
180.0
  0
ARC
  5
1C5D
  8
0
  6
CONTINUOUS
 62
     7
 10
5.2999999999999821
 20
54.800000488791689
 30
0.0
 40
0.3
 50
180.0
 51
270.0
  0
ARC
  5
1C5E
  8
0
  6
CONTINUOUS
 62
     7
 10
-5.3000000000000114
 20
54.800000488791689
 30
0.0
 40
0.3
 50
270.0
 51
0.0
  0
ARC
  5
1C5F
  8
0
  6
CONTINUOUS
 62
     7
 10
-5.3000000000000114
 20
59.700000488791702
 30
0.0
 40
0.3
 50
0.0
 51
90.0
  0
ARC
  5
1C60
  8
0
  6
CONTINUOUS
 62
     7
 10
-14.80000000000002
 20
45.300000488791689
 30
0.0
 40
0.3
 50
270.0
 51
0.0
  0
ARC
  5
1C61
  8
0
  6
CONTINUOUS
 62
     7
 10
-19.699999999999989
 20
45.300000488791689
 30
0.0
 40
0.3
 50
180.0
 51
270.0
  0
ARC
  5
1C62
  8
0
  6
CONTINUOUS
 62
     7
 10
-19.699999999999989
 20
34.700000488791702
 30
0.0
 40
0.3
 50
90.0
 51
180.0
  0
ARC
  5
1C63
  8
0
  6
CONTINUOUS
 62
     7
 10
-14.80000000000002
 20
34.700000488791702
 30
0.0
 40
0.3
 50
0.0
 51
90.0
  0
ARC
  5
1C64
  8
0
  6
CONTINUOUS
 62
     7
 10
-14.80000000000002
 20
5.3000004887917243
 30
0.0
 40
0.3
 50
270.0
 51
0.0
  0
ARC
  5
1C65
  8
0
  6
CONTINUOUS
 62
     7
 10
-19.699999999999989
 20
5.3000004887917243
 30
0.0
 40
0.3
 50
180.0
 51
270.0
  0
LINE
  5
1C66
  8
0
  6
CONTINUOUS
 62
     7
 10
-13.37655700000005
 20
57.700000488791702
 30
0.0
 11
-12.39999999999997
 21
57.700000488791702
 31
0.0
  0
LINE
  5
1C67
  8
0
  6
CONTINUOUS
 62
     7
 10
-17.699999999999989
 20
53.376556488791927
 30
0.0
 11
-17.699999999999989
 21
52.400000488791832
 31
0.0
  0
ARC
  5
1C68
  8
0
  6
CONTINUOUS
 62
     7
 10
-12.39999999999997
 20
56.700000488791702
 30
0.0
 40
1.0
 50
318.59037800000181
 51
90.0
  0
ARC
  5
1C69
  8
0
  6
CONTINUOUS
 62
     7
 10
-16.699999999999999
 20
52.400000488791832
 30
0.0
 40
1.0
 50
180.0
 51
311.40962199999888
  0
LINE
  5
1C6A
  8
0
  6
CONTINUOUS
 62
     7
 10
-11.89999999999997
 20
55.377124488791829
 30
0.0
 11
-11.89999999999997
 21
52.400000488791832
 31
0.0
  0
LINE
  5
1C6B
  8
0
  6
CONTINUOUS
 62
     7
 10
-15.377123999999981
 20
51.900000488791832
 30
0.0
 11
-12.39999999999997
 21
51.900000488791832
 31
0.0
  0
ARC
  5
1C6C
  8
0
  6
CONTINUOUS
 62
     7
 10
-12.39999999999997
 20
52.400000488791832
 30
0.0
 40
0.5
 50
270.0
 51
0.0
  0
ARC
  5
1C6D
  8
0
  6
CONTINUOUS
 62
     7
 10
-10.899999999999981
 20
55.377124488791829
 30
0.0
 40
1.0
 50
138.59037800000169
 51
180.0
  0
ARC
  5
1C6E
  8
0
  6
CONTINUOUS
 62
     7
 10
-15.377123999999981
 20
50.900000488791832
 30
0.0
 40
1.0
 50
90.0
 51
131.4096219999989
  0
LINE
  5
1CD3
  8
0
  6
CONTINUOUS
 62
     7
 10
0.0
 20
47.200000488791702
 30
0.0
 11
-0.4035899999999942
 21
47.433012488791697
 31
0.0
  0
LINE
  5
1CD4
  8
0
  6
CONTINUOUS
 62
     7
 10
-1.752413000000018
 20
47.223209488791817
 30
0.0
 11
-3.488340069587295
 21
47.498153734496341
 31
0.0
  0
ARC
  5
1CD5
  8
0
  6
CONTINUOUS
 62
     7
 10
-3.5118052733407121
 20
47.350000488791807
 30
0.0
 40
0.15
 50
80.999986852082316
 51
89.999999999998366
  0
LINE
  5
1CD6
  8
0
  6
CONTINUOUS
 62
     7
 10
-0.782999000000018
 20
47.482962488791699
 30
0.0
 11
-1.752413000000018
 21
47.223209488791817
 31
0.0
  0
ARC
  5
1CD7
  8
0
  6
CONTINUOUS
 62
     7
 10
-0.6535900000000084
 20
47.000000488791713
 30
0.0
 40
0.5
 50
59.999999999999147
 51
105.00000000000109
  0
LINE
  5
1CD8
  8
0
  6
CONTINUOUS
 62
     7
 10
-7.1999999999999309
 20
40.000000488791819
 30
0.0
 11
-7.4330119999999757
 21
39.596410488791847
 31
0.0
  0
LINE
  5
1CD9
  8
0
  6
CONTINUOUS
 62
     7
 10
-7.223208999999982
 20
38.247587488791687
 30
0.0
 11
-7.4981532457044722
 21
36.511660419204517
 31
0.0
  0
ARC
  5
1CDA
  8
0
  6
CONTINUOUS
 62
     7
 10
-7.3499999999999801
 20
36.488195215451121
 30
0.0
 40
0.15
 50
170.99998685208229
 51
179.99999999999841
  0
LINE
  5
1CDB
  8
0
  6
CONTINUOUS
 62
     7
 10
-7.4829619999999286
 20
39.217001488791837
 30
0.0
 11
-7.223208999999982
 21
38.247587488791687
 31
0.0
  0
ARC
  5
1CDC
  8
0
  6
CONTINUOUS
 62
     7
 10
-6.9999999999999138
 20
39.346410488791847
 30
0.0
 40
0.5
 50
149.9999999999992
 51
195.00000000000111
  0
LINE
  5
1CDD
  8
0
  6
CONTINUOUS
 62
     7
 10
7.1999999999999309
 20
40.000000488791819
 30
0.0
 11
7.43301199999999
 21
40.403590488791828
 31
0.0
  0
LINE
  5
1CDE
  8
0
  6
CONTINUOUS
 62
     7
 10
7.2232090000000113
 20
41.752413488791838
 30
0.0
 11
7.4981532457044997
 21
43.488340558379107
 31
0.0
  0
LINE
  5
1CDF
  8
0
  6
CONTINUOUS
 62
     7
 10
7.4829619999999286
 20
40.782999488791837
 30
0.0
 11
7.2232090000000113
 21
41.752413488791838
 31
0.0
  0
ARC
  5
1CE0
  8
0
  6
CONTINUOUS
 62
     7
 10
6.9999999999999138
 20
40.653590488791828
 30
0.0
 40
0.5
 50
329.99999999999909
 51
15.00000000000116
  0
ARC
  5
1CE1
  8
0
  6
CONTINUOUS
 62
     7
 10
-7.0
 20
0.653589488791809
 30
0.0
 40
0.5
 50
180.0
 51
210.00000000000011
  0
LINE
  5
1CE2
  8
0
  6
CONTINUOUS
 62
     7
 10
-7.4330120000000193
 20
0.403589488791809
 30
0.0
 11
-7.2000000000000446
 21
0.0000004887918124
 31
0.0
  0
LINE
  5
1CE3
  8
0
  6
CONTINUOUS
 62
     7
 10
-7.1999999999999309
 20
0.0000004887918124
 30
0.0
 11
-7.4330119999999757
 21
-0.4035895112081818
 31
0.0
  0
LINE
  5
1CE4
  8
0
  6
CONTINUOUS
 62
     7
 10
-7.223208999999982
 20
-1.7524125112082769
 30
0.0
 11
-7.4981532457044722
 21
-3.488339580795496
 31
0.0
  0
ARC
  5
1CE5
  8
0
  6
CONTINUOUS
 62
     7
 10
-7.3499999999999801
 20
-3.511804784548886
 30
0.0
 40
0.15
 50
170.99998685208229
 51
179.99999999999841
  0
LINE
  5
1CE6
  8
0
  6
CONTINUOUS
 62
     7
 10
-7.4829619999999286
 20
-0.7829985112081915
 30
0.0
 11
-7.223208999999982
 21
-1.7524125112082769
 31
0.0
  0
ARC
  5
1CE7
  8
0
  6
CONTINUOUS
 62
     7
 10
-6.9999999999999138
 20
-0.6535895112081818
 30
0.0
 40
0.5
 50
149.99999999999801
 51
195.00000000000111
  0
ARC
  5
1CE8
  8
0
  6
CONTINUOUS
 62
     7
 10
-0.6535890000000535
 20
-6.9999995112081868
 30
0.0
 40
0.5
 50
270.0
 51
300.00000000000011
  0
LINE
  5
1CE9
  8
0
  6
CONTINUOUS
 62
     7
 10
-0.4035890000000109
 20
-7.4330115112082771
 30
0.0
 11
-0.0000000000000142
 21
-7.1999995112082749
 31
0.0
  0
LINE
  5
1CEA
  8
0
  6
CONTINUOUS
 62
     7
 10
-0.0000000000000142
 20
-7.1999995112081896
 30
0.0
 11
0.4035899999999799
 21
-7.4330115112081918
 31
0.0
  0
LINE
  5
1CEB
  8
0
  6
CONTINUOUS
 62
     7
 10
1.752413000000004
 20
-7.2232085112081839
 30
0.0
 11
3.4883400695872799
 21
-7.4981527569126882
 31
0.0
  0
ARC
  5
1CEC
  8
0
  6
CONTINUOUS
 62
     7
 10
3.5118052733407121
 20
-7.3499995112081811
 30
0.0
 40
0.15
 50
260.9999868520822
 51
269.99999999999841
  0
LINE
  5
1CED
  8
0
  6
CONTINUOUS
 62
     7
 10
0.7829989999999896
 20
-7.4829615112081882
 30
0.0
 11
1.752413000000004
 21
-7.2232085112081839
 31
0.0
  0
ARC
  5
1CEE
  8
0
  6
CONTINUOUS
 62
     7
 10
0.6535899999999799
 20
-6.9999995112081868
 30
0.0
 40
0.5
 50
239.99999999999801
 51
285.00000000000119
  0
ARC
  5
1CEF
  8
0
  6
CONTINUOUS
 62
     7
 10
39.346410999999932
 20
-6.9999995112081868
 30
0.0
 40
0.5
 50
270.0
 51
300.00000000000011
  0
LINE
  5
1CF0
  8
0
  6
CONTINUOUS
 62
     7
 10
39.596410999999932
 20
-7.4330115112082771
 30
0.0
 11
39.99999999999995
 21
-7.1999995112082749
 31
0.0
  0
LINE
  5
1CF1
  8
0
  6
CONTINUOUS
 62
     7
 10
39.99999999999995
 20
-7.1999995112081896
 30
0.0
 11
40.403589999999923
 21
-7.4330115112081918
 31
0.0
  0
LINE
  5
1CF2
  8
0
  6
CONTINUOUS
 62
     7
 10
41.752413000000018
 20
-7.2232085112081839
 30
0.0
 11
43.488340069587217
 21
-7.4981527569126882
 31
0.0
  0
ARC
  5
1CF3
  8
0
  6
CONTINUOUS
 62
     7
 10
43.51180527334062
 20
-7.3499995112081811
 30
0.0
 40
0.15
 50
260.9999868520822
 51
269.99999999999841
  0
LINE
  5
1CF4
  8
0
  6
CONTINUOUS
 62
     7
 10
40.782998999999933
 20
-7.4829615112081882
 30
0.0
 11
41.752413000000018
 21
-7.2232085112081839
 31
0.0
  0
ARC
  5
1CF5
  8
0
  6
CONTINUOUS
 62
     7
 10
40.653589999999923
 20
-6.9999995112081868
 30
0.0
 40
0.5
 50
239.99999999999801
 51
285.00000000000119
  0
ARC
  5
1CF6
  8
0
  6
CONTINUOUS
 62
     7
 10
46.999999999999943
 20
-0.6535885112082838
 30
0.0
 40
0.5
 50
0.0
 51
29.99999999999973
  0
LINE
  5
1CF7
  8
0
  6
CONTINUOUS
 62
     7
 10
47.433012000000019
 20
-0.4035885112082838
 30
0.0
 11
47.20000000000001
 21
0.0000004887917129
 31
0.0
  0
LINE
  5
1CF8
  8
0
  6
CONTINUOUS
 62
     7
 10
47.199999999999932
 20
0.0000004887917129
 30
0.0
 11
47.433011999999927
 21
0.4035904887917213
 31
0.0
  0
LINE
  5
1CF9
  8
0
  6
CONTINUOUS
 62
     7
 10
47.22320899999994
 20
1.7524134887918159
 30
0.0
 11
47.49815324570443
 21
3.4883405583791069
 31
0.0
  0
ARC
  5
1CFA
  8
0
  6
CONTINUOUS
 62
     7
 10
47.349999999999937
 20
3.5118057621325098
 30
0.0
 40
0.15
 50
350.99998685208232
 51
359.99999999999841
  0
LINE
  5
1CFB
  8
0
  6
CONTINUOUS
 62
     7
 10
47.48296199999993
 20
0.7829994887918162
 30
0.0
 11
47.22320899999994
 21
1.7524134887918159
 31
0.0
  0
ARC
  5
1CFC
  8
0
  6
CONTINUOUS
 62
     7
 10
46.999999999999943
 20
0.6535904887917213
 30
0.0
 40
0.5
 50
329.99999999999812
 51
15.00000000000116
  0
ARC
  5
1CFD
  8
0
  6
CONTINUOUS
 62
     7
 10
40.65359000000003
 20
7.0000004887918124
 30
0.0
 40
0.5
 50
90.0
 51
120.0000000000001
  0
LINE
  5
1CFE
  8
0
  6
CONTINUOUS
 62
     7
 10
40.403590000000037
 20
7.4330124887918174
 30
0.0
 11
40.000000000000021
 21
7.2000004887917148
 31
0.0
  0
LINE
  5
1CFF
  8
0
  6
CONTINUOUS
 62
     7
 10
40.000000000000021
 20
7.2000004887917148
 30
0.0
 11
39.596409999999942
 21
7.4330124887918174
 31
0.0
  0
LINE
  5
1D00
  8
0
  6
CONTINUOUS
 62
     7
 10
38.247586999999932
 20
7.2232094887918086
 30
0.0
 11
36.511659930412641
 21
7.4981537344963121
 31
0.0
  0
ARC
  5
1D01
  8
0
  6
CONTINUOUS
 62
     7
 10
36.488194726659231
 20
7.35000048879182
 30
0.0
 40
0.15
 50
80.999986852082316
 51
89.999999999998366
  0
LINE
  5
1D02
  8
0
  6
CONTINUOUS
 62
     7
 10
39.217000999999932
 20
7.4829624887917134
 30
0.0
 11
38.247586999999932
 21
7.2232094887918086
 31
0.0
  0
ARC
  5
1D03
  8
0
  6
CONTINUOUS
 62
     7
 10
39.346409999999942
 20
7.000000488791712
 30
0.0
 40
0.5
 50
59.999999999999147
 51
105.00000000000109
  0
CIRCLE
  5
1D0A
  8
0
  6
PHANTOM
 62
     3
 10
0.0
 20
40.000000488791819
 30
0.0
 40
5.25
  0
CIRCLE
  5
1D0B
  8
0
  6
PHANTOM
 62
     3
 10
0.0
 20
0.0000004887918124
 30
0.0
 40
5.25
  0
CIRCLE
  5
1D0C
  8
0
  6
PHANTOM
 62
     3
 10
40.000000000000021
 20
0.0000004887918124
 30
0.0
 40
5.25
  0
LINE
  5
1D0E
  8
0
  6
CONTINUOUS
 62
     7
 10
152.91303263549969
 20
60.000000488791827
 30
0.0
 11
202.9130326354998
 21
60.000000488791827
 31
0.0
  0
LINE
  5
1D10
  8
0
  6
CONTINUOUS
 62
     7
 10
152.91303263549969
 20
20.00000048879183
 30
0.0
 11
202.9130326354998
 21
20.00000048879183
 31
0.0
  0
LINE
  5
1D12
  8
0
  6
CONTINUOUS
 62
     7
 10
152.91303263549969
 20
-19.999999511208191
 30
0.0
 11
202.91303263549969
 21
-19.999999511208198
 31
0.0
  0
LINE
  5
1D13
  8
0
  6
CONTINUOUS
 62
     7
 10
152.91303263549969
 20
60.000000488791827
 30
0.0
 11
152.91303263549969
 21
-19.999999511208191
 31
0.0
  0
LINE
  5
1D14
  8
0
  6
CONTINUOUS
 62
     7
 10
202.9130326354998
 20
60.000000488791827
 30
0.0
 11
202.91303263549969
 21
-19.999999511208198
 31
0.0
  0
LINE
  5
1D15
  8
0
  6
CONTINUOUS
 62
     7
 10
152.91303263549969
 20
5.0000004887918124
 30
0.0
 11
202.91303263549969
 21
5.0000004887918124
 31
0.0
  0
LINE
  5
1D16
  8
0
  6
CONTINUOUS
 62
     7
 10
152.91303263549969
 20
1.7524134887918159
 30
0.0
 11
202.91303263549969
 21
1.7524134887918159
 31
0.0
  0
LINE
  5
1D17
  8
0
  6
CONTINUOUS
 62
     7
 10
152.91303263549969
 20
3.4883405583790901
 30
0.0
 11
202.91303263549969
 21
3.4883405583790901
 31
0.0
  0
LINE
  5
1D18
  8
0
  6
CONTINUOUS
 62
     7
 10
152.91303263549969
 20
0.0000004887917129
 30
0.0
 11
202.91303263549969
 21
0.0000004887917129
 31
0.0
  0
LINE
  5
1D19
  8
0
  6
CONTINUOUS
 62
     7
 10
152.91303263549969
 20
-4.9999995112081841
 30
0.0
 11
202.91303263549969
 21
-4.9999995112081841
 31
0.0
  0
LINE
  5
1D1A
  8
0
  6
CONTINUOUS
 62
     7
 10
152.91303263549969
 20
40.000000488791819
 30
0.0
 11
202.9130326354998
 21
40.000000488791819
 31
0.0
  0
LINE
  5
1D1B
  8
0
  6
CONTINUOUS
 62
     7
 10
152.91303263549969
 20
35.000000488791827
 30
0.0
 11
202.9130326354998
 21
35.000000488791827
 31
0.0
  0
LINE
  5
1D1C
  8
0
  6
CONTINUOUS
 62
     7
 10
152.91303263549969
 20
41.752413488791838
 30
0.0
 11
202.9130326354998
 21
41.752413488791838
 31
0.0
  0
LINE
  5
1D1D
  8
0
  6
CONTINUOUS
 62
     7
 10
152.91303263549969
 20
43.488340558379107
 30
0.0
 11
202.9130326354998
 21
43.488340558379107
 31
0.0
  0
LINE
  5
1D1E
  8
0
  6
CONTINUOUS
 62
     7
 10
152.91303263549969
 20
45.000000488791699
 30
0.0
 11
202.9130326354998
 21
45.000000488791699
 31
0.0
  0
LINE
  5
1D1F
  8
CENTER
  6
CENTER
 62
     1
 10
150.91303263549969
 20
0.0000004887917129
 30
0.0
 11
204.91303263549969
 21
0.0000004887917129
 31
0.0
  0
LINE
  5
1D20
  8
CENTER
  6
CENTER
 62
     1
 10
150.91303263549969
 20
40.000000488791819
 30
0.0
 11
204.9130326354998
 21
40.000000488791819
 31
0.0
  0
INSERT
  5
1D22
  8
0
  6
CONTINUOUS
 62
     7
  2
*U24
 10
0.0
 20
0.0
 30
0.0
  0
INSERT
  5
1D23
  8
0
  6
CONTINUOUS
 62
     7
  2
*U25
 10
0.0
 20
0.0
 30
0.0
  0
ENDSEC
  0
EOF
