  0
SECTION
  2
HEADER
  9
$ACADVER
  1
AC1009
  9
$INSBASE
 10
0.0
 20
0.0
 30
0.0
  9
$EXTMIN
 10
-83.050411384381263
 20
-37.690432909133662
 30
0.0
  9
$EXTMAX
 10
88.557570000878513
 20
37.619399852492393
 30
0.0
  9
$LIMMIN
 10
0.0
 20
0.0
  9
$LIMMAX
 10
420.0
 20
297.0
  9
$ORTHOMODE
 70
     0
  9
$REGENMODE
 70
     1
  9
$FILLMODE
 70
     1
  9
$QTEXTMODE
 70
     0
  9
$MIRRTEXT
 70
     0
  9
$DRAGMODE
 70
     2
  9
$LTSCALE
 40
1.0
  9
$OSMODE
 70
  2109
  9
$ATTMODE
 70
     1
  9
$TEXTSIZE
 40
3.0
  9
$TRACEWID
 40
1.0
  9
$TEXTSTYLE
  7
STANDARD
  9
$CLAYER
  8
0
  9
$CELTYPE
  6
CONTINUOUS
  9
$CECOLOR
 62
     7
  9
$DIMSCALE
 40
1.0
  9
$DIMASZ
 40
2.5
  9
$DIMEXO
 40
0.625
  9
$DIMDLI
 40
3.75
  9
$DIMRND
 40
0.0
  9
$DIMDLE
 40
0.0
  9
$DIMEXE
 40
1.25
  9
$DIMTP
 40
0.0
  9
$DIMTM
 40
0.0
  9
$DIMTXT
 40
2.5
  9
$DIMCEN
 40
2.5
  9
$DIMTSZ
 40
0.0
  9
$DIMTOL
 70
     0
  9
$DIMLIM
 70
     0
  9
$DIMTIH
 70
     0
  9
$DIMTOH
 70
     0
  9
$DIMSE1
 70
     0
  9
$DIMSE2
 70
     0
  9
$DIMTAD
 70
     1
  9
$DIMZIN
 70
     8
  9
$DIMBLK
  1
OPEN30
  9
$DIMASO
 70
     1
  9
$DIMSHO
 70
     1
  9
$DIMPOST
  1

  9
$DIMAPOST
  1

  9
$DIMALT
 70
     0
  9
$DIMALTD
 70
     3
  9
$DIMALTF
 40
0.03937007874016
  9
$DIMLFAC
 40
1.0
  9
$DIMTOFL
 70
     1
  9
$DIMTVP
 40
0.0
  9
$DIMTIX
 70
     0
  9
$DIMSOXD
 70
     0
  9
$DIMSAH
 70
     0
  9
$DIMBLK1
  1

  9
$DIMBLK2
  1

  9
$DIMSTYLE
  2
MISUMI
  9
$DIMCLRD
 70
   137
  9
$DIMCLRE
 70
   137
  9
$DIMCLRT
 70
   137
  9
$DIMTFAC
 40
1.0
  9
$DIMGAP
 40
0.625
  9
$LUNITS
 70
     2
  9
$LUPREC
 70
     2
  9
$SKETCHINC
 40
1.0
  9
$FILLETRAD
 40
0.0
  9
$AUNITS
 70
     0
  9
$AUPREC
 70
     0
  9
$MENU
  1
.
  9
$ELEVATION
 40
0.0
  9
$PELEVATION
 40
0.0
  9
$THICKNESS
 40
0.0
  9
$LIMCHECK
 70
     0
  9
$BLIPMODE
 70
     0
  9
$CHAMFERA
 40
0.5
  9
$CHAMFERB
 40
0.5
  9
$SKPOLY
 70
     0
  9
$TDCREATE
 40
2455135.5720697111
  9
$TDUPDATE
 40
2455656.628699908
  9
$TDINDWG
 40
0.1022224653
  9
$TDUSRTIMER
 40
0.1022222801
  9
$USRTIMER
 70
     1
  9
$ANGBASE
 50
0.0
  9
$ANGDIR
 70
     0
  9
$PDMODE
 70
    35
  9
$PDSIZE
 40
0.0
  9
$PLINEWID
 40
0.0
  9
$COORDS
 70
     1
  9
$SPLFRAME
 70
     0
  9
$SPLINETYPE
 70
     6
  9
$SPLINESEGS
 70
     8
  9
$ATTDIA
 70
     0
  9
$ATTREQ
 70
     1
  9
$HANDLING
 70
     1
  9
$HANDSEED
  5
21D1
  9
$SURFTAB1
 70
     6
  9
$SURFTAB2
 70
     6
  9
$SURFTYPE
 70
     6
  9
$SURFU
 70
     6
  9
$SURFV
 70
     6
  9
$UCSNAME
  2

  9
$UCSORG
 10
0.0
 20
0.0
 30
0.0
  9
$UCSXDIR
 10
1.0
 20
0.0
 30
0.0
  9
$UCSYDIR
 10
0.0
 20
1.0
 30
0.0
  9
$PUCSNAME
  2

  9
$PUCSORG
 10
0.0
 20
0.0
 30
0.0
  9
$PUCSXDIR
 10
1.0
 20
0.0
 30
0.0
  9
$PUCSYDIR
 10
0.0
 20
1.0
 30
0.0
  9
$USERI1
 70
     0
  9
$USERI2
 70
     0
  9
$USERI3
 70
     0
  9
$USERI4
 70
     0
  9
$USERI5
 70
     0
  9
$USERR1
 40
0.0
  9
$USERR2
 40
0.0
  9
$USERR3
 40
0.0
  9
$USERR4
 40
0.0
  9
$USERR5
 40
0.0
  9
$WORLDVIEW
 70
     1
  9
$SHADEDGE
 70
     3
  9
$SHADEDIF
 70
    70
  9
$TILEMODE
 70
     1
  9
$MAXACTVP
 70
    64
  9
$PLIMCHECK
 70
     0
  9
$PEXTMIN
 10
0.0
 20
0.0
 30
0.0
  9
$PEXTMAX
 10
0.0
 20
0.0
 30
0.0
  9
$PLIMMIN
 10
0.0
 20
0.0
  9
$PLIMMAX
 10
12.0
 20
9.0
  9
$UNITMODE
 70
     0
  9
$VISRETAIN
 70
     1
  9
$PLINEGEN
 70
     0
  9
$PSLTSCALE
 70
     1
  0
ENDSEC
  0
SECTION
  2
TABLES
  0
TABLE
  2
VPORT
 70
     1
  0
VPORT
  2
*ACTIVE
 70
     0
 10
0.0
 20
0.0
 11
1.0
 21
1.0
 12
2.7746722499266521
 22
0.9492335021161579
 13
0.0
 23
0.0
 14
10.0
 24
10.0
 15
10.0
 25
10.0
 16
0.0
 26
0.0
 36
1.0
 17
0.0
 27
0.0
 37
0.0
 40
208.26614147936539
 41
1.0918367346938771
 42
50.0
 43
0.0
 44
0.0
 50
0.0
 51
0.0
 71
     0
 72
  1000
 73
     1
 74
     3
 75
     0
 76
     0
 77
     0
 78
     0
  0
ENDTAB
  0
TABLE
  2
LTYPE
 70
     4
  0
LTYPE
  2
CONTINUOUS
 70
     0
  3
Solid line
 72
    65
 73
     0
 40
0.0
  0
LTYPE
  2
CENTER
 70
     0
  3
Center ____ _ ____ _ ____ _ ____ _ ____ _ ____
 72
    65
 73
     4
 40
50.799999999999997
 49
31.75
 49
-6.3499999999999988
 49
6.3499999999999988
 49
-6.3499999999999988
  0
LTYPE
  2
DASHED
 70
     0
  3
Dashed __ __ __ __ __ __ __ __ __ __ __ __ __ _
 72
    65
 73
     2
 40
19.050000000000001
 49
12.699999999999999
 49
-6.3499999999999988
  0
LTYPE
  2
PHANTOM
 70
     0
  3
Phantom ______  __  __  ______  __  __  ______
 72
    65
 73
     6
 40
63.5
 49
31.75
 49
-6.3499999999999988
 49
6.3499999999999988
 49
-6.3499999999999988
 49
6.3499999999999988
 49
-6.3499999999999988
  0
ENDTAB
  0
TABLE
  2
LAYER
 70
     3
  0
LAYER
  2
0
 70
     0
 62
     7
  6
CONTINUOUS
  0
LAYER
  2
CENTER
 70
     0
 62
     1
  6
CENTER
  0
LAYER
  2
DEFPOINTS
 70
     0
 62
     7
  6
CONTINUOUS
  0
ENDTAB
  0
TABLE
  2
STYLE
 70
     1
  0
STYLE
  2
STANDARD
 70
     0
 40
3.0
 41
1.0
 50
0.0
 71
     0
 42
3.0
  3
txt.shx
  4
bigfont.shx
  0
ENDTAB
  0
TABLE
  2
VIEW
 70
     0
  0
ENDTAB
  0
TABLE
  2
UCS
 70
     0
  0
ENDTAB
  0
TABLE
  2
APPID
 70
     8
  0
APPID
  2
ACAD
 70
     0
  0
APPID
  2
ACAD_MLEADERVER
 70
     0
  0
APPID
  2
ACAD_PSEXT
 70
     0
  0
APPID
  2
ACAD_DSTYLE_DIMRADIAL_EXTENSION
 70
     0
  0
APPID
  2
ACAD_EXEMPT_FROM_CAD_STANDARDS
 70
     0
  0
APPID
  2
GRADIENTCOLOR1ACI
 70
     0
  0
APPID
  2
GRADIENTCOLOR2ACI
 70
     0
  0
APPID
  2
ACAECLAYERSTANDARD
 70
     0
  0
ENDTAB
  0
TABLE
  2
DIMSTYLE
 70
     2
  0
DIMSTYLE
  2
MISUMI
 70
     0
  3

  4

  5
OPEN30
  6

  7

 40
1.0
 41
2.5
 42
0.625
 43
3.75
 44
1.25
 45
0.0
 46
0.0
 47
0.0
 48
0.0
140
2.5
141
2.5
142
0.0
143
0.03937007874016
144
1.0
145
0.0
146
1.0
147
0.625
 71
     0
 72
     0
 73
     0
 74
     0
 75
     0
 76
     0
 77
     1
 78
     8
170
     0
171
     3
172
     1
173
     0
174
     0
175
     0
176
   137
177
   137
178
   137
  0
DIMSTYLE
  2
STANDARD
 70
     0
  3

  4

  5

  6

  7

 40
1.0
 41
0.18
 42
0.0625
 43
0.38
 44
0.18
 45
0.0
 46
0.0
 47
0.0
 48
0.0
140
0.18
141
0.09
142
0.0
143
25.399999999999999
144
1.0
145
0.0
146
1.0
147
0.09
 71
     0
 72
     0
 73
     1
 74
     1
 75
     0
 76
     0
 77
     0
 78
     0
170
     0
171
     2
172
     0
173
     0
174
     0
175
     0
176
     0
177
     0
178
     0
  0
ENDTAB
  0
ENDSEC
  0
SECTION
  2
BLOCKS
  0
BLOCK
  8
0
  2
$MODEL_SPACE
 70
     0
 10
0.0
 20
0.0
 30
0.0
  3
$MODEL_SPACE
  1

  0
ENDBLK
  5
21
  8
0
  0
BLOCK
 67
     1
  8
0
  2
$PAPER_SPACE
 70
     0
 10
0.0
 20
0.0
 30
0.0
  3
$PAPER_SPACE
  1

  0
ENDBLK
  5
53
 67
     1
  8
0
  0
BLOCK
  8
0
 62
     7
  2
_OPEN30
 70
     0
 10
0.0
 20
0.0
 30
0.0
  3
_OPEN30
  1

  0
LINE
  5
D7
  8
0
  6
BYBLOCK
 62
     0
 10
-1.0
 20
0.26794919
 30
0.0
 11
0.0
 21
0.0
 31
0.0
  0
LINE
  5
D8
  8
0
  6
BYBLOCK
 62
     0
 10
0.0
 20
0.0
 30
0.0
 11
-1.0
 21
-0.26794919
 31
0.0
  0
LINE
  5
D9
  8
0
  6
BYBLOCK
 62
     0
 10
0.0
 20
0.0
 30
0.0
 11
-1.0
 21
0.0
 31
0.0
  0
ENDBLK
  5
DB
  8
0
 62
     7
  0
BLOCK
  8
0
 62
     7
  2
*U20
 70
     1
 10
0.0
 20
0.0
 30
0.0
  3
*U20
  1

  0
TEXT
  5
21CA
  8
0
  6
CONTINUOUS
 62
     7
 10
-69.53667710880103
 20
-33.234195501641061
 30
0.0
 40
3.0
  1
NFS5-2080-50
  0
ENDBLK
  5
21CC
  8
0
 62
     7
  0
BLOCK
  8
0
 62
     7
  2
*U21
 70
     1
 10
0.0
 20
0.0
 30
0.0
  3
*U21
  1

  0
TEXT
  5
21CE
  8
0
  6
CONTINUOUS
 62
     7
 10
-69.53667710880103
 20
-37.690432909133662
 30
0.0
 40
3.0
  1
NFS5-2080
  0
ENDBLK
  5
21D0
  8
0
 62
     7
  0
ENDSEC
  0
SECTION
  2
ENTITIES
  0
LINE
  5
1A08
  8
0
  6
CONTINUOUS
 62
     7
 10
-69.000013122978771
 20
-9.9999999999998774
 30
0.0
 11
-63.300013122978839
 21
-9.9999999999998774
 31
0.0
  0
ARC
  5
1A09
  8
0
  6
CONTINUOUS
 62
     7
 10
-63.300013122978839
 20
-9.6999999999999211
 30
0.0
 40
0.3
 50
270.0
 51
0.0
  0
LINE
  5
1A0A
  8
0
  6
CONTINUOUS
 62
     7
 10
-56.700013122978831
 20
-9.9999999999998792
 30
0.0
 11
-43.300013122978832
 21
-10.000000000000099
 31
0.0
  0
ARC
  5
1A0B
  8
0
  6
CONTINUOUS
 62
     7
 10
-56.700013122978817
 20
-9.6999999999999211
 30
0.0
 40
0.3
 50
180.0
 51
269.99999999999682
  0
ARC
  5
1A0C
  8
0
  6
CONTINUOUS
 62
     7
 10
-43.300013122978832
 20
-9.7000000000001645
 30
0.0
 40
0.3
 50
270.0
 51
0.0
  0
LINE
  5
1A0D
  8
0
  6
CONTINUOUS
 62
     7
 10
-51.700013122978817
 20
-7.9999999999999956
 30
0.0
 11
-48.300013122978839
 21
-7.9999999999999973
 31
0.0
  0
ARC
  5
1A0E
  8
0
  6
CONTINUOUS
 62
     7
 10
-51.700013122978817
 20
-7.700000000000049
 30
0.0
 40
0.3
 50
180.0
 51
270.0
  0
LINE
  5
1A0F
  8
0
  6
CONTINUOUS
 62
     7
 10
-36.700013122978831
 20
-10.000000000000099
 30
0.0
 11
-30.000013122978839
 21
-10.000000000000099
 31
0.0
  0
ARC
  5
1A10
  8
0
  6
CONTINUOUS
 62
     7
 10
-36.700013122978831
 20
-9.7000000000001645
 30
0.0
 40
0.3
 50
180.0
 51
270.0
  0
ARC
  5
1A11
  8
0
  6
CONTINUOUS
 62
     7
 10
-3.3000131229787111
 20
-9.7000000000001663
 30
0.0
 40
0.3
 50
270.0
 51
0.0
  0
LINE
  5
1A12
  8
0
  6
CONTINUOUS
 62
     7
 10
-31.70001312297882
 20
-7.9999999999999973
 30
0.0
 11
-30.000013122978839
 21
-7.9999999999999973
 31
0.0
  0
ARC
  5
1A13
  8
0
  6
CONTINUOUS
 62
     7
 10
-31.70001312297882
 20
-7.700000000000049
 30
0.0
 40
0.3
 50
180.0
 51
270.0
  0
LINE
  5
1A14
  8
0
  6
CONTINUOUS
 62
     7
 10
3.2999868770211829
 20
-10.0
 30
0.0
 11
8.9999868770211293
 21
-10.0
 31
0.0
  0
ARC
  5
1A15
  8
0
  6
CONTINUOUS
 62
     7
 10
3.2999868770211829
 20
-9.7000000000000526
 30
0.0
 40
0.3
 50
180.0
 51
270.0
  0
ARC
  5
1A16
  8
0
  6
CONTINUOUS
 62
     7
 10
-69.000013122978771
 20
-8.9999999999998987
 30
0.0
 40
1.0
 50
180.0
 51
270.0
  0
LINE
  5
1A17
  8
0
  6
CONTINUOUS
 62
     7
 10
-69.000013122978771
 20
9.9999999999998881
 30
0.0
 11
-63.300013122978953
 21
9.9999999999998881
 31
0.0
  0
LINE
  5
1A18
  8
0
  6
CONTINUOUS
 62
     7
 10
-56.700013122978817
 20
9.9999999999998916
 30
0.0
 11
-43.300013122978832
 21
10.0
 31
0.0
  0
LINE
  5
1A19
  8
0
  6
CONTINUOUS
 62
     7
 10
-51.700013122978831
 20
7.9999999999997717
 30
0.0
 11
-48.300013122978839
 21
7.9999999999998881
 31
0.0
  0
LINE
  5
1A1A
  8
0
  6
CONTINUOUS
 62
     7
 10
-36.700013122978831
 20
10.0
 30
0.0
 11
-30.000013122978832
 21
10.00000000000006
 31
0.0
  0
LINE
  5
1A1B
  8
0
  6
CONTINUOUS
 62
     7
 10
-31.70001312297882
 20
7.9999999999998881
 30
0.0
 11
-30.000013122978832
 21
7.9999999999998881
 31
0.0
  0
LINE
  5
1A1C
  8
0
  6
CONTINUOUS
 62
     7
 10
3.2999868770211829
 20
10.00000000000013
 30
0.0
 11
8.9999868770212288
 21
10.0
 31
0.0
  0
ARC
  5
1A1D
  8
0
  6
CONTINUOUS
 62
     7
 10
8.9999868770212288
 20
9.0
 30
0.0
 40
1.0
 50
0.0
 51
90.0
  0
LINE
  5
1A22
  8
0
  6
CONTINUOUS
 62
     7
 10
-46.000013122978771
 20
7.0606494870376073
 30
0.0
 11
-42.939363323002681
 21
3.9999999999998881
 31
0.0
  0
LINE
  5
1A23
  8
0
  6
CONTINUOUS
 62
     7
 10
-47.91214514649004
 20
6.8514610799298792
 30
0.0
 11
-44.000013122978757
 21
2.9393294564172612
 31
0.0
  0
ARC
  5
1A24
  8
0
  6
CONTINUOUS
 62
     7
 10
-47.700013122978817
 20
7.0635931251306401
 30
0.0
 40
0.3
 50
180.0
 51
225.00000292912549
  0
LINE
  5
1A25
  8
0
  6
CONTINUOUS
 62
     7
 10
-34.000013122978771
 20
7.0606506870609733
 30
0.0
 11
-37.060664122978331
 21
3.9999999999997748
 31
0.0
  0
LINE
  5
1A26
  8
0
  6
CONTINUOUS
 62
     7
 10
-32.087881099467722
 20
6.8514622799531271
 30
0.0
 11
-36.000013122978771
 21
2.9393306564408199
 31
0.0
  0
ARC
  5
1A27
  8
0
  6
CONTINUOUS
 62
     7
 10
-32.30001312297874
 20
7.0635943251538738
 30
0.0
 40
0.3
 50
314.99999707087449
 51
0.0
  0
LINE
  5
1A28
  8
0
  6
CONTINUOUS
 62
     7
 10
-2.9393437500177688
 20
3.9999999999998859
 30
0.0
 11
-6.0000131229787561
 21
7.0606690600205857
 31
0.0
  0
LINE
  5
1A29
  8
0
  6
CONTINUOUS
 62
     7
 10
-4.0000131229787561
 20
2.9393490294002671
 30
0.0
 11
-7.9121451464899328
 21
6.8514806529128691
 31
0.0
  0
LINE
  5
1A2A
  8
0
  6
CONTINUOUS
 62
     7
 10
3.9999912770494599
 20
2.939322400030453
 30
0.0
 11
7.0606691899597571
 21
5.9999999999999991
 31
0.0
  0
LINE
  5
1A2B
  8
0
  6
CONTINUOUS
 62
     7
 10
5.9999868770212137
 20
7.0606440140890072
 30
0.0
 11
2.9393425499945351
 21
3.9999999999997722
 31
0.0
  0
LINE
  5
1A2F
  8
0
  6
CONTINUOUS
 62
     7
 10
9.9999868770212288
 20
9.0
 30
0.0
 11
9.9999868770211293
 21
3.2999999999999541
 31
0.0
  0
LINE
  5
1A30
  8
0
  6
CONTINUOUS
 62
     7
 10
7.9999868770211151
 20
6.0
 30
0.0
 11
7.9999868770212137
 21
3.2999999999999821
 31
0.0
  0
LINE
  5
1A31
  8
0
  6
CONTINUOUS
 62
     7
 10
-4.0000131229787561
 20
2.9393490294002671
 30
0.0
 11
-4.0000131229787561
 21
-2.9393381794410862
 31
0.0
  0
LINE
  5
1A32
  8
0
  6
CONTINUOUS
 62
     7
 10
-36.000013122978771
 20
2.939330656440819
 30
0.0
 11
-36.000013122978771
 21
-2.9393370563939629
 31
0.0
  0
LINE
  5
1A33
  8
0
  6
CONTINUOUS
 62
     7
 10
9.9999868770211293
 20
-3.3000000000000611
 30
0.0
 11
9.9999868770211293
 21
-8.9999999999999911
 31
0.0
  0
ARC
  5
1A34
  8
0
  6
CONTINUOUS
 62
     7
 10
9.6999868770210611
 20
-3.3000000000000611
 30
0.0
 40
0.3
 50
0.0
 51
90.0
  0
LINE
  5
1A35
  8
0
  6
CONTINUOUS
 62
     7
 10
7.9999868770212137
 20
-3.3000000000000109
 30
0.0
 11
7.9999868770211151
 21
-5.9999999999998792
 31
0.0
  0
ARC
  5
1A36
  8
0
  6
CONTINUOUS
 62
     7
 10
8.9999868770211293
 20
-8.9999999999999911
 30
0.0
 40
1.0
 50
270.0
 51
0.0
  0
LINE
  5
1A37
  8
0
  6
CONTINUOUS
 62
     7
 10
-70.000013122978771
 20
8.9999999999998881
 30
0.0
 11
-70.000013122978771
 21
3.2999999999999572
 31
0.0
  0
LINE
  5
1A38
  8
0
  6
CONTINUOUS
 62
     7
 10
-68.000013122978771
 20
6.0000000000000018
 30
0.0
 11
-68.000013122978771
 21
3.2999999999999989
 31
0.0
  0
ARC
  5
1A39
  8
0
  6
CONTINUOUS
 62
     7
 10
-68.300013122978768
 20
3.2999999999999989
 30
0.0
 40
0.3
 50
270.0
 51
0.0
  0
LINE
  5
1A3B
  8
0
  6
CONTINUOUS
 62
     7
 10
-44.000013122978757
 20
2.9393294564172572
 30
0.0
 11
-44.000013122978757
 21
-2.9393180000025758
 31
0.0
  0
LINE
  5
1A3C
  8
0
  6
CONTINUOUS
 62
     7
 10
-70.000013122978771
 20
-3.300000000000058
 30
0.0
 11
-70.000013122978771
 21
-8.9999999999998987
 31
0.0
  0
LINE
  5
1A3D
  8
0
  6
CONTINUOUS
 62
     7
 10
-68.000013122978771
 20
-3.2999999999999869
 30
0.0
 11
-68.000013122978771
 21
-5.9999999999998757
 31
0.0
  0
ARC
  5
1A3E
  8
0
  6
CONTINUOUS
 62
     7
 10
-69.000013122978771
 20
8.9999999999998881
 30
0.0
 40
1.0
 50
90.0
 51
180.0
  0
LINE
  5
1A3F
  8
0
  6
CONTINUOUS
 62
     7
 10
-42.939361272950933
 20
-3.9999999999997691
 30
0.0
 11
-46.000013122978771
 21
-7.0606515370894813
 31
0.0
  0
LINE
  5
1A40
  8
0
  6
CONTINUOUS
 62
     7
 10
-44.000021390506852
 20
-2.9393397739960361
 30
0.0
 11
-47.91214514649004
 21
-6.851463129981763
 31
0.0
  0
CIRCLE
  5
1A41
  8
0
  6
CONTINUOUS
 62
     7
 10
-60.000026647986928
 20
0.0000000000000024
 30
0.0
 40
2.099999899999998
  0
LINE
  5
1A46
  8
0
  6
CONTINUOUS
 62
     7
 10
-37.060670522932469
 20
-3.9999999999997691
 30
0.0
 11
-34.000013122978771
 21
-7.060657087014353
 31
0.0
  0
LINE
  5
1A47
  8
0
  6
CONTINUOUS
 62
     7
 10
-36.000013122978771
 20
-2.9393370563939651
 30
0.0
 11
-32.087881099467722
 21
-6.8514686799063371
 31
0.0
  0
CIRCLE
  5
1A48
  8
0
  6
CONTINUOUS
 62
     7
 10
-40.000013122978778
 20
0.0000000000000024
 30
0.0
 40
2.099999899999998
  0
LINE
  5
1A49
  8
0
  6
CONTINUOUS
 62
     7
 10
7.0606702834723052
 20
-5.999999093549043
 30
0.0
 11
3.999991277049403
 21
-2.9393204000673361
 31
0.0
  0
LINE
  5
1A4A
  8
0
  6
CONTINUOUS
 62
     7
 10
-6.0000131229787561
 20
-7.0606582100613533
 30
0.0
 11
-2.9393545999781732
 21
-3.9999999999999001
 31
0.0
  0
LINE
  5
1A4B
  8
0
  6
CONTINUOUS
 62
     7
 10
-7.9121451464900474
 20
-6.8514698029537149
 30
0.0
 11
-4.0000131229787561
 21
-2.9393381794410862
 31
0.0
  0
LINE
  5
1A4C
  8
0
  6
CONTINUOUS
 62
     7
 10
2.9393490500522002
 20
-3.9999999999997722
 30
0.0
 11
5.9999868770212137
 21
-7.0606375140315976
 31
0.0
  0
CIRCLE
  5
1A4D
  8
0
  6
CONTINUOUS
 62
     7
 10
0.0
 20
0.0
 30
0.0
 40
2.099999899999998
  0
LINE
  5
1A4E
  8
0
  6
CONTINUOUS
 62
     7
 10
-63.000013122978771
 20
-9.6999999999999211
 30
0.0
 11
-63.000013122978771
 21
-8.2999999999998746
 31
0.0
  0
ARC
  5
1A4F
  8
0
  6
CONTINUOUS
 62
     7
 10
-63.300013122978768
 20
-8.2999999999998746
 30
0.0
 40
0.3
 50
0.0
 51
90.0
  0
LINE
  5
1A50
  8
0
  6
CONTINUOUS
 62
     7
 10
-63.000013122978793
 20
8.2999999999997982
 30
0.0
 11
-63.000013122978878
 21
9.6999999999999336
 31
0.0
  0
ARC
  5
1A51
  8
0
  6
CONTINUOUS
 62
     7
 10
-63.30001312297879
 20
8.2999999999997858
 30
0.0
 40
0.3
 50
269.99999999999761
 51
0.000000000003664
  0
ARC
  5
1A52
  8
0
  6
CONTINUOUS
 62
     7
 10
-63.300013122978953
 20
9.6999999999999336
 30
0.0
 40
0.3
 50
0.0
 51
90.0
  0
LINE
  5
1A53
  8
0
  6
CONTINUOUS
 62
     7
 10
-57.000013122978892
 20
-9.6999999999999211
 30
0.0
 11
-57.000013122978778
 21
-8.2999999999999527
 31
0.0
  0
LINE
  5
1A54
  8
0
  6
CONTINUOUS
 62
     7
 10
-57.000013122978778
 20
8.2999999999998852
 30
0.0
 11
-57.000013122978778
 21
9.6999999999999336
 31
0.0
  0
ARC
  5
1A55
  8
0
  6
CONTINUOUS
 62
     7
 10
-56.700013122978817
 20
9.6999999999999336
 30
0.0
 40
0.3
 50
90.0
 51
180.0
  0
LINE
  5
1A56
  8
0
  6
CONTINUOUS
 62
     7
 10
-43.000013122978771
 20
-9.7000000000001645
 30
0.0
 11
-43.000013122978771
 21
-8.2999999999994127
 31
0.0
  0
ARC
  5
1A57
  8
0
  6
CONTINUOUS
 62
     7
 10
-43.300013122978768
 20
-8.2999999999994127
 30
0.0
 40
0.3
 50
0.0
 51
89.999999999997556
  0
LINE
  5
1A58
  8
0
  6
CONTINUOUS
 62
     7
 10
-43.000013122978771
 20
8.2999999999998852
 30
0.0
 11
-43.000013122978771
 21
9.700000000000033
 31
0.0
  0
ARC
  5
1A59
  8
0
  6
CONTINUOUS
 62
     7
 10
-43.300013122978768
 20
8.2999999999998852
 30
0.0
 40
0.3
 50
270.0
 51
0.0
  0
ARC
  5
1A5A
  8
0
  6
CONTINUOUS
 62
     7
 10
-43.300013122978832
 20
9.700000000000033
 30
0.0
 40
0.3
 50
0.0
 51
90.0
  0
LINE
  5
1A5B
  8
0
  6
CONTINUOUS
 62
     7
 10
-37.000013122978771
 20
-9.7000000000001645
 30
0.0
 11
-37.000013122978778
 21
-8.2999999999998746
 31
0.0
  0
LINE
  5
1A5C
  8
0
  6
CONTINUOUS
 62
     7
 10
-37.000013122978771
 20
8.2999999999998852
 30
0.0
 11
-37.000013122978771
 21
9.700000000000033
 31
0.0
  0
ARC
  5
1A5D
  8
0
  6
CONTINUOUS
 62
     7
 10
-36.700013122978831
 20
9.700000000000033
 30
0.0
 40
0.3
 50
90.0
 51
180.0
  0
LINE
  5
1A5E
  8
0
  6
CONTINUOUS
 62
     7
 10
-3.0000131229787561
 20
-9.7000000000001663
 30
0.0
 11
-3.0000131229787561
 21
-8.2999999999998764
 31
0.0
  0
ARC
  5
1A5F
  8
0
  6
CONTINUOUS
 62
     7
 10
-3.3000131229787679
 20
-8.2999999999998764
 30
0.0
 40
0.3
 50
0.0
 51
90.0
  0
LINE
  5
1A60
  8
0
  6
CONTINUOUS
 62
     7
 10
-3.0000131229787561
 20
8.2999999999998835
 30
0.0
 11
-3.0000131229787561
 21
9.7000000000001432
 31
0.0
  0
ARC
  5
1A61
  8
0
  6
CONTINUOUS
 62
     7
 10
-3.3000131229787679
 20
8.2999999999998835
 30
0.0
 40
0.3
 50
270.0
 51
0.0
  0
ARC
  5
1A62
  8
0
  6
CONTINUOUS
 62
     7
 10
-3.300013122978839
 20
9.7000000000001432
 30
0.0
 40
0.3
 50
0.0
 51
90.0
  0
LINE
  5
1A63
  8
0
  6
CONTINUOUS
 62
     7
 10
2.999986877021243
 20
-9.7000000000000526
 30
0.0
 11
2.999986877021243
 21
-8.2999999999998764
 31
0.0
  0
ARC
  5
1A64
  8
0
  6
CONTINUOUS
 62
     7
 10
3.2999868770212402
 20
-8.2999999999998764
 30
0.0
 40
0.3
 50
90.0
 51
180.0
  0
LINE
  5
1A65
  8
0
  6
CONTINUOUS
 62
     7
 10
2.999986877021243
 20
8.2999999999998835
 30
0.0
 11
2.999986877021243
 21
9.7000000000001432
 31
0.0
  0
ARC
  5
1A66
  8
0
  6
CONTINUOUS
 62
     7
 10
3.2999868770211829
 20
9.7000000000001432
 30
0.0
 40
0.3
 50
90.0
 51
180.0
  0
LINE
  5
1A67
  8
0
  6
CONTINUOUS
 62
     7
 10
-3.3000131229787679
 20
7.9999999999998863
 30
0.0
 11
-6.0000131229787561
 21
7.9999999999998863
 31
0.0
  0
LINE
  5
1A68
  8
0
  6
CONTINUOUS
 62
     7
 10
-34.000013122978771
 20
7.9999999999998881
 30
0.0
 11
-36.700013122978767
 21
7.9999999999998881
 31
0.0
  0
ARC
  5
1A69
  8
0
  6
CONTINUOUS
 62
     7
 10
-36.700013122978767
 20
8.2999999999998852
 30
0.0
 40
0.3
 50
180.0
 51
270.0
  0
LINE
  5
1A6A
  8
0
  6
CONTINUOUS
 62
     7
 10
-43.300013122978768
 20
7.9999999999998881
 30
0.0
 11
-46.000013122978771
 21
7.9999999999998881
 31
0.0
  0
LINE
  5
1A6B
  8
0
  6
CONTINUOUS
 62
     7
 10
-54.000013122978771
 20
7.9999999999998881
 30
0.0
 11
-56.700013122978767
 21
7.9999999999998881
 31
0.0
  0
ARC
  5
1A6C
  8
0
  6
CONTINUOUS
 62
     7
 10
-56.700013122978767
 20
8.2999999999998852
 30
0.0
 40
0.3
 50
180.0
 51
270.0
  0
LINE
  5
1A6D
  8
0
  6
CONTINUOUS
 62
     7
 10
-63.300013122978811
 20
7.9999999999997753
 30
0.0
 11
-66.000013122978771
 21
7.9999999999998881
 31
0.0
  0
LINE
  5
1A6E
  8
0
  6
CONTINUOUS
 62
     7
 10
3.2999868770212402
 20
7.9999999999998863
 30
0.0
 11
5.9999868770212137
 21
7.9999999999998863
 31
0.0
  0
ARC
  5
1A6F
  8
0
  6
CONTINUOUS
 62
     7
 10
3.2999868770212402
 20
8.2999999999998835
 30
0.0
 40
0.3
 50
180.0
 51
270.0
  0
LINE
  5
1A70
  8
0
  6
CONTINUOUS
 62
     7
 10
-43.300013122978747
 20
-7.9999999999994067
 30
0.0
 11
-46.000013122978771
 21
-7.9999999999993152
 31
0.0
  0
LINE
  5
1A71
  8
0
  6
CONTINUOUS
 62
     7
 10
-54.000013122978771
 20
-7.9999999999997691
 30
0.0
 11
-56.700013122978802
 21
-7.999999999999968
 31
0.0
  0
ARC
  5
1A72
  8
0
  6
CONTINUOUS
 62
     7
 10
-56.700013122978781
 20
-8.2999999999999599
 30
0.0
 40
0.3
 50
90.000000000004064
 51
179.99999999999631
  0
LINE
  5
1A73
  8
0
  6
CONTINUOUS
 62
     7
 10
-63.300013122978768
 20
-7.9999999999998757
 30
0.0
 11
-66.000013122978771
 21
-7.9999999999998757
 31
0.0
  0
LINE
  5
1A74
  8
0
  6
CONTINUOUS
 62
     7
 10
-36.700013122978781
 20
-7.9999999999998757
 30
0.0
 11
-34.000013122978771
 21
-7.9999999999998757
 31
0.0
  0
ARC
  5
1A75
  8
0
  6
CONTINUOUS
 62
     7
 10
-36.700013122978781
 20
-8.2999999999998746
 30
0.0
 40
0.3
 50
90.0
 51
180.0
  0
LINE
  5
1A76
  8
0
  6
CONTINUOUS
 62
     7
 10
-6.0000131229787561
 20
-7.9999999999998792
 30
0.0
 11
-3.3000131229787679
 21
-7.9999999999998792
 31
0.0
  0
LINE
  5
1A77
  8
0
  6
CONTINUOUS
 62
     7
 10
3.2999868770212402
 20
-7.9999999999998792
 30
0.0
 11
5.9999868770212137
 21
-7.9999999999998792
 31
0.0
  0
LINE
  5
1A78
  8
0
  6
CONTINUOUS
 62
     7
 10
-66.000013122978771
 20
7.9999999999998881
 30
0.0
 11
-66.000013122978771
 21
7.0606434999998706
 31
0.0
  0
LINE
  5
1A79
  8
0
  6
CONTINUOUS
 62
     7
 10
-66.000013122978771
 20
-7.060651499998972
 30
0.0
 11
-66.000013122978771
 21
-7.9999999999998757
 31
0.0
  0
LINE
  5
1A7A
  8
0
  6
CONTINUOUS
 62
     7
 10
-54.000013122978771
 20
7.9999999999998881
 30
0.0
 11
-54.000013122978771
 21
7.0606689999998817
 31
0.0
  0
LINE
  5
1A7B
  8
0
  6
CONTINUOUS
 62
     7
 10
-52.000013122978892
 20
7.6999999999998199
 30
0.0
 11
-52.000013122978892
 21
7.063616525186605
 31
0.0
  0
ARC
  5
1A7C
  8
0
  6
CONTINUOUS
 62
     7
 10
-52.30001312297896
 20
7.063616525186605
 30
0.0
 40
0.3
 50
314.99999707088341
 51
0.0
  0
ARC
  5
1A7D
  8
0
  6
CONTINUOUS
 62
     7
 10
-51.700013122978817
 20
7.6999999999998199
 30
0.0
 40
0.3
 50
90.0
 51
180.0
  0
LINE
  5
1A7E
  8
0
  6
CONTINUOUS
 62
     7
 10
-54.000013122978771
 20
-7.0606769999983801
 30
0.0
 11
-54.000013122978771
 21
-7.9999999999997691
 31
0.0
  0
LINE
  5
1A7F
  8
0
  6
CONTINUOUS
 62
     7
 10
-52.000013122978778
 20
-7.063597269996297
 30
0.0
 11
-52.000013122978778
 21
-7.700000000000049
 31
0.0
  0
ARC
  5
1A80
  8
0
  6
CONTINUOUS
 62
     7
 10
-52.300013122978839
 20
-7.063597269996297
 30
0.0
 40
0.3
 50
0.0
 51
45.00005525169346
  0
LINE
  5
1A81
  8
0
  6
CONTINUOUS
 62
     7
 10
-46.000013122978771
 20
7.9999999999998881
 30
0.0
 11
-46.000013122978771
 21
7.0606494870376251
 31
0.0
  0
LINE
  5
1A82
  8
0
  6
CONTINUOUS
 62
     7
 10
-48.000013122978771
 20
7.6999999999999478
 30
0.0
 11
-48.000013122978771
 21
7.0635931251306401
 31
0.0
  0
ARC
  5
1A83
  8
0
  6
CONTINUOUS
 62
     7
 10
-48.300013122978839
 20
7.6999999999999478
 30
0.0
 40
0.3
 50
0.0
 51
90.0
  0
LINE
  5
1A84
  8
0
  6
CONTINUOUS
 62
     7
 10
-46.000013122978771
 20
-7.0606515370894813
 30
0.0
 11
-46.000013122978771
 21
-7.9999999999993152
 31
0.0
  0
LINE
  5
1A85
  8
0
  6
CONTINUOUS
 62
     7
 10
-48.000013122978771
 20
-7.0635951751825168
 30
0.0
 11
-48.000013122978771
 21
-7.700000000000049
 31
0.0
  0
ARC
  5
1A86
  8
0
  6
CONTINUOUS
 62
     7
 10
-47.700013122978817
 20
-7.0635951751825168
 30
0.0
 40
0.3
 50
134.99999707088341
 51
180.0
  0
ARC
  5
1A87
  8
0
  6
CONTINUOUS
 62
     7
 10
-48.300013122978839
 20
-7.700000000000049
 30
0.0
 40
0.3
 50
270.0
 51
0.0
  0
LINE
  5
1A88
  8
0
  6
CONTINUOUS
 62
     7
 10
-34.000013122978771
 20
7.9999999999998881
 30
0.0
 11
-34.000013122978771
 21
7.0606506870609733
 31
0.0
  0
LINE
  5
1A89
  8
0
  6
CONTINUOUS
 62
     7
 10
-32.000013122978771
 20
7.6999999999999478
 30
0.0
 11
-32.000013122978771
 21
7.0635943251538738
 31
0.0
  0
ARC
  5
1A8A
  8
0
  6
CONTINUOUS
 62
     7
 10
-31.70001312297882
 20
7.6999999999999478
 30
0.0
 40
0.3
 50
90.0
 51
180.0
  0
LINE
  5
1A8B
  8
0
  6
CONTINUOUS
 62
     7
 10
-34.000013122978771
 20
-7.0606570870141887
 30
0.0
 11
-34.000013122978771
 21
-7.9999999999998757
 31
0.0
  0
LINE
  5
1A8C
  8
0
  6
CONTINUOUS
 62
     7
 10
-32.000013122978771
 20
-7.0636007251071051
 30
0.0
 11
-32.000013122978771
 21
-7.700000000000049
 31
0.0
  0
ARC
  5
1A8D
  8
0
  6
CONTINUOUS
 62
     7
 10
-32.300013122978839
 20
-7.0636007251071051
 30
0.0
 40
0.3
 50
0.0
 51
45.000002929125507
  0
LINE
  5
1A8E
  8
0
  6
CONTINUOUS
 62
     7
 10
-6.0000131229787561
 20
7.9999999999998863
 30
0.0
 11
-6.0000131229787561
 21
7.0606690600205857
 31
0.0
  0
LINE
  5
1A8F
  8
0
  6
CONTINUOUS
 62
     7
 10
-8.0000131229787552
 20
7.6999999999999451
 30
0.0
 11
-8.0000131229787552
 21
7.0636126981136149
 31
0.0
  0
ARC
  5
1A90
  8
0
  6
CONTINUOUS
 62
     7
 10
-7.70001312297883
 20
7.0636126981136149
 30
0.0
 40
0.3
 50
180.0
 51
225.00000292912549
  0
ARC
  5
1A91
  8
0
  6
CONTINUOUS
 62
     7
 10
-8.3000131229788394
 20
7.6999999999999451
 30
0.0
 40
0.3
 50
0.0
 51
90.0
  0
LINE
  5
1A92
  8
0
  6
CONTINUOUS
 62
     7
 10
-6.0000131229787561
 20
-7.0606582100613524
 30
0.0
 11
-6.0000131229787561
 21
-7.9999999999998792
 31
0.0
  0
LINE
  5
1A93
  8
0
  6
CONTINUOUS
 62
     7
 10
-8.0000131229787552
 20
-7.0636018481544687
 30
0.0
 11
-8.0000131229787552
 21
-7.7000000000000517
 31
0.0
  0
ARC
  5
1A94
  8
0
  6
CONTINUOUS
 62
     7
 10
-7.70001312297883
 20
-7.0636018481544687
 30
0.0
 40
0.3
 50
134.99999707087451
 51
180.0
  0
ARC
  5
1A95
  8
0
  6
CONTINUOUS
 62
     7
 10
-8.3000131229788394
 20
-7.7000000000000517
 30
0.0
 40
0.3
 50
270.0
 51
0.0
  0
LINE
  5
1A96
  8
0
  6
CONTINUOUS
 62
     7
 10
5.9999868770212137
 20
7.9999999999998863
 30
0.0
 11
5.9999868770212137
 21
7.0606440140890072
 31
0.0
  0
LINE
  5
1A97
  8
0
  6
CONTINUOUS
 62
     7
 10
5.9999868770212137
 20
-7.0606375140314341
 30
0.0
 11
5.9999868770212137
 21
-7.9999999999998792
 31
0.0
  0
LINE
  5
1A98
  8
0
  6
CONTINUOUS
 62
     7
 10
-68.300013122978768
 20
3.0000000000000022
 30
0.0
 11
-69.700013122978817
 21
3.0000000000000022
 31
0.0
  0
ARC
  5
1A99
  8
0
  6
CONTINUOUS
 62
     7
 10
-69.700013122978817
 20
3.2999999999999572
 30
0.0
 40
0.3
 50
180.0
 51
270.0
  0
LINE
  5
1A9A
  8
0
  6
CONTINUOUS
 62
     7
 10
8.2999868770212117
 20
3.0
 30
0.0
 11
9.6999868770210611
 21
3.0
 31
0.0
  0
ARC
  5
1A9B
  8
0
  6
CONTINUOUS
 62
     7
 10
8.2999868770212117
 20
3.2999999999999972
 30
0.0
 40
0.3
 50
180.00000000000199
 51
270.0
  0
ARC
  5
1A9C
  8
0
  6
CONTINUOUS
 62
     7
 10
9.6999868770210611
 20
3.2999999999999541
 30
0.0
 40
0.3
 50
270.0
 51
0.0
  0
ARC
  5
1A9E
  8
0
  6
CONTINUOUS
 62
     7
 10
-68.300013122978768
 20
-3.2999999999999869
 30
0.0
 40
0.3
 50
0.0
 51
90.000000000004064
  0
ARC
  5
1A9F
  8
0
  6
CONTINUOUS
 62
     7
 10
-69.700013122978817
 20
-3.300000000000058
 30
0.0
 40
0.3
 50
90.0
 51
180.0
  0
LINE
  5
1AA0
  8
0
  6
CONTINUOUS
 62
     7
 10
8.2999868770212242
 20
-3.0000000000000209
 30
0.0
 11
9.6999868770210611
 21
-3.0000000000001128
 31
0.0
  0
ARC
  5
1AA1
  8
0
  6
CONTINUOUS
 62
     7
 10
8.2999868770212117
 20
-3.3000000000000389
 30
0.0
 40
0.3
 50
89.999999999995936
 51
179.9999999999979
  0
LINE
  5
1AA2
  8
0
  6
CONTINUOUS
 62
     7
 10
-68.000013122978771
 20
6.0000000000000018
 30
0.0
 11
-67.060690122972289
 21
6.0000000000000018
 31
0.0
  0
LINE
  5
1AA3
  8
0
  6
CONTINUOUS
 62
     7
 10
7.0606691899597669
 20
6.0
 30
0.0
 11
7.9999868770211151
 21
6.0
 31
0.0
  0
LINE
  5
1AA4
  8
0
  6
CONTINUOUS
 62
     7
 10
7.9999868770211151
 20
-5.9999999999998792
 30
0.0
 11
7.0606711899233678
 21
-5.9999999999998792
 31
0.0
  0
LINE
  5
1AA5
  8
0
  6
CONTINUOUS
 62
     7
 10
-67.060682622980892
 20
-5.9999999999998757
 30
0.0
 11
-68.000013122978771
 21
-5.9999999999998757
 31
0.0
  0
LINE
  5
1AEC
  8
0
  6
CONTINUOUS
 62
     7
 10
-2.939354599978599
 20
-4.000000000000326
 30
0.0
 11
-0.6535781499992908
 21
-4.0000000000004903
 31
0.0
  0
LINE
  5
1AED
  8
0
  6
CONTINUOUS
 62
     7
 10
-2.9393437500175561
 20
3.9999999999996732
 30
0.0
 11
-2.4999881499988268
 21
3.9999999999996732
 31
0.0
  0
LINE
  5
1AEE
  8
0
  6
CONTINUOUS
 62
     7
 10
2.9393425499944348
 20
3.9999999999996732
 30
0.0
 11
0.6536008500006858
 21
3.9999999999997722
 31
0.0
  0
LINE
  5
1AEF
  8
0
  6
CONTINUOUS
 62
     7
 10
2.5000118499999782
 20
-4.000000000000326
 30
0.0
 11
2.9393490500522002
 21
-3.9999999999997722
 31
0.0
  0
LINE
  5
1AF0
  8
0
  6
CONTINUOUS
 62
     7
 10
0.4036008500006716
 20
3.9330129999998031
 30
0.0
 11
0.0000108500006633
 21
3.699999999999803
 31
0.0
  0
LINE
  5
1AF1
  8
0
  6
CONTINUOUS
 62
     7
 10
0.0000108500006633
 20
3.699999999999803
 30
0.0
 11
-0.4035781499993476
 21
3.9330129999998031
 31
0.0
  0
LINE
  5
1AF2
  8
0
  6
CONTINUOUS
 62
     7
 10
-0.9035781499992907
 20
3.9330129999998031
 30
0.0
 11
-1.2188741499993361
 21
3.750976999999807
 31
0.0
  0
LINE
  5
1AF3
  8
0
  6
CONTINUOUS
 62
     7
 10
-1.2188741499993361
 20
3.750976999999807
 30
0.0
 11
-2.4999881499988268
 21
3.9999999999996732
 31
0.0
  0
ARC
  5
1AF4
  8
0
  6
CONTINUOUS
 62
     7
 10
-0.6535781499992908
 20
3.499999999999801
 30
0.0
 40
0.5
 50
60.000000000000071
 51
119.9999999999999
  0
ARC
  5
1AF5
  8
0
  6
CONTINUOUS
 62
     7
 10
0.6536008500006716
 20
3.499999999999801
 30
0.0
 40
0.5
 50
89.999999999996746
 51
119.9999999999999
  0
LINE
  5
1AF6
  8
0
  6
CONTINUOUS
 62
     7
 10
0.4036008500006716
 20
-3.9330130000004431
 30
0.0
 11
0.0000108500006633
 21
-3.7000000000004429
 31
0.0
  0
LINE
  5
1AF7
  8
0
  6
CONTINUOUS
 62
     7
 10
0.0000108500006633
 20
-3.7000000000004429
 30
0.0
 11
-0.4035781499993476
 21
-3.9330130000004431
 31
0.0
  0
LINE
  5
1AF8
  8
0
  6
CONTINUOUS
 62
     7
 10
2.5000118499999782
 20
-4.000000000000326
 30
0.0
 11
1.2188968500006601
 21
-3.7509760000004411
 31
0.0
  0
ARC
  5
1AF9
  8
0
  6
CONTINUOUS
 62
     7
 10
-0.6535781499992908
 20
-3.5000000000004401
 30
0.0
 40
0.5
 50
269.99999999999841
 51
299.99999999999989
  0
ARC
  5
1AFA
  8
0
  6
CONTINUOUS
 62
     7
 10
0.6536008500006716
 20
-3.5000000000004401
 30
0.0
 40
0.5
 50
240.00000000000011
 51
299.99999999999989
  0
LINE
  5
1AFB
  8
0
  6
CONTINUOUS
 62
     7
 10
1.2188968500006601
 20
-3.7509760000004411
 30
0.0
 11
0.9036008500006715
 21
-3.9330130000004431
 31
0.0
  0
LINE
  5
1AFC
  8
0
  6
CONTINUOUS
 62
     7
 10
-42.939361272950933
 20
-3.9999999999997691
 30
0.0
 11
-40.653584822972142
 21
-4.0000000000004867
 31
0.0
  0
LINE
  5
1AFD
  8
0
  6
CONTINUOUS
 62
     7
 10
-42.939363323002681
 20
3.9999999999998881
 30
0.0
 11
-42.499994822971679
 21
3.9999999999996749
 31
0.0
  0
LINE
  5
1AFE
  8
0
  6
CONTINUOUS
 62
     7
 10
-37.060664122978423
 20
3.9999999999996749
 30
0.0
 11
-39.346405822972159
 21
3.9999999999997748
 31
0.0
  0
LINE
  5
1AFF
  8
0
  6
CONTINUOUS
 62
     7
 10
-37.49999482297288
 20
-4.0000000000003242
 30
0.0
 11
-37.060670522932469
 21
-3.9999999999997691
 31
0.0
  0
LINE
  5
1B00
  8
0
  6
CONTINUOUS
 62
     7
 10
-39.59640582297218
 20
3.9330129999998058
 30
0.0
 11
-39.999995822972181
 21
3.6999999999998061
 31
0.0
  0
LINE
  5
1B01
  8
0
  6
CONTINUOUS
 62
     7
 10
-39.999995822972181
 20
3.6999999999998061
 30
0.0
 11
-40.403584822972199
 21
3.9330129999998058
 31
0.0
  0
LINE
  5
1B02
  8
0
  6
CONTINUOUS
 62
     7
 10
-40.903584822972142
 20
3.9330129999998058
 30
0.0
 11
-41.218880822972203
 21
3.7509769999998088
 31
0.0
  0
LINE
  5
1B03
  8
0
  6
CONTINUOUS
 62
     7
 10
-41.218880822972203
 20
3.7509769999998088
 30
0.0
 11
-42.499994822971679
 21
3.9999999999996749
 31
0.0
  0
ARC
  5
1B04
  8
0
  6
CONTINUOUS
 62
     7
 10
-40.653584822972142
 20
3.4999999999998028
 30
0.0
 40
0.5
 50
60.000000000000021
 51
119.9999999999999
  0
ARC
  5
1B05
  8
0
  6
CONTINUOUS
 62
     7
 10
-39.34640582297218
 20
3.4999999999998028
 30
0.0
 40
0.5
 50
89.999999999996746
 51
119.9999999999999
  0
LINE
  5
1B06
  8
0
  6
CONTINUOUS
 62
     7
 10
-39.59640582297218
 20
-3.93301300000044
 30
0.0
 11
-39.999995822972181
 21
-3.7000000000004398
 31
0.0
  0
LINE
  5
1B07
  8
0
  6
CONTINUOUS
 62
     7
 10
-39.999995822972181
 20
-3.7000000000004398
 30
0.0
 11
-40.403584822972199
 21
-3.93301300000044
 31
0.0
  0
LINE
  5
1B08
  8
0
  6
CONTINUOUS
 62
     7
 10
-37.49999482297288
 20
-4.0000000000003242
 30
0.0
 11
-38.781109822972212
 21
-3.7509760000004388
 31
0.0
  0
ARC
  5
1B09
  8
0
  6
CONTINUOUS
 62
     7
 10
-40.653584822972142
 20
-3.500000000000437
 30
0.0
 40
0.5
 50
269.99999999999841
 51
300.0
  0
ARC
  5
1B0A
  8
0
  6
CONTINUOUS
 62
     7
 10
-39.34640582297218
 20
-3.500000000000437
 30
0.0
 40
0.5
 50
240.0
 51
300.0
  0
LINE
  5
1B0B
  8
0
  6
CONTINUOUS
 62
     7
 10
-38.781109822972212
 20
-3.7509760000004388
 30
0.0
 11
-39.09640582297218
 21
-3.93301300000044
 31
0.0
  0
LINE
  5
1B0C
  8
0
  6
CONTINUOUS
 62
     7
 10
3.9999912770494599
 20
2.9393224000304521
 30
0.0
 11
3.9999912770494599
 21
2.5000010000000681
 31
0.0
  0
LINE
  5
1B0D
  8
0
  6
CONTINUOUS
 62
     7
 10
3.999991277049403
 20
-2.9393204000673352
 30
0.0
 11
3.9999912770494168
 21
-0.6535899999996248
 31
0.0
  0
LINE
  5
1B0E
  8
0
  6
CONTINUOUS
 62
     7
 10
3.9330032770494512
 20
0.4035890000003662
 30
0.0
 11
3.6999912770494201
 21
0.0000000000003766
 31
0.0
  0
LINE
  5
1B0F
  8
0
  6
CONTINUOUS
 62
     7
 10
3.9999912770494599
 20
2.5000010000000681
 30
0.0
 11
3.750967277049412
 21
1.2188860000003381
 31
0.0
  0
ARC
  5
1B10
  8
0
  6
CONTINUOUS
 62
     7
 10
3.4999912770495172
 20
0.6535890000004585
 30
0.0
 40
0.5
 50
329.99999999999989
 51
29.999999999999019
  0
LINE
  5
1B11
  8
0
  6
CONTINUOUS
 62
     7
 10
3.750967277049412
 20
1.2188860000003381
 30
0.0
 11
3.9330032770494512
 21
0.9035890000003661
 31
0.0
  0
LINE
  5
1B12
  8
0
  6
CONTINUOUS
 62
     7
 10
3.9330032770494512
 20
-0.4035899999996247
 30
0.0
 11
3.6999912770494201
 21
0.0000000000003766
 31
0.0
  0
ARC
  5
1B13
  8
0
  6
CONTINUOUS
 62
     7
 10
3.4999912770494879
 20
-0.6535899999996248
 30
0.0
 40
0.5
 50
359.9999999999992
 51
29.999999999999019
  0
LINE
  5
1B75
  8
0
  6
CONTINUOUS
 62
     7
 10
-52.087881099467772
 20
6.8514844799858734
 30
0.0
 11
-56.000013122978757
 21
2.9393401000000692
 31
0.0
  0
LINE
  5
1B76
  8
0
  6
CONTINUOUS
 62
     7
 10
-54.000013122978828
 20
7.0606689999998293
 30
0.0
 11
-57.060682322978799
 21
3.9999999999999738
 31
0.0
  0
LINE
  5
1B77
  8
0
  6
CONTINUOUS
 62
     7
 10
-67.060690122972289
 20
6.0000000000000027
 30
0.0
 11
-64.000013122978785
 21
2.9393296500225952
 31
0.0
  0
LINE
  5
1B78
  8
0
  6
CONTINUOUS
 62
     7
 10
-66.000013122978729
 20
7.0606434999998289
 30
0.0
 11
-62.939369672978749
 21
3.9999999999999738
 31
0.0
  0
LINE
  5
1B79
  8
0
  6
CONTINUOUS
 62
     7
 10
-52.09022427996468
 20
-6.8491476457327414
 30
0.0
 11
-56.000013122978757
 21
-2.9393481999999591
 31
0.0
  0
LINE
  5
1B7A
  8
0
  6
CONTINUOUS
 62
     7
 10
-67.060682622980906
 20
-5.9999999999998757
 30
0.0
 11
-64.000013122978729
 21
-2.93933724999992
 31
0.0
  0
LINE
  5
1B7B
  8
0
  6
CONTINUOUS
 62
     7
 10
-66.000013122978771
 20
-7.060651499998972
 30
0.0
 11
-62.939362022978493
 21
-4.0000000000000249
 31
0.0
  0
LINE
  5
1B7C
  8
0
  6
CONTINUOUS
 62
     7
 10
-54.000013122978771
 20
-7.0606769999983801
 30
0.0
 11
-57.060690422979562
 21
-4.0000000000000249
 31
0.0
  0
LINE
  5
1B7D
  8
0
  6
CONTINUOUS
 62
     7
 10
-64.000013122978785
 20
2.9393296500225952
 30
0.0
 11
-64.000013122978729
 21
0.6535900000000109
 31
0.0
  0
LINE
  5
1B7F
  8
0
  6
CONTINUOUS
 62
     7
 10
-62.939369672978749
 20
3.9999999999999738
 30
0.0
 11
-62.500012122979072
 21
3.9999999999999738
 31
0.0
  0
LINE
  5
1B80
  8
0
  6
CONTINUOUS
 62
     7
 10
-62.939362022978493
 20
-4.0000000000000249
 30
0.0
 11
-60.653602122978739
 21
-4.0000000000000249
 31
0.0
  0
LINE
  5
1B81
  8
0
  6
CONTINUOUS
 62
     7
 10
-59.346423122978777
 20
3.9999999999999738
 30
0.0
 11
-57.060682322978799
 21
3.9999999999999738
 31
0.0
  0
LINE
  5
1B82
  8
0
  6
CONTINUOUS
 62
     7
 10
-56.000013122978757
 20
2.9393401000000692
 30
0.0
 11
-56.000013122978757
 21
-2.9393481999999591
 31
0.0
  0
LINE
  5
1B83
  8
0
  6
CONTINUOUS
 62
     7
 10
-57.500012122978688
 20
-4.0000000000000249
 30
0.0
 11
-57.060690422979562
 21
-4.0000000000000249
 31
0.0
  0
LINE
  5
1B84
  8
0
  6
CONTINUOUS
 62
     7
 10
-64.000013122978729
 20
-2.5000009999997599
 30
0.0
 11
-64.000013122978729
 21
-2.93933724999992
 31
0.0
  0
LINE
  5
1B85
  8
0
  6
CONTINUOUS
 62
     7
 10
-59.59642312297877
 20
3.9330129999999621
 30
0.0
 11
-60.000013122978771
 21
3.6999999999999909
 31
0.0
  0
LINE
  5
1B86
  8
0
  6
CONTINUOUS
 62
     7
 10
-60.000013122978771
 20
3.6999999999999909
 30
0.0
 11
-60.403602122978782
 21
3.9330129999999621
 31
0.0
  0
LINE
  5
1B87
  8
0
  6
CONTINUOUS
 62
     7
 10
-60.903602122978732
 20
3.9330129999999621
 30
0.0
 11
-61.218898122978771
 21
3.7509769999999731
 31
0.0
  0
LINE
  5
1B88
  8
0
  6
CONTINUOUS
 62
     7
 10
-61.218898122978771
 20
3.7509769999999731
 30
0.0
 11
-62.500012122979072
 21
3.9999999999999738
 31
0.0
  0
ARC
  5
1B89
  8
0
  6
CONTINUOUS
 62
     7
 10
-60.653602122978718
 20
3.4999999999999241
 30
0.0
 40
0.5
 50
60.0
 51
120.0
  0
ARC
  5
1B8A
  8
0
  6
CONTINUOUS
 62
     7
 10
-59.346423122978777
 20
3.4999999999999241
 30
0.0
 40
0.5
 50
90.0
 51
120.0
  0
LINE
  5
1B8B
  8
0
  6
CONTINUOUS
 62
     7
 10
-63.933025122978748
 20
-0.4035890000000084
 30
0.0
 11
-63.700013122978731
 21
0.0000000000000024
 31
0.0
  0
LINE
  5
1B8C
  8
0
  6
CONTINUOUS
 62
     7
 10
-64.000013122978729
 20
-2.5000009999997599
 30
0.0
 11
-63.750989122978709
 21
-1.2188859999999879
 31
0.0
  0
ARC
  5
1B8D
  8
0
  6
CONTINUOUS
 62
     7
 10
-63.500013122978778
 20
-0.6535890000000084
 30
0.0
 40
0.5
 50
149.9999999999992
 51
210.00000000000071
  0
LINE
  5
1B8E
  8
0
  6
CONTINUOUS
 62
     7
 10
-63.750989122978709
 20
-1.2188859999999879
 30
0.0
 11
-63.933025122978748
 21
-0.9035890000000083
 31
0.0
  0
LINE
  5
1B8F
  8
0
  6
CONTINUOUS
 62
     7
 10
-63.933025122978748
 20
0.4035900000000109
 30
0.0
 11
-63.700013122978731
 21
0.0000000000000024
 31
0.0
  0
ARC
  5
1B90
  8
0
  6
CONTINUOUS
 62
     7
 10
-63.500013122978778
 20
0.6535900000000109
 30
0.0
 40
0.5
 50
180.0000000000008
 51
210.00000000000071
  0
LINE
  5
1B91
  8
0
  6
CONTINUOUS
 62
     7
 10
-59.59642312297877
 20
-3.9330129999999781
 30
0.0
 11
-60.000013122978771
 21
-3.7000000000000002
 31
0.0
  0
LINE
  5
1B92
  8
0
  6
CONTINUOUS
 62
     7
 10
-60.000013122978771
 20
-3.7000000000000002
 30
0.0
 11
-60.403602122978782
 21
-3.9330129999999781
 31
0.0
  0
LINE
  5
1B93
  8
0
  6
CONTINUOUS
 62
     7
 10
-57.500012122978688
 20
-4.0000000000000249
 30
0.0
 11
-58.781127122978774
 21
-3.7509759999999912
 31
0.0
  0
ARC
  5
1B94
  8
0
  6
CONTINUOUS
 62
     7
 10
-60.653602122978718
 20
-3.5000000000000249
 30
0.0
 40
0.5
 50
270.0
 51
300.0
  0
ARC
  5
1B95
  8
0
  6
CONTINUOUS
 62
     7
 10
-59.346423122978777
 20
-3.5000000000000249
 30
0.0
 40
0.5
 50
240.0
 51
300.0
  0
LINE
  5
1B96
  8
0
  6
CONTINUOUS
 62
     7
 10
-58.781127122978774
 20
-3.7509759999999912
 30
0.0
 11
-59.096423122978727
 21
-3.9330129999999781
 31
0.0
  0
LINE
  5
1BAF
  8
0
  6
CONTINUOUS
 62
     7
 10
36.557570000878513
 20
9.9999999999999716
 30
0.0
 11
86.557570000878499
 21
9.9999999999999716
 31
0.0
  0
LINE
  5
1BB0
  8
0
  6
CONTINUOUS
 62
     7
 10
36.557570000878513
 20
2.9999999400001141
 30
0.0
 11
86.557570000878499
 21
2.9999999400001141
 31
0.0
  0
LINE
  5
1BB1
  8
0
  6
CONTINUOUS
 62
     7
 10
36.557570000878513
 20
0.0
 30
0.0
 11
86.557570000878499
 21
0.0
 31
0.0
  0
LINE
  5
1BB2
  8
0
  6
CONTINUOUS
 62
     7
 10
36.557570000878513
 20
1.218885999999997
 30
0.0
 11
86.557570000878499
 21
1.218885999999997
 31
0.0
  0
LINE
  5
1BB3
  8
0
  6
CONTINUOUS
 62
     7
 10
36.557570000878513
 20
2.500000999999819
 30
0.0
 11
86.557570000878499
 21
2.500000999999819
 31
0.0
  0
LINE
  5
1BB4
  8
0
  6
CONTINUOUS
 62
     7
 10
36.557570000878513
 20
-2.9999999999999072
 30
0.0
 11
86.557570000878499
 21
-2.9999999999999072
 31
0.0
  0
LINE
  5
1BB5
  8
0
  6
CONTINUOUS
 62
     7
 10
36.557570000878513
 20
-9.9999999999999361
 30
0.0
 11
86.557570000878499
 21
-9.9999999999999361
 31
0.0
  0
LINE
  5
1BB6
  8
0
  6
CONTINUOUS
 62
     7
 10
36.557570000878513
 20
9.9999999999999716
 30
0.0
 11
36.557570000878513
 21
-9.9999999999999361
 31
0.0
  0
LINE
  5
1BB7
  8
0
  6
CONTINUOUS
 62
     7
 10
86.557570000878499
 20
9.9999999999999716
 30
0.0
 11
86.557570000878499
 21
-9.9999999999999361
 31
0.0
  0
LINE
  5
1BB8
  8
CENTER
  6
CENTER
 62
     1
 10
34.55757000087852
 20
0.0
 30
0.0
 11
88.557570000878513
 21
0.0
 31
0.0
  0
INSERT
  5
1BB9
  8
0
  6
CONTINUOUS
 62
     7
  2
*U20
 10
0.0
 20
0.0
 30
0.0
  0
INSERT
  5
1BBA
  8
0
  6
CONTINUOUS
 62
     7
  2
*U21
 10
0.0
 20
0.0
 30
0.0
  0
LINE
  5
1BBC
  8
CENTER
  6
CENTER
 62
     1
 10
-72.000013122978814
 20
0.0000000000000023
 30
0.0
 11
11.999986877021129
 21
0.0
 31
0.0
  0
LINE
  5
1BC4
  8
CENTER
  6
CENTER
 62
     1
 10
-60.000026647986928
 20
11.99999999999986
 30
0.0
 11
-60.000026647986928
 21
-11.999999999999909
 31
0.0
  0
LINE
  5
1BCC
  8
CENTER
  6
CENTER
 62
     1
 10
-40.000013122978778
 20
11.99999999999986
 30
0.0
 11
-40.000013122978778
 21
-11.999999999999909
 31
0.0
  0
LINE
  5
1BD4
  8
CENTER
  6
CENTER
 62
     1
 10
0.0
 20
11.999999999999851
 30
0.0
 11
0.0
 21
-11.99999999999992
 31
0.0
  0
LINE
  5
1C20
  8
0
  6
CONTINUOUS
 62
     7
 10
-30.000013122978849
 20
-9.9999999999999911
 30
0.0
 11
-23.300013122978839
 21
-10.000000000000099
 31
0.0
  0
ARC
  5
1C21
  8
0
  6
CONTINUOUS
 62
     7
 10
-23.300013122978839
 20
-9.7000000000001645
 30
0.0
 40
0.3
 50
270.0
 51
0.0
  0
LINE
  5
1C22
  8
0
  6
CONTINUOUS
 62
     7
 10
-30.000013122978832
 20
-7.9999999999999973
 30
0.0
 11
-28.300013122978839
 21
-7.9999999999999973
 31
0.0
  0
LINE
  5
1C23
  8
0
  6
CONTINUOUS
 62
     7
 10
-16.70001312297882
 20
-10.000000000000099
 30
0.0
 11
-3.3000131229787111
 21
-10.000000000000099
 31
0.0
  0
ARC
  5
1C24
  8
0
  6
CONTINUOUS
 62
     7
 10
-16.70001312297882
 20
-9.7000000000001645
 30
0.0
 40
0.3
 50
180.0
 51
270.0
  0
LINE
  5
1C25
  8
0
  6
CONTINUOUS
 62
     7
 10
-11.70001312297881
 20
-7.9999999999999973
 30
0.0
 11
-8.3000131229788394
 21
-7.9999999999999973
 31
0.0
  0
ARC
  5
1C26
  8
0
  6
CONTINUOUS
 62
     7
 10
-11.70001312297881
 20
-7.700000000000049
 30
0.0
 40
0.3
 50
180.0
 51
270.0
  0
LINE
  5
1C27
  8
0
  6
CONTINUOUS
 62
     7
 10
-30.000013122978839
 20
9.9999999999999467
 30
0.0
 11
-23.300013122978839
 21
10.0
 31
0.0
  0
LINE
  5
1C28
  8
0
  6
CONTINUOUS
 62
     7
 10
-30.000013122978832
 20
7.9999999999998304
 30
0.0
 11
-28.300013122978839
 21
7.9999999999998881
 31
0.0
  0
LINE
  5
1C29
  8
0
  6
CONTINUOUS
 62
     7
 10
-16.70001312297882
 20
10.0
 30
0.0
 11
-3.3000131229788421
 21
10.00000000000013
 31
0.0
  0
LINE
  5
1C2A
  8
0
  6
CONTINUOUS
 62
     7
 10
-11.70001312297881
 20
7.9999999999998881
 30
0.0
 11
-8.3000131229788394
 21
7.9999999999998881
 31
0.0
  0
LINE
  5
1C2B
  8
0
  6
CONTINUOUS
 62
     7
 10
-26.000013122978771
 20
7.0606494870376073
 30
0.0
 11
-22.939363323002681
 21
3.9999999999998881
 31
0.0
  0
LINE
  5
1C2C
  8
0
  6
CONTINUOUS
 62
     7
 10
-27.91214514649004
 20
6.8514610799298792
 30
0.0
 11
-24.000013122978771
 21
2.9393294564172612
 31
0.0
  0
ARC
  5
1C2D
  8
0
  6
CONTINUOUS
 62
     7
 10
-27.70001312297882
 20
7.0635931251306401
 30
0.0
 40
0.3
 50
180.0
 51
225.00000292912549
  0
LINE
  5
1C2E
  8
0
  6
CONTINUOUS
 62
     7
 10
-14.000013122978769
 20
7.0606506870609733
 30
0.0
 11
-17.06066412297832
 21
3.9999999999997748
 31
0.0
  0
LINE
  5
1C2F
  8
0
  6
CONTINUOUS
 62
     7
 10
-12.087881099467721
 20
6.8514622799531271
 30
0.0
 11
-16.000013122978771
 21
2.9393306564408199
 31
0.0
  0
ARC
  5
1C30
  8
0
  6
CONTINUOUS
 62
     7
 10
-12.30001312297874
 20
7.0635943251538738
 30
0.0
 40
0.3
 50
314.99999707087449
 51
0.0
  0
LINE
  5
1C31
  8
0
  6
CONTINUOUS
 62
     7
 10
-16.000013122978771
 20
2.939330656440819
 30
0.0
 11
-16.000013122978771
 21
-2.9393370563939629
 31
0.0
  0
LINE
  5
1C32
  8
0
  6
CONTINUOUS
 62
     7
 10
-24.000013122978771
 20
2.9393294564172572
 30
0.0
 11
-24.000013122978771
 21
-2.9393180000025758
 31
0.0
  0
LINE
  5
1C33
  8
0
  6
CONTINUOUS
 62
     7
 10
-22.939361272950929
 20
-3.9999999999997691
 30
0.0
 11
-26.000013122978771
 21
-7.0606515370894813
 31
0.0
  0
LINE
  5
1C34
  8
0
  6
CONTINUOUS
 62
     7
 10
-24.000021390506848
 20
-2.9393397739960361
 30
0.0
 11
-27.91214514649004
 21
-6.851463129981763
 31
0.0
  0
LINE
  5
1C35
  8
0
  6
CONTINUOUS
 62
     7
 10
-17.060670522932469
 20
-3.9999999999997691
 30
0.0
 11
-14.000013122978769
 21
-7.060657087014353
 31
0.0
  0
LINE
  5
1C36
  8
0
  6
CONTINUOUS
 62
     7
 10
-16.000013122978771
 20
-2.9393370563939651
 30
0.0
 11
-12.087881099467721
 21
-6.8514686799063371
 31
0.0
  0
CIRCLE
  5
1C37
  8
0
  6
CONTINUOUS
 62
     7
 10
-20.000013122978789
 20
0.0000000000000024
 30
0.0
 40
2.099999899999998
  0
LINE
  5
1C38
  8
0
  6
CONTINUOUS
 62
     7
 10
-23.000013122978771
 20
-9.7000000000001645
 30
0.0
 11
-23.000013122978771
 21
-8.2999999999994127
 31
0.0
  0
ARC
  5
1C39
  8
0
  6
CONTINUOUS
 62
     7
 10
-23.300013122978768
 20
-8.2999999999994127
 30
0.0
 40
0.3
 50
0.0
 51
89.999999999997556
  0
LINE
  5
1C3A
  8
0
  6
CONTINUOUS
 62
     7
 10
-23.000013122978771
 20
8.2999999999998852
 30
0.0
 11
-23.000013122978771
 21
9.700000000000033
 31
0.0
  0
ARC
  5
1C3B
  8
0
  6
CONTINUOUS
 62
     7
 10
-23.300013122978768
 20
8.2999999999998852
 30
0.0
 40
0.3
 50
270.0
 51
0.0
  0
ARC
  5
1C3C
  8
0
  6
CONTINUOUS
 62
     7
 10
-23.300013122978839
 20
9.700000000000033
 30
0.0
 40
0.3
 50
0.0
 51
90.0
  0
LINE
  5
1C3D
  8
0
  6
CONTINUOUS
 62
     7
 10
-17.000013122978771
 20
-9.7000000000001645
 30
0.0
 11
-17.000013122978778
 21
-8.2999999999998746
 31
0.0
  0
LINE
  5
1C3E
  8
0
  6
CONTINUOUS
 62
     7
 10
-17.000013122978771
 20
8.2999999999998852
 30
0.0
 11
-17.000013122978771
 21
9.700000000000033
 31
0.0
  0
ARC
  5
1C3F
  8
0
  6
CONTINUOUS
 62
     7
 10
-16.70001312297882
 20
9.700000000000033
 30
0.0
 40
0.3
 50
90.0
 51
180.0
  0
LINE
  5
1C40
  8
0
  6
CONTINUOUS
 62
     7
 10
-14.000013122978769
 20
7.9999999999998881
 30
0.0
 11
-16.70001312297877
 21
7.9999999999998881
 31
0.0
  0
ARC
  5
1C41
  8
0
  6
CONTINUOUS
 62
     7
 10
-16.70001312297877
 20
8.2999999999998852
 30
0.0
 40
0.3
 50
180.0
 51
270.0
  0
LINE
  5
1C42
  8
0
  6
CONTINUOUS
 62
     7
 10
-23.300013122978768
 20
7.9999999999998881
 30
0.0
 11
-26.000013122978771
 21
7.9999999999998881
 31
0.0
  0
LINE
  5
1C43
  8
0
  6
CONTINUOUS
 62
     7
 10
-23.300013122978751
 20
-7.9999999999994067
 30
0.0
 11
-26.000013122978771
 21
-7.9999999999993152
 31
0.0
  0
LINE
  5
1C44
  8
0
  6
CONTINUOUS
 62
     7
 10
-16.700013122978781
 20
-7.9999999999998757
 30
0.0
 11
-14.000013122978769
 21
-7.9999999999998757
 31
0.0
  0
ARC
  5
1C45
  8
0
  6
CONTINUOUS
 62
     7
 10
-16.700013122978781
 20
-8.2999999999998746
 30
0.0
 40
0.3
 50
90.0
 51
180.0
  0
LINE
  5
1C46
  8
0
  6
CONTINUOUS
 62
     7
 10
-26.000013122978771
 20
7.9999999999998881
 30
0.0
 11
-26.000013122978771
 21
7.0606494870376251
 31
0.0
  0
LINE
  5
1C47
  8
0
  6
CONTINUOUS
 62
     7
 10
-28.000013122978771
 20
7.6999999999999478
 30
0.0
 11
-28.000013122978771
 21
7.0635931251306401
 31
0.0
  0
ARC
  5
1C48
  8
0
  6
CONTINUOUS
 62
     7
 10
-28.300013122978839
 20
7.6999999999999478
 30
0.0
 40
0.3
 50
0.0
 51
90.0
  0
LINE
  5
1C49
  8
0
  6
CONTINUOUS
 62
     7
 10
-26.000013122978771
 20
-7.0606515370894813
 30
0.0
 11
-26.000013122978771
 21
-7.9999999999993152
 31
0.0
  0
LINE
  5
1C4A
  8
0
  6
CONTINUOUS
 62
     7
 10
-28.000013122978771
 20
-7.0635951751825168
 30
0.0
 11
-28.000013122978771
 21
-7.700000000000049
 31
0.0
  0
ARC
  5
1C4B
  8
0
  6
CONTINUOUS
 62
     7
 10
-27.70001312297882
 20
-7.0635951751825168
 30
0.0
 40
0.3
 50
134.99999707088341
 51
180.0
  0
ARC
  5
1C4C
  8
0
  6
CONTINUOUS
 62
     7
 10
-28.300013122978839
 20
-7.700000000000049
 30
0.0
 40
0.3
 50
270.0
 51
0.0
  0
LINE
  5
1C4D
  8
0
  6
CONTINUOUS
 62
     7
 10
-14.000013122978769
 20
7.9999999999998881
 30
0.0
 11
-14.000013122978769
 21
7.0606506870609733
 31
0.0
  0
LINE
  5
1C4E
  8
0
  6
CONTINUOUS
 62
     7
 10
-12.000013122978769
 20
7.6999999999999478
 30
0.0
 11
-12.000013122978769
 21
7.0635943251538738
 31
0.0
  0
ARC
  5
1C4F
  8
0
  6
CONTINUOUS
 62
     7
 10
-11.70001312297881
 20
7.6999999999999478
 30
0.0
 40
0.3
 50
90.0
 51
180.0
  0
LINE
  5
1C50
  8
0
  6
CONTINUOUS
 62
     7
 10
-14.000013122978769
 20
-7.0606570870141887
 30
0.0
 11
-14.000013122978769
 21
-7.9999999999998757
 31
0.0
  0
LINE
  5
1C51
  8
0
  6
CONTINUOUS
 62
     7
 10
-12.000013122978769
 20
-7.0636007251071051
 30
0.0
 11
-12.000013122978769
 21
-7.700000000000049
 31
0.0
  0
ARC
  5
1C52
  8
0
  6
CONTINUOUS
 62
     7
 10
-12.300013122978839
 20
-7.0636007251071051
 30
0.0
 40
0.3
 50
0.0
 51
45.000002929125507
  0
LINE
  5
1C54
  8
0
  6
CONTINUOUS
 62
     7
 10
-22.939361272950929
 20
-3.9999999999997691
 30
0.0
 11
-20.653584822972139
 21
-4.0000000000004867
 31
0.0
  0
LINE
  5
1C55
  8
0
  6
CONTINUOUS
 62
     7
 10
-22.939363323002681
 20
3.9999999999998881
 30
0.0
 11
-22.499994822971679
 21
3.9999999999996749
 31
0.0
  0
LINE
  5
1C56
  8
0
  6
CONTINUOUS
 62
     7
 10
-17.060664122978419
 20
3.9999999999996749
 30
0.0
 11
-19.346405822972159
 21
3.9999999999997748
 31
0.0
  0
LINE
  5
1C57
  8
0
  6
CONTINUOUS
 62
     7
 10
-17.49999482297288
 20
-4.0000000000003242
 30
0.0
 11
-17.060670522932469
 21
-3.9999999999997691
 31
0.0
  0
LINE
  5
1C58
  8
0
  6
CONTINUOUS
 62
     7
 10
-19.59640582297218
 20
3.9330129999998058
 30
0.0
 11
-19.999995822972181
 21
3.6999999999998061
 31
0.0
  0
LINE
  5
1C59
  8
0
  6
CONTINUOUS
 62
     7
 10
-19.999995822972181
 20
3.6999999999998061
 30
0.0
 11
-20.403584822972199
 21
3.9330129999998058
 31
0.0
  0
LINE
  5
1C5A
  8
0
  6
CONTINUOUS
 62
     7
 10
-20.903584822972139
 20
3.9330129999998058
 30
0.0
 11
-21.218880822972199
 21
3.7509769999998088
 31
0.0
  0
LINE
  5
1C5B
  8
0
  6
CONTINUOUS
 62
     7
 10
-21.218880822972199
 20
3.7509769999998088
 30
0.0
 11
-22.499994822971679
 21
3.9999999999996749
 31
0.0
  0
ARC
  5
1C5C
  8
0
  6
CONTINUOUS
 62
     7
 10
-20.653584822972139
 20
3.4999999999998028
 30
0.0
 40
0.5
 50
60.0
 51
120.0
  0
ARC
  5
1C5D
  8
0
  6
CONTINUOUS
 62
     7
 10
-19.34640582297218
 20
3.4999999999998028
 30
0.0
 40
0.5
 50
89.999999999996746
 51
120.0
  0
LINE
  5
1C5E
  8
0
  6
CONTINUOUS
 62
     7
 10
-19.59640582297218
 20
-3.93301300000044
 30
0.0
 11
-19.999995822972181
 21
-3.7000000000004398
 31
0.0
  0
LINE
  5
1C5F
  8
0
  6
CONTINUOUS
 62
     7
 10
-19.999995822972181
 20
-3.7000000000004398
 30
0.0
 11
-20.403584822972199
 21
-3.93301300000044
 31
0.0
  0
LINE
  5
1C60
  8
0
  6
CONTINUOUS
 62
     7
 10
-17.49999482297288
 20
-4.0000000000003242
 30
0.0
 11
-18.781109822972201
 21
-3.7509760000004388
 31
0.0
  0
ARC
  5
1C61
  8
0
  6
CONTINUOUS
 62
     7
 10
-20.653584822972139
 20
-3.500000000000437
 30
0.0
 40
0.5
 50
269.99999999999841
 51
300.0
  0
ARC
  5
1C62
  8
0
  6
CONTINUOUS
 62
     7
 10
-19.34640582297218
 20
-3.500000000000437
 30
0.0
 40
0.5
 50
240.0
 51
300.0
  0
LINE
  5
1C63
  8
0
  6
CONTINUOUS
 62
     7
 10
-18.781109822972201
 20
-3.7509760000004388
 30
0.0
 11
-19.09640582297218
 21
-3.93301300000044
 31
0.0
  0
LINE
  5
1C64
  8
CENTER
  6
CENTER
 62
     1
 10
-20.000013122978789
 20
11.99999999999986
 30
0.0
 11
-20.000013122978789
 21
-11.999999999999909
 31
0.0
  0
LINE
  5
1C65
  8
0
  6
CONTINUOUS
 62
     7
 10
-69.700013122978817
 20
-3.0000000000000582
 30
0.0
 11
-68.300013122978783
 21
-2.9999999999999871
 31
0.0
  0
ENDSEC
  0
EOF
