999
dxfrw 0.6.3
  0
SECTION
  2
HEADER
  9
$ACADVER
  1
AC1021
  9
$DWGCODEPAGE
  3
ANSI_1252
  9
$INSBASE
 10
0
 20
0
 30
0
  9
$EXTMIN
 10
-24.5000008941
 20
-24.50000089404999
 30
0
  9
$EXTMAX
 10
118.3674857105905
 20
24.50000089415
 30
0
  9
$LIMMIN
 10
0
 20
0
  9
$LIMMAX
 10
420
 20
297
  9
$ORTHOMODE
 70
    0
  9
$REGENMODE
 70
    1
  9
$FILLMODE
 70
    1
  9
$QTEXTMODE
 70
    0
  9
$MIRRTEXT
 70
    0
  9
$LTSCALE
 40
1
  9
$ATTMODE
 70
    1
  9
$TEXTSIZE
 40
3
  9
$TRACEWID
 40
1
  9
$TEXTSTYLE
  7
STANDARD
  9
$CLAYER
  8
0
  9
$CELTYPE
  6
CONTINUOUS
  9
$CECOLOR
 62
    7
  9
$CELTSCALE
 40
1
  9
$DISPSILH
 70
    0
  9
$DIMSCALE
 40
1
  9
$DIMASZ
 40
2.5
  9
$DIMEXO
 40
0.625
  9
$DIMDLI
 40
3.75
  9
$DIMRND
 40
0
  9
$DIMDLE
 40
0
  9
$DIMEXE
 40
1.25
  9
$DIMTP
 40
0
  9
$DIMTM
 40
0
  9
$DIMTXT
 40
2.5
  9
$DIMCEN
 40
2.5
  9
$DIMTSZ
 40
0
  9
$DIMTOL
 70
    0
  9
$DIMLIM
 70
    0
  9
$DIMTIH
 70
    0
  9
$DIMTOH
 70
    0
  9
$DIMSE1
 70
    0
  9
$DIMSE2
 70
    0
  9
$DIMTAD
 70
    1
  9
$DIMZIN
 70
    8
  9
$DIMBLK
  1
OPEN30
  9
$DIMASO
 70
    1
  9
$DIMSHO
 70
    1
  9
$DIMPOST
  1

  9
$DIMAPOST
  1

  9
$DIMALT
 70
    0
  9
$DIMALTD
 70
    3
  9
$DIMALTF
 40
0.03937007874016
  9
$DIMLFAC
 40
1
  9
$DIMTOFL
 70
    1
  9
$DIMTVP
 40
0
  9
$DIMTIX
 70
    0
  9
$DIMSOXD
 70
    0
  9
$DIMSAH
 70
    0
  9
$DIMBLK1
  1

  9
$DIMBLK2
  1

  9
$DIMSTYLE
  2
MISUMI
  9
$DIMCLRD
 70
  137
  9
$DIMCLRE
 70
  137
  9
$DIMCLRT
 70
  137
  9
$DIMTFAC
 40
1
  9
$DIMGAP
 40
0.625
  9
$DIMJUST
 70
    0
  9
$DIMSD1
 70
    0
  9
$DIMSD2
 70
    0
  9
$DIMTOLJ
 70
    0
  9
$DIMTZIN
 70
    8
  9
$DIMALTZ
 70
    0
  9
$DIMALTTZ
 70
    0
  9
$DIMUPT
 70
    0
  9
$DIMDEC
 70
    4
  9
$DIMTDEC
 70
    2
  9
$DIMALTU
 70
    2
  9
$DIMALTTD
 70
    3
  9
$DIMTXSTY
  7
STANDARD
  9
$DIMAUNIT
 70
    0
  9
$DIMADEC
 70
    0
  9
$DIMALTRND
 40
0
  9
$DIMAZIN
 70
    0
  9
$DIMDSEP
 70
   44
  9
$DIMATFIT
 70
    3
  9
$DIMFRAC
 70
    0
  9
$DIMLDRBLK
  1
STANDARD
  9
$DIMLUNIT
 70
    2
  9
$DIMLWD
 70
   -2
  9
$DIMLWE
 70
   -2
  9
$DIMTMOVE
 70
    0
  9
$DIMFXL
 40
1
  9
$DIMFXLON
 70
    0
  9
$DIMJOGANG
 40
0.7854
  9
$DIMTFILL
 70
    0
  9
$DIMTFILLCLR
 70
    0
  9
$DIMARCSYM
 70
    0
  9
$DIMLTYPE
  6

  9
$DIMLTEX1
  6

  9
$DIMLTEX2
  6

  9
$LUNITS
 70
    2
  9
$LUPREC
 70
    2
  9
$SKETCHINC
 40
1
  9
$FILLETRAD
 40
0
  9
$AUNITS
 70
    0
  9
$AUPREC
 70
    0
  9
$MENU
  1
.
  9
$ELEVATION
 40
0
  9
$PELEVATION
 40
0
  9
$THICKNESS
 40
0
  9
$LIMCHECK
 70
    0
  9
$CHAMFERA
 40
0.5
  9
$CHAMFERB
 40
0.5
  9
$CHAMFERC
 40
0
  9
$CHAMFERD
 40
0
  9
$SKPOLY
 70
    0
  9
$USRTIMER
 70
    1
  9
$ANGBASE
 50
0
  9
$ANGDIR
 70
    0
  9
$PDMODE
 70
   35
  9
$PDSIZE
 40
0
  9
$PLINEWID
 40
0
  9
$SPLFRAME
 70
    0
  9
$SPLINETYPE
 70
    6
  9
$SPLINESEGS
 70
    8
  9
$HANDSEED
  5
20000
  9
$SURFTAB1
 70
    6
  9
$SURFTAB2
 70
    6
  9
$SURFTYPE
 70
    6
  9
$SURFU
 70
    6
  9
$SURFV
 70
    6
  9
$UCSBASE
  2

  9
$UCSNAME
  2

  9
$UCSORG
 10
0
 20
0
 30
0
  9
$UCSXDIR
 10
1
 20
0
 30
0
  9
$UCSYDIR
 10
0
 20
1
 30
0
  9
$UCSORTHOREF
  2

  9
$UCSORTHOVIEW
 70
    0
  9
$UCSORGTOP
 10
0
 20
0
 30
0
  9
$UCSORGBOTTOM
 10
0
 20
0
 30
0
  9
$UCSORGLEFT
 10
0
 20
0
 30
0
  9
$UCSORGRIGHT
 10
0
 20
0
 30
0
  9
$UCSORGFRONT
 10
0
 20
0
 30
0
  9
$UCSORGBACK
 10
0
 20
0
 30
0
  9
$PUCSBASE
  2

  9
$PUCSNAME
  2

  9
$PUCSORG
 10
0
 20
0
 30
0
  9
$PUCSXDIR
 10
1
 20
0
 30
0
  9
$PUCSYDIR
 10
0
 20
1
 30
0
  9
$PUCSORTHOREF
  2

  9
$PUCSORTHOVIEW
 70
    0
  9
$PUCSORGTOP
 10
0
 20
0
 30
0
  9
$PUCSORGBOTTOM
 10
0
 20
0
 30
0
  9
$PUCSORGLEFT
 10
0
 20
0
 30
0
  9
$PUCSORGRIGHT
 10
0
 20
0
 30
0
  9
$PUCSORGFRONT
 10
0
 20
0
 30
0
  9
$PUCSORGBACK
 10
0
 20
0
 30
0
  9
$USERI1
 70
    0
  9
$USERI2
 70
    0
  9
$USERI3
 70
    0
  9
$USERI4
 70
    0
  9
$USERI5
 70
    0
  9
$USERR1
 40
0
  9
$USERR2
 40
0
  9
$USERR3
 40
0
  9
$USERR4
 40
0
  9
$USERR5
 40
0
  9
$WORLDVIEW
 70
    1
  9
$SHADEDGE
 70
    3
  9
$SHADEDIF
 70
   70
  9
$TILEMODE
 70
    1
  9
$MAXACTVP
 70
   64
  9
$PINSBASE
 10
0
 20
0
 30
0
  9
$PLIMCHECK
 70
    0
  9
$PEXTMIN
 10
0
 20
0
 30
0
  9
$PEXTMAX
 10
0
 20
0
 30
0
  9
$GRIDMODE
 70
    0
  9
$SNAPSTYLE
 70
    0
  9
$PLIMMIN
 10
0
 20
0
  9
$PLIMMAX
 10
12
 20
9
  9
$UNITMODE
 70
    0
  9
$VISRETAIN
 70
    1
  9
$PLINEGEN
 70
    0
  9
$PSLTSCALE
 70
    1
  9
$TREEDEPTH
 70
 3020
  9
$CMLSTYLE
  2
Standard
  9
$CMLJUST
 70
    0
  9
$CMLSCALE
 40
20
  9
$PROXYGRAPHICS
 70
    1
  9
$MEASUREMENT
 70
    1
  9
$CELWEIGHT
370
   -1
  9
$ENDCAPS
280
    0
  9
$JOINSTYLE
280
    0
  9
$LWDISPLAY
290
    0
  9
$INSUNITS
 70
    0
  9
$HYPERLINKBASE
  1

  9
$STYLESHEET
  1

  9
$XEDIT
290
    1
  9
$CEPSNTYPE
380
    0
  9
$PSTYLEMODE
290
    1
  9
$EXTNAMES
290
    1
  9
$PSVPSCALE
 40
1
  9
$OLESTARTUP
290
    0
  9
$SORTENTS
280
  127
  9
$INDEXCTL
280
    0
  9
$HIDETEXT
280
    1
  9
$XCLIPFRAME
290
    0
  9
$HALOGAP
280
    0
  9
$OBSCOLOR
 70
  257
  9
$OBSLTYPE
280
    0
  9
$INTERSECTIONDISPLAY
280
    0
  9
$INTERSECTIONCOLOR
 70
  257
  9
$DIMASSOC
280
    1
  9
$PROJECTNAME
  1

  9
$CAMERADISPLAY
290
    0
  9
$LENSLENGTH
 40
50
  9
$CAMERAHEIGHT
 40
0
  9
$STEPSPERSEC
 40
2
  9
$STEPSIZE
 40
50
  9
$3DDWFPREC
 40
2
  9
$PSOLWIDTH
 40
5
  9
$PSOLHEIGHT
 40
80
  9
$LOFTANG1
 40
1.570796326794897
  9
$LOFTANG2
 40
1.570796326794897
  9
$LOFTMAG1
 40
0
  9
$LOFTMAG2
 40
0
  9
$LOFTPARAM
 70
    7
  9
$LOFTNORMALS
280
    1
  9
$LATITUDE
 40
1
  9
$LONGITUDE
 40
1
  9
$NORTHDIRECTION
 40
0
  9
$TIMEZONE
 70
-8000
  9
$LIGHTGLYPHDISPLAY
280
    1
  9
$TILEMODELIGHTSYNCH
280
    1
  9
$SOLIDHIST
280
    1
  9
$SHOWHIST
280
    1
  9
$DWFFRAME
280
    2
  9
$DGNFRAME
280
    0
  9
$REALWORLDSCALE
290
    1
  9
$INTERFERECOLOR
 62
    1
  9
$CSHADOW
280
    0
  9
$SHADOWPLANELOCATION
 40
0
  0
ENDSEC
  0
SECTION
  2
CLASSES
  0
ENDSEC
  0
SECTION
  2
TABLES
  0
TABLE
  2
VPORT
  5
8
330
0
100
AcDbSymbolTable
 70
    1
  0
VPORT
  5
31
330
2
100
AcDbSymbolTableRecord
100
AcDbViewportTableRecord
  2
*ACTIVE
 70
    0
 10
0
 20
0
 11
1
 21
1
 12
218.368131426469
 22
73.71222186028193
 13
0
 23
0
 14
10
 24
10
 15
10
 25
10
 16
0
 26
0
 36
1
 17
0
 27
0
 37
0
 40
514.9473527140822
 41
2.088709677419355
 42
50
 43
0
 44
0
 50
0
 51
0
 71
    0
 72
  100
 73
    1
 74
    3
 75
    0
 76
    0
 77
    0
 78
    0
281
    0
 65
    1
110
0
120
0
130
0
111
1
121
0
131
0
112
0
122
1
132
0
 79
    0
146
0
348
10020
 60
    7
 61
    5
292
1
282
    1
141
0
142
0
 63
  250
421
3358443
  0
ENDTAB
  0
TABLE
  2
LTYPE
  5
5
330
0
100
AcDbSymbolTable
 70
    4
  0
LTYPE
  5
14
330
5
100
AcDbSymbolTableRecord
100
AcDbLinetypeTableRecord
  2
ByBlock
 70
    0
  3

 72
   65
 73
    0
 40
0
  0
LTYPE
  5
15
330
5
100
AcDbSymbolTableRecord
100
AcDbLinetypeTableRecord
  2
ByLayer
 70
    0
  3

 72
   65
 73
    0
 40
0
  0
LTYPE
  5
16
330
5
100
AcDbSymbolTableRecord
100
AcDbLinetypeTableRecord
  2
Continuous
 70
    0
  3
Solid line
 72
   65
 73
    0
 40
0
  0
LTYPE
  5
32
330
5
100
AcDbSymbolTableRecord
100
AcDbLinetypeTableRecord
  2
DOT
 70
    0
  3
Dot . . . . . . . . . . . . . . . . . . . . . .
 72
   65
 73
    2
 40
6.35
 49
0
 74
    0
 49
-6.35
 74
    0
  0
LTYPE
  5
33
330
5
100
AcDbSymbolTableRecord
100
AcDbLinetypeTableRecord
  2
DOTTINY
 70
    0
  3
Dot (.15x) .....................................
 72
   65
 73
    2
 40
0.9525
 49
0
 74
    0
 49
-0.9525
 74
    0
  0
LTYPE
  5
34
330
5
100
AcDbSymbolTableRecord
100
AcDbLinetypeTableRecord
  2
DOT2
 70
    0
  3
Dot (.5x) .....................................
 72
   65
 73
    2
 40
3.175
 49
0
 74
    0
 49
-3.175
 74
    0
  0
LTYPE
  5
35
330
5
100
AcDbSymbolTableRecord
100
AcDbLinetypeTableRecord
  2
DOTX2
 70
    0
  3
Dot (2x) .  .  .  .  .  .  .  .  .  .  .  .  .
 72
   65
 73
    2
 40
12.7
 49
0
 74
    0
 49
-12.7
 74
    0
  0
LTYPE
  5
36
330
5
100
AcDbSymbolTableRecord
100
AcDbLinetypeTableRecord
  2
DASHED
 70
    0
  3
Dashed _ _ _ _ _ _ _ _ _ _ _ _ _ _ _ _ _
 72
   65
 73
    2
 40
19.05
 49
12.7
 74
    0
 49
-6.35
 74
    0
  0
LTYPE
  5
37
330
5
100
AcDbSymbolTableRecord
100
AcDbLinetypeTableRecord
  2
DASHEDTINY
 70
    0
  3
Dashed (.15x) _ _ _ _ _ _ _ _ _ _ _ _ _ _ _ _ _
 72
   65
 73
    2
 40
2.8575
 49
1.905
 74
    0
 49
-0.9525
 74
    0
  0
LTYPE
  5
38
330
5
100
AcDbSymbolTableRecord
100
AcDbLinetypeTableRecord
  2
DASHED2
 70
    0
  3
Dashed (.5x) _ _ _ _ _ _ _ _ _ _ _ _ _ _ _ _ _
 72
   65
 73
    2
 40
9.524999999999999
 49
6.35
 74
    0
 49
-3.175
 74
    0
  0
LTYPE
  5
39
330
5
100
AcDbSymbolTableRecord
100
AcDbLinetypeTableRecord
  2
DASHEDX2
 70
    0
  3
Dashed (2x) ____  ____  ____  ____  ____  ___
 72
   65
 73
    2
 40
38.09999999999999
 49
25.4
 74
    0
 49
-12.7
 74
    0
  0
LTYPE
  5
3A
330
5
100
AcDbSymbolTableRecord
100
AcDbLinetypeTableRecord
  2
DASHDOT
 70
    0
  3
Dash dot __ . __ . __ . __ . __ . __ . __ . __
 72
   65
 73
    4
 40
25.4
 49
12.7
 74
    0
 49
-6.35
 74
    0
 49
0
 74
    0
 49
-6.35
 74
    0
  0
LTYPE
  5
3B
330
5
100
AcDbSymbolTableRecord
100
AcDbLinetypeTableRecord
  2
DASHDOTTINY
 70
    0
  3
Dash dot (.15x) _._._._._._._._._._._._._._._.
 72
   65
 73
    4
 40
3.81
 49
1.905
 74
    0
 49
-0.9525
 74
    0
 49
0
 74
    0
 49
-0.9525
 74
    0
  0
LTYPE
  5
3C
330
5
100
AcDbSymbolTableRecord
100
AcDbLinetypeTableRecord
  2
DASHDOT2
 70
    0
  3
Dash dot (.5x) _._._._._._._._._._._._._._._.
 72
   65
 73
    4
 40
12.7
 49
6.35
 74
    0
 49
-3.175
 74
    0
 49
0
 74
    0
 49
-3.175
 74
    0
  0
LTYPE
  5
3D
330
5
100
AcDbSymbolTableRecord
100
AcDbLinetypeTableRecord
  2
DASHDOTX2
 70
    0
  3
Dash dot (2x) ____  .  ____  .  ____  .  ___
 72
   65
 73
    4
 40
50.8
 49
25.4
 74
    0
 49
-12.7
 74
    0
 49
0
 74
    0
 49
-12.7
 74
    0
  0
LTYPE
  5
3E
330
5
100
AcDbSymbolTableRecord
100
AcDbLinetypeTableRecord
  2
DIVIDE
 70
    0
  3
Divide ____ . . ____ . . ____ . . ____ . . ____
 72
   65
 73
    6
 40
31.75
 49
12.7
 74
    0
 49
-6.35
 74
    0
 49
0
 74
    0
 49
-6.35
 74
    0
 49
0
 74
    0
 49
-6.35
 74
    0
  0
LTYPE
  5
3F
330
5
100
AcDbSymbolTableRecord
100
AcDbLinetypeTableRecord
  2
DIVIDETINY
 70
    0
  3
Divide (.15x) __..__..__..__..__..__..__..__.._
 72
   65
 73
    6
 40
4.7625
 49
1.905
 74
    0
 49
-0.9525
 74
    0
 49
0
 74
    0
 49
-0.9525
 74
    0
 49
0
 74
    0
 49
-0.9525
 74
    0
  0
LTYPE
  5
40
330
5
100
AcDbSymbolTableRecord
100
AcDbLinetypeTableRecord
  2
DIVIDE2
 70
    0
  3
Divide (.5x) __..__..__..__..__..__..__..__.._
 72
   65
 73
    6
 40
15.875
 49
6.35
 74
    0
 49
-3.175
 74
    0
 49
0
 74
    0
 49
-3.175
 74
    0
 49
0
 74
    0
 49
-3.175
 74
    0
  0
LTYPE
  5
41
330
5
100
AcDbSymbolTableRecord
100
AcDbLinetypeTableRecord
  2
DIVIDEX2
 70
    0
  3
Divide (2x) ________  .  .  ________  .  .  _
 72
   65
 73
    6
 40
63.5
 49
25.4
 74
    0
 49
-12.7
 74
    0
 49
0
 74
    0
 49
-12.7
 74
    0
 49
0
 74
    0
 49
-12.7
 74
    0
  0
LTYPE
  5
42
330
5
100
AcDbSymbolTableRecord
100
AcDbLinetypeTableRecord
  2
BORDER
 70
    0
  3
Border __ __ . __ __ . __ __ . __ __ . __ __ .
 72
   65
 73
    6
 40
44.45
 49
12.7
 74
    0
 49
-6.35
 74
    0
 49
12.7
 74
    0
 49
-6.35
 74
    0
 49
0
 74
    0
 49
-6.35
 74
    0
  0
LTYPE
  5
43
330
5
100
AcDbSymbolTableRecord
100
AcDbLinetypeTableRecord
  2
BORDERTINY
 70
    0
  3
Border (.15x) __.__.__.__.__.__.__.__.__.__.__.
 72
   65
 73
    6
 40
6.6675
 49
1.905
 74
    0
 49
-0.9525
 74
    0
 49
1.905
 74
    0
 49
-0.9525
 74
    0
 49
0
 74
    0
 49
-0.9525
 74
    0
  0
LTYPE
  5
44
330
5
100
AcDbSymbolTableRecord
100
AcDbLinetypeTableRecord
  2
BORDER2
 70
    0
  3
Border (.5x) __.__.__.__.__.__.__.__.__.__.__.
 72
   65
 73
    6
 40
22.225
 49
6.35
 74
    0
 49
-3.175
 74
    0
 49
6.35
 74
    0
 49
-3.175
 74
    0
 49
0
 74
    0
 49
-3.175
 74
    0
  0
LTYPE
  5
45
330
5
100
AcDbSymbolTableRecord
100
AcDbLinetypeTableRecord
  2
BORDERX2
 70
    0
  3
Border (2x) ____  ____  .  ____  ____  .  ___
 72
   65
 73
    6
 40
88.89999999999999
 49
25.4
 74
    0
 49
-12.7
 74
    0
 49
25.4
 74
    0
 49
-12.7
 74
    0
 49
0
 74
    0
 49
-12.7
 74
    0
  0
LTYPE
  5
46
330
5
100
AcDbSymbolTableRecord
100
AcDbLinetypeTableRecord
  2
CENTER
 70
    0
  3
Center ____ _ ____ _ ____ _ ____ _ ____ _ ____
 72
   65
 73
    4
 40
50.8
 49
31.75
 74
    0
 49
-6.35
 74
    0
 49
6.35
 74
    0
 49
-6.35
 74
    0
  0
LTYPE
  5
47
330
5
100
AcDbSymbolTableRecord
100
AcDbLinetypeTableRecord
  2
CENTERTINY
 70
    0
  3
Center (.15x) ___ _ ___ _ ___ _ ___ _ ___ _ ___
 72
   65
 73
    4
 40
7.619999999999999
 49
4.7625
 74
    0
 49
-0.9525
 74
    0
 49
0.9525
 74
    0
 49
-0.9525
 74
    0
  0
LTYPE
  5
48
330
5
100
AcDbSymbolTableRecord
100
AcDbLinetypeTableRecord
  2
CENTER2
 70
    0
  3
Center (.5x) ___ _ ___ _ ___ _ ___ _ ___ _ ___
 72
   65
 73
    4
 40
28.575
 49
19.05
 74
    0
 49
-3.175
 74
    0
 49
3.175
 74
    0
 49
-3.175
 74
    0
  0
LTYPE
  5
49
330
5
100
AcDbSymbolTableRecord
100
AcDbLinetypeTableRecord
  2
CENTERX2
 70
    0
  3
Center (2x) ________  __  ________  __  _____
 72
   65
 73
    4
 40
101.6
 49
63.5
 74
    0
 49
-12.7
 74
    0
 49
12.7
 74
    0
 49
-12.7
 74
    0
  0
ENDTAB
  0
TABLE
  2
LAYER
  5
2
330
0
100
AcDbSymbolTable
 70
    1
  0
LAYER
  5
10
330
2
100
AcDbSymbolTableRecord
100
AcDbLayerTableRecord
  2
0
 70
    0
 62
    7
  6
CONTINUOUS
370
   -3
390
F
  0
LAYER
  5
4A
330
2
100
AcDbSymbolTableRecord
100
AcDbLayerTableRecord
  2
CENTER
 70
    0
 62
    1
  6
CENTER
370
   -3
390
F
  0
LAYER
  5
4B
330
2
100
AcDbSymbolTableRecord
100
AcDbLayerTableRecord
  2
DEFPOINTS
 70
    0
 62
    7
  6
CONTINUOUS
370
   -3
390
F
  0
ENDTAB
  0
TABLE
  2
STYLE
  5
3
330
0
100
AcDbSymbolTable
 70
    3
  0
STYLE
  5
4C
330
2
100
AcDbSymbolTableRecord
100
AcDbTextStyleTableRecord
  2
STANDARD
 70
    0
 40
0
 41
1
 50
0
 71
    0
 42
1
  3
STANDARD
  4

  0
ENDTAB
  0
TABLE
  2
VIEW
  5
6
330
0
100
AcDbSymbolTable
 70
    0
  0
ENDTAB
  0
TABLE
  2
UCS
  5
7
330
0
100
AcDbSymbolTable
 70
    0
  0
ENDTAB
  0
TABLE
  2
APPID
  5
9
330
0
100
AcDbSymbolTable
 70
    1
  0
APPID
  5
12
330
9
100
AcDbSymbolTableRecord
100
AcDbRegAppTableRecord
  2
ACAD
 70
    0
  0
APPID
  5
4D
330
9
100
AcDbSymbolTableRecord
100
AcDbRegAppTableRecord
  2
LibreCad
 70
    0
  0
ENDTAB
  0
TABLE
  2
DIMSTYLE
  5
A
330
0
100
AcDbSymbolTable
 70
    1
100
AcDbDimStyleTable
 71
    1
  0
DIMSTYLE
105
4E
330
A
100
AcDbSymbolTableRecord
100
AcDbDimStyleTableRecord
  2
Standard
 70
    0
 40
1
 41
2.5
 42
0.625
 43
0.38
 44
1.25
 45
0
 46
0
 47
0
 48
0
 49
1
140
2.5
141
0.09
142
0
143
25.4
144
1
145
0
146
1
147
0.625
148
0
 71
    0
 72
    0
 73
    0
 74
    1
 75
    0
 76
    0
 77
    0
 78
    8
 79
    0
170
    0
171
    2
172
    0
173
    0
174
    0
175
    0
176
  137
177
  137
178
  137
179
    0
271
    4
272
    4
273
    2
274
    2
275
    0
276
    0
277
    2
278
    0
279
    0
280
    0
281
    0
282
    0
283
    1
284
    0
285
    0
286
    0
288
    0
289
    3
340
standard
341

371
   -2
372
   -2
  0
ENDTAB
  0
TABLE
  2
BLOCK_RECORD
  5
1
330
0
100
AcDbSymbolTable
 70
    2
  0
BLOCK_RECORD
  5
1F
330
1
100
AcDbSymbolTableRecord
100
AcDbBlockTableRecord
  2
*Model_Space
 70
    0
280
    1
281
    0
  0
BLOCK_RECORD
  5
1E
330
1
100
AcDbSymbolTableRecord
100
AcDbBlockTableRecord
  2
*Paper_Space
 70
    0
280
    1
281
    0
  0
BLOCK_RECORD
  5
4F
330
1
100
AcDbSymbolTableRecord
100
AcDbBlockTableRecord
  2
_OPEN30
 70
    0
280
    1
281
    0
  0
BLOCK_RECORD
  5
52
330
1
100
AcDbSymbolTableRecord
100
AcDbBlockTableRecord
  2
*U24
 70
    0
280
    1
281
    0
  0
BLOCK_RECORD
  5
55
330
1
100
AcDbSymbolTableRecord
100
AcDbBlockTableRecord
  2
*U25
 70
    0
280
    1
281
    0
  0
ENDTAB
  0
ENDSEC
  0
SECTION
  2
BLOCKS
  0
BLOCK
  5
20
330
1F
100
AcDbEntity
  8
0
100
AcDbBlockBegin
  2
*Model_Space
 70
    0
 10
0
 20
0
 30
0
  3
*Model_Space
  1

  0
ENDBLK
  5
21
330
1F
100
AcDbEntity
  8
0
100
AcDbBlockEnd
  0
BLOCK
  5
1C
330
1B
100
AcDbEntity
  8
0
100
AcDbBlockBegin
  2
*Paper_Space
 70
    0
 10
0
 20
0
 30
0
  3
*Paper_Space
  1

  0
ENDBLK
  5
1D
330
1F
100
AcDbEntity
  8
0
100
AcDbBlockEnd
  0
BLOCK
  5
50
330
4F
100
AcDbEntity
  8
0
100
AcDbBlockBegin
  2
_OPEN30
 70
    0
 10
0
 20
0
  3
_OPEN30
  1

  0
LINE
  5
58
100
AcDbEntity
  8
0
  6
ByBlock
 62
    0
370
   -1
100
AcDbLine
 10
-1
 20
0.26794919
 11
0
 21
0
  0
LINE
  5
59
100
AcDbEntity
  8
0
  6
ByBlock
 62
    0
370
   -1
100
AcDbLine
 10
0
 20
0
 11
-1
 21
-0.26794919
  0
LINE
  5
5A
100
AcDbEntity
  8
0
  6
ByBlock
 62
    0
370
   -1
100
AcDbLine
 10
0
 20
0
 11
-1
 21
0
  0
ENDBLK
  5
51
330
4F
100
AcDbEntity
  8
0
100
AcDbBlockEnd
  0
BLOCK
  5
53
330
52
100
AcDbEntity
  8
0
100
AcDbBlockBegin
  2
*U24
 70
    0
 10
0
 20
0
  3
*U24
  1

  0
TEXT
  5
5B
100
AcDbEntity
  8
0
  6
CONTINUOUS
 62
    7
370
   -1
100
AcDbText
 10
-22.5000008941
 20
-45.72646487861272
 30
0
 40
3
  1
NFSL8-4545-50
 50
0
 41
1
 51
0
  7
STANDARD
 71
    0
210
0
220
0
230
1
100
AcDbText
  0
ENDBLK
  5
54
330
52
100
AcDbEntity
  8
0
100
AcDbBlockEnd
  0
BLOCK
  5
56
330
55
100
AcDbEntity
  8
0
100
AcDbBlockBegin
  2
*U25
 70
    0
 10
0
 20
0
  3
*U25
  1

  0
TEXT
  5
5C
100
AcDbEntity
  8
0
  6
CONTINUOUS
 62
    7
370
   -1
100
AcDbText
 10
-22.5000008941
 20
-51.1239998637941
 30
0
 40
3
  1
NFSL8-4545
 50
0
 41
1
 51
0
  7
STANDARD
 71
    0
210
0
220
0
230
1
100
AcDbText
  0
ENDBLK
  5
57
330
55
100
AcDbEntity
  8
0
100
AcDbBlockEnd
  0
ENDSEC
  0
SECTION
  2
ENTITIES
  0
LINE
  5
5D
100
AcDbEntity
  8
CENTER
  6
CENTER
 62
    1
370
   -1
100
AcDbLine
 10
-24.5000008941
 20
5.0008e-11
 11
24.50000089409999
 21
5.00081e-11
  0
LINE
  5
5E
100
AcDbEntity
  8
CENTER
  6
CENTER
 62
    1
370
   -1
100
AcDbLine
 10
-2e-16
 20
24.50000089415
 11
1e-16
 21
-24.50000089404999
  0
LINE
  5
5F
100
AcDbEntity
  8
0
  6
CONTINUOUS
 62
    7
370
   -1
100
AcDbLine
 10
-3.616116559765202
 20
5.383883486070004
 11
-4.44938469502577
 21
6.217151775623889
  0
ARC
  5
60
100
AcDbEntity
  8
0
  6
CONTINUOUS
 62
    7
370
   -1
100
AcDbCircle
 10
0
 20
5.0008e-11
 40
8.000000000000018
100
AcDbArc
 50
119.1246136007992
 51
123.3870854893383
  0
ARC
  5
61
100
AcDbEntity
  8
0
  6
CONTINUOUS
 62
    7
370
   -1
100
AcDbCircle
 10
-4.237252641030011
 20
6.429283790340008
 40
0.3
100
AcDbArc
 50
123.3870854893397
 51
224.9999946953669
  0
ARC
  5
62
100
AcDbEntity
  8
0
  6
CONTINUOUS
 62
    7
370
   -1
100
AcDbCircle
 10
-4.234383072000099
 20
7.600000000050016
 40
0.700000000000003
100
AcDbArc
 50
299.1246136007993
 51
90
  0
LINE
  5
63
100
AcDbEntity
  8
0
  6
CONTINUOUS
 62
    7
370
   -1
100
AcDbLine
 10
-4.234382882700003
 20
8.299999870450009
 11
-7.300000172099998
 21
8.299999870450009
  0
ARC
  5
64
100
AcDbEntity
  8
0
  6
CONTINUOUS
 62
    7
370
   -1
100
AcDbCircle
 10
-7.300000000000011
 20
7.300000000050019
 40
1
100
AcDbArc
 50
90
 51
180
  0
LINE
  5
65
100
AcDbEntity
  8
0
  6
CONTINUOUS
 62
    7
370
   -1
100
AcDbLine
 10
-8.299999870400001
 20
7.300000172150006
 11
-8.299999870400001
 21
4.234382882750011
  0
ARC
  5
66
100
AcDbEntity
  8
0
  6
CONTINUOUS
 62
    7
370
   -1
100
AcDbCircle
 10
-7.600000000000022
 20
4.234383071950006
 40
0.7000000000000172
100
AcDbArc
 50
180
 51
330.8753863992
  0
ARC
  5
67
100
AcDbEntity
  8
0
  6
CONTINUOUS
 62
    7
370
   -1
100
AcDbCircle
 10
0
 20
5.0008e-11
 40
8.00000000000002
100
AcDbArc
 50
146.6129145106614
 51
150.8753863992
  0
ARC
  5
68
100
AcDbEntity
  8
0
  6
CONTINUOUS
 62
    7
370
   -1
100
AcDbCircle
 10
-6.429283790290014
 20
4.237252641079905
 40
0.3
100
AcDbArc
 50
45.00000530462905
 51
146.6129145106599
  0
LINE
  5
69
100
AcDbEntity
  8
0
  6
CONTINUOUS
 62
    7
370
   -1
100
AcDbLine
 10
-6.217151775573881
 20
4.449384695075806
 11
-5.38388348602038
 21
3.616116559815594
  0
ARC
  5
6A
100
AcDbEntity
  8
0
  6
CONTINUOUS
 62
    7
370
   -1
100
AcDbCircle
 10
0
 20
5.0008e-11
 40
6.250000000000017
100
AcDbArc
 50
148.6883867526287
 51
211.3116132473713
  0
ARC
  5
6B
100
AcDbEntity
  8
0
  6
CONTINUOUS
 62
    7
370
   -1
100
AcDbCircle
 10
-5.596015500736513
 20
3.403984505819707
 40
0.3
100
AcDbArc
 50
328.6883867526303
 51
45.00000530463021
  0
ARC
  5
6C
100
AcDbEntity
  8
0
  6
CONTINUOUS
 62
    7
370
   -1
100
AcDbCircle
 10
-5.596015500736513
 20
-3.403984505719805
 40
0.3
100
AcDbArc
 50
314.9999946953681
 51
31.31161324737197
  0
LINE
  5
6D
100
AcDbEntity
  8
0
  6
CONTINUOUS
 62
    7
370
   -1
100
AcDbLine
 10
-5.38388348602038
 20
-3.616116559715592
 11
-6.217151775573881
 21
-4.449384694975805
  0
ARC
  5
6E
100
AcDbEntity
  8
0
  6
CONTINUOUS
 62
    7
370
   -1
100
AcDbCircle
 10
0
 20
5.0008e-11
 40
8.00000000000002
100
AcDbArc
 50
209.1246136007999
 51
213.3870854893379
  0
ARC
  5
6F
100
AcDbEntity
  8
0
  6
CONTINUOUS
 62
    7
370
   -1
100
AcDbCircle
 10
-6.429283790290014
 20
-4.237252640979903
 40
0.3
100
AcDbArc
 50
213.3870854893372
 51
314.9999946953698
  0
ARC
  5
70
100
AcDbEntity
  8
0
  6
CONTINUOUS
 62
    7
370
   -1
100
AcDbCircle
 10
-7.600000000000022
 20
-4.234383071949991
 40
0.7000000000000172
100
AcDbArc
 50
29.12461360079995
 51
180
  0
LINE
  5
71
100
AcDbEntity
  8
0
  6
CONTINUOUS
 62
    7
370
   -1
100
AcDbLine
 10
-8.299999870400001
 20
-4.234382882649995
 11
-8.299999870400001
 21
-7.30000017204999
  0
ARC
  5
72
100
AcDbEntity
  8
0
  6
CONTINUOUS
 62
    7
370
   -1
100
AcDbCircle
 10
-7.300000000000011
 20
-7.299999999949989
 40
1
100
AcDbArc
 50
180
 51
270
  0
LINE
  5
73
100
AcDbEntity
  8
0
  6
CONTINUOUS
 62
    7
370
   -1
100
AcDbLine
 10
-7.300000172099998
 20
-8.299999870349993
 11
-4.234382882700003
 21
-8.299999870349993
  0
ARC
  5
74
100
AcDbEntity
  8
0
  6
CONTINUOUS
 62
    7
370
   -1
100
AcDbCircle
 10
-4.234383072000099
 20
-7.599999999949986
 40
0.700000000000003
100
AcDbArc
 50
270
 51
60.87538639920076
  0
ARC
  5
75
100
AcDbEntity
  8
0
  6
CONTINUOUS
 62
    7
370
   -1
100
AcDbCircle
 10
0
 20
5.0008e-11
 40
8
100
AcDbArc
 50
236.6129145106617
 51
240.8753863992007
  0
ARC
  5
76
100
AcDbEntity
  8
0
  6
CONTINUOUS
 62
    7
370
   -1
100
AcDbCircle
 10
-4.237252641029897
 20
-6.429283790239992
 40
0.3
100
AcDbArc
 50
135.000005304633
 51
236.6129145106598
  0
LINE
  5
77
100
AcDbEntity
  8
0
  6
CONTINUOUS
 62
    7
370
   -1
100
AcDbLine
 10
-4.44938469502577
 20
-6.217151775523888
 11
-3.616116559765202
 21
-5.383883485970002
  0
ARC
  5
78
100
AcDbEntity
  8
0
  6
CONTINUOUS
 62
    7
370
   -1
100
AcDbCircle
 10
0
 20
5.0008e-11
 40
6.249999999999986
100
AcDbArc
 50
238.6883867526299
 51
301.3116132473701
  0
ARC
  5
79
100
AcDbEntity
  8
0
  6
CONTINUOUS
 62
    7
370
   -1
100
AcDbCircle
 10
3.403984505769386
 20
-5.596015500686107
 40
0.3
100
AcDbArc
 50
44.99999469537152
 51
121.3116132473701
  0
ARC
  5
7A
100
AcDbEntity
  8
0
  6
CONTINUOUS
 62
    7
370
   -1
100
AcDbCircle
 10
-3.403984505769386
 20
-5.596015500686107
 40
0.3
100
AcDbArc
 50
58.68838675263027
 51
135.0000053046285
  0
LINE
  5
7B
100
AcDbEntity
  8
0
  6
CONTINUOUS
 62
    7
370
   -1
100
AcDbLine
 10
3.616116559765202
 20
-5.383883485970002
 11
4.449384695025713
 21
-6.217151775523888
  0
ARC
  5
7C
100
AcDbEntity
  8
0
  6
CONTINUOUS
 62
    7
370
   -1
100
AcDbCircle
 10
0
 20
5.0008e-11
 40
8.000000000000005
100
AcDbArc
 50
299.1246136007993
 51
303.3870854893379
  0
ARC
  5
7D
100
AcDbEntity
  8
0
  6
CONTINUOUS
 62
    7
370
   -1
100
AcDbCircle
 10
4.237252641029897
 20
-6.429283790239992
 40
0.3
100
AcDbArc
 50
303.3870854893397
 51
44.99999469537555
  0
ARC
  5
7E
100
AcDbEntity
  8
0
  6
CONTINUOUS
 62
    7
370
   -1
100
AcDbCircle
 10
4.234383071899998
 20
-7.599999999949986
 40
0.700000000000003
100
AcDbArc
 50
119.1246136007992
 51
270
  0
LINE
  5
7F
100
AcDbEntity
  8
0
  6
CONTINUOUS
 62
    7
370
   -1
100
AcDbLine
 10
4.234382882700003
 20
-8.299999870349993
 11
7.300000172099998
 21
-8.299999870349993
  0
ARC
  5
80
100
AcDbEntity
  8
0
  6
CONTINUOUS
 62
    7
370
   -1
100
AcDbCircle
 10
7.299999999999982
 20
-7.299999999949989
 40
1
100
AcDbArc
 50
270
 51
0
  0
LINE
  5
81
100
AcDbEntity
  8
0
  6
CONTINUOUS
 62
    7
370
   -1
100
AcDbLine
 10
8.299999870299985
 20
-7.30000017204999
 11
8.299999870299985
 21
-4.234382882649995
  0
ARC
  5
82
100
AcDbEntity
  8
0
  6
CONTINUOUS
 62
    7
370
   -1
100
AcDbCircle
 10
7.599999999999994
 20
-4.234383071949991
 40
0.7000000000000172
100
AcDbArc
 50
0
 51
150.8753863992
  0
ARC
  5
83
100
AcDbEntity
  8
0
  6
CONTINUOUS
 62
    7
370
   -1
100
AcDbCircle
 10
0
 20
5.0008e-11
 40
8.000000000000009
100
AcDbArc
 50
326.6129145106614
 51
330.8753863992
  0
ARC
  5
84
100
AcDbEntity
  8
0
  6
CONTINUOUS
 62
    7
370
   -1
100
AcDbCircle
 10
6.429283790289986
 20
-4.237252640979988
 40
0.3
100
AcDbArc
 50
225.0000053046319
 51
326.6129145106599
  0
LINE
  5
85
100
AcDbEntity
  8
0
  6
CONTINUOUS
 62
    7
370
   -1
100
AcDbLine
 10
6.21715177557391
 20
-4.449384694975805
 11
5.383883486020408
 21
-3.616116559715592
  0
ARC
  5
86
100
AcDbEntity
  8
0
  6
CONTINUOUS
 62
    7
370
   -1
100
AcDbCircle
 10
0
 20
5.0008e-11
 40
6.250000000000013
100
AcDbArc
 50
328.6883867526287
 51
31.31161324737127
  0
ARC
  5
87
100
AcDbEntity
  8
0
  6
CONTINUOUS
 62
    7
370
   -1
100
AcDbCircle
 10
5.596015500736484
 20
3.403984505819707
 40
0.3
100
AcDbArc
 50
134.9999946953709
 51
211.3116132473727
  0
ARC
  5
88
100
AcDbEntity
  8
0
  6
CONTINUOUS
 62
    7
370
   -1
100
AcDbCircle
 10
5.596015500736484
 20
-3.403984505719805
 40
0.3
100
AcDbArc
 50
148.6883867526302
 51
225.000005304629
  0
LINE
  5
89
100
AcDbEntity
  8
0
  6
CONTINUOUS
 62
    7
370
   -1
100
AcDbLine
 10
5.383883486020408
 20
3.616116559815594
 11
6.21715177557391
 21
4.449384695075806
  0
ARC
  5
8A
100
AcDbEntity
  8
0
  6
CONTINUOUS
 62
    7
370
   -1
100
AcDbCircle
 10
0
 20
5.0008e-11
 40
8.000000000000012
100
AcDbArc
 50
29.12461360079995
 51
33.38708548933788
  0
ARC
  5
8B
100
AcDbEntity
  8
0
  6
CONTINUOUS
 62
    7
370
   -1
100
AcDbCircle
 10
6.429283790289986
 20
4.237252641079905
 40
0.3
100
AcDbArc
 50
33.38708548933788
 51
134.9999946953772
  0
ARC
  5
8C
100
AcDbEntity
  8
0
  6
CONTINUOUS
 62
    7
370
   -1
100
AcDbCircle
 10
7.599999999999994
 20
4.234383071950006
 40
0.7000000000000172
100
AcDbArc
 50
209.1246136007999
 51
0
  0
LINE
  5
8D
100
AcDbEntity
  8
0
  6
CONTINUOUS
 62
    7
370
   -1
100
AcDbLine
 10
8.299999870299985
 20
4.234382882750011
 11
8.299999870299985
 21
7.300000172150006
  0
ARC
  5
8E
100
AcDbEntity
  8
0
  6
CONTINUOUS
 62
    7
370
   -1
100
AcDbCircle
 10
7.299999999999982
 20
7.300000000050019
 40
1
100
AcDbArc
 50
0
 51
90
  0
LINE
  5
8F
100
AcDbEntity
  8
0
  6
CONTINUOUS
 62
    7
370
   -1
100
AcDbLine
 10
7.300000172099998
 20
8.299999870450009
 11
4.234382882700003
 21
8.299999870450009
  0
ARC
  5
90
100
AcDbEntity
  8
0
  6
CONTINUOUS
 62
    7
370
   -1
100
AcDbCircle
 10
4.234383071899998
 20
7.600000000050016
 40
0.700000000000003
100
AcDbArc
 50
90
 51
240.8753863992007
  0
ARC
  5
91
100
AcDbEntity
  8
0
  6
CONTINUOUS
 62
    7
370
   -1
100
AcDbCircle
 10
0
 20
5.0008e-11
 40
8.000000000000018
100
AcDbArc
 50
56.61291451066168
 51
60.87538639920076
  0
ARC
  5
92
100
AcDbEntity
  8
0
  6
CONTINUOUS
 62
    7
370
   -1
100
AcDbCircle
 10
4.237252641029897
 20
6.429283790340008
 40
0.3
100
AcDbArc
 50
315.0000053046308
 51
56.61291451066031
  0
LINE
  5
93
100
AcDbEntity
  8
0
  6
CONTINUOUS
 62
    7
370
   -1
100
AcDbLine
 10
4.449384695025798
 20
6.217151775623889
 11
3.616116559765202
 21
5.383883486070004
  0
ARC
  5
94
100
AcDbEntity
  8
0
  6
CONTINUOUS
 62
    7
370
   -1
100
AcDbCircle
 10
0
 20
5.0008e-11
 40
6.249999999999997
100
AcDbArc
 50
58.68838675262986
 51
121.3116132473701
  0
ARC
  5
95
100
AcDbEntity
  8
0
  6
CONTINUOUS
 62
    7
370
   -1
100
AcDbCircle
 10
3.403984505769386
 20
5.596015500786094
 40
0.3
100
AcDbArc
 50
238.688386752628
 51
315.0000053046285
  0
ARC
  5
96
100
AcDbEntity
  8
0
  6
CONTINUOUS
 62
    7
370
   -1
100
AcDbCircle
 10
-3.403984505769386
 20
5.596015500786094
 40
0.3
100
AcDbArc
 50
224.9999946953692
 51
301.3116132473701
  0
LINE
  5
97
100
AcDbEntity
  8
0
  6
CONTINUOUS
 62
    7
370
   -1
100
AcDbLine
 10
-11.0196694732
 20
12.08033040175002
 11
-11.41213160010011
 21
12.47279252865
  0
ARC
  5
98
100
AcDbEntity
  8
0
  6
CONTINUOUS
 62
    7
370
   -1
100
AcDbCircle
 10
-11.20000000000001
 20
12.68492424055
 40
0.3000000000000114
100
AcDbArc
 50
180
 51
225
  0
LINE
  5
99
100
AcDbEntity
  8
0
  6
CONTINUOUS
 62
    7
370
   -1
100
AcDbLine
 10
-11.5000000224
 20
12.68492452805
 11
-11.5000000224
 21
17.69999973485001
  0
ARC
  5
9A
100
AcDbEntity
  8
0
  6
CONTINUOUS
 62
    7
370
   -1
100
AcDbCircle
 10
-10.2000000000001
 20
17.70000000005001
 40
1.30000000000001
100
AcDbArc
 50
90
 51
180
  0
LINE
  5
9B
100
AcDbEntity
  8
0
  6
CONTINUOUS
 62
    7
370
   -1
100
AcDbLine
 10
-10.2000003681
 20
18.99999938905
 11
-8.000000380000102
 21
18.99999938905
  0
ARC
  5
9C
100
AcDbEntity
  8
0
  6
CONTINUOUS
 62
    7
370
   -1
100
AcDbCircle
 10
-8
 20
19.50000000005001
 40
0.5000000000000285
100
AcDbArc
 50
270
 51
0
  0
LINE
  5
9D
100
AcDbEntity
  8
0
  6
CONTINUOUS
 62
    7
370
   -1
100
AcDbLine
 10
-7.499999832400106
 20
19.50000040235001
 11
-7.499999832400106
 21
20.50000174345003
  0
ARC
  5
9E
100
AcDbEntity
  8
0
  6
CONTINUOUS
 62
    7
370
   -1
100
AcDbCircle
 10
-8
 20
20.50000152555002
 40
0.5000000000000285
100
AcDbArc
 50
0
 51
90
  0
LINE
  5
9F
100
AcDbEntity
  8
0
  6
CONTINUOUS
 62
    7
370
   -1
100
AcDbLine
 10
-8.000000380000102
 20
21.00000089415001
 11
-17.50000007450009
 21
21.00000089415001
  0
ARC
  5
A0
100
AcDbEntity
  8
0
  6
CONTINUOUS
 62
    7
370
   -1
100
AcDbCircle
 10
-17.5
 20
20.80000152555
 40
0.2000000000000028
100
AcDbArc
 50
90
 51
180
  0
LINE
  5
A1
100
AcDbEntity
  8
0
  6
CONTINUOUS
 62
    7
370
   -1
100
AcDbLine
 10
-17.6999997348
 20
20.80000123385001
 11
-17.6999997348
 21
20.60000039645
  0
ARC
  5
A2
100
AcDbEntity
  8
0
  6
CONTINUOUS
 62
    7
370
   -1
100
AcDbCircle
 10
-17.9
 20
20.60000000005
 40
0.2000000000000028
100
AcDbArc
 50
270
 51
0
  0
LINE
  5
A3
100
AcDbEntity
  8
0
  6
CONTINUOUS
 62
    7
370
   -1
100
AcDbLine
 10
-17.89999939500001
 20
20.40000073615001
 11
-18.69999989870001
 21
20.40000073615001
  0
ARC
  5
A4
100
AcDbEntity
  8
0
  6
CONTINUOUS
 62
    7
370
   -1
100
AcDbCircle
 10
-18.70000000000002
 20
20.60000000005
 40
0.2000000000000028
100
AcDbArc
 50
180
 51
270
  0
LINE
  5
A5
100
AcDbEntity
  8
0
  6
CONTINUOUS
 62
    7
370
   -1
100
AcDbLine
 10
-18.89999955889999
 20
20.60000039645
 11
-18.89999955889999
 21
20.80000123385001
  0
ARC
  5
A6
100
AcDbEntity
  8
0
  6
CONTINUOUS
 62
    7
370
   -1
100
AcDbCircle
 10
-19.10000000000002
 20
20.80000152555
 40
0.2000000000000028
100
AcDbArc
 50
0
 51
90
  0
LINE
  5
A7
100
AcDbEntity
  8
0
  6
CONTINUOUS
 62
    7
370
   -1
100
AcDbLine
 10
-19.09999921920001
 20
21.00000089415001
 11
-19.60000023250001
 21
21.00000089415001
  0
ARC
  5
A8
100
AcDbEntity
  8
0
  6
CONTINUOUS
 62
    7
370
   -1
100
AcDbCircle
 10
-19.60000000000011
 20
20.70000152555001
 40
0.2999999999999972
100
AcDbArc
 50
90
 51
180
  0
LINE
  5
A9
100
AcDbEntity
  8
0
  6
CONTINUOUS
 62
    7
370
   -1
100
AcDbLine
 10
-19.89999972289999
 20
20.70000140374999
 11
-19.89999972289999
 21
20.19999921325001
  0
ARC
  5
AA
100
AcDbEntity
  8
0
  6
CONTINUOUS
 62
    7
370
   -1
100
AcDbCircle
 10
-20.2000000000001
 20
20.20000000005001
 40
0.2999999999999972
100
AcDbArc
 50
270
 51
0
  0
LINE
  5
AB
100
AcDbEntity
  8
0
  6
CONTINUOUS
 62
    7
370
   -1
100
AcDbLine
 10
-20.1999992132001
 20
19.89999972285
 11
-20.70000140370002
 21
19.89999972285
  0
ARC
  5
AC
100
AcDbEntity
  8
0
  6
CONTINUOUS
 62
    7
370
   -1
100
AcDbCircle
 10
-20.70000152560002
 20
19.60000000005002
 40
0.3000000000000114
100
AcDbArc
 50
90
 51
180
  0
LINE
  5
AD
100
AcDbEntity
  8
0
  6
CONTINUOUS
 62
    7
370
   -1
100
AcDbLine
 10
-21.0000008941
 20
19.60000023255001
 11
-21.0000008941
 21
19.09999921925001
  0
ARC
  5
AE
100
AcDbEntity
  8
0
  6
CONTINUOUS
 62
    7
370
   -1
100
AcDbCircle
 10
-20.80000152560001
 20
19.10000000005002
 40
0.2000000000000028
100
AcDbArc
 50
180
 51
270
  0
LINE
  5
AF
100
AcDbEntity
  8
0
  6
CONTINUOUS
 62
    7
370
   -1
100
AcDbLine
 10
-20.8000012338
 20
18.89999955895001
 11
-20.6000003964001
 21
18.89999955895001
  0
ARC
  5
B0
100
AcDbEntity
  8
0
  6
CONTINUOUS
 62
    7
370
   -1
100
AcDbCircle
 10
-20.60000000000011
 20
18.70000000005001
 40
0.2000000000000028
100
AcDbArc
 50
0
 51
90
  0
LINE
  5
B1
100
AcDbEntity
  8
0
  6
CONTINUOUS
 62
    7
370
   -1
100
AcDbLine
 10
-20.4000007361
 20
18.69999989875001
 11
-20.4000007361
 21
17.89999939505001
  0
ARC
  5
B2
100
AcDbEntity
  8
0
  6
CONTINUOUS
 62
    7
370
   -1
100
AcDbCircle
 10
-20.60000000000011
 20
17.90000000005001
 40
0.2000000000000028
100
AcDbArc
 50
270
 51
0
  0
LINE
  5
B3
100
AcDbEntity
  8
0
  6
CONTINUOUS
 62
    7
370
   -1
100
AcDbLine
 10
-20.6000003964001
 20
17.69999973485001
 11
-20.8000012338
 21
17.69999973485001
  0
ARC
  5
B4
100
AcDbEntity
  8
0
  6
CONTINUOUS
 62
    7
370
   -1
100
AcDbCircle
 10
-20.80000152560001
 20
17.50000000005001
 40
0.2000000000000028
100
AcDbArc
 50
90
 51
180
  0
LINE
  5
B5
100
AcDbEntity
  8
0
  6
CONTINUOUS
 62
    7
370
   -1
100
AcDbLine
 10
-21.0000008941
 20
17.50000007455
 11
-21.0000008941
 21
8.000000380050011
  0
ARC
  5
B6
100
AcDbEntity
  8
0
  6
CONTINUOUS
 62
    7
370
   -1
100
AcDbCircle
 10
-20.5000015256
 20
8.000000000050006
 40
0.5
100
AcDbArc
 50
180
 51
270
  0
LINE
  5
B7
100
AcDbEntity
  8
0
  6
CONTINUOUS
 62
    7
370
   -1
100
AcDbLine
 10
-20.50000174350001
 20
7.499999832450015
 11
-19.5000004023
 21
7.499999832450015
  0
ARC
  5
B8
100
AcDbEntity
  8
0
  6
CONTINUOUS
 62
    7
370
   -1
100
AcDbCircle
 10
-19.5
 20
8.000000000050006
 40
0.5000000000000142
100
AcDbArc
 50
270
 51
0
  0
LINE
  5
B9
100
AcDbEntity
  8
0
  6
CONTINUOUS
 62
    7
370
   -1
100
AcDbLine
 10
-18.99999938909999
 20
8.000000380050011
 11
-18.99999938909999
 21
10.20000036815001
  0
ARC
  5
BA
100
AcDbEntity
  8
0
  6
CONTINUOUS
 62
    7
370
   -1
100
AcDbCircle
 10
-17.70000000000002
 20
10.20000000005001
 40
1.300000000000026
100
AcDbArc
 50
90
 51
180
  0
LINE
  5
BB
100
AcDbEntity
  8
0
  6
CONTINUOUS
 62
    7
370
   -1
100
AcDbLine
 10
-17.6999997348
 20
11.50000002235
 11
-12.68492452800001
 21
11.50000002235
  0
ARC
  5
BC
100
AcDbEntity
  8
0
  6
CONTINUOUS
 62
    7
370
   -1
100
AcDbCircle
 10
-12.68492424050001
 20
11.20000000005001
 40
0.3000000000000245
100
AcDbArc
 50
45
 51
90
  0
LINE
  5
BD
100
AcDbEntity
  8
0
  6
CONTINUOUS
 62
    7
370
   -1
100
AcDbLine
 10
-12.47279252859999
 20
11.41213160015002
 11
-12.08033040170019
 21
11.01966947325
  0
ARC
  5
BE
100
AcDbEntity
  8
0
  6
CONTINUOUS
 62
    7
370
   -1
100
AcDbCircle
 10
-11.55000000000001
 20
11.55000000005002
 40
0.7500000000000063
100
AcDbArc
 50
225
 51
45
  0
LINE
  5
BF
100
AcDbEntity
  8
0
  6
CONTINUOUS
 62
    7
370
   -1
100
AcDbLine
 10
19.60000023239999
 20
21.00000089415001
 11
19.09999921920001
 21
21.00000089415001
  0
ARC
  5
C0
100
AcDbEntity
  8
0
  6
CONTINUOUS
 62
    7
370
   -1
100
AcDbCircle
 10
19.09999999999999
 20
20.80000152555
 40
0.2000000000000028
100
AcDbArc
 50
90
 51
180
  0
LINE
  5
C1
100
AcDbEntity
  8
0
  6
CONTINUOUS
 62
    7
370
   -1
100
AcDbLine
 10
18.89999955889999
 20
20.80000123385001
 11
18.89999955889999
 21
20.60000039645
  0
ARC
  5
C2
100
AcDbEntity
  8
0
  6
CONTINUOUS
 62
    7
370
   -1
100
AcDbCircle
 10
18.69999999999999
 20
20.60000000005
 40
0.2000000000000171
100
AcDbArc
 50
270
 51
0
  0
LINE
  5
C3
100
AcDbEntity
  8
0
  6
CONTINUOUS
 62
    7
370
   -1
100
AcDbLine
 10
18.69999989869998
 20
20.40000073615001
 11
17.89999939499998
 21
20.40000073615001
  0
ARC
  5
C4
100
AcDbEntity
  8
0
  6
CONTINUOUS
 62
    7
370
   -1
100
AcDbCircle
 10
17.89999999999992
 20
20.60000000005
 40
0.2000000000000171
100
AcDbArc
 50
180
 51
270
  0
LINE
  5
C5
100
AcDbEntity
  8
0
  6
CONTINUOUS
 62
    7
370
   -1
100
AcDbLine
 10
17.69999973469998
 20
20.60000039645
 11
17.69999973469998
 21
20.80000123385001
  0
ARC
  5
C6
100
AcDbEntity
  8
0
  6
CONTINUOUS
 62
    7
370
   -1
100
AcDbCircle
 10
17.5
 20
20.80000152555
 40
0.2000000000000028
100
AcDbArc
 50
0
 51
90
  0
LINE
  5
C7
100
AcDbEntity
  8
0
  6
CONTINUOUS
 62
    7
370
   -1
100
AcDbLine
 10
17.50000007450001
 20
21.00000089415001
 11
8.000000379999989
 21
21.00000089415001
  0
ARC
  5
C8
100
AcDbEntity
  8
0
  6
CONTINUOUS
 62
    7
370
   -1
100
AcDbCircle
 10
8
 20
20.50000152555002
 40
0.5
100
AcDbArc
 50
90
 51
180
  0
LINE
  5
C9
100
AcDbEntity
  8
0
  6
CONTINUOUS
 62
    7
370
   -1
100
AcDbLine
 10
7.499999832300005
 20
20.50000174345003
 11
7.499999832300005
 21
19.50000040235001
  0
ARC
  5
CA
100
AcDbEntity
  8
0
  6
CONTINUOUS
 62
    7
370
   -1
100
AcDbCircle
 10
8
 20
19.50000000005001
 40
0.5
100
AcDbArc
 50
180
 51
270
  0
LINE
  5
CB
100
AcDbEntity
  8
0
  6
CONTINUOUS
 62
    7
370
   -1
100
AcDbLine
 10
8.000000379999989
 20
18.99999938905
 11
10.20000036799999
 21
18.99999938905
  0
ARC
  5
CC
100
AcDbEntity
  8
0
  6
CONTINUOUS
 62
    7
370
   -1
100
AcDbCircle
 10
10.1999999999999
 20
17.70000000005001
 40
1.30000000000001
100
AcDbArc
 50
0
 51
90
  0
LINE
  5
CD
100
AcDbEntity
  8
0
  6
CONTINUOUS
 62
    7
370
   -1
100
AcDbLine
 10
11.5000000222999
 20
17.69999973485001
 11
11.5000000222999
 21
12.68492452805
  0
ARC
  5
CE
100
AcDbEntity
  8
0
  6
CONTINUOUS
 62
    7
370
   -1
100
AcDbCircle
 10
11.19999999999999
 20
12.68492424055
 40
0.3000000000000114
100
AcDbArc
 50
315
 51
0
  0
LINE
  5
CF
100
AcDbEntity
  8
0
  6
CONTINUOUS
 62
    7
370
   -1
100
AcDbLine
 10
11.41213160009999
 20
12.47279252865
 11
11.0196694732
 21
12.08033040175002
  0
ARC
  5
D0
100
AcDbEntity
  8
0
  6
CONTINUOUS
 62
    7
370
   -1
100
AcDbCircle
 10
11.54999999999998
 20
11.55000000005002
 40
0.7500000000000161
100
AcDbArc
 50
135
 51
315
  0
LINE
  5
D1
100
AcDbEntity
  8
0
  6
CONTINUOUS
 62
    7
370
   -1
100
AcDbLine
 10
12.08033040159998
 20
11.01966947325
 11
12.47279252859999
 21
11.41213160015002
  0
ARC
  5
D2
100
AcDbEntity
  8
0
  6
CONTINUOUS
 62
    7
370
   -1
100
AcDbCircle
 10
12.68492424049998
 20
11.20000000005001
 40
0.3000000000000043
100
AcDbArc
 50
90
 51
135
  0
LINE
  5
D3
100
AcDbEntity
  8
0
  6
CONTINUOUS
 62
    7
370
   -1
100
AcDbLine
 10
12.68492452799989
 20
11.50000002235
 11
17.69999973469998
 21
11.50000002235
  0
ARC
  5
D4
100
AcDbEntity
  8
0
  6
CONTINUOUS
 62
    7
370
   -1
100
AcDbCircle
 10
17.69999999999999
 20
10.20000000005001
 40
1.30000000000004
100
AcDbArc
 50
0
 51
90
  0
LINE
  5
D5
100
AcDbEntity
  8
0
  6
CONTINUOUS
 62
    7
370
   -1
100
AcDbLine
 10
18.99999938900001
 20
10.20000036815001
 11
18.99999938900001
 21
8.000000380050011
  0
ARC
  5
D6
100
AcDbEntity
  8
0
  6
CONTINUOUS
 62
    7
370
   -1
100
AcDbCircle
 10
19.5
 20
8.000000000050006
 40
0.5
100
AcDbArc
 50
180
 51
270
  0
LINE
  5
D7
100
AcDbEntity
  8
0
  6
CONTINUOUS
 62
    7
370
   -1
100
AcDbLine
 10
19.50000040229992
 20
7.499999832450015
 11
20.50000174339999
 21
7.499999832450015
  0
ARC
  5
D8
100
AcDbEntity
  8
0
  6
CONTINUOUS
 62
    7
370
   -1
100
AcDbCircle
 10
20.50000152549998
 20
8.000000000050006
 40
0.5
100
AcDbArc
 50
270
 51
0
  0
LINE
  5
D9
100
AcDbEntity
  8
0
  6
CONTINUOUS
 62
    7
370
   -1
100
AcDbLine
 10
21.0000008941
 20
8.000000380050011
 11
21.0000008941
 21
17.50000007455
  0
ARC
  5
DA
100
AcDbEntity
  8
0
  6
CONTINUOUS
 62
    7
370
   -1
100
AcDbCircle
 10
20.80000152549999
 20
17.50000000005001
 40
0.1999999999999886
100
AcDbArc
 50
0
 51
90
  0
LINE
  5
DB
100
AcDbEntity
  8
0
  6
CONTINUOUS
 62
    7
370
   -1
100
AcDbLine
 10
20.8000012338
 20
17.69999973485001
 11
20.60000039639999
 21
17.69999973485001
  0
ARC
  5
DC
100
AcDbEntity
  8
0
  6
CONTINUOUS
 62
    7
370
   -1
100
AcDbCircle
 10
20.6
 20
17.90000000005001
 40
0.2000000000000028
100
AcDbArc
 50
180
 51
270
  0
LINE
  5
DD
100
AcDbEntity
  8
0
  6
CONTINUOUS
 62
    7
370
   -1
100
AcDbLine
 10
20.4000007361
 20
17.89999939505001
 11
20.4000007361
 21
18.69999989875001
  0
ARC
  5
DE
100
AcDbEntity
  8
0
  6
CONTINUOUS
 62
    7
370
   -1
100
AcDbCircle
 10
20.6
 20
18.70000000005001
 40
0.2000000000000028
100
AcDbArc
 50
90
 51
180
  0
LINE
  5
DF
100
AcDbEntity
  8
0
  6
CONTINUOUS
 62
    7
370
   -1
100
AcDbLine
 10
20.60000039639999
 20
18.89999955895001
 11
20.8000012338
 21
18.89999955895001
  0
ARC
  5
E0
100
AcDbEntity
  8
0
  6
CONTINUOUS
 62
    7
370
   -1
100
AcDbCircle
 10
20.80000152549999
 20
19.10000000005002
 40
0.2000000000000028
100
AcDbArc
 50
270
 51
0
  0
LINE
  5
E1
100
AcDbEntity
  8
0
  6
CONTINUOUS
 62
    7
370
   -1
100
AcDbLine
 10
21.0000008941
 20
19.09999921925001
 11
21.0000008941
 21
19.60000023255001
  0
ARC
  5
E2
100
AcDbEntity
  8
0
  6
CONTINUOUS
 62
    7
370
   -1
100
AcDbCircle
 10
20.70000152549992
 20
19.60000000005002
 40
0.3000000000000114
100
AcDbArc
 50
0
 51
90
  0
LINE
  5
E3
100
AcDbEntity
  8
0
  6
CONTINUOUS
 62
    7
370
   -1
100
AcDbLine
 10
20.7000014036999
 20
19.89999972285
 11
20.1999992131999
 21
19.89999972285
  0
ARC
  5
E4
100
AcDbEntity
  8
0
  6
CONTINUOUS
 62
    7
370
   -1
100
AcDbCircle
 10
20.19999999999999
 20
20.20000000005001
 40
0.3000000000000114
100
AcDbArc
 50
180
 51
270
  0
LINE
  5
E5
100
AcDbEntity
  8
0
  6
CONTINUOUS
 62
    7
370
   -1
100
AcDbLine
 10
19.89999972279989
 20
20.19999921325001
 11
19.89999972279989
 21
20.70000140374999
  0
ARC
  5
E6
100
AcDbEntity
  8
0
  6
CONTINUOUS
 62
    7
370
   -1
100
AcDbCircle
 10
19.59999999999999
 20
20.70000152555001
 40
0.3000000000000114
100
AcDbArc
 50
0
 51
90
  0
ARC
  5
E7
100
AcDbEntity
  8
0
  6
CONTINUOUS
 62
    7
370
   -1
100
AcDbCircle
 10
11.54999999999998
 20
-11.54999999994999
 40
0.7500000000000063
100
AcDbArc
 50
45
 51
225
  0
LINE
  5
E8
100
AcDbEntity
  8
0
  6
CONTINUOUS
 62
    7
370
   -1
100
AcDbLine
 10
11.0196694732
 20
-12.08033040164999
 11
11.41213160009999
 21
-12.47279252854999
  0
LINE
  5
E9
100
AcDbEntity
  8
0
  6
CONTINUOUS
 62
    7
370
   -1
100
AcDbLine
 10
11.5000000222999
 20
-12.68492452795
 11
11.5000000222999
 21
-17.69999973474998
  0
ARC
  5
EA
100
AcDbEntity
  8
0
  6
CONTINUOUS
 62
    7
370
   -1
100
AcDbCircle
 10
10.1999999999999
 20
-17.69999999994998
 40
1.30000000000001
100
AcDbArc
 50
270
 51
0
  0
LINE
  5
EB
100
AcDbEntity
  8
0
  6
CONTINUOUS
 62
    7
370
   -1
100
AcDbLine
 10
10.20000036799999
 20
-18.99999938904999
 11
8.000000379999989
 21
-18.99999938904999
  0
ARC
  5
EC
100
AcDbEntity
  8
0
  6
CONTINUOUS
 62
    7
370
   -1
100
AcDbCircle
 10
8
 20
-19.49999999994999
 40
0.5
100
AcDbArc
 50
90
 51
180
  0
LINE
  5
ED
100
AcDbEntity
  8
0
  6
CONTINUOUS
 62
    7
370
   -1
100
AcDbLine
 10
7.499999832300005
 20
-19.50000040224998
 11
7.499999832300005
 21
-20.50000174345001
  0
ARC
  5
EE
100
AcDbEntity
  8
0
  6
CONTINUOUS
 62
    7
370
   -1
100
AcDbCircle
 10
8
 20
-20.50000152545
 40
0.5
100
AcDbArc
 50
180
 51
270
  0
LINE
  5
EF
100
AcDbEntity
  8
0
  6
CONTINUOUS
 62
    7
370
   -1
100
AcDbLine
 10
8.000000379999989
 20
-21.00000089404999
 11
17.50000007450001
 21
-21.00000089404999
  0
ARC
  5
F0
100
AcDbEntity
  8
0
  6
CONTINUOUS
 62
    7
370
   -1
100
AcDbCircle
 10
17.5
 20
-20.80000152545002
 40
0.2000000000000028
100
AcDbArc
 50
270
 51
0
  0
LINE
  5
F1
100
AcDbEntity
  8
0
  6
CONTINUOUS
 62
    7
370
   -1
100
AcDbLine
 10
17.69999973469998
 20
-20.80000123375
 11
17.69999973469998
 21
-20.60000039635
  0
ARC
  5
F2
100
AcDbEntity
  8
0
  6
CONTINUOUS
 62
    7
370
   -1
100
AcDbCircle
 10
17.89999999999992
 20
-20.59999999994997
 40
0.2000000000000171
100
AcDbArc
 50
90
 51
180
  0
LINE
  5
F3
100
AcDbEntity
  8
0
  6
CONTINUOUS
 62
    7
370
   -1
100
AcDbLine
 10
17.89999939499998
 20
-20.40000073604999
 11
18.69999989869998
 21
-20.40000073604999
  0
ARC
  5
F4
100
AcDbEntity
  8
0
  6
CONTINUOUS
 62
    7
370
   -1
100
AcDbCircle
 10
18.69999999999999
 20
-20.59999999994997
 40
0.2000000000000171
100
AcDbArc
 50
0
 51
90
  0
LINE
  5
F5
100
AcDbEntity
  8
0
  6
CONTINUOUS
 62
    7
370
   -1
100
AcDbLine
 10
18.89999955889999
 20
-20.60000039635
 11
18.89999955889999
 21
-20.80000123375
  0
ARC
  5
F6
100
AcDbEntity
  8
0
  6
CONTINUOUS
 62
    7
370
   -1
100
AcDbCircle
 10
19.09999999999999
 20
-20.80000152545002
 40
0.2000000000000028
100
AcDbArc
 50
180
 51
270
  0
LINE
  5
F7
100
AcDbEntity
  8
0
  6
CONTINUOUS
 62
    7
370
   -1
100
AcDbLine
 10
19.09999921920001
 20
-21.00000089404999
 11
19.60000023239999
 21
-21.00000089404999
  0
ARC
  5
F8
100
AcDbEntity
  8
0
  6
CONTINUOUS
 62
    7
370
   -1
100
AcDbCircle
 10
19.59999999999999
 20
-20.70000152545002
 40
0.3000000000000114
100
AcDbArc
 50
270
 51
0
  0
LINE
  5
F9
100
AcDbEntity
  8
0
  6
CONTINUOUS
 62
    7
370
   -1
100
AcDbLine
 10
19.89999972279989
 20
-20.70000140365002
 11
19.89999972279989
 21
-20.19999921314998
  0
ARC
  5
FA
100
AcDbEntity
  8
0
  6
CONTINUOUS
 62
    7
370
   -1
100
AcDbCircle
 10
20.19999999999999
 20
-20.19999999994998
 40
0.3000000000000114
100
AcDbArc
 50
90
 51
180
  0
LINE
  5
FB
100
AcDbEntity
  8
0
  6
CONTINUOUS
 62
    7
370
   -1
100
AcDbLine
 10
20.1999992131999
 20
-19.89999972274999
 11
20.7000014036999
 21
-19.89999972274999
  0
ARC
  5
FC
100
AcDbEntity
  8
0
  6
CONTINUOUS
 62
    7
370
   -1
100
AcDbCircle
 10
20.70000152549992
 20
-19.59999999994998
 40
0.3000000000000114
100
AcDbArc
 50
270
 51
0
  0
LINE
  5
FD
100
AcDbEntity
  8
0
  6
CONTINUOUS
 62
    7
370
   -1
100
AcDbLine
 10
21.0000008941
 20
-19.60000023244998
 11
21.0000008941
 21
-19.09999921914999
  0
ARC
  5
FE
100
AcDbEntity
  8
0
  6
CONTINUOUS
 62
    7
370
   -1
100
AcDbCircle
 10
20.80000152549999
 20
-19.09999999994998
 40
0.2000000000000028
100
AcDbArc
 50
0
 51
90
  0
LINE
  5
FF
100
AcDbEntity
  8
0
  6
CONTINUOUS
 62
    7
370
   -1
100
AcDbLine
 10
20.8000012338
 20
-18.89999955885
 11
20.60000039639999
 21
-18.89999955885
  0
ARC
  5
100
100
AcDbEntity
  8
0
  6
CONTINUOUS
 62
    7
370
   -1
100
AcDbCircle
 10
20.6
 20
-18.69999999994998
 40
0.2000000000000028
100
AcDbArc
 50
180
 51
270
  0
LINE
  5
101
100
AcDbEntity
  8
0
  6
CONTINUOUS
 62
    7
370
   -1
100
AcDbLine
 10
20.4000007361
 20
-18.69999989864999
 11
20.4000007361
 21
-17.89999939494999
  0
ARC
  5
102
100
AcDbEntity
  8
0
  6
CONTINUOUS
 62
    7
370
   -1
100
AcDbCircle
 10
20.6
 20
-17.89999999994998
 40
0.2000000000000028
100
AcDbArc
 50
90
 51
180
  0
LINE
  5
103
100
AcDbEntity
  8
0
  6
CONTINUOUS
 62
    7
370
   -1
100
AcDbLine
 10
20.60000039639999
 20
-17.69999973474998
 11
20.8000012338
 21
-17.69999973474998
  0
ARC
  5
104
100
AcDbEntity
  8
0
  6
CONTINUOUS
 62
    7
370
   -1
100
AcDbCircle
 10
20.80000152549999
 20
-17.49999999994999
 40
0.1999999999999886
100
AcDbArc
 50
270
 51
0
  0
LINE
  5
105
100
AcDbEntity
  8
0
  6
CONTINUOUS
 62
    7
370
   -1
100
AcDbLine
 10
21.0000008941
 20
-17.50000007445
 11
21.0000008941
 21
-8.000000379949967
  0
ARC
  5
106
100
AcDbEntity
  8
0
  6
CONTINUOUS
 62
    7
370
   -1
100
AcDbCircle
 10
20.50000152549998
 20
-7.999999999949992
 40
0.5
100
AcDbArc
 50
0
 51
90
  0
LINE
  5
107
100
AcDbEntity
  8
0
  6
CONTINUOUS
 62
    7
370
   -1
100
AcDbLine
 10
20.50000174339999
 20
-7.499999832349985
 11
19.50000040229992
 21
-7.499999832349985
  0
ARC
  5
108
100
AcDbEntity
  8
0
  6
CONTINUOUS
 62
    7
370
   -1
100
AcDbCircle
 10
19.5
 20
-7.999999999949992
 40
0.5
100
AcDbArc
 50
90
 51
180
  0
LINE
  5
109
100
AcDbEntity
  8
0
  6
CONTINUOUS
 62
    7
370
   -1
100
AcDbLine
 10
18.99999938900001
 20
-8.000000379949967
 11
18.99999938900001
 21
-10.20000036804998
  0
ARC
  5
10A
100
AcDbEntity
  8
0
  6
CONTINUOUS
 62
    7
370
   -1
100
AcDbCircle
 10
17.69999999999999
 20
-10.19999999994996
 40
1.30000000000004
100
AcDbArc
 50
270
 51
0
  0
LINE
  5
10B
100
AcDbEntity
  8
0
  6
CONTINUOUS
 62
    7
370
   -1
100
AcDbLine
 10
17.69999973469998
 20
-11.50000002234998
 11
12.68492452799989
 21
-11.50000002234998
  0
ARC
  5
10C
100
AcDbEntity
  8
0
  6
CONTINUOUS
 62
    7
370
   -1
100
AcDbCircle
 10
12.68492424049998
 20
-11.19999999994998
 40
0.3000000000000043
100
AcDbArc
 50
225
 51
270
  0
LINE
  5
10D
100
AcDbEntity
  8
0
  6
CONTINUOUS
 62
    7
370
   -1
100
AcDbLine
 10
12.47279252859999
 20
-11.41213160004997
 11
12.08033040159998
 21
-11.01966947314999
  0
LINE
  5
10E
100
AcDbEntity
  8
0
  6
CONTINUOUS
 62
    7
370
   -1
100
AcDbLine
 10
-19.60000023250001
 20
-21.00000089404999
 11
-19.09999921920001
 21
-21.00000089404999
  0
ARC
  5
10F
100
AcDbEntity
  8
0
  6
CONTINUOUS
 62
    7
370
   -1
100
AcDbCircle
 10
-19.10000000000002
 20
-20.80000152545002
 40
0.2000000000000028
100
AcDbArc
 50
270
 51
0
  0
LINE
  5
110
100
AcDbEntity
  8
0
  6
CONTINUOUS
 62
    7
370
   -1
100
AcDbLine
 10
-18.89999955889999
 20
-20.80000123375
 11
-18.89999955889999
 21
-20.60000039635
  0
ARC
  5
111
100
AcDbEntity
  8
0
  6
CONTINUOUS
 62
    7
370
   -1
100
AcDbCircle
 10
-18.70000000000002
 20
-20.59999999994997
 40
0.2000000000000028
100
AcDbArc
 50
90
 51
180
  0
LINE
  5
112
100
AcDbEntity
  8
0
  6
CONTINUOUS
 62
    7
370
   -1
100
AcDbLine
 10
-18.69999989870001
 20
-20.40000073604999
 11
-17.89999939500001
 21
-20.40000073604999
  0
ARC
  5
113
100
AcDbEntity
  8
0
  6
CONTINUOUS
 62
    7
370
   -1
100
AcDbCircle
 10
-17.9
 20
-20.59999999994997
 40
0.2000000000000028
100
AcDbArc
 50
0
 51
90
  0
LINE
  5
114
100
AcDbEntity
  8
0
  6
CONTINUOUS
 62
    7
370
   -1
100
AcDbLine
 10
-17.6999997348
 20
-20.60000039635
 11
-17.6999997348
 21
-20.80000123375
  0
ARC
  5
115
100
AcDbEntity
  8
0
  6
CONTINUOUS
 62
    7
370
   -1
100
AcDbCircle
 10
-17.5
 20
-20.80000152545002
 40
0.2000000000000028
100
AcDbArc
 50
180
 51
270
  0
LINE
  5
116
100
AcDbEntity
  8
0
  6
CONTINUOUS
 62
    7
370
   -1
100
AcDbLine
 10
-17.50000007450009
 20
-21.00000089404999
 11
-8.000000380000102
 21
-21.00000089404999
  0
ARC
  5
117
100
AcDbEntity
  8
0
  6
CONTINUOUS
 62
    7
370
   -1
100
AcDbCircle
 10
-8
 20
-20.50000152545
 40
0.5000000000000285
100
AcDbArc
 50
270
 51
0
  0
LINE
  5
118
100
AcDbEntity
  8
0
  6
CONTINUOUS
 62
    7
370
   -1
100
AcDbLine
 10
-7.499999832400106
 20
-20.50000174345001
 11
-7.499999832400106
 21
-19.50000040224998
  0
ARC
  5
119
100
AcDbEntity
  8
0
  6
CONTINUOUS
 62
    7
370
   -1
100
AcDbCircle
 10
-8
 20
-19.49999999994999
 40
0.5000000000000285
100
AcDbArc
 50
0
 51
90
  0
LINE
  5
11A
100
AcDbEntity
  8
0
  6
CONTINUOUS
 62
    7
370
   -1
100
AcDbLine
 10
-8.000000380000102
 20
-18.99999938904999
 11
-10.2000003681
 21
-18.99999938904999
  0
ARC
  5
11B
100
AcDbEntity
  8
0
  6
CONTINUOUS
 62
    7
370
   -1
100
AcDbCircle
 10
-10.2000000000001
 20
-17.69999999994998
 40
1.30000000000001
100
AcDbArc
 50
180
 51
270
  0
LINE
  5
11C
100
AcDbEntity
  8
0
  6
CONTINUOUS
 62
    7
370
   -1
100
AcDbLine
 10
-11.5000000224
 20
-17.69999973474998
 11
-11.5000000224
 21
-12.68492452795
  0
ARC
  5
11D
100
AcDbEntity
  8
0
  6
CONTINUOUS
 62
    7
370
   -1
100
AcDbCircle
 10
-11.20000000000001
 20
-12.68492424044997
 40
0.3000000000000114
100
AcDbArc
 50
135
 51
180
  0
LINE
  5
11E
100
AcDbEntity
  8
0
  6
CONTINUOUS
 62
    7
370
   -1
100
AcDbLine
 10
-11.41213160010011
 20
-12.47279252854999
 11
-11.0196694732
 21
-12.08033040164999
  0
ARC
  5
11F
100
AcDbEntity
  8
0
  6
CONTINUOUS
 62
    7
370
   -1
100
AcDbCircle
 10
-11.55000000000001
 20
-11.54999999994999
 40
0.7500000000000161
100
AcDbArc
 50
315
 51
135
  0
LINE
  5
120
100
AcDbEntity
  8
0
  6
CONTINUOUS
 62
    7
370
   -1
100
AcDbLine
 10
-12.08033040170019
 20
-11.01966947314999
 11
-12.47279252859999
 21
-11.41213160004997
  0
ARC
  5
121
100
AcDbEntity
  8
0
  6
CONTINUOUS
 62
    7
370
   -1
100
AcDbCircle
 10
-12.68492424050001
 20
-11.19999999994998
 40
0.3000000000000245
100
AcDbArc
 50
270
 51
315
  0
LINE
  5
122
100
AcDbEntity
  8
0
  6
CONTINUOUS
 62
    7
370
   -1
100
AcDbLine
 10
-12.68492452800001
 20
-11.50000002234998
 11
-17.6999997348
 21
-11.50000002234998
  0
ARC
  5
123
100
AcDbEntity
  8
0
  6
CONTINUOUS
 62
    7
370
   -1
100
AcDbCircle
 10
-17.70000000000002
 20
-10.19999999994996
 40
1.300000000000026
100
AcDbArc
 50
180
 51
270
  0
LINE
  5
124
100
AcDbEntity
  8
0
  6
CONTINUOUS
 62
    7
370
   -1
100
AcDbLine
 10
-18.99999938909999
 20
-10.20000036804998
 11
-18.99999938909999
 21
-8.000000379949967
  0
ARC
  5
125
100
AcDbEntity
  8
0
  6
CONTINUOUS
 62
    7
370
   -1
100
AcDbCircle
 10
-19.5
 20
-7.999999999949992
 40
0.5000000000000142
100
AcDbArc
 50
0
 51
90
  0
LINE
  5
126
100
AcDbEntity
  8
0
  6
CONTINUOUS
 62
    7
370
   -1
100
AcDbLine
 10
-19.5000004023
 20
-7.499999832349985
 11
-20.50000174350001
 21
-7.499999832349985
  0
ARC
  5
127
100
AcDbEntity
  8
0
  6
CONTINUOUS
 62
    7
370
   -1
100
AcDbCircle
 10
-20.5000015256
 20
-7.999999999949992
 40
0.5
100
AcDbArc
 50
90
 51
180
  0
LINE
  5
128
100
AcDbEntity
  8
0
  6
CONTINUOUS
 62
    7
370
   -1
100
AcDbLine
 10
-21.0000008941
 20
-8.000000379949967
 11
-21.0000008941
 21
-17.50000007445
  0
ARC
  5
129
100
AcDbEntity
  8
0
  6
CONTINUOUS
 62
    7
370
   -1
100
AcDbCircle
 10
-20.80000152560001
 20
-17.49999999994999
 40
0.2000000000000028
100
AcDbArc
 50
180
 51
270
  0
LINE
  5
12A
100
AcDbEntity
  8
0
  6
CONTINUOUS
 62
    7
370
   -1
100
AcDbLine
 10
-20.8000012338
 20
-17.69999973474998
 11
-20.6000003964001
 21
-17.69999973474998
  0
ARC
  5
12B
100
AcDbEntity
  8
0
  6
CONTINUOUS
 62
    7
370
   -1
100
AcDbCircle
 10
-20.60000000000011
 20
-17.89999999994998
 40
0.2000000000000028
100
AcDbArc
 50
0
 51
90
  0
LINE
  5
12C
100
AcDbEntity
  8
0
  6
CONTINUOUS
 62
    7
370
   -1
100
AcDbLine
 10
-20.4000007361
 20
-17.89999939494999
 11
-20.4000007361
 21
-18.69999989864999
  0
ARC
  5
12D
100
AcDbEntity
  8
0
  6
CONTINUOUS
 62
    7
370
   -1
100
AcDbCircle
 10
-20.60000000000011
 20
-18.69999999994998
 40
0.2000000000000028
100
AcDbArc
 50
270
 51
0
  0
LINE
  5
12E
100
AcDbEntity
  8
0
  6
CONTINUOUS
 62
    7
370
   -1
100
AcDbLine
 10
-20.6000003964001
 20
-18.89999955885
 11
-20.8000012338
 21
-18.89999955885
  0
ARC
  5
12F
100
AcDbEntity
  8
0
  6
CONTINUOUS
 62
    7
370
   -1
100
AcDbCircle
 10
-20.80000152560001
 20
-19.09999999994998
 40
0.2000000000000028
100
AcDbArc
 50
90
 51
180
  0
LINE
  5
130
100
AcDbEntity
  8
0
  6
CONTINUOUS
 62
    7
370
   -1
100
AcDbLine
 10
-21.0000008941
 20
-19.09999921914999
 11
-21.0000008941
 21
-19.60000023244998
  0
ARC
  5
131
100
AcDbEntity
  8
0
  6
CONTINUOUS
 62
    7
370
   -1
100
AcDbCircle
 10
-20.70000152560002
 20
-19.59999999994998
 40
0.3000000000000114
100
AcDbArc
 50
180
 51
270
  0
LINE
  5
132
100
AcDbEntity
  8
0
  6
CONTINUOUS
 62
    7
370
   -1
100
AcDbLine
 10
-20.70000140370002
 20
-19.89999972274999
 11
-20.1999992132001
 21
-19.89999972274999
  0
ARC
  5
133
100
AcDbEntity
  8
0
  6
CONTINUOUS
 62
    7
370
   -1
100
AcDbCircle
 10
-20.2000000000001
 20
-20.19999999994998
 40
0.2999999999999972
100
AcDbArc
 50
0
 51
90
  0
LINE
  5
134
100
AcDbEntity
  8
0
  6
CONTINUOUS
 62
    7
370
   -1
100
AcDbLine
 10
-19.89999972289999
 20
-20.19999921314998
 11
-19.89999972289999
 21
-20.70000140365002
  0
ARC
  5
135
100
AcDbEntity
  8
0
  6
CONTINUOUS
 62
    7
370
   -1
100
AcDbCircle
 10
-19.60000000000011
 20
-20.70000152545002
 40
0.2999999999999972
100
AcDbArc
 50
180
 51
270
  0
ARC
  5
136
100
AcDbEntity
  8
0
  6
CONTINUOUS
 62
    7
370
   -1
100
AcDbCircle
 10
11.19999999999999
 20
-12.68492424044997
 40
0.3000000000000114
100
AcDbArc
 50
0
 51
45
  0
LINE
  5
137
100
AcDbEntity
  8
0
  6
CONTINUOUS
 62
    7
370
   -1
100
AcDbLine
 10
-10.00002041417579
 20
-7.525147087417999
 11
-12.4748740345
 21
-9.999999776449982
  0
LINE
  5
138
100
AcDbEntity
  8
0
  6
CONTINUOUS
 62
    7
370
   -1
100
AcDbLine
 10
-12.4748740345
 20
-9.999999776449982
 11
-17.6999997348
 21
-9.999999776449982
  0
ARC
  5
139
100
AcDbEntity
  8
0
  6
CONTINUOUS
 62
    7
370
   -1
100
AcDbCircle
 10
-17.70000000000002
 20
-9.699999999949966
 40
0.3000000000000256
100
AcDbArc
 50
180
 51
270
  0
LINE
  5
13A
100
AcDbEntity
  8
0
  6
CONTINUOUS
 62
    7
370
   -1
100
AcDbLine
 10
-17.99999922519998
 20
-9.700000286049956
 11
-17.99999922519998
 21
-8.500000461849991
  0
ARC
  5
13B
100
AcDbEntity
  8
0
  6
CONTINUOUS
 62
    7
370
   -1
100
AcDbCircle
 10
-17.70000000000002
 20
-8.499999999949964
 40
0.3000000000000114
100
AcDbArc
 50
90
 51
180
  0
LINE
  5
13C
100
AcDbEntity
  8
0
  6
CONTINUOUS
 62
    7
370
   -1
100
AcDbLine
 10
-17.6999997348
 20
-8.200000040149959
 11
-17.30000041430009
 21
-8.200000040149959
  0
ARC
  5
13D
100
AcDbEntity
  8
0
  6
CONTINUOUS
 62
    7
370
   -1
100
AcDbCircle
 10
-17.30000000000001
 20
-7.899999999949983
 40
0.2999999999999972
100
AcDbArc
 50
270
 51
0
  0
LINE
  5
13E
100
AcDbEntity
  8
0
  6
CONTINUOUS
 62
    7
370
   -1
100
AcDbLine
 10
-17.0000009239001
 20
-7.899999618449953
 11
-17.0000009239001
 21
-5.299999844249995
  0
ARC
  5
13F
100
AcDbEntity
  8
0
  6
CONTINUOUS
 62
    7
370
   -1
100
AcDbCircle
 10
-17.30000000000001
 20
-5.299999999949989
 40
0.3000000000000256
100
AcDbArc
 50
0
 51
90
  0
LINE
  5
140
100
AcDbEntity
  8
0
  6
CONTINUOUS
 62
    7
370
   -1
100
AcDbLine
 10
-17.30000041430009
 20
-4.999999888149986
 11
-22.1999995411
 21
-4.999999888149986
  0
ARC
  5
141
100
AcDbEntity
  8
0
  6
CONTINUOUS
 62
    7
370
   -1
100
AcDbCircle
 10
-22.19999999999999
 20
-5.299999999949989
 40
0.2999999999999972
100
AcDbArc
 50
90
 51
180
  0
LINE
  5
142
100
AcDbEntity
  8
0
  6
CONTINUOUS
 62
    7
370
   -1
100
AcDbLine
 10
-22.5000008941
 20
-5.299999844249995
 11
-22.5000008941
 21
-19.50000040224998
  0
ARC
  5
143
100
AcDbEntity
  8
0
  6
CONTINUOUS
 62
    7
370
   -1
100
AcDbCircle
 10
-19.5
 20
-19.49999999994999
 40
3
100
AcDbArc
 50
180
 51
270
  0
LINE
  5
144
100
AcDbEntity
  8
0
  6
CONTINUOUS
 62
    7
370
   -1
100
AcDbLine
 10
-19.5000004023
 20
-22.50000089404999
 11
-5.299999844300003
 21
-22.50000089404999
  0
ARC
  5
145
100
AcDbEntity
  8
0
  6
CONTINUOUS
 62
    7
370
   -1
100
AcDbCircle
 10
-5.300000000000011
 20
-22.19999999994998
 40
0.3000000000000114
100
AcDbArc
 50
270
 51
0
  0
LINE
  5
146
100
AcDbEntity
  8
0
  6
CONTINUOUS
 62
    7
370
   -1
100
AcDbLine
 10
-4.99999988830001
 20
-22.19999954094998
 11
-4.99999988830001
 21
-17.30000041424999
  0
ARC
  5
147
100
AcDbEntity
  8
0
  6
CONTINUOUS
 62
    7
370
   -1
100
AcDbCircle
 10
-5.300000000000011
 20
-17.29999999994999
 40
0.3000000000000114
100
AcDbArc
 50
0
 51
90
  0
LINE
  5
148
100
AcDbEntity
  8
0
  6
CONTINUOUS
 62
    7
370
   -1
100
AcDbLine
 10
-5.299999844300003
 20
-17.00000092384999
 11
-7.899999618500004
 21
-17.00000092384999
  0
ARC
  5
149
100
AcDbEntity
  8
0
  6
CONTINUOUS
 62
    7
370
   -1
100
AcDbCircle
 10
-7.900000000000005
 20
-17.29999999994999
 40
0.3000000000000114
100
AcDbArc
 50
90
 51
180
  0
LINE
  5
14A
100
AcDbEntity
  8
0
  6
CONTINUOUS
 62
    7
370
   -1
100
AcDbLine
 10
-8.200000040199996
 20
-17.30000041424999
 11
-8.200000040199996
 21
-17.69999973474998
  0
ARC
  5
14B
100
AcDbEntity
  8
0
  6
CONTINUOUS
 62
    7
370
   -1
100
AcDbCircle
 10
-8.5
 20
-17.69999999994998
 40
0.3000000000000114
100
AcDbArc
 50
270
 51
0
  0
LINE
  5
14C
100
AcDbEntity
  8
0
  6
CONTINUOUS
 62
    7
370
   -1
100
AcDbLine
 10
-8.500000461899987
 20
-17.99999922504999
 11
-9.700000286099993
 21
-17.99999922504999
  0
ARC
  5
14D
100
AcDbEntity
  8
0
  6
CONTINUOUS
 62
    7
370
   -1
100
AcDbCircle
 10
-9.700000000000102
 20
-17.69999999994998
 40
0.3000000000000114
100
AcDbArc
 50
180
 51
270
  0
LINE
  5
14E
100
AcDbEntity
  8
0
  6
CONTINUOUS
 62
    7
370
   -1
100
AcDbLine
 10
-9.999999776500005
 20
-17.69999973474998
 11
-9.999999776500005
 21
-12.47487403444997
  0
LINE
  5
14F
100
AcDbEntity
  8
0
  6
CONTINUOUS
 62
    7
370
   -1
100
AcDbLine
 10
-9.999999776500005
 20
-12.47487403444997
 11
-7.525126449800097
 21
-9.999999776449982
  0
LINE
  5
150
100
AcDbEntity
  8
0
  6
CONTINUOUS
 62
    7
370
   -1
100
AcDbLine
 10
7.525147087485144
 20
-10.00002041414288
 11
9.999999776500005
 21
-12.47487403444997
  0
LINE
  5
151
100
AcDbEntity
  8
0
  6
CONTINUOUS
 62
    7
370
   -1
100
AcDbLine
 10
9.999999776500005
 20
-12.47487403444997
 11
9.999999776500005
 21
-17.69999973474998
  0
ARC
  5
152
100
AcDbEntity
  8
0
  6
CONTINUOUS
 62
    7
370
   -1
100
AcDbCircle
 10
9.699999999999989
 20
-17.69999999994998
 40
0.3000000000000114
100
AcDbArc
 50
270
 51
0
  0
LINE
  5
153
100
AcDbEntity
  8
0
  6
CONTINUOUS
 62
    7
370
   -1
100
AcDbLine
 10
9.700000286099993
 20
-17.99999922504999
 11
8.500000461899987
 21
-17.99999922504999
  0
ARC
  5
154
100
AcDbEntity
  8
0
  6
CONTINUOUS
 62
    7
370
   -1
100
AcDbCircle
 10
8.5
 20
-17.69999999994998
 40
0.3000000000000114
100
AcDbArc
 50
180
 51
270
  0
LINE
  5
155
100
AcDbEntity
  8
0
  6
CONTINUOUS
 62
    7
370
   -1
100
AcDbLine
 10
8.200000040199996
 20
-17.69999973474998
 11
8.200000040199996
 21
-17.30000041424999
  0
ARC
  5
156
100
AcDbEntity
  8
0
  6
CONTINUOUS
 62
    7
370
   -1
100
AcDbCircle
 10
7.899999999999977
 20
-17.29999999994999
 40
0.3000000000000398
100
AcDbArc
 50
0
 51
90
  0
LINE
  5
157
100
AcDbEntity
  8
0
  6
CONTINUOUS
 62
    7
370
   -1
100
AcDbLine
 10
7.899999618500004
 20
-17.00000092384999
 11
5.299999844300003
 21
-17.00000092384999
  0
ARC
  5
158
100
AcDbEntity
  8
0
  6
CONTINUOUS
 62
    7
370
   -1
100
AcDbCircle
 10
5.299999999999982
 20
-17.29999999994999
 40
0.2999999999999972
100
AcDbArc
 50
90
 51
180
  0
LINE
  5
159
100
AcDbEntity
  8
0
  6
CONTINUOUS
 62
    7
370
   -1
100
AcDbLine
 10
4.999999888199994
 20
-17.30000041424999
 11
4.999999888199994
 21
-22.19999954094998
  0
ARC
  5
15A
100
AcDbEntity
  8
0
  6
CONTINUOUS
 62
    7
370
   -1
100
AcDbCircle
 10
5.299999999999982
 20
-22.19999999994998
 40
0.2999999999999972
100
AcDbArc
 50
180
 51
270
  0
LINE
  5
15B
100
AcDbEntity
  8
0
  6
CONTINUOUS
 62
    7
370
   -1
100
AcDbLine
 10
5.299999844300003
 20
-22.50000089404999
 11
19.50000040229992
 21
-22.50000089404999
  0
ARC
  5
15C
100
AcDbEntity
  8
0
  6
CONTINUOUS
 62
    7
370
   -1
100
AcDbCircle
 10
19.5
 20
-19.49999999994999
 40
3
100
AcDbArc
 50
270
 51
0
  0
LINE
  5
15D
100
AcDbEntity
  8
0
  6
CONTINUOUS
 62
    7
370
   -1
100
AcDbLine
 10
22.5000008941
 20
-19.50000040224998
 11
22.5000008941
 21
-5.299999844249995
  0
ARC
  5
15E
100
AcDbEntity
  8
0
  6
CONTINUOUS
 62
    7
370
   -1
100
AcDbCircle
 10
22.19999999999999
 20
-5.299999999949989
 40
0.3000000000000114
100
AcDbArc
 50
0
 51
90
  0
LINE
  5
15F
100
AcDbEntity
  8
0
  6
CONTINUOUS
 62
    7
370
   -1
100
AcDbLine
 10
22.19999954100001
 20
-4.999999888149986
 11
17.30000041420001
 21
-4.999999888149986
  0
ARC
  5
160
100
AcDbEntity
  8
0
  6
CONTINUOUS
 62
    7
370
   -1
100
AcDbCircle
 10
17.29999999999989
 20
-5.299999999949989
 40
0.3000000000000114
100
AcDbArc
 50
90
 51
180
  0
LINE
  5
161
100
AcDbEntity
  8
0
  6
CONTINUOUS
 62
    7
370
   -1
100
AcDbLine
 10
17.00000092389999
 20
-5.299999844249995
 11
17.00000092389999
 21
-7.899999618449953
  0
ARC
  5
162
100
AcDbEntity
  8
0
  6
CONTINUOUS
 62
    7
370
   -1
100
AcDbCircle
 10
17.29999999999989
 20
-7.899999999949983
 40
0.2999999999999972
100
AcDbArc
 50
180
 51
270
  0
LINE
  5
163
100
AcDbEntity
  8
0
  6
CONTINUOUS
 62
    7
370
   -1
100
AcDbLine
 10
17.30000041420001
 20
-8.200000040149959
 11
17.69999973469998
 21
-8.200000040149959
  0
ARC
  5
164
100
AcDbEntity
  8
0
  6
CONTINUOUS
 62
    7
370
   -1
100
AcDbCircle
 10
17.69999999999999
 20
-8.499999999949964
 40
0.3000000000000114
100
AcDbArc
 50
0
 51
90
  0
LINE
  5
165
100
AcDbEntity
  8
0
  6
CONTINUOUS
 62
    7
370
   -1
100
AcDbLine
 10
17.9999992251
 20
-8.500000461849991
 11
17.9999992251
 21
-9.700000286049956
  0
ARC
  5
166
100
AcDbEntity
  8
0
  6
CONTINUOUS
 62
    7
370
   -1
100
AcDbCircle
 10
17.69999999999999
 20
-9.699999999949966
 40
0.3000000000000398
100
AcDbArc
 50
270
 51
0
  0
LINE
  5
167
100
AcDbEntity
  8
0
  6
CONTINUOUS
 62
    7
370
   -1
100
AcDbLine
 10
17.69999973469998
 20
-9.999999776449982
 11
12.4748740345
 21
-9.999999776449982
  0
LINE
  5
168
100
AcDbEntity
  8
0
  6
CONTINUOUS
 62
    7
370
   -1
100
AcDbLine
 10
12.4748740345
 20
-9.999999776449982
 11
9.999999776500005
 21
-7.525126449749976
  0
LINE
  5
169
100
AcDbEntity
  8
0
  6
CONTINUOUS
 62
    7
370
   -1
100
AcDbLine
 10
10.00002041417582
 20
7.525147087518059
 11
12.4748740345
 21
9.999999776550013
  0
LINE
  5
16A
100
AcDbEntity
  8
0
  6
CONTINUOUS
 62
    7
370
   -1
100
AcDbLine
 10
12.4748740345
 20
9.999999776550013
 11
17.69999973469998
 21
9.999999776550013
  0
ARC
  5
16B
100
AcDbEntity
  8
0
  6
CONTINUOUS
 62
    7
370
   -1
100
AcDbCircle
 10
17.69999999999999
 20
9.700000000050011
 40
0.3000000000000398
100
AcDbArc
 50
0
 51
90
  0
LINE
  5
16C
100
AcDbEntity
  8
0
  6
CONTINUOUS
 62
    7
370
   -1
100
AcDbLine
 10
17.9999992251
 20
9.700000286150001
 11
17.9999992251
 21
8.500000461949995
  0
ARC
  5
16D
100
AcDbEntity
  8
0
  6
CONTINUOUS
 62
    7
370
   -1
100
AcDbCircle
 10
17.69999999999999
 20
8.500000000050006
 40
0.3000000000000114
100
AcDbArc
 50
270
 51
0
  0
LINE
  5
16E
100
AcDbEntity
  8
0
  6
CONTINUOUS
 62
    7
370
   -1
100
AcDbLine
 10
17.69999973469998
 20
8.200000040250018
 11
17.30000041420001
 21
8.200000040250018
  0
ARC
  5
16F
100
AcDbEntity
  8
0
  6
CONTINUOUS
 62
    7
370
   -1
100
AcDbCircle
 10
17.29999999999989
 20
7.900000000050013
 40
0.2999999999999972
100
AcDbArc
 50
90
 51
180
  0
LINE
  5
170
100
AcDbEntity
  8
0
  6
CONTINUOUS
 62
    7
370
   -1
100
AcDbLine
 10
17.00000092389999
 20
7.899999618550012
 11
17.00000092389999
 21
5.299999844350011
  0
ARC
  5
171
100
AcDbEntity
  8
0
  6
CONTINUOUS
 62
    7
370
   -1
100
AcDbCircle
 10
17.29999999999989
 20
5.300000000050019
 40
0.3000000000000114
100
AcDbArc
 50
180
 51
270
  0
LINE
  5
172
100
AcDbEntity
  8
0
  6
CONTINUOUS
 62
    7
370
   -1
100
AcDbLine
 10
17.30000041420001
 20
4.999999888250016
 11
22.19999954100001
 21
4.999999888250016
  0
ARC
  5
173
100
AcDbEntity
  8
0
  6
CONTINUOUS
 62
    7
370
   -1
100
AcDbCircle
 10
22.19999999999999
 20
5.300000000050019
 40
0.3000000000000114
100
AcDbArc
 50
270
 51
0
  0
LINE
  5
174
100
AcDbEntity
  8
0
  6
CONTINUOUS
 62
    7
370
   -1
100
AcDbLine
 10
22.5000008941
 20
5.299999844350011
 11
22.5000008941
 21
19.50000040235001
  0
ARC
  5
175
100
AcDbEntity
  8
0
  6
CONTINUOUS
 62
    7
370
   -1
100
AcDbCircle
 10
19.5
 20
19.50000000005001
 40
3
100
AcDbArc
 50
0
 51
90
  0
LINE
  5
176
100
AcDbEntity
  8
0
  6
CONTINUOUS
 62
    7
370
   -1
100
AcDbLine
 10
19.50000040229992
 20
22.50000089415001
 11
5.299999844300003
 21
22.50000089415001
  0
ARC
  5
177
100
AcDbEntity
  8
0
  6
CONTINUOUS
 62
    7
370
   -1
100
AcDbCircle
 10
5.299999999999982
 20
22.20000000005002
 40
0.2999999999999972
100
AcDbArc
 50
90
 51
180
  0
LINE
  5
178
100
AcDbEntity
  8
0
  6
CONTINUOUS
 62
    7
370
   -1
100
AcDbLine
 10
4.999999888199994
 20
22.19999954105002
 11
4.999999888199994
 21
17.30000041425
  0
ARC
  5
179
100
AcDbEntity
  8
0
  6
CONTINUOUS
 62
    7
370
   -1
100
AcDbCircle
 10
5.299999999999982
 20
17.30000000005002
 40
0.2999999999999972
100
AcDbArc
 50
180
 51
270
  0
LINE
  5
17A
100
AcDbEntity
  8
0
  6
CONTINUOUS
 62
    7
370
   -1
100
AcDbLine
 10
5.299999844300003
 20
17.00000092395001
 11
7.899999618500004
 21
17.00000092395001
  0
ARC
  5
17B
100
AcDbEntity
  8
0
  6
CONTINUOUS
 62
    7
370
   -1
100
AcDbCircle
 10
7.899999999999977
 20
17.30000000005002
 40
0.3000000000000398
100
AcDbArc
 50
270
 51
0
  0
LINE
  5
17C
100
AcDbEntity
  8
0
  6
CONTINUOUS
 62
    7
370
   -1
100
AcDbLine
 10
8.200000040199996
 20
17.30000041425
 11
8.200000040199996
 21
17.69999973485001
  0
ARC
  5
17D
100
AcDbEntity
  8
0
  6
CONTINUOUS
 62
    7
370
   -1
100
AcDbCircle
 10
8.5
 20
17.70000000005001
 40
0.3000000000000114
100
AcDbArc
 50
90
 51
180
  0
LINE
  5
17E
100
AcDbEntity
  8
0
  6
CONTINUOUS
 62
    7
370
   -1
100
AcDbLine
 10
8.500000461899987
 20
17.99999922515002
 11
9.700000286099993
 21
17.99999922515002
  0
ARC
  5
17F
100
AcDbEntity
  8
0
  6
CONTINUOUS
 62
    7
370
   -1
100
AcDbCircle
 10
9.699999999999989
 20
17.70000000005001
 40
0.3000000000000114
100
AcDbArc
 50
0
 51
90
  0
LINE
  5
180
100
AcDbEntity
  8
0
  6
CONTINUOUS
 62
    7
370
   -1
100
AcDbLine
 10
9.999999776500005
 20
17.69999973485001
 11
9.999999776500005
 21
12.47487403455
  0
LINE
  5
181
100
AcDbEntity
  8
0
  6
CONTINUOUS
 62
    7
370
   -1
100
AcDbLine
 10
9.999999776500005
 20
12.47487403455
 11
7.525126449800012
 21
9.999999776550013
  0
LINE
  5
182
100
AcDbEntity
  8
0
  6
CONTINUOUS
 62
    7
370
   -1
100
AcDbLine
 10
-7.525147087418105
 20
10.00002041417579
 11
-9.999999776500005
 21
12.47487403455
  0
LINE
  5
183
100
AcDbEntity
  8
0
  6
CONTINUOUS
 62
    7
370
   -1
100
AcDbLine
 10
-9.999999776500005
 20
12.47487403455
 11
-9.999999776500005
 21
17.69999973485001
  0
ARC
  5
184
100
AcDbEntity
  8
0
  6
CONTINUOUS
 62
    7
370
   -1
100
AcDbCircle
 10
-9.700000000000102
 20
17.70000000005001
 40
0.3000000000000114
100
AcDbArc
 50
90
 51
180
  0
LINE
  5
185
100
AcDbEntity
  8
0
  6
CONTINUOUS
 62
    7
370
   -1
100
AcDbLine
 10
-9.700000286099993
 20
17.99999922515002
 11
-8.500000461899987
 21
17.99999922515002
  0
ARC
  5
186
100
AcDbEntity
  8
0
  6
CONTINUOUS
 62
    7
370
   -1
100
AcDbCircle
 10
-8.5
 20
17.70000000005001
 40
0.3000000000000114
100
AcDbArc
 50
0
 51
90
  0
LINE
  5
187
100
AcDbEntity
  8
0
  6
CONTINUOUS
 62
    7
370
   -1
100
AcDbLine
 10
-8.200000040199996
 20
17.69999973485001
 11
-8.200000040199996
 21
17.30000041425
  0
ARC
  5
188
100
AcDbEntity
  8
0
  6
CONTINUOUS
 62
    7
370
   -1
100
AcDbCircle
 10
-7.900000000000005
 20
17.30000000005002
 40
0.3000000000000114
100
AcDbArc
 50
180
 51
270
  0
LINE
  5
189
100
AcDbEntity
  8
0
  6
CONTINUOUS
 62
    7
370
   -1
100
AcDbLine
 10
-7.899999618500004
 20
17.00000092395001
 11
-5.299999844300003
 21
17.00000092395001
  0
ARC
  5
18A
100
AcDbEntity
  8
0
  6
CONTINUOUS
 62
    7
370
   -1
100
AcDbCircle
 10
-5.300000000000011
 20
17.30000000005002
 40
0.3000000000000114
100
AcDbArc
 50
270
 51
0
  0
LINE
  5
18B
100
AcDbEntity
  8
0
  6
CONTINUOUS
 62
    7
370
   -1
100
AcDbLine
 10
-4.99999988830001
 20
17.30000041425
 11
-4.99999988830001
 21
22.19999954105002
  0
ARC
  5
18C
100
AcDbEntity
  8
0
  6
CONTINUOUS
 62
    7
370
   -1
100
AcDbCircle
 10
-5.300000000000011
 20
22.20000000005002
 40
0.3000000000000114
100
AcDbArc
 50
0
 51
90
  0
LINE
  5
18D
100
AcDbEntity
  8
0
  6
CONTINUOUS
 62
    7
370
   -1
100
AcDbLine
 10
-5.299999844300003
 20
22.50000089415001
 11
-19.5000004023
 21
22.50000089415001
  0
ARC
  5
18E
100
AcDbEntity
  8
0
  6
CONTINUOUS
 62
    7
370
   -1
100
AcDbCircle
 10
-19.5
 20
19.50000000005001
 40
3
100
AcDbArc
 50
90
 51
180
  0
LINE
  5
18F
100
AcDbEntity
  8
0
  6
CONTINUOUS
 62
    7
370
   -1
100
AcDbLine
 10
-22.5000008941
 20
19.50000040235001
 11
-22.5000008941
 21
5.299999844350011
  0
ARC
  5
190
100
AcDbEntity
  8
0
  6
CONTINUOUS
 62
    7
370
   -1
100
AcDbCircle
 10
-22.19999999999999
 20
5.300000000050019
 40
0.3000000000000114
100
AcDbArc
 50
180
 51
270
  0
LINE
  5
191
100
AcDbEntity
  8
0
  6
CONTINUOUS
 62
    7
370
   -1
100
AcDbLine
 10
-22.1999995411
 20
4.999999888250016
 11
-17.30000041430009
 21
4.999999888250016
  0
ARC
  5
192
100
AcDbEntity
  8
0
  6
CONTINUOUS
 62
    7
370
   -1
100
AcDbCircle
 10
-17.30000000000001
 20
5.300000000050019
 40
0.3000000000000256
100
AcDbArc
 50
270
 51
0
  0
LINE
  5
193
100
AcDbEntity
  8
0
  6
CONTINUOUS
 62
    7
370
   -1
100
AcDbLine
 10
-17.0000009239001
 20
5.299999844350011
 11
-17.0000009239001
 21
7.899999618550012
  0
ARC
  5
194
100
AcDbEntity
  8
0
  6
CONTINUOUS
 62
    7
370
   -1
100
AcDbCircle
 10
-17.30000000000001
 20
7.900000000050013
 40
0.2999999999999972
100
AcDbArc
 50
0
 51
90
  0
LINE
  5
195
100
AcDbEntity
  8
0
  6
CONTINUOUS
 62
    7
370
   -1
100
AcDbLine
 10
-17.30000041430009
 20
8.200000040250018
 11
-17.6999997348
 21
8.200000040250018
  0
ARC
  5
196
100
AcDbEntity
  8
0
  6
CONTINUOUS
 62
    7
370
   -1
100
AcDbCircle
 10
-17.70000000000002
 20
8.500000000050006
 40
0.3000000000000114
100
AcDbArc
 50
180
 51
270
  0
LINE
  5
197
100
AcDbEntity
  8
0
  6
CONTINUOUS
 62
    7
370
   -1
100
AcDbLine
 10
-17.99999922519998
 20
8.500000461949995
 11
-17.99999922519998
 21
9.700000286150001
  0
ARC
  5
198
100
AcDbEntity
  8
0
  6
CONTINUOUS
 62
    7
370
   -1
100
AcDbCircle
 10
-17.70000000000002
 20
9.700000000050011
 40
0.3000000000000256
100
AcDbArc
 50
90
 51
180
  0
LINE
  5
199
100
AcDbEntity
  8
0
  6
CONTINUOUS
 62
    7
370
   -1
100
AcDbLine
 10
-17.6999997348
 20
9.999999776550013
 11
-12.4748740345
 21
9.999999776550013
  0
LINE
  5
19A
100
AcDbEntity
  8
0
  6
CONTINUOUS
 62
    7
370
   -1
100
AcDbLine
 10
-12.4748740345
 20
9.999999776550013
 11
-9.999999776500005
 21
7.525126449850006
  0
LINE
  5
19B
100
AcDbEntity
  8
0
  6
CONTINUOUS
 62
    7
370
   -1
100
AcDbLine
 10
7.525126449800012
 20
9.999999776550013
 11
1.346412536228001
 21
10.0000083323317
  0
LINE
  5
19C
100
AcDbEntity
  8
0
  6
CONTINUOUS
 62
    7
370
   -1
100
AcDbLine
 10
0
 20
9.300009993962007
 11
1.096412623751291
 21
9.933021484488888
  0
ARC
  5
19D
100
AcDbEntity
  8
0
  6
CONTINUOUS
 62
    7
370
   -1
100
AcDbCircle
 10
1.346411843868622
 20
9.5000083323322
 40
0.5
100
AcDbArc
 50
89.99992066145288
 51
119.9998968068004
  0
LINE
  5
19E
100
AcDbEntity
  8
0
  6
CONTINUOUS
 62
    7
370
   -1
100
AcDbLine
 10
-7.525147087418105
 20
10.00002041417579
 11
-3.499999030693402
 21
10.0000148404772
  0
LINE
  5
19F
100
AcDbEntity
  8
0
  6
CONTINUOUS
 62
    7
370
   -1
100
AcDbLine
 10
-1.096409123455288
 20
9.93302351218091
 11
0
 21
9.300009993962007
  0
LINE
  5
1A0
100
AcDbEntity
  8
0
  6
CONTINUOUS
 62
    7
370
   -1
100
AcDbLine
 10
-1.915154378280107
 20
9.748997645912809
 11
-1.596409123454805
 21
9.933024204540402
  0
LINE
  5
1A1
100
AcDbEntity
  8
0
  6
CONTINUOUS
 62
    7
370
   -1
100
AcDbLine
 10
-3.499999030693402
 20
10.0000148404772
 11
-1.915154378280107
 21
9.748997645912809
  0
ARC
  5
1A2
100
AcDbEntity
  8
0
  6
CONTINUOUS
 62
    7
370
   -1
100
AcDbCircle
 10
-1.346409723054875
 20
9.500011858361091
 40
0.5
100
AcDbArc
 50
59.999920661452
 51
119.9999206614533
  0
LINE
  5
1A3
100
AcDbEntity
  8
0
  6
CONTINUOUS
 62
    7
370
   -1
100
AcDbLine
 10
-9.999999776549998
 20
7.525126449800012
 11
-10.0000083323317
 21
1.346412536228015
  0
LINE
  5
1A4
100
AcDbEntity
  8
0
  6
CONTINUOUS
 62
    7
370
   -1
100
AcDbLine
 10
-9.300009993962021
 20
-9.950000000000001e-14
 11
-9.933021484489016
 21
1.096412623751305
  0
ARC
  5
1A5
100
AcDbEntity
  8
0
  6
CONTINUOUS
 62
    7
370
   -1
100
AcDbCircle
 10
-9.500008332332214
 20
1.346411843868509
 40
0.5
100
AcDbArc
 50
179.9999206614537
 51
209.9998968067997
  0
LINE
  5
1A6
100
AcDbEntity
  8
0
  6
CONTINUOUS
 62
    7
370
   -1
100
AcDbLine
 10
-10.00002041417579
 20
-7.525147087418091
 11
-10.00001484047729
 21
-3.499999030693487
  0
LINE
  5
1A7
100
AcDbEntity
  8
0
  6
CONTINUOUS
 62
    7
370
   -1
100
AcDbLine
 10
-9.933023512180881
 20
-1.096409123455316
 11
-9.300009993962021
 21
-9.950000000000001e-14
  0
LINE
  5
1A8
100
AcDbEntity
  8
0
  6
CONTINUOUS
 62
    7
370
   -1
100
AcDbLine
 10
-9.748997645912794
 20
-1.915154378280107
 11
-9.933024204540374
 21
-1.59640912345489
  0
LINE
  5
1A9
100
AcDbEntity
  8
0
  6
CONTINUOUS
 62
    7
370
   -1
100
AcDbLine
 10
-10.00001484047729
 20
-3.499999030693487
 11
-9.748997645912794
 21
-1.915154378280107
  0
ARC
  5
1AA
100
AcDbEntity
  8
0
  6
CONTINUOUS
 62
    7
370
   -1
100
AcDbCircle
 10
-9.500011858361091
 20
-1.346409723054904
 40
0.5
100
AcDbArc
 50
149.9999206614527
 51
209.9999206614531
  0
LINE
  5
1AB
100
AcDbEntity
  8
0
  6
CONTINUOUS
 62
    7
370
   -1
100
AcDbLine
 10
-7.525126449800097
 20
-9.999999776549984
 11
-1.346412536228001
 21
-10.00000833233169
  0
LINE
  5
1AC
100
AcDbEntity
  8
0
  6
CONTINUOUS
 62
    7
370
   -1
100
AcDbLine
 10
0
 20
-9.300009993961979
 11
-1.096412623751291
 21
-9.933021484488961
  0
ARC
  5
1AD
100
AcDbEntity
  8
0
  6
CONTINUOUS
 62
    7
370
   -1
100
AcDbCircle
 10
-1.346411843868594
 20
-9.500008332332172
 40
0.5
100
AcDbArc
 50
269.9999206614529
 51
299.9998968068022
  0
LINE
  5
1AE
100
AcDbEntity
  8
0
  6
CONTINUOUS
 62
    7
370
   -1
100
AcDbLine
 10
7.525147087485146
 20
-10.00002041414288
 11
3.499999030693402
 21
-10.00001484047728
  0
LINE
  5
1AF
100
AcDbEntity
  8
0
  6
CONTINUOUS
 62
    7
370
   -1
100
AcDbLine
 10
1.096409123455288
 20
-9.933023512180952
 11
0
 21
-9.300009993961979
  0
LINE
  5
1B0
100
AcDbEntity
  8
0
  6
CONTINUOUS
 62
    7
370
   -1
100
AcDbLine
 10
1.915154378280107
 20
-9.74899764591278
 11
1.596409123454805
 21
-9.933024204540402
  0
LINE
  5
1B1
100
AcDbEntity
  8
0
  6
CONTINUOUS
 62
    7
370
   -1
100
AcDbLine
 10
3.499999030693402
 20
-10.00001484047728
 11
1.915154378280107
 21
-9.74899764591278
  0
ARC
  5
1B2
100
AcDbEntity
  8
0
  6
CONTINUOUS
 62
    7
370
   -1
100
AcDbCircle
 10
1.346409723054904
 20
-9.500011858361106
 40
0.5
100
AcDbArc
 50
239.9999206614502
 51
299.9999206614538
  0
LINE
  5
1B3
100
AcDbEntity
  8
0
  6
CONTINUOUS
 62
    7
370
   -1
100
AcDbLine
 10
9.999999776549913
 20
-7.525126449799998
 11
10.00000833233173
 21
-1.346412536227987
  0
LINE
  5
1B4
100
AcDbEntity
  8
0
  6
CONTINUOUS
 62
    7
370
   -1
100
AcDbLine
 10
9.300009993961991
 20
0
 11
9.933021484489016
 21
-1.096412623751291
  0
ARC
  5
1B5
100
AcDbEntity
  8
0
  6
CONTINUOUS
 62
    7
370
   -1
100
AcDbCircle
 10
9.500008332332214
 20
-1.346411843868594
 40
0.5
100
AcDbArc
 50
359.9999206614528
 51
29.99989680680179
  0
LINE
  5
1B6
100
AcDbEntity
  8
0
  6
CONTINUOUS
 62
    7
370
   -1
100
AcDbLine
 10
10.00002041417582
 20
7.525147087518058
 11
10.00001484047732
 21
3.499999030693402
  0
LINE
  5
1B7
100
AcDbEntity
  8
0
  6
CONTINUOUS
 62
    7
370
   -1
100
AcDbLine
 10
9.933023512180995
 20
1.096409123455202
 11
9.300009993961991
 21
0
  0
LINE
  5
1B8
100
AcDbEntity
  8
0
  6
CONTINUOUS
 62
    7
370
   -1
100
AcDbLine
 10
9.748997645912794
 20
1.915154378280107
 11
9.933024204540402
 21
1.596409123454805
  0
LINE
  5
1B9
100
AcDbEntity
  8
0
  6
CONTINUOUS
 62
    7
370
   -1
100
AcDbLine
 10
10.00001484047732
 20
3.499999030693402
 11
9.748997645912794
 21
1.915154378280107
  0
ARC
  5
1BA
100
AcDbEntity
  8
0
  6
CONTINUOUS
 62
    7
370
   -1
100
AcDbCircle
 10
9.50001185836112
 20
1.346409723054819
 40
0.5
100
AcDbArc
 50
329.9999206614506
 51
29.99992066145378
  0
LINE
  5
1BB
100
AcDbEntity
  8
0
  6
CONTINUOUS
 62
    7
370
   -1
100
AcDbLine
 10
66.36748571059057
 20
22.50000245513463
 11
116.3674857105905
 21
22.50000507431143
  0
LINE
  5
1BC
100
AcDbEntity
  8
0
  6
CONTINUOUS
 62
    7
370
   -1
100
AcDbLine
 10
66.36748571059053
 20
-22.49999999994999
 11
116.3674857105905
 21
-22.49999999994999
  0
LINE
  5
1BD
100
AcDbEntity
  8
0
  6
CONTINUOUS
 62
    7
370
   -1
100
AcDbLine
 10
66.36748571059054
 20
-4.999999999949977
 11
116.3674857105905
 21
-4.999999999949977
  0
LINE
  5
1BE
100
AcDbEntity
  8
0
  6
CONTINUOUS
 62
    7
370
   -1
100
AcDbLine
 10
66.36748571059054
 20
5.00000135715858
 11
116.3674857105905
 21
5.00000302004308
  0
LINE
  5
1BF
100
AcDbEntity
  8
0
  6
CONTINUOUS
 62
    7
370
   -1
100
AcDbLine
 10
66.36748571059054
 20
1.915154378280107
 11
116.3674857105905
 21
1.915154378280107
  0
LINE
  5
1C0
100
AcDbEntity
  8
0
  6
CONTINUOUS
 62
    7
370
   -1
100
AcDbLine
 10
66.36748571059054
 20
3.499999030693402
 11
116.3674857105905
 21
3.499999030693402
  0
LINE
  5
1C1
100
AcDbEntity
  8
0
  6
CONTINUOUS
 62
    7
370
   -1
100
AcDbLine
 10
66.36748571059054
 20
5.0008e-11
 11
116.3674857105905
 21
5.0008e-11
  0
LINE
  5
1C2
100
AcDbEntity
  8
0
  6
CONTINUOUS
 62
    7
370
   -1
100
AcDbLine
 10
66.36748571059054
 20
22.50000245513463
 11
66.36748571059054
 21
-22.49999999994999
  0
LINE
  5
1C3
100
AcDbEntity
  8
0
  6
CONTINUOUS
 62
    7
370
   -1
100
AcDbLine
 10
116.3674857105905
 20
22.50000507431142
 11
116.3674857105905
 21
-22.49999999994999
  0
LINE
  5
1C4
100
AcDbEntity
  8
CENTER
  6
CENTER
 62
    1
370
   -1
100
AcDbLine
 10
64.36748571059054
 20
5.0008e-11
 11
118.3674857105905
 21
5.0008e-11
  0
INSERT
  5
1C5
100
AcDbEntity
  8
0
  6
CONTINUOUS
 62
    7
370
   -1
100
AcDbBlockReference
  2
*U24
 10
0
 20
0
 30
0
 41
1
 42
1
 43
0
 50
0
 70
    1
 71
    1
 44
0
 45
0
  0
INSERT
  5
1C6
100
AcDbEntity
  8
0
  6
CONTINUOUS
 62
    7
370
   -1
100
AcDbBlockReference
  2
*U25
 10
0
 20
0
 30
0
 41
1
 42
1
 43
0
 50
0
 70
    1
 71
    1
 44
0
 45
0
  0
CIRCLE
  5
1C7
100
AcDbEntity
  8
0
  6
CONTINUOUS
 62
    3
370
   -1
100
AcDbCircle
 10
0
 20
5.0008e-11
 40
6.25
  0
ENDSEC
  0
SECTION
  2
OBJECTS
  0
DICTIONARY
  5
C
330
0
100
AcDbDictionary
281
    1
  3
ACAD_GROUP
350
D
  0
DICTIONARY
  5
D
330
C
100
AcDbDictionary
281
    1
  0
PLOTSETTINGS
  5
1C8
100
AcDbPlotSettings
  6
1x1
 40
0
 41
0
 42
0
 43
0
  0
ENDSEC
  0
EOF
