999
dxfrw 0.6.3
  0
SECTION
  2
HEADER
  9
$ACADVER
  1
AC1021
  9
$DWGCODEPAGE
  3
ANSI_1252
  9
$INSBASE
 10
0
 20
0
 30
0
  9
$EXTMIN
 10
-24.50000764999307
 20
-24.49999999999842
 30
0
  9
$EXTMAX
 10
154.5001941838924
 20
24.5000000000108
 30
0
  9
$LIMMIN
 10
0
 20
0
  9
$LIMMAX
 10
420
 20
297
  9
$ORTHOMODE
 70
    0
  9
$REGENMODE
 70
    1
  9
$FILLMODE
 70
    1
  9
$QTEXTMODE
 70
    0
  9
$MIRRTEXT
 70
    0
  9
$LTSCALE
 40
1
  9
$ATTMODE
 70
    1
  9
$TEXTSIZE
 40
3
  9
$TRACEWID
 40
1
  9
$TEXTSTYLE
  7
STANDARD
  9
$CLAYER
  8
0
  9
$CELTYPE
  6
CONTINUOUS
  9
$CECOLOR
 62
    7
  9
$CELTSCALE
 40
1
  9
$DISPSILH
 70
    0
  9
$DIMSCALE
 40
1
  9
$DIMASZ
 40
2.5
  9
$DIMEXO
 40
0.625
  9
$DIMDLI
 40
3.75
  9
$DIMRND
 40
0
  9
$DIMDLE
 40
0
  9
$DIMEXE
 40
1.25
  9
$DIMTP
 40
0
  9
$DIMTM
 40
0
  9
$DIMTXT
 40
2.5
  9
$DIMCEN
 40
2.5
  9
$DIMTSZ
 40
0
  9
$DIMTOL
 70
    0
  9
$DIMLIM
 70
    0
  9
$DIMTIH
 70
    0
  9
$DIMTOH
 70
    0
  9
$DIMSE1
 70
    0
  9
$DIMSE2
 70
    0
  9
$DIMTAD
 70
    1
  9
$DIMZIN
 70
    8
  9
$DIMBLK
  1
OPEN30
  9
$DIMASO
 70
    1
  9
$DIMSHO
 70
    1
  9
$DIMPOST
  1

  9
$DIMAPOST
  1

  9
$DIMALT
 70
    0
  9
$DIMALTD
 70
    3
  9
$DIMALTF
 40
0.03937007874016
  9
$DIMLFAC
 40
1
  9
$DIMTOFL
 70
    1
  9
$DIMTVP
 40
0
  9
$DIMTIX
 70
    0
  9
$DIMSOXD
 70
    0
  9
$DIMSAH
 70
    0
  9
$DIMBLK1
  1

  9
$DIMBLK2
  1

  9
$DIMSTYLE
  2
MISUMI
  9
$DIMCLRD
 70
  137
  9
$DIMCLRE
 70
  137
  9
$DIMCLRT
 70
  137
  9
$DIMTFAC
 40
1
  9
$DIMGAP
 40
0.625
  9
$DIMJUST
 70
    0
  9
$DIMSD1
 70
    0
  9
$DIMSD2
 70
    0
  9
$DIMTOLJ
 70
    0
  9
$DIMTZIN
 70
    8
  9
$DIMALTZ
 70
    0
  9
$DIMALTTZ
 70
    0
  9
$DIMUPT
 70
    0
  9
$DIMDEC
 70
    4
  9
$DIMTDEC
 70
    2
  9
$DIMALTU
 70
    2
  9
$DIMALTTD
 70
    3
  9
$DIMTXSTY
  7
STANDARD
  9
$DIMAUNIT
 70
    0
  9
$DIMADEC
 70
    0
  9
$DIMALTRND
 40
0
  9
$DIMAZIN
 70
    0
  9
$DIMDSEP
 70
   44
  9
$DIMATFIT
 70
    3
  9
$DIMFRAC
 70
    0
  9
$DIMLDRBLK
  1
STANDARD
  9
$DIMLUNIT
 70
    2
  9
$DIMLWD
 70
   -2
  9
$DIMLWE
 70
   -2
  9
$DIMTMOVE
 70
    0
  9
$DIMFXL
 40
1
  9
$DIMFXLON
 70
    0
  9
$DIMJOGANG
 40
0.7854
  9
$DIMTFILL
 70
    0
  9
$DIMTFILLCLR
 70
    0
  9
$DIMARCSYM
 70
    0
  9
$DIMLTYPE
  6

  9
$DIMLTEX1
  6

  9
$DIMLTEX2
  6

  9
$LUNITS
 70
    2
  9
$LUPREC
 70
    2
  9
$SKETCHINC
 40
1
  9
$FILLETRAD
 40
0
  9
$AUNITS
 70
    0
  9
$AUPREC
 70
    0
  9
$MENU
  1
.
  9
$ELEVATION
 40
0
  9
$PELEVATION
 40
0
  9
$THICKNESS
 40
0
  9
$LIMCHECK
 70
    0
  9
$CHAMFERA
 40
0.5
  9
$CHAMFERB
 40
0.5
  9
$CHAMFERC
 40
0
  9
$CHAMFERD
 40
0
  9
$SKPOLY
 70
    0
  9
$USRTIMER
 70
    1
  9
$ANGBASE
 50
0
  9
$ANGDIR
 70
    0
  9
$PDMODE
 70
   35
  9
$PDSIZE
 40
0
  9
$PLINEWID
 40
0
  9
$SPLFRAME
 70
    0
  9
$SPLINETYPE
 70
    6
  9
$SPLINESEGS
 70
    8
  9
$HANDSEED
  5
20000
  9
$SURFTAB1
 70
    6
  9
$SURFTAB2
 70
    6
  9
$SURFTYPE
 70
    6
  9
$SURFU
 70
    6
  9
$SURFV
 70
    6
  9
$UCSBASE
  2

  9
$UCSNAME
  2

  9
$UCSORG
 10
0
 20
0
 30
0
  9
$UCSXDIR
 10
1
 20
0
 30
0
  9
$UCSYDIR
 10
0
 20
1
 30
0
  9
$UCSORTHOREF
  2

  9
$UCSORTHOVIEW
 70
    0
  9
$UCSORGTOP
 10
0
 20
0
 30
0
  9
$UCSORGBOTTOM
 10
0
 20
0
 30
0
  9
$UCSORGLEFT
 10
0
 20
0
 30
0
  9
$UCSORGRIGHT
 10
0
 20
0
 30
0
  9
$UCSORGFRONT
 10
0
 20
0
 30
0
  9
$UCSORGBACK
 10
0
 20
0
 30
0
  9
$PUCSBASE
  2

  9
$PUCSNAME
  2

  9
$PUCSORG
 10
0
 20
0
 30
0
  9
$PUCSXDIR
 10
1
 20
0
 30
0
  9
$PUCSYDIR
 10
0
 20
1
 30
0
  9
$PUCSORTHOREF
  2

  9
$PUCSORTHOVIEW
 70
    0
  9
$PUCSORGTOP
 10
0
 20
0
 30
0
  9
$PUCSORGBOTTOM
 10
0
 20
0
 30
0
  9
$PUCSORGLEFT
 10
0
 20
0
 30
0
  9
$PUCSORGRIGHT
 10
0
 20
0
 30
0
  9
$PUCSORGFRONT
 10
0
 20
0
 30
0
  9
$PUCSORGBACK
 10
0
 20
0
 30
0
  9
$USERI1
 70
    0
  9
$USERI2
 70
    0
  9
$USERI3
 70
    0
  9
$USERI4
 70
    0
  9
$USERI5
 70
    0
  9
$USERR1
 40
0
  9
$USERR2
 40
0
  9
$USERR3
 40
0
  9
$USERR4
 40
0
  9
$USERR5
 40
0
  9
$WORLDVIEW
 70
    1
  9
$SHADEDGE
 70
    3
  9
$SHADEDIF
 70
   70
  9
$TILEMODE
 70
    1
  9
$MAXACTVP
 70
   64
  9
$PINSBASE
 10
0
 20
0
 30
0
  9
$PLIMCHECK
 70
    0
  9
$PEXTMIN
 10
0
 20
0
 30
0
  9
$PEXTMAX
 10
0
 20
0
 30
0
  9
$GRIDMODE
 70
    0
  9
$SNAPSTYLE
 70
    0
  9
$PLIMMIN
 10
0
 20
0
  9
$PLIMMAX
 10
12
 20
9
  9
$UNITMODE
 70
    0
  9
$VISRETAIN
 70
    1
  9
$PLINEGEN
 70
    0
  9
$PSLTSCALE
 70
    1
  9
$TREEDEPTH
 70
 3020
  9
$CMLSTYLE
  2
Standard
  9
$CMLJUST
 70
    0
  9
$CMLSCALE
 40
20
  9
$PROXYGRAPHICS
 70
    1
  9
$MEASUREMENT
 70
    1
  9
$CELWEIGHT
370
   -1
  9
$ENDCAPS
280
    0
  9
$JOINSTYLE
280
    0
  9
$LWDISPLAY
290
    0
  9
$INSUNITS
 70
    0
  9
$HYPERLINKBASE
  1

  9
$STYLESHEET
  1

  9
$XEDIT
290
    1
  9
$CEPSNTYPE
380
    0
  9
$PSTYLEMODE
290
    1
  9
$EXTNAMES
290
    1
  9
$PSVPSCALE
 40
1
  9
$OLESTARTUP
290
    0
  9
$SORTENTS
280
  127
  9
$INDEXCTL
280
    0
  9
$HIDETEXT
280
    1
  9
$XCLIPFRAME
290
    0
  9
$HALOGAP
280
    0
  9
$OBSCOLOR
 70
  257
  9
$OBSLTYPE
280
    0
  9
$INTERSECTIONDISPLAY
280
    0
  9
$INTERSECTIONCOLOR
 70
  257
  9
$DIMASSOC
280
    1
  9
$PROJECTNAME
  1

  9
$CAMERADISPLAY
290
    0
  9
$LENSLENGTH
 40
50
  9
$CAMERAHEIGHT
 40
0
  9
$STEPSPERSEC
 40
2
  9
$STEPSIZE
 40
50
  9
$3DDWFPREC
 40
2
  9
$PSOLWIDTH
 40
5
  9
$PSOLHEIGHT
 40
80
  9
$LOFTANG1
 40
1.570796326794897
  9
$LOFTANG2
 40
1.570796326794897
  9
$LOFTMAG1
 40
0
  9
$LOFTMAG2
 40
0
  9
$LOFTPARAM
 70
    7
  9
$LOFTNORMALS
280
    1
  9
$LATITUDE
 40
1
  9
$LONGITUDE
 40
1
  9
$NORTHDIRECTION
 40
0
  9
$TIMEZONE
 70
-8000
  9
$LIGHTGLYPHDISPLAY
280
    1
  9
$TILEMODELIGHTSYNCH
280
    1
  9
$SOLIDHIST
280
    1
  9
$SHOWHIST
280
    1
  9
$DWFFRAME
280
    2
  9
$DGNFRAME
280
    0
  9
$REALWORLDSCALE
290
    1
  9
$INTERFERECOLOR
 62
    1
  9
$CSHADOW
280
    0
  9
$SHADOWPLANELOCATION
 40
0
  0
ENDSEC
  0
SECTION
  2
CLASSES
  0
ENDSEC
  0
SECTION
  2
TABLES
  0
TABLE
  2
VPORT
  5
8
330
0
100
AcDbSymbolTable
 70
    1
  0
VPORT
  5
31
330
2
100
AcDbSymbolTableRecord
100
AcDbViewportTableRecord
  2
*ACTIVE
 70
    0
 10
0
 20
0
 11
1
 21
1
 12
142.0557213021191
 22
74.89796844294422
 13
0
 23
0
 14
10
 24
10
 15
10
 25
10
 16
0
 26
0
 36
1
 17
0
 27
0
 37
0
 40
338.7482584896687
 41
2.088709677419355
 42
50
 43
0
 44
0
 50
0
 51
0
 71
    0
 72
  100
 73
    1
 74
    3
 75
    0
 76
    0
 77
    0
 78
    0
281
    0
 65
    1
110
0
120
0
130
0
111
1
121
0
131
0
112
0
122
1
132
0
 79
    0
146
0
348
10020
 60
    7
 61
    5
292
1
282
    1
141
0
142
0
 63
  250
421
3358443
  0
ENDTAB
  0
TABLE
  2
LTYPE
  5
5
330
0
100
AcDbSymbolTable
 70
    4
  0
LTYPE
  5
14
330
5
100
AcDbSymbolTableRecord
100
AcDbLinetypeTableRecord
  2
ByBlock
 70
    0
  3

 72
   65
 73
    0
 40
0
  0
LTYPE
  5
15
330
5
100
AcDbSymbolTableRecord
100
AcDbLinetypeTableRecord
  2
ByLayer
 70
    0
  3

 72
   65
 73
    0
 40
0
  0
LTYPE
  5
16
330
5
100
AcDbSymbolTableRecord
100
AcDbLinetypeTableRecord
  2
Continuous
 70
    0
  3
Solid line
 72
   65
 73
    0
 40
0
  0
LTYPE
  5
32
330
5
100
AcDbSymbolTableRecord
100
AcDbLinetypeTableRecord
  2
DOT
 70
    0
  3
Dot . . . . . . . . . . . . . . . . . . . . . .
 72
   65
 73
    2
 40
6.35
 49
0
 74
    0
 49
-6.35
 74
    0
  0
LTYPE
  5
33
330
5
100
AcDbSymbolTableRecord
100
AcDbLinetypeTableRecord
  2
DOTTINY
 70
    0
  3
Dot (.15x) .....................................
 72
   65
 73
    2
 40
0.9525
 49
0
 74
    0
 49
-0.9525
 74
    0
  0
LTYPE
  5
34
330
5
100
AcDbSymbolTableRecord
100
AcDbLinetypeTableRecord
  2
DOT2
 70
    0
  3
Dot (.5x) .....................................
 72
   65
 73
    2
 40
3.175
 49
0
 74
    0
 49
-3.175
 74
    0
  0
LTYPE
  5
35
330
5
100
AcDbSymbolTableRecord
100
AcDbLinetypeTableRecord
  2
DOTX2
 70
    0
  3
Dot (2x) .  .  .  .  .  .  .  .  .  .  .  .  .
 72
   65
 73
    2
 40
12.7
 49
0
 74
    0
 49
-12.7
 74
    0
  0
LTYPE
  5
36
330
5
100
AcDbSymbolTableRecord
100
AcDbLinetypeTableRecord
  2
DASHED
 70
    0
  3
Dashed _ _ _ _ _ _ _ _ _ _ _ _ _ _ _ _ _
 72
   65
 73
    2
 40
19.05
 49
12.7
 74
    0
 49
-6.35
 74
    0
  0
LTYPE
  5
37
330
5
100
AcDbSymbolTableRecord
100
AcDbLinetypeTableRecord
  2
DASHEDTINY
 70
    0
  3
Dashed (.15x) _ _ _ _ _ _ _ _ _ _ _ _ _ _ _ _ _
 72
   65
 73
    2
 40
2.8575
 49
1.905
 74
    0
 49
-0.9525
 74
    0
  0
LTYPE
  5
38
330
5
100
AcDbSymbolTableRecord
100
AcDbLinetypeTableRecord
  2
DASHED2
 70
    0
  3
Dashed (.5x) _ _ _ _ _ _ _ _ _ _ _ _ _ _ _ _ _
 72
   65
 73
    2
 40
9.524999999999999
 49
6.35
 74
    0
 49
-3.175
 74
    0
  0
LTYPE
  5
39
330
5
100
AcDbSymbolTableRecord
100
AcDbLinetypeTableRecord
  2
DASHEDX2
 70
    0
  3
Dashed (2x) ____  ____  ____  ____  ____  ___
 72
   65
 73
    2
 40
38.09999999999999
 49
25.4
 74
    0
 49
-12.7
 74
    0
  0
LTYPE
  5
3A
330
5
100
AcDbSymbolTableRecord
100
AcDbLinetypeTableRecord
  2
DASHDOT
 70
    0
  3
Dash dot __ . __ . __ . __ . __ . __ . __ . __
 72
   65
 73
    4
 40
25.4
 49
12.7
 74
    0
 49
-6.35
 74
    0
 49
0
 74
    0
 49
-6.35
 74
    0
  0
LTYPE
  5
3B
330
5
100
AcDbSymbolTableRecord
100
AcDbLinetypeTableRecord
  2
DASHDOTTINY
 70
    0
  3
Dash dot (.15x) _._._._._._._._._._._._._._._.
 72
   65
 73
    4
 40
3.81
 49
1.905
 74
    0
 49
-0.9525
 74
    0
 49
0
 74
    0
 49
-0.9525
 74
    0
  0
LTYPE
  5
3C
330
5
100
AcDbSymbolTableRecord
100
AcDbLinetypeTableRecord
  2
DASHDOT2
 70
    0
  3
Dash dot (.5x) _._._._._._._._._._._._._._._.
 72
   65
 73
    4
 40
12.7
 49
6.35
 74
    0
 49
-3.175
 74
    0
 49
0
 74
    0
 49
-3.175
 74
    0
  0
LTYPE
  5
3D
330
5
100
AcDbSymbolTableRecord
100
AcDbLinetypeTableRecord
  2
DASHDOTX2
 70
    0
  3
Dash dot (2x) ____  .  ____  .  ____  .  ___
 72
   65
 73
    4
 40
50.8
 49
25.4
 74
    0
 49
-12.7
 74
    0
 49
0
 74
    0
 49
-12.7
 74
    0
  0
LTYPE
  5
3E
330
5
100
AcDbSymbolTableRecord
100
AcDbLinetypeTableRecord
  2
DIVIDE
 70
    0
  3
Divide ____ . . ____ . . ____ . . ____ . . ____
 72
   65
 73
    6
 40
31.75
 49
12.7
 74
    0
 49
-6.35
 74
    0
 49
0
 74
    0
 49
-6.35
 74
    0
 49
0
 74
    0
 49
-6.35
 74
    0
  0
LTYPE
  5
3F
330
5
100
AcDbSymbolTableRecord
100
AcDbLinetypeTableRecord
  2
DIVIDETINY
 70
    0
  3
Divide (.15x) __..__..__..__..__..__..__..__.._
 72
   65
 73
    6
 40
4.7625
 49
1.905
 74
    0
 49
-0.9525
 74
    0
 49
0
 74
    0
 49
-0.9525
 74
    0
 49
0
 74
    0
 49
-0.9525
 74
    0
  0
LTYPE
  5
40
330
5
100
AcDbSymbolTableRecord
100
AcDbLinetypeTableRecord
  2
DIVIDE2
 70
    0
  3
Divide (.5x) __..__..__..__..__..__..__..__.._
 72
   65
 73
    6
 40
15.875
 49
6.35
 74
    0
 49
-3.175
 74
    0
 49
0
 74
    0
 49
-3.175
 74
    0
 49
0
 74
    0
 49
-3.175
 74
    0
  0
LTYPE
  5
41
330
5
100
AcDbSymbolTableRecord
100
AcDbLinetypeTableRecord
  2
DIVIDEX2
 70
    0
  3
Divide (2x) ________  .  .  ________  .  .  _
 72
   65
 73
    6
 40
63.5
 49
25.4
 74
    0
 49
-12.7
 74
    0
 49
0
 74
    0
 49
-12.7
 74
    0
 49
0
 74
    0
 49
-12.7
 74
    0
  0
LTYPE
  5
42
330
5
100
AcDbSymbolTableRecord
100
AcDbLinetypeTableRecord
  2
BORDER
 70
    0
  3
Border __ __ . __ __ . __ __ . __ __ . __ __ .
 72
   65
 73
    6
 40
44.45
 49
12.7
 74
    0
 49
-6.35
 74
    0
 49
12.7
 74
    0
 49
-6.35
 74
    0
 49
0
 74
    0
 49
-6.35
 74
    0
  0
LTYPE
  5
43
330
5
100
AcDbSymbolTableRecord
100
AcDbLinetypeTableRecord
  2
BORDERTINY
 70
    0
  3
Border (.15x) __.__.__.__.__.__.__.__.__.__.__.
 72
   65
 73
    6
 40
6.6675
 49
1.905
 74
    0
 49
-0.9525
 74
    0
 49
1.905
 74
    0
 49
-0.9525
 74
    0
 49
0
 74
    0
 49
-0.9525
 74
    0
  0
LTYPE
  5
44
330
5
100
AcDbSymbolTableRecord
100
AcDbLinetypeTableRecord
  2
BORDER2
 70
    0
  3
Border (.5x) __.__.__.__.__.__.__.__.__.__.__.
 72
   65
 73
    6
 40
22.225
 49
6.35
 74
    0
 49
-3.175
 74
    0
 49
6.35
 74
    0
 49
-3.175
 74
    0
 49
0
 74
    0
 49
-3.175
 74
    0
  0
LTYPE
  5
45
330
5
100
AcDbSymbolTableRecord
100
AcDbLinetypeTableRecord
  2
BORDERX2
 70
    0
  3
Border (2x) ____  ____  .  ____  ____  .  ___
 72
   65
 73
    6
 40
88.89999999999999
 49
25.4
 74
    0
 49
-12.7
 74
    0
 49
25.4
 74
    0
 49
-12.7
 74
    0
 49
0
 74
    0
 49
-12.7
 74
    0
  0
LTYPE
  5
46
330
5
100
AcDbSymbolTableRecord
100
AcDbLinetypeTableRecord
  2
CENTER
 70
    0
  3
Center ____ _ ____ _ ____ _ ____ _ ____ _ ____
 72
   65
 73
    4
 40
50.8
 49
31.75
 74
    0
 49
-6.35
 74
    0
 49
6.35
 74
    0
 49
-6.35
 74
    0
  0
LTYPE
  5
47
330
5
100
AcDbSymbolTableRecord
100
AcDbLinetypeTableRecord
  2
CENTERTINY
 70
    0
  3
Center (.15x) ___ _ ___ _ ___ _ ___ _ ___ _ ___
 72
   65
 73
    4
 40
7.619999999999999
 49
4.7625
 74
    0
 49
-0.9525
 74
    0
 49
0.9525
 74
    0
 49
-0.9525
 74
    0
  0
LTYPE
  5
48
330
5
100
AcDbSymbolTableRecord
100
AcDbLinetypeTableRecord
  2
CENTER2
 70
    0
  3
Center (.5x) ___ _ ___ _ ___ _ ___ _ ___ _ ___
 72
   65
 73
    4
 40
28.575
 49
19.05
 74
    0
 49
-3.175
 74
    0
 49
3.175
 74
    0
 49
-3.175
 74
    0
  0
LTYPE
  5
49
330
5
100
AcDbSymbolTableRecord
100
AcDbLinetypeTableRecord
  2
CENTERX2
 70
    0
  3
Center (2x) ________  __  ________  __  _____
 72
   65
 73
    4
 40
101.6
 49
63.5
 74
    0
 49
-12.7
 74
    0
 49
12.7
 74
    0
 49
-12.7
 74
    0
  0
ENDTAB
  0
TABLE
  2
LAYER
  5
2
330
0
100
AcDbSymbolTable
 70
    1
  0
LAYER
  5
10
330
2
100
AcDbSymbolTableRecord
100
AcDbLayerTableRecord
  2
0
 70
    0
 62
    7
  6
CONTINUOUS
370
   -3
390
F
  0
LAYER
  5
4A
330
2
100
AcDbSymbolTableRecord
100
AcDbLayerTableRecord
  2
CENTER
 70
    0
 62
    1
  6
CENTER
370
   -3
390
F
  0
LAYER
  5
4B
330
2
100
AcDbSymbolTableRecord
100
AcDbLayerTableRecord
  2
DEFPOINTS
 70
    0
 62
    7
  6
CONTINUOUS
370
   -3
390
F
  0
ENDTAB
  0
TABLE
  2
STYLE
  5
3
330
0
100
AcDbSymbolTable
 70
    3
  0
STYLE
  5
4C
330
2
100
AcDbSymbolTableRecord
100
AcDbTextStyleTableRecord
  2
STANDARD
 70
    0
 40
0
 41
1
 50
0
 71
    0
 42
1
  3
STANDARD
  4

  0
ENDTAB
  0
TABLE
  2
VIEW
  5
6
330
0
100
AcDbSymbolTable
 70
    0
  0
ENDTAB
  0
TABLE
  2
UCS
  5
7
330
0
100
AcDbSymbolTable
 70
    0
  0
ENDTAB
  0
TABLE
  2
APPID
  5
9
330
0
100
AcDbSymbolTable
 70
    1
  0
APPID
  5
12
330
9
100
AcDbSymbolTableRecord
100
AcDbRegAppTableRecord
  2
ACAD
 70
    0
  0
APPID
  5
4D
330
9
100
AcDbSymbolTableRecord
100
AcDbRegAppTableRecord
  2
LibreCad
 70
    0
  0
ENDTAB
  0
TABLE
  2
DIMSTYLE
  5
A
330
0
100
AcDbSymbolTable
 70
    1
100
AcDbDimStyleTable
 71
    1
  0
DIMSTYLE
105
4E
330
A
100
AcDbSymbolTableRecord
100
AcDbDimStyleTableRecord
  2
Standard
 70
    0
 40
1
 41
2.5
 42
0.625
 43
0.38
 44
1.25
 45
0
 46
0
 47
0
 48
0
 49
1
140
2.5
141
0.09
142
0
143
25.4
144
1
145
0
146
1
147
0.625
148
0
 71
    0
 72
    0
 73
    0
 74
    1
 75
    0
 76
    0
 77
    0
 78
    8
 79
    0
170
    0
171
    2
172
    0
173
    0
174
    0
175
    0
176
  137
177
  137
178
  137
179
    0
271
    4
272
    4
273
    2
274
    2
275
    0
276
    0
277
    2
278
    0
279
    0
280
    0
281
    0
282
    0
283
    1
284
    0
285
    0
286
    0
288
    0
289
    3
340
standard
341

371
   -2
372
   -2
  0
ENDTAB
  0
TABLE
  2
BLOCK_RECORD
  5
1
330
0
100
AcDbSymbolTable
 70
    2
  0
BLOCK_RECORD
  5
1F
330
1
100
AcDbSymbolTableRecord
100
AcDbBlockTableRecord
  2
*Model_Space
 70
    0
280
    1
281
    0
  0
BLOCK_RECORD
  5
1E
330
1
100
AcDbSymbolTableRecord
100
AcDbBlockTableRecord
  2
*Paper_Space
 70
    0
280
    1
281
    0
  0
BLOCK_RECORD
  5
4F
330
1
100
AcDbSymbolTableRecord
100
AcDbBlockTableRecord
  2
_OPEN30
 70
    0
280
    1
281
    0
  0
BLOCK_RECORD
  5
52
330
1
100
AcDbSymbolTableRecord
100
AcDbBlockTableRecord
  2
*U52
 70
    0
280
    1
281
    0
  0
BLOCK_RECORD
  5
55
330
1
100
AcDbSymbolTableRecord
100
AcDbBlockTableRecord
  2
*U53
 70
    0
280
    1
281
    0
  0
BLOCK_RECORD
  5
58
330
1
100
AcDbSymbolTableRecord
100
AcDbBlockTableRecord
  2
*U54
 70
    0
280
    1
281
    0
  0
BLOCK_RECORD
  5
5B
330
1
100
AcDbSymbolTableRecord
100
AcDbBlockTableRecord
  2
*U55
 70
    0
280
    1
281
    0
  0
BLOCK_RECORD
  5
5E
330
1
100
AcDbSymbolTableRecord
100
AcDbBlockTableRecord
  2
*U56
 70
    0
280
    1
281
    0
  0
BLOCK_RECORD
  5
61
330
1
100
AcDbSymbolTableRecord
100
AcDbBlockTableRecord
  2
*U57
 70
    0
280
    1
281
    0
  0
BLOCK_RECORD
  5
64
330
1
100
AcDbSymbolTableRecord
100
AcDbBlockTableRecord
  2
*U58
 70
    0
280
    1
281
    0
  0
BLOCK_RECORD
  5
67
330
1
100
AcDbSymbolTableRecord
100
AcDbBlockTableRecord
  2
*U59
 70
    0
280
    1
281
    0
  0
BLOCK_RECORD
  5
6A
330
1
100
AcDbSymbolTableRecord
100
AcDbBlockTableRecord
  2
*U60
 70
    0
280
    1
281
    0
  0
BLOCK_RECORD
  5
6D
330
1
100
AcDbSymbolTableRecord
100
AcDbBlockTableRecord
  2
*U61
 70
    0
280
    1
281
    0
  0
BLOCK_RECORD
  5
70
330
1
100
AcDbSymbolTableRecord
100
AcDbBlockTableRecord
  2
*U62
 70
    0
280
    1
281
    0
  0
BLOCK_RECORD
  5
73
330
1
100
AcDbSymbolTableRecord
100
AcDbBlockTableRecord
  2
*U63
 70
    0
280
    1
281
    0
  0
BLOCK_RECORD
  5
76
330
1
100
AcDbSymbolTableRecord
100
AcDbBlockTableRecord
  2
*U64
 70
    0
280
    1
281
    0
  0
BLOCK_RECORD
  5
79
330
1
100
AcDbSymbolTableRecord
100
AcDbBlockTableRecord
  2
*U65
 70
    0
280
    1
281
    0
  0
BLOCK_RECORD
  5
7C
330
1
100
AcDbSymbolTableRecord
100
AcDbBlockTableRecord
  2
*U66
 70
    0
280
    1
281
    0
  0
BLOCK_RECORD
  5
7F
330
1
100
AcDbSymbolTableRecord
100
AcDbBlockTableRecord
  2
*U67
 70
    0
280
    1
281
    0
  0
BLOCK_RECORD
  5
82
330
1
100
AcDbSymbolTableRecord
100
AcDbBlockTableRecord
  2
*U68
 70
    0
280
    1
281
    0
  0
ENDTAB
  0
ENDSEC
  0
SECTION
  2
BLOCKS
  0
BLOCK
  5
20
330
1F
100
AcDbEntity
  8
0
100
AcDbBlockBegin
  2
*Model_Space
 70
    0
 10
0
 20
0
 30
0
  3
*Model_Space
  1

  0
ENDBLK
  5
21
330
1F
100
AcDbEntity
  8
0
100
AcDbBlockEnd
  0
BLOCK
  5
1C
330
1B
100
AcDbEntity
  8
0
100
AcDbBlockBegin
  2
*Paper_Space
 70
    0
 10
0
 20
0
 30
0
  3
*Paper_Space
  1

  0
ENDBLK
  5
1D
330
1F
100
AcDbEntity
  8
0
100
AcDbBlockEnd
  0
BLOCK
  5
50
330
4F
100
AcDbEntity
  8
0
100
AcDbBlockBegin
  2
_OPEN30
 70
    0
 10
0
 20
0
  3
_OPEN30
  1

  0
LINE
  5
85
100
AcDbEntity
  8
0
  6
ByBlock
 62
    0
370
   -1
100
AcDbLine
 10
-1
 20
0.26794919
 11
0
 21
0
  0
LINE
  5
86
100
AcDbEntity
  8
0
  6
ByBlock
 62
    0
370
   -1
100
AcDbLine
 10
0
 20
0
 11
-1
 21
-0.26794919
  0
LINE
  5
87
100
AcDbEntity
  8
0
  6
ByBlock
 62
    0
370
   -1
100
AcDbLine
 10
0
 20
0
 11
-1
 21
0
  0
ENDBLK
  5
51
330
4F
100
AcDbEntity
  8
0
100
AcDbBlockEnd
  0
BLOCK
  5
53
330
52
100
AcDbEntity
  8
0
100
AcDbBlockBegin
  2
*U52
 70
    0
 10
0
 20
0
  3
*U52
  1

  0
TEXT
  5
88
100
AcDbEntity
  8
0
  6
CONTINUOUS
 62
    7
370
   -1
100
AcDbText
 10
-22.50000764999367
 20
-56.47883125926081
 30
0
 40
3
  1
NFSL8-4590-50
 50
0
 41
1
 51
0
  7
STANDARD
 71
    0
210
0
220
0
230
1
100
AcDbText
  0
ENDBLK
  5
54
330
52
100
AcDbEntity
  8
0
100
AcDbBlockEnd
  0
BLOCK
  5
56
330
55
100
AcDbEntity
  8
0
100
AcDbBlockBegin
  2
*U53
 70
    0
 10
0
 20
0
  3
*U53
  1

  0
TEXT
  5
89
100
AcDbEntity
  8
0
  6
CONTINUOUS
 62
    7
370
   -1
100
AcDbText
 10
-22.50000764999367
 20
-62.3482984872646
 30
0
 40
3
  1
NFSL8-4590
 50
0
 41
1
 51
0
  7
STANDARD
 71
    0
210
0
220
0
230
1
100
AcDbText
  0
ENDBLK
  5
57
330
55
100
AcDbEntity
  8
0
100
AcDbBlockEnd
  0
BLOCK
  5
59
330
58
100
AcDbEntity
  8
0
100
AcDbBlockBegin
  2
*U54
 70
    0
 10
0
 20
0
  3
*U54
  1

  0
TEXT
  5
8A
100
AcDbEntity
  8
0
  6
CONTINUOUS
 62
  137
370
   -1
100
AcDbText
 10
6.575000000000002
 20
-33.76000252776987
 30
0
 40
3
  1
1,2
 50
0
 41
1
 51
0
  7
STANDARD
 71
    0
210
0
220
0
230
1
100
AcDbText
  0
ENDBLK
  5
5A
330
58
100
AcDbEntity
  8
0
100
AcDbBlockEnd
  0
BLOCK
  5
5C
330
5B
100
AcDbEntity
  8
0
100
AcDbBlockBegin
  2
*U55
 70
    0
 10
0
 20
0
  3
*U55
  1

  0
TEXT
  5
8B
100
AcDbEntity
  8
0
  6
CONTINUOUS
 62
  137
370
   -1
100
AcDbText
 10
28.125
 20
-33.76000252776987
 30
0
 40
3
  1
3,6
 50
0
 41
1
 51
0
  7
STANDARD
 71
    0
210
0
220
0
230
1
100
AcDbText
  0
ENDBLK
  5
5D
330
5B
100
AcDbEntity
  8
0
100
AcDbBlockEnd
  0
BLOCK
  5
5F
330
5E
100
AcDbEntity
  8
0
100
AcDbBlockBegin
  2
*U56
 70
    0
 10
0
 20
0
  3
*U56
  1

  0
TEXT
  5
8C
100
AcDbEntity
  8
0
  6
CONTINUOUS
 62
  137
370
   -1
100
AcDbText
 10
7.775000000000005
 20
-27.28114377017266
 30
0
 40
3
  1
2,6
 50
0
 41
1
 51
0
  7
STANDARD
 71
    0
210
0
220
0
230
1
100
AcDbText
  0
ENDBLK
  5
60
330
5E
100
AcDbEntity
  8
0
100
AcDbBlockEnd
  0
BLOCK
  5
62
330
61
100
AcDbEntity
  8
0
100
AcDbBlockBegin
  2
*U57
 70
    0
 10
0
 20
0
  3
*U57
  1

  0
TEXT
  5
8D
100
AcDbEntity
  8
0
  6
CONTINUOUS
 62
  137
370
   -1
100
AcDbText
 10
35.63348395894833
 20
-15.37500152545003
 30
0
 40
3
  1
1,5
 50
90
 41
1
 51
0
  7
STANDARD
 71
    0
210
0
220
0
230
1
100
AcDbText
  0
ENDBLK
  5
63
330
61
100
AcDbEntity
  8
0
100
AcDbBlockEnd
  0
BLOCK
  5
65
330
64
100
AcDbEntity
  8
0
100
AcDbBlockBegin
  2
*U58
 70
    0
 10
0
 20
0
  3
*U58
  1

  0
TEXT
  5
8E
100
AcDbEntity
  8
0
  6
CONTINUOUS
 62
  137
370
   -1
100
AcDbText
 10
41.36524229921634
 20
-14.77500073604999
 30
0
 40
3
  1
2,1
 50
90
 41
1
 51
0
  7
STANDARD
 71
    0
210
0
220
0
230
1
100
AcDbText
  0
ENDBLK
  5
66
330
64
100
AcDbEntity
  8
0
100
AcDbBlockEnd
  0
BLOCK
  5
68
330
67
100
AcDbEntity
  8
0
100
AcDbBlockBegin
  2
*U59
 70
    0
 10
0
 20
0
  3
*U59
  1

  0
TEXT
  5
8F
100
AcDbEntity
  8
0
  6
CONTINUOUS
 62
  137
370
   -1
100
AcDbText
 10
13.86740416532051
 20
-4.851792705142034
 30
0
 40
3
  1
1,5
 50
45
 41
1
 51
0
  7
STANDARD
 71
    0
210
0
220
0
230
1
100
AcDbText
  0
ENDBLK
  5
69
330
67
100
AcDbEntity
  8
0
100
AcDbBlockEnd
  0
BLOCK
  5
6B
330
6A
100
AcDbEntity
  8
0
100
AcDbBlockBegin
  2
*U60
 70
    0
 10
0
 20
0
  3
*U60
  1

  0
TEXT
  5
90
100
AcDbEntity
  8
0
  6
CONTINUOUS
 62
  137
370
   -1
100
AcDbText
 10
29.51373964726873
 20
-5.174999999949983
 30
0
 40
3
  1
0,7
 50
90
 41
1
 51
0
  7
STANDARD
 71
    0
210
0
220
0
230
1
100
AcDbText
  0
ENDBLK
  5
6C
330
6A
100
AcDbEntity
  8
0
100
AcDbBlockEnd
  0
BLOCK
  5
6E
330
6D
100
AcDbEntity
  8
0
100
AcDbBlockBegin
  2
*U61
 70
    0
 10
0
 20
0
  3
*U61
  1

  0
TEXT
  5
91
100
AcDbEntity
  8
0
  6
CONTINUOUS
 62
  137
370
   -1
100
AcDbText
 10
34.83484253018229
 20
28.12500089415
 30
0
 40
3
  1
5,5
 50
90
 41
1
 51
0
  7
STANDARD
 71
    0
210
0
220
0
230
1
100
AcDbText
  0
ENDBLK
  5
6F
330
6D
100
AcDbEntity
  8
0
100
AcDbBlockEnd
  0
BLOCK
  5
71
330
70
100
AcDbEntity
  8
0
100
AcDbBlockBegin
  2
*U62
 70
    0
 10
0
 20
0
  3
*U62
  1

  0
TEXT
  5
92
100
AcDbEntity
  8
0
  6
CONTINUOUS
 62
  137
370
   -1
100
AcDbText
 10
35.33484253018229
 20
12.50000035025001
 30
0
 40
3
  1
7
 50
90
 41
1
 51
0
  7
STANDARD
 71
    0
210
0
220
0
230
1
100
AcDbText
  0
ENDBLK
  5
72
330
70
100
AcDbEntity
  8
0
100
AcDbBlockEnd
  0
BLOCK
  5
74
330
73
100
AcDbEntity
  8
0
100
AcDbBlockBegin
  2
*U63
 70
    0
 10
0
 20
0
  3
*U63
  1

  0
TEXT
  5
93
100
AcDbEntity
  8
0
  6
CONTINUOUS
 62
  137
370
   -1
100
AcDbText
 10
26.99455538521068
 20
28.12500089415001
 30
0
 40
3
  1
4,5
 50
90
 41
1
 51
0
  7
STANDARD
 71
    0
210
0
220
0
230
1
100
AcDbText
  0
ENDBLK
  5
75
330
73
100
AcDbEntity
  8
0
100
AcDbBlockEnd
  0
BLOCK
  5
77
330
76
100
AcDbEntity
  8
0
100
AcDbBlockBegin
  2
*U64
 70
    0
 10
0
 20
0
  3
*U64
  1

  0
TEXT
  5
94
100
AcDbEntity
  8
0
  6
CONTINUOUS
 62
  137
370
   -1
100
AcDbText
 10
-2.208971050331149
 20
-1.549740913392892
 30
0
 40
3
  1
R8
 50
48.44472544863633
 41
1
 51
0
  7
STANDARD
 71
    0
210
0
220
0
230
1
100
AcDbText
  0
ENDBLK
  5
78
330
76
100
AcDbEntity
  8
0
100
AcDbBlockEnd
  0
BLOCK
  5
7A
330
79
100
AcDbEntity
  8
0
100
AcDbBlockBegin
  2
*U65
 70
    0
 10
0
 20
0
  3
*U65
  1

  0
TEXT
  5
95
100
AcDbEntity
  8
0
  6
CONTINUOUS
 62
  137
370
   -1
100
AcDbText
 10
-0.7945209164628247
 20
18.12058560790896
 30
0
 40
3
  1
2,5
 50
314.9999999999993
 41
1
 51
0
  7
STANDARD
 71
    0
210
0
220
0
230
1
100
AcDbText
  0
ENDBLK
  5
7B
330
79
100
AcDbEntity
  8
0
100
AcDbBlockEnd
  0
BLOCK
  5
7D
330
7C
100
AcDbEntity
  8
0
100
AcDbBlockBegin
  2
*U66
 70
    0
 10
0
 20
0
  3
*U66
  1

  0
TEXT
  5
96
100
AcDbEntity
  8
0
  6
CONTINUOUS
 62
  137
370
   -1
100
AcDbText
 10
-1.750000000050007
 20
28.20388985832017
 30
0
 40
3
  1
10
 50
0
 41
1
 51
0
  7
STANDARD
 71
    0
210
0
220
0
230
1
100
AcDbText
  0
ENDBLK
  5
7E
330
7C
100
AcDbEntity
  8
0
100
AcDbBlockEnd
  0
BLOCK
  5
80
330
7F
100
AcDbEntity
  8
0
100
AcDbBlockBegin
  2
*U67
 70
    0
 10
0
 20
0
  3
*U67
  1

  0
TEXT
  5
97
100
AcDbEntity
  8
0
  6
CONTINUOUS
 62
  137
370
   -1
100
AcDbText
 10
-2.249999999999998
 20
37.57340428346254
 30
0
 40
3
  1
20
 50
0
 41
1
 51
0
  7
STANDARD
 71
    0
210
0
220
0
230
1
100
AcDbText
  0
ENDBLK
  5
81
330
7F
100
AcDbEntity
  8
0
100
AcDbBlockEnd
  0
BLOCK
  5
83
330
82
100
AcDbEntity
  8
0
100
AcDbBlockBegin
  2
*U68
 70
    0
 10
0
 20
0
  3
*U68
  1

  0
TEXT
  5
98
100
AcDbEntity
  8
0
  6
CONTINUOUS
 62
  137
370
   -1
100
AcDbText
 10
-4.249999999999998
 20
33.47569347458204
 30
0
 40
3
  1
16,4
 50
0
 41
1
 51
0
  7
STANDARD
 71
    0
210
0
220
0
230
1
100
AcDbText
  0
ENDBLK
  5
84
330
82
100
AcDbEntity
  8
0
100
AcDbBlockEnd
  0
ENDSEC
  0
SECTION
  2
ENTITIES
  0
LINE
  5
99
100
AcDbEntity
  8
CENTER
  6
CENTER
 62
    1
370
   -1
100
AcDbLine
 10
-24.50000764999307
 20
0
 11
69.5000000000003
 21
0
  0
LINE
  5
9A
100
AcDbEntity
  8
CENTER
  6
CENTER
 62
    1
370
   -1
100
AcDbLine
 10
3e-16
 20
-24.49999999999362
 11
-3e-16
 21
24.5000000000108
  0
LINE
  5
9B
100
AcDbEntity
  8
CENTER
  6
CENTER
 62
    1
370
   -1
100
AcDbLine
 10
45.00000000000002
 20
-24.49999999999842
 11
45.00000000000002
 21
24.5000000000029
  0
LINE
  5
9C
100
AcDbEntity
  8
0
  6
CONTINUOUS
 62
    7
370
   -1
100
AcDbLine
 10
32.75001119165552
 20
-20.50002358750801
 11
26.89854926494701
 21
-20.50002358750801
  0
LINE
  5
9D
100
AcDbEntity
  8
0
  6
CONTINUOUS
 62
    7
370
   -1
100
AcDbLine
 10
-17.70000764999311
 20
-9.999999999993619
 11
-12.474881384146
 21
-9.999999999993619
  0
LINE
  5
9E
100
AcDbEntity
  8
0
  6
CONTINUOUS
 62
    7
370
   -1
100
AcDbLine
 10
-17.70000764999311
 20
-8.199999999993622
 11
-17.30000764999281
 21
-8.199999999993622
  0
LINE
  5
9F
100
AcDbEntity
  8
0
  6
CONTINUOUS
 62
    7
370
   -1
100
AcDbLine
 10
-22.20000764999311
 20
-4.999999999993619
 11
-17.30000764999299
 21
-4.999999999993619
  0
ARC
  5
A0
100
AcDbEntity
  8
0
  6
CONTINUOUS
 62
    7
370
   -1
100
AcDbCircle
 10
-22.20000764999311
 20
-5.299999999993616
 40
0.3
100
AcDbArc
 50
90
 51
180
  0
LINE
  5
A1
100
AcDbEntity
  8
0
  6
CONTINUOUS
 62
    7
370
   -1
100
AcDbLine
 10
4.999992350006806
 20
-22.19999999999362
 11
4.999992350006692
 21
-17.29999999999362
  0
ARC
  5
A2
100
AcDbEntity
  8
0
  6
CONTINUOUS
 62
    7
370
   -1
100
AcDbCircle
 10
5.299992350006704
 20
-17.29999999999362
 40
0.3
100
AcDbArc
 50
90
 51
180
  0
LINE
  5
A3
100
AcDbEntity
  8
0
  6
CONTINUOUS
 62
    7
370
   -1
100
AcDbLine
 10
-5.000007649992994
 20
-22.19999999999362
 11
-5.000007649992994
 21
-17.29999999999352
  0
ARC
  5
A4
100
AcDbEntity
  8
0
  6
CONTINUOUS
 62
    7
370
   -1
100
AcDbCircle
 10
-5.300007649992991
 20
-17.29999999999352
 40
0.3
100
AcDbArc
 50
0
 51
90
  0
LINE
  5
A5
100
AcDbEntity
  8
0
  6
CONTINUOUS
 62
    7
370
   -1
100
AcDbLine
 10
9.999992350006806
 20
-17.6999999999937
 11
9.999992350006806
 21
-12.4748737341465
  0
LINE
  5
A6
100
AcDbEntity
  8
0
  6
CONTINUOUS
 62
    7
370
   -1
100
AcDbLine
 10
11.49999235000669
 20
-18.99999999999362
 11
11.49999235000669
 21
-11.56066017177342
  0
ARC
  5
A7
100
AcDbEntity
  8
0
  6
CONTINUOUS
 62
    7
370
   -1
100
AcDbCircle
 10
10.49999235000669
 20
-11.56066017177342
 40
1
100
AcDbArc
 50
0
 51
44.99999999999942
  0
ARC
  5
A8
100
AcDbEntity
  8
0
  6
CONTINUOUS
 62
    7
370
   -1
100
AcDbCircle
 10
9.699992350006823
 20
-17.6999999999937
 40
0.3
100
AcDbArc
 50
270
 51
0
  0
LINE
  5
A9
100
AcDbEntity
  8
0
  6
CONTINUOUS
 62
    7
370
   -1
100
AcDbLine
 10
8.19999235000688
 20
-17.69999999999362
 11
8.199992350006823
 21
-17.29999999999362
  0
ARC
  5
AA
100
AcDbEntity
  8
0
  6
CONTINUOUS
 62
    7
370
   -1
100
AcDbCircle
 10
7.899992350006812
 20
-17.29999999999362
 40
0.3
100
AcDbArc
 50
0
 51
90
  0
LINE
  5
AB
100
AcDbEntity
  8
0
  6
CONTINUOUS
 62
    7
370
   -1
100
AcDbLine
 10
-10.00000764999319
 20
-17.69999999999352
 11
-10.00000764999319
 21
-12.4748737341466
  0
LINE
  5
AC
100
AcDbEntity
  8
0
  6
CONTINUOUS
 62
    7
370
   -1
100
AcDbLine
 10
-8.200007649993182
 20
-17.69999999999352
 11
-8.200007649993182
 21
-17.29999999999362
  0
ARC
  5
AD
100
AcDbEntity
  8
0
  6
CONTINUOUS
 62
    7
370
   -1
100
AcDbCircle
 10
-8.500007649993194
 20
-17.69999999999352
 40
0.3
100
AcDbArc
 50
270
 51
0
  0
LINE
  5
AE
100
AcDbEntity
  8
0
  6
CONTINUOUS
 62
    7
370
   -1
100
AcDbLine
 10
-22.50000764999299
 20
-5.299999999993616
 11
-22.50000764999319
 21
-19.49999999999362
  0
LINE
  5
AF
100
AcDbEntity
  8
0
  6
CONTINUOUS
 62
    7
370
   -1
100
AcDbLine
 10
-17.00000764999311
 20
-5.299999999993616
 11
-17.00000764999281
 21
-7.89999999999361
  0
ARC
  5
B0
100
AcDbEntity
  8
0
  6
CONTINUOUS
 62
    7
370
   -1
100
AcDbCircle
 10
-17.30000764999281
 20
-7.89999999999361
 40
0.3
100
AcDbArc
 50
270
 51
0
  0
LINE
  5
B1
100
AcDbEntity
  8
0
  6
CONTINUOUS
 62
    7
370
   -1
100
AcDbLine
 10
9.999992350006693
 20
6.3807e-12
 11
9.999992350006693
 21
-9.646446609400314
  0
ARC
  5
B2
100
AcDbEntity
  8
0
  6
CONTINUOUS
 62
    7
370
   -1
100
AcDbCircle
 10
-17.30000764999299
 20
-5.299999999993616
 40
0.3
100
AcDbArc
 50
0
 51
90
  0
LINE
  5
B3
100
AcDbEntity
  8
0
  6
CONTINUOUS
 62
    7
370
   -1
100
AcDbLine
 10
39.69999999999402
 20
-22.49999999999362
 11
5.299992350006817
 21
-22.49999999999362
  0
LINE
  5
B4
100
AcDbEntity
  8
0
  6
CONTINUOUS
 62
    7
370
   -1
100
AcDbLine
 10
11.49999235000669
 20
-18.99999999999362
 11
11.2499923500068
 21
-18.99999999999362
  0
LINE
  5
B5
100
AcDbEntity
  8
0
  6
CONTINUOUS
 62
    7
370
   -1
100
AcDbLine
 10
33.74999999999471
 20
-20.49999999999362
 11
11.24999235000669
 21
-20.49999999999362
  0
ARC
  5
B6
100
AcDbEntity
  8
0
  6
CONTINUOUS
 62
    7
370
   -1
100
AcDbCircle
 10
11.24999235000669
 20
-19.99999999999362
 40
0.5
100
AcDbArc
 50
179.9999999999967
 51
270
  0
LINE
  5
B7
100
AcDbEntity
  8
0
  6
CONTINUOUS
 62
    7
370
   -1
100
AcDbLine
 10
7.899992350006812
 20
-16.99999999999362
 11
5.299992350006704
 21
-16.99999999999362
  0
ARC
  5
B8
100
AcDbEntity
  8
0
  6
CONTINUOUS
 62
    7
370
   -1
100
AcDbCircle
 10
5.299992350006817
 20
-22.19999999999362
 40
0.3
100
AcDbArc
 50
180
 51
270
  0
LINE
  5
B9
100
AcDbEntity
  8
0
  6
CONTINUOUS
 62
    7
370
   -1
100
AcDbLine
 10
-5.300007649992991
 20
-22.49999999999362
 11
-19.50000764999319
 21
-22.49999999999362
  0
LINE
  5
BA
100
AcDbEntity
  8
0
  6
CONTINUOUS
 62
    7
370
   -1
100
AcDbLine
 10
-5.300007649992991
 20
-16.99999999999362
 11
-7.900007649993298
 21
-16.99999999999362
  0
ARC
  5
BB
100
AcDbEntity
  8
0
  6
CONTINUOUS
 62
    7
370
   -1
100
AcDbCircle
 10
-7.900007649993298
 20
-17.29999999999362
 40
0.3
100
AcDbArc
 50
90
 51
180
  0
ARC
  5
BC
100
AcDbEntity
  8
0
  6
CONTINUOUS
 62
    7
370
   -1
100
AcDbCircle
 10
-5.300007649992991
 20
-22.19999999999362
 40
0.3
100
AcDbArc
 50
270
 51
0
  0
ARC
  5
BD
100
AcDbEntity
  8
0
  6
CONTINUOUS
 62
    7
370
   -1
100
AcDbCircle
 10
-19.50000764999319
 20
-19.49999999999362
 40
3
100
AcDbArc
 50
180
 51
270
  0
LINE
  5
BE
100
AcDbEntity
  8
0
  6
CONTINUOUS
 62
    7
370
   -1
100
AcDbLine
 10
-9.700007649993182
 20
-17.99999999999352
 11
-8.500007649993194
 21
-17.99999999999352
  0
LINE
  5
BF
100
AcDbEntity
  8
0
  6
CONTINUOUS
 62
    7
370
   -1
100
AcDbLine
 10
8.499992350006806
 20
-17.9999999999937
 11
9.699992350006823
 21
-17.9999999999937
  0
ARC
  5
C0
100
AcDbEntity
  8
0
  6
CONTINUOUS
 62
    7
370
   -1
100
AcDbCircle
 10
-9.700007649992997
 20
-17.69999999999352
 40
0.3
100
AcDbArc
 50
180
 51
269.9999999999544
  0
ARC
  5
C1
100
AcDbEntity
  8
0
  6
CONTINUOUS
 62
    7
370
   -1
100
AcDbCircle
 10
8.499992350006693
 20
-17.69999999999362
 40
0.3
100
AcDbArc
 50
180.0000000000065
 51
270.0000000000196
  0
LINE
  5
C2
100
AcDbEntity
  8
0
  6
CONTINUOUS
 62
    7
370
   -1
100
AcDbLine
 10
-18.00000764999311
 20
-8.499999999993619
 11
-18.00000764999311
 21
-9.699999999993622
  0
ARC
  5
C3
100
AcDbEntity
  8
0
  6
CONTINUOUS
 62
    7
370
   -1
100
AcDbCircle
 10
-17.70000764999311
 20
-8.49999999999342
 40
0.3
100
AcDbArc
 50
90
 51
180.0000000000325
  0
ARC
  5
C4
100
AcDbEntity
  8
0
  6
CONTINUOUS
 62
    7
370
   -1
100
AcDbCircle
 10
-17.70000764999329
 20
-9.699999999993707
 40
0.3
100
AcDbArc
 50
179.9999999999609
 51
270.0000000000456
  0
LINE
  5
C5
100
AcDbEntity
  8
0
  6
CONTINUOUS
 62
    7
370
   -1
100
AcDbLine
 10
-18.90000664999319
 20
-20.59999799999362
 11
-18.90000664999319
 21
-20.79999999999362
  0
LINE
  5
C6
100
AcDbEntity
  8
0
  6
CONTINUOUS
 62
    7
370
   -1
100
AcDbLine
 10
-12.47279514035298
 20
-11.41213147319931
 11
-12.07910574999319
 21
-11.01843999999362
  0
LINE
  5
C7
100
AcDbEntity
  8
0
  6
CONTINUOUS
 62
    7
370
   -1
100
AcDbLine
 10
-17.69999764999311
 20
-11.49999999999362
 11
-12.6849277358577
 21
-11.49999999999362
  0
ARC
  5
C8
100
AcDbEntity
  8
0
  6
CONTINUOUS
 62
    7
370
   -1
100
AcDbCircle
 10
-12.6849277358577
 20
-11.19999999999362
 40
0.3
100
AcDbArc
 50
270
 51
315.0001515636103
  0
LINE
  5
C9
100
AcDbEntity
  8
0
  6
CONTINUOUS
 62
    7
370
   -1
100
AcDbLine
 10
-20.59999564999319
 20
-18.90001299999362
 11
-20.80000764999311
 21
-18.90001299999352
  0
ARC
  5
CA
100
AcDbEntity
  8
0
  6
CONTINUOUS
 62
    7
370
   -1
100
AcDbCircle
 10
-20.59999564999319
 20
-18.70001299999362
 40
0.2
100
AcDbArc
 50
270
 51
359.9999999999902
  0
LINE
  5
CB
100
AcDbEntity
  8
0
  6
CONTINUOUS
 62
    7
370
   -1
100
AcDbLine
 10
-17.70000664999318
 20
-20.59999799999371
 11
-17.70000664999318
 21
-20.79999999999362
  0
ARC
  5
CC
100
AcDbEntity
  8
0
  6
CONTINUOUS
 62
    7
370
   -1
100
AcDbCircle
 10
-17.90000664999318
 20
-20.59999799999371
 40
0.2
100
AcDbArc
 50
0
 51
89.99999999999349
  0
LINE
  5
CD
100
AcDbEntity
  8
0
  6
CONTINUOUS
 62
    7
370
   -1
100
AcDbLine
 10
-20.59999564999319
 20
-17.70001399999351
 11
-20.80000764999319
 21
-17.70001399999351
  0
ARC
  5
CE
100
AcDbEntity
  8
0
  6
CONTINUOUS
 62
    7
370
   -1
100
AcDbCircle
 10
-20.80000764999319
 20
-17.50001399999353
 40
0.2
100
AcDbArc
 50
180
 51
270
  0
LINE
  5
CF
100
AcDbEntity
  8
0
  6
CONTINUOUS
 62
    7
370
   -1
100
AcDbLine
 10
-18.70000664999318
 20
-20.39999799999362
 11
-17.90000664999318
 21
-20.39999799999371
  0
ARC
  5
D0
100
AcDbEntity
  8
0
  6
CONTINUOUS
 62
    7
370
   -1
100
AcDbCircle
 10
-18.70000664999318
 20
-20.59999799999362
 40
0.2
100
AcDbArc
 50
90
 51
180
  0
LINE
  5
D1
100
AcDbEntity
  8
0
  6
CONTINUOUS
 62
    7
370
   -1
100
AcDbLine
 10
-20.50000764999331
 20
-7.49999799999361
 11
-19.4999976499933
 21
-7.49999799999361
  0
ARC
  5
D2
100
AcDbEntity
  8
0
  6
CONTINUOUS
 62
    7
370
   -1
100
AcDbCircle
 10
-20.50000764999331
 20
-7.99999799999361
 40
0.5
100
AcDbArc
 50
90
 51
180
  0
LINE
  5
D3
100
AcDbEntity
  8
0
  6
CONTINUOUS
 62
    7
370
   -1
100
AcDbLine
 10
-7.500007649993193
 20
-20.49999999999362
 11
-7.500007649993108
 21
-19.49999999999352
  0
ARC
  5
D4
100
AcDbEntity
  8
0
  6
CONTINUOUS
 62
    7
370
   -1
100
AcDbCircle
 10
-8.000007649992995
 20
-19.49999999999352
 40
0.5
100
AcDbArc
 50
0
 51
90
  0
LINE
  5
D5
100
AcDbEntity
  8
0
  6
CONTINUOUS
 62
    7
370
   -1
100
AcDbLine
 10
-18.9999976499933
 20
-7.99999799999361
 11
-18.9999976499933
 21
-10.20000099999352
  0
ARC
  5
D6
100
AcDbEntity
  8
0
  6
CONTINUOUS
 62
    7
370
   -1
100
AcDbCircle
 10
-19.4999976499933
 20
-7.99999799999361
 40
0.5
100
AcDbArc
 50
0
 51
90
  0
LINE
  5
D7
100
AcDbEntity
  8
0
  6
CONTINUOUS
 62
    7
370
   -1
100
AcDbLine
 10
-17.50000664999318
 20
-20.99999999999362
 11
-8.000007649993194
 21
-20.99999999999362
  0
ARC
  5
D8
100
AcDbEntity
  8
0
  6
CONTINUOUS
 62
    7
370
   -1
100
AcDbCircle
 10
-8.000007649993194
 20
-20.49999999999362
 40
0.5
100
AcDbArc
 50
270
 51
359.9999999999935
  0
ARC
  5
D9
100
AcDbEntity
  8
0
  6
CONTINUOUS
 62
    7
370
   -1
100
AcDbCircle
 10
-17.50000664999318
 20
-20.79999999999362
 40
0.2
100
AcDbArc
 50
180
 51
270
  0
LINE
  5
DA
100
AcDbEntity
  8
0
  6
CONTINUOUS
 62
    7
370
   -1
100
AcDbLine
 10
-11.50000764999319
 20
-17.70000099999352
 11
-11.50000764999319
 21
-12.68492676870612
  0
ARC
  5
DB
100
AcDbEntity
  8
0
  6
CONTINUOUS
 62
    7
370
   -1
100
AcDbCircle
 10
-11.20000764999318
 20
-12.68492676870612
 40
0.3
100
AcDbArc
 50
134.9999489034547
 51
180
  0
LINE
  5
DC
100
AcDbEntity
  8
0
  6
CONTINUOUS
 62
    7
370
   -1
100
AcDbLine
 10
-20.20000784999318
 20
-19.9000089999943
 11
-20.7000064499933
 21
-19.90001099998881
  0
ARC
  5
DD
100
AcDbEntity
  8
0
  6
CONTINUOUS
 62
    7
370
   -1
100
AcDbCircle
 10
-20.20000664999319
 20
-20.20000899999201
 40
0.3
100
AcDbArc
 50
0
 51
90.00022918311745
  0
LINE
  5
DE
100
AcDbEntity
  8
0
  6
CONTINUOUS
 62
    7
370
   -1
100
AcDbLine
 10
-8.000007649992995
 20
-18.99999999999352
 11
-10.20000744999331
 21
-18.99999999999362
  0
LINE
  5
DF
100
AcDbEntity
  8
0
  6
CONTINUOUS
 62
    7
370
   -1
100
AcDbLine
 10
-20.39999564999312
 20
-18.70001299999362
 11
-20.39999564999312
 21
-17.90001399999352
  0
ARC
  5
E0
100
AcDbEntity
  8
0
  6
CONTINUOUS
 62
    7
370
   -1
100
AcDbCircle
 10
-20.59999564999319
 20
-17.90001399999352
 40
0.2
100
AcDbArc
 50
0
 51
89.99999999998046
  0
LINE
  5
E1
100
AcDbEntity
  8
0
  6
CONTINUOUS
 62
    7
370
   -1
100
AcDbLine
 10
-21.00000764999331
 20
-17.50001399999353
 11
-21.00000764999331
 21
-7.99999799999361
  0
LINE
  5
E2
100
AcDbEntity
  8
0
  6
CONTINUOUS
 62
    7
370
   -1
100
AcDbLine
 10
-19.90000664999319
 20
-20.20000899999201
 11
-19.90000664999319
 21
-20.69999999999362
  0
LINE
  5
E3
100
AcDbEntity
  8
0
  6
CONTINUOUS
 62
    7
370
   -1
100
AcDbLine
 10
-21.00000764999331
 20
-19.60001099999121
 11
-21.00000764999331
 21
-19.10001299999342
  0
ARC
  5
E4
100
AcDbEntity
  8
0
  6
CONTINUOUS
 62
    7
370
   -1
100
AcDbCircle
 10
-20.80000764999319
 20
-19.10001299999342
 40
0.2
100
AcDbArc
 50
89.99999999998046
 51
180
  0
ARC
  5
E5
100
AcDbEntity
  8
0
  6
CONTINUOUS
 62
    7
370
   -1
100
AcDbCircle
 10
-20.70000764999329
 20
-19.60001099999121
 40
0.3
100
AcDbArc
 50
180
 51
270.0002291831175
  0
LINE
  5
E6
100
AcDbEntity
  8
0
  6
CONTINUOUS
 62
    7
370
   -1
100
AcDbLine
 10
-19.6000066499933
 20
-20.99999999999362
 11
-19.1000066499933
 21
-20.99999999999362
  0
ARC
  5
E7
100
AcDbEntity
  8
0
  6
CONTINUOUS
 62
    7
370
   -1
100
AcDbCircle
 10
-19.1000066499933
 20
-20.79999999999362
 40
0.2
100
AcDbArc
 50
270
 51
0
  0
ARC
  5
E8
100
AcDbEntity
  8
0
  6
CONTINUOUS
 62
    7
370
   -1
100
AcDbCircle
 10
-19.6000066499933
 20
-20.69999999999362
 40
0.3
100
AcDbArc
 50
180
 51
270
  0
LINE
  5
E9
100
AcDbEntity
  8
0
  6
CONTINUOUS
 62
    7
370
   -1
100
AcDbLine
 10
-11.4121394951691
 20
-12.47279454517022
 11
-11.01967624999311
 21
-12.08033199999362
  0
ARC
  5
EA
100
AcDbEntity
  8
0
  6
CONTINUOUS
 62
    7
370
   -1
100
AcDbCircle
 10
-10.20000744999331
 20
-17.70000099999352
 40
1.3
100
AcDbArc
 50
180.000010000001
 51
270
  0
ARC
  5
EB
100
AcDbEntity
  8
0
  6
CONTINUOUS
 62
    7
370
   -1
100
AcDbCircle
 10
-17.69999764999311
 20
-10.20000099999352
 40
1.3
100
AcDbArc
 50
180.000010000001
 51
270
  0
ARC
  5
EC
100
AcDbEntity
  8
0
  6
CONTINUOUS
 62
    7
370
   -1
100
AcDbCircle
 10
-11.55000784999299
 20
-11.5499989999937
 40
0.75
100
AcDbArc
 50
315.000009999993
 51
135.1297299999886
  0
LINE
  5
ED
100
AcDbEntity
  8
0
  6
CONTINUOUS
 62
    7
370
   -1
100
AcDbLine
 10
-12.474881384146
 20
-9.999999999993619
 11
-10.00000533759683
 21
-7.525123953444429
  0
LINE
  5
EE
100
AcDbEntity
  8
0
  6
CONTINUOUS
 62
    7
370
   -1
100
AcDbLine
 10
-10.00000764999319
 20
-12.4748737341466
 11
-7.52513371309267
 21
-9.99999979724609
  0
LINE
  5
EF
100
AcDbEntity
  8
0
  6
CONTINUOUS
 62
    7
370
   -1
100
AcDbLine
 10
10.74999235000669
 20
-19.99999999999352
 11
10.7499923500068
 21
-19.49999999999352
  0
ARC
  5
F0
100
AcDbEntity
  8
0
  6
CONTINUOUS
 62
    7
370
   -1
100
AcDbCircle
 10
11.2499923500068
 20
-19.49999999999362
 40
0.5
100
AcDbArc
 50
90
 51
179.9999999999992
  0
ARC
  5
F1
100
AcDbEntity
  8
0
  6
CONTINUOUS
 62
    7
370
   -1
100
AcDbCircle
 10
-7.649993108199999e-06
 20
6.3807e-12
 40
6.25
100
AcDbArc
 50
270
 51
295.5287793655078
  0
ARC
  5
F2
100
AcDbEntity
  8
0
  6
CONTINUOUS
 62
    7
370
   -1
100
AcDbCircle
 10
-7.649993108199999e-06
 20
6.3807e-12
 40
6.25
100
AcDbArc
 50
334.4712206344904
 51
25.5287793655224
  0
LINE
  5
F3
100
AcDbEntity
  8
0
  6
CONTINUOUS
 62
    7
370
   -1
100
AcDbLine
 10
4.124307509647309
 20
-8.299999999993616
 11
7.299992350006817
 21
-8.299999999993616
  0
LINE
  5
F4
100
AcDbEntity
  8
0
  6
CONTINUOUS
 62
    7
370
   -1
100
AcDbLine
 10
8.299992350006988
 20
-4.124315159634022
 11
8.299992350006818
 21
-7.299999999993616
  0
ARC
  5
F5
100
AcDbEntity
  8
0
  6
CONTINUOUS
 62
    7
370
   -1
100
AcDbCircle
 10
7.299992350006817
 20
-7.299999999993616
 40
1
100
AcDbArc
 50
270
 51
0
  0
ARC
  5
F6
100
AcDbEntity
  8
0
  6
CONTINUOUS
 62
    7
370
   -1
100
AcDbCircle
 10
6.429370955324912
 20
-3.070621394675512
 40
0.8749999999999859
100
AcDbArc
 50
154.4712206344954
 51
318.0091503933492
  0
ARC
  5
F7
100
AcDbEntity
  8
0
  6
CONTINUOUS
 62
    7
370
   -1
100
AcDbCircle
 10
3.070613744688614
 20
-6.429378605311612
 40
0.8749999999999575
100
AcDbArc
 50
311.9908496066571
 51
115.5287793655115
  0
ARC
  5
F8
100
AcDbEntity
  8
0
  6
CONTINUOUS
 62
    7
370
   -1
100
AcDbCircle
 10
7.599992350007084
 20
-4.124315159634022
 40
0.7
100
AcDbArc
 50
0
 51
138.0091503933492
  0
ARC
  5
F9
100
AcDbEntity
  8
0
  6
CONTINUOUS
 62
    7
370
   -1
100
AcDbCircle
 10
4.124307509647309
 20
-7.599999999993613
 40
0.7
100
AcDbArc
 50
131.9908496066572
 51
270
  0
ARC
  5
FA
100
AcDbEntity
  8
0
  6
CONTINUOUS
 62
    7
370
   -1
100
AcDbCircle
 10
-7.649992809800001e-06
 20
6.3807e-12
 40
6.25
100
AcDbArc
 50
244.4712206344886
 51
270
  0
ARC
  5
FB
100
AcDbEntity
  8
0
  6
CONTINUOUS
 62
    7
370
   -1
100
AcDbCircle
 10
-7.649992809800001e-06
 20
6.3807e-12
 40
6.25
100
AcDbArc
 50
154.4712206344466
 51
205.5287793655082
  0
LINE
  5
FC
100
AcDbEntity
  8
0
  6
CONTINUOUS
 62
    7
370
   -1
100
AcDbLine
 10
-4.124322809633596
 20
-8.299999999993517
 11
-7.30000764999319
 21
-8.299999999993304
  0
LINE
  5
FD
100
AcDbEntity
  8
0
  6
CONTINUOUS
 62
    7
370
   -1
100
AcDbLine
 10
-8.300007649993105
 20
-4.124315159633724
 11
-8.300007649993105
 21
-7.299999999993303
  0
ARC
  5
FE
100
AcDbEntity
  8
0
  6
CONTINUOUS
 62
    7
370
   -1
100
AcDbCircle
 10
-7.300007649993105
 20
-7.299999999993303
 40
1
100
AcDbArc
 50
179.9999999999984
 51
270
  0
ARC
  5
FF
100
AcDbEntity
  8
0
  6
CONTINUOUS
 62
    7
370
   -1
100
AcDbCircle
 10
-6.429386255310987
 20
-3.070621394675228
 40
0.8749999999999859
100
AcDbArc
 50
221.9908496066485
 51
25.52877936550272
  0
ARC
  5
100
100
AcDbEntity
  8
0
  6
CONTINUOUS
 62
    7
370
   -1
100
AcDbCircle
 10
-3.070629044674902
 20
-6.429378605311413
 40
0.8749999999999575
100
AcDbArc
 50
64.4712206344885
 51
228.0091503933428
  0
ARC
  5
101
100
AcDbEntity
  8
0
  6
CONTINUOUS
 62
    7
370
   -1
100
AcDbCircle
 10
-7.600007649993187
 20
-4.124315159633724
 40
0.7
100
AcDbArc
 50
41.99084960664852
 51
179.9999999999984
  0
ARC
  5
102
100
AcDbEntity
  8
0
  6
CONTINUOUS
 62
    7
370
   -1
100
AcDbCircle
 10
-4.124322809633596
 20
-7.599999999993428
 40
0.7
100
AcDbArc
 50
270
 51
48.00915039334282
  0
LINE
  5
103
100
AcDbEntity
  8
0
  6
CONTINUOUS
 62
    7
370
   -1
100
AcDbLine
 10
9.999992350006806
 20
-12.4748737341465
 11
7.52513925347802
 21
-10.00002063761782
  0
LINE
  5
104
100
AcDbEntity
  8
0
  6
CONTINUOUS
 62
    7
370
   -1
100
AcDbLine
 10
11.2070991311933
 20
-10.85355339058682
 11
9.999992350006693
 21
-9.646446609400314
  0
LINE
  5
105
100
AcDbEntity
  8
0
  6
CONTINUOUS
 62
    7
370
   -1
100
AcDbLine
 10
62.69999999999743
 20
-10.00000000000501
 11
57.4748737341503
 21
-10.00000000000351
  0
LINE
  5
106
100
AcDbEntity
  8
0
  6
CONTINUOUS
 62
    7
370
   -1
100
AcDbLine
 10
62.69999999999791
 20
-8.200000000005019
 11
62.29999999999762
 21
-8.20000000000492
  0
LINE
  5
107
100
AcDbEntity
  8
0
  6
CONTINUOUS
 62
    7
370
   -1
100
AcDbLine
 10
67.19999999999891
 20
-5.000000000006224
 11
62.29999999999879
 21
-5.000000000004931
  0
ARC
  5
108
100
AcDbEntity
  8
0
  6
CONTINUOUS
 62
    7
370
   -1
100
AcDbCircle
 10
67.19999999999879
 20
-5.30000000000632
 40
0.3
100
AcDbArc
 50
359.9999999999837
 51
89.99999999998697
  0
LINE
  5
109
100
AcDbEntity
  8
0
  6
CONTINUOUS
 62
    7
370
   -1
100
AcDbLine
 10
39.99999999999401
 20
-22.19999999999851
 11
39.99999999999559
 21
-17.29999999999862
  0
ARC
  5
10A
100
AcDbEntity
  8
0
  6
CONTINUOUS
 62
    7
370
   -1
100
AcDbCircle
 10
39.69999999999558
 20
-17.29999999999852
 40
0.3
100
AcDbArc
 50
359.9999999999837
 51
89.99999999998697
  0
LINE
  5
10B
100
AcDbEntity
  8
0
  6
CONTINUOUS
 62
    7
370
   -1
100
AcDbLine
 10
49.99999999999392
 20
-22.20000000000141
 11
49.99999999999511
 21
-17.3000000000013
  0
ARC
  5
10C
100
AcDbEntity
  8
0
  6
CONTINUOUS
 62
    7
370
   -1
100
AcDbCircle
 10
50.29999999999529
 20
-17.30000000000142
 40
0.3
100
AcDbArc
 50
89.99999999998697
 51
179.9999999999837
  0
LINE
  5
10D
100
AcDbEntity
  8
0
  6
CONTINUOUS
 62
    7
370
   -1
100
AcDbLine
 10
34.9999999999954
 20
-17.69999999999722
 11
34.99999999999679
 21
-12.47487373415011
  0
LINE
  5
10E
100
AcDbEntity
  8
0
  6
CONTINUOUS
 62
    7
370
   -1
100
AcDbLine
 10
33.49999999999511
 20
-18.99999999999673
 11
33.49999999999719
 21
-11.5606601717765
  0
ARC
  5
10F
100
AcDbEntity
  8
0
  6
CONTINUOUS
 62
    7
370
   -1
100
AcDbCircle
 10
34.49999999999719
 20
-11.56066017177681
 40
1
100
AcDbArc
 50
134.9999999999821
 51
179.9999999999837
  0
ARC
  5
110
100
AcDbEntity
  8
0
  6
CONTINUOUS
 62
    7
370
   -1
100
AcDbCircle
 10
35.29999999999529
 20
-17.69999999999732
 40
0.3
100
AcDbArc
 50
179.9999999999837
 51
269.999999999987
  0
LINE
  5
111
100
AcDbEntity
  8
0
  6
CONTINUOUS
 62
    7
370
   -1
100
AcDbLine
 10
36.79999999999529
 20
-17.69999999999771
 11
36.79999999999549
 21
-17.29999999999759
  0
ARC
  5
112
100
AcDbEntity
  8
0
  6
CONTINUOUS
 62
    7
370
   -1
100
AcDbCircle
 10
37.0999999999955
 20
-17.29999999999772
 40
0.3
100
AcDbArc
 50
89.99999999998697
 51
179.9999999999837
  0
LINE
  5
113
100
AcDbEntity
  8
0
  6
CONTINUOUS
 62
    7
370
   -1
100
AcDbLine
 10
54.99999999999539
 20
-17.70000000000272
 11
54.99999999999679
 21
-12.4748737341558
  0
LINE
  5
114
100
AcDbEntity
  8
0
  6
CONTINUOUS
 62
    7
370
   -1
100
AcDbLine
 10
53.19999999999541
 20
-17.70000000000222
 11
53.19999999999552
 21
-17.30000000000231
  0
ARC
  5
115
100
AcDbEntity
  8
0
  6
CONTINUOUS
 62
    7
370
   -1
100
AcDbCircle
 10
53.49999999999528
 20
-17.70000000000232
 40
0.3
100
AcDbArc
 50
179.9999999999837
 51
269.999999999987
  0
LINE
  5
116
100
AcDbEntity
  8
0
  6
CONTINUOUS
 62
    7
370
   -1
100
AcDbLine
 10
67.49999999999881
 20
-5.30000000000632
 11
67.4999999999948
 21
-19.50000000000632
  0
LINE
  5
117
100
AcDbEntity
  8
0
  6
CONTINUOUS
 62
    7
370
   -1
100
AcDbLine
 10
61.99999999999881
 20
-5.300000000004814
 11
61.9999999999977
 21
-7.900000000004808
  0
ARC
  5
118
100
AcDbEntity
  8
0
  6
CONTINUOUS
 62
    7
370
   -1
100
AcDbCircle
 10
62.29999999999762
 20
-7.900000000004808
 40
0.3
100
AcDbArc
 50
179.9999999999837
 51
269.999999999987
  0
LINE
  5
119
100
AcDbEntity
  8
0
  6
CONTINUOUS
 62
    7
370
   -1
100
AcDbLine
 10
35.00000000000051
 20
2.899e-12
 11
34.9999999999977
 21
-9.64644660940381
  0
ARC
  5
11A
100
AcDbEntity
  8
0
  6
CONTINUOUS
 62
    7
370
   -1
100
AcDbCircle
 10
62.29999999999861
 20
-5.300000000005027
 40
0.3
100
AcDbArc
 50
89.99999999998697
 51
179.9999999999837
  0
LINE
  5
11B
100
AcDbEntity
  8
0
  6
CONTINUOUS
 62
    7
370
   -1
100
AcDbLine
 10
33.49999999999511
 20
-18.99999999999673
 11
33.749999999995
 21
-18.99999999999682
  0
ARC
  5
11C
100
AcDbEntity
  8
0
  6
CONTINUOUS
 62
    7
370
   -1
100
AcDbCircle
 10
33.7499999999948
 20
-19.99999999999682
 40
0.5
100
AcDbArc
 50
269.999999999987
 51
359.999999999987
  0
LINE
  5
11D
100
AcDbEntity
  8
0
  6
CONTINUOUS
 62
    7
370
   -1
100
AcDbLine
 10
37.0999999999955
 20
-16.99999999999771
 11
39.6999999999957
 21
-16.99999999999842
  0
ARC
  5
11E
100
AcDbEntity
  8
0
  6
CONTINUOUS
 62
    7
370
   -1
100
AcDbCircle
 10
39.69999999999411
 20
-22.19999999999842
 40
0.3
100
AcDbArc
 50
269.999999999987
 51
359.9999999999837
  0
LINE
  5
11F
100
AcDbEntity
  8
0
  6
CONTINUOUS
 62
    7
370
   -1
100
AcDbLine
 10
50.29999999999382
 20
-22.5000000000015
 11
64.499999999994
 21
-22.50000000000552
  0
LINE
  5
120
100
AcDbEntity
  8
0
  6
CONTINUOUS
 62
    7
370
   -1
100
AcDbLine
 10
50.29999999999529
 20
-17.0000000000015
 11
52.8999999999956
 21
-17.00000000000222
  0
ARC
  5
121
100
AcDbEntity
  8
0
  6
CONTINUOUS
 62
    7
370
   -1
100
AcDbCircle
 10
52.8999999999956
 20
-17.30000000000221
 40
0.3
100
AcDbArc
 50
359.9999999999837
 51
89.99999999998697
  0
ARC
  5
122
100
AcDbEntity
  8
0
  6
CONTINUOUS
 62
    7
370
   -1
100
AcDbCircle
 10
50.29999999999393
 20
-22.20000000000141
 40
0.3
100
AcDbArc
 50
179.9999999999837
 51
269.999999999987
  0
ARC
  5
123
100
AcDbEntity
  8
0
  6
CONTINUOUS
 62
    7
370
   -1
100
AcDbCircle
 10
64.4999999999948
 20
-19.50000000000551
 40
3
100
AcDbArc
 50
269.999999999987
 51
359.9999999999837
  0
LINE
  5
124
100
AcDbEntity
  8
0
  6
CONTINUOUS
 62
    7
370
   -1
100
AcDbLine
 10
54.69999999999529
 20
-18.0000000000026
 11
53.49999999999517
 21
-18.00000000000231
  0
LINE
  5
125
100
AcDbEntity
  8
0
  6
CONTINUOUS
 62
    7
370
   -1
100
AcDbLine
 10
36.4999999999952
 20
-17.9999999999976
 11
35.29999999999521
 21
-17.99999999999731
  0
ARC
  5
126
100
AcDbEntity
  8
0
  6
CONTINUOUS
 62
    7
370
   -1
100
AcDbCircle
 10
54.69999999999519
 20
-17.70000000000272
 40
0.3
100
AcDbArc
 50
270.0000000000326
 51
359.9999999999837
  0
ARC
  5
127
100
AcDbEntity
  8
0
  6
CONTINUOUS
 62
    7
370
   -1
100
AcDbCircle
 10
36.4999999999954
 20
-17.6999999999975
 40
0.3
100
AcDbArc
 50
269.9999999999674
 51
359.9999999999772
  0
LINE
  5
128
100
AcDbEntity
  8
0
  6
CONTINUOUS
 62
    7
370
   -1
100
AcDbLine
 10
62.99999999999769
 20
-8.500000000005114
 11
62.9999999999975
 21
-9.700000000005019
  0
ARC
  5
129
100
AcDbEntity
  8
0
  6
CONTINUOUS
 62
    7
370
   -1
100
AcDbCircle
 10
62.69999999999791
 20
-8.500000000004817
 40
0.3
100
AcDbArc
 50
359.9999999999512
 51
89.99999999998697
  0
ARC
  5
12A
100
AcDbEntity
  8
0
  6
CONTINUOUS
 62
    7
370
   -1
100
AcDbCircle
 10
62.69999999999768
 20
-9.700000000005119
 40
0.3
100
AcDbArc
 50
269.9999999999414
 51
2.27982e-11
  0
LINE
  5
12B
100
AcDbEntity
  8
0
  6
CONTINUOUS
 62
    7
370
   -1
100
AcDbLine
 10
63.89999899999461
 20
-20.59999800000531
 11
63.89999899999449
 21
-20.80000000000531
  0
LINE
  5
12C
100
AcDbEntity
  8
0
  6
CONTINUOUS
 62
    7
370
   -1
100
AcDbLine
 10
57.47278749035692
 20
-11.41213147320931
 11
57.07909809999719
 21
-11.01844000000342
  0
LINE
  5
12D
100
AcDbEntity
  8
0
  6
CONTINUOUS
 62
    7
370
   -1
100
AcDbLine
 10
62.69998999999708
 20
-11.50000000000501
 11
57.68492008586162
 21
-11.50000000000361
  0
ARC
  5
12E
100
AcDbEntity
  8
0
  6
CONTINUOUS
 62
    7
370
   -1
100
AcDbCircle
 10
57.68492008586168
 20
-11.20000000000361
 40
0.3
100
AcDbArc
 50
224.9998484363712
 51
269.999999999987
  0
LINE
  5
12F
100
AcDbEntity
  8
0
  6
CONTINUOUS
 62
    7
370
   -1
100
AcDbLine
 10
65.59998799999489
 20
-18.9000130000058
 11
65.79999999999492
 21
-18.90001300000571
  0
ARC
  5
130
100
AcDbEntity
  8
0
  6
CONTINUOUS
 62
    7
370
   -1
100
AcDbCircle
 10
65.59998799999502
 20
-18.7000130000058
 40
0.2
100
AcDbArc
 50
179.9999999999935
 51
269.999999999987
  0
LINE
  5
131
100
AcDbEntity
  8
0
  6
CONTINUOUS
 62
    7
370
   -1
100
AcDbLine
 10
62.69999899999459
 20
-20.59999800000511
 11
62.69999899999442
 21
-20.80000000000503
  0
ARC
  5
132
100
AcDbEntity
  8
0
  6
CONTINUOUS
 62
    7
370
   -1
100
AcDbCircle
 10
62.89999899999461
 20
-20.59999800000522
 40
0.2
100
AcDbArc
 50
89.99999999999349
 51
179.9999999999837
  0
LINE
  5
133
100
AcDbEntity
  8
0
  6
CONTINUOUS
 62
    7
370
   -1
100
AcDbLine
 10
65.59998799999528
 20
-17.70001400000571
 11
65.79999999999541
 21
-17.7000140000058
  0
ARC
  5
134
100
AcDbEntity
  8
0
  6
CONTINUOUS
 62
    7
370
   -1
100
AcDbCircle
 10
65.79999999999552
 20
-17.5000140000058
 40
0.2
100
AcDbArc
 50
269.999999999987
 51
359.9999999999837
  0
LINE
  5
135
100
AcDbEntity
  8
0
  6
CONTINUOUS
 62
    7
370
   -1
100
AcDbLine
 10
63.69999899999459
 20
-20.39999800000531
 11
62.89999899999461
 21
-20.39999800000521
  0
ARC
  5
136
100
AcDbEntity
  8
0
  6
CONTINUOUS
 62
    7
370
   -1
100
AcDbCircle
 10
63.69999899999459
 20
-20.59999800000531
 40
0.2
100
AcDbArc
 50
359.9999999999837
 51
89.99999999998697
  0
LINE
  5
137
100
AcDbEntity
  8
0
  6
CONTINUOUS
 62
    7
370
   -1
100
AcDbLine
 10
65.49999999999839
 20
-7.499998000005803
 11
64.49998999999841
 21
-7.499998000005518
  0
ARC
  5
138
100
AcDbEntity
  8
0
  6
CONTINUOUS
 62
    7
370
   -1
100
AcDbCircle
 10
65.49999999999818
 20
-7.999998000005803
 40
0.5
100
AcDbArc
 50
359.9999999999837
 51
89.99999999998697
  0
LINE
  5
139
100
AcDbEntity
  8
0
  6
CONTINUOUS
 62
    7
370
   -1
100
AcDbLine
 10
52.49999999999459
 20
-20.5000000000021
 11
52.49999999999468
 21
-19.500000000002
  0
ARC
  5
13A
100
AcDbEntity
  8
0
  6
CONTINUOUS
 62
    7
370
   -1
100
AcDbCircle
 10
52.9999999999946
 20
-19.50000000000222
 40
0.5
100
AcDbArc
 50
89.99999999998697
 51
179.9999999999837
  0
LINE
  5
13B
100
AcDbEntity
  8
0
  6
CONTINUOUS
 62
    7
370
   -1
100
AcDbLine
 10
63.99998999999812
 20
-7.999998000005419
 11
63.99998999999761
 21
-10.2000010000053
  0
ARC
  5
13C
100
AcDbEntity
  8
0
  6
CONTINUOUS
 62
    7
370
   -1
100
AcDbCircle
 10
64.49998999999816
 20
-7.999998000005518
 40
0.5
100
AcDbArc
 50
89.99999999998697
 51
179.9999999999837
  0
LINE
  5
13D
100
AcDbEntity
  8
0
  6
CONTINUOUS
 62
    7
370
   -1
100
AcDbLine
 10
62.49999899999441
 20
-21.00000000000502
 11
52.9999999999944
 21
-21.00000000000222
  0
ARC
  5
13E
100
AcDbEntity
  8
0
  6
CONTINUOUS
 62
    7
370
   -1
100
AcDbCircle
 10
52.99999999999449
 20
-20.50000000000222
 40
0.5
100
AcDbArc
 50
179.9999999999902
 51
269.999999999987
  0
ARC
  5
13F
100
AcDbEntity
  8
0
  6
CONTINUOUS
 62
    7
370
   -1
100
AcDbCircle
 10
62.49999899999441
 20
-20.80000000000493
 40
0.2
100
AcDbArc
 50
269.999999999987
 51
359.9999999999837
  0
LINE
  5
140
100
AcDbEntity
  8
0
  6
CONTINUOUS
 62
    7
370
   -1
100
AcDbLine
 10
56.49999999999528
 20
-17.70000100000321
 11
56.49999999999678
 21
-12.68492676871571
  0
ARC
  5
141
100
AcDbEntity
  8
0
  6
CONTINUOUS
 62
    7
370
   -1
100
AcDbCircle
 10
56.19999999999669
 20
-12.68492676871561
 40
0.3
100
AcDbArc
 50
359.9999999999837
 51
45.00005109652679
  0
LINE
  5
142
100
AcDbEntity
  8
0
  6
CONTINUOUS
 62
    7
370
   -1
100
AcDbLine
 10
65.2000001999948
 20
-19.90000900000642
 11
65.6999987999948
 21
-19.90001100000111
  0
ARC
  5
143
100
AcDbEntity
  8
0
  6
CONTINUOUS
 62
    7
370
   -1
100
AcDbCircle
 10
65.19999899999459
 20
-20.2000090000041
 40
0.3
100
AcDbArc
 50
89.99977081686949
 51
179.9999999999837
  0
LINE
  5
144
100
AcDbEntity
  8
0
  6
CONTINUOUS
 62
    7
370
   -1
100
AcDbLine
 10
52.9999999999948
 20
-19.00000000000222
 11
55.19999979999511
 21
-19.00000000000293
  0
LINE
  5
145
100
AcDbEntity
  8
0
  6
CONTINUOUS
 62
    7
370
   -1
100
AcDbLine
 10
65.39998799999503
 20
-18.7000130000058
 11
65.39998799999518
 21
-17.90001400000571
  0
ARC
  5
146
100
AcDbEntity
  8
0
  6
CONTINUOUS
 62
    7
370
   -1
100
AcDbCircle
 10
65.59998799999511
 20
-17.90001400000571
 40
0.2
100
AcDbArc
 50
90.00000000000649
 51
179.9999999999837
  0
LINE
  5
147
100
AcDbEntity
  8
0
  6
CONTINUOUS
 62
    7
370
   -1
100
AcDbLine
 10
65.99999999999551
 20
-17.50001400000592
 11
65.99999999999818
 21
-7.999998000005916
  0
LINE
  5
148
100
AcDbEntity
  8
0
  6
CONTINUOUS
 62
    7
370
   -1
100
AcDbLine
 10
64.89999899999469
 20
-20.20000900000402
 11
64.89999899999459
 21
-20.70000000000562
  0
LINE
  5
149
100
AcDbEntity
  8
0
  6
CONTINUOUS
 62
    7
370
   -1
100
AcDbLine
 10
65.99999999999491
 20
-19.60001100000352
 11
65.99999999999511
 21
-19.1000130000058
  0
ARC
  5
14A
100
AcDbEntity
  8
0
  6
CONTINUOUS
 62
    7
370
   -1
100
AcDbCircle
 10
65.79999999999504
 20
-19.1000130000057
 40
0.2
100
AcDbArc
 50
359.9999999999837
 51
90.00000000000649
  0
ARC
  5
14B
100
AcDbEntity
  8
0
  6
CONTINUOUS
 62
    7
370
   -1
100
AcDbCircle
 10
65.6999999999949
 20
-19.60001100000342
 40
0.3
100
AcDbArc
 50
269.9997708168695
 51
359.9999999999837
  0
LINE
  5
14C
100
AcDbEntity
  8
0
  6
CONTINUOUS
 62
    7
370
   -1
100
AcDbLine
 10
64.59999899999448
 20
-21.00000000000552
 11
64.09999899999448
 21
-21.00000000000543
  0
ARC
  5
14D
100
AcDbEntity
  8
0
  6
CONTINUOUS
 62
    7
370
   -1
100
AcDbCircle
 10
64.0999989999946
 20
-20.80000000000543
 40
0.2
100
AcDbArc
 50
179.9999999999837
 51
269.999999999987
  0
ARC
  5
14E
100
AcDbEntity
  8
0
  6
CONTINUOUS
 62
    7
370
   -1
100
AcDbCircle
 10
64.5999989999946
 20
-20.70000000000552
 40
0.3
100
AcDbArc
 50
269.999999999987
 51
359.9999999999837
  0
LINE
  5
14F
100
AcDbEntity
  8
0
  6
CONTINUOUS
 62
    7
370
   -1
100
AcDbLine
 10
56.41213184517278
 20
-12.47279454517981
 11
56.01966859999691
 21
-12.08033200000311
  0
ARC
  5
150
100
AcDbEntity
  8
0
  6
CONTINUOUS
 62
    7
370
   -1
100
AcDbCircle
 10
55.19999979999551
 20
-17.70000100000281
 40
1.3
100
AcDbArc
 50
269.999999999987
 51
359.9999899999827
  0
ARC
  5
151
100
AcDbEntity
  8
0
  6
CONTINUOUS
 62
    7
370
   -1
100
AcDbCircle
 10
62.69998999999742
 20
-10.20000100000493
 40
1.3
100
AcDbArc
 50
269.999999999987
 51
359.9999899999827
  0
ARC
  5
152
100
AcDbEntity
  8
0
  6
CONTINUOUS
 62
    7
370
   -1
100
AcDbCircle
 10
56.55000019999693
 20
-11.54999900000331
 40
0.75
100
AcDbArc
 50
44.87026999999291
 51
224.9999899999885
  0
LINE
  5
153
100
AcDbEntity
  8
0
  6
CONTINUOUS
 62
    7
370
   -1
100
AcDbLine
 10
57.4748737341503
 20
-10.00000000000351
 11
54.99998449727407
 21
-7.525110763125882
  0
LINE
  5
154
100
AcDbEntity
  8
0
  6
CONTINUOUS
 62
    7
370
   -1
100
AcDbLine
 10
54.99999999999679
 20
-12.4748737341558
 11
52.52514690347082
 21
-10.00002063762842
  0
LINE
  5
155
100
AcDbEntity
  8
0
  6
CONTINUOUS
 62
    7
370
   -1
100
AcDbLine
 10
34.2499999999948
 20
-19.99999999999691
 11
34.24999999999491
 21
-19.49999999999691
  0
ARC
  5
156
100
AcDbEntity
  8
0
  6
CONTINUOUS
 62
    7
370
   -1
100
AcDbCircle
 10
33.74999999999491
 20
-19.49999999999682
 40
0.5
100
AcDbArc
 50
359.9999999999845
 51
89.99999999998697
  0
ARC
  5
157
100
AcDbEntity
  8
0
  6
CONTINUOUS
 62
    7
370
   -1
100
AcDbCircle
 10
45.0000000000002
 20
0
 40
6.25
100
AcDbArc
 50
244.471220634474
 51
269.999999999987
  0
ARC
  5
158
100
AcDbEntity
  8
0
  6
CONTINUOUS
 62
    7
370
   -1
100
AcDbCircle
 10
45.0000000000002
 20
0
 40
6.25
100
AcDbArc
 50
154.4712206345056
 51
205.5287793654936
  0
LINE
  5
159
100
AcDbEntity
  8
0
  6
CONTINUOUS
 62
    7
370
   -1
100
AcDbLine
 10
40.87568484035759
 20
-8.299999999998803
 11
37.69999999999792
 21
-8.299999999997922
  0
LINE
  5
15A
100
AcDbEntity
  8
0
  6
CONTINUOUS
 62
    7
370
   -1
100
AcDbLine
 10
36.69999999999902
 20
-4.124315159638015
 11
36.6999999999982
 21
-7.299999999997595
  0
ARC
  5
15B
100
AcDbEntity
  8
0
  6
CONTINUOUS
 62
    7
370
   -1
100
AcDbCircle
 10
37.6999999999982
 20
-7.299999999997922
 40
1
100
AcDbArc
 50
179.9999999999837
 51
269.999999999987
  0
ARC
  5
15C
100
AcDbEntity
  8
0
  6
CONTINUOUS
 62
    7
370
   -1
100
AcDbCircle
 10
38.57062139468141
 20
-3.070621394680003
 40
0.8749999999999859
100
AcDbArc
 50
221.9908496066335
 51
25.52877936548999
  0
ARC
  5
15D
100
AcDbEntity
  8
0
  6
CONTINUOUS
 62
    7
370
   -1
100
AcDbCircle
 10
41.92937860531659
 20
-6.429378605317097
 40
0.8749999999999575
100
AcDbArc
 50
64.47122063447397
 51
228.0091503933255
  0
ARC
  5
15E
100
AcDbEntity
  8
0
  6
CONTINUOUS
 62
    7
370
   -1
100
AcDbCircle
 10
37.39999999999893
 20
-4.124315159638214
 40
0.7
100
AcDbArc
 50
41.99084960663351
 51
179.9999999999837
  0
ARC
  5
15F
100
AcDbEntity
  8
0
  6
CONTINUOUS
 62
    7
370
   -1
100
AcDbCircle
 10
40.87568484035768
 20
-7.5999999999988
 40
0.7
100
AcDbArc
 50
269.999999999987
 51
48.00915039332551
  0
ARC
  5
160
100
AcDbEntity
  8
0
  6
CONTINUOUS
 62
    7
370
   -1
100
AcDbCircle
 10
45.00000000000002
 20
0
 40
6.25
100
AcDbArc
 50
269.999999999987
 51
295.5287793654973
  0
ARC
  5
161
100
AcDbEntity
  8
0
  6
CONTINUOUS
 62
    7
370
   -1
100
AcDbCircle
 10
45.00000000000002
 20
0
 40
6.25
100
AcDbArc
 50
334.4712206344758
 51
25.52877936546376
  0
LINE
  5
162
100
AcDbEntity
  8
0
  6
CONTINUOUS
 62
    7
370
   -1
100
AcDbLine
 10
49.12431515963851
 20
-8.30000000000102
 11
52.29999999999811
 21
-8.300000000001816
  0
LINE
  5
163
100
AcDbEntity
  8
0
  6
CONTINUOUS
 62
    7
370
   -1
100
AcDbLine
 10
53.2999999999991
 20
-4.124315159642421
 11
53.29999999999831
 21
-7.300000000002
  0
ARC
  5
164
100
AcDbEntity
  8
0
  6
CONTINUOUS
 62
    7
370
   -1
100
AcDbCircle
 10
52.2999999999983
 20
-7.300000000001816
 40
1
100
AcDbArc
 50
269.999999999987
 51
359.9999999999853
  0
ARC
  5
165
100
AcDbEntity
  8
0
  6
CONTINUOUS
 62
    7
370
   -1
100
AcDbCircle
 10
51.42937860531739
 20
-3.070621394683428
 40
0.8749999999999859
100
AcDbArc
 50
154.4712206344801
 51
318.0091503933371
  0
ARC
  5
166
100
AcDbEntity
  8
0
  6
CONTINUOUS
 62
    7
370
   -1
100
AcDbCircle
 10
48.07062139468027
 20
-6.429378605318717
 40
0.8749999999999575
100
AcDbArc
 50
311.9908496066399
 51
115.5287793654972
  0
ARC
  5
167
100
AcDbEntity
  8
0
  6
CONTINUOUS
 62
    7
370
   -1
100
AcDbCircle
 10
52.59999999999911
 20
-4.124315159642222
 40
0.7
100
AcDbArc
 50
359.9999999999853
 51
138.009150393337
  0
ARC
  5
168
100
AcDbEntity
  8
0
  6
CONTINUOUS
 62
    7
370
   -1
100
AcDbCircle
 10
49.12431515963863
 20
-7.600000000001017
 40
0.7
100
AcDbArc
 50
131.9908496066398
 51
269.999999999987
  0
LINE
  5
169
100
AcDbEntity
  8
0
  6
CONTINUOUS
 62
    7
370
   -1
100
AcDbLine
 10
34.99999999999679
 20
-12.47487373415011
 11
37.47487373415052
 21
-9.999999999997812
  0
LINE
  5
16A
100
AcDbEntity
  8
0
  6
CONTINUOUS
 62
    7
370
   -1
100
AcDbLine
 10
33.7928932188108
 20
-10.85355339059001
 11
34.9999999999977
 21
-9.64644660940381
  0
LINE
  5
16B
100
AcDbEntity
  8
0
  6
CONTINUOUS
 62
    7
370
   -1
100
AcDbLine
 10
-17.7000076499902
 20
10.00000000001428
 11
-12.4748813841431
 21
10.00000000001277
  0
LINE
  5
16C
100
AcDbEntity
  8
0
  6
CONTINUOUS
 62
    7
370
   -1
100
AcDbLine
 10
-17.70000764999081
 20
8.200000000014271
 11
-17.3000076499904
 21
8.200000000014185
  0
LINE
  5
16D
100
AcDbEntity
  8
0
  6
CONTINUOUS
 62
    7
370
   -1
100
AcDbLine
 10
-22.2000076499917
 20
5.000000000015575
 11
-17.3000076499916
 21
5.000000000014182
  0
ARC
  5
16E
100
AcDbEntity
  8
0
  6
CONTINUOUS
 62
    7
370
   -1
100
AcDbCircle
 10
-22.20000764999161
 20
5.300000000015572
 40
0.3
100
AcDbArc
 50
179.9999999999837
 51
269.9999999999838
  0
LINE
  5
16F
100
AcDbEntity
  8
0
  6
CONTINUOUS
 62
    7
370
   -1
100
AcDbLine
 10
4.999992350013087
 20
22.20000000000779
 11
4.999992350011609
 21
17.3000000000079
  0
ARC
  5
170
100
AcDbEntity
  8
0
  6
CONTINUOUS
 62
    7
370
   -1
100
AcDbCircle
 10
5.299992350011592
 20
17.30000000000778
 40
0.3
100
AcDbArc
 50
179.9999999999837
 51
269.9999999999838
  0
LINE
  5
171
100
AcDbEntity
  8
0
  6
CONTINUOUS
 62
    7
370
   -1
100
AcDbLine
 10
-5.000007649986699
 20
22.20000000001069
 11
-5.000007649988191
 21
17.30000000001057
  0
ARC
  5
172
100
AcDbEntity
  8
0
  6
CONTINUOUS
 62
    7
370
   -1
100
AcDbCircle
 10
-5.300007649988089
 20
17.30000000001068
 40
0.3
100
AcDbArc
 50
269.9999999999838
 51
359.9999999999837
  0
LINE
  5
173
100
AcDbEntity
  8
0
  6
CONTINUOUS
 62
    7
370
   -1
100
AcDbLine
 10
9.999992350011809
 20
17.70000000000648
 11
9.999992350010388
 21
12.4748737341594
  0
LINE
  5
174
100
AcDbEntity
  8
0
  6
CONTINUOUS
 62
    7
370
   -1
100
AcDbLine
 10
11.49999235001209
 20
19.00000000000598
 11
11.49999235000999
 21
11.56066017178578
  0
ARC
  5
175
100
AcDbEntity
  8
0
  6
CONTINUOUS
 62
    7
370
   -1
100
AcDbCircle
 10
10.49999235000999
 20
11.56066017178598
 40
1
100
AcDbArc
 50
314.9999999999839
 51
359.9999999999837
  0
ARC
  5
176
100
AcDbEntity
  8
0
  6
CONTINUOUS
 62
    7
370
   -1
100
AcDbCircle
 10
9.699992350011909
 20
17.70000000000648
 40
0.3
100
AcDbArc
 50
359.9999999999837
 51
89.99999999998371
  0
LINE
  5
177
100
AcDbEntity
  8
0
  6
CONTINUOUS
 62
    7
370
   -1
100
AcDbLine
 10
8.199992350011909
 20
17.70000000000699
 11
8.199992350011684
 21
17.3000000000069
  0
ARC
  5
178
100
AcDbEntity
  8
0
  6
CONTINUOUS
 62
    7
370
   -1
100
AcDbCircle
 10
7.8999923500117
 20
17.30000000000699
 40
0.3
100
AcDbArc
 50
269.9999999999838
 51
359.9999999999837
  0
LINE
  5
179
100
AcDbEntity
  8
0
  6
CONTINUOUS
 62
    7
370
   -1
100
AcDbLine
 10
-10.00000764998819
 20
17.70000000001199
 11
-10.0000076499896
 21
12.47487373416497
  0
LINE
  5
17A
100
AcDbEntity
  8
0
  6
CONTINUOUS
 62
    7
370
   -1
100
AcDbLine
 10
-8.200007649988194
 20
17.70000000001148
 11
-8.200007649988306
 21
17.30000000001148
  0
ARC
  5
17B
100
AcDbEntity
  8
0
  6
CONTINUOUS
 62
    7
370
   -1
100
AcDbCircle
 10
-8.500007649988191
 20
17.70000000001157
 40
0.3
100
AcDbArc
 50
359.9999999999837
 51
89.99999999998371
  0
LINE
  5
17C
100
AcDbEntity
  8
0
  6
CONTINUOUS
 62
    7
370
   -1
100
AcDbLine
 10
-22.50000764999149
 20
5.300000000015685
 11
-22.50000764998759
 21
19.50000000001567
  0
LINE
  5
17D
100
AcDbEntity
  8
0
  6
CONTINUOUS
 62
    7
370
   -1
100
AcDbLine
 10
-17.00000764999149
 20
5.30000000001398
 11
-17.00000764999049
 21
7.900000000014003
  0
ARC
  5
17E
100
AcDbEntity
  8
0
  6
CONTINUOUS
 62
    7
370
   -1
100
AcDbCircle
 10
-17.3000076499905
 20
7.900000000014173
 40
0.3
100
AcDbArc
 50
359.9999999999837
 51
89.99999999998371
  0
LINE
  5
17F
100
AcDbEntity
  8
0
  6
CONTINUOUS
 62
    7
370
   -1
100
AcDbLine
 10
9.999992350006693
 20
6.3807e-12
 11
9.999992350009506
 21
9.646446609413189
  0
ARC
  5
180
100
AcDbEntity
  8
0
  6
CONTINUOUS
 62
    7
370
   -1
100
AcDbCircle
 10
-17.30000764999148
 20
5.300000000014179
 40
0.3
100
AcDbArc
 50
269.9999999999838
 51
359.9999999999837
  0
LINE
  5
181
100
AcDbEntity
  8
0
  6
CONTINUOUS
 62
    7
370
   -1
100
AcDbLine
 10
39.70000000000041
 20
22.499999999998
 11
5.299992350013212
 21
22.5000000000078
  0
LINE
  5
182
100
AcDbEntity
  8
0
  6
CONTINUOUS
 62
    7
370
   -1
100
AcDbLine
 10
11.49999235001209
 20
19.00000000000598
 11
11.24999235001218
 21
19.00000000000607
  0
LINE
  5
183
100
AcDbEntity
  8
0
  6
CONTINUOUS
 62
    7
370
   -1
100
AcDbLine
 10
33.75000000000051
 20
20.49999999999967
 11
11.24999235001252
 21
20.50000000000607
  0
ARC
  5
184
100
AcDbEntity
  8
0
  6
CONTINUOUS
 62
    7
370
   -1
100
AcDbCircle
 10
11.2499923500124
 20
20.00000000000607
 40
0.5
100
AcDbArc
 50
89.99999999998371
 51
179.999999999987
  0
LINE
  5
185
100
AcDbEntity
  8
0
  6
CONTINUOUS
 62
    7
370
   -1
100
AcDbLine
 10
7.899992350011586
 20
17.000000000007
 11
5.299992350011507
 21
17.00000000000777
  0
ARC
  5
186
100
AcDbEntity
  8
0
  6
CONTINUOUS
 62
    7
370
   -1
100
AcDbCircle
 10
5.299992350013098
 20
22.20000000000768
 40
0.3
100
AcDbArc
 50
89.99999999998371
 51
179.9999999999837
  0
LINE
  5
187
100
AcDbEntity
  8
0
  6
CONTINUOUS
 62
    7
370
   -1
100
AcDbLine
 10
-5.300007649986611
 20
22.50000000001079
 11
-19.5000076499868
 21
22.50000000001479
  0
LINE
  5
188
100
AcDbEntity
  8
0
  6
CONTINUOUS
 62
    7
370
   -1
100
AcDbLine
 10
-5.300007649988188
 20
17.00000000001078
 11
-7.900007649988395
 21
17.00000000001146
  0
ARC
  5
189
100
AcDbEntity
  8
0
  6
CONTINUOUS
 62
    7
370
   -1
100
AcDbCircle
 10
-7.900007649988395
 20
17.30000000001148
 40
0.3
100
AcDbArc
 50
179.9999999999837
 51
269.9999999999838
  0
ARC
  5
18A
100
AcDbEntity
  8
0
  6
CONTINUOUS
 62
    7
370
   -1
100
AcDbCircle
 10
-5.300007649986696
 20
22.2000000000108
 40
0.3
100
AcDbArc
 50
359.9999999999837
 51
89.99999999998371
  0
ARC
  5
18B
100
AcDbEntity
  8
0
  6
CONTINUOUS
 62
    7
370
   -1
100
AcDbCircle
 10
-19.50000764998759
 20
19.50000000001479
 40
3
100
AcDbArc
 50
89.99999999998371
 51
179.9999999999837
  0
LINE
  5
18C
100
AcDbEntity
  8
0
  6
CONTINUOUS
 62
    7
370
   -1
100
AcDbLine
 10
-9.700007649988095
 20
18.00000000001189
 11
-8.500007649988007
 21
18.00000000001158
  0
LINE
  5
18D
100
AcDbEntity
  8
0
  6
CONTINUOUS
 62
    7
370
   -1
100
AcDbLine
 10
8.499992350012008
 20
18.000000000007
 11
9.699992350011996
 21
18.00000000000658
  0
ARC
  5
18E
100
AcDbEntity
  8
0
  6
CONTINUOUS
 62
    7
370
   -1
100
AcDbCircle
 10
-9.700007649987995
 20
17.70000000001199
 40
0.3
100
AcDbArc
 50
90.00000000002925
 51
179.9999999999837
  0
ARC
  5
18F
100
AcDbEntity
  8
0
  6
CONTINUOUS
 62
    7
370
   -1
100
AcDbCircle
 10
8.499992350011693
 20
17.70000000000679
 40
0.3
100
AcDbArc
 50
89.99999999996417
 51
179.9999999999772
  0
LINE
  5
190
100
AcDbEntity
  8
0
  6
CONTINUOUS
 62
    7
370
   -1
100
AcDbLine
 10
-18.00000764999059
 20
8.500000000014396
 11
-18.00000764999031
 21
9.700000000014384
  0
ARC
  5
191
100
AcDbEntity
  8
0
  6
CONTINUOUS
 62
    7
370
   -1
100
AcDbCircle
 10
-17.70000764999059
 20
8.500000000014081
 40
0.3
100
AcDbArc
 50
179.9999999999511
 51
269.9999999999838
  0
ARC
  5
192
100
AcDbEntity
  8
0
  6
CONTINUOUS
 62
    7
370
   -1
100
AcDbCircle
 10
-17.70000764999049
 20
9.700000000014384
 40
0.3
100
AcDbArc
 50
89.99999999993811
 51
180.0000000000228
  0
LINE
  5
193
100
AcDbEntity
  8
0
  6
CONTINUOUS
 62
    7
370
   -1
100
AcDbLine
 10
-18.9000066499874
 20
20.59999800001468
 11
-18.90000664998732
 21
20.80000000001458
  0
LINE
  5
194
100
AcDbEntity
  8
0
  6
CONTINUOUS
 62
    7
370
   -1
100
AcDbLine
 10
-12.47279514034969
 20
11.41213147321859
 11
-12.07910574999
 21
11.01844000001277
  0
LINE
  5
195
100
AcDbEntity
  8
0
  6
CONTINUOUS
 62
    7
370
   -1
100
AcDbLine
 10
-17.69999764998981
 20
11.50000000001428
 11
-12.6849277358544
 21
11.50000000001289
  0
ARC
  5
196
100
AcDbEntity
  8
0
  6
CONTINUOUS
 62
    7
370
   -1
100
AcDbCircle
 10
-12.68492773585448
 20
11.20000000001287
 40
0.3
100
AcDbArc
 50
44.99984843637352
 51
89.99999999998371
  0
LINE
  5
197
100
AcDbEntity
  8
0
  6
CONTINUOUS
 62
    7
370
   -1
100
AcDbLine
 10
-20.59999564998781
 20
18.90001300001508
 11
-20.8000076499878
 21
18.90001300001508
  0
ARC
  5
198
100
AcDbEntity
  8
0
  6
CONTINUOUS
 62
    7
370
   -1
100
AcDbCircle
 10
-20.59999564998781
 20
18.70001300001509
 40
0.2
100
AcDbArc
 50
359.9999999999935
 51
89.99999999998371
  0
LINE
  5
199
100
AcDbEntity
  8
0
  6
CONTINUOUS
 62
    7
370
   -1
100
AcDbLine
 10
-17.70000664998741
 20
20.5999980000144
 11
-17.70000664998731
 21
20.8000000000143
  0
ARC
  5
19A
100
AcDbEntity
  8
0
  6
CONTINUOUS
 62
    7
370
   -1
100
AcDbCircle
 10
-17.9000066499874
 20
20.59999800001448
 40
0.2
100
AcDbArc
 50
269.9999999999902
 51
359.9999999999837
  0
LINE
  5
19B
100
AcDbEntity
  8
0
  6
CONTINUOUS
 62
    7
370
   -1
100
AcDbLine
 10
-20.5999956499881
 20
17.70001400001509
 11
-20.80000764998819
 21
17.70001400001509
  0
ARC
  5
19C
100
AcDbEntity
  8
0
  6
CONTINUOUS
 62
    7
370
   -1
100
AcDbCircle
 10
-20.8000076499883
 20
17.50001400001507
 40
0.2
100
AcDbArc
 50
89.99999999998371
 51
179.9999999999837
  0
LINE
  5
19D
100
AcDbEntity
  8
0
  6
CONTINUOUS
 62
    7
370
   -1
100
AcDbLine
 10
-18.70000664998741
 20
20.39999800001458
 11
-17.90000664998749
 21
20.39999800001449
  0
ARC
  5
19E
100
AcDbEntity
  8
0
  6
CONTINUOUS
 62
    7
370
   -1
100
AcDbCircle
 10
-18.70000664998741
 20
20.5999980000146
 40
0.2
100
AcDbArc
 50
179.9999999999837
 51
269.9999999999838
  0
LINE
  5
19F
100
AcDbEntity
  8
0
  6
CONTINUOUS
 62
    7
370
   -1
100
AcDbLine
 10
-20.5000076499911
 20
7.499998000015082
 11
-19.49999764999111
 21
7.49999800001477
  0
ARC
  5
1A0
100
AcDbEntity
  8
0
  6
CONTINUOUS
 62
    7
370
   -1
100
AcDbCircle
 10
-20.50000764999099
 20
7.999998000015082
 40
0.5
100
AcDbArc
 50
179.9999999999837
 51
269.9999999999838
  0
LINE
  5
1A1
100
AcDbEntity
  8
0
  6
CONTINUOUS
 62
    7
370
   -1
100
AcDbLine
 10
-7.500007649987409
 20
20.50000000001147
 11
-7.50000764998748
 21
19.5000000000113
  0
ARC
  5
1A2
100
AcDbEntity
  8
0
  6
CONTINUOUS
 62
    7
370
   -1
100
AcDbCircle
 10
-8.000007649987481
 20
19.50000000001146
 40
0.5
100
AcDbArc
 50
269.9999999999838
 51
359.9999999999837
  0
LINE
  5
1A3
100
AcDbEntity
  8
0
  6
CONTINUOUS
 62
    7
370
   -1
100
AcDbLine
 10
-18.999997649991
 20
7.999998000014684
 11
-18.9999976499904
 21
10.20000100001458
  0
ARC
  5
1A4
100
AcDbEntity
  8
0
  6
CONTINUOUS
 62
    7
370
   -1
100
AcDbCircle
 10
-19.499997649991
 20
7.99999800001477
 40
0.5
100
AcDbArc
 50
269.9999999999838
 51
359.9999999999837
  0
LINE
  5
1A5
100
AcDbEntity
  8
0
  6
CONTINUOUS
 62
    7
370
   -1
100
AcDbLine
 10
-17.5000066499872
 20
21.00000000001417
 11
-8.000007649987197
 21
21.00000000001147
  0
ARC
  5
1A6
100
AcDbEntity
  8
0
  6
CONTINUOUS
 62
    7
370
   -1
100
AcDbCircle
 10
-8.00000764998741
 20
20.50000000001158
 40
0.5
100
AcDbArc
 50
359.9999999999902
 51
89.99999999998371
  0
ARC
  5
1A7
100
AcDbEntity
  8
0
  6
CONTINUOUS
 62
    7
370
   -1
100
AcDbCircle
 10
-17.50000664998731
 20
20.80000000001418
 40
0.2
100
AcDbArc
 50
89.99999999998371
 51
179.9999999999837
  0
LINE
  5
1A8
100
AcDbEntity
  8
0
  6
CONTINUOUS
 62
    7
370
   -1
100
AcDbLine
 10
-11.50000764998819
 20
17.70000100001247
 11
-11.5000076499896
 21
12.68492676872499
  0
ARC
  5
1A9
100
AcDbEntity
  8
0
  6
CONTINUOUS
 62
    7
370
   -1
100
AcDbCircle
 10
-11.2000076499896
 20
12.6849267687249
 40
0.3
100
AcDbArc
 50
179.9999999999837
 51
225.0000510965291
  0
LINE
  5
1AA
100
AcDbEntity
  8
0
  6
CONTINUOUS
 62
    7
370
   -1
100
AcDbLine
 10
-20.2000078499876
 20
19.9000090000158
 11
-20.7000064499877
 21
19.90001100001039
  0
ARC
  5
1AB
100
AcDbEntity
  8
0
  6
CONTINUOUS
 62
    7
370
   -1
100
AcDbCircle
 10
-20.20000664998748
 20
20.2000090000134
 40
0.3
100
AcDbArc
 50
269.9997708168663
 51
359.9999999999837
  0
LINE
  5
1AC
100
AcDbEntity
  8
0
  6
CONTINUOUS
 62
    7
370
   -1
100
AcDbLine
 10
-8.000007649987595
 20
19.00000000001141
 11
-10.20000744998791
 21
19.00000000001218
  0
LINE
  5
1AD
100
AcDbEntity
  8
0
  6
CONTINUOUS
 62
    7
370
   -1
100
AcDbLine
 10
-20.39999564998781
 20
18.70001300001509
 11
-20.399995649988
 21
17.90001400001499
  0
ARC
  5
1AE
100
AcDbEntity
  8
0
  6
CONTINUOUS
 62
    7
370
   -1
100
AcDbCircle
 10
-20.599995649988
 20
17.90001400001507
 40
0.2
100
AcDbArc
 50
270.0000000000033
 51
359.9999999999837
  0
LINE
  5
1AF
100
AcDbEntity
  8
0
  6
CONTINUOUS
 62
    7
370
   -1
100
AcDbLine
 10
-21.00000764998831
 20
17.50001400001518
 11
-21.00000764999099
 21
7.999998000015196
  0
LINE
  5
1B0
100
AcDbEntity
  8
0
  6
CONTINUOUS
 62
    7
370
   -1
100
AcDbLine
 10
-19.90000664998749
 20
20.20000900001331
 11
-19.9000066499874
 21
20.7000000000149
  0
LINE
  5
1B1
100
AcDbEntity
  8
0
  6
CONTINUOUS
 62
    7
370
   -1
100
AcDbLine
 10
-21.00000764998769
 20
19.6000110000128
 11
-21.00000764998791
 21
19.10001300001509
  0
ARC
  5
1B2
100
AcDbEntity
  8
0
  6
CONTINUOUS
 62
    7
370
   -1
100
AcDbCircle
 10
-20.8000076499878
 20
19.10001300001509
 40
0.2
100
AcDbArc
 50
179.9999999999837
 51
270.0000000000033
  0
ARC
  5
1B3
100
AcDbEntity
  8
0
  6
CONTINUOUS
 62
    7
370
   -1
100
AcDbCircle
 10
-20.70000764998781
 20
19.6000110000128
 40
0.3
100
AcDbArc
 50
89.99977081686625
 51
179.9999999999837
  0
LINE
  5
1B4
100
AcDbEntity
  8
0
  6
CONTINUOUS
 62
    7
370
   -1
100
AcDbLine
 10
-19.6000066499873
 20
21.00000000001479
 11
-19.10000664998731
 21
21.00000000001468
  0
ARC
  5
1B5
100
AcDbEntity
  8
0
  6
CONTINUOUS
 62
    7
370
   -1
100
AcDbCircle
 10
-19.1000066499874
 20
20.80000000001469
 40
0.2
100
AcDbArc
 50
359.9999999999837
 51
89.99999999998371
  0
ARC
  5
1B6
100
AcDbEntity
  8
0
  6
CONTINUOUS
 62
    7
370
   -1
100
AcDbCircle
 10
-19.60000664998741
 20
20.70000000001478
 40
0.3
100
AcDbArc
 50
89.99999999998371
 51
179.9999999999837
  0
LINE
  5
1B7
100
AcDbEntity
  8
0
  6
CONTINUOUS
 62
    7
370
   -1
100
AcDbLine
 10
-11.41213949516559
 20
12.4727945451891
 11
-11.0196762499897
 21
12.0803320000124
  0
ARC
  5
1B8
100
AcDbEntity
  8
0
  6
CONTINUOUS
 62
    7
370
   -1
100
AcDbCircle
 10
-10.2000074499883
 20
17.70000100001208
 40
1.3
100
AcDbArc
 50
89.99999999998371
 51
179.9999899999827
  0
ARC
  5
1B9
100
AcDbEntity
  8
0
  6
CONTINUOUS
 62
    7
370
   -1
100
AcDbCircle
 10
-17.69999764999019
 20
10.20000100001418
 40
1.3
100
AcDbArc
 50
89.99999999998371
 51
179.9999899999827
  0
ARC
  5
1BA
100
AcDbEntity
  8
0
  6
CONTINUOUS
 62
    7
370
   -1
100
AcDbCircle
 10
-11.55000784998981
 20
11.54999900001259
 40
0.75
100
AcDbArc
 50
224.8702699999952
 51
44.99998999999081
  0
LINE
  5
1BB
100
AcDbEntity
  8
0
  6
CONTINUOUS
 62
    7
370
   -1
100
AcDbLine
 10
-12.4748813841431
 20
10.00000000001277
 11
-9.999984497263474
 21
7.525103113131751
  0
LINE
  5
1BC
100
AcDbEntity
  8
0
  6
CONTINUOUS
 62
    7
370
   -1
100
AcDbLine
 10
-10.0000076499896
 20
12.47487373416497
 11
-7.525154553464878
 21
10.00002063763899
  0
LINE
  5
1BD
100
AcDbEntity
  8
0
  6
CONTINUOUS
 62
    7
370
   -1
100
AcDbLine
 10
10.7499923500124
 20
20.00000000000618
 11
10.74999235001229
 21
19.50000000000618
  0
ARC
  5
1BE
100
AcDbEntity
  8
0
  6
CONTINUOUS
 62
    7
370
   -1
100
AcDbCircle
 10
11.24999235001229
 20
19.50000000000606
 40
0.5
100
AcDbArc
 50
179.9999999999853
 51
269.9999999999838
  0
ARC
  5
1BF
100
AcDbEntity
  8
0
  6
CONTINUOUS
 62
    7
370
   -1
100
AcDbCircle
 10
-7.649993108199999e-06
 20
9.279700000000001e-12
 40
6.25
100
AcDbArc
 50
64.47122063447578
 51
89.99999999998371
  0
LINE
  5
1C0
100
AcDbEntity
  8
0
  6
CONTINUOUS
 62
    7
370
   -1
100
AcDbLine
 10
4.124307509649696
 20
8.300000000008067
 11
7.299992350009318
 21
8.300000000007188
  0
LINE
  5
1C1
100
AcDbEntity
  8
0
  6
CONTINUOUS
 62
    7
370
   -1
100
AcDbLine
 10
8.299992350008182
 20
4.124315159647281
 11
8.299992350009006
 21
7.300000000006903
  0
ARC
  5
1C2
100
AcDbEntity
  8
0
  6
CONTINUOUS
 62
    7
370
   -1
100
AcDbCircle
 10
7.299992350009006
 20
7.300000000007187
 40
1
100
AcDbArc
 50
359.9999999999837
 51
89.99999999998371
  0
ARC
  5
1C3
100
AcDbEntity
  8
0
  6
CONTINUOUS
 62
    7
370
   -1
100
AcDbCircle
 10
6.429370955325794
 20
3.070621394689283
 40
0.8749999999999859
100
AcDbArc
 50
41.99084960663411
 51
205.5287793654878
  0
ARC
  5
1C4
100
AcDbEntity
  8
0
  6
CONTINUOUS
 62
    7
370
   -1
100
AcDbCircle
 10
3.070613744690604
 20
6.429378605326391
 40
0.8749999999999575
100
AcDbArc
 50
244.4712206344722
 51
48.00915039332728
  0
ARC
  5
1C5
100
AcDbEntity
  8
0
  6
CONTINUOUS
 62
    7
370
   -1
100
AcDbCircle
 10
7.599992350008307
 20
4.12431515964748
 40
0.7
100
AcDbArc
 50
221.9908496066341
 51
359.9999999999837
  0
ARC
  5
1C6
100
AcDbEntity
  8
0
  6
CONTINUOUS
 62
    7
370
   -1
100
AcDbCircle
 10
4.124307509649497
 20
7.60000000000808
 40
0.7
100
AcDbArc
 50
89.99999999998371
 51
228.0091503933272
  0
ARC
  5
1C7
100
AcDbEntity
  8
0
  6
CONTINUOUS
 62
    7
370
   -1
100
AcDbCircle
 10
-7.649992809800001e-06
 20
9.279700000000001e-12
 40
6.25
100
AcDbArc
 50
89.99999999998371
 51
115.5287793654954
  0
LINE
  5
1C8
100
AcDbEntity
  8
0
  6
CONTINUOUS
 62
    7
370
   -1
100
AcDbLine
 10
-4.124322809631195
 20
8.300000000010286
 11
-7.300007649990803
 21
8.300000000011082
  0
LINE
  5
1C9
100
AcDbEntity
  8
0
  6
CONTINUOUS
 62
    7
370
   -1
100
AcDbLine
 10
-8.300007649991898
 20
4.1243151596517
 11
-8.300007649990988
 21
7.300000000011394
  0
ARC
  5
1CA
100
AcDbEntity
  8
0
  6
CONTINUOUS
 62
    7
370
   -1
100
AcDbCircle
 10
-7.300007649990988
 20
7.300000000011081
 40
1
100
AcDbArc
 50
89.99999999998371
 51
179.9999999999853
  0
ARC
  5
1CB
100
AcDbEntity
  8
0
  6
CONTINUOUS
 62
    7
370
   -1
100
AcDbCircle
 10
-6.429386255310191
 20
3.070621394692679
 40
0.8749999999999859
100
AcDbArc
 50
334.4712206344812
 51
138.0091503933364
  0
ARC
  5
1CC
100
AcDbEntity
  8
0
  6
CONTINUOUS
 62
    7
370
   -1
100
AcDbCircle
 10
-3.070629044673097
 20
6.429378605327983
 40
0.8749999999999575
100
AcDbArc
 50
131.9908496066416
 51
295.5287793654954
  0
ARC
  5
1CD
100
AcDbEntity
  8
0
  6
CONTINUOUS
 62
    7
370
   -1
100
AcDbCircle
 10
-7.600007649991979
 20
4.124315159651487
 40
0.7
100
AcDbArc
 50
179.9999999999853
 51
318.0091503933359
  0
ARC
  5
1CE
100
AcDbEntity
  8
0
  6
CONTINUOUS
 62
    7
370
   -1
100
AcDbCircle
 10
-4.124322809631408
 20
7.600000000010268
 40
0.7
100
AcDbArc
 50
311.9908496066416
 51
89.99999999998371
  0
LINE
  5
1CF
100
AcDbEntity
  8
0
  6
CONTINUOUS
 62
    7
370
   -1
100
AcDbLine
 10
9.999992350010388
 20
12.4748737341594
 11
7.525118413091652
 21
9.999999797241975
  0
LINE
  5
1D0
100
AcDbEntity
  8
0
  6
CONTINUOUS
 62
    7
370
   -1
100
AcDbLine
 10
11.2070991311964
 20
10.85355339059929
 11
9.999992350009506
 21
9.646446609413189
  0
LINE
  5
1D1
100
AcDbEntity
  8
0
  6
CONTINUOUS
 62
    7
370
   -1
100
AcDbLine
 10
62.7000000000003
 20
10.00000000000288
 11
57.47487373415319
 21
10.00000000000288
  0
LINE
  5
1D2
100
AcDbEntity
  8
0
  6
CONTINUOUS
 62
    7
370
   -1
100
AcDbLine
 10
62.7000000000003
 20
8.200000000002902
 11
62.30000000000001
 21
8.200000000002902
  0
LINE
  5
1D3
100
AcDbEntity
  8
0
  6
CONTINUOUS
 62
    7
370
   -1
100
AcDbLine
 10
67.2000000000003
 20
5.000000000002899
 11
62.30000000000021
 21
5.000000000002899
  0
ARC
  5
1D4
100
AcDbEntity
  8
0
  6
CONTINUOUS
 62
    7
370
   -1
100
AcDbCircle
 10
67.2000000000003
 20
5.300000000002896
 40
0.3
100
AcDbArc
 50
269.9999999999968
 51
0
  0
LINE
  5
1D5
100
AcDbEntity
  8
0
  6
CONTINUOUS
 62
    7
370
   -1
100
AcDbLine
 10
40.00000000000028
 20
22.2000000000029
 11
40.00000000000051
 21
17.30000000000298
  0
ARC
  5
1D6
100
AcDbEntity
  8
0
  6
CONTINUOUS
 62
    7
370
   -1
100
AcDbCircle
 10
39.7000000000005
 20
17.30000000000298
 40
0.3
100
AcDbArc
 50
269.9999999999968
 51
0
  0
LINE
  5
1D7
100
AcDbEntity
  8
0
  6
CONTINUOUS
 62
    7
370
   -1
100
AcDbLine
 10
50.0000000000002
 20
22.2000000000029
 11
50.0000000000002
 21
17.30000000000278
  0
ARC
  5
1D8
100
AcDbEntity
  8
0
  6
CONTINUOUS
 62
    7
370
   -1
100
AcDbCircle
 10
50.30000000000021
 20
17.30000000000278
 40
0.3
100
AcDbArc
 50
180
 51
269.9999999999968
  0
LINE
  5
1D9
100
AcDbEntity
  8
0
  6
CONTINUOUS
 62
    7
370
   -1
100
AcDbLine
 10
35.00000000000028
 20
17.70000000000299
 11
35.00000000000028
 21
12.47487373415579
  0
LINE
  5
1DA
100
AcDbEntity
  8
0
  6
CONTINUOUS
 62
    7
370
   -1
100
AcDbLine
 10
33.50000000000051
 20
19.00000000000288
 11
33.50000000000051
 21
11.56066017178268
  0
ARC
  5
1DB
100
AcDbEntity
  8
0
  6
CONTINUOUS
 62
    7
370
   -1
100
AcDbCircle
 10
34.50000000000051
 20
11.56066017178268
 40
1
100
AcDbArc
 50
180
 51
225
  0
ARC
  5
1DC
100
AcDbEntity
  8
0
  6
CONTINUOUS
 62
    7
370
   -1
100
AcDbCircle
 10
35.3000000000003
 20
17.70000000000299
 40
0.3
100
AcDbArc
 50
89.99999999999675
 51
180
  0
LINE
  5
1DD
100
AcDbEntity
  8
0
  6
CONTINUOUS
 62
    7
370
   -1
100
AcDbLine
 10
36.8000000000003
 20
17.7000000000029
 11
36.80000000000041
 21
17.30000000000289
  0
ARC
  5
1DE
100
AcDbEntity
  8
0
  6
CONTINUOUS
 62
    7
370
   -1
100
AcDbCircle
 10
37.10000000000042
 20
17.30000000000289
 40
0.3
100
AcDbArc
 50
180
 51
269.9999999999968
  0
LINE
  5
1DF
100
AcDbEntity
  8
0
  6
CONTINUOUS
 62
    7
370
   -1
100
AcDbLine
 10
55.00000000000028
 20
17.70000000000279
 11
55.00000000000028
 21
12.4748737341559
  0
LINE
  5
1E0
100
AcDbEntity
  8
0
  6
CONTINUOUS
 62
    7
370
   -1
100
AcDbLine
 10
53.20000000000042
 20
17.70000000000279
 11
53.20000000000042
 21
17.30000000000289
  0
ARC
  5
1E1
100
AcDbEntity
  8
0
  6
CONTINUOUS
 62
    7
370
   -1
100
AcDbCircle
 10
53.50000000000028
 20
17.70000000000279
 40
0.3
100
AcDbArc
 50
89.99999999999675
 51
180
  0
LINE
  5
1E2
100
AcDbEntity
  8
0
  6
CONTINUOUS
 62
    7
370
   -1
100
AcDbLine
 10
67.50000000000028
 20
5.300000000002896
 11
67.50000000000028
 21
19.50000000000288
  0
LINE
  5
1E3
100
AcDbEntity
  8
0
  6
CONTINUOUS
 62
    7
370
   -1
100
AcDbLine
 10
62.0000000000002
 20
5.300000000002896
 11
62.00000000000009
 21
7.90000000000289
  0
ARC
  5
1E4
100
AcDbEntity
  8
0
  6
CONTINUOUS
 62
    7
370
   -1
100
AcDbCircle
 10
62.30000000000001
 20
7.90000000000289
 40
0.3
100
AcDbArc
 50
89.99999999999675
 51
180
  0
LINE
  5
1E5
100
AcDbEntity
  8
0
  6
CONTINUOUS
 62
    7
370
   -1
100
AcDbLine
 10
35.00000000000051
 20
2.899e-12
 11
35.00000000000051
 21
9.64644660940958
  0
ARC
  5
1E6
100
AcDbEntity
  8
0
  6
CONTINUOUS
 62
    7
370
   -1
100
AcDbCircle
 10
62.30000000000021
 20
5.300000000002896
 40
0.3
100
AcDbArc
 50
180
 51
269.9999999999968
  0
LINE
  5
1E7
100
AcDbEntity
  8
0
  6
CONTINUOUS
 62
    7
370
   -1
100
AcDbLine
 10
33.50000000000051
 20
19.00000000000288
 11
33.75000000000043
 21
19.00000000000288
  0
ARC
  5
1E8
100
AcDbEntity
  8
0
  6
CONTINUOUS
 62
    7
370
   -1
100
AcDbCircle
 10
33.75000000000051
 20
20.00000000000289
 40
0.5
100
AcDbArc
 50
359.9999999999968
 51
89.99999999999675
  0
LINE
  5
1E9
100
AcDbEntity
  8
0
  6
CONTINUOUS
 62
    7
370
   -1
100
AcDbLine
 10
37.10000000000042
 20
17.00000000000288
 11
39.7000000000005
 21
17.00000000000288
  0
ARC
  5
1EA
100
AcDbEntity
  8
0
  6
CONTINUOUS
 62
    7
370
   -1
100
AcDbCircle
 10
39.70000000000041
 20
22.2000000000029
 40
0.3
100
AcDbArc
 50
0
 51
89.99999999999675
  0
LINE
  5
1EB
100
AcDbEntity
  8
0
  6
CONTINUOUS
 62
    7
370
   -1
100
AcDbLine
 10
50.30000000000021
 20
22.50000000000289
 11
64.50000000000028
 21
22.50000000000289
  0
LINE
  5
1EC
100
AcDbEntity
  8
0
  6
CONTINUOUS
 62
    7
370
   -1
100
AcDbLine
 10
50.30000000000021
 20
17.00000000000288
 11
52.9000000000004
 21
17.00000000000288
  0
ARC
  5
1ED
100
AcDbEntity
  8
0
  6
CONTINUOUS
 62
    7
370
   -1
100
AcDbCircle
 10
52.9000000000004
 20
17.30000000000289
 40
0.3
100
AcDbArc
 50
269.9999999999968
 51
0
  0
ARC
  5
1EE
100
AcDbEntity
  8
0
  6
CONTINUOUS
 62
    7
370
   -1
100
AcDbCircle
 10
50.30000000000021
 20
22.2000000000029
 40
0.3
100
AcDbArc
 50
89.99999999999675
 51
180
  0
ARC
  5
1EF
100
AcDbEntity
  8
0
  6
CONTINUOUS
 62
    7
370
   -1
100
AcDbCircle
 10
64.50000000000028
 20
19.50000000000288
 40
3
100
AcDbArc
 50
0
 51
89.99999999999675
  0
LINE
  5
1F0
100
AcDbEntity
  8
0
  6
CONTINUOUS
 62
    7
370
   -1
100
AcDbLine
 10
54.70000000000041
 20
18.0000000000028
 11
53.50000000000028
 21
18.0000000000028
  0
LINE
  5
1F1
100
AcDbEntity
  8
0
  6
CONTINUOUS
 62
    7
370
   -1
100
AcDbLine
 10
36.50000000000029
 20
18.000000000003
 11
35.3000000000003
 21
18.000000000003
  0
ARC
  5
1F2
100
AcDbEntity
  8
0
  6
CONTINUOUS
 62
    7
370
   -1
100
AcDbCircle
 10
54.70000000000021
 20
17.70000000000279
 40
0.3
100
AcDbArc
 50
0
 51
89.99999999995114
  0
ARC
  5
1F3
100
AcDbEntity
  8
0
  6
CONTINUOUS
 62
    7
370
   -1
100
AcDbCircle
 10
36.50000000000051
 20
17.7000000000029
 40
0.3
100
AcDbArc
 50
6.513799999999999e-12
 51
90.00000000001627
  0
LINE
  5
1F4
100
AcDbEntity
  8
0
  6
CONTINUOUS
 62
    7
370
   -1
100
AcDbLine
 10
63.00000000000029
 20
8.500000000002885
 11
63.00000000000029
 21
9.700000000002902
  0
ARC
  5
1F5
100
AcDbEntity
  8
0
  6
CONTINUOUS
 62
    7
370
   -1
100
AcDbCircle
 10
62.7000000000003
 20
8.500000000002686
 40
0.3
100
AcDbArc
 50
269.9999999999968
 51
3.25689e-11
  0
ARC
  5
1F6
100
AcDbEntity
  8
0
  6
CONTINUOUS
 62
    7
370
   -1
100
AcDbCircle
 10
62.70000000000059
 20
9.700000000002987
 40
0.3
100
AcDbArc
 50
359.9999999999609
 51
90.00000000004233
  0
LINE
  5
1F7
100
AcDbEntity
  8
0
  6
CONTINUOUS
 62
    7
370
   -1
100
AcDbLine
 10
63.89999900000041
 20
20.59999800000289
 11
63.89999900000041
 21
20.8000000000029
  0
LINE
  5
1F8
100
AcDbEntity
  8
0
  6
CONTINUOUS
 62
    7
370
   -1
100
AcDbLine
 10
57.4727874903601
 20
11.41213147320856
 11
57.07909810000041
 21
11.01844000000288
  0
LINE
  5
1F9
100
AcDbEntity
  8
0
  6
CONTINUOUS
 62
    7
370
   -1
100
AcDbLine
 10
62.6999900000003
 20
11.50000000000288
 11
57.68492008586491
 21
11.50000000000288
  0
ARC
  5
1FA
100
AcDbEntity
  8
0
  6
CONTINUOUS
 62
    7
370
   -1
100
AcDbCircle
 10
57.68492008586491
 20
11.2000000000029
 40
0.3
100
AcDbArc
 50
89.99999999999675
 51
135.0001515636103
  0
LINE
  5
1FB
100
AcDbEntity
  8
0
  6
CONTINUOUS
 62
    7
370
   -1
100
AcDbLine
 10
65.59998800000028
 20
18.90001300000288
 11
65.8000000000003
 21
18.9000130000028
  0
ARC
  5
1FC
100
AcDbEntity
  8
0
  6
CONTINUOUS
 62
    7
370
   -1
100
AcDbCircle
 10
65.59998800000028
 20
18.70001300000289
 40
0.2
100
AcDbArc
 50
89.99999999999675
 51
179.9999999999902
  0
LINE
  5
1FD
100
AcDbEntity
  8
0
  6
CONTINUOUS
 62
    7
370
   -1
100
AcDbLine
 10
62.69999900000039
 20
20.599998000003
 11
62.69999900000039
 21
20.8000000000029
  0
ARC
  5
1FE
100
AcDbEntity
  8
0
  6
CONTINUOUS
 62
    7
370
   -1
100
AcDbCircle
 10
62.8999990000004
 20
20.599998000003
 40
0.2
100
AcDbArc
 50
180
 51
269.9999999999902
  0
LINE
  5
1FF
100
AcDbEntity
  8
0
  6
CONTINUOUS
 62
    7
370
   -1
100
AcDbLine
 10
65.59998800000028
 20
17.70001400000278
 11
65.8000000000004
 21
17.70001400000278
  0
ARC
  5
200
100
AcDbEntity
  8
0
  6
CONTINUOUS
 62
    7
370
   -1
100
AcDbCircle
 10
65.8000000000004
 20
17.50001400000279
 40
0.2
100
AcDbArc
 50
0
 51
89.99999999999675
  0
LINE
  5
201
100
AcDbEntity
  8
0
  6
CONTINUOUS
 62
    7
370
   -1
100
AcDbLine
 10
63.69999900000038
 20
20.39999800000289
 11
62.8999990000004
 21
20.39999800000298
  0
ARC
  5
202
100
AcDbEntity
  8
0
  6
CONTINUOUS
 62
    7
370
   -1
100
AcDbCircle
 10
63.69999900000038
 20
20.59999800000289
 40
0.2
100
AcDbArc
 50
269.9999999999968
 51
0
  0
LINE
  5
203
100
AcDbEntity
  8
0
  6
CONTINUOUS
 62
    7
370
   -1
100
AcDbLine
 10
65.50000000000051
 20
7.499998000002889
 11
64.49999000000051
 21
7.499998000002889
  0
ARC
  5
204
100
AcDbEntity
  8
0
  6
CONTINUOUS
 62
    7
370
   -1
100
AcDbCircle
 10
65.50000000000038
 20
7.999998000002889
 40
0.5
100
AcDbArc
 50
269.9999999999968
 51
0
  0
LINE
  5
205
100
AcDbEntity
  8
0
  6
CONTINUOUS
 62
    7
370
   -1
100
AcDbLine
 10
52.50000000000028
 20
20.50000000000288
 11
52.5000000000002
 21
19.5000000000028
  0
ARC
  5
206
100
AcDbEntity
  8
0
  6
CONTINUOUS
 62
    7
370
   -1
100
AcDbCircle
 10
53.0000000000002
 20
19.5000000000028
 40
0.5
100
AcDbArc
 50
180
 51
269.9999999999968
  0
LINE
  5
207
100
AcDbEntity
  8
0
  6
CONTINUOUS
 62
    7
370
   -1
100
AcDbLine
 10
63.9999900000005
 20
7.999998000002889
 11
63.9999900000005
 21
10.20000100000278
  0
ARC
  5
208
100
AcDbEntity
  8
0
  6
CONTINUOUS
 62
    7
370
   -1
100
AcDbCircle
 10
64.49999000000051
 20
7.999998000002889
 40
0.5
100
AcDbArc
 50
180
 51
269.9999999999968
  0
LINE
  5
209
100
AcDbEntity
  8
0
  6
CONTINUOUS
 62
    7
370
   -1
100
AcDbLine
 10
62.4999990000004
 20
21.00000000000289
 11
53.0000000000002
 21
21.00000000000289
  0
ARC
  5
20A
100
AcDbEntity
  8
0
  6
CONTINUOUS
 62
    7
370
   -1
100
AcDbCircle
 10
53.0000000000002
 20
20.50000000000288
 40
0.5
100
AcDbArc
 50
89.99999999999675
 51
179.9999999999935
  0
ARC
  5
20B
100
AcDbEntity
  8
0
  6
CONTINUOUS
 62
    7
370
   -1
100
AcDbCircle
 10
62.4999990000004
 20
20.8000000000029
 40
0.2
100
AcDbArc
 50
0
 51
89.99999999999675
  0
LINE
  5
20C
100
AcDbEntity
  8
0
  6
CONTINUOUS
 62
    7
370
   -1
100
AcDbLine
 10
56.50000000000028
 20
17.70000100000278
 11
56.50000000000028
 21
12.68492676871538
  0
ARC
  5
20D
100
AcDbEntity
  8
0
  6
CONTINUOUS
 62
    7
370
   -1
100
AcDbCircle
 10
56.20000000000041
 20
12.68492676871538
 40
0.3
100
AcDbArc
 50
314.9999489034571
 51
0
  0
LINE
  5
20E
100
AcDbEntity
  8
0
  6
CONTINUOUS
 62
    7
370
   -1
100
AcDbLine
 10
65.2000002000004
 20
19.90000900000358
 11
65.69999880000051
 21
19.90001099999808
  0
ARC
  5
20F
100
AcDbEntity
  8
0
  6
CONTINUOUS
 62
    7
370
   -1
100
AcDbCircle
 10
65.19999900000022
 20
20.20000900000118
 40
0.3
100
AcDbArc
 50
180
 51
270.0002291831142
  0
LINE
  5
210
100
AcDbEntity
  8
0
  6
CONTINUOUS
 62
    7
370
   -1
100
AcDbLine
 10
53.0000000000002
 20
19.0000000000028
 11
55.1999998000004
 21
19.00000000000288
  0
LINE
  5
211
100
AcDbEntity
  8
0
  6
CONTINUOUS
 62
    7
370
   -1
100
AcDbLine
 10
65.39998800000021
 20
18.70001300000289
 11
65.39998800000021
 21
17.9000140000028
  0
ARC
  5
212
100
AcDbEntity
  8
0
  6
CONTINUOUS
 62
    7
370
   -1
100
AcDbCircle
 10
65.59998800000028
 20
17.9000140000028
 40
0.2
100
AcDbArc
 50
180
 51
269.9999999999772
  0
LINE
  5
213
100
AcDbEntity
  8
0
  6
CONTINUOUS
 62
    7
370
   -1
100
AcDbLine
 10
66.00000000000051
 20
17.50001400000279
 11
66.00000000000051
 21
7.999998000002889
  0
LINE
  5
214
100
AcDbEntity
  8
0
  6
CONTINUOUS
 62
    7
370
   -1
100
AcDbLine
 10
64.89999900000041
 20
20.20000900000118
 11
64.89999900000041
 21
20.7000000000029
  0
LINE
  5
215
100
AcDbEntity
  8
0
  6
CONTINUOUS
 62
    7
370
   -1
100
AcDbLine
 10
66.00000000000051
 20
19.60001100000049
 11
66.00000000000051
 21
19.10001300000267
  0
ARC
  5
216
100
AcDbEntity
  8
0
  6
CONTINUOUS
 62
    7
370
   -1
100
AcDbCircle
 10
65.8000000000004
 20
19.10001300000267
 40
0.2
100
AcDbArc
 50
269.9999999999772
 51
0
  0
ARC
  5
217
100
AcDbEntity
  8
0
  6
CONTINUOUS
 62
    7
370
   -1
100
AcDbCircle
 10
65.70000000000053
 20
19.60001100000049
 40
0.3
100
AcDbArc
 50
0
 51
90.00022918311421
  0
LINE
  5
218
100
AcDbEntity
  8
0
  6
CONTINUOUS
 62
    7
370
   -1
100
AcDbLine
 10
64.59999900000051
 20
21.00000000000289
 11
64.09999900000051
 21
21.00000000000289
  0
ARC
  5
219
100
AcDbEntity
  8
0
  6
CONTINUOUS
 62
    7
370
   -1
100
AcDbCircle
 10
64.09999900000051
 20
20.8000000000029
 40
0.2
100
AcDbArc
 50
89.99999999999675
 51
180
  0
ARC
  5
21A
100
AcDbEntity
  8
0
  6
CONTINUOUS
 62
    7
370
   -1
100
AcDbCircle
 10
64.59999900000051
 20
20.7000000000029
 40
0.3
100
AcDbArc
 50
0
 51
89.99999999999675
  0
LINE
  5
21B
100
AcDbEntity
  8
0
  6
CONTINUOUS
 62
    7
370
   -1
100
AcDbLine
 10
56.4121318451763
 20
12.47279454517949
 11
56.0196686000003
 21
12.08033200000288
  0
ARC
  5
21C
100
AcDbEntity
  8
0
  6
CONTINUOUS
 62
    7
370
   -1
100
AcDbCircle
 10
55.1999998000004
 20
17.70000100000278
 40
1.3
100
AcDbArc
 50
1.00000010064e-05
 51
89.99999999999675
  0
ARC
  5
21D
100
AcDbEntity
  8
0
  6
CONTINUOUS
 62
    7
370
   -1
100
AcDbCircle
 10
62.6999900000003
 20
10.20000100000278
 40
1.3
100
AcDbArc
 50
1.00000010064e-05
 51
89.99999999999675
  0
ARC
  5
21E
100
AcDbEntity
  8
0
  6
CONTINUOUS
 62
    7
370
   -1
100
AcDbCircle
 10
56.5500002000002
 20
11.5499990000029
 40
0.75
100
AcDbArc
 50
135.0000099999953
 51
315.129729999991
  0
LINE
  5
21F
100
AcDbEntity
  8
0
  6
CONTINUOUS
 62
    7
370
   -1
100
AcDbLine
 10
57.47487373415319
 20
10.00000000000288
 11
55.0000053376286
 21
7.525131603478302
  0
LINE
  5
220
100
AcDbEntity
  8
0
  6
CONTINUOUS
 62
    7
370
   -1
100
AcDbLine
 10
55.00000000000028
 20
12.4748737341559
 11
52.52512606307601
 21
9.999999797231382
  0
LINE
  5
221
100
AcDbEntity
  8
0
  6
CONTINUOUS
 62
    7
370
   -1
100
AcDbLine
 10
34.25000000000043
 20
20.0000000000028
 11
34.25000000000043
 21
19.50000000000288
  0
ARC
  5
222
100
AcDbEntity
  8
0
  6
CONTINUOUS
 62
    7
370
   -1
100
AcDbCircle
 10
33.75000000000043
 20
19.50000000000288
 40
0.5
100
AcDbArc
 50
269.9999999999968
 51
359.9999999999984
  0
ARC
  5
223
100
AcDbEntity
  8
0
  6
CONTINUOUS
 62
    7
370
   -1
100
AcDbCircle
 10
45.0000000000002
 20
2.899e-12
 40
6.25
100
AcDbArc
 50
89.99999999999675
 51
115.5287793655096
  0
LINE
  5
224
100
AcDbEntity
  8
0
  6
CONTINUOUS
 62
    7
370
   -1
100
AcDbLine
 10
40.87568484036
 20
8.300000000002896
 11
37.7000000000003
 21
8.300000000002896
  0
LINE
  5
225
100
AcDbEntity
  8
0
  6
CONTINUOUS
 62
    7
370
   -1
100
AcDbLine
 10
36.70000000000019
 20
4.124315159643288
 11
36.7000000000003
 21
7.300000000002896
  0
ARC
  5
226
100
AcDbEntity
  8
0
  6
CONTINUOUS
 62
    7
370
   -1
100
AcDbCircle
 10
37.7000000000003
 20
7.300000000002896
 40
1
100
AcDbArc
 50
89.99999999999675
 51
180
  0
ARC
  5
227
100
AcDbEntity
  8
0
  6
CONTINUOUS
 62
    7
370
   -1
100
AcDbCircle
 10
38.57062139468221
 20
3.070621394684792
 40
0.8749999999999859
100
AcDbArc
 50
334.471220634494
 51
138.0091503933514
  0
ARC
  5
228
100
AcDbEntity
  8
0
  6
CONTINUOUS
 62
    7
370
   -1
100
AcDbCircle
 10
41.92937860531841
 20
6.429378605320877
 40
0.8749999999999575
100
AcDbArc
 50
131.9908496066572
 51
295.5287793655096
  0
ARC
  5
229
100
AcDbEntity
  8
0
  6
CONTINUOUS
 62
    7
370
   -1
100
AcDbCircle
 10
37.40000000000009
 20
4.124315159643288
 40
0.7
100
AcDbArc
 50
180
 51
318.0091503933515
  0
ARC
  5
22A
100
AcDbEntity
  8
0
  6
CONTINUOUS
 62
    7
370
   -1
100
AcDbCircle
 10
40.87568484035992
 20
7.600000000002907
 40
0.7
100
AcDbArc
 50
311.9908496066577
 51
89.99999999999675
  0
ARC
  5
22B
100
AcDbEntity
  8
0
  6
CONTINUOUS
 62
    7
370
   -1
100
AcDbCircle
 10
45.00000000000002
 20
2.899e-12
 40
6.25
100
AcDbArc
 50
64.4712206344867
 51
89.99999999999675
  0
LINE
  5
22C
100
AcDbEntity
  8
0
  6
CONTINUOUS
 62
    7
370
   -1
100
AcDbLine
 10
49.12431515964079
 20
8.300000000002697
 11
52.30000000000052
 21
8.300000000002584
  0
LINE
  5
22D
100
AcDbEntity
  8
0
  6
CONTINUOUS
 62
    7
370
   -1
100
AcDbLine
 10
53.3000000000003
 20
4.124315159642975
 11
53.3000000000003
 21
7.300000000002583
  0
ARC
  5
22E
100
AcDbEntity
  8
0
  6
CONTINUOUS
 62
    7
370
   -1
100
AcDbCircle
 10
52.30000000000029
 20
7.300000000002583
 40
1
100
AcDbArc
 50
359.9999999999984
 51
89.99999999999675
  0
ARC
  5
22F
100
AcDbEntity
  8
0
  6
CONTINUOUS
 62
    7
370
   -1
100
AcDbCircle
 10
51.42937860531819
 20
3.070621394684479
 40
0.8749999999999859
100
AcDbArc
 50
41.99084960664623
 51
205.5287793655045
  0
ARC
  5
230
100
AcDbEntity
  8
0
  6
CONTINUOUS
 62
    7
370
   -1
100
AcDbCircle
 10
48.07062139468209
 20
6.429378605320707
 40
0.8749999999999575
100
AcDbArc
 50
244.4712206344867
 51
48.00915039334282
  0
ARC
  5
231
100
AcDbEntity
  8
0
  6
CONTINUOUS
 62
    7
370
   -1
100
AcDbCircle
 10
52.60000000000039
 20
4.124315159642975
 40
0.7
100
AcDbArc
 50
221.9908496066462
 51
359.9999999999984
  0
ARC
  5
232
100
AcDbEntity
  8
0
  6
CONTINUOUS
 62
    7
370
   -1
100
AcDbCircle
 10
49.12431515964079
 20
7.60000000000268
 40
0.7
100
AcDbArc
 50
89.99999999999675
 51
228.0091503933428
  0
LINE
  5
233
100
AcDbEntity
  8
0
  6
CONTINUOUS
 62
    7
370
   -1
100
AcDbLine
 10
35.00000000000028
 20
12.47487373415579
 11
37.47485309652768
 21
10.00002063762839
  0
LINE
  5
234
100
AcDbEntity
  8
0
  6
CONTINUOUS
 62
    7
370
   -1
100
AcDbLine
 10
33.79289321881393
 20
10.85355339059607
 11
35.00000000000051
 21
9.64644660940958
  0
LINE
  5
235
100
AcDbEntity
  8
0
  6
CONTINUOUS
 62
    7
370
   -1
100
AcDbLine
 10
52.52512606307601
 20
9.999999797231382
 11
46.3464109693019
 21
10.00000835301479
  0
LINE
  5
236
100
AcDbEntity
  8
0
  6
CONTINUOUS
 62
    7
370
   -1
100
AcDbLine
 10
45.00000000000002
 20
9.300010217414766
 11
46.09641087654267
 21
9.933020699194586
  0
ARC
  5
237
100
AcDbEntity
  8
0
  6
CONTINUOUS
 62
    7
370
   -1
100
AcDbCircle
 10
46.34641027694249
 20
9.500008353015275
 40
0.5
100
AcDbArc
 50
89.99992066145288
 51
119.9999206614537
  0
LINE
  5
238
100
AcDbEntity
  8
0
  6
CONTINUOUS
 62
    7
370
   -1
100
AcDbLine
 10
37.47485309652768
 20
10.00002063762839
 11
41.5000009693066
 21
10.00001506393009
  0
LINE
  5
239
100
AcDbEntity
  8
0
  6
CONTINUOUS
 62
    7
370
   -1
100
AcDbLine
 10
43.9035908765448
 20
9.933023735633796
 11
45.00000000000002
 21
9.300010217414766
  0
LINE
  5
23A
100
AcDbEntity
  8
0
  6
CONTINUOUS
 62
    7
370
   -1
100
AcDbLine
 10
43.08484562171992
 20
9.748997869365567
 11
43.40359087654519
 21
9.933024427993288
  0
LINE
  5
23B
100
AcDbEntity
  8
0
  6
CONTINUOUS
 62
    7
370
   -1
100
AcDbLine
 10
41.5000009693066
 20
10.00001506393009
 11
43.08484562171992
 21
9.748997869365567
  0
ARC
  5
23C
100
AcDbEntity
  8
0
  6
CONTINUOUS
 62
    7
370
   -1
100
AcDbCircle
 10
43.65359027694518
 20
9.500012081813892
 40
0.5
100
AcDbArc
 50
59.999920661452
 51
119.9999206614537
  0
LINE
  5
23D
100
AcDbEntity
  8
0
  6
CONTINUOUS
 62
    7
370
   -1
100
AcDbLine
 10
37.47487393692401
 20
-9.99999979723151
 11
43.6535890306981
 21
-10.00000835301472
  0
LINE
  5
23E
100
AcDbEntity
  8
0
  6
CONTINUOUS
 62
    7
370
   -1
100
AcDbLine
 10
45.00000000000002
 20
-9.300010217414808
 11
43.90358912345741
 21
-9.933020699194614
  0
ARC
  5
23F
100
AcDbEntity
  8
0
  6
CONTINUOUS
 62
    7
370
   -1
100
AcDbCircle
 10
43.65358972305751
 20
-9.500008353015318
 40
0.5
100
AcDbArc
 50
269.9999206614529
 51
299.9999206614538
  0
LINE
  5
240
100
AcDbEntity
  8
0
  6
CONTINUOUS
 62
    7
370
   -1
100
AcDbLine
 10
52.5251469034722
 20
-10.00002063762842
 11
48.49999903069343
 21
-10.00001506393012
  0
LINE
  5
241
100
AcDbEntity
  8
0
  6
CONTINUOUS
 62
    7
370
   -1
100
AcDbLine
 10
46.09640912345511
 20
-9.93302373563381
 11
45.00000000000002
 21
-9.300010217414808
  0
LINE
  5
242
100
AcDbEntity
  8
0
  6
CONTINUOUS
 62
    7
370
   -1
100
AcDbLine
 10
46.91515437828002
 20
-9.748997869365596
 11
46.5964091234548
 21
-9.933024427993303
  0
LINE
  5
243
100
AcDbEntity
  8
0
  6
CONTINUOUS
 62
    7
370
   -1
100
AcDbLine
 10
48.49999903069343
 20
-10.00001506393012
 11
46.91515437828002
 21
-9.748997869365596
  0
ARC
  5
244
100
AcDbEntity
  8
0
  6
CONTINUOUS
 62
    7
370
   -1
100
AcDbCircle
 10
46.3464097230549
 20
-9.500012081813907
 40
0.5
100
AcDbArc
 50
239.9999206614506
 51
299.9999206614538
  0
LINE
  5
245
100
AcDbEntity
  8
0
  6
CONTINUOUS
 62
    7
370
   -1
100
AcDbLine
 10
54.99998449727407
 20
-7.525110763125876
 11
54.99999305301492
 21
-1.34642626930173
  0
LINE
  5
246
100
AcDbEntity
  8
0
  6
CONTINUOUS
 62
    7
370
   -1
100
AcDbLine
 10
54.29999491741492
 20
-1.52999998164e-05
 11
54.93300539919471
 21
-1.096426176542422
  0
ARC
  5
247
100
AcDbEntity
  8
0
  6
CONTINUOUS
 62
    7
370
   -1
100
AcDbCircle
 10
54.49999305301552
 20
-1.346425576942309
 40
0.5
100
AcDbArc
 50
359.9999206614528
 51
29.99992066145266
  0
LINE
  5
248
100
AcDbEntity
  8
0
  6
CONTINUOUS
 62
    7
370
   -1
100
AcDbLine
 10
55.00000533762861
 20
7.525131603472502
 11
54.99999976393031
 21
3.499983730693585
  0
LINE
  5
249
100
AcDbEntity
  8
0
  6
CONTINUOUS
 62
    7
370
   -1
100
AcDbLine
 10
54.93300843563403
 20
1.096393823455386
 11
54.29999491741492
 21
-1.52999998164e-05
  0
LINE
  5
24A
100
AcDbEntity
  8
0
  6
CONTINUOUS
 62
    7
370
   -1
100
AcDbLine
 10
54.74898256936578
 20
1.91513907828029
 11
54.93300912799341
 21
1.596393823454988
  0
LINE
  5
24B
100
AcDbEntity
  8
0
  6
CONTINUOUS
 62
    7
370
   -1
100
AcDbLine
 10
54.99999976393031
 20
3.499983730693585
 11
54.74898256936578
 21
1.91513907828029
  0
ARC
  5
24C
100
AcDbEntity
  8
0
  6
CONTINUOUS
 62
    7
370
   -1
100
AcDbCircle
 10
54.4999967818141
 20
1.346394423055073
 40
0.5
100
AcDbArc
 50
329.9999206614502
 51
29.99992066145266
  0
LINE
  5
24D
100
AcDbEntity
  8
0
  6
CONTINUOUS
 62
    7
370
   -1
100
AcDbLine
 10
7.525118413091654
 20
9.999999797241975
 11
1.346410969301899
 21
10.00000835301479
  0
LINE
  5
24E
100
AcDbEntity
  8
0
  6
CONTINUOUS
 62
    7
370
   -1
100
AcDbLine
 10
1e-16
 20
9.300010217414766
 11
1.09641087654262
 21
9.933020699194586
  0
ARC
  5
24F
100
AcDbEntity
  8
0
  6
CONTINUOUS
 62
    7
370
   -1
100
AcDbCircle
 10
1.346410276942492
 20
9.500008353015275
 40
0.5
100
AcDbArc
 50
89.99992066145288
 51
119.9999206614533
  0
LINE
  5
250
100
AcDbEntity
  8
0
  6
CONTINUOUS
 62
    7
370
   -1
100
AcDbLine
 10
-7.525154553464878
 20
10.00002063763899
 11
-3.499999030693388
 21
10.00001506393009
  0
LINE
  5
251
100
AcDbEntity
  8
0
  6
CONTINUOUS
 62
    7
370
   -1
100
AcDbLine
 10
-1.096409123455202
 20
9.933023735633796
 11
1e-16
 21
9.300010217414766
  0
LINE
  5
252
100
AcDbEntity
  8
0
  6
CONTINUOUS
 62
    7
370
   -1
100
AcDbLine
 10
-1.915154378280106
 20
9.748997869365567
 11
-1.59640912345479
 21
9.933024427993288
  0
LINE
  5
253
100
AcDbEntity
  8
0
  6
CONTINUOUS
 62
    7
370
   -1
100
AcDbLine
 10
-3.499999030693388
 20
10.00001506393009
 11
-1.915154378280106
 21
9.748997869365567
  0
ARC
  5
254
100
AcDbEntity
  8
0
  6
CONTINUOUS
 62
    7
370
   -1
100
AcDbCircle
 10
-1.346409723054804
 20
9.500012081813892
 40
0.5
100
AcDbArc
 50
59.9999206614502
 51
119.9999206614533
  0
LINE
  5
255
100
AcDbEntity
  8
0
  6
CONTINUOUS
 62
    7
370
   -1
100
AcDbLine
 10
-7.52513371309267
 20
-9.99999979724609
 11
-1.346410969301913
 21
-10.00000835301472
  0
LINE
  5
256
100
AcDbEntity
  8
0
  6
CONTINUOUS
 62
    7
370
   -1
100
AcDbLine
 10
1e-16
 20
-9.300010217414808
 11
-1.096410876542605
 21
-9.933020699194614
  0
ARC
  5
257
100
AcDbEntity
  8
0
  6
CONTINUOUS
 62
    7
370
   -1
100
AcDbCircle
 10
-1.346410276942492
 20
-9.500008353015318
 40
0.5
100
AcDbArc
 50
269.9999206614529
 51
299.9999206614538
  0
LINE
  5
258
100
AcDbEntity
  8
0
  6
CONTINUOUS
 62
    7
370
   -1
100
AcDbLine
 10
7.525139253478021
 20
-10.00002063761783
 11
3.499999030693402
 21
-10.00001506393012
  0
LINE
  5
259
100
AcDbEntity
  8
0
  6
CONTINUOUS
 62
    7
370
   -1
100
AcDbLine
 10
1.096409123455203
 20
-9.93302373563381
 11
1e-16
 21
-9.300010217414808
  0
LINE
  5
25A
100
AcDbEntity
  8
0
  6
CONTINUOUS
 62
    7
370
   -1
100
AcDbLine
 10
1.915154378280107
 20
-9.748997869365596
 11
1.596409123454805
 21
-9.933024427993303
  0
LINE
  5
25B
100
AcDbEntity
  8
0
  6
CONTINUOUS
 62
    7
370
   -1
100
AcDbLine
 10
3.499999030693402
 20
-10.00001506393012
 11
1.915154378280107
 21
-9.748997869365596
  0
ARC
  5
25C
100
AcDbEntity
  8
0
  6
CONTINUOUS
 62
    7
370
   -1
100
AcDbCircle
 10
1.346409723054819
 20
-9.500012081813907
 40
0.5
100
AcDbArc
 50
239.9999206614502
 51
299.9999206614538
  0
LINE
  5
25D
100
AcDbEntity
  8
0
  6
CONTINUOUS
 62
    7
370
   -1
100
AcDbLine
 10
-9.999984497263473
 20
7.52510311313175
 11
-9.999993053015004
 21
1.3464109693017
  0
LINE
  5
25E
100
AcDbEntity
  8
0
  6
CONTINUOUS
 62
    7
370
   -1
100
AcDbLine
 10
-9.299994917415106
 20
-2.132e-13
 11
-9.93300539919481
 21
1.096410876542392
  0
ARC
  5
25F
100
AcDbEntity
  8
0
  6
CONTINUOUS
 62
    7
370
   -1
100
AcDbCircle
 10
-9.499993053015501
 20
1.346410276942279
 40
0.5
100
AcDbArc
 50
179.9999206614528
 51
209.9999206614515
  0
LINE
  5
260
100
AcDbEntity
  8
0
  6
CONTINUOUS
 62
    7
370
   -1
100
AcDbLine
 10
-10.00000533759683
 20
-7.525123953444429
 11
-9.999999763930388
 21
-3.4999990306937
  0
LINE
  5
261
100
AcDbEntity
  8
0
  6
CONTINUOUS
 62
    7
370
   -1
100
AcDbLine
 10
-9.933008435634093
 20
-1.096409123455515
 11
-9.299994917415106
 21
-2.132e-13
  0
LINE
  5
262
100
AcDbEntity
  8
0
  6
CONTINUOUS
 62
    7
370
   -1
100
AcDbLine
 10
-9.748982569365891
 20
-1.915154378280305
 11
-9.933009127993486
 21
-1.596409123455018
  0
LINE
  5
263
100
AcDbEntity
  8
0
  6
CONTINUOUS
 62
    7
370
   -1
100
AcDbLine
 10
-9.999999763930388
 20
-3.4999990306937
 11
-9.748982569365891
 21
-1.915154378280305
  0
ARC
  5
264
100
AcDbEntity
  8
0
  6
CONTINUOUS
 62
    7
370
   -1
100
AcDbCircle
 10
-9.49999678181419
 20
-1.346409723055103
 40
0.5
100
AcDbArc
 50
149.9999206614506
 51
209.9999206614515
  0
CIRCLE
  5
265
100
AcDbEntity
  8
0
  6
CONTINUOUS
 62
    3
370
   -1
100
AcDbCircle
 10
-7.649992809800001e-06
 20
9.279700000000001e-12
 40
6.250000000000943
  0
CIRCLE
  5
266
100
AcDbEntity
  8
0
  6
CONTINUOUS
 62
    3
370
   -1
100
AcDbCircle
 10
44.99999235000738
 20
9.279700000000001e-12
 40
6.250000000000943
  0
ENDSEC
  0
SECTION
  2
OBJECTS
  0
DICTIONARY
  5
C
330
0
100
AcDbDictionary
281
    1
  3
ACAD_GROUP
350
D
  0
DICTIONARY
  5
D
330
C
100
AcDbDictionary
281
    1
  0
PLOTSETTINGS
  5
267
100
AcDbPlotSettings
  6
1x1
 40
0
 41
0
 42
0
 43
0
  0
ENDSEC
  0
EOF
