  0
SECTION
  2
HEADER
  9
$ACADVER
  1
AC1009
  9
$INSBASE
 10
0.0
 20
0.0
 30
0.0
  9
$EXTMIN
 10
-81.195923203191697
 20
-66.207704855127758
 30
0.0
  9
$EXTMAX
 10
158.00669390112171
 20
47.14308718229983
 30
0.0
  9
$LIMMIN
 10
0.0
 20
0.0
  9
$LIMMAX
 10
420.0
 20
297.0
  9
$ORTHOMODE
 70
     0
  9
$REGENMODE
 70
     1
  9
$FILLMODE
 70
     1
  9
$QTEXTMODE
 70
     0
  9
$MIRRTEXT
 70
     0
  9
$DRAGMODE
 70
     2
  9
$LTSCALE
 40
1.0
  9
$OSMODE
 70
  2109
  9
$ATTMODE
 70
     1
  9
$TEXTSIZE
 40
3.0
  9
$TRACEWID
 40
1.0
  9
$TEXTSTYLE
  7
STANDARD
  9
$CLAYER
  8
0
  9
$CELTYPE
  6
CONTINUOUS
  9
$CECOLOR
 62
     7
  9
$DIMSCALE
 40
1.0
  9
$DIMASZ
 40
2.5
  9
$DIMEXO
 40
0.625
  9
$DIMDLI
 40
3.75
  9
$DIMRND
 40
0.0
  9
$DIMDLE
 40
0.0
  9
$DIMEXE
 40
1.25
  9
$DIMTP
 40
0.0
  9
$DIMTM
 40
0.0
  9
$DIMTXT
 40
2.5
  9
$DIMCEN
 40
2.5
  9
$DIMTSZ
 40
0.0
  9
$DIMTOL
 70
     0
  9
$DIMLIM
 70
     0
  9
$DIMTIH
 70
     0
  9
$DIMTOH
 70
     0
  9
$DIMSE1
 70
     0
  9
$DIMSE2
 70
     0
  9
$DIMTAD
 70
     1
  9
$DIMZIN
 70
     8
  9
$DIMBLK
  1
OPEN30
  9
$DIMASO
 70
     1
  9
$DIMSHO
 70
     1
  9
$DIMPOST
  1

  9
$DIMAPOST
  1

  9
$DIMALT
 70
     0
  9
$DIMALTD
 70
     3
  9
$DIMALTF
 40
0.03937007874016
  9
$DIMLFAC
 40
1.0
  9
$DIMTOFL
 70
     1
  9
$DIMTVP
 40
0.0
  9
$DIMTIX
 70
     0
  9
$DIMSOXD
 70
     0
  9
$DIMSAH
 70
     0
  9
$DIMBLK1
  1

  9
$DIMBLK2
  1

  9
$DIMSTYLE
  2
MISUMI
  9
$DIMCLRD
 70
   137
  9
$DIMCLRE
 70
   137
  9
$DIMCLRT
 70
   137
  9
$DIMTFAC
 40
1.0
  9
$DIMGAP
 40
0.625
  9
$LUNITS
 70
     2
  9
$LUPREC
 70
     2
  9
$SKETCHINC
 40
1.0
  9
$FILLETRAD
 40
0.0
  9
$AUNITS
 70
     0
  9
$AUPREC
 70
     0
  9
$MENU
  1
.
  9
$ELEVATION
 40
0.0
  9
$PELEVATION
 40
0.0
  9
$THICKNESS
 40
0.0
  9
$LIMCHECK
 70
     0
  9
$BLIPMODE
 70
     0
  9
$CHAMFERA
 40
0.5
  9
$CHAMFERB
 40
0.5
  9
$SKPOLY
 70
     0
  9
$TDCREATE
 40
2455135.5720697111
  9
$TDUPDATE
 40
2455656.608698356
  9
$TDINDWG
 40
0.0738696875
  9
$TDUSRTIMER
 40
0.0738695023
  9
$USRTIMER
 70
     1
  9
$ANGBASE
 50
0.0
  9
$ANGDIR
 70
     0
  9
$PDMODE
 70
    35
  9
$PDSIZE
 40
0.0
  9
$PLINEWID
 40
0.0
  9
$COORDS
 70
     1
  9
$SPLFRAME
 70
     0
  9
$SPLINETYPE
 70
     6
  9
$SPLINESEGS
 70
     8
  9
$ATTDIA
 70
     0
  9
$ATTREQ
 70
     1
  9
$HANDLING
 70
     1
  9
$HANDSEED
  5
223B
  9
$SURFTAB1
 70
     6
  9
$SURFTAB2
 70
     6
  9
$SURFTYPE
 70
     6
  9
$SURFU
 70
     6
  9
$SURFV
 70
     6
  9
$UCSNAME
  2

  9
$UCSORG
 10
0.0
 20
0.0
 30
0.0
  9
$UCSXDIR
 10
1.0
 20
0.0
 30
0.0
  9
$UCSYDIR
 10
0.0
 20
1.0
 30
0.0
  9
$PUCSNAME
  2

  9
$PUCSORG
 10
0.0
 20
0.0
 30
0.0
  9
$PUCSXDIR
 10
1.0
 20
0.0
 30
0.0
  9
$PUCSYDIR
 10
0.0
 20
1.0
 30
0.0
  9
$USERI1
 70
     0
  9
$USERI2
 70
     0
  9
$USERI3
 70
     0
  9
$USERI4
 70
     0
  9
$USERI5
 70
     0
  9
$USERR1
 40
0.0
  9
$USERR2
 40
0.0
  9
$USERR3
 40
0.0
  9
$USERR4
 40
0.0
  9
$USERR5
 40
0.0
  9
$WORLDVIEW
 70
     1
  9
$SHADEDGE
 70
     3
  9
$SHADEDIF
 70
    70
  9
$TILEMODE
 70
     1
  9
$MAXACTVP
 70
    64
  9
$PLIMCHECK
 70
     0
  9
$PEXTMIN
 10
0.0
 20
0.0
 30
0.0
  9
$PEXTMAX
 10
0.0
 20
0.0
 30
0.0
  9
$PLIMMIN
 10
0.0
 20
0.0
  9
$PLIMMAX
 10
12.0
 20
9.0
  9
$UNITMODE
 70
     0
  9
$VISRETAIN
 70
     1
  9
$PLINEGEN
 70
     0
  9
$PSLTSCALE
 70
     1
  0
ENDSEC
  0
SECTION
  2
TABLES
  0
TABLE
  2
VPORT
 70
     1
  0
VPORT
  2
*ACTIVE
 70
     0
 10
0.0
 20
0.0
 11
1.0
 21
1.0
 12
15.69691242493808
 22
-21.9251556132233
 13
0.0
 23
0.0
 14
10.0
 24
10.0
 15
10.0
 25
10.0
 16
0.0
 26
0.0
 36
1.0
 17
0.0
 27
0.0
 37
0.0
 40
225.94443890835689
 41
1.0918367346938771
 42
50.0
 43
0.0
 44
0.0
 50
0.0
 51
0.0
 71
     0
 72
  1000
 73
     1
 74
     3
 75
     0
 76
     0
 77
     0
 78
     0
  0
ENDTAB
  0
TABLE
  2
LTYPE
 70
     4
  0
LTYPE
  2
CONTINUOUS
 70
     0
  3
Solid line
 72
    65
 73
     0
 40
0.0
  0
LTYPE
  2
CENTER
 70
     0
  3
Center ____ _ ____ _ ____ _ ____ _ ____ _ ____
 72
    65
 73
     4
 40
50.799999999999997
 49
31.75
 49
-6.3499999999999988
 49
6.3499999999999988
 49
-6.3499999999999988
  0
LTYPE
  2
DASHED
 70
     0
  3
Dashed __ __ __ __ __ __ __ __ __ __ __ __ __ _
 72
    65
 73
     2
 40
19.050000000000001
 49
12.699999999999999
 49
-6.3499999999999988
  0
LTYPE
  2
PHANTOM
 70
     0
  3
Phantom ______  __  __  ______  __  __  ______
 72
    65
 73
     6
 40
63.5
 49
31.75
 49
-6.3499999999999988
 49
6.3499999999999988
 49
-6.3499999999999988
 49
6.3499999999999988
 49
-6.3499999999999988
  0
ENDTAB
  0
TABLE
  2
LAYER
 70
     3
  0
LAYER
  2
0
 70
     0
 62
     7
  6
CONTINUOUS
  0
LAYER
  2
CENTER
 70
     0
 62
     1
  6
CENTER
  0
LAYER
  2
DEFPOINTS
 70
     0
 62
     7
  6
CONTINUOUS
  0
ENDTAB
  0
TABLE
  2
STYLE
 70
     1
  0
STYLE
  2
STANDARD
 70
     0
 40
3.0
 41
1.0
 50
0.0
 71
     0
 42
3.0
  3
txt.shx
  4
bigfont.shx
  0
ENDTAB
  0
TABLE
  2
VIEW
 70
     0
  0
ENDTAB
  0
TABLE
  2
UCS
 70
     0
  0
ENDTAB
  0
TABLE
  2
APPID
 70
     8
  0
APPID
  2
ACAD
 70
     0
  0
APPID
  2
ACAD_MLEADERVER
 70
     0
  0
APPID
  2
ACAD_PSEXT
 70
     0
  0
APPID
  2
ACAD_DSTYLE_DIMRADIAL_EXTENSION
 70
     0
  0
APPID
  2
ACAD_EXEMPT_FROM_CAD_STANDARDS
 70
     0
  0
APPID
  2
GRADIENTCOLOR1ACI
 70
     0
  0
APPID
  2
GRADIENTCOLOR2ACI
 70
     0
  0
APPID
  2
ACAECLAYERSTANDARD
 70
     0
  0
ENDTAB
  0
TABLE
  2
DIMSTYLE
 70
     1
  0
DIMSTYLE
  2
MISUMI
 70
     0
  3

  4

  5
OPEN30
  6

  7

 40
1.0
 41
2.5
 42
0.625
 43
3.75
 44
1.25
 45
0.0
 46
0.0
 47
0.0
 48
0.0
140
2.5
141
2.5
142
0.0
143
0.03937007874016
144
1.0
145
0.0
146
1.0
147
0.625
 71
     0
 72
     0
 73
     0
 74
     0
 75
     0
 76
     0
 77
     1
 78
     8
170
     0
171
     3
172
     1
173
     0
174
     0
175
     0
176
   137
177
   137
178
   137
  0
ENDTAB
  0
ENDSEC
  0
SECTION
  2
BLOCKS
  0
BLOCK
  8
0
  2
$MODEL_SPACE
 70
     0
 10
0.0
 20
0.0
 30
0.0
  3
$MODEL_SPACE
  1

  0
ENDBLK
  5
21
  8
0
  0
BLOCK
 67
     1
  8
0
  2
$PAPER_SPACE
 70
     0
 10
0.0
 20
0.0
 30
0.0
  3
$PAPER_SPACE
  1

  0
ENDBLK
  5
53
 67
     1
  8
0
  0
BLOCK
  8
0
 62
     7
  2
_OPEN30
 70
     0
 10
0.0
 20
0.0
 30
0.0
  3
_OPEN30
  1

  0
LINE
  5
D7
  8
0
  6
BYBLOCK
 62
     0
 10
-1.0
 20
0.26794919
 30
0.0
 11
0.0
 21
0.0
 31
0.0
  0
LINE
  5
D8
  8
0
  6
BYBLOCK
 62
     0
 10
0.0
 20
0.0
 30
0.0
 11
-1.0
 21
-0.26794919
 31
0.0
  0
LINE
  5
D9
  8
0
  6
BYBLOCK
 62
     0
 10
0.0
 20
0.0
 30
0.0
 11
-1.0
 21
0.0
 31
0.0
  0
ENDBLK
  5
DB
  8
0
 62
     7
  0
BLOCK
  8
0
 62
     7
  2
*U24
 70
     1
 10
0.0
 20
0.0
 30
0.0
  3
*U24
  1

  0
TEXT
  5
2234
  8
0
  6
CONTINUOUS
 62
     7
 10
-59.99999900000001
 20
-60.547298007929378
 30
0.0
 40
3.0
  1
NEFS8-40120-50
  0
ENDBLK
  5
2236
  8
0
 62
     7
  0
BLOCK
  8
0
 62
     7
  2
*U25
 70
     1
 10
0.0
 20
0.0
 30
0.0
  3
*U25
  1

  0
TEXT
  5
2238
  8
0
  6
CONTINUOUS
 62
     7
 10
-59.99999900000001
 20
-66.207704855127758
 30
0.0
 40
3.0
  1
NEFS8-40120
  0
ENDBLK
  5
223A
  8
0
 62
     7
  0
ENDSEC
  0
SECTION
  2
ENTITIES
  0
LINE
  5
1ABF
  8
CENTER
  6
CENTER
 62
     1
 10
-61.999998999999981
 20
0.0
 30
0.0
 11
62.000000999999891
 21
0.0
 31
0.0
  0
LINE
  5
1AC0
  8
CENTER
  6
CENTER
 62
     1
 10
-39.999998999999988
 20
-21.999999999999989
 30
0.0
 11
-39.999998999999988
 21
21.999999999999989
 31
0.0
  0
LINE
  5
1AC1
  8
CENTER
  6
CENTER
 62
     1
 10
0.0000009999999975
 20
-21.999999999999989
 30
0.0
 11
0.0000009999999975
 21
21.999999999999989
 31
0.0
  0
LINE
  5
1AC2
  8
CENTER
  6
CENTER
 62
     1
 10
40.000000999999891
 20
-21.999999999999989
 30
0.0
 11
40.000000999999891
 21
21.999999999999989
 31
0.0
  0
LINE
  5
1AC9
  8
0
  6
CONTINUOUS
 62
     7
 10
-42.481977000000008
 20
5.3226179999999914
 30
0.0
 11
-42.381801000000017
 21
5.1077899999999943
 31
0.0
  0
LINE
  5
1ACA
  8
0
  6
CONTINUOUS
 62
     7
 10
-37.518022000000023
 20
5.3226179999999914
 30
0.0
 11
-37.618198
 21
5.1077899999999943
 31
0.0
  0
LINE
  5
1ACB
  8
0
  6
CONTINUOUS
 62
     7
 10
-45.422617999999979
 20
-2.5286080000000051
 30
0.0
 11
-45.107790000000023
 21
-2.38180100000001
 31
0.0
  0
LINE
  5
1ACC
  8
0
  6
CONTINUOUS
 62
     7
 10
-45.422617999999979
 20
2.5286090000000021
 30
0.0
 11
-45.107790000000023
 21
2.3818019999999929
 31
0.0
  0
ARC
  5
1ACD
  8
0
  6
CONTINUOUS
 62
     7
 10
-45.276836999999979
 20
-2.019277999999999
 30
0.0
 40
0.4
 50
294.99999999999972
 51
20.940265000000529
  0
LINE
  5
1ACE
  8
0
  6
CONTINUOUS
 62
     7
 10
-34.577380999999981
 20
2.5286090000000021
 30
0.0
 11
-34.892209000000037
 21
2.3818019999999929
 31
0.0
  0
ARC
  5
1ACF
  8
0
  6
CONTINUOUS
 62
     7
 10
-45.276836999999979
 20
2.0192789999999969
 30
0.0
 40
0.4
 50
339.05973499999868
 51
65.000000000000313
  0
LINE
  5
1AD0
  8
0
  6
CONTINUOUS
 62
     7
 10
-34.577380999999981
 20
-2.5286080000000051
 30
0.0
 11
-34.892209000000037
 21
-2.38180100000001
 31
0.0
  0
ARC
  5
1AD1
  8
0
  6
CONTINUOUS
 62
     7
 10
-42.019278000000021
 20
5.276837999999997
 30
0.0
 40
0.4
 50
204.99999999999969
 51
290.94026499999939
  0
LINE
  5
1AD2
  8
0
  6
CONTINUOUS
 62
     7
 10
-37.518022000000023
 20
-5.3226180000000047
 30
0.0
 11
-37.618198
 21
-5.1077900000000076
 31
0.0
  0
ARC
  5
1AD3
  8
0
  6
CONTINUOUS
 62
     7
 10
-37.98072100000001
 20
5.276837999999997
 30
0.0
 40
0.4
 50
249.0597350000005
 51
335.00000000000028
  0
LINE
  5
1AD4
  8
0
  6
CONTINUOUS
 62
     7
 10
12.00000100000001
 20
16.300000000000001
 30
0.0
 11
12.00000100000001
 21
11.353554000000001
 31
0.0
  0
LINE
  5
1AD5
  8
0
  6
CONTINUOUS
 62
     7
 10
7.7928940000000031
 20
6.7322329999999928
 30
0.0
 11
11.70710699999999
 21
10.64644699999999
 31
0.0
  0
LINE
  5
1AD6
  8
0
  6
CONTINUOUS
 62
     7
 10
28.000000999999902
 20
16.300000000000001
 30
0.0
 11
28.000000999999902
 21
11.353554000000001
 31
0.0
  0
LINE
  5
1AD7
  8
0
  6
CONTINUOUS
 62
     7
 10
-42.481977000000008
 20
-5.3226180000000047
 30
0.0
 11
-42.381801000000017
 21
-5.1077900000000076
 31
0.0
  0
ARC
  5
1AD8
  8
0
  6
CONTINUOUS
 62
     7
 10
-34.723161999999981
 20
2.0192789999999969
 30
0.0
 40
0.4
 50
114.9999999999996
 51
200.94026500000021
  0
LINE
  5
1AD9
  8
0
  6
CONTINUOUS
 62
     7
 10
28.292894000000029
 20
10.64644699999999
 30
0.0
 11
32.207107000000022
 21
6.7322329999999928
 31
0.0
  0
LINE
  5
1ADA
  8
0
  6
CONTINUOUS
 62
     7
 10
32.207107000000022
 20
-6.732233000000007
 30
0.0
 11
28.292894000000029
 21
-10.646445999999999
 31
0.0
  0
LINE
  5
1ADB
  8
0
  6
CONTINUOUS
 62
     7
 10
28.000000999999902
 20
-16.299999999999979
 30
0.0
 11
28.000000999999902
 21
-11.353553
 31
0.0
  0
LINE
  5
1ADC
  8
0
  6
CONTINUOUS
 62
     7
 10
12.00000100000001
 20
-16.299999999999979
 30
0.0
 11
12.00000100000001
 21
-11.353553
 31
0.0
  0
ARC
  5
1ADD
  8
0
  6
CONTINUOUS
 62
     7
 10
-34.723161999999981
 20
-2.019277999999999
 30
0.0
 40
0.4
 50
159.05973499999951
 51
245.00000000000031
  0
LINE
  5
1ADE
  8
0
  6
CONTINUOUS
 62
     7
 10
11.70710699999999
 20
-10.646445999999999
 30
0.0
 11
7.7928940000000031
 21
-6.732233000000007
 31
0.0
  0
ARC
  5
1ADF
  8
0
  6
CONTINUOUS
 62
     7
 10
-37.98072100000001
 20
-5.2768370000000004
 30
0.0
 40
0.4
 50
24.999999999999702
 51
110.9402649999994
  0
ARC
  5
1AE0
  8
0
  6
CONTINUOUS
 62
     7
 10
-42.019278000000021
 20
-5.2768370000000004
 30
0.0
 40
0.4
 50
69.059735000000529
 51
155.00000000000031
  0
ARC
  5
1AE1
  8
0
  6
CONTINUOUS
 62
     7
 10
-43.388284999999982
 20
-4.9000000000000048
 30
0.0
 40
1.0
 50
270.0
 51
335.00000000000028
  0
ARC
  5
1AE2
  8
0
  6
CONTINUOUS
 62
     7
 10
-44.999998999999981
 20
-3.4349160000000012
 30
0.0
 40
1.0
 50
114.9999999999996
 51
180.0
  0
ARC
  5
1AE3
  8
0
  6
CONTINUOUS
 62
     7
 10
-44.999998999999981
 20
3.4349160000000012
 30
0.0
 40
1.0
 50
180.0
 51
245.00000000000031
  0
ARC
  5
1AE4
  8
0
  6
CONTINUOUS
 62
     7
 10
-43.388284999999982
 20
4.8999999999999906
 30
0.0
 40
1.0
 50
24.999999999999702
 51
90.0
  0
ARC
  5
1AE5
  8
0
  6
CONTINUOUS
 62
     7
 10
-36.611713999999992
 20
4.8999999999999906
 30
0.0
 40
1.0
 50
90.0
 51
155.00000000000031
  0
ARC
  5
1AE6
  8
0
  6
CONTINUOUS
 62
     7
 10
-34.999998999999967
 20
3.4349160000000012
 30
0.0
 40
1.0
 50
294.99999999999972
 51
0.0
  0
ARC
  5
1AE7
  8
0
  6
CONTINUOUS
 62
     7
 10
-34.999998999999967
 20
-3.4349160000000012
 30
0.0
 40
1.0
 50
0.0
 51
65.000000000000313
  0
ARC
  5
1AE8
  8
0
  6
CONTINUOUS
 62
     7
 10
-36.611713999999992
 20
-4.9000000000000048
 30
0.0
 40
1.0
 50
204.99999999999969
 51
270.0
  0
LINE
  5
1AE9
  8
0
  6
CONTINUOUS
 62
     7
 10
2.4819779999999119
 20
5.3226179999999914
 30
0.0
 11
2.3818020000000071
 21
5.1077899999999943
 31
0.0
  0
LINE
  5
1AEA
  8
0
  6
CONTINUOUS
 62
     7
 10
-2.4819770000001
 20
5.3226179999999914
 30
0.0
 11
-2.3818010000000949
 21
5.1077899999999943
 31
0.0
  0
LINE
  5
1AEB
  8
0
  6
CONTINUOUS
 62
     7
 10
5.4226189999999974
 20
-2.5286080000000051
 30
0.0
 11
5.1077909999999056
 21
-2.38180100000001
 31
0.0
  0
LINE
  5
1AEC
  8
0
  6
CONTINUOUS
 62
     7
 10
5.4226189999999974
 20
2.5286090000000021
 30
0.0
 11
5.1077909999999056
 21
2.3818019999999929
 31
0.0
  0
ARC
  5
1AED
  8
0
  6
CONTINUOUS
 62
     7
 10
5.2768379999999118
 20
-2.019277999999999
 30
0.0
 40
0.4
 50
159.05973499999951
 51
245.00000000000031
  0
LINE
  5
1AEE
  8
0
  6
CONTINUOUS
 62
     7
 10
-5.422617999999999
 20
2.5286090000000021
 30
0.0
 11
-5.1077899999999943
 21
2.3818019999999929
 31
0.0
  0
ARC
  5
1AEF
  8
0
  6
CONTINUOUS
 62
     7
 10
5.2768379999999118
 20
2.0192789999999969
 30
0.0
 40
0.4
 50
114.9999999999996
 51
200.94026500000021
  0
LINE
  5
1AF0
  8
0
  6
CONTINUOUS
 62
     7
 10
-5.422617999999999
 20
-2.5286080000000051
 30
0.0
 11
-5.1077899999999943
 21
-2.38180100000001
 31
0.0
  0
ARC
  5
1AF1
  8
0
  6
CONTINUOUS
 62
     7
 10
2.0192789999999969
 20
5.276837999999997
 30
0.0
 40
0.4
 50
249.0597350000005
 51
335.00000000000028
  0
LINE
  5
1AF2
  8
0
  6
CONTINUOUS
 62
     7
 10
-2.4819770000001
 20
-5.3226180000000047
 30
0.0
 11
-2.3818010000000949
 21
-5.1077900000000076
 31
0.0
  0
ARC
  5
1AF3
  8
0
  6
CONTINUOUS
 62
     7
 10
-2.0192780000000989
 20
5.276837999999997
 30
0.0
 40
0.4
 50
204.99999999999969
 51
290.94026499999939
  0
LINE
  5
1AF4
  8
0
  6
CONTINUOUS
 62
     7
 10
2.4819779999999119
 20
-5.3226180000000047
 30
0.0
 11
2.3818020000000071
 21
-5.1077900000000076
 31
0.0
  0
ARC
  5
1AF5
  8
0
  6
CONTINUOUS
 62
     7
 10
-5.276837000000099
 20
2.0192789999999969
 30
0.0
 40
0.4
 50
339.05973499999868
 51
65.000000000000313
  0
ARC
  5
1AF6
  8
0
  6
CONTINUOUS
 62
     7
 10
-5.276837000000099
 20
-2.019277999999999
 30
0.0
 40
0.4
 50
294.99999999999972
 51
20.940265000000529
  0
ARC
  5
1AF7
  8
0
  6
CONTINUOUS
 62
     7
 10
-2.0192780000000989
 20
-5.2768370000000004
 30
0.0
 40
0.4
 50
69.059735000000529
 51
155.00000000000031
  0
ARC
  5
1AF8
  8
0
  6
CONTINUOUS
 62
     7
 10
8.5000010000000117
 20
-6.0251260000000002
 30
0.0
 40
1.0
 50
180.0
 51
224.9999999999994
  0
ARC
  5
1AF9
  8
0
  6
CONTINUOUS
 62
     7
 10
2.0192789999999969
 20
-5.2768370000000004
 30
0.0
 40
0.4
 50
24.999999999999702
 51
110.9402649999994
  0
ARC
  5
1AFA
  8
0
  6
CONTINUOUS
 62
     7
 10
11.00000100000001
 20
-11.353553
 30
0.0
 40
1.0
 50
0.0
 51
44.999999999999417
  0
ARC
  5
1AFB
  8
0
  6
CONTINUOUS
 62
     7
 10
-39.999998999999988
 20
0.0
 30
0.0
 40
5.25
 50
69.059735000000529
 51
110.9402649999994
  0
ARC
  5
1AFC
  8
0
  6
CONTINUOUS
 62
     7
 10
3.388286000000007
 20
-4.9000000000000048
 30
0.0
 40
1.0
 50
204.99999999999969
 51
270.0
  0
ARC
  5
1AFD
  8
0
  6
CONTINUOUS
 62
     7
 10
29.000000999999902
 20
-11.353553
 30
0.0
 40
1.0
 50
135.00000000000051
 51
180.0
  0
ARC
  5
1AFE
  8
0
  6
CONTINUOUS
 62
     7
 10
-39.999998999999988
 20
0.0
 30
0.0
 40
5.25
 50
159.05973499999951
 51
200.94026500000021
  0
ARC
  5
1AFF
  8
0
  6
CONTINUOUS
 62
     7
 10
31.500000999999902
 20
-6.0251260000000002
 30
0.0
 40
1.0
 50
315.00000000000063
 51
0.0
  0
ARC
  5
1B00
  8
0
  6
CONTINUOUS
 62
     7
 10
-39.999998999999988
 20
0.0
 30
0.0
 40
5.25
 50
339.05973499999868
 51
20.940265000000529
  0
ARC
  5
1B01
  8
0
  6
CONTINUOUS
 62
     7
 10
-39.999998999999988
 20
0.0
 30
0.0
 40
5.25
 50
249.0597350000005
 51
290.94026499999939
  0
ARC
  5
1B02
  8
0
  6
CONTINUOUS
 62
     7
 10
5.0000009999999966
 20
-3.4349160000000012
 30
0.0
 40
1.0
 50
0.0
 51
65.000000000000313
  0
ARC
  5
1B03
  8
0
  6
CONTINUOUS
 62
     7
 10
5.0000009999999966
 20
3.4349160000000012
 30
0.0
 40
1.0
 50
294.99999999999972
 51
0.0
  0
ARC
  5
1B04
  8
0
  6
CONTINUOUS
 62
     7
 10
3.388286000000007
 20
4.8999999999999906
 30
0.0
 40
1.0
 50
90.0
 51
155.00000000000031
  0
ARC
  5
1B05
  8
0
  6
CONTINUOUS
 62
     7
 10
-3.3882850000000948
 20
4.8999999999999906
 30
0.0
 40
1.0
 50
24.999999999999702
 51
90.0
  0
ARC
  5
1B06
  8
0
  6
CONTINUOUS
 62
     7
 10
-4.9999990000000016
 20
3.4349160000000012
 30
0.0
 40
1.0
 50
180.0
 51
245.00000000000031
  0
ARC
  5
1B07
  8
0
  6
CONTINUOUS
 62
     7
 10
-4.9999990000000016
 20
-3.4349160000000012
 30
0.0
 40
1.0
 50
114.9999999999996
 51
180.0
  0
ARC
  5
1B08
  8
0
  6
CONTINUOUS
 62
     7
 10
-3.3882850000000948
 20
-4.9000000000000048
 30
0.0
 40
1.0
 50
270.0
 51
335.00000000000028
  0
ARC
  5
1B09
  8
0
  6
CONTINUOUS
 62
     7
 10
0.0000009999999975
 20
0.0
 30
0.0
 40
5.25
 50
69.059735000000529
 51
110.9402649999994
  0
ARC
  5
1B0A
  8
0
  6
CONTINUOUS
 62
     7
 10
0.0000009999999975
 20
0.0
 30
0.0
 40
5.25
 50
339.05973499999868
 51
20.940265000000529
  0
ARC
  5
1B0B
  8
0
  6
CONTINUOUS
 62
     7
 10
0.0000009999999975
 20
0.0
 30
0.0
 40
5.25
 50
159.05973499999951
 51
200.94026500000021
  0
ARC
  5
1B0C
  8
0
  6
CONTINUOUS
 62
     7
 10
0.0000009999999975
 20
0.0
 30
0.0
 40
5.25
 50
249.0597350000005
 51
290.94026499999939
  0
LINE
  5
1B0D
  8
0
  6
CONTINUOUS
 62
     7
 10
3.388286000000007
 20
5.8999999999999906
 30
0.0
 11
5.5000009999999966
 21
5.8999999999999906
 31
0.0
  0
LINE
  5
1B0E
  8
0
  6
CONTINUOUS
 62
     7
 10
-3.3882850000000948
 20
5.8999999999999906
 30
0.0
 11
-5.4999990000000016
 21
5.8999999999999906
 31
0.0
  0
LINE
  5
1B0F
  8
0
  6
CONTINUOUS
 62
     7
 10
-3.3882850000000948
 20
-5.9000000000000048
 30
0.0
 11
-5.4999990000000016
 21
-5.9000000000000048
 31
0.0
  0
LINE
  5
1B10
  8
0
  6
CONTINUOUS
 62
     7
 10
3.388286000000007
 20
-5.9000000000000048
 30
0.0
 11
5.5000009999999966
 21
-5.9000000000000048
 31
0.0
  0
LINE
  5
1B11
  8
0
  6
CONTINUOUS
 62
     7
 10
6.0000009999999966
 20
3.4349160000000012
 30
0.0
 11
6.0000009999999966
 21
5.3999999999999906
 31
0.0
  0
LINE
  5
1B12
  8
0
  6
CONTINUOUS
 62
     7
 10
6.0000009999999966
 20
-3.4349160000000012
 30
0.0
 11
6.0000009999999966
 21
-5.4000000000000048
 31
0.0
  0
LINE
  5
1B13
  8
0
  6
CONTINUOUS
 62
     7
 10
-5.9999990000000016
 20
3.4349160000000012
 30
0.0
 11
-5.9999990000000016
 21
5.3999999999999906
 31
0.0
  0
ARC
  5
1B14
  8
0
  6
CONTINUOUS
 62
     7
 10
5.5000009999999966
 20
5.3999999999999906
 30
0.0
 40
0.5
 50
0.0
 51
90.0
  0
ARC
  5
1B15
  8
0
  6
CONTINUOUS
 62
     7
 10
5.5000009999999966
 20
-5.4000000000000048
 30
0.0
 40
0.5
 50
270.0
 51
0.0
  0
ARC
  5
1B16
  8
0
  6
CONTINUOUS
 62
     7
 10
-5.4999990000000016
 20
-5.4000000000000048
 30
0.0
 40
0.5
 50
180.0
 51
270.0
  0
ARC
  5
1B17
  8
0
  6
CONTINUOUS
 62
     7
 10
-5.4999990000000016
 20
5.3999999999999906
 30
0.0
 40
0.5
 50
90.0
 51
180.0
  0
LINE
  5
1B18
  8
0
  6
CONTINUOUS
 62
     7
 10
-5.9999990000000016
 20
-3.4349160000000012
 30
0.0
 11
-5.9999990000000016
 21
-5.4000000000000048
 31
0.0
  0
LINE
  5
1B19
  8
0
  6
CONTINUOUS
 62
     7
 10
42.481978000000012
 20
5.3226179999999914
 30
0.0
 11
42.381802000000008
 21
5.1077899999999943
 31
0.0
  0
LINE
  5
1B1A
  8
0
  6
CONTINUOUS
 62
     7
 10
37.518023000000007
 20
5.3226179999999914
 30
0.0
 11
37.618198999999883
 21
5.1077899999999943
 31
0.0
  0
LINE
  5
1B1B
  8
0
  6
CONTINUOUS
 62
     7
 10
45.422619000000012
 20
-2.5286080000000051
 30
0.0
 11
45.107791000000027
 21
-2.38180100000001
 31
0.0
  0
LINE
  5
1B1C
  8
0
  6
CONTINUOUS
 62
     7
 10
45.422619000000012
 20
2.5286090000000021
 30
0.0
 11
45.107791000000027
 21
2.3818019999999929
 31
0.0
  0
ARC
  5
1B1D
  8
0
  6
CONTINUOUS
 62
     7
 10
45.276837999999898
 20
-2.019277999999999
 30
0.0
 40
0.4
 50
159.05973499999951
 51
245.00000000000031
  0
LINE
  5
1B1E
  8
0
  6
CONTINUOUS
 62
     7
 10
34.577382000000007
 20
2.5286090000000021
 30
0.0
 11
34.89221000000002
 21
2.3818019999999929
 31
0.0
  0
ARC
  5
1B1F
  8
0
  6
CONTINUOUS
 62
     7
 10
45.276837999999898
 20
2.0192789999999969
 30
0.0
 40
0.4
 50
114.9999999999996
 51
200.94026500000021
  0
LINE
  5
1B20
  8
0
  6
CONTINUOUS
 62
     7
 10
34.577382000000007
 20
-2.5286080000000051
 30
0.0
 11
34.89221000000002
 21
-2.38180100000001
 31
0.0
  0
ARC
  5
1B21
  8
0
  6
CONTINUOUS
 62
     7
 10
42.019279000000019
 20
5.276837999999997
 30
0.0
 40
0.4
 50
249.0597350000005
 51
335.00000000000028
  0
LINE
  5
1B22
  8
0
  6
CONTINUOUS
 62
     7
 10
37.518023000000007
 20
-5.3226180000000047
 30
0.0
 11
37.618198999999883
 21
-5.1077900000000076
 31
0.0
  0
ARC
  5
1B23
  8
0
  6
CONTINUOUS
 62
     7
 10
37.980721999999894
 20
5.276837999999997
 30
0.0
 40
0.4
 50
204.99999999999969
 51
290.94026499999939
  0
LINE
  5
1B24
  8
0
  6
CONTINUOUS
 62
     7
 10
42.481978000000012
 20
-5.3226180000000047
 30
0.0
 11
42.381802000000008
 21
-5.1077900000000076
 31
0.0
  0
ARC
  5
1B25
  8
0
  6
CONTINUOUS
 62
     7
 10
34.7231629999999
 20
2.0192789999999969
 30
0.0
 40
0.4
 50
339.05973499999868
 51
65.000000000000313
  0
ARC
  5
1B26
  8
0
  6
CONTINUOUS
 62
     7
 10
34.7231629999999
 20
-2.019277999999999
 30
0.0
 40
0.4
 50
294.99999999999972
 51
20.940265000000529
  0
ARC
  5
1B27
  8
0
  6
CONTINUOUS
 62
     7
 10
37.980721999999894
 20
-5.2768370000000004
 30
0.0
 40
0.4
 50
69.059735000000529
 51
155.00000000000031
  0
ARC
  5
1B28
  8
0
  6
CONTINUOUS
 62
     7
 10
42.019279000000019
 20
-5.2768370000000004
 30
0.0
 40
0.4
 50
24.999999999999702
 51
110.9402649999994
  0
ARC
  5
1B29
  8
0
  6
CONTINUOUS
 62
     7
 10
43.388286000000008
 20
-4.9000000000000048
 30
0.0
 40
1.0
 50
204.99999999999969
 51
270.0
  0
ARC
  5
1B2A
  8
0
  6
CONTINUOUS
 62
     7
 10
45.000000999999891
 20
-3.4349160000000012
 30
0.0
 40
1.0
 50
0.0
 51
65.000000000000313
  0
ARC
  5
1B2B
  8
0
  6
CONTINUOUS
 62
     7
 10
45.000000999999891
 20
3.4349160000000012
 30
0.0
 40
1.0
 50
294.99999999999972
 51
0.0
  0
ARC
  5
1B2C
  8
0
  6
CONTINUOUS
 62
     7
 10
43.388286000000008
 20
4.8999999999999906
 30
0.0
 40
1.0
 50
90.0
 51
155.00000000000031
  0
ARC
  5
1B2D
  8
0
  6
CONTINUOUS
 62
     7
 10
36.611714999999883
 20
4.8999999999999906
 30
0.0
 40
1.0
 50
24.999999999999702
 51
90.0
  0
ARC
  5
1B2E
  8
0
  6
CONTINUOUS
 62
     7
 10
35.000000999999898
 20
3.4349160000000012
 30
0.0
 40
1.0
 50
180.0
 51
245.00000000000031
  0
ARC
  5
1B2F
  8
0
  6
CONTINUOUS
 62
     7
 10
35.000000999999898
 20
-3.4349160000000012
 30
0.0
 40
1.0
 50
114.9999999999996
 51
180.0
  0
ARC
  5
1B30
  8
0
  6
CONTINUOUS
 62
     7
 10
36.611714999999883
 20
-4.9000000000000048
 30
0.0
 40
1.0
 50
270.0
 51
335.00000000000028
  0
ARC
  5
1B31
  8
0
  6
CONTINUOUS
 62
     7
 10
40.000000999999891
 20
0.0
 30
0.0
 40
5.25
 50
69.059735000000529
 51
110.9402649999994
  0
ARC
  5
1B32
  8
0
  6
CONTINUOUS
 62
     7
 10
40.000000999999891
 20
0.0
 30
0.0
 40
5.25
 50
339.05973499999868
 51
20.940265000000529
  0
ARC
  5
1B33
  8
0
  6
CONTINUOUS
 62
     7
 10
40.000000999999891
 20
0.0
 30
0.0
 40
5.25
 50
159.05973499999951
 51
200.94026500000021
  0
ARC
  5
1B34
  8
0
  6
CONTINUOUS
 62
     7
 10
40.000000999999891
 20
0.0
 30
0.0
 40
5.25
 50
249.0597350000005
 51
290.94026499999939
  0
LINE
  5
1B35
  8
0
  6
CONTINUOUS
 62
     7
 10
43.388286000000008
 20
5.8999999999999906
 30
0.0
 11
45.500000999999898
 21
5.8999999999999906
 31
0.0
  0
LINE
  5
1B36
  8
0
  6
CONTINUOUS
 62
     7
 10
36.611714999999883
 20
5.8999999999999906
 30
0.0
 11
34.500000999999898
 21
5.8999999999999906
 31
0.0
  0
LINE
  5
1B37
  8
0
  6
CONTINUOUS
 62
     7
 10
36.611714999999883
 20
-5.9000000000000048
 30
0.0
 11
34.500000999999898
 21
-5.9000000000000048
 31
0.0
  0
LINE
  5
1B38
  8
0
  6
CONTINUOUS
 62
     7
 10
43.388286000000008
 20
-5.9000000000000048
 30
0.0
 11
45.500000999999898
 21
-5.9000000000000048
 31
0.0
  0
LINE
  5
1B39
  8
0
  6
CONTINUOUS
 62
     7
 10
46.000000999999898
 20
3.4349160000000012
 30
0.0
 11
46.000000999999898
 21
5.3999999999999906
 31
0.0
  0
LINE
  5
1B3A
  8
0
  6
CONTINUOUS
 62
     7
 10
46.000000999999898
 20
-3.4349160000000012
 30
0.0
 11
46.000000999999898
 21
-5.4000000000000048
 31
0.0
  0
LINE
  5
1B3B
  8
0
  6
CONTINUOUS
 62
     7
 10
34.000000999999898
 20
3.4349160000000012
 30
0.0
 11
34.000000999999898
 21
5.3999999999999906
 31
0.0
  0
ARC
  5
1B3C
  8
0
  6
CONTINUOUS
 62
     7
 10
45.500000999999898
 20
5.3999999999999906
 30
0.0
 40
0.5
 50
0.0
 51
90.0
  0
ARC
  5
1B3D
  8
0
  6
CONTINUOUS
 62
     7
 10
45.500000999999898
 20
-5.4000000000000048
 30
0.0
 40
0.5
 50
270.0
 51
0.0
  0
ARC
  5
1B3E
  8
0
  6
CONTINUOUS
 62
     7
 10
34.500000999999898
 20
-5.4000000000000048
 30
0.0
 40
0.5
 50
180.0
 51
270.0
  0
ARC
  5
1B3F
  8
0
  6
CONTINUOUS
 62
     7
 10
34.500000999999898
 20
5.3999999999999906
 30
0.0
 40
0.5
 50
90.0
 51
180.0
  0
LINE
  5
1B40
  8
0
  6
CONTINUOUS
 62
     7
 10
34.000000999999898
 20
-3.4349160000000012
 30
0.0
 11
34.000000999999898
 21
-5.4000000000000048
 31
0.0
  0
ARC
  5
1B41
  8
0
  6
CONTINUOUS
 62
     7
 10
33.000000999999898
 20
-1.6583120000000089
 30
0.0
 40
0.5
 50
146.4426900000002
 51
180.0
  0
LINE
  5
1B42
  8
0
  6
CONTINUOUS
 62
     7
 10
32.500000999999898
 20
1.6583129999999919
 30
0.0
 11
32.500000999999898
 21
6.0251260000000002
 31
0.0
  0
ARC
  5
1B43
  8
0
  6
CONTINUOUS
 62
     7
 10
30.500000999999902
 20
0.0
 30
0.0
 40
2.5
 50
326.4426900000002
 51
33.557309999999802
  0
ARC
  5
1B44
  8
0
  6
CONTINUOUS
 62
     7
 10
33.000000999999898
 20
1.6583129999999919
 30
0.0
 40
0.5
 50
180.0
 51
213.5573099999998
  0
ARC
  5
1B45
  8
0
  6
CONTINUOUS
 62
     7
 10
7.0000010000000108
 20
1.6583129999999919
 30
0.0
 40
0.5
 50
326.4426900000002
 51
0.0
  0
LINE
  5
1B46
  8
0
  6
CONTINUOUS
 62
     7
 10
7.5000010000000108
 20
-1.6583120000000089
 30
0.0
 11
7.5000010000000108
 21
-6.0251260000000002
 31
0.0
  0
ARC
  5
1B47
  8
0
  6
CONTINUOUS
 62
     7
 10
9.5000010000000117
 20
0.0
 30
0.0
 40
2.5
 50
146.4426900000002
 51
213.5573099999998
  0
ARC
  5
1B48
  8
0
  6
CONTINUOUS
 62
     7
 10
7.0000010000000108
 20
-1.6583120000000089
 30
0.0
 40
0.5
 50
0.0
 51
33.557309999999802
  0
ARC
  5
1B49
  8
0
  6
CONTINUOUS
 62
     7
 10
-6.9999990000000016
 20
-1.6583120000000089
 30
0.0
 40
0.5
 50
146.4426900000002
 51
180.0
  0
LINE
  5
1B4A
  8
0
  6
CONTINUOUS
 62
     7
 10
-7.4999990000000016
 20
1.6583129999999919
 30
0.0
 11
-7.4999990000000016
 21
6.0251260000000002
 31
0.0
  0
ARC
  5
1B4B
  8
0
  6
CONTINUOUS
 62
     7
 10
-9.4999990000000025
 20
0.0
 30
0.0
 40
2.5
 50
326.4426900000002
 51
33.557309999999802
  0
ARC
  5
1B4C
  8
0
  6
CONTINUOUS
 62
     7
 10
-6.9999990000000016
 20
1.6583129999999919
 30
0.0
 40
0.5
 50
180.0
 51
213.5573099999998
  0
ARC
  5
1B4D
  8
0
  6
CONTINUOUS
 62
     7
 10
-32.999999000000003
 20
1.6583129999999919
 30
0.0
 40
0.5
 50
326.4426900000002
 51
0.0
  0
LINE
  5
1B4E
  8
0
  6
CONTINUOUS
 62
     7
 10
-32.499998999999967
 20
-1.6583120000000089
 30
0.0
 11
-32.499998999999967
 21
-6.0251260000000002
 31
0.0
  0
ARC
  5
1B4F
  8
0
  6
CONTINUOUS
 62
     7
 10
-30.499998999999999
 20
0.0
 30
0.0
 40
2.5
 50
146.4426900000002
 51
213.5573099999998
  0
ARC
  5
1B50
  8
0
  6
CONTINUOUS
 62
     7
 10
-32.999999000000003
 20
-1.6583120000000089
 30
0.0
 40
0.5
 50
0.0
 51
33.557309999999802
  0
ARC
  5
1B51
  8
0
  6
CONTINUOUS
 62
     7
 10
31.500000999999902
 20
6.0251260000000002
 30
0.0
 40
1.0
 50
0.0
 51
44.999999999999417
  0
ARC
  5
1B52
  8
0
  6
CONTINUOUS
 62
     7
 10
29.000000999999902
 20
11.353554000000001
 30
0.0
 40
1.0
 50
180.0
 51
224.9999999999994
  0
ARC
  5
1B53
  8
0
  6
CONTINUOUS
 62
     7
 10
11.00000100000001
 20
11.353554000000001
 30
0.0
 40
1.0
 50
315.00000000000063
 51
0.0
  0
ARC
  5
1B54
  8
0
  6
CONTINUOUS
 62
     7
 10
8.5000010000000117
 20
6.0251260000000002
 30
0.0
 40
1.0
 50
135.00000000000051
 51
180.0
  0
LINE
  5
1B55
  8
0
  6
CONTINUOUS
 62
     7
 10
27.000000999999902
 20
17.29999999999999
 30
0.0
 11
13.00000100000001
 21
17.29999999999999
 31
0.0
  0
LINE
  5
1B56
  8
0
  6
CONTINUOUS
 62
     7
 10
13.00000100000001
 20
-17.299999999999979
 30
0.0
 11
27.000000999999902
 21
-17.299999999999979
 31
0.0
  0
ARC
  5
1B57
  8
0
  6
CONTINUOUS
 62
     7
 10
27.000000999999902
 20
-16.299999999999979
 30
0.0
 40
1.0
 50
270.0
 51
0.0
  0
ARC
  5
1B58
  8
0
  6
CONTINUOUS
 62
     7
 10
13.00000100000001
 20
-16.299999999999979
 30
0.0
 40
1.0
 50
180.0
 51
270.0
  0
ARC
  5
1B59
  8
0
  6
CONTINUOUS
 62
     7
 10
13.00000100000001
 20
16.300000000000001
 30
0.0
 40
1.0
 50
90.0
 51
180.0
  0
ARC
  5
1B5A
  8
0
  6
CONTINUOUS
 62
     7
 10
27.000000999999902
 20
16.300000000000001
 30
0.0
 40
1.0
 50
0.0
 51
90.0
  0
LINE
  5
1B5B
  8
0
  6
CONTINUOUS
 62
     7
 10
-11.999999000000001
 20
16.300000000000001
 30
0.0
 11
-11.999999000000001
 21
11.353554000000001
 31
0.0
  0
LINE
  5
1B5C
  8
0
  6
CONTINUOUS
 62
     7
 10
-7.7928929999999923
 20
6.7322329999999928
 30
0.0
 11
-11.707105999999991
 21
10.64644699999999
 31
0.0
  0
LINE
  5
1B5D
  8
0
  6
CONTINUOUS
 62
     7
 10
-27.999998999999999
 20
16.300000000000001
 30
0.0
 11
-27.999998999999999
 21
11.353554000000001
 31
0.0
  0
LINE
  5
1B5E
  8
0
  6
CONTINUOUS
 62
     7
 10
-28.292892999999982
 20
10.64644699999999
 30
0.0
 11
-32.207106000000003
 21
6.7322329999999928
 31
0.0
  0
LINE
  5
1B5F
  8
0
  6
CONTINUOUS
 62
     7
 10
-32.207106000000003
 20
-6.732233000000007
 30
0.0
 11
-28.292892999999982
 21
-10.646445999999999
 31
0.0
  0
LINE
  5
1B60
  8
0
  6
CONTINUOUS
 62
     7
 10
-27.999998999999999
 20
-16.299999999999979
 30
0.0
 11
-27.999998999999999
 21
-11.353553
 31
0.0
  0
LINE
  5
1B61
  8
0
  6
CONTINUOUS
 62
     7
 10
-11.999999000000001
 20
-16.299999999999979
 30
0.0
 11
-11.999999000000001
 21
-11.353553
 31
0.0
  0
LINE
  5
1B62
  8
0
  6
CONTINUOUS
 62
     7
 10
-11.707105999999991
 20
-10.646445999999999
 30
0.0
 11
-7.7928929999999923
 21
-6.732233000000007
 31
0.0
  0
ARC
  5
1B63
  8
0
  6
CONTINUOUS
 62
     7
 10
-8.4999990000000025
 20
-6.0251260000000002
 30
0.0
 40
1.0
 50
315.00000000000063
 51
0.0
  0
ARC
  5
1B64
  8
0
  6
CONTINUOUS
 62
     7
 10
-10.999999000000001
 20
-11.353553
 30
0.0
 40
1.0
 50
135.00000000000051
 51
180.0
  0
ARC
  5
1B65
  8
0
  6
CONTINUOUS
 62
     7
 10
-28.999998999999999
 20
-11.353553
 30
0.0
 40
1.0
 50
0.0
 51
44.999999999999417
  0
ARC
  5
1B66
  8
0
  6
CONTINUOUS
 62
     7
 10
-31.499998999999999
 20
-6.0251260000000002
 30
0.0
 40
1.0
 50
180.0
 51
224.9999999999994
  0
ARC
  5
1B67
  8
0
  6
CONTINUOUS
 62
     7
 10
-31.499998999999999
 20
6.0251260000000002
 30
0.0
 40
1.0
 50
135.00000000000051
 51
180.0
  0
ARC
  5
1B68
  8
0
  6
CONTINUOUS
 62
     7
 10
-28.999998999999999
 20
11.353554000000001
 30
0.0
 40
1.0
 50
315.00000000000063
 51
0.0
  0
ARC
  5
1B69
  8
0
  6
CONTINUOUS
 62
     7
 10
-10.999999000000001
 20
11.353554000000001
 30
0.0
 40
1.0
 50
180.0
 51
224.9999999999994
  0
ARC
  5
1B6A
  8
0
  6
CONTINUOUS
 62
     7
 10
-8.4999990000000025
 20
6.0251260000000002
 30
0.0
 40
1.0
 50
0.0
 51
44.999999999999417
  0
LINE
  5
1B6B
  8
0
  6
CONTINUOUS
 62
     7
 10
-26.999998999999981
 20
17.29999999999999
 30
0.0
 11
-12.999999000000001
 21
17.29999999999999
 31
0.0
  0
LINE
  5
1B6C
  8
0
  6
CONTINUOUS
 62
     7
 10
-12.999999000000001
 20
-17.299999999999979
 30
0.0
 11
-26.999998999999981
 21
-17.299999999999979
 31
0.0
  0
ARC
  5
1B6D
  8
0
  6
CONTINUOUS
 62
     7
 10
-26.999998999999981
 20
-16.299999999999979
 30
0.0
 40
1.0
 50
180.0
 51
270.0
  0
ARC
  5
1B6E
  8
0
  6
CONTINUOUS
 62
     7
 10
-12.999999000000001
 20
-16.299999999999979
 30
0.0
 40
1.0
 50
270.0
 51
0.0
  0
ARC
  5
1B6F
  8
0
  6
CONTINUOUS
 62
     7
 10
-12.999999000000001
 20
16.300000000000001
 30
0.0
 40
1.0
 50
0.0
 51
90.0
  0
ARC
  5
1B70
  8
0
  6
CONTINUOUS
 62
     7
 10
-26.999998999999981
 20
16.300000000000001
 30
0.0
 40
1.0
 50
90.0
 51
180.0
  0
LINE
  5
1B71
  8
0
  6
CONTINUOUS
 62
     7
 10
-32.499998999999967
 20
1.6583129999999919
 30
0.0
 11
-32.499998999999967
 21
6.0251260000000002
 31
0.0
  0
LINE
  5
1B72
  8
0
  6
CONTINUOUS
 62
     7
 10
-7.4999990000000016
 20
-1.6583120000000089
 30
0.0
 11
-7.4999990000000016
 21
-6.0251260000000002
 31
0.0
  0
LINE
  5
1B73
  8
0
  6
CONTINUOUS
 62
     7
 10
-49.999998999999981
 20
11.76776699999999
 30
0.0
 11
-49.999998999999981
 21
14.5
 31
0.0
  0
LINE
  5
1B74
  8
0
  6
CONTINUOUS
 62
     7
 10
-29.999998999999971
 20
11.76776699999999
 30
0.0
 11
-29.999998999999971
 21
14.5
 31
0.0
  0
LINE
  5
1B75
  8
0
  6
CONTINUOUS
 62
     7
 10
-49.999998999999981
 20
-11.767766999999999
 30
0.0
 11
-49.999998999999981
 21
-14.49999999999998
 31
0.0
  0
LINE
  5
1B76
  8
0
  6
CONTINUOUS
 62
     7
 10
-29.999998999999971
 20
-11.767766999999999
 30
0.0
 11
-29.999998999999971
 21
-14.49999999999998
 31
0.0
  0
LINE
  5
1B77
  8
0
  6
CONTINUOUS
 62
     7
 10
-34.999998999999967
 20
19.699999999999999
 30
0.0
 11
-34.999998999999967
 21
14.79999999999999
 31
0.0
  0
ARC
  5
1B78
  8
0
  6
CONTINUOUS
 62
     7
 10
-34.699998999999991
 20
19.699999999999999
 30
0.0
 40
0.3
 50
90.0
 51
180.0
  0
LINE
  5
1B79
  8
0
  6
CONTINUOUS
 62
     7
 10
-45.299998999999993
 20
19.999999999999979
 30
0.0
 11
-56.999999000000003
 21
19.999999999999979
 31
0.0
  0
LINE
  5
1B7A
  8
0
  6
CONTINUOUS
 62
     7
 10
-45.299998999999993
 20
14.5
 30
0.0
 11
-49.999998999999981
 21
14.5
 31
0.0
  0
ARC
  5
1B7B
  8
0
  6
CONTINUOUS
 62
     7
 10
-45.299998999999993
 20
14.79999999999999
 30
0.0
 40
0.3
 50
270.0
 51
0.0
  0
LINE
  5
1B7C
  8
0
  6
CONTINUOUS
 62
     7
 10
-34.699998999999991
 20
19.999999999999979
 30
0.0
 11
-5.2999989999999988
 21
19.999999999999979
 31
0.0
  0
LINE
  5
1B7D
  8
0
  6
CONTINUOUS
 62
     7
 10
-34.699998999999977
 20
14.5
 30
0.0
 11
-29.999998999999971
 21
14.5
 31
0.0
  0
ARC
  5
1B7E
  8
0
  6
CONTINUOUS
 62
     7
 10
-34.699998999999977
 20
14.79999999999999
 30
0.0
 40
0.3
 50
180.0
 51
270.0
  0
LINE
  5
1B7F
  8
0
  6
CONTINUOUS
 62
     7
 10
-45.299998999999993
 20
-19.999999999999979
 30
0.0
 11
-56.999999000000003
 21
-19.999999999999979
 31
0.0
  0
ARC
  5
1B80
  8
0
  6
CONTINUOUS
 62
     7
 10
-45.299998999999993
 20
-19.699999999999989
 30
0.0
 40
0.3
 50
270.0
 51
0.0
  0
LINE
  5
1B81
  8
0
  6
CONTINUOUS
 62
     7
 10
-45.299998999999993
 20
-14.49999999999998
 30
0.0
 11
-49.999998999999981
 21
-14.49999999999998
 31
0.0
  0
LINE
  5
1B82
  8
0
  6
CONTINUOUS
 62
     7
 10
-34.699998999999991
 20
-19.999999999999979
 30
0.0
 11
-5.2999989999999988
 21
-19.999999999999979
 31
0.0
  0
ARC
  5
1B83
  8
0
  6
CONTINUOUS
 62
     7
 10
-5.2999989999999988
 20
-19.699999999999999
 30
0.0
 40
0.3
 50
270.0
 51
0.0
  0
ARC
  5
1B84
  8
0
  6
CONTINUOUS
 62
     7
 10
-34.699998999999991
 20
-19.699999999999999
 30
0.0
 40
0.3
 50
180.0
 51
270.0
  0
LINE
  5
1B85
  8
0
  6
CONTINUOUS
 62
     7
 10
-34.699998999999991
 20
-14.49999999999998
 30
0.0
 11
-29.999998999999971
 21
-14.49999999999998
 31
0.0
  0
LINE
  5
1B86
  8
0
  6
CONTINUOUS
 62
     7
 10
-59.999998999999981
 20
5.2999999999999972
 30
0.0
 11
-59.999998999999981
 21
16.999999999999979
 31
0.0
  0
LINE
  5
1B87
  8
0
  6
CONTINUOUS
 62
     7
 10
-59.999998999999981
 20
-5.2999999999999972
 30
0.0
 11
-59.999998999999981
 21
-16.999999999999979
 31
0.0
  0
LINE
  5
1B88
  8
0
  6
CONTINUOUS
 62
     7
 10
-54.499999000000003
 20
5.2999999999999972
 30
0.0
 11
-54.499999000000003
 21
10.0
 31
0.0
  0
LINE
  5
1B89
  8
0
  6
CONTINUOUS
 62
     7
 10
-54.499999000000003
 20
-5.2999999999999972
 30
0.0
 11
-54.499999000000003
 21
-10.0
 31
0.0
  0
ARC
  5
1B8A
  8
0
  6
CONTINUOUS
 62
     7
 10
-54.799998999999993
 20
-5.2999999999999972
 30
0.0
 40
0.3
 50
0.0
 51
90.0
  0
ARC
  5
1B8B
  8
0
  6
CONTINUOUS
 62
     7
 10
-56.999999000000003
 20
16.999999999999979
 30
0.0
 40
3.0
 50
90.0
 51
180.0
  0
ARC
  5
1B8C
  8
0
  6
CONTINUOUS
 62
     7
 10
-56.999999000000003
 20
-16.999999999999979
 30
0.0
 40
3.0
 50
180.0
 51
270.0
  0
LINE
  5
1B8D
  8
0
  6
CONTINUOUS
 62
     7
 10
-45.732232000000003
 20
7.5
 30
0.0
 11
-49.999998999999981
 21
11.76776699999999
 31
0.0
  0
LINE
  5
1B8E
  8
0
  6
CONTINUOUS
 62
     7
 10
-34.26776599999998
 20
-7.5
 30
0.0
 11
-29.999998999999971
 21
-11.767766999999999
 31
0.0
  0
LINE
  5
1B8F
  8
0
  6
CONTINUOUS
 62
     7
 10
-47.499998999999981
 20
5.7322329999999928
 30
0.0
 11
-51.767766000000002
 21
10.0
 31
0.0
  0
LINE
  5
1B90
  8
0
  6
CONTINUOUS
 62
     7
 10
-45.732232000000003
 20
-7.5
 30
0.0
 11
-49.999998999999981
 21
-11.767766999999999
 31
0.0
  0
LINE
  5
1B91
  8
0
  6
CONTINUOUS
 62
     7
 10
-47.499998999999981
 20
-5.732233000000007
 30
0.0
 11
-51.767766000000002
 21
-10.0
 31
0.0
  0
LINE
  5
1B92
  8
0
  6
CONTINUOUS
 62
     7
 10
-34.26776599999998
 20
7.5
 30
0.0
 11
-29.999998999999971
 21
11.76776699999999
 31
0.0
  0
LINE
  5
1B93
  8
0
  6
CONTINUOUS
 62
     7
 10
-54.499999000000003
 20
10.0
 30
0.0
 11
-51.767766000000002
 21
10.0
 31
0.0
  0
LINE
  5
1B94
  8
0
  6
CONTINUOUS
 62
     7
 10
-54.499999000000003
 20
-10.0
 30
0.0
 11
-51.767766000000002
 21
-10.0
 31
0.0
  0
LINE
  5
1B95
  8
0
  6
CONTINUOUS
 62
     7
 10
-9.9999990000000025
 20
11.76776699999999
 30
0.0
 11
-9.9999990000000025
 21
14.5
 31
0.0
  0
LINE
  5
1B96
  8
0
  6
CONTINUOUS
 62
     7
 10
-9.9999990000000025
 20
-11.767766999999999
 30
0.0
 11
-9.9999990000000025
 21
-14.49999999999998
 31
0.0
  0
LINE
  5
1B97
  8
0
  6
CONTINUOUS
 62
     7
 10
-5.2999989999999988
 20
14.5
 30
0.0
 11
-9.9999990000000025
 21
14.5
 31
0.0
  0
ARC
  5
1B98
  8
0
  6
CONTINUOUS
 62
     7
 10
-5.2999989999999988
 20
14.79999999999999
 30
0.0
 40
0.3
 50
270.0
 51
0.0
  0
LINE
  5
1B99
  8
0
  6
CONTINUOUS
 62
     7
 10
-5.2999989999999988
 20
-14.49999999999998
 30
0.0
 11
-9.9999990000000025
 21
-14.49999999999998
 31
0.0
  0
LINE
  5
1B9A
  8
0
  6
CONTINUOUS
 62
     7
 10
-5.7322319999999962
 20
7.5
 30
0.0
 11
-9.9999990000000025
 21
11.76776699999999
 31
0.0
  0
LINE
  5
1B9B
  8
0
  6
CONTINUOUS
 62
     7
 10
-5.7322319999999962
 20
-7.5
 30
0.0
 11
-9.9999990000000025
 21
-11.767766999999999
 31
0.0
  0
LINE
  5
1B9C
  8
0
  6
CONTINUOUS
 62
     7
 10
-44.999999000000003
 20
-19.699999999999989
 30
0.0
 11
-44.999998999999981
 21
-14.799999999999979
 31
0.0
  0
ARC
  5
1B9D
  8
0
  6
CONTINUOUS
 62
     7
 10
-45.299998999999993
 20
-14.799999999999979
 30
0.0
 40
0.3
 50
0.0
 51
90.0
  0
LINE
  5
1B9E
  8
0
  6
CONTINUOUS
 62
     7
 10
-34.999998999999967
 20
-14.799999999999979
 30
0.0
 11
-34.999998999999967
 21
-19.699999999999999
 31
0.0
  0
ARC
  5
1B9F
  8
0
  6
CONTINUOUS
 62
     7
 10
-34.699998999999991
 20
-14.799999999999979
 30
0.0
 40
0.3
 50
90.0
 51
180.0
  0
LINE
  5
1BA0
  8
0
  6
CONTINUOUS
 62
     7
 10
-59.699998999999991
 20
5.0
 30
0.0
 11
-54.799998999999993
 21
5.0
 31
0.0
  0
ARC
  5
1BA1
  8
0
  6
CONTINUOUS
 62
     7
 10
-54.799998999999993
 20
5.2999999999999972
 30
0.0
 40
0.3
 50
270.0
 51
0.0
  0
ARC
  5
1BA2
  8
0
  6
CONTINUOUS
 62
     7
 10
-59.699998999999991
 20
5.2999999999999972
 30
0.0
 40
0.3
 50
180.0
 51
270.0
  0
LINE
  5
1BA3
  8
0
  6
CONTINUOUS
 62
     7
 10
-54.799998999999993
 20
-5.0
 30
0.0
 11
-59.699998999999991
 21
-5.0
 31
0.0
  0
ARC
  5
1BA4
  8
0
  6
CONTINUOUS
 62
     7
 10
-59.699998999999991
 20
-5.2999999999999972
 30
0.0
 40
0.3
 50
90.0
 51
180.0
  0
LINE
  5
1BA5
  8
0
  6
CONTINUOUS
 62
     7
 10
-4.9999990000000016
 20
14.79999999999999
 30
0.0
 11
-4.9999990000000016
 21
19.699999999999999
 31
0.0
  0
ARC
  5
1BA6
  8
0
  6
CONTINUOUS
 62
     7
 10
-5.2999989999999988
 20
19.699999999999999
 30
0.0
 40
0.3
 50
0.0
 51
90.0
  0
LINE
  5
1BA7
  8
0
  6
CONTINUOUS
 62
     7
 10
-4.9999990000000016
 20
-19.699999999999999
 30
0.0
 11
-4.9999990000000016
 21
-14.799999999999979
 31
0.0
  0
ARC
  5
1BA8
  8
0
  6
CONTINUOUS
 62
     7
 10
-5.2999989999999988
 20
-14.799999999999979
 30
0.0
 40
0.3
 50
0.0
 51
90.0
  0
LINE
  5
1BA9
  8
0
  6
CONTINUOUS
 62
     7
 10
-44.999998999999981
 20
14.79999999999999
 30
0.0
 11
-44.999998999999981
 21
19.699999999999999
 31
0.0
  0
ARC
  5
1BAA
  8
0
  6
CONTINUOUS
 62
     7
 10
-45.299998999999993
 20
19.699999999999999
 30
0.0
 40
0.3
 50
0.0
 51
90.0
  0
LINE
  5
1BAB
  8
0
  6
CONTINUOUS
 62
     7
 10
50.000000999999898
 20
11.76776699999999
 30
0.0
 11
50.000000999999898
 21
14.5
 31
0.0
  0
LINE
  5
1BAC
  8
0
  6
CONTINUOUS
 62
     7
 10
30.000000999999902
 20
11.76776699999999
 30
0.0
 11
30.000000999999902
 21
14.5
 31
0.0
  0
LINE
  5
1BAD
  8
0
  6
CONTINUOUS
 62
     7
 10
50.000000999999898
 20
-11.767766999999999
 30
0.0
 11
50.000000999999898
 21
-14.49999999999998
 31
0.0
  0
LINE
  5
1BAE
  8
0
  6
CONTINUOUS
 62
     7
 10
30.000000999999902
 20
-11.767766999999999
 30
0.0
 11
30.000000999999902
 21
-14.49999999999998
 31
0.0
  0
LINE
  5
1BAF
  8
0
  6
CONTINUOUS
 62
     7
 10
35.000000999999898
 20
19.699999999999999
 30
0.0
 11
35.000001000000012
 21
14.79999999999999
 31
0.0
  0
LINE
  5
1BB0
  8
0
  6
CONTINUOUS
 62
     7
 10
45.300000999999881
 20
19.999999999999979
 30
0.0
 11
57.000000999999891
 21
19.999999999999979
 31
0.0
  0
LINE
  5
1BB1
  8
0
  6
CONTINUOUS
 62
     7
 10
45.300000999999881
 20
14.5
 30
0.0
 11
50.000000999999898
 21
14.5
 31
0.0
  0
ARC
  5
1BB2
  8
0
  6
CONTINUOUS
 62
     7
 10
45.300000999999881
 20
14.79999999999999
 30
0.0
 40
0.3
 50
180.0
 51
270.0
  0
LINE
  5
1BB3
  8
0
  6
CONTINUOUS
 62
     7
 10
34.700000999999887
 20
19.999999999999979
 30
0.0
 11
5.300001000000008
 21
19.999999999999979
 31
0.0
  0
ARC
  5
1BB4
  8
0
  6
CONTINUOUS
 62
     7
 10
34.700000999999887
 20
19.699999999999999
 30
0.0
 40
0.3
 50
0.0
 51
90.0
  0
LINE
  5
1BB5
  8
0
  6
CONTINUOUS
 62
     7
 10
34.700001000000029
 20
14.5
 30
0.0
 11
30.000000999999902
 21
14.5
 31
0.0
  0
ARC
  5
1BB6
  8
0
  6
CONTINUOUS
 62
     7
 10
34.700001000000029
 20
14.79999999999999
 30
0.0
 40
0.3
 50
270.0
 51
0.0
  0
LINE
  5
1BB7
  8
0
  6
CONTINUOUS
 62
     7
 10
45.300000999999881
 20
-19.999999999999979
 30
0.0
 11
57.000000999999891
 21
-19.999999999999979
 31
0.0
  0
ARC
  5
1BB8
  8
0
  6
CONTINUOUS
 62
     7
 10
45.300000999999881
 20
-19.699999999999989
 30
0.0
 40
0.3
 50
180.0
 51
270.0
  0
LINE
  5
1BB9
  8
0
  6
CONTINUOUS
 62
     7
 10
45.300000999999881
 20
-14.49999999999998
 30
0.0
 11
50.000000999999898
 21
-14.49999999999998
 31
0.0
  0
LINE
  5
1BBA
  8
0
  6
CONTINUOUS
 62
     7
 10
34.700000999999887
 20
-19.999999999999979
 30
0.0
 11
5.300001000000008
 21
-19.999999999999979
 31
0.0
  0
ARC
  5
1BBB
  8
0
  6
CONTINUOUS
 62
     7
 10
34.700000999999887
 20
-19.699999999999999
 30
0.0
 40
0.3
 50
270.0
 51
0.0
  0
ARC
  5
1BBC
  8
0
  6
CONTINUOUS
 62
     7
 10
5.300001000000008
 20
-19.699999999999999
 30
0.0
 40
0.3
 50
180.0
 51
270.0
  0
LINE
  5
1BBD
  8
0
  6
CONTINUOUS
 62
     7
 10
34.700001000000029
 20
-14.49999999999998
 30
0.0
 11
30.000000999999902
 21
-14.49999999999998
 31
0.0
  0
ARC
  5
1BBE
  8
0
  6
CONTINUOUS
 62
     7
 10
34.700001000000029
 20
-14.799999999999979
 30
0.0
 40
0.3
 50
0.0
 51
90.0
  0
LINE
  5
1BBF
  8
0
  6
CONTINUOUS
 62
     7
 10
60.000000999999898
 20
5.2999999999999972
 30
0.0
 11
60.000000999999898
 21
16.999999999999979
 31
0.0
  0
LINE
  5
1BC0
  8
0
  6
CONTINUOUS
 62
     7
 10
60.000000999999898
 20
-5.2999999999999972
 30
0.0
 11
60.000000999999898
 21
-16.999999999999979
 31
0.0
  0
ARC
  5
1BC1
  8
0
  6
CONTINUOUS
 62
     7
 10
59.700000999999922
 20
-5.2999999999999972
 30
0.0
 40
0.3
 50
0.0
 51
90.0
  0
LINE
  5
1BC2
  8
0
  6
CONTINUOUS
 62
     7
 10
54.500000999999891
 20
5.2999999999999972
 30
0.0
 11
54.500000999999891
 21
10.0
 31
0.0
  0
LINE
  5
1BC3
  8
0
  6
CONTINUOUS
 62
     7
 10
54.500000999999891
 20
-5.2999999999999972
 30
0.0
 11
54.500000999999891
 21
-10.0
 31
0.0
  0
ARC
  5
1BC4
  8
0
  6
CONTINUOUS
 62
     7
 10
54.800000999999902
 20
-5.2999999999999972
 30
0.0
 40
0.3
 50
90.0
 51
180.0
  0
ARC
  5
1BC5
  8
0
  6
CONTINUOUS
 62
     7
 10
57.000000999999891
 20
16.999999999999979
 30
0.0
 40
3.0
 50
0.0
 51
90.0
  0
ARC
  5
1BC6
  8
0
  6
CONTINUOUS
 62
     7
 10
57.000000999999891
 20
-16.999999999999979
 30
0.0
 40
3.0
 50
270.0
 51
0.0
  0
LINE
  5
1BC7
  8
0
  6
CONTINUOUS
 62
     7
 10
45.73223400000002
 20
7.5
 30
0.0
 11
50.000000999999898
 21
11.76776699999999
 31
0.0
  0
LINE
  5
1BC8
  8
0
  6
CONTINUOUS
 62
     7
 10
34.267768000000032
 20
-7.5
 30
0.0
 11
30.000000999999902
 21
-11.767766999999999
 31
0.0
  0
LINE
  5
1BC9
  8
0
  6
CONTINUOUS
 62
     7
 10
47.500000999999891
 20
5.7322329999999928
 30
0.0
 11
51.767768000000032
 21
10.0
 31
0.0
  0
LINE
  5
1BCA
  8
0
  6
CONTINUOUS
 62
     7
 10
45.73223400000002
 20
-7.5
 30
0.0
 11
50.000000999999898
 21
-11.767766999999999
 31
0.0
  0
LINE
  5
1BCB
  8
0
  6
CONTINUOUS
 62
     7
 10
47.500000999999891
 20
-5.732233000000007
 30
0.0
 11
51.767768000000032
 21
-10.0
 31
0.0
  0
LINE
  5
1BCC
  8
0
  6
CONTINUOUS
 62
     7
 10
34.267768000000032
 20
7.5
 30
0.0
 11
30.000000999999902
 21
11.76776699999999
 31
0.0
  0
LINE
  5
1BCD
  8
0
  6
CONTINUOUS
 62
     7
 10
54.500000999999891
 20
10.0
 30
0.0
 11
51.767768000000032
 21
10.0
 31
0.0
  0
LINE
  5
1BCE
  8
0
  6
CONTINUOUS
 62
     7
 10
54.500000999999891
 20
-10.0
 30
0.0
 11
51.767768000000032
 21
-10.0
 31
0.0
  0
LINE
  5
1BCF
  8
0
  6
CONTINUOUS
 62
     7
 10
10.00000100000001
 20
11.76776699999999
 30
0.0
 11
10.00000100000001
 21
14.5
 31
0.0
  0
LINE
  5
1BD0
  8
0
  6
CONTINUOUS
 62
     7
 10
10.00000100000001
 20
-11.767766999999999
 30
0.0
 11
10.00000100000001
 21
-14.49999999999998
 31
0.0
  0
LINE
  5
1BD1
  8
0
  6
CONTINUOUS
 62
     7
 10
5.300001000000008
 20
14.5
 30
0.0
 11
10.00000100000001
 21
14.5
 31
0.0
  0
ARC
  5
1BD2
  8
0
  6
CONTINUOUS
 62
     7
 10
5.300001000000008
 20
14.79999999999999
 30
0.0
 40
0.3
 50
180.0
 51
270.0
  0
LINE
  5
1BD3
  8
0
  6
CONTINUOUS
 62
     7
 10
5.300001000000008
 20
-14.49999999999998
 30
0.0
 11
10.00000100000001
 21
-14.49999999999998
 31
0.0
  0
LINE
  5
1BD4
  8
0
  6
CONTINUOUS
 62
     7
 10
5.7322340000000054
 20
7.5
 30
0.0
 11
10.00000100000001
 21
11.76776699999999
 31
0.0
  0
LINE
  5
1BD5
  8
0
  6
CONTINUOUS
 62
     7
 10
5.7322340000000054
 20
-7.5
 30
0.0
 11
10.00000100000001
 21
-11.767766999999999
 31
0.0
  0
LINE
  5
1BD6
  8
0
  6
CONTINUOUS
 62
     7
 10
45.000000999999891
 20
-19.699999999999989
 30
0.0
 11
45.000000999999891
 21
-14.799999999999979
 31
0.0
  0
ARC
  5
1BD7
  8
0
  6
CONTINUOUS
 62
     7
 10
45.300000999999881
 20
-14.799999999999979
 30
0.0
 40
0.3
 50
90.0
 51
180.0
  0
LINE
  5
1BD8
  8
0
  6
CONTINUOUS
 62
     7
 10
35.000001000000012
 20
-14.799999999999979
 30
0.0
 11
35.000000999999898
 21
-19.699999999999999
 31
0.0
  0
LINE
  5
1BD9
  8
0
  6
CONTINUOUS
 62
     7
 10
59.700000999999922
 20
5.0
 30
0.0
 11
54.800000999999902
 21
5.0
 31
0.0
  0
ARC
  5
1BDA
  8
0
  6
CONTINUOUS
 62
     7
 10
54.800000999999902
 20
5.2999999999999972
 30
0.0
 40
0.3
 50
180.0
 51
270.0
  0
ARC
  5
1BDB
  8
0
  6
CONTINUOUS
 62
     7
 10
59.700000999999922
 20
5.2999999999999972
 30
0.0
 40
0.3
 50
270.0
 51
0.0
  0
LINE
  5
1BDC
  8
0
  6
CONTINUOUS
 62
     7
 10
54.800000999999902
 20
-5.0
 30
0.0
 11
59.700000999999922
 21
-5.0
 31
0.0
  0
LINE
  5
1BDD
  8
0
  6
CONTINUOUS
 62
     7
 10
5.0000009999999966
 20
14.79999999999999
 30
0.0
 11
5.0000009999999966
 21
19.699999999999999
 31
0.0
  0
ARC
  5
1BDE
  8
0
  6
CONTINUOUS
 62
     7
 10
5.300001000000008
 20
19.699999999999999
 30
0.0
 40
0.3
 50
90.0
 51
180.0
  0
LINE
  5
1BDF
  8
0
  6
CONTINUOUS
 62
     7
 10
5.0000009999999966
 20
-19.699999999999999
 30
0.0
 11
5.0000009999999966
 21
-14.799999999999979
 31
0.0
  0
ARC
  5
1BE0
  8
0
  6
CONTINUOUS
 62
     7
 10
5.300001000000008
 20
-14.799999999999979
 30
0.0
 40
0.3
 50
90.0
 51
180.0
  0
LINE
  5
1BE1
  8
0
  6
CONTINUOUS
 62
     7
 10
45.000000999999891
 20
14.79999999999999
 30
0.0
 11
45.000000999999891
 21
19.699999999999999
 31
0.0
  0
ARC
  5
1BE2
  8
0
  6
CONTINUOUS
 62
     7
 10
45.300000999999881
 20
19.699999999999999
 30
0.0
 40
0.3
 50
90.0
 51
180.0
  0
LINE
  5
1BE3
  8
0
  6
CONTINUOUS
 62
     7
 10
32.500000999999898
 20
-1.6583120000000089
 30
0.0
 11
32.500000999999898
 21
-6.0251260000000002
 31
0.0
  0
LINE
  5
1BE4
  8
0
  6
CONTINUOUS
 62
     7
 10
7.5000010000000108
 20
1.6583129999999919
 30
0.0
 11
7.5000010000000108
 21
6.0251260000000002
 31
0.0
  0
LINE
  5
1BE5
  8
0
  6
CONTINUOUS
 62
     7
 10
52.300001000000023
 20
12.0
 30
0.0
 11
57.700001000000029
 21
12.0
 31
0.0
  0
ARC
  5
1BE6
  8
0
  6
CONTINUOUS
 62
     7
 10
59.900001000000017
 20
19.999999999999979
 30
0.0
 40
6.2000000000000002
 50
211.2974119999995
 51
247.9756870000017
  0
LINE
  5
1BE7
  8
0
  6
CONTINUOUS
 62
     7
 10
58.200001000000029
 20
13.325422
 30
0.0
 11
58.200001000000029
 21
12.5
 31
0.0
  0
ARC
  5
1BE8
  8
0
  6
CONTINUOUS
 62
     7
 10
57.700001000000029
 20
12.5
 30
0.0
 40
0.5
 50
270.0
 51
0.0
  0
LINE
  5
1BE9
  8
0
  6
CONTINUOUS
 62
     7
 10
-43.388284999999982
 20
5.8999999999999906
 30
0.0
 11
-45.499998999999981
 21
5.8999999999999906
 31
0.0
  0
LINE
  5
1BEA
  8
0
  6
CONTINUOUS
 62
     7
 10
-36.611713999999992
 20
5.8999999999999906
 30
0.0
 11
-34.499998999999981
 21
5.8999999999999906
 31
0.0
  0
LINE
  5
1BEB
  8
0
  6
CONTINUOUS
 62
     7
 10
-36.611713999999992
 20
-5.9000000000000048
 30
0.0
 11
-34.499998999999981
 21
-5.9000000000000048
 31
0.0
  0
LINE
  5
1BEC
  8
0
  6
CONTINUOUS
 62
     7
 10
-43.388284999999982
 20
-5.9000000000000048
 30
0.0
 11
-45.499998999999981
 21
-5.9000000000000048
 31
0.0
  0
LINE
  5
1BED
  8
0
  6
CONTINUOUS
 62
     7
 10
-45.999998999999988
 20
3.4349160000000012
 30
0.0
 11
-45.999998999999988
 21
5.3999999999999906
 31
0.0
  0
LINE
  5
1BEE
  8
0
  6
CONTINUOUS
 62
     7
 10
-45.999998999999988
 20
-3.4349160000000012
 30
0.0
 11
-45.999998999999988
 21
-5.4000000000000048
 31
0.0
  0
LINE
  5
1BEF
  8
0
  6
CONTINUOUS
 62
     7
 10
-33.999999000000003
 20
3.4349160000000012
 30
0.0
 11
-33.999999000000003
 21
5.3999999999999906
 31
0.0
  0
ARC
  5
1BF0
  8
0
  6
CONTINUOUS
 62
     7
 10
-45.499998999999981
 20
5.3999999999999906
 30
0.0
 40
0.5
 50
90.0
 51
180.0
  0
ARC
  5
1BF1
  8
0
  6
CONTINUOUS
 62
     7
 10
-45.499998999999981
 20
-5.4000000000000048
 30
0.0
 40
0.5
 50
180.0
 51
270.0
  0
ARC
  5
1BF2
  8
0
  6
CONTINUOUS
 62
     7
 10
-34.499998999999981
 20
-5.4000000000000048
 30
0.0
 40
0.5
 50
270.0
 51
0.0
  0
ARC
  5
1BF3
  8
0
  6
CONTINUOUS
 62
     7
 10
-34.499998999999981
 20
5.3999999999999906
 30
0.0
 40
0.5
 50
0.0
 51
90.0
  0
LINE
  5
1BF4
  8
0
  6
CONTINUOUS
 62
     7
 10
-33.999999000000003
 20
-3.4349160000000012
 30
0.0
 11
-33.999999000000003
 21
-5.4000000000000048
 31
0.0
  0
LINE
  5
1BF5
  8
0
  6
CONTINUOUS
 62
     7
 10
53.320487000000028
 20
17.499999999999979
 30
0.0
 11
52.800001000000023
 21
17.499999999999979
 31
0.0
  0
LINE
  5
1BF6
  8
0
  6
CONTINUOUS
 62
     7
 10
51.800001000000023
 20
12.5
 30
0.0
 11
51.800001000000023
 21
16.499999999999979
 31
0.0
  0
ARC
  5
1BF7
  8
0
  6
CONTINUOUS
 62
     7
 10
52.800001000000023
 20
16.499999999999979
 30
0.0
 40
1.0
 50
90.0
 51
180.0
  0
ARC
  5
1BF8
  8
0
  6
CONTINUOUS
 62
     7
 10
52.300001000000023
 20
12.5
 30
0.0
 40
0.5
 50
180.0
 51
270.0
  0
ARC
  5
1BF9
  8
0
  6
CONTINUOUS
 62
     7
 10
57.200001000000029
 20
13.325422
 30
0.0
 40
1.0
 50
0.0
 51
67.97568699999843
  0
ARC
  5
1BFA
  8
0
  6
CONTINUOUS
 62
     7
 10
53.320487000000028
 20
15.99999999999998
 30
0.0
 40
1.5
 50
31.297411999999461
 51
90.0
  0
LINE
  5
1BFB
  8
0
  6
CONTINUOUS
 62
     7
 10
52.300001000000023
 20
-12.0
 30
0.0
 11
57.700001000000029
 21
-12.0
 31
0.0
  0
ARC
  5
1BFC
  8
0
  6
CONTINUOUS
 62
     7
 10
59.900001000000017
 20
-19.999999999999979
 30
0.0
 40
6.2000000000000002
 50
112.0243129999982
 51
148.7025880000005
  0
LINE
  5
1BFD
  8
0
  6
CONTINUOUS
 62
     7
 10
58.200001000000029
 20
-13.32542099999997
 30
0.0
 11
58.200001000000029
 21
-12.5
 31
0.0
  0
ARC
  5
1BFE
  8
0
  6
CONTINUOUS
 62
     7
 10
57.700001000000029
 20
-12.5
 30
0.0
 40
0.5
 50
0.0
 51
90.0
  0
LINE
  5
1BFF
  8
0
  6
CONTINUOUS
 62
     7
 10
53.320487000000028
 20
-17.499999999999979
 30
0.0
 11
52.800001000000023
 21
-17.499999999999979
 31
0.0
  0
LINE
  5
1C00
  8
0
  6
CONTINUOUS
 62
     7
 10
51.800001000000023
 20
-12.5
 30
0.0
 11
51.800001000000023
 21
-16.499999999999979
 31
0.0
  0
ARC
  5
1C01
  8
0
  6
CONTINUOUS
 62
     7
 10
52.800001000000023
 20
-16.499999999999979
 30
0.0
 40
1.0
 50
180.0
 51
270.0
  0
ARC
  5
1C02
  8
0
  6
CONTINUOUS
 62
     7
 10
52.300001000000023
 20
-12.5
 30
0.0
 40
0.5
 50
90.0
 51
180.0
  0
ARC
  5
1C03
  8
0
  6
CONTINUOUS
 62
     7
 10
57.200001000000029
 20
-13.32542099999997
 30
0.0
 40
1.0
 50
292.0243129999983
 51
0.0
  0
ARC
  5
1C04
  8
0
  6
CONTINUOUS
 62
     7
 10
53.320487000000028
 20
-15.99999999999998
 30
0.0
 40
1.5
 50
270.0
 51
328.70258799999988
  0
LINE
  5
1C05
  8
0
  6
CONTINUOUS
 62
     7
 10
-52.299999000000007
 20
12.0
 30
0.0
 11
-57.699998999999977
 21
12.0
 31
0.0
  0
ARC
  5
1C06
  8
0
  6
CONTINUOUS
 62
     7
 10
-59.89999900000003
 20
19.999999999999979
 30
0.0
 40
6.2000000000000002
 50
292.0243129999983
 51
328.70258799999988
  0
LINE
  5
1C07
  8
0
  6
CONTINUOUS
 62
     7
 10
-58.199998999999977
 20
13.325422
 30
0.0
 11
-58.199998999999977
 21
12.5
 31
0.0
  0
ARC
  5
1C08
  8
0
  6
CONTINUOUS
 62
     7
 10
-57.699998999999977
 20
12.5
 30
0.0
 40
0.5
 50
180.0
 51
270.0
  0
LINE
  5
1C09
  8
0
  6
CONTINUOUS
 62
     7
 10
-53.320486000000002
 20
17.499999999999979
 30
0.0
 11
-52.799998999999993
 21
17.499999999999979
 31
0.0
  0
LINE
  5
1C0A
  8
0
  6
CONTINUOUS
 62
     7
 10
-51.799999000000021
 20
12.5
 30
0.0
 11
-51.799999000000021
 21
16.499999999999979
 31
0.0
  0
ARC
  5
1C0B
  8
0
  6
CONTINUOUS
 62
     7
 10
-52.799998999999993
 20
16.499999999999979
 30
0.0
 40
1.0
 50
0.0
 51
90.0
  0
ARC
  5
1C0C
  8
0
  6
CONTINUOUS
 62
     7
 10
-52.299999000000007
 20
12.5
 30
0.0
 40
0.5
 50
270.0
 51
0.0
  0
ARC
  5
1C0D
  8
0
  6
CONTINUOUS
 62
     7
 10
-57.19999899999997
 20
13.325422
 30
0.0
 40
1.0
 50
112.0243129999982
 51
180.0
  0
ARC
  5
1C0E
  8
0
  6
CONTINUOUS
 62
     7
 10
-53.320486000000002
 20
15.99999999999998
 30
0.0
 40
1.5
 50
90.0
 51
148.7025880000005
  0
LINE
  5
1C0F
  8
0
  6
CONTINUOUS
 62
     7
 10
-52.299999000000007
 20
-12.0
 30
0.0
 11
-57.699998999999977
 21
-12.0
 31
0.0
  0
ARC
  5
1C10
  8
0
  6
CONTINUOUS
 62
     7
 10
-59.89999900000003
 20
-19.999999999999979
 30
0.0
 40
6.2000000000000002
 50
31.297411999999461
 51
67.97568699999843
  0
LINE
  5
1C11
  8
0
  6
CONTINUOUS
 62
     7
 10
-58.199998999999977
 20
-13.32542099999997
 30
0.0
 11
-58.199998999999977
 21
-12.5
 31
0.0
  0
ARC
  5
1C12
  8
0
  6
CONTINUOUS
 62
     7
 10
-57.699998999999977
 20
-12.5
 30
0.0
 40
0.5
 50
90.0
 51
180.0
  0
LINE
  5
1C13
  8
0
  6
CONTINUOUS
 62
     7
 10
-53.320486000000002
 20
-17.499999999999979
 30
0.0
 11
-52.799998999999993
 21
-17.499999999999979
 31
0.0
  0
LINE
  5
1C14
  8
0
  6
CONTINUOUS
 62
     7
 10
-51.799999000000021
 20
-12.5
 30
0.0
 11
-51.799999000000021
 21
-16.499999999999979
 31
0.0
  0
ARC
  5
1C15
  8
0
  6
CONTINUOUS
 62
     7
 10
-52.799998999999993
 20
-16.499999999999979
 30
0.0
 40
1.0
 50
270.0
 51
0.0
  0
ARC
  5
1C16
  8
0
  6
CONTINUOUS
 62
     7
 10
-52.299999000000007
 20
-12.5
 30
0.0
 40
0.5
 50
0.0
 51
90.0
  0
ARC
  5
1C17
  8
0
  6
CONTINUOUS
 62
     7
 10
-57.19999899999997
 20
-13.32542099999997
 30
0.0
 40
1.0
 50
180.0
 51
247.9756870000017
  0
ARC
  5
1C18
  8
0
  6
CONTINUOUS
 62
     7
 10
-53.320486000000002
 20
-15.99999999999998
 30
0.0
 40
1.5
 50
211.2974119999995
 51
270.0
  0
LINE
  5
1C42
  8
0
  6
CONTINUOUS
 62
     7
 10
-39.346409000000001
 20
7.5
 30
0.0
 11
-34.26776599999998
 21
7.5
 31
0.0
  0
LINE
  5
1C43
  8
0
  6
CONTINUOUS
 62
     7
 10
-39.596409000000001
 20
7.43301199999999
 30
0.0
 11
-39.999998999999988
 21
7.200000000000002
 31
0.0
  0
LINE
  5
1C44
  8
0
  6
CONTINUOUS
 62
     7
 10
-43.499998999999988
 20
7.5
 30
0.0
 11
-45.732232000000003
 21
7.5
 31
0.0
  0
LINE
  5
1C45
  8
0
  6
CONTINUOUS
 62
     7
 10
-39.999998999999988
 20
7.200000000000002
 30
0.0
 11
-40.403588999999997
 21
7.43301199999999
 31
0.0
  0
LINE
  5
1C46
  8
0
  6
CONTINUOUS
 62
     7
 10
-41.752411999999993
 20
7.2232089999999971
 30
0.0
 11
-43.499998999999988
 21
7.5
 31
0.0
  0
LINE
  5
1C47
  8
0
  6
CONTINUOUS
 62
     7
 10
-40.782997999999992
 20
7.4829619999999997
 30
0.0
 11
-41.752411999999993
 21
7.2232089999999971
 31
0.0
  0
ARC
  5
1C48
  8
0
  6
CONTINUOUS
 62
     7
 10
-40.65358899999999
 20
7.0
 30
0.0
 40
0.5
 50
59.999999999998039
 51
105.00000000000109
  0
ARC
  5
1C49
  8
0
  6
CONTINUOUS
 62
     7
 10
-39.346409000000001
 20
7.0
 30
0.0
 40
0.5
 50
90.0
 51
120.0000000000019
  0
LINE
  5
1C4A
  8
0
  6
CONTINUOUS
 62
     7
 10
-47.499999000000052
 20
0.6535899999999942
 30
0.0
 11
-47.499999000000052
 21
5.7322329999999928
 31
0.0
  0
LINE
  5
1C4B
  8
0
  6
CONTINUOUS
 62
     7
 10
-47.433011000000022
 20
0.4035899999999942
 30
0.0
 11
-47.19999900000002
 21
0.0
 31
0.0
  0
LINE
  5
1C4C
  8
0
  6
CONTINUOUS
 62
     7
 10
-47.499999000000031
 20
-3.5
 30
0.0
 11
-47.49999900000001
 21
-5.732233000000007
 31
0.0
  0
LINE
  5
1C4D
  8
0
  6
CONTINUOUS
 62
     7
 10
-47.19999900000002
 20
0.0
 30
0.0
 11
-47.433011000000022
 21
-0.4035900000000084
 31
0.0
  0
LINE
  5
1C4E
  8
0
  6
CONTINUOUS
 62
     7
 10
-47.223208000000021
 20
-1.752413000000004
 30
0.0
 11
-47.499999000000031
 21
-3.5
 31
0.0
  0
LINE
  5
1C4F
  8
0
  6
CONTINUOUS
 62
     7
 10
-47.48296100000001
 20
-0.7829990000000038
 30
0.0
 11
-47.223208000000021
 21
-1.752413000000004
 31
0.0
  0
ARC
  5
1C50
  8
0
  6
CONTINUOUS
 62
     7
 10
-46.999999000000031
 20
-0.6535900000000084
 30
0.0
 40
0.5
 50
149.99999999999801
 51
195.00000000000111
  0
ARC
  5
1C51
  8
0
  6
CONTINUOUS
 62
     7
 10
-46.999999000000038
 20
0.6535899999999942
 30
0.0
 40
0.5
 50
180.0
 51
210.00000000000199
  0
LINE
  5
1C52
  8
0
  6
CONTINUOUS
 62
     7
 10
-40.65358899999999
 20
-7.5
 30
0.0
 11
-45.732232000000003
 21
-7.5
 31
0.0
  0
LINE
  5
1C53
  8
0
  6
CONTINUOUS
 62
     7
 10
-40.403588999999997
 20
-7.4330120000000051
 30
0.0
 11
-39.999998999999988
 21
-7.200000000000002
 31
0.0
  0
LINE
  5
1C54
  8
0
  6
CONTINUOUS
 62
     7
 10
-36.499999000000003
 20
-7.5
 30
0.0
 11
-34.26776599999998
 21
-7.5
 31
0.0
  0
LINE
  5
1C55
  8
0
  6
CONTINUOUS
 62
     7
 10
-39.999998999999988
 20
-7.200000000000002
 30
0.0
 11
-39.596409000000001
 21
-7.4330120000000051
 31
0.0
  0
LINE
  5
1C56
  8
0
  6
CONTINUOUS
 62
     7
 10
-38.247585999999998
 20
-7.2232089999999971
 30
0.0
 11
-36.499999000000003
 21
-7.5
 31
0.0
  0
LINE
  5
1C57
  8
0
  6
CONTINUOUS
 62
     7
 10
-39.216999999999992
 20
-7.4829619999999997
 30
0.0
 11
-38.247585999999998
 21
-7.2232089999999971
 31
0.0
  0
ARC
  5
1C58
  8
0
  6
CONTINUOUS
 62
     7
 10
-39.346409000000001
 20
-7.0
 30
0.0
 40
0.5
 50
239.99999999999801
 51
285.00000000000119
  0
ARC
  5
1C59
  8
0
  6
CONTINUOUS
 62
     7
 10
-40.65358899999999
 20
-7.0
 30
0.0
 40
0.5
 50
270.0
 51
300.00000000000188
  0
LINE
  5
1C5A
  8
0
  6
CONTINUOUS
 62
     7
 10
0.6535910000000058
 20
7.5
 30
0.0
 11
5.7322340000000054
 21
7.5
 31
0.0
  0
LINE
  5
1C5B
  8
0
  6
CONTINUOUS
 62
     7
 10
0.4035910000000058
 20
7.43301199999999
 30
0.0
 11
0.0000009999999975
 21
7.200000000000002
 31
0.0
  0
LINE
  5
1C5C
  8
0
  6
CONTINUOUS
 62
     7
 10
-3.4999990000000021
 20
7.5
 30
0.0
 11
-5.7322319999999962
 21
7.5
 31
0.0
  0
LINE
  5
1C5D
  8
0
  6
CONTINUOUS
 62
     7
 10
0.0000009999999975
 20
7.200000000000002
 30
0.0
 11
-0.4035889999999967
 21
7.43301199999999
 31
0.0
  0
LINE
  5
1C5E
  8
0
  6
CONTINUOUS
 62
     7
 10
-1.7524119999999921
 20
7.2232089999999971
 30
0.0
 11
-3.4999990000000021
 21
7.5
 31
0.0
  0
LINE
  5
1C5F
  8
0
  6
CONTINUOUS
 62
     7
 10
-0.7829979999999921
 20
7.4829619999999997
 30
0.0
 11
-1.7524119999999921
 21
7.2232089999999971
 31
0.0
  0
ARC
  5
1C60
  8
0
  6
CONTINUOUS
 62
     7
 10
-0.6535889999999966
 20
7.0
 30
0.0
 40
0.5
 50
59.999999999998039
 51
105.00000000000109
  0
ARC
  5
1C61
  8
0
  6
CONTINUOUS
 62
     7
 10
0.6535910000000058
 20
7.0
 30
0.0
 40
0.5
 50
90.0
 51
120.0000000000019
  0
LINE
  5
1C62
  8
0
  6
CONTINUOUS
 62
     7
 10
-0.6535889999999966
 20
-7.5
 30
0.0
 11
-5.7322319999999962
 21
-7.5
 31
0.0
  0
LINE
  5
1C63
  8
0
  6
CONTINUOUS
 62
     7
 10
-0.4035889999999967
 20
-7.4330120000000051
 30
0.0
 11
0.0000009999999975
 21
-7.200000000000002
 31
0.0
  0
LINE
  5
1C64
  8
0
  6
CONTINUOUS
 62
     7
 10
3.500000999999997
 20
-7.5
 30
0.0
 11
5.7322340000000054
 21
-7.5
 31
0.0
  0
LINE
  5
1C65
  8
0
  6
CONTINUOUS
 62
     7
 10
0.0000009999999975
 20
-7.200000000000002
 30
0.0
 11
0.4035910000000058
 21
-7.4330120000000051
 31
0.0
  0
LINE
  5
1C66
  8
0
  6
CONTINUOUS
 62
     7
 10
1.752414000000001
 20
-7.2232089999999971
 30
0.0
 11
3.500000999999997
 21
-7.5
 31
0.0
  0
LINE
  5
1C67
  8
0
  6
CONTINUOUS
 62
     7
 10
0.7830000000000013
 20
-7.4829619999999997
 30
0.0
 11
1.752414000000001
 21
-7.2232089999999971
 31
0.0
  0
ARC
  5
1C68
  8
0
  6
CONTINUOUS
 62
     7
 10
0.6535910000000058
 20
-7.0
 30
0.0
 40
0.5
 50
239.99999999999801
 51
285.00000000000119
  0
ARC
  5
1C69
  8
0
  6
CONTINUOUS
 62
     7
 10
-0.6535889999999966
 20
-7.0
 30
0.0
 40
0.5
 50
270.0
 51
300.00000000000188
  0
LINE
  5
1C6A
  8
0
  6
CONTINUOUS
 62
     7
 10
40.65359100000002
 20
7.5
 30
0.0
 11
45.73223400000002
 21
7.5
 31
0.0
  0
LINE
  5
1C6B
  8
0
  6
CONTINUOUS
 62
     7
 10
40.40359100000002
 20
7.43301199999999
 30
0.0
 11
40.000001000000012
 21
7.200000000000002
 31
0.0
  0
LINE
  5
1C6C
  8
0
  6
CONTINUOUS
 62
     7
 10
36.500001000000012
 20
7.5
 30
0.0
 11
34.267768000000032
 21
7.5
 31
0.0
  0
LINE
  5
1C6D
  8
0
  6
CONTINUOUS
 62
     7
 10
40.000001000000012
 20
7.200000000000002
 30
0.0
 11
39.596411000000032
 21
7.43301199999999
 31
0.0
  0
LINE
  5
1C6E
  8
0
  6
CONTINUOUS
 62
     7
 10
38.247588000000022
 20
7.2232089999999971
 30
0.0
 11
36.500001000000012
 21
7.5
 31
0.0
  0
LINE
  5
1C6F
  8
0
  6
CONTINUOUS
 62
     7
 10
39.217002000000022
 20
7.4829619999999997
 30
0.0
 11
38.247588000000022
 21
7.2232089999999971
 31
0.0
  0
ARC
  5
1C70
  8
0
  6
CONTINUOUS
 62
     7
 10
39.346411000000032
 20
7.0
 30
0.0
 40
0.5
 50
59.999999999998039
 51
105.00000000000109
  0
ARC
  5
1C71
  8
0
  6
CONTINUOUS
 62
     7
 10
40.65359100000002
 20
7.0
 30
0.0
 40
0.5
 50
90.0
 51
120.0000000000019
  0
LINE
  5
1C72
  8
0
  6
CONTINUOUS
 62
     7
 10
39.346411000000032
 20
-7.5
 30
0.0
 11
34.267768000000032
 21
-7.5
 31
0.0
  0
LINE
  5
1C73
  8
0
  6
CONTINUOUS
 62
     7
 10
39.596411000000032
 20
-7.4330120000000051
 30
0.0
 11
40.000001000000012
 21
-7.200000000000002
 31
0.0
  0
LINE
  5
1C74
  8
0
  6
CONTINUOUS
 62
     7
 10
43.500001000000012
 20
-7.5
 30
0.0
 11
45.73223400000002
 21
-7.5
 31
0.0
  0
LINE
  5
1C75
  8
0
  6
CONTINUOUS
 62
     7
 10
40.000001000000012
 20
-7.200000000000002
 30
0.0
 11
40.40359100000002
 21
-7.4330120000000051
 31
0.0
  0
LINE
  5
1C76
  8
0
  6
CONTINUOUS
 62
     7
 10
41.75241400000003
 20
-7.2232089999999971
 30
0.0
 11
43.500001000000012
 21
-7.5
 31
0.0
  0
LINE
  5
1C77
  8
0
  6
CONTINUOUS
 62
     7
 10
40.78300000000003
 20
-7.4829619999999997
 30
0.0
 11
41.75241400000003
 21
-7.2232089999999971
 31
0.0
  0
ARC
  5
1C78
  8
0
  6
CONTINUOUS
 62
     7
 10
40.65359100000002
 20
-7.0
 30
0.0
 40
0.5
 50
239.99999999999801
 51
285.00000000000119
  0
ARC
  5
1C79
  8
0
  6
CONTINUOUS
 62
     7
 10
39.346411000000032
 20
-7.0
 30
0.0
 40
0.5
 50
270.0
 51
300.00000000000188
  0
LINE
  5
1C7A
  8
0
  6
CONTINUOUS
 62
     7
 10
47.500000999999777
 20
-0.6535900000001221
 30
0.0
 11
47.500000999999777
 21
-5.7322330000001207
 31
0.0
  0
LINE
  5
1C7B
  8
0
  6
CONTINUOUS
 62
     7
 10
47.433012999999796
 20
-0.4035900000001221
 30
0.0
 11
47.200000999999801
 21
-0.0000000000001137
 31
0.0
  0
LINE
  5
1C7C
  8
0
  6
CONTINUOUS
 62
     7
 10
47.500000999999777
 20
3.4999999999998859
 30
0.0
 11
47.500000999999777
 21
5.73223299999988
 31
0.0
  0
LINE
  5
1C7D
  8
0
  6
CONTINUOUS
 62
     7
 10
47.200000999999801
 20
-0.0000000000001137
 30
0.0
 11
47.433012999999796
 21
0.4035899999998805
 31
0.0
  0
LINE
  5
1C7E
  8
0
  6
CONTINUOUS
 62
     7
 10
47.223209999999781
 20
1.7524129999998761
 30
0.0
 11
47.500000999999777
 21
3.4999999999998859
 31
0.0
  0
LINE
  5
1C7F
  8
0
  6
CONTINUOUS
 62
     7
 10
47.482962999999799
 20
0.7829989999998759
 30
0.0
 11
47.223209999999781
 21
1.7524129999998761
 31
0.0
  0
ARC
  5
1C80
  8
0
  6
CONTINUOUS
 62
     7
 10
47.000000999999777
 20
0.6535899999998805
 30
0.0
 40
0.5
 50
329.99999999999812
 51
15.00000000000194
  0
ARC
  5
1C81
  8
0
  6
CONTINUOUS
 62
     7
 10
47.000000999999777
 20
-0.6535900000001221
 30
0.0
 40
0.5
 50
0.0
 51
30.000000000001961
  0
LINE
  5
1CA4
  8
0
  6
CONTINUOUS
 62
     7
 10
106.00669390112169
 20
19.999999999999879
 30
0.0
 11
156.00669390112171
 21
19.999999999999879
 31
0.0
  0
LINE
  5
1CA5
  8
0
  6
CONTINUOUS
 62
     7
 10
106.00669390112169
 20
4.9999999999999973
 30
0.0
 11
156.00669390112171
 21
4.9999999999999973
 31
0.0
  0
LINE
  5
1CA6
  8
0
  6
CONTINUOUS
 62
     7
 10
106.00669390112169
 20
3.5
 30
0.0
 11
156.00669390112171
 21
3.5
 31
0.0
  0
LINE
  5
1CA7
  8
0
  6
CONTINUOUS
 62
     7
 10
106.00669390112169
 20
1.7524119999999921
 30
0.0
 11
156.00669390112171
 21
1.7524119999999921
 31
0.0
  0
LINE
  5
1CA8
  8
0
  6
CONTINUOUS
 62
     7
 10
106.00669390112169
 20
0.0000000000000008
 30
0.0
 11
156.00669390112171
 21
0.0000000000000008
 31
0.0
  0
LINE
  5
1CA9
  8
0
  6
CONTINUOUS
 62
     7
 10
106.00669390112169
 20
-5.0
 30
0.0
 11
156.00669390112171
 21
-5.0
 31
0.0
  0
LINE
  5
1CAA
  8
0
  6
CONTINUOUS
 62
     7
 10
106.00669390112169
 20
-20.0
 30
0.0
 11
156.00669390112171
 21
-20.0
 31
0.0
  0
LINE
  5
1CAB
  8
0
  6
CONTINUOUS
 62
     7
 10
106.00669390112169
 20
19.999999999999879
 30
0.0
 11
106.00669390112169
 21
-19.999999999999989
 31
0.0
  0
LINE
  5
1CAC
  8
0
  6
CONTINUOUS
 62
     7
 10
156.00669390112171
 20
19.999999999999879
 30
0.0
 11
156.00669390112171
 21
-19.999999999999989
 31
0.0
  0
LINE
  5
1CAD
  8
CENTER
  6
CENTER
 62
     1
 10
104.00669390112169
 20
0.0
 30
0.0
 11
158.00669390112171
 21
0.0
 31
0.0
  0
INSERT
  5
1CF1
  8
0
  6
CONTINUOUS
 62
     7
  2
*U24
 10
0.0
 20
0.0
 30
0.0
  0
INSERT
  5
1CF2
  8
0
  6
CONTINUOUS
 62
     7
  2
*U25
 10
0.0
 20
0.0
 30
0.0
  0
CIRCLE
  5
1D3C
  8
0
  6
PHANTOM
 62
     3
 10
-39.999998999999988
 20
0.0
 30
0.0
 40
5.25
  0
CIRCLE
  5
1D3D
  8
0
  6
PHANTOM
 62
     3
 10
0.0000009999999975
 20
0.0
 30
0.0
 40
5.25
  0
CIRCLE
  5
1D3E
  8
0
  6
PHANTOM
 62
     3
 10
40.000000999999891
 20
0.0
 30
0.0
 40
5.25
  0
ENDSEC
  0
EOF
