  0
SECTION
  2
HEADER
  9
$ACADVER
  1
AC1009
  9
$INSBASE
 10
0.0
 20
0.0
 30
0.0
  9
$EXTMIN
 10
-82.158897506335151
 20
-106.7704113211996
 30
0.0
  9
$EXTMAX
 10
233.4534853680521
 20
88.148366599181941
 30
0.0
  9
$LIMMIN
 10
0.0
 20
0.0
  9
$LIMMAX
 10
420.0
 20
297.0
  9
$ORTHOMODE
 70
     0
  9
$REGENMODE
 70
     1
  9
$FILLMODE
 70
     1
  9
$QTEXTMODE
 70
     0
  9
$MIRRTEXT
 70
     0
  9
$DRAGMODE
 70
     2
  9
$LTSCALE
 40
1.0
  9
$OSMODE
 70
  2109
  9
$ATTMODE
 70
     1
  9
$TEXTSIZE
 40
3.0
  9
$TRACEWID
 40
1.0
  9
$TEXTSTYLE
  7
STANDARD
  9
$CLAYER
  8
0
  9
$CELTYPE
  6
CONTINUOUS
  9
$CECOLOR
 62
     7
  9
$DIMSCALE
 40
1.0
  9
$DIMASZ
 40
2.5
  9
$DIMEXO
 40
0.625
  9
$DIMDLI
 40
3.75
  9
$DIMRND
 40
0.0
  9
$DIMDLE
 40
0.0
  9
$DIMEXE
 40
1.25
  9
$DIMTP
 40
0.0
  9
$DIMTM
 40
0.0
  9
$DIMTXT
 40
2.5
  9
$DIMCEN
 40
2.5
  9
$DIMTSZ
 40
0.0
  9
$DIMTOL
 70
     0
  9
$DIMLIM
 70
     0
  9
$DIMTIH
 70
     0
  9
$DIMTOH
 70
     0
  9
$DIMSE1
 70
     0
  9
$DIMSE2
 70
     0
  9
$DIMTAD
 70
     1
  9
$DIMZIN
 70
     8
  9
$DIMBLK
  1
OPEN30
  9
$DIMASO
 70
     1
  9
$DIMSHO
 70
     1
  9
$DIMPOST
  1

  9
$DIMAPOST
  1

  9
$DIMALT
 70
     0
  9
$DIMALTD
 70
     3
  9
$DIMALTF
 40
0.03937007874016
  9
$DIMLFAC
 40
1.0
  9
$DIMTOFL
 70
     1
  9
$DIMTVP
 40
0.0
  9
$DIMTIX
 70
     0
  9
$DIMSOXD
 70
     0
  9
$DIMSAH
 70
     0
  9
$DIMBLK1
  1

  9
$DIMBLK2
  1

  9
$DIMSTYLE
  2
MISUMI
  9
$DIMCLRD
 70
   137
  9
$DIMCLRE
 70
   137
  9
$DIMCLRT
 70
   137
  9
$DIMTFAC
 40
1.0
  9
$DIMGAP
 40
0.625
  9
$LUNITS
 70
     2
  9
$LUPREC
 70
     2
  9
$SKETCHINC
 40
1.0
  9
$FILLETRAD
 40
0.0
  9
$AUNITS
 70
     0
  9
$AUPREC
 70
     0
  9
$MENU
  1
.
  9
$ELEVATION
 40
0.0
  9
$PELEVATION
 40
0.0
  9
$THICKNESS
 40
0.0
  9
$LIMCHECK
 70
     0
  9
$BLIPMODE
 70
     0
  9
$CHAMFERA
 40
0.5
  9
$CHAMFERB
 40
0.5
  9
$SKPOLY
 70
     0
  9
$TDCREATE
 40
2455135.5720697111
  9
$TDUPDATE
 40
2455656.609185359
  9
$TDINDWG
 40
0.0909729167
  9
$TDUSRTIMER
 40
0.0909727315
  9
$USRTIMER
 70
     1
  9
$ANGBASE
 50
0.0
  9
$ANGDIR
 70
     0
  9
$PDMODE
 70
    35
  9
$PDSIZE
 40
0.0
  9
$PLINEWID
 40
0.0
  9
$COORDS
 70
     1
  9
$SPLFRAME
 70
     0
  9
$SPLINETYPE
 70
     6
  9
$SPLINESEGS
 70
     8
  9
$ATTDIA
 70
     0
  9
$ATTREQ
 70
     1
  9
$HANDLING
 70
     1
  9
$HANDSEED
  5
20DD
  9
$SURFTAB1
 70
     6
  9
$SURFTAB2
 70
     6
  9
$SURFTYPE
 70
     6
  9
$SURFU
 70
     6
  9
$SURFV
 70
     6
  9
$UCSNAME
  2

  9
$UCSORG
 10
0.0
 20
0.0
 30
0.0
  9
$UCSXDIR
 10
1.0
 20
0.0
 30
0.0
  9
$UCSYDIR
 10
0.0
 20
1.0
 30
0.0
  9
$PUCSNAME
  2

  9
$PUCSORG
 10
0.0
 20
0.0
 30
0.0
  9
$PUCSXDIR
 10
1.0
 20
0.0
 30
0.0
  9
$PUCSYDIR
 10
0.0
 20
1.0
 30
0.0
  9
$USERI1
 70
     0
  9
$USERI2
 70
     0
  9
$USERI3
 70
     0
  9
$USERI4
 70
     0
  9
$USERI5
 70
     0
  9
$USERR1
 40
0.0
  9
$USERR2
 40
0.0
  9
$USERR3
 40
0.0
  9
$USERR4
 40
0.0
  9
$USERR5
 40
0.0
  9
$WORLDVIEW
 70
     1
  9
$SHADEDGE
 70
     3
  9
$SHADEDIF
 70
    70
  9
$TILEMODE
 70
     1
  9
$MAXACTVP
 70
    64
  9
$PLIMCHECK
 70
     0
  9
$PEXTMIN
 10
0.0
 20
0.0
 30
0.0
  9
$PEXTMAX
 10
0.0
 20
0.0
 30
0.0
  9
$PLIMMIN
 10
0.0
 20
0.0
  9
$PLIMMAX
 10
12.0
 20
9.0
  9
$UNITMODE
 70
     0
  9
$VISRETAIN
 70
     1
  9
$PLINEGEN
 70
     0
  9
$PSLTSCALE
 70
     1
  0
ENDSEC
  0
SECTION
  2
TABLES
  0
TABLE
  2
VPORT
 70
     1
  0
VPORT
  2
*ACTIVE
 70
     0
 10
0.0
 20
0.0
 11
1.0
 21
1.0
 12
83.551953712793591
 22
-9.1783814713067216
 13
0.0
 23
0.0
 14
10.0
 24
10.0
 15
10.0
 25
10.0
 16
0.0
 26
0.0
 36
1.0
 17
0.0
 27
0.0
 37
0.0
 40
409.03515856736971
 41
1.0918367346938771
 42
50.0
 43
0.0
 44
0.0
 50
0.0
 51
0.0
 71
     0
 72
  1000
 73
     1
 74
     3
 75
     0
 76
     0
 77
     0
 78
     0
  0
ENDTAB
  0
TABLE
  2
LTYPE
 70
     4
  0
LTYPE
  2
CONTINUOUS
 70
     0
  3
Solid line
 72
    65
 73
     0
 40
0.0
  0
LTYPE
  2
CENTER
 70
     0
  3
Center ____ _ ____ _ ____ _ ____ _ ____ _ ____
 72
    65
 73
     4
 40
50.799999999999997
 49
31.75
 49
-6.3499999999999988
 49
6.3499999999999988
 49
-6.3499999999999988
  0
LTYPE
  2
DASHED
 70
     0
  3
Dashed __ __ __ __ __ __ __ __ __ __ __ __ __ _
 72
    65
 73
     2
 40
19.050000000000001
 49
12.699999999999999
 49
-6.3499999999999988
  0
LTYPE
  2
PHANTOM
 70
     0
  3
Phantom ______  __  __  ______  __  __  ______
 72
    65
 73
     6
 40
63.5
 49
31.75
 49
-6.3499999999999988
 49
6.3499999999999988
 49
-6.3499999999999988
 49
6.3499999999999988
 49
-6.3499999999999988
  0
ENDTAB
  0
TABLE
  2
LAYER
 70
     3
  0
LAYER
  2
0
 70
     0
 62
     7
  6
CONTINUOUS
  0
LAYER
  2
CENTER
 70
     0
 62
     1
  6
CENTER
  0
LAYER
  2
DEFPOINTS
 70
     0
 62
     7
  6
CONTINUOUS
  0
ENDTAB
  0
TABLE
  2
STYLE
 70
     1
  0
STYLE
  2
STANDARD
 70
     0
 40
3.0
 41
1.0
 50
0.0
 71
     0
 42
3.0
  3
txt.shx
  4
bigfont.shx
  0
ENDTAB
  0
TABLE
  2
VIEW
 70
     0
  0
ENDTAB
  0
TABLE
  2
UCS
 70
     0
  0
ENDTAB
  0
TABLE
  2
APPID
 70
     8
  0
APPID
  2
ACAD
 70
     0
  0
APPID
  2
ACAD_MLEADERVER
 70
     0
  0
APPID
  2
ACAD_PSEXT
 70
     0
  0
APPID
  2
ACAD_DSTYLE_DIMRADIAL_EXTENSION
 70
     0
  0
APPID
  2
ACAD_EXEMPT_FROM_CAD_STANDARDS
 70
     0
  0
APPID
  2
GRADIENTCOLOR1ACI
 70
     0
  0
APPID
  2
GRADIENTCOLOR2ACI
 70
     0
  0
APPID
  2
ACAECLAYERSTANDARD
 70
     0
  0
ENDTAB
  0
TABLE
  2
DIMSTYLE
 70
     1
  0
DIMSTYLE
  2
MISUMI
 70
     0
  3

  4

  5
OPEN30
  6

  7

 40
1.0
 41
2.5
 42
0.625
 43
3.75
 44
1.25
 45
0.0
 46
0.0
 47
0.0
 48
0.0
140
2.5
141
2.5
142
0.0
143
0.03937007874016
144
1.0
145
0.0
146
1.0
147
0.625
 71
     0
 72
     0
 73
     0
 74
     0
 75
     0
 76
     0
 77
     1
 78
     8
170
     0
171
     3
172
     1
173
     0
174
     0
175
     0
176
   137
177
   137
178
   137
  0
ENDTAB
  0
ENDSEC
  0
SECTION
  2
BLOCKS
  0
BLOCK
  8
0
  2
$MODEL_SPACE
 70
     0
 10
0.0
 20
0.0
 30
0.0
  3
$MODEL_SPACE
  1

  0
ENDBLK
  5
21
  8
0
  0
BLOCK
 67
     1
  8
0
  2
$PAPER_SPACE
 70
     0
 10
0.0
 20
0.0
 30
0.0
  3
$PAPER_SPACE
  1

  0
ENDBLK
  5
53
 67
     1
  8
0
  0
BLOCK
  8
0
 62
     7
  2
_OPEN30
 70
     0
 10
0.0
 20
0.0
 30
0.0
  3
_OPEN30
  1

  0
LINE
  5
D7
  8
0
  6
BYBLOCK
 62
     0
 10
-1.0
 20
0.26794919
 30
0.0
 11
0.0
 21
0.0
 31
0.0
  0
LINE
  5
D8
  8
0
  6
BYBLOCK
 62
     0
 10
0.0
 20
0.0
 30
0.0
 11
-1.0
 21
-0.26794919
 31
0.0
  0
LINE
  5
D9
  8
0
  6
BYBLOCK
 62
     0
 10
0.0
 20
0.0
 30
0.0
 11
-1.0
 21
0.0
 31
0.0
  0
ENDBLK
  5
DB
  8
0
 62
     7
  0
BLOCK
  8
0
 62
     7
  2
*U18
 70
     1
 10
0.0
 20
0.0
 30
0.0
  3
*U18
  1

  0
TEXT
  5
20D2
  8
0
  6
CONTINUOUS
 62
     7
 10
-50.0
 20
-102.3550119317843
 30
0.0
 40
3.0
  1
NEFS8-100100-50
  0
ENDBLK
  5
20D4
  8
0
 62
     7
  0
BLOCK
  8
0
 62
     7
  2
*U19
 70
     1
 10
0.0
 20
0.0
 30
0.0
  3
*U19
  1

  0
TEXT
  5
20D6
  8
0
  6
CONTINUOUS
 62
     7
 10
-50.0
 20
-106.7704113211996
 30
0.0
 40
3.0
  1
NEFS8-100100
  0
ENDBLK
  5
20D8
  8
0
 62
     7
  0
BLOCK
  8
0
 62
     7
  2
*U20
 70
     1
 10
0.0
 20
0.0
 30
0.0
  3
*U20
  1

  0
TEXT
  5
20DA
  8
0
  6
CONTINUOUS
 62
   137
 10
17.340184447200169
 20
77.51974998063622
 30
0.0
 40
3.0
  1
21,6804
  0
ENDBLK
  5
20DC
  8
0
 62
     7
  0
ENDSEC
  0
SECTION
  2
ENTITIES
  0
LINE
  5
1AC0
  8
0
  6
CONTINUOUS
 62
     7
 10
49.999999999999829
 20
19.699992000000059
 30
0.0
 11
49.999999999999829
 21
-19.699992000000009
 31
0.0
  0
LINE
  5
1AC1
  8
0
  6
CONTINUOUS
 62
     7
 10
47.099999999999817
 20
11.299993999999741
 30
0.0
 11
47.099999999999817
 21
-11.299993999999989
 31
0.0
  0
ARC
  5
1AC2
  8
0
  6
CONTINUOUS
 62
     7
 10
46.099999999999817
 20
11.299993999999741
 30
0.0
 40
1.0
 50
0.0
 51
90.0
  0
LINE
  5
1AC3
  8
0
  6
CONTINUOUS
 62
     7
 10
39.59620000000001
 20
14.999993999999781
 30
0.0
 11
43.999986000000092
 21
14.9999939999999
 31
0.0
  0
LINE
  5
1AC4
  8
0
  6
CONTINUOUS
 62
     7
 10
35.639377694252921
 20
12.299993999999851
 30
0.0
 11
46.099999999999817
 21
12.299993999999741
 31
0.0
  0
ARC
  5
1AC5
  8
0
  6
CONTINUOUS
 62
     7
 10
35.639377694252921
 20
13.299993999999851
 30
0.0
 40
1.0
 50
224.99999895479351
 51
270.0
  0
LINE
  5
1AC6
  8
0
  6
CONTINUOUS
 62
     7
 10
43.999986000000092
 20
19.700016999999661
 30
0.0
 11
43.999986000000092
 21
14.9999939999999
 31
0.0
  0
ARC
  5
1AC7
  8
0
  6
CONTINUOUS
 62
     7
 10
44.299986000000018
 20
19.700016999999661
 30
0.0
 40
0.3
 50
90.0
 51
180.0
  0
LINE
  5
1AC8
  8
0
  6
CONTINUOUS
 62
     7
 10
45.975299923404691
 20
20.000016999999669
 30
0.0
 11
44.299986000000018
 21
20.000016999999669
 31
0.0
  0
LINE
  5
1AC9
  8
0
  6
CONTINUOUS
 62
     7
 10
48.024690076595327
 20
20.000016999999669
 30
0.0
 11
49.700000000000102
 21
20.000016999999669
 31
0.0
  0
ARC
  5
1ACA
  8
0
  6
CONTINUOUS
 62
     7
 10
49.700000000000102
 20
19.700016999999661
 30
0.0
 40
0.3
 50
0.0
 51
90.0
  0
ARC
  5
1ACB
  8
0
  6
CONTINUOUS
 62
     7
 10
46.99999499999992
 20
20.5000169999999
 30
0.0
 40
1.0
 50
217.979872444862
 51
322.02012755513789
  0
ARC
  5
1ACC
  8
0
  6
CONTINUOUS
 62
     7
 10
45.975299923404691
 20
19.700016999999661
 30
0.0
 40
0.3
 50
37.97987244486206
 51
90.0
  0
ARC
  5
1ACD
  8
0
  6
CONTINUOUS
 62
     7
 10
48.024690076595327
 20
19.700016999999661
 30
0.0
 40
0.3
 50
90.0
 51
142.02012755513789
  0
LINE
  5
1ACE
  8
0
  6
CONTINUOUS
 62
     7
 10
39.59620000000001
 20
14.999993999999781
 30
0.0
 11
37.000002000000023
 21
17.596191999999739
 31
0.0
  0
LINE
  5
1ACF
  8
0
  6
CONTINUOUS
 62
     7
 10
14.999996999999921
 20
39.596196999999897
 30
0.0
 11
14.999996999999921
 21
43.999994999999778
 31
0.0
  0
LINE
  5
1AD0
  8
0
  6
CONTINUOUS
 62
     7
 10
12.29999699999993
 20
35.639375509297217
 30
0.0
 11
12.29999699999993
 21
46.099999999999731
 31
0.0
  0
ARC
  5
1AD1
  8
0
  6
CONTINUOUS
 62
     7
 10
11.299996999999991
 20
46.099999999999731
 30
0.0
 40
1.0
 50
0.0
 51
90.0
  0
LINE
  5
1AD2
  8
0
  6
CONTINUOUS
 62
     7
 10
19.999992000000098
 20
48.024689076595052
 30
0.0
 11
19.999992000000098
 21
49.699999999999761
 31
0.0
  0
LINE
  5
1AD3
  8
0
  6
CONTINUOUS
 62
     7
 10
19.699992000000119
 20
43.999990999999731
 30
0.0
 11
14.999992999999931
 21
43.999990999999731
 31
0.0
  0
LINE
  5
1AD4
  8
0
  6
CONTINUOUS
 62
     7
 10
19.999992000000098
 20
45.975298923404353
 30
0.0
 11
19.999992000000098
 21
44.299990999999693
 31
0.0
  0
ARC
  5
1AD5
  8
0
  6
CONTINUOUS
 62
     7
 10
19.699992000000119
 20
44.299990999999693
 30
0.0
 40
0.3
 50
270.0
 51
0.0
  0
ARC
  5
1AD6
  8
0
  6
CONTINUOUS
 62
     7
 10
20.499992000000098
 20
46.999993999999667
 30
0.0
 40
1.0
 50
127.979872444862
 51
232.02012755513789
  0
ARC
  5
1AD7
  8
0
  6
CONTINUOUS
 62
     7
 10
19.699992000000119
 20
48.024689076595052
 30
0.0
 40
0.3
 50
307.979872444862
 51
0.0
  0
ARC
  5
1AD8
  8
0
  6
CONTINUOUS
 62
     7
 10
19.699992000000119
 20
45.975298923404353
 30
0.0
 40
0.3
 50
0.0
 51
52.020127555137947
  0
LINE
  5
1AD9
  8
0
  6
CONTINUOUS
 62
     7
 10
17.59620000000001
 20
36.99999399999956
 30
0.0
 11
14.999996999999921
 21
39.596196999999897
 31
0.0
  0
LINE
  5
1ADA
  8
0
  6
CONTINUOUS
 62
     7
 10
39.596200000000103
 20
35.000005999999757
 30
0.0
 11
43.999986000000092
 21
35.000005999999757
 31
0.0
  0
LINE
  5
1ADB
  8
0
  6
CONTINUOUS
 62
     7
 10
50.000000000000028
 20
30.29998299999977
 30
0.0
 11
50.000000000000028
 21
46.999999999999773
 31
0.0
  0
LINE
  5
1ADC
  8
0
  6
CONTINUOUS
 62
     7
 10
30.30000800000002
 20
49.999999999999893
 30
0.0
 11
47.000000000000021
 21
49.999999999999893
 31
0.0
  0
ARC
  5
1ADD
  8
0
  6
CONTINUOUS
 62
     7
 10
30.30000800000002
 20
49.699999999999697
 30
0.0
 40
0.3
 50
90.0
 51
180.0
  0
ARC
  5
1ADE
  8
0
  6
CONTINUOUS
 62
     7
 10
47.000000000000021
 20
46.999999999999773
 30
0.0
 40
3.0
 50
0.0
 51
90.0
  0
LINE
  5
1ADF
  8
0
  6
CONTINUOUS
 62
     7
 10
35.000002999999943
 20
39.596196999999897
 30
0.0
 11
35.000002999999943
 21
43.999994999999778
 31
0.0
  0
LINE
  5
1AE0
  8
0
  6
CONTINUOUS
 62
     7
 10
43.999986000000092
 20
30.29998299999977
 30
0.0
 11
43.999986000000092
 21
35.000005999999757
 31
0.0
  0
ARC
  5
1AE1
  8
0
  6
CONTINUOUS
 62
     7
 10
44.299986000000018
 20
30.29998299999977
 30
0.0
 40
0.3
 50
180.0
 51
270.0
  0
LINE
  5
1AE2
  8
0
  6
CONTINUOUS
 62
     7
 10
45.975299923404691
 20
29.999982999999759
 30
0.0
 11
44.299986000000018
 21
29.999982999999759
 31
0.0
  0
LINE
  5
1AE3
  8
0
  6
CONTINUOUS
 62
     7
 10
30.000008000000008
 20
48.024689076595052
 30
0.0
 11
30.000008000000008
 21
49.699999999999697
 31
0.0
  0
LINE
  5
1AE4
  8
0
  6
CONTINUOUS
 62
     7
 10
30.30000800000002
 20
43.999990999999731
 30
0.0
 11
35.000006999999933
 21
43.999990999999731
 31
0.0
  0
LINE
  5
1AE5
  8
0
  6
CONTINUOUS
 62
     7
 10
30.000008000000008
 20
45.975298923404353
 30
0.0
 11
30.000008000000008
 21
44.299990999999693
 31
0.0
  0
ARC
  5
1AE6
  8
0
  6
CONTINUOUS
 62
     7
 10
30.30000800000002
 20
44.299990999999693
 30
0.0
 40
0.3
 50
180.0
 51
270.0
  0
ARC
  5
1AE7
  8
0
  6
CONTINUOUS
 62
     7
 10
29.500008000000008
 20
46.999993999999667
 30
0.0
 40
1.0
 50
307.979872444862
 51
52.020127555137947
  0
ARC
  5
1AE8
  8
0
  6
CONTINUOUS
 62
     7
 10
30.30000800000002
 20
48.024689076595052
 30
0.0
 40
0.3
 50
180.0
 51
232.02012755513789
  0
ARC
  5
1AE9
  8
0
  6
CONTINUOUS
 62
     7
 10
30.30000800000002
 20
45.975298923404353
 30
0.0
 40
0.3
 50
127.979872444862
 51
180.0
  0
LINE
  5
1AEA
  8
0
  6
CONTINUOUS
 62
     7
 10
48.024690076595327
 20
29.999982999999759
 30
0.0
 11
49.700000000000102
 21
29.999982999999759
 31
0.0
  0
ARC
  5
1AEB
  8
0
  6
CONTINUOUS
 62
     7
 10
49.700000000000102
 20
30.29998299999977
 30
0.0
 40
0.3
 50
270.0
 51
0.0
  0
ARC
  5
1AEC
  8
0
  6
CONTINUOUS
 62
     7
 10
46.99999499999992
 20
29.499982999999759
 30
0.0
 40
1.0
 50
37.97987244486206
 51
142.02012755513789
  0
ARC
  5
1AED
  8
0
  6
CONTINUOUS
 62
     7
 10
45.975299923404691
 20
30.29998299999977
 30
0.0
 40
0.3
 50
270.0
 51
322.02012755513789
  0
ARC
  5
1AEE
  8
0
  6
CONTINUOUS
 62
     7
 10
48.024690076595327
 20
30.29998299999977
 30
0.0
 40
0.3
 50
217.979872444862
 51
270.0
  0
LINE
  5
1AEF
  8
0
  6
CONTINUOUS
 62
     7
 10
35.000002999999943
 20
39.596196999999897
 30
0.0
 11
32.403799999999933
 21
36.99999399999956
 31
0.0
  0
LINE
  5
1AF0
  8
0
  6
CONTINUOUS
 62
     7
 10
39.596200000000103
 20
35.000005999999757
 30
0.0
 11
37.000002000000023
 21
32.403807999999458
 31
0.0
  0
LINE
  5
1AF1
  8
0
  6
CONTINUOUS
 62
     7
 10
-19.699992000000059
 20
50.000000000000057
 30
0.0
 11
19.699992000000119
 21
49.999999999999893
 31
0.0
  0
LINE
  5
1AF2
  8
0
  6
CONTINUOUS
 62
     7
 10
-11.29999699999987
 20
47.099999999999959
 30
0.0
 11
11.299996999999991
 21
47.099999999999667
 31
0.0
  0
ARC
  5
1AF3
  8
0
  6
CONTINUOUS
 62
     7
 10
19.699992000000119
 20
49.699999999999761
 30
0.0
 40
0.3
 50
0.0
 51
90.0
  0
LINE
  5
1AF4
  8
0
  6
CONTINUOUS
 62
     7
 10
17.59620000000001
 20
36.99999399999956
 30
0.0
 11
21.50000000000011
 21
36.99999399999956
 31
0.0
  0
LINE
  5
1AF5
  8
0
  6
CONTINUOUS
 62
     7
 10
26.34641016151383
 20
36.99999399999956
 30
0.0
 11
32.403799999999933
 21
36.99999399999956
 31
0.0
  0
ARC
  5
1AF6
  8
0
  6
CONTINUOUS
 62
     7
 10
26.34641016151383
 20
36.499993999999681
 30
0.0
 40
0.5
 50
90.0
 51
120.0000000000019
  0
LINE
  5
1AF7
  8
0
  6
CONTINUOUS
 62
     7
 10
23.903589838486202
 20
36.93300670189177
 30
0.0
 11
25.000000000000028
 21
36.299993999999458
 31
0.0
  0
LINE
  5
1AF8
  8
0
  6
CONTINUOUS
 62
     7
 10
26.09641016151383
 20
36.933006701891713
 30
0.0
 11
25.000000000000028
 21
36.299993999999458
 31
0.0
  0
LINE
  5
1AF9
  8
0
  6
CONTINUOUS
 62
     7
 10
21.50000000000011
 20
36.99999399999956
 30
0.0
 11
23.084844902253511
 21
36.748979227154962
 31
0.0
  0
ARC
  5
1AFA
  8
0
  6
CONTINUOUS
 62
     7
 10
23.653589838486202
 20
36.499993999999681
 30
0.0
 40
0.5
 50
59.99999999999946
 51
120.0000000000034
  0
LINE
  5
1AFB
  8
0
  6
CONTINUOUS
 62
     7
 10
23.084844902253511
 20
36.748979227154962
 30
0.0
 11
23.403589838486202
 21
36.933006701891877
 31
0.0
  0
LINE
  5
1AFC
  8
0
  6
CONTINUOUS
 62
     7
 10
37.000002000000023
 20
32.403807999999458
 30
0.0
 11
37.000002000000023
 21
28.499999999999769
 31
0.0
  0
LINE
  5
1AFD
  8
0
  6
CONTINUOUS
 62
     7
 10
37.000002000000023
 20
23.653589838486081
 30
0.0
 11
37.000002000000023
 21
17.596191999999739
 31
0.0
  0
ARC
  5
1AFE
  8
0
  6
CONTINUOUS
 62
     7
 10
36.50000200000003
 20
23.653589838486081
 30
0.0
 40
0.5
 50
0.0
 51
29.99999999999973
  0
LINE
  5
1AFF
  8
0
  6
CONTINUOUS
 62
     7
 10
36.933014701892212
 20
26.096410161513688
 30
0.0
 11
36.300002000000013
 21
24.99999999999995
 31
0.0
  0
LINE
  5
1B00
  8
0
  6
CONTINUOUS
 62
     7
 10
36.933014701892212
 20
23.903589838486081
 30
0.0
 11
36.300002000000013
 21
24.99999999999995
 31
0.0
  0
LINE
  5
1B01
  8
0
  6
CONTINUOUS
 62
     7
 10
37.000002000000023
 20
28.499999999999769
 30
0.0
 11
36.748987227155432
 21
26.915155097746378
 31
0.0
  0
ARC
  5
1B02
  8
0
  6
CONTINUOUS
 62
     7
 10
36.50000200000003
 20
26.346410161513688
 30
0.0
 40
0.5
 50
330.00000000000028
 51
29.99999999999973
  0
LINE
  5
1B03
  8
0
  6
CONTINUOUS
 62
     7
 10
36.748987227155432
 20
26.915155097746378
 30
0.0
 11
36.933014701892212
 21
26.596410161513688
 31
0.0
  0
LINE
  5
1B04
  8
0
  6
CONTINUOUS
 62
     7
 10
-19.699992000000059
 20
-50.000000000000313
 30
0.0
 11
19.699992000000119
 21
-49.999999999999943
 31
0.0
  0
LINE
  5
1B05
  8
0
  6
CONTINUOUS
 62
     7
 10
-11.29999699999987
 20
-47.100000000000243
 30
0.0
 11
11.299993999999909
 21
-47.099999999999987
 31
0.0
  0
LINE
  5
1B06
  8
0
  6
CONTINUOUS
 62
     7
 10
-49.99999999999968
 20
19.699992000000059
 30
0.0
 11
-49.99999999999968
 21
-19.699992000000009
 31
0.0
  0
LINE
  5
1B07
  8
0
  6
CONTINUOUS
 62
     7
 10
-47.099999999999667
 20
11.2999969999999
 30
0.0
 11
-47.099999999999667
 21
-11.299993999999829
 31
0.0
  0
LINE
  5
1B08
  8
CENTER
  6
CENTER
 62
     1
 10
-51.999999999999879
 20
0.0
 30
0.0
 11
52.000000000000021
 21
0.0
 31
0.0
  0
LINE
  5
1B0B
  8
CENTER
  6
CENTER
 62
     1
 10
25.000000000000028
 20
51.999999999999879
 30
0.0
 11
25.000000000000028
 21
12.00006409379413
 31
0.0
  0
LINE
  5
1B0C
  8
CENTER
  6
CENTER
 62
     1
 10
0.0
 20
51.999999999999879
 30
0.0
 11
0.0
 21
-51.999999999999943
 31
0.0
  0
LINE
  5
1B0F
  8
0
  6
CONTINUOUS
 62
     7
 10
12.59289020591399
 20
34.932268741009921
 30
0.0
 11
15.503131266235011
 21
32.022027574509757
 31
0.0
  0
LINE
  5
1B10
  8
0
  6
CONTINUOUS
 62
     7
 10
32.02199540782641
 20
15.503162830233579
 30
0.0
 11
34.932270900167111
 21
12.59288723171249
 31
0.0
  0
ARC
  5
1B11
  8
0
  6
CONTINUOUS
 62
     7
 10
13.29999699999993
 20
35.639375509297217
 30
0.0
 40
1.0
 50
180.0
 51
224.99999895479351
  0
LINE
  5
1B1D
  8
0
  6
CONTINUOUS
 62
     7
 10
4.3934162387823221
 20
49.999999999999943
 30
0.0
 11
11.05906185463334
 21
49.999999999999943
 31
0.0
  0
LINE
  5
1B1E
  8
0
  6
CONTINUOUS
 62
     7
 10
4.3934162387823221
 20
47.099999999999852
 30
0.0
 11
11.05906185463334
 21
47.099999999999852
 31
0.0
  0
LINE
  5
1B3F
  8
0
  6
CONTINUOUS
 62
     7
 10
22.990154484518001
 20
33.981099433986749
 30
0.0
 11
24.279118879072598
 21
31.748547613470858
 31
0.0
  0
LINE
  5
1B40
  8
0
  6
CONTINUOUS
 62
     7
 10
18.22701823967509
 20
31.231093413427459
 30
0.0
 11
19.7201535969165
 21
28.64490711210772
 31
0.0
  0
ARC
  5
1B41
  8
0
  6
CONTINUOUS
 62
     7
 10
25.000032273554329
 20
24.99999999999995
 30
0.0
 40
11.0
 50
148.2480138604673
 51
180.0
  0
ARC
  5
1B42
  8
0
  6
CONTINUOUS
 62
     7
 10
25.000032273554329
 20
24.99999999999995
 30
0.0
 40
11.0
 50
116.4170404078175
 51
123.58368380490479
  0
ARC
  5
1B43
  8
0
  6
CONTINUOUS
 62
     7
 10
14.79602447214921
 20
31.31492080622257
 30
0.0
 40
1.0
 50
328.24801386047091
 51
44.999998954790101
  0
ARC
  5
1B44
  8
0
  6
CONTINUOUS
 62
     7
 10
21.0848985961922
 20
32.881099433986783
 30
0.0
 40
2.2000000000000002
 50
29.99999999999973
 51
116.4170404078175
  0
ARC
  5
1B45
  8
0
  6
CONTINUOUS
 62
     7
 10
20.132274128000908
 20
32.331093413427482
 30
0.0
 40
2.2000000000000002
 50
123.58368380490479
 51
209.99999999999969
  0
ARC
  5
1B46
  8
0
  6
CONTINUOUS
 62
     7
 10
25.000032273554329
 20
24.99999999999995
 30
0.0
 40
6.25
 50
147.75277156856791
 51
180.0
  0
ARC
  5
1B47
  8
0
  6
CONTINUOUS
 62
     7
 10
25.000032273554329
 20
24.99999999999995
 30
0.0
 40
6.25
 50
1.1470939995038669
 51
13.85246094133729
  0
ARC
  5
1B48
  8
0
  6
CONTINUOUS
 62
     7
 10
32.039169414932189
 20
26.735813441840381
 30
0.0
 40
1.0
 50
135.00000000000341
 51
193.85246094133689
  0
ARC
  5
1B49
  8
0
  6
CONTINUOUS
 62
     7
 10
32.248579338320098
 20
25.145139415303159
 30
0.0
 40
1.0
 50
181.14709399950391
 51
239.99999999999949
  0
ARC
  5
1B4A
  8
0
  6
CONTINUOUS
 62
     7
 10
25.000032273554329
 20
24.99999999999995
 30
0.0
 40
6.25
 50
76.14724078459129
 51
88.8531226298566
  0
ARC
  5
1B4B
  8
0
  6
CONTINUOUS
 62
     7
 10
25.145144282857022
 20
32.248547613470862
 30
0.0
 40
1.0
 50
209.99999999999969
 51
268.85312262985661
  0
ARC
  5
1B4C
  8
0
  6
CONTINUOUS
 62
     7
 10
26.735882360166219
 20
32.039128104872702
 30
0.0
 40
1.0
 50
256.14724078459119
 51
314.99999999999881
  0
ARC
  5
1B4D
  8
0
  6
CONTINUOUS
 62
     7
 10
19.46034597578122
 20
28.49490711210774
 30
0.0
 40
0.3
 50
327.75277156856788
 51
29.99999999999973
  0
ARC
  5
1B4E
  8
0
  6
CONTINUOUS
 62
     7
 10
16.3750322735543
 20
24.99999999999995
 30
0.0
 40
2.375
 50
180.0
 51
0.0
  0
LINE
  5
1B4F
  8
0
  6
CONTINUOUS
 62
     7
 10
33.154942830859433
 20
29.265800420140689
 30
0.0
 11
31.3320626337457
 21
27.442920223026871
 31
0.0
  0
LINE
  5
1B50
  8
0
  6
CONTINUOUS
 62
     7
 10
29.265850618567331
 20
33.154882800900573
 30
0.0
 11
27.44298914135268
 21
31.332021323686039
 31
0.0
  0
ARC
  5
1B51
  8
0
  6
CONTINUOUS
 62
     7
 10
25.00006158923259
 20
24.999927976550449
 30
0.0
 40
11.0
 50
41.417040407816764
 51
48.583683804905156
  0
ARC
  5
1B52
  8
0
  6
CONTINUOUS
 62
     7
 10
31.599307912248999
 20
30.82143533875109
 30
0.0
 40
2.2000000000000002
 50
315.0
 51
41.417040407816764
  0
ARC
  5
1B53
  8
0
  6
CONTINUOUS
 62
     7
 10
30.82148553717769
 20
31.599247882290172
 30
0.0
 40
2.2000000000000002
 50
48.583683804905156
 51
135.0
  0
LINE
  5
1B54
  8
0
  6
CONTINUOUS
 62
     7
 10
33.981067613793023
 20
22.99018630471193
 30
0.0
 11
31.748579338320191
 21
24.2791140115188
 31
0.0
  0
LINE
  5
1B55
  8
0
  6
CONTINUOUS
 62
     7
 10
31.231061593233822
 20
18.227050059868979
 30
0.0
 11
28.998457689036339
 21
19.516044524951148
 31
0.0
  0
ARC
  5
1B56
  8
0
  6
CONTINUOUS
 62
     7
 10
24.999968179806189
 20
25.000064093748112
 30
0.0
 40
11.0
 50
270.0
 51
301.75198404912101
  0
ARC
  5
1B57
  8
0
  6
CONTINUOUS
 62
     7
 10
31.31488861374061
 20
14.79605606194616
 30
0.0
 40
1.0
 50
44.999998954794712
 51
121.7519840491241
  0
ARC
  5
1B58
  8
0
  6
CONTINUOUS
 62
     7
 10
24.999968179806189
 20
25.000064093748112
 30
0.0
 40
11.0
 50
326.41631619509519
 51
333.58295959218248
  0
ARC
  5
1B59
  8
0
  6
CONTINUOUS
 62
     7
 10
32.881067613793107
 20
21.084930416386161
 30
0.0
 40
2.1999999999999988
 50
333.58295959218248
 51
60.000000000002501
  0
ARC
  5
1B5A
  8
0
  6
CONTINUOUS
 62
     7
 10
32.331061593233812
 20
20.132305948194752
 30
0.0
 40
2.1999999999999988
 50
240.0000000000025
 51
326.41631619509519
  0
ARC
  5
1B5B
  8
0
  6
CONTINUOUS
 62
     7
 10
24.999968179806189
 20
25.000064093748112
 30
0.0
 40
6.2499999999999991
 50
270.0
 51
298.85209752435372
  0
ARC
  5
1B5C
  8
0
  6
CONTINUOUS
 62
     7
 10
28.498457689036339
 20
18.650019121166679
 30
0.0
 40
1.0
 50
60.000000000003908
 51
118.8520975243537
  0
ARC
  5
1B5D
  8
0
  6
CONTINUOUS
 62
     7
 10
24.999968179806331
 20
16.375064093748112
 30
0.0
 40
2.3749999999999991
 50
90.0
 51
270.0
  0
ARC
  5
1B5E
  8
0
  6
CONTINUOUS
 62
     7
 10
-11.299993999999799
 20
46.099999999999731
 30
0.0
 40
1.0
 50
90.0
 51
180.0
  0
LINE
  5
1B5F
  8
0
  6
CONTINUOUS
 62
     7
 10
-14.999993999999811
 20
39.596199999999897
 30
0.0
 11
-14.999993999999869
 21
43.999985999999979
 31
0.0
  0
LINE
  5
1B60
  8
0
  6
CONTINUOUS
 62
     7
 10
-12.299993999999881
 20
35.639377694252751
 30
0.0
 11
-12.299993999999799
 21
46.099999999999731
 31
0.0
  0
ARC
  5
1B61
  8
0
  6
CONTINUOUS
 62
     7
 10
-13.299993999999881
 20
35.639377694252751
 30
0.0
 40
1.0
 50
314.99999895479363
 51
0.0
  0
LINE
  5
1B62
  8
0
  6
CONTINUOUS
 62
     7
 10
-19.7000169999998
 20
43.999985999999979
 30
0.0
 11
-14.999993999999869
 21
43.999985999999979
 31
0.0
  0
ARC
  5
1B63
  8
0
  6
CONTINUOUS
 62
     7
 10
-19.7000169999998
 20
44.299985999999933
 30
0.0
 40
0.3
 50
180.0
 51
270.0
  0
LINE
  5
1B64
  8
0
  6
CONTINUOUS
 62
     7
 10
-20.000016999999701
 20
45.975299923404691
 30
0.0
 11
-20.000016999999701
 21
44.299985999999933
 31
0.0
  0
LINE
  5
1B65
  8
0
  6
CONTINUOUS
 62
     7
 10
-20.000016999999701
 20
48.024690076595277
 30
0.0
 11
-20.000016999999701
 21
49.699999999999932
 31
0.0
  0
ARC
  5
1B66
  8
0
  6
CONTINUOUS
 62
     7
 10
-19.7000169999998
 20
49.699999999999932
 30
0.0
 40
0.3
 50
90.0
 51
180.0
  0
ARC
  5
1B67
  8
0
  6
CONTINUOUS
 62
     7
 10
-20.50001700000001
 20
46.999994999999892
 30
0.0
 40
1.0
 50
307.979872444862
 51
52.020127555137947
  0
ARC
  5
1B68
  8
0
  6
CONTINUOUS
 62
     7
 10
-19.7000169999998
 20
45.975299923404691
 30
0.0
 40
0.3
 50
127.979872444862
 51
180.0
  0
ARC
  5
1B69
  8
0
  6
CONTINUOUS
 62
     7
 10
-19.7000169999998
 20
48.024690076595277
 30
0.0
 40
0.3
 50
180.0
 51
232.02012755513789
  0
LINE
  5
1B6A
  8
0
  6
CONTINUOUS
 62
     7
 10
-14.999993999999811
 20
39.596199999999897
 30
0.0
 11
-17.5961919999998
 21
37.000001999999938
 31
0.0
  0
LINE
  5
1B6B
  8
0
  6
CONTINUOUS
 62
     7
 10
-39.596196999999883
 20
14.99999699999989
 30
0.0
 11
-43.999994999999807
 21
14.99999699999989
 31
0.0
  0
LINE
  5
1B6C
  8
0
  6
CONTINUOUS
 62
     7
 10
-35.639375509297281
 20
12.29999699999979
 30
0.0
 11
-46.099999999999788
 21
12.2999969999999
 31
0.0
  0
ARC
  5
1B6D
  8
0
  6
CONTINUOUS
 62
     7
 10
-46.099999999999788
 20
11.2999969999999
 30
0.0
 40
1.0
 50
90.0
 51
180.0
  0
LINE
  5
1B6E
  8
0
  6
CONTINUOUS
 62
     7
 10
-48.024689076595081
 20
19.99999200000002
 30
0.0
 11
-49.699999999999811
 21
19.99999200000002
 31
0.0
  0
LINE
  5
1B6F
  8
0
  6
CONTINUOUS
 62
     7
 10
-43.999990999999802
 20
19.699992000000009
 30
0.0
 11
-43.999990999999802
 21
14.9999929999999
 31
0.0
  0
LINE
  5
1B70
  8
0
  6
CONTINUOUS
 62
     7
 10
-45.975298923404381
 20
19.99999200000002
 30
0.0
 11
-44.299990999999807
 21
19.99999200000002
 31
0.0
  0
ARC
  5
1B71
  8
0
  6
CONTINUOUS
 62
     7
 10
-44.299990999999807
 20
19.699992000000009
 30
0.0
 40
0.3
 50
0.0
 51
90.0
  0
ARC
  5
1B72
  8
0
  6
CONTINUOUS
 62
     7
 10
-46.999993999999703
 20
20.49999200000002
 30
0.0
 40
1.0
 50
217.979872444862
 51
322.02012755513789
  0
ARC
  5
1B73
  8
0
  6
CONTINUOUS
 62
     7
 10
-48.024689076595081
 20
19.699992000000009
 30
0.0
 40
0.3
 50
37.97987244486206
 51
90.0
  0
ARC
  5
1B74
  8
0
  6
CONTINUOUS
 62
     7
 10
-45.975298923404381
 20
19.699992000000009
 30
0.0
 40
0.3
 50
90.0
 51
142.02012755513789
  0
LINE
  5
1B75
  8
0
  6
CONTINUOUS
 62
     7
 10
-36.999993999999703
 20
17.5961999999999
 30
0.0
 11
-39.596196999999883
 21
14.99999699999989
 31
0.0
  0
LINE
  5
1B76
  8
0
  6
CONTINUOUS
 62
     7
 10
-35.000005999999821
 20
39.596199999999961
 30
0.0
 11
-35.000005999999821
 21
43.999985999999979
 31
0.0
  0
LINE
  5
1B77
  8
0
  6
CONTINUOUS
 62
     7
 10
-30.299982999999688
 20
49.999999999999943
 30
0.0
 11
-46.999999999999879
 21
49.999999999999943
 31
0.0
  0
LINE
  5
1B78
  8
0
  6
CONTINUOUS
 62
     7
 10
-49.999999999999893
 20
30.300007999999881
 30
0.0
 11
-49.999999999999893
 21
46.999999999999943
 31
0.0
  0
ARC
  5
1B79
  8
0
  6
CONTINUOUS
 62
     7
 10
-49.699999999999697
 20
30.300007999999881
 30
0.0
 40
0.3
 50
180.0
 51
270.0
  0
ARC
  5
1B7A
  8
0
  6
CONTINUOUS
 62
     7
 10
-46.999999999999879
 20
46.999999999999943
 30
0.0
 40
3.0
 50
90.0
 51
180.0
  0
LINE
  5
1B7B
  8
0
  6
CONTINUOUS
 62
     7
 10
-39.596196999999883
 20
35.000002999999879
 30
0.0
 11
-43.999994999999807
 21
35.000002999999879
 31
0.0
  0
LINE
  5
1B7C
  8
0
  6
CONTINUOUS
 62
     7
 10
-30.29998299999988
 20
43.999985999999979
 30
0.0
 11
-35.000005999999821
 21
43.999985999999979
 31
0.0
  0
ARC
  5
1B7D
  8
0
  6
CONTINUOUS
 62
     7
 10
-30.29998299999988
 20
44.299985999999933
 30
0.0
 40
0.3
 50
270.0
 51
0.0
  0
LINE
  5
1B7E
  8
0
  6
CONTINUOUS
 62
     7
 10
-29.999982999999819
 20
45.975299923404691
 30
0.0
 11
-29.999982999999819
 21
44.299985999999933
 31
0.0
  0
LINE
  5
1B7F
  8
0
  6
CONTINUOUS
 62
     7
 10
-48.024689076595081
 20
30.00000799999987
 30
0.0
 11
-49.699999999999697
 21
30.00000799999987
 31
0.0
  0
LINE
  5
1B80
  8
0
  6
CONTINUOUS
 62
     7
 10
-43.999990999999802
 20
30.300007999999881
 30
0.0
 11
-43.999990999999802
 21
35.000006999999762
 31
0.0
  0
LINE
  5
1B81
  8
0
  6
CONTINUOUS
 62
     7
 10
-45.975298923404381
 20
30.00000799999987
 30
0.0
 11
-44.299990999999807
 21
30.00000799999987
 31
0.0
  0
ARC
  5
1B82
  8
0
  6
CONTINUOUS
 62
     7
 10
-44.299990999999807
 20
30.300007999999881
 30
0.0
 40
0.3
 50
270.0
 51
0.0
  0
ARC
  5
1B83
  8
0
  6
CONTINUOUS
 62
     7
 10
-46.999993999999703
 20
29.50000799999998
 30
0.0
 40
1.0
 50
37.97987244486206
 51
142.02012755513789
  0
ARC
  5
1B84
  8
0
  6
CONTINUOUS
 62
     7
 10
-48.024689076595081
 20
30.300007999999881
 30
0.0
 40
0.3
 50
270.0
 51
322.02012755513789
  0
ARC
  5
1B85
  8
0
  6
CONTINUOUS
 62
     7
 10
-45.975298923404381
 20
30.300007999999881
 30
0.0
 40
0.3
 50
217.979872444862
 51
270.0
  0
LINE
  5
1B86
  8
0
  6
CONTINUOUS
 62
     7
 10
-29.999982999999819
 20
48.024690076595277
 30
0.0
 11
-29.999982999999819
 21
49.699999999999932
 31
0.0
  0
ARC
  5
1B87
  8
0
  6
CONTINUOUS
 62
     7
 10
-30.299982999999688
 20
49.699999999999932
 30
0.0
 40
0.3
 50
0.0
 51
90.0
  0
ARC
  5
1B88
  8
0
  6
CONTINUOUS
 62
     7
 10
-29.499982999999819
 20
46.999994999999892
 30
0.0
 40
1.0
 50
127.979872444862
 51
232.02012755513789
  0
ARC
  5
1B89
  8
0
  6
CONTINUOUS
 62
     7
 10
-30.29998299999988
 20
45.975299923404691
 30
0.0
 40
0.3
 50
0.0
 51
52.020127555137947
  0
ARC
  5
1B8A
  8
0
  6
CONTINUOUS
 62
     7
 10
-30.29998299999988
 20
48.024690076595277
 30
0.0
 40
0.3
 50
307.979872444862
 51
0.0
  0
LINE
  5
1B8B
  8
0
  6
CONTINUOUS
 62
     7
 10
-39.596196999999883
 20
35.000002999999879
 30
0.0
 11
-36.999993999999589
 21
32.403799999999883
 31
0.0
  0
LINE
  5
1B8C
  8
0
  6
CONTINUOUS
 62
     7
 10
-35.000005999999821
 20
39.596199999999961
 30
0.0
 11
-32.403807999999522
 21
37.000001999999938
 31
0.0
  0
ARC
  5
1B8D
  8
0
  6
CONTINUOUS
 62
     7
 10
-49.699999999999811
 20
19.699992000000009
 30
0.0
 40
0.3
 50
90.0
 51
180.0
  0
LINE
  5
1B8E
  8
0
  6
CONTINUOUS
 62
     7
 10
-36.999993999999703
 20
17.5961999999999
 30
0.0
 11
-36.999993999999703
 21
21.50000000000006
 31
0.0
  0
LINE
  5
1B8F
  8
0
  6
CONTINUOUS
 62
     7
 10
-36.999993999999703
 20
26.346410161513688
 30
0.0
 11
-36.999993999999589
 21
32.403799999999883
 31
0.0
  0
ARC
  5
1B90
  8
0
  6
CONTINUOUS
 62
     7
 10
-36.499993999999703
 20
26.346410161513688
 30
0.0
 40
0.5
 50
180.0
 51
209.99999999999969
  0
LINE
  5
1B91
  8
0
  6
CONTINUOUS
 62
     7
 10
-36.933006701891799
 20
23.903589838486081
 30
0.0
 11
-36.299993999999572
 21
24.99999999999995
 31
0.0
  0
LINE
  5
1B92
  8
0
  6
CONTINUOUS
 62
     7
 10
-36.933006701891799
 20
26.096410161513798
 30
0.0
 11
-36.299993999999572
 21
24.99999999999995
 31
0.0
  0
LINE
  5
1B93
  8
0
  6
CONTINUOUS
 62
     7
 10
-36.999993999999703
 20
21.50000000000006
 30
0.0
 11
-36.74897922715499
 21
23.084844902253451
 31
0.0
  0
ARC
  5
1B94
  8
0
  6
CONTINUOUS
 62
     7
 10
-36.499993999999703
 20
23.653589838486202
 30
0.0
 40
0.5
 50
150.0000000000002
 51
210.00000000000421
  0
LINE
  5
1B95
  8
0
  6
CONTINUOUS
 62
     7
 10
-36.74897922715499
 20
23.084844902253451
 30
0.0
 11
-36.933006701891912
 21
23.403589838486202
 31
0.0
  0
LINE
  5
1B96
  8
0
  6
CONTINUOUS
 62
     7
 10
-32.403807999999522
 20
37.000001999999938
 30
0.0
 11
-28.49999999999989
 21
37.000001999999938
 31
0.0
  0
LINE
  5
1B97
  8
0
  6
CONTINUOUS
 62
     7
 10
-23.653589838486109
 20
37.000001999999938
 30
0.0
 11
-17.5961919999998
 21
37.000001999999938
 31
0.0
  0
ARC
  5
1B98
  8
0
  6
CONTINUOUS
 62
     7
 10
-23.653589838486109
 20
36.500001999999938
 30
0.0
 40
0.5
 50
90.0
 51
120.0000000000005
  0
LINE
  5
1B99
  8
0
  6
CONTINUOUS
 62
     7
 10
-26.09641016151366
 20
36.933014701892212
 30
0.0
 11
-25.0
 21
36.300001999999893
 31
0.0
  0
LINE
  5
1B9A
  8
0
  6
CONTINUOUS
 62
     7
 10
-23.903589838486109
 20
36.933014701892212
 30
0.0
 11
-25.0
 21
36.300001999999893
 31
0.0
  0
LINE
  5
1B9B
  8
0
  6
CONTINUOUS
 62
     7
 10
-28.49999999999989
 20
37.000001999999938
 30
0.0
 11
-26.915155097746489
 21
36.748987227155403
 31
0.0
  0
ARC
  5
1B9C
  8
0
  6
CONTINUOUS
 62
     7
 10
-26.34641016151366
 20
36.500001999999938
 30
0.0
 40
0.5
 50
59.999999999998039
 51
120.0000000000005
  0
LINE
  5
1B9D
  8
0
  6
CONTINUOUS
 62
     7
 10
-26.915155097746489
 20
36.748987227155403
 30
0.0
 11
-26.59641016151366
 21
36.933014701892212
 31
0.0
  0
LINE
  5
1B9E
  8
0
  6
CONTINUOUS
 62
     7
 10
-34.932268741009977
 20
12.59289020591399
 30
0.0
 11
-32.022027574509877
 21
15.503131266235011
 31
0.0
  0
LINE
  5
1B9F
  8
0
  6
CONTINUOUS
 62
     7
 10
-15.503162830233579
 20
32.021995407826353
 30
0.0
 11
-12.59288723171249
 21
34.932270900166941
 31
0.0
  0
ARC
  5
1BA0
  8
0
  6
CONTINUOUS
 62
     7
 10
-35.639375509297281
 20
13.29999699999979
 30
0.0
 40
1.0
 50
270.0
 51
314.99999895479363
  0
LINE
  5
1BA1
  8
0
  6
CONTINUOUS
 62
     7
 10
-33.981099433986827
 20
22.990154484517909
 30
0.0
 11
-31.74854761347089
 21
24.279118879072541
 31
0.0
  0
LINE
  5
1BA2
  8
0
  6
CONTINUOUS
 62
     7
 10
-31.231093413427519
 20
18.22701823967509
 30
0.0
 11
-28.644907112107798
 21
19.720153596916472
 31
0.0
  0
ARC
  5
1BA3
  8
0
  6
CONTINUOUS
 62
     7
 10
-25.0
 20
25.000032273554272
 30
0.0
 40
11.0
 50
238.24801386046869
 51
270.0
  0
ARC
  5
1BA4
  8
0
  6
CONTINUOUS
 62
     7
 10
-25.0
 20
25.000032273554272
 30
0.0
 40
11.0
 50
206.4170404078175
 51
213.5836838049039
  0
ARC
  5
1BA5
  8
0
  6
CONTINUOUS
 62
     7
 10
-31.31492080622257
 20
14.796024472149099
 30
0.0
 40
1.0
 50
58.24801386046876
 51
134.99999895478891
  0
ARC
  5
1BA6
  8
0
  6
CONTINUOUS
 62
     7
 10
-32.881099433986797
 20
21.084898596192151
 30
0.0
 40
2.2000000000000002
 50
120.0000000000005
 51
206.4170404078175
  0
ARC
  5
1BA7
  8
0
  6
CONTINUOUS
 62
     7
 10
-32.33109341342751
 20
20.132274128000748
 30
0.0
 40
2.2000000000000002
 50
213.5836838049039
 51
300.00000000000051
  0
ARC
  5
1BA8
  8
0
  6
CONTINUOUS
 62
     7
 10
-25.0
 20
25.000032273554272
 30
0.0
 40
6.25
 50
237.75277156856879
 51
270.0
  0
ARC
  5
1BA9
  8
0
  6
CONTINUOUS
 62
     7
 10
-25.0
 20
25.000032273554272
 30
0.0
 40
6.25
 50
91.147093999502204
 51
103.8524609413389
  0
ARC
  5
1BAA
  8
0
  6
CONTINUOUS
 62
     7
 10
-26.73581344184041
 20
32.039169414932083
 30
0.0
 40
1.0
 50
225.0000000000046
 51
283.85246094133731
  0
ARC
  5
1BAB
  8
0
  6
CONTINUOUS
 62
     7
 10
-25.145139415303309
 20
32.248579338320098
 30
0.0
 40
1.0
 50
271.1470939995038
 51
330.00000000000028
  0
ARC
  5
1BAC
  8
0
  6
CONTINUOUS
 62
     7
 10
-25.0
 20
25.000032273554272
 30
0.0
 40
6.25
 50
166.14724078459011
 51
178.85312262985821
  0
ARC
  5
1BAD
  8
0
  6
CONTINUOUS
 62
     7
 10
-32.24854761347089
 20
25.145144282856961
 30
0.0
 40
1.0
 50
300.00000000000188
 51
358.85312262985502
  0
ARC
  5
1BAE
  8
0
  6
CONTINUOUS
 62
     7
 10
-32.039128104872667
 20
26.735882360166102
 30
0.0
 40
1.0
 50
346.14724078459011
 51
45.0
  0
ARC
  5
1BAF
  8
0
  6
CONTINUOUS
 62
     7
 10
-28.494907112107828
 20
19.460345975781141
 30
0.0
 40
0.3
 50
57.752771568568789
 51
119.9999999999975
  0
ARC
  5
1BB0
  8
0
  6
CONTINUOUS
 62
     7
 10
-25.0
 20
16.375032273554272
 30
0.0
 40
2.375
 50
270.0
 51
90.0
  0
LINE
  5
1BB1
  8
0
  6
CONTINUOUS
 62
     7
 10
-29.265800420140689
 20
33.154942830859227
 30
0.0
 11
-27.442920223026871
 21
31.332062633745579
 31
0.0
  0
LINE
  5
1BB2
  8
0
  6
CONTINUOUS
 62
     7
 10
-33.154882800900573
 20
29.265850618567239
 30
0.0
 11
-31.332021323686071
 21
27.442989141352768
 31
0.0
  0
ARC
  5
1BB3
  8
0
  6
CONTINUOUS
 62
     7
 10
-24.999927976550481
 20
25.00006158923259
 30
0.0
 40
11.0
 50
131.41704040781681
 51
138.58368380490401
  0
ARC
  5
1BB4
  8
0
  6
CONTINUOUS
 62
     7
 10
-30.821435338751058
 20
31.59930791224895
 30
0.0
 40
2.2000000000000002
 50
45.0
 51
131.41704040781681
  0
ARC
  5
1BB5
  8
0
  6
CONTINUOUS
 62
     7
 10
-31.5992478822902
 20
30.82148553717769
 30
0.0
 40
2.2000000000000002
 50
138.58368380490401
 51
225.0
  0
LINE
  5
1BB6
  8
0
  6
CONTINUOUS
 62
     7
 10
-22.99018630471193
 20
33.981067613792959
 30
0.0
 11
-24.279114011518772
 21
31.748579338320098
 31
0.0
  0
LINE
  5
1BB7
  8
0
  6
CONTINUOUS
 62
     7
 10
-18.227050059869011
 20
31.231061593233729
 30
0.0
 11
-19.51604452495118
 21
28.998457689036229
 31
0.0
  0
ARC
  5
1BB8
  8
0
  6
CONTINUOUS
 62
     7
 10
-25.00006409374808
 20
24.99996817980611
 30
0.0
 40
11.0
 50
0.0
 51
31.75198404912188
  0
ARC
  5
1BB9
  8
0
  6
CONTINUOUS
 62
     7
 10
-14.796056061946301
 20
31.31488861374055
 30
0.0
 40
1.0
 50
134.99999895479701
 51
211.7519840491255
  0
ARC
  5
1BBA
  8
0
  6
CONTINUOUS
 62
     7
 10
-25.00006409374808
 20
24.99996817980611
 30
0.0
 40
11.0
 50
56.416316195093849
 51
63.582959592182462
  0
ARC
  5
1BBB
  8
0
  6
CONTINUOUS
 62
     7
 10
-21.084930416386179
 20
32.88106761379305
 30
0.0
 40
2.1999999999999988
 50
63.582959592182462
 51
150.0000000000002
  0
ARC
  5
1BBC
  8
0
  6
CONTINUOUS
 62
     7
 10
-20.132305948194901
 20
32.331061593233763
 30
0.0
 40
2.1999999999999988
 50
330.00000000000028
 51
56.416316195093849
  0
ARC
  5
1BBD
  8
0
  6
CONTINUOUS
 62
     7
 10
-25.00006409374808
 20
24.99996817980611
 30
0.0
 40
6.2499999999999991
 50
0.0
 51
28.852097524355141
  0
ARC
  5
1BBE
  8
0
  6
CONTINUOUS
 62
     7
 10
-18.650019121166679
 20
28.498457689036229
 30
0.0
 40
1.0
 50
150.00000000000389
 51
208.8520975243552
  0
ARC
  5
1BBF
  8
0
  6
CONTINUOUS
 62
     7
 10
-16.375064093748161
 20
24.999968179806221
 30
0.0
 40
2.3749999999999991
 50
180.0
 51
0.0
  0
ARC
  5
1BC0
  8
0
  6
CONTINUOUS
 62
     7
 10
-46.099999999999788
 20
-11.299993999999829
 30
0.0
 40
1.0
 50
180.0
 51
270.0
  0
LINE
  5
1BC1
  8
0
  6
CONTINUOUS
 62
     7
 10
-39.59620000000001
 20
-14.999993999999811
 30
0.0
 11
-43.999986
 21
-14.99999399999993
 31
0.0
  0
LINE
  5
1BC2
  8
0
  6
CONTINUOUS
 62
     7
 10
-35.639377694252893
 20
-12.299993999999939
 30
0.0
 11
-46.099999999999788
 21
-12.29999399999982
 31
0.0
  0
ARC
  5
1BC3
  8
0
  6
CONTINUOUS
 62
     7
 10
-35.639377694252893
 20
-13.299993999999939
 30
0.0
 40
1.0
 50
44.999998954793561
 51
90.0
  0
LINE
  5
1BC4
  8
0
  6
CONTINUOUS
 62
     7
 10
-43.999986000000057
 20
-19.7000169999998
 30
0.0
 11
-43.999986
 21
-14.99999399999993
 31
0.0
  0
ARC
  5
1BC5
  8
0
  6
CONTINUOUS
 62
     7
 10
-44.29998599999999
 20
-19.7000169999998
 30
0.0
 40
0.3
 50
270.0
 51
0.0
  0
LINE
  5
1BC6
  8
0
  6
CONTINUOUS
 62
     7
 10
-45.975299923404691
 20
-20.00001699999973
 30
0.0
 11
-44.29998599999999
 21
-20.00001699999973
 31
0.0
  0
LINE
  5
1BC7
  8
0
  6
CONTINUOUS
 62
     7
 10
-48.024690076595313
 20
-20.00001699999973
 30
0.0
 11
-49.700000000000067
 21
-20.00001699999973
 31
0.0
  0
ARC
  5
1BC8
  8
0
  6
CONTINUOUS
 62
     7
 10
-49.700000000000067
 20
-19.7000169999998
 30
0.0
 40
0.3
 50
180.0
 51
270.0
  0
ARC
  5
1BC9
  8
0
  6
CONTINUOUS
 62
     7
 10
-46.999994999999892
 20
-20.500016999999929
 30
0.0
 40
1.0
 50
37.97987244486206
 51
142.02012755513789
  0
ARC
  5
1BCA
  8
0
  6
CONTINUOUS
 62
     7
 10
-45.975299923404691
 20
-19.7000169999998
 30
0.0
 40
0.3
 50
217.979872444862
 51
270.0
  0
ARC
  5
1BCB
  8
0
  6
CONTINUOUS
 62
     7
 10
-48.024690076595313
 20
-19.7000169999998
 30
0.0
 40
0.3
 50
270.0
 51
322.02012755513789
  0
LINE
  5
1BCC
  8
0
  6
CONTINUOUS
 62
     7
 10
-39.59620000000001
 20
-14.999993999999811
 30
0.0
 11
-37.000002000000002
 21
-17.5961919999998
 31
0.0
  0
LINE
  5
1BCD
  8
0
  6
CONTINUOUS
 62
     7
 10
-14.99999699999989
 20
-39.596197000000018
 30
0.0
 11
-14.99999699999989
 21
-43.999994999999807
 31
0.0
  0
LINE
  5
1BCE
  8
0
  6
CONTINUOUS
 62
     7
 10
-12.29999699999988
 20
-35.639375509297423
 30
0.0
 11
-12.299996999999991
 21
-46.099999999999937
 31
0.0
  0
ARC
  5
1BCF
  8
0
  6
CONTINUOUS
 62
     7
 10
-11.29999699999987
 20
-46.099999999999937
 30
0.0
 40
1.0
 50
180.0
 51
270.0
  0
LINE
  5
1BD0
  8
0
  6
CONTINUOUS
 62
     7
 10
-19.999992000000081
 20
-48.024689076595131
 30
0.0
 11
-19.999992000000081
 21
-49.699999999999932
 31
0.0
  0
LINE
  5
1BD1
  8
0
  6
CONTINUOUS
 62
     7
 10
-19.699992000000059
 20
-43.999990999999817
 30
0.0
 11
-14.99999299999987
 21
-43.999990999999817
 31
0.0
  0
LINE
  5
1BD2
  8
0
  6
CONTINUOUS
 62
     7
 10
-19.999992000000081
 20
-45.975298923404523
 30
0.0
 11
-19.999992000000081
 21
-44.299990999999807
 31
0.0
  0
ARC
  5
1BD3
  8
0
  6
CONTINUOUS
 62
     7
 10
-19.699992000000059
 20
-44.299990999999807
 30
0.0
 40
0.3
 50
90.0
 51
180.0
  0
ARC
  5
1BD4
  8
0
  6
CONTINUOUS
 62
     7
 10
-20.499992000000081
 20
-46.999993999999731
 30
0.0
 40
1.0
 50
307.979872444862
 51
52.020127555137947
  0
ARC
  5
1BD5
  8
0
  6
CONTINUOUS
 62
     7
 10
-19.699992000000059
 20
-48.024689076595131
 30
0.0
 40
0.3
 50
127.979872444862
 51
180.0
  0
ARC
  5
1BD6
  8
0
  6
CONTINUOUS
 62
     7
 10
-19.699992000000059
 20
-45.975298923404523
 30
0.0
 40
0.3
 50
180.0
 51
232.02012755513789
  0
LINE
  5
1BD7
  8
0
  6
CONTINUOUS
 62
     7
 10
-17.59620000000001
 20
-36.999993999999731
 30
0.0
 11
-14.99999699999989
 21
-39.596197000000018
 31
0.0
  0
LINE
  5
1BD8
  8
0
  6
CONTINUOUS
 62
     7
 10
-39.59620000000001
 20
-35.000005999999928
 30
0.0
 11
-43.999986000000057
 21
-35.000005999999821
 31
0.0
  0
LINE
  5
1BD9
  8
0
  6
CONTINUOUS
 62
     7
 10
-50.0
 20
-30.299982999999742
 30
0.0
 11
-50.0
 21
-46.999999999999943
 31
0.0
  0
LINE
  5
1BDA
  8
0
  6
CONTINUOUS
 62
     7
 10
-30.300007999999991
 20
-49.999999999999943
 30
0.0
 11
-47.0
 21
-49.999999999999943
 31
0.0
  0
ARC
  5
1BDB
  8
0
  6
CONTINUOUS
 62
     7
 10
-30.300007999999991
 20
-49.699999999999733
 30
0.0
 40
0.3
 50
270.0
 51
0.0
  0
ARC
  5
1BDC
  8
0
  6
CONTINUOUS
 62
     7
 10
-47.0
 20
-46.999999999999943
 30
0.0
 40
3.0
 50
180.0
 51
270.0
  0
LINE
  5
1BDD
  8
0
  6
CONTINUOUS
 62
     7
 10
-35.000002999999879
 20
-39.596197000000018
 30
0.0
 11
-35.000002999999879
 21
-43.999994999999807
 31
0.0
  0
LINE
  5
1BDE
  8
0
  6
CONTINUOUS
 62
     7
 10
-43.999986000000057
 20
-30.299982999999941
 30
0.0
 11
-43.999986000000057
 21
-35.000005999999821
 31
0.0
  0
ARC
  5
1BDF
  8
0
  6
CONTINUOUS
 62
     7
 10
-44.29998599999999
 20
-30.299982999999941
 30
0.0
 40
0.3
 50
0.0
 51
90.0
  0
LINE
  5
1BE0
  8
0
  6
CONTINUOUS
 62
     7
 10
-45.975299923404691
 20
-29.999982999999819
 30
0.0
 11
-44.29998599999999
 21
-29.999982999999819
 31
0.0
  0
LINE
  5
1BE1
  8
0
  6
CONTINUOUS
 62
     7
 10
-30.000008000000008
 20
-48.024689076595131
 30
0.0
 11
-30.000008000000008
 21
-49.699999999999733
 31
0.0
  0
LINE
  5
1BE2
  8
0
  6
CONTINUOUS
 62
     7
 10
-30.300007999999991
 20
-43.999990999999817
 30
0.0
 11
-35.000006999999897
 21
-43.999990999999817
 31
0.0
  0
LINE
  5
1BE3
  8
0
  6
CONTINUOUS
 62
     7
 10
-30.000008000000008
 20
-45.975298923404523
 30
0.0
 11
-30.000008000000008
 21
-44.299990999999807
 31
0.0
  0
ARC
  5
1BE4
  8
0
  6
CONTINUOUS
 62
     7
 10
-30.300007999999991
 20
-44.299990999999807
 30
0.0
 40
0.3
 50
0.0
 51
90.0
  0
ARC
  5
1BE5
  8
0
  6
CONTINUOUS
 62
     7
 10
-29.500008000000008
 20
-46.999993999999731
 30
0.0
 40
1.0
 50
127.979872444862
 51
232.02012755513789
  0
ARC
  5
1BE6
  8
0
  6
CONTINUOUS
 62
     7
 10
-30.300007999999991
 20
-48.024689076595131
 30
0.0
 40
0.3
 50
0.0
 51
52.020127555137947
  0
ARC
  5
1BE7
  8
0
  6
CONTINUOUS
 62
     7
 10
-30.300007999999991
 20
-45.975298923404523
 30
0.0
 40
0.3
 50
307.979872444862
 51
0.0
  0
LINE
  5
1BE8
  8
0
  6
CONTINUOUS
 62
     7
 10
-48.024690076595313
 20
-29.999982999999819
 30
0.0
 11
-49.700000000000067
 21
-29.999982999999819
 31
0.0
  0
ARC
  5
1BE9
  8
0
  6
CONTINUOUS
 62
     7
 10
-49.700000000000067
 20
-30.299982999999742
 30
0.0
 40
0.3
 50
90.0
 51
180.0
  0
ARC
  5
1BEA
  8
0
  6
CONTINUOUS
 62
     7
 10
-46.999994999999892
 20
-29.499982999999819
 30
0.0
 40
1.0
 50
217.979872444862
 51
322.02012755513789
  0
ARC
  5
1BEB
  8
0
  6
CONTINUOUS
 62
     7
 10
-45.975299923404691
 20
-30.299982999999941
 30
0.0
 40
0.3
 50
90.0
 51
142.02012755513789
  0
ARC
  5
1BEC
  8
0
  6
CONTINUOUS
 62
     7
 10
-48.024690076595313
 20
-30.299982999999941
 30
0.0
 40
0.3
 50
37.97987244486206
 51
90.0
  0
LINE
  5
1BED
  8
0
  6
CONTINUOUS
 62
     7
 10
-35.000002999999879
 20
-39.596197000000018
 30
0.0
 11
-32.403799999999883
 21
-36.999993999999617
 31
0.0
  0
LINE
  5
1BEE
  8
0
  6
CONTINUOUS
 62
     7
 10
-39.59620000000001
 20
-35.000005999999928
 30
0.0
 11
-37.000002000000002
 21
-32.403807999999628
 31
0.0
  0
ARC
  5
1BEF
  8
0
  6
CONTINUOUS
 62
     7
 10
-19.699992000000059
 20
-49.699999999999932
 30
0.0
 40
0.3
 50
180.0
 51
270.0
  0
LINE
  5
1BF0
  8
0
  6
CONTINUOUS
 62
     7
 10
-17.59620000000001
 20
-36.999993999999731
 30
0.0
 11
-21.500000000000089
 21
-36.999993999999731
 31
0.0
  0
LINE
  5
1BF1
  8
0
  6
CONTINUOUS
 62
     7
 10
-26.34641016151377
 20
-36.999993999999731
 30
0.0
 11
-32.403799999999883
 21
-36.999993999999617
 31
0.0
  0
ARC
  5
1BF2
  8
0
  6
CONTINUOUS
 62
     7
 10
-26.34641016151377
 20
-36.499993999999731
 30
0.0
 40
0.5
 50
270.0
 51
300.00000000000051
  0
LINE
  5
1BF3
  8
0
  6
CONTINUOUS
 62
     7
 10
-23.90358983848617
 20
-36.933006701891912
 30
0.0
 11
-25.0
 21
-36.299993999999629
 31
0.0
  0
LINE
  5
1BF4
  8
0
  6
CONTINUOUS
 62
     7
 10
-26.096410161513891
 20
-36.933006701891827
 30
0.0
 11
-25.0
 21
-36.299993999999629
 31
0.0
  0
LINE
  5
1BF5
  8
0
  6
CONTINUOUS
 62
     7
 10
-21.500000000000089
 20
-36.999993999999731
 30
0.0
 11
-23.084844902253511
 21
-36.748979227155132
 31
0.0
  0
ARC
  5
1BF6
  8
0
  6
CONTINUOUS
 62
     7
 10
-23.65358983848617
 20
-36.499993999999731
 30
0.0
 40
0.5
 50
239.99999999999949
 51
300.00000000000341
  0
LINE
  5
1BF7
  8
0
  6
CONTINUOUS
 62
     7
 10
-23.084844902253511
 20
-36.748979227155132
 30
0.0
 11
-23.40358983848628
 21
-36.933006701892033
 31
0.0
  0
LINE
  5
1BF8
  8
0
  6
CONTINUOUS
 62
     7
 10
-37.000002000000002
 20
-32.403807999999643
 30
0.0
 11
-37.000002000000002
 21
-28.49999999999994
 31
0.0
  0
LINE
  5
1BF9
  8
0
  6
CONTINUOUS
 62
     7
 10
-37.000002000000002
 20
-23.65358983848623
 30
0.0
 11
-37.000002000000002
 21
-17.5961919999998
 31
0.0
  0
ARC
  5
1BFA
  8
0
  6
CONTINUOUS
 62
     7
 10
-36.500002000000002
 20
-23.65358983848623
 30
0.0
 40
0.5
 50
180.0
 51
209.99999999999969
  0
LINE
  5
1BFB
  8
0
  6
CONTINUOUS
 62
     7
 10
-36.933014701892318
 20
-26.09641016151383
 30
0.0
 11
-36.300002000000013
 21
-25.0
 31
0.0
  0
LINE
  5
1BFC
  8
0
  6
CONTINUOUS
 62
     7
 10
-36.933014701892318
 20
-23.903589838486219
 30
0.0
 11
-36.300002000000013
 21
-25.0
 31
0.0
  0
LINE
  5
1BFD
  8
0
  6
CONTINUOUS
 62
     7
 10
-37.000002000000002
 20
-28.49999999999994
 30
0.0
 11
-36.748987227155482
 21
-26.915155097746521
 31
0.0
  0
ARC
  5
1BFE
  8
0
  6
CONTINUOUS
 62
     7
 10
-36.500002000000002
 20
-26.34641016151383
 30
0.0
 40
0.5
 50
149.9999999999994
 51
209.99999999999969
  0
LINE
  5
1BFF
  8
0
  6
CONTINUOUS
 62
     7
 10
-36.748987227155482
 20
-26.915155097746521
 30
0.0
 11
-36.933014701892318
 21
-26.59641016151383
 31
0.0
  0
LINE
  5
1C00
  8
0
  6
CONTINUOUS
 62
     7
 10
-12.59289020591399
 20
-34.932268741010091
 30
0.0
 11
-15.503131266235011
 21
-32.022027574509941
 31
0.0
  0
LINE
  5
1C01
  8
0
  6
CONTINUOUS
 62
     7
 10
-32.021995407826381
 20
-15.50316283023375
 30
0.0
 11
-34.932270900167083
 21
-12.592887231712609
 31
0.0
  0
ARC
  5
1C02
  8
0
  6
CONTINUOUS
 62
     7
 10
-13.29999699999987
 20
-35.639375509297423
 30
0.0
 40
1.0
 50
0.0
 51
44.999998954793561
  0
LINE
  5
1C03
  8
0
  6
CONTINUOUS
 62
     7
 10
-22.990154484517969
 20
-33.981099433986827
 30
0.0
 11
-24.27911887907257
 21
-31.748547613471011
 31
0.0
  0
LINE
  5
1C04
  8
0
  6
CONTINUOUS
 62
     7
 10
-18.227018239675061
 20
-31.231093413427519
 30
0.0
 11
-19.7201535969165
 21
-28.64490711210783
 31
0.0
  0
ARC
  5
1C05
  8
0
  6
CONTINUOUS
 62
     7
 10
-25.0000322735543
 20
-25.0
 30
0.0
 40
11.0
 50
328.24801386047091
 51
0.0
  0
ARC
  5
1C06
  8
0
  6
CONTINUOUS
 62
     7
 10
-25.0000322735543
 20
-25.0
 30
0.0
 40
11.0
 50
296.41704040781752
 51
303.58368380490163
  0
ARC
  5
1C07
  8
0
  6
CONTINUOUS
 62
     7
 10
-14.796024472149149
 20
-31.314920806222752
 30
0.0
 40
1.0
 50
148.24801386047091
 51
224.9999989547901
  0
ARC
  5
1C08
  8
0
  6
CONTINUOUS
 62
     7
 10
-21.084898596192179
 20
-32.88109943398684
 30
0.0
 40
2.2000000000000002
 50
209.99999999999969
 51
296.41704040781752
  0
ARC
  5
1C09
  8
0
  6
CONTINUOUS
 62
     7
 10
-20.132274128000908
 20
-32.331093413427631
 30
0.0
 40
2.2000000000000002
 50
303.58368380490163
 51
30.000000000000551
  0
ARC
  5
1C0A
  8
0
  6
CONTINUOUS
 62
     7
 10
-25.0000322735543
 20
-25.0
 30
0.0
 40
6.25
 50
327.75277156856521
 51
0.0
  0
ARC
  5
1C0B
  8
0
  6
CONTINUOUS
 62
     7
 10
-25.0000322735543
 20
-25.0
 30
0.0
 40
6.25
 50
181.14709399950391
 51
193.8524609413405
  0
ARC
  5
1C0C
  8
0
  6
CONTINUOUS
 62
     7
 10
-32.039169414932161
 20
-26.73581344184052
 30
0.0
 40
1.0
 50
315.00000000000341
 51
13.852460941333741
  0
ARC
  5
1C0D
  8
0
  6
CONTINUOUS
 62
     7
 10
-32.24857933832007
 20
-25.145139415303309
 30
0.0
 40
1.0
 50
1.1470939995038669
 51
59.99999999999946
  0
ARC
  5
1C0E
  8
0
  6
CONTINUOUS
 62
     7
 10
-25.0000322735543
 20
-25.0
 30
0.0
 40
6.25
 50
256.14724078458971
 51
268.85312262985821
  0
ARC
  5
1C0F
  8
0
  6
CONTINUOUS
 62
     7
 10
-25.14514428285699
 20
-32.248547613471011
 30
0.0
 40
1.0
 50
30.000000000000551
 51
88.853122629854994
  0
ARC
  5
1C10
  8
0
  6
CONTINUOUS
 62
     7
 10
-26.735882360166158
 20
-32.039128104872823
 30
0.0
 40
1.0
 50
76.147240784589712
 51
135.0
  0
ARC
  5
1C11
  8
0
  6
CONTINUOUS
 62
     7
 10
-19.460345975781159
 20
-28.494907112107828
 30
0.0
 40
0.3
 50
147.75277156856521
 51
209.99999999999969
  0
ARC
  5
1C12
  8
0
  6
CONTINUOUS
 62
     7
 10
-16.3750322735543
 20
-25.0
 30
0.0
 40
2.375
 50
0.0
 51
180.0
  0
LINE
  5
1C13
  8
0
  6
CONTINUOUS
 62
     7
 10
-33.154942830859433
 20
-29.265800420140842
 30
0.0
 11
-31.3320626337457
 21
-27.442920223026931
 31
0.0
  0
LINE
  5
1C14
  8
0
  6
CONTINUOUS
 62
     7
 10
-29.265850618567331
 20
-33.154882800900737
 30
0.0
 11
-27.4429891413528
 21
-31.332021323686231
 31
0.0
  0
ARC
  5
1C15
  8
0
  6
CONTINUOUS
 62
     7
 10
-25.00006158923259
 20
-24.999927976550591
 30
0.0
 40
11.0
 50
221.41704040781681
 51
228.5836838049018
  0
ARC
  5
1C16
  8
0
  6
CONTINUOUS
 62
     7
 10
-31.599307912248999
 20
-30.821435338751229
 30
0.0
 40
2.2000000000000002
 50
135.0
 51
221.41704040781681
  0
ARC
  5
1C17
  8
0
  6
CONTINUOUS
 62
     7
 10
-30.821485537177669
 20
-31.59924788229031
 30
0.0
 40
2.2000000000000002
 50
228.5836838049018
 51
315.0
  0
LINE
  5
1C18
  8
0
  6
CONTINUOUS
 62
     7
 10
-33.981067613792987
 20
-22.99018630471204
 30
0.0
 11
-31.748579338320148
 21
-24.279114011518921
 31
0.0
  0
LINE
  5
1C19
  8
0
  6
CONTINUOUS
 62
     7
 10
-31.23106159323379
 20
-18.227050059869129
 30
0.0
 11
-28.99845768903629
 21
-19.516044524951319
 31
0.0
  0
ARC
  5
1C1A
  8
0
  6
CONTINUOUS
 62
     7
 10
-24.999968179806189
 20
-25.00006409374825
 30
0.0
 40
11.0
 50
90.0
 51
121.7519840491241
  0
ARC
  5
1C1B
  8
0
  6
CONTINUOUS
 62
     7
 10
-31.314888613740582
 20
-14.796056061946331
 30
0.0
 40
1.0
 50
224.99999895479471
 51
301.7519840491255
  0
ARC
  5
1C1C
  8
0
  6
CONTINUOUS
 62
     7
 10
-24.999968179806189
 20
-25.00006409374825
 30
0.0
 40
11.0
 50
146.41631619509519
 51
153.5829595921825
  0
ARC
  5
1C1D
  8
0
  6
CONTINUOUS
 62
     7
 10
-32.881067613793078
 20
-21.08493041638636
 30
0.0
 40
2.1999999999999988
 50
153.5829595921825
 51
239.99999999999949
  0
ARC
  5
1C1E
  8
0
  6
CONTINUOUS
 62
     7
 10
-32.331061593233791
 20
-20.132305948194929
 30
0.0
 40
2.1999999999999988
 50
59.99999999999946
 51
146.41631619509519
  0
ARC
  5
1C1F
  8
0
  6
CONTINUOUS
 62
     7
 10
-24.999968179806189
 20
-25.00006409374825
 30
0.0
 40
6.2499999999999991
 50
90.0
 51
118.8520975243551
  0
ARC
  5
1C20
  8
0
  6
CONTINUOUS
 62
     7
 10
-28.49845768903629
 20
-18.650019121166729
 30
0.0
 40
1.0
 50
240.0000000000025
 51
298.85209752435509
  0
ARC
  5
1C21
  8
0
  6
CONTINUOUS
 62
     7
 10
-24.999968179806299
 20
-16.37506409374825
 30
0.0
 40
2.3749999999999991
 50
270.0
 51
90.0
  0
ARC
  5
1C22
  8
0
  6
CONTINUOUS
 62
     7
 10
11.299993999999799
 20
-46.099999999999937
 30
0.0
 40
1.0
 50
270.0
 51
0.0
  0
LINE
  5
1C23
  8
0
  6
CONTINUOUS
 62
     7
 10
14.999993999999811
 20
-39.59620000000001
 30
0.0
 11
14.99999399999993
 21
-43.999986000000121
 31
0.0
  0
LINE
  5
1C24
  8
0
  6
CONTINUOUS
 62
     7
 10
12.299993999999909
 20
-35.639377694252943
 30
0.0
 11
12.299993999999799
 21
-46.099999999999937
 31
0.0
  0
ARC
  5
1C25
  8
0
  6
CONTINUOUS
 62
     7
 10
13.299993999999909
 20
-35.639377694252943
 30
0.0
 40
1.0
 50
134.99999895479351
 51
180.0
  0
LINE
  5
1C26
  8
0
  6
CONTINUOUS
 62
     7
 10
19.7000169999998
 20
-43.999986000000121
 30
0.0
 11
14.99999399999993
 21
-43.999986000000121
 31
0.0
  0
ARC
  5
1C27
  8
0
  6
CONTINUOUS
 62
     7
 10
19.7000169999998
 20
-44.299986000000018
 30
0.0
 40
0.3
 50
0.0
 51
90.0
  0
LINE
  5
1C28
  8
0
  6
CONTINUOUS
 62
     7
 10
20.000016999999701
 20
-45.975299923404748
 30
0.0
 11
20.000016999999701
 21
-44.299986000000018
 31
0.0
  0
LINE
  5
1C29
  8
0
  6
CONTINUOUS
 62
     7
 10
20.000016999999701
 20
-48.024690076595419
 30
0.0
 11
20.000016999999701
 21
-49.700000000000131
 31
0.0
  0
ARC
  5
1C2A
  8
0
  6
CONTINUOUS
 62
     7
 10
19.7000169999998
 20
-49.700000000000131
 30
0.0
 40
0.3
 50
270.0
 51
0.0
  0
ARC
  5
1C2B
  8
0
  6
CONTINUOUS
 62
     7
 10
20.500016999999929
 20
-46.99999499999992
 30
0.0
 40
1.0
 50
127.979872444862
 51
232.02012755513789
  0
ARC
  5
1C2C
  8
0
  6
CONTINUOUS
 62
     7
 10
19.7000169999998
 20
-45.975299923404748
 30
0.0
 40
0.3
 50
307.979872444862
 51
0.0
  0
ARC
  5
1C2D
  8
0
  6
CONTINUOUS
 62
     7
 10
19.7000169999998
 20
-48.024690076595419
 30
0.0
 40
0.3
 50
0.0
 51
52.020127555137947
  0
LINE
  5
1C2E
  8
0
  6
CONTINUOUS
 62
     7
 10
14.999993999999811
 20
-39.59620000000001
 30
0.0
 11
17.5961919999998
 21
-37.000002000000002
 31
0.0
  0
LINE
  5
1C2F
  8
0
  6
CONTINUOUS
 62
     7
 10
39.596196999999933
 20
-14.999997000000009
 30
0.0
 11
43.999994999999842
 21
-14.999997000000009
 31
0.0
  0
LINE
  5
1C30
  8
0
  6
CONTINUOUS
 62
     7
 10
35.639375509297338
 20
-12.29999699999993
 30
0.0
 11
46.099999999999817
 21
-12.299997000000021
 31
0.0
  0
ARC
  5
1C31
  8
0
  6
CONTINUOUS
 62
     7
 10
46.099999999999817
 20
-11.299997000000021
 30
0.0
 40
1.0
 50
270.0
 51
0.0
  0
LINE
  5
1C32
  8
0
  6
CONTINUOUS
 62
     7
 10
48.024689076595109
 20
-19.99999200000013
 30
0.0
 11
49.699999999999811
 21
-19.99999200000013
 31
0.0
  0
LINE
  5
1C33
  8
0
  6
CONTINUOUS
 62
     7
 10
43.999990999999817
 20
-19.699992000000119
 30
0.0
 11
43.999990999999817
 21
-14.999992999999931
 31
0.0
  0
LINE
  5
1C34
  8
0
  6
CONTINUOUS
 62
     7
 10
45.975298923404488
 20
-19.99999200000013
 30
0.0
 11
44.299990999999693
 21
-19.99999200000013
 31
0.0
  0
ARC
  5
1C35
  8
0
  6
CONTINUOUS
 62
     7
 10
44.299990999999693
 20
-19.699992000000119
 30
0.0
 40
0.3
 50
180.0
 51
270.0
  0
ARC
  5
1C36
  8
0
  6
CONTINUOUS
 62
     7
 10
46.999993999999703
 20
-20.499992000000141
 30
0.0
 40
1.0
 50
37.97987244486206
 51
142.02012755513789
  0
ARC
  5
1C37
  8
0
  6
CONTINUOUS
 62
     7
 10
48.024689076595109
 20
-19.699992000000119
 30
0.0
 40
0.3
 50
217.979872444862
 51
270.0
  0
ARC
  5
1C38
  8
0
  6
CONTINUOUS
 62
     7
 10
45.975298923404488
 20
-19.699992000000119
 30
0.0
 40
0.3
 50
270.0
 51
322.02012755513789
  0
LINE
  5
1C39
  8
0
  6
CONTINUOUS
 62
     7
 10
36.999993999999703
 20
-17.59620000000001
 30
0.0
 11
39.596196999999933
 21
-14.999997000000009
 31
0.0
  0
LINE
  5
1C3A
  8
0
  6
CONTINUOUS
 62
     7
 10
35.000005999999928
 20
-39.596200000000131
 30
0.0
 11
35.000005999999928
 21
-43.999986000000121
 31
0.0
  0
LINE
  5
1C3B
  8
0
  6
CONTINUOUS
 62
     7
 10
30.29998299999983
 20
-50.0
 30
0.0
 11
46.999999999999908
 21
-50.000000000000107
 31
0.0
  0
LINE
  5
1C3C
  8
0
  6
CONTINUOUS
 62
     7
 10
49.999999999999922
 20
-30.30000800000002
 30
0.0
 11
49.999999999999922
 21
-47.000000000000107
 31
0.0
  0
ARC
  5
1C3D
  8
0
  6
CONTINUOUS
 62
     7
 10
49.699999999999697
 20
-30.30000800000002
 30
0.0
 40
0.3
 50
0.0
 51
90.0
  0
ARC
  5
1C3E
  8
0
  6
CONTINUOUS
 62
     7
 10
46.999999999999908
 20
-47.000000000000107
 30
0.0
 40
3.0
 50
270.0
 51
0.0
  0
LINE
  5
1C3F
  8
0
  6
CONTINUOUS
 62
     7
 10
39.596196999999933
 20
-35.000002999999943
 30
0.0
 11
43.999994999999842
 21
-35.000002999999943
 31
0.0
  0
LINE
  5
1C40
  8
0
  6
CONTINUOUS
 62
     7
 10
30.299982999999909
 20
-43.999986000000121
 30
0.0
 11
35.000005999999928
 21
-43.999986000000121
 31
0.0
  0
ARC
  5
1C41
  8
0
  6
CONTINUOUS
 62
     7
 10
30.299982999999909
 20
-44.299986000000018
 30
0.0
 40
0.3
 50
90.0
 51
180.0
  0
LINE
  5
1C42
  8
0
  6
CONTINUOUS
 62
     7
 10
29.999982999999819
 20
-45.975299923404748
 30
0.0
 11
29.999982999999819
 21
-44.299986000000018
 31
0.0
  0
LINE
  5
1C43
  8
0
  6
CONTINUOUS
 62
     7
 10
48.024689076595109
 20
-30.000008000000118
 30
0.0
 11
49.699999999999697
 21
-30.000008000000118
 31
0.0
  0
LINE
  5
1C44
  8
0
  6
CONTINUOUS
 62
     7
 10
43.999990999999817
 20
-30.30000800000002
 30
0.0
 11
43.999990999999817
 21
-35.000006999999933
 31
0.0
  0
LINE
  5
1C45
  8
0
  6
CONTINUOUS
 62
     7
 10
45.975298923404488
 20
-30.000008000000118
 30
0.0
 11
44.299990999999693
 21
-30.000008000000008
 31
0.0
  0
ARC
  5
1C46
  8
0
  6
CONTINUOUS
 62
     7
 10
44.299990999999693
 20
-30.30000800000002
 30
0.0
 40
0.3
 50
90.0
 51
180.0
  0
ARC
  5
1C47
  8
0
  6
CONTINUOUS
 62
     7
 10
46.999993999999703
 20
-29.500008000000118
 30
0.0
 40
1.0
 50
217.979872444862
 51
322.02012755513789
  0
ARC
  5
1C48
  8
0
  6
CONTINUOUS
 62
     7
 10
48.024689076595109
 20
-30.30000800000002
 30
0.0
 40
0.3
 50
90.0
 51
142.02012755513789
  0
ARC
  5
1C49
  8
0
  6
CONTINUOUS
 62
     7
 10
45.975298923404488
 20
-30.30000800000002
 30
0.0
 40
0.3
 50
37.97987244486206
 51
90.0
  0
LINE
  5
1C4A
  8
0
  6
CONTINUOUS
 62
     7
 10
29.999982999999819
 20
-48.024690076595419
 30
0.0
 11
29.999982999999819
 21
-49.700000000000131
 31
0.0
  0
ARC
  5
1C4B
  8
0
  6
CONTINUOUS
 62
     7
 10
30.29998299999983
 20
-49.700000000000131
 30
0.0
 40
0.3
 50
180.0
 51
270.0
  0
ARC
  5
1C4C
  8
0
  6
CONTINUOUS
 62
     7
 10
29.499982999999819
 20
-46.99999499999992
 30
0.0
 40
1.0
 50
307.979872444862
 51
52.020127555137947
  0
ARC
  5
1C4D
  8
0
  6
CONTINUOUS
 62
     7
 10
30.299982999999909
 20
-45.975299923404748
 30
0.0
 40
0.3
 50
180.0
 51
232.02012755513789
  0
ARC
  5
1C4E
  8
0
  6
CONTINUOUS
 62
     7
 10
30.299982999999909
 20
-48.024690076595419
 30
0.0
 40
0.3
 50
127.979872444862
 51
180.0
  0
LINE
  5
1C4F
  8
0
  6
CONTINUOUS
 62
     7
 10
39.596196999999933
 20
-35.000002999999943
 30
0.0
 11
36.999993999999589
 21
-32.403799999999933
 31
0.0
  0
LINE
  5
1C50
  8
0
  6
CONTINUOUS
 62
     7
 10
35.000005999999928
 20
-39.596200000000131
 30
0.0
 11
32.4038079999996
 21
-37.000002000000002
 31
0.0
  0
ARC
  5
1C51
  8
0
  6
CONTINUOUS
 62
     7
 10
49.699999999999811
 20
-19.699992000000119
 30
0.0
 40
0.3
 50
270.0
 51
0.0
  0
LINE
  5
1C52
  8
0
  6
CONTINUOUS
 62
     7
 10
36.999993999999703
 20
-17.59620000000001
 30
0.0
 11
36.999993999999703
 21
-21.500000000000231
 31
0.0
  0
LINE
  5
1C53
  8
0
  6
CONTINUOUS
 62
     7
 10
36.999993999999703
 20
-26.34641016151383
 30
0.0
 11
36.999993999999589
 21
-32.403799999999933
 31
0.0
  0
ARC
  5
1C54
  8
0
  6
CONTINUOUS
 62
     7
 10
36.499993999999703
 20
-26.34641016151383
 30
0.0
 40
0.5
 50
0.0
 51
30.000000000003372
  0
LINE
  5
1C55
  8
0
  6
CONTINUOUS
 62
     7
 10
36.933006701891827
 20
-23.903589838486219
 30
0.0
 11
36.2999939999996
 21
-25.0
 31
0.0
  0
LINE
  5
1C56
  8
0
  6
CONTINUOUS
 62
     7
 10
36.933006701891827
 20
-26.09641016151383
 30
0.0
 11
36.2999939999996
 21
-25.0
 31
0.0
  0
LINE
  5
1C57
  8
0
  6
CONTINUOUS
 62
     7
 10
36.999993999999703
 20
-21.500000000000231
 30
0.0
 11
36.748979227155019
 21
-23.084844902253622
 31
0.0
  0
ARC
  5
1C58
  8
0
  6
CONTINUOUS
 62
     7
 10
36.499993999999703
 20
-23.65358983848623
 30
0.0
 40
0.5
 50
329.99999999999949
 51
30.000000000003372
  0
LINE
  5
1C59
  8
0
  6
CONTINUOUS
 62
     7
 10
36.748979227155019
 20
-23.084844902253622
 30
0.0
 11
36.933006701891912
 21
-23.40358983848623
 31
0.0
  0
LINE
  5
1C5A
  8
0
  6
CONTINUOUS
 62
     7
 10
32.4038079999996
 20
-37.000002000000002
 30
0.0
 11
28.499999999999918
 21
-37.000002000000002
 31
0.0
  0
LINE
  5
1C5B
  8
0
  6
CONTINUOUS
 62
     7
 10
23.653589838486109
 20
-37.000002000000002
 30
0.0
 11
17.5961919999998
 21
-37.000002000000002
 31
0.0
  0
ARC
  5
1C5C
  8
0
  6
CONTINUOUS
 62
     7
 10
23.653589838486109
 20
-36.500002000000109
 30
0.0
 40
0.5
 50
270.0
 51
300.00000000000051
  0
LINE
  5
1C5D
  8
0
  6
CONTINUOUS
 62
     7
 10
26.096410161513688
 20
-36.933014701892318
 30
0.0
 11
25.000000000000028
 21
-36.300002000000013
 31
0.0
  0
LINE
  5
1C5E
  8
0
  6
CONTINUOUS
 62
     7
 10
23.903589838486109
 20
-36.933014701892318
 30
0.0
 11
25.000000000000028
 21
-36.300002000000013
 31
0.0
  0
LINE
  5
1C5F
  8
0
  6
CONTINUOUS
 62
     7
 10
28.499999999999918
 20
-37.000002000000002
 30
0.0
 11
26.915155097746489
 21
-36.748987227155432
 31
0.0
  0
ARC
  5
1C60
  8
0
  6
CONTINUOUS
 62
     7
 10
26.346410161513688
 20
-36.500002000000109
 30
0.0
 40
0.5
 50
239.99999999999949
 51
300.00000000000051
  0
LINE
  5
1C61
  8
0
  6
CONTINUOUS
 62
     7
 10
26.915155097746489
 20
-36.748987227155432
 30
0.0
 11
26.596410161513688
 21
-36.933014701892318
 31
0.0
  0
LINE
  5
1C62
  8
0
  6
CONTINUOUS
 62
     7
 10
34.932268741010013
 20
-12.592890205914131
 30
0.0
 11
32.022027574509941
 21
-15.503131266235011
 31
0.0
  0
LINE
  5
1C63
  8
0
  6
CONTINUOUS
 62
     7
 10
15.503162830233601
 20
-32.021995407826438
 30
0.0
 11
12.59288723171249
 21
-34.93227090016714
 31
0.0
  0
ARC
  5
1C64
  8
0
  6
CONTINUOUS
 62
     7
 10
35.639375509297338
 20
-13.29999699999993
 30
0.0
 40
1.0
 50
90.0
 51
134.99999895479351
  0
LINE
  5
1C65
  8
0
  6
CONTINUOUS
 62
     7
 10
33.981099433986827
 20
-22.99015448451803
 30
0.0
 11
31.748547613471011
 21
-24.27911887907263
 31
0.0
  0
LINE
  5
1C66
  8
0
  6
CONTINUOUS
 62
     7
 10
31.231093413427519
 20
-18.227018239675122
 30
0.0
 11
28.64490711210783
 21
-19.720153596916621
 31
0.0
  0
ARC
  5
1C67
  8
0
  6
CONTINUOUS
 62
     7
 10
25.000000000000028
 20
-25.000032273554329
 30
0.0
 40
11.0
 50
58.248013860467367
 51
90.0
  0
ARC
  5
1C68
  8
0
  6
CONTINUOUS
 62
     7
 10
25.000000000000028
 20
-25.000032273554329
 30
0.0
 40
11.0
 50
26.417040407817542
 51
33.583683804904801
  0
ARC
  5
1C69
  8
0
  6
CONTINUOUS
 62
     7
 10
31.314920806222609
 20
-14.79602447214924
 30
0.0
 40
1.0
 50
238.2480138604719
 51
314.99999895478902
  0
ARC
  5
1C6A
  8
0
  6
CONTINUOUS
 62
     7
 10
32.881099433986797
 20
-21.084898596192261
 30
0.0
 40
2.2000000000000002
 50
300.00000000000051
 51
26.417040407817542
  0
ARC
  5
1C6B
  8
0
  6
CONTINUOUS
 62
     7
 10
32.33109341342751
 20
-20.132274128000908
 30
0.0
 40
2.2000000000000002
 50
33.583683804904801
 51
120.0000000000005
  0
ARC
  5
1C6C
  8
0
  6
CONTINUOUS
 62
     7
 10
25.000000000000028
 20
-25.000032273554329
 30
0.0
 40
6.25
 50
57.752771568568789
 51
90.0
  0
ARC
  5
1C6D
  8
0
  6
CONTINUOUS
 62
     7
 10
25.000000000000028
 20
-25.000032273554329
 30
0.0
 40
6.25
 50
271.1470939995038
 51
283.85246094133731
  0
ARC
  5
1C6E
  8
0
  6
CONTINUOUS
 62
     7
 10
26.73581344184041
 20
-32.039169414932218
 30
0.0
 40
1.0
 50
45.000000000004597
 51
103.8524609413373
  0
ARC
  5
1C6F
  8
0
  6
CONTINUOUS
 62
     7
 10
25.145139415303341
 20
-32.248579338320241
 30
0.0
 40
1.0
 50
91.147093999503824
 51
150.0000000000002
  0
ARC
  5
1C70
  8
0
  6
CONTINUOUS
 62
     7
 10
25.000000000000028
 20
-25.000032273554329
 30
0.0
 40
6.25
 50
346.14724078459011
 51
358.85312262985832
  0
ARC
  5
1C71
  8
0
  6
CONTINUOUS
 62
     7
 10
32.248547613471011
 20
-25.14514428285711
 30
0.0
 40
1.0
 50
120.0000000000005
 51
178.85312262985499
  0
ARC
  5
1C72
  8
0
  6
CONTINUOUS
 62
     7
 10
32.039128104872702
 20
-26.73588236016624
 30
0.0
 40
1.0
 50
166.14724078459011
 51
225.0
  0
ARC
  5
1C73
  8
0
  6
CONTINUOUS
 62
     7
 10
28.494907112107828
 20
-19.46034597578133
 30
0.0
 40
0.3
 50
237.75277156856879
 51
300.00000000000051
  0
ARC
  5
1C74
  8
0
  6
CONTINUOUS
 62
     7
 10
25.000000000000028
 20
-16.375032273554321
 30
0.0
 40
2.375
 50
90.0
 51
270.0
  0
LINE
  5
1C75
  8
0
  6
CONTINUOUS
 62
     7
 10
29.265800420140689
 20
-33.154942830859433
 30
0.0
 11
27.442920223026931
 21
-31.332062633745721
 31
0.0
  0
LINE
  5
1C76
  8
0
  6
CONTINUOUS
 62
     7
 10
33.154882800900708
 20
-29.265850618567331
 30
0.0
 11
31.332021323686089
 21
-27.442989141352829
 31
0.0
  0
ARC
  5
1C77
  8
0
  6
CONTINUOUS
 62
     7
 10
24.999927976550591
 20
-25.000061589232619
 30
0.0
 40
11.0
 50
311.41704040781673
 51
318.58368380490521
  0
ARC
  5
1C78
  8
0
  6
CONTINUOUS
 62
     7
 10
30.821435338751112
 20
-31.59930791224912
 30
0.0
 40
2.2000000000000002
 50
225.0
 51
311.41704040781673
  0
ARC
  5
1C79
  8
0
  6
CONTINUOUS
 62
     7
 10
31.5992478822902
 20
-30.82148553717775
 30
0.0
 40
2.2000000000000002
 50
318.58368380490521
 51
45.0
  0
LINE
  5
1C7A
  8
0
  6
CONTINUOUS
 62
     7
 10
22.990186304712012
 20
-33.981067613792987
 30
0.0
 11
24.279114011518828
 21
-31.748579338320241
 31
0.0
  0
LINE
  5
1C7B
  8
0
  6
CONTINUOUS
 62
     7
 10
18.227050059869011
 20
-31.23106159323385
 30
0.0
 11
19.516044524951319
 21
-28.998457689036339
 31
0.0
  0
ARC
  5
1C7C
  8
0
  6
CONTINUOUS
 62
     7
 10
25.00006409374819
 20
-24.999968179806221
 30
0.0
 40
11.0
 50
180.0
 51
211.75198404912189
  0
ARC
  5
1C7D
  8
0
  6
CONTINUOUS
 62
     7
 10
14.796056061946331
 20
-31.314888613740639
 30
0.0
 40
1.0
 50
314.99999895479363
 51
31.7519840491255
  0
ARC
  5
1C7E
  8
0
  6
CONTINUOUS
 62
     7
 10
25.00006409374819
 20
-24.999968179806221
 30
0.0
 40
11.0
 50
236.41631619509519
 51
243.5829595921825
  0
ARC
  5
1C7F
  8
0
  6
CONTINUOUS
 62
     7
 10
21.084930416386179
 20
-32.881067613793107
 30
0.0
 40
2.1999999999999988
 50
243.5829595921825
 51
330.00000000000028
  0
ARC
  5
1C80
  8
0
  6
CONTINUOUS
 62
     7
 10
20.132305948194929
 20
-32.331061593233841
 30
0.0
 40
2.1999999999999988
 50
150.0000000000002
 51
236.41631619509519
  0
ARC
  5
1C81
  8
0
  6
CONTINUOUS
 62
     7
 10
25.00006409374819
 20
-24.999968179806221
 30
0.0
 40
6.2499999999999991
 50
180.0
 51
208.8520975243552
  0
ARC
  5
1C82
  8
0
  6
CONTINUOUS
 62
     7
 10
18.650019121166679
 20
-28.498457689036339
 30
0.0
 40
1.0
 50
330.00000000000392
 51
28.852097524355141
  0
ARC
  5
1C83
  8
0
  6
CONTINUOUS
 62
     7
 10
16.37506409374819
 20
-24.999968179806331
 30
0.0
 40
2.3749999999999991
 50
0.0
 51
180.0
  0
LINE
  5
1C8D
  8
0
  6
CONTINUOUS
 62
     7
 10
181.45348536805199
 20
49.999999999999893
 30
0.0
 11
231.4534853680521
 21
49.999999999999893
 31
0.0
  0
LINE
  5
1C8F
  8
0
  6
CONTINUOUS
 62
     7
 10
181.45348536805199
 20
-49.999999999999943
 30
0.0
 11
231.4534853680521
 21
-49.999999999999943
 31
0.0
  0
LINE
  5
1C90
  8
0
  6
CONTINUOUS
 62
     7
 10
181.45348536805199
 20
29.999982999999759
 30
0.0
 11
231.4534853680521
 21
29.999982999999759
 31
0.0
  0
LINE
  5
1C91
  8
0
  6
CONTINUOUS
 62
     7
 10
181.45348536805199
 20
28.499999999999769
 30
0.0
 11
231.4534853680521
 21
28.499999999999769
 31
0.0
  0
LINE
  5
1C92
  8
0
  6
CONTINUOUS
 62
     7
 10
181.45348536805199
 20
26.915155097746378
 30
0.0
 11
231.4534853680521
 21
26.915155097746378
 31
0.0
  0
LINE
  5
1C93
  8
0
  6
CONTINUOUS
 62
     7
 10
181.45348536805199
 20
24.99999999999995
 30
0.0
 11
231.4534853680521
 21
24.99999999999995
 31
0.0
  0
LINE
  5
1C94
  8
0
  6
CONTINUOUS
 62
     7
 10
181.45348536805199
 20
20.000016999999659
 30
0.0
 11
231.4534853680521
 21
20.000016999999659
 31
0.0
  0
LINE
  5
1C95
  8
0
  6
CONTINUOUS
 62
     7
 10
181.45348536805199
 20
0.0
 30
0.0
 11
231.4534853680521
 21
0.0
 31
0.0
  0
LINE
  5
1C96
  8
0
  6
CONTINUOUS
 62
     7
 10
181.45348536805199
 20
-19.99999200000013
 30
0.0
 11
231.4534853680521
 21
-19.99999200000013
 31
0.0
  0
LINE
  5
1C97
  8
0
  6
CONTINUOUS
 62
     7
 10
181.45348536805199
 20
-21.500000000000231
 30
0.0
 11
231.4534853680521
 21
-21.500000000000231
 31
0.0
  0
LINE
  5
1C98
  8
0
  6
CONTINUOUS
 62
     7
 10
181.45348536805199
 20
-23.084844902253622
 30
0.0
 11
231.4534853680521
 21
-23.084844902253622
 31
0.0
  0
LINE
  5
1C99
  8
0
  6
CONTINUOUS
 62
     7
 10
181.45348536805199
 20
-25.0
 30
0.0
 11
231.4534853680521
 21
-25.0
 31
0.0
  0
LINE
  5
1C9A
  8
0
  6
CONTINUOUS
 62
     7
 10
181.45348536805199
 20
-30.000008000000019
 30
0.0
 11
231.4534853680521
 21
-30.000008000000019
 31
0.0
  0
LINE
  5
1C9B
  8
0
  6
CONTINUOUS
 62
     7
 10
181.45348536805199
 20
49.999999999999893
 30
0.0
 11
181.45348536805199
 21
-49.999999999999943
 31
0.0
  0
LINE
  5
1C9C
  8
0
  6
CONTINUOUS
 62
     7
 10
231.4534853680521
 20
49.999999999999893
 30
0.0
 11
231.4534853680521
 21
-49.999999999999943
 31
0.0
  0
LINE
  5
1C9D
  8
CENTER
  6
CENTER
 62
     1
 10
12.0000322735543
 20
24.99999999999995
 30
0.0
 11
52.000000000000021
 21
24.99999999999995
 31
0.0
  0
LINE
  5
1C9F
  8
CENTER
  6
CENTER
 62
     1
 10
12.00006409393492
 20
-25.000032273554329
 30
0.0
 11
52.000000000000021
 21
-25.000032273554329
 31
0.0
  0
LINE
  5
1CA0
  8
CENTER
  6
CENTER
 62
     1
 10
25.000000000000028
 20
-12.00003227355432
 30
0.0
 11
25.000000000000028
 21
-51.999999999999943
 31
0.0
  0
LINE
  5
1CA1
  8
CENTER
  6
CENTER
 62
     1
 10
-51.999999999999879
 20
-25.00006409374825
 30
0.0
 11
-12.000032273741031
 21
-25.00006409374825
 31
0.0
  0
LINE
  5
1CA2
  8
CENTER
  6
CENTER
 62
     1
 10
-24.999968179806189
 20
-12.00006409374825
 30
0.0
 11
-24.999968179806189
 21
-51.999999999999929
 31
0.0
  0
LINE
  5
1CA3
  8
CENTER
  6
CENTER
 62
     1
 10
-51.999999999999879
 20
24.99996817980611
 30
0.0
 11
-12.00006409374816
 21
24.99996817980611
 31
0.0
  0
LINE
  5
1CA4
  8
CENTER
  6
CENTER
 62
     1
 10
-25.00006409374808
 20
51.999999999999879
 30
0.0
 11
-25.00006409374808
 21
12.000032273741001
 31
0.0
  0
LINE
  5
1CA5
  8
CENTER
  6
CENTER
 62
     1
 10
179.45348536805199
 20
0.0
 30
0.0
 11
233.4534853680521
 21
0.0
 31
0.0
  0
CIRCLE
  5
1CAA
  8
0
  6
PHANTOM
 62
     3
 10
25.000000000000028
 20
24.99999999999994
 30
0.0
 40
6.25
  0
CIRCLE
  5
1CAB
  8
0
  6
PHANTOM
 62
     3
 10
-25.0
 20
25.000032273554272
 30
0.0
 40
6.25
  0
CIRCLE
  5
1CAC
  8
0
  6
PHANTOM
 62
     3
 10
25.00006409374819
 20
-24.999968179806221
 30
0.0
 40
6.25
  0
CIRCLE
  5
1CAD
  8
0
  6
PHANTOM
 62
     3
 10
-25.0000322735543
 20
-25.0
 30
0.0
 40
6.25
  0
INSERT
  5
1CAF
  8
0
  6
CONTINUOUS
 62
     7
  2
*U18
 10
0.0
 20
0.0
 30
0.0
  0
INSERT
  5
1CB0
  8
0
  6
CONTINUOUS
 62
     7
  2
*U19
 10
0.0
 20
0.0
 30
0.0
  0
ENDSEC
  0
EOF
