999
dxfrw 0.6.3
  0
SECTION
  2
HEADER
  9
$ACADVER
  1
AC1021
  9
$DWGCODEPAGE
  3
ANSI_1252
  9
$INSBASE
 10
0
 20
0
 30
0
  9
$EXTMIN
 10
-46.99999999999998
 20
-24.50000089399991
 30
0
  9
$EXTMAX
 10
168.1046665510722
 20
24.50000089410006
 30
0
  9
$LIMMIN
 10
0
 20
0
  9
$LIMMAX
 10
420
 20
297
  9
$ORTHOMODE
 70
    0
  9
$REGENMODE
 70
    1
  9
$FILLMODE
 70
    1
  9
$QTEXTMODE
 70
    0
  9
$MIRRTEXT
 70
    0
  9
$LTSCALE
 40
1
  9
$ATTMODE
 70
    1
  9
$TEXTSIZE
 40
3
  9
$TRACEWID
 40
1
  9
$TEXTSTYLE
  7
STANDARD
  9
$CLAYER
  8
0
  9
$CELTYPE
  6
CONTINUOUS
  9
$CECOLOR
 62
    7
  9
$CELTSCALE
 40
1
  9
$DISPSILH
 70
    0
  9
$DIMSCALE
 40
1
  9
$DIMASZ
 40
2.5
  9
$DIMEXO
 40
0.625
  9
$DIMDLI
 40
3.75
  9
$DIMRND
 40
0
  9
$DIMDLE
 40
0
  9
$DIMEXE
 40
1.25
  9
$DIMTP
 40
0
  9
$DIMTM
 40
0
  9
$DIMTXT
 40
2.5
  9
$DIMCEN
 40
2.5
  9
$DIMTSZ
 40
0
  9
$DIMTOL
 70
    0
  9
$DIMLIM
 70
    0
  9
$DIMTIH
 70
    0
  9
$DIMTOH
 70
    0
  9
$DIMSE1
 70
    0
  9
$DIMSE2
 70
    0
  9
$DIMTAD
 70
    1
  9
$DIMZIN
 70
    8
  9
$DIMBLK
  1
OPEN30
  9
$DIMASO
 70
    1
  9
$DIMSHO
 70
    1
  9
$DIMPOST
  1

  9
$DIMAPOST
  1

  9
$DIMALT
 70
    0
  9
$DIMALTD
 70
    3
  9
$DIMALTF
 40
0.03937007874016
  9
$DIMLFAC
 40
1
  9
$DIMTOFL
 70
    1
  9
$DIMTVP
 40
0
  9
$DIMTIX
 70
    0
  9
$DIMSOXD
 70
    0
  9
$DIMSAH
 70
    0
  9
$DIMBLK1
  1

  9
$DIMBLK2
  1

  9
$DIMSTYLE
  2
MISUMI
  9
$DIMCLRD
 70
  137
  9
$DIMCLRE
 70
  137
  9
$DIMCLRT
 70
  137
  9
$DIMTFAC
 40
1
  9
$DIMGAP
 40
0.625
  9
$DIMJUST
 70
    0
  9
$DIMSD1
 70
    0
  9
$DIMSD2
 70
    0
  9
$DIMTOLJ
 70
    0
  9
$DIMTZIN
 70
    8
  9
$DIMALTZ
 70
    0
  9
$DIMALTTZ
 70
    0
  9
$DIMUPT
 70
    0
  9
$DIMDEC
 70
    4
  9
$DIMTDEC
 70
    2
  9
$DIMALTU
 70
    2
  9
$DIMALTTD
 70
    3
  9
$DIMTXSTY
  7
STANDARD
  9
$DIMAUNIT
 70
    0
  9
$DIMADEC
 70
    0
  9
$DIMALTRND
 40
0
  9
$DIMAZIN
 70
    0
  9
$DIMDSEP
 70
   44
  9
$DIMATFIT
 70
    3
  9
$DIMFRAC
 70
    0
  9
$DIMLDRBLK
  1
STANDARD
  9
$DIMLUNIT
 70
    2
  9
$DIMLWD
 70
   -2
  9
$DIMLWE
 70
   -2
  9
$DIMTMOVE
 70
    0
  9
$DIMFXL
 40
1
  9
$DIMFXLON
 70
    0
  9
$DIMJOGANG
 40
0.7854
  9
$DIMTFILL
 70
    0
  9
$DIMTFILLCLR
 70
    0
  9
$DIMARCSYM
 70
    0
  9
$DIMLTYPE
  6

  9
$DIMLTEX1
  6

  9
$DIMLTEX2
  6

  9
$LUNITS
 70
    2
  9
$LUPREC
 70
    2
  9
$SKETCHINC
 40
1
  9
$FILLETRAD
 40
0
  9
$AUNITS
 70
    0
  9
$AUPREC
 70
    0
  9
$MENU
  1
.
  9
$ELEVATION
 40
0
  9
$PELEVATION
 40
0
  9
$THICKNESS
 40
0
  9
$LIMCHECK
 70
    0
  9
$CHAMFERA
 40
0.5
  9
$CHAMFERB
 40
0.5
  9
$CHAMFERC
 40
0
  9
$CHAMFERD
 40
0
  9
$SKPOLY
 70
    0
  9
$USRTIMER
 70
    1
  9
$ANGBASE
 50
0
  9
$ANGDIR
 70
    0
  9
$PDMODE
 70
   35
  9
$PDSIZE
 40
0
  9
$PLINEWID
 40
0
  9
$SPLFRAME
 70
    0
  9
$SPLINETYPE
 70
    6
  9
$SPLINESEGS
 70
    8
  9
$HANDSEED
  5
20000
  9
$SURFTAB1
 70
    6
  9
$SURFTAB2
 70
    6
  9
$SURFTYPE
 70
    6
  9
$SURFU
 70
    6
  9
$SURFV
 70
    6
  9
$UCSBASE
  2

  9
$UCSNAME
  2

  9
$UCSORG
 10
0
 20
0
 30
0
  9
$UCSXDIR
 10
1
 20
0
 30
0
  9
$UCSYDIR
 10
0
 20
1
 30
0
  9
$UCSORTHOREF
  2

  9
$UCSORTHOVIEW
 70
    0
  9
$UCSORGTOP
 10
0
 20
0
 30
0
  9
$UCSORGBOTTOM
 10
0
 20
0
 30
0
  9
$UCSORGLEFT
 10
0
 20
0
 30
0
  9
$UCSORGRIGHT
 10
0
 20
0
 30
0
  9
$UCSORGFRONT
 10
0
 20
0
 30
0
  9
$UCSORGBACK
 10
0
 20
0
 30
0
  9
$PUCSBASE
  2

  9
$PUCSNAME
  2

  9
$PUCSORG
 10
0
 20
0
 30
0
  9
$PUCSXDIR
 10
1
 20
0
 30
0
  9
$PUCSYDIR
 10
0
 20
1
 30
0
  9
$PUCSORTHOREF
  2

  9
$PUCSORTHOVIEW
 70
    0
  9
$PUCSORGTOP
 10
0
 20
0
 30
0
  9
$PUCSORGBOTTOM
 10
0
 20
0
 30
0
  9
$PUCSORGLEFT
 10
0
 20
0
 30
0
  9
$PUCSORGRIGHT
 10
0
 20
0
 30
0
  9
$PUCSORGFRONT
 10
0
 20
0
 30
0
  9
$PUCSORGBACK
 10
0
 20
0
 30
0
  9
$USERI1
 70
    0
  9
$USERI2
 70
    0
  9
$USERI3
 70
    0
  9
$USERI4
 70
    0
  9
$USERI5
 70
    0
  9
$USERR1
 40
0
  9
$USERR2
 40
0
  9
$USERR3
 40
0
  9
$USERR4
 40
0
  9
$USERR5
 40
0
  9
$WORLDVIEW
 70
    1
  9
$SHADEDGE
 70
    3
  9
$SHADEDIF
 70
   70
  9
$TILEMODE
 70
    1
  9
$MAXACTVP
 70
   64
  9
$PINSBASE
 10
0
 20
0
 30
0
  9
$PLIMCHECK
 70
    0
  9
$PEXTMIN
 10
0
 20
0
 30
0
  9
$PEXTMAX
 10
0
 20
0
 30
0
  9
$GRIDMODE
 70
    0
  9
$SNAPSTYLE
 70
    0
  9
$PLIMMIN
 10
0
 20
0
  9
$PLIMMAX
 10
12
 20
9
  9
$UNITMODE
 70
    0
  9
$VISRETAIN
 70
    1
  9
$PLINEGEN
 70
    0
  9
$PSLTSCALE
 70
    1
  9
$TREEDEPTH
 70
 3020
  9
$CMLSTYLE
  2
Standard
  9
$CMLJUST
 70
    0
  9
$CMLSCALE
 40
20
  9
$PROXYGRAPHICS
 70
    1
  9
$MEASUREMENT
 70
    1
  9
$CELWEIGHT
370
   -1
  9
$ENDCAPS
280
    0
  9
$JOINSTYLE
280
    0
  9
$LWDISPLAY
290
    0
  9
$INSUNITS
 70
    0
  9
$HYPERLINKBASE
  1

  9
$STYLESHEET
  1

  9
$XEDIT
290
    1
  9
$CEPSNTYPE
380
    0
  9
$PSTYLEMODE
290
    1
  9
$EXTNAMES
290
    1
  9
$PSVPSCALE
 40
1
  9
$OLESTARTUP
290
    0
  9
$SORTENTS
280
  127
  9
$INDEXCTL
280
    0
  9
$HIDETEXT
280
    1
  9
$XCLIPFRAME
290
    0
  9
$HALOGAP
280
    0
  9
$OBSCOLOR
 70
  257
  9
$OBSLTYPE
280
    0
  9
$INTERSECTIONDISPLAY
280
    0
  9
$INTERSECTIONCOLOR
 70
  257
  9
$DIMASSOC
280
    1
  9
$PROJECTNAME
  1

  9
$CAMERADISPLAY
290
    0
  9
$LENSLENGTH
 40
50
  9
$CAMERAHEIGHT
 40
0
  9
$STEPSPERSEC
 40
2
  9
$STEPSIZE
 40
50
  9
$3DDWFPREC
 40
2
  9
$PSOLWIDTH
 40
5
  9
$PSOLHEIGHT
 40
80
  9
$LOFTANG1
 40
1.570796326794897
  9
$LOFTANG2
 40
1.570796326794897
  9
$LOFTMAG1
 40
0
  9
$LOFTMAG2
 40
0
  9
$LOFTPARAM
 70
    7
  9
$LOFTNORMALS
280
    1
  9
$LATITUDE
 40
1
  9
$LONGITUDE
 40
1
  9
$NORTHDIRECTION
 40
0
  9
$TIMEZONE
 70
-8000
  9
$LIGHTGLYPHDISPLAY
280
    1
  9
$TILEMODELIGHTSYNCH
280
    1
  9
$SOLIDHIST
280
    1
  9
$SHOWHIST
280
    1
  9
$DWFFRAME
280
    2
  9
$DGNFRAME
280
    0
  9
$REALWORLDSCALE
290
    1
  9
$INTERFERECOLOR
 62
    1
  9
$CSHADOW
280
    0
  9
$SHADOWPLANELOCATION
 40
0
  0
ENDSEC
  0
SECTION
  2
CLASSES
  0
ENDSEC
  0
SECTION
  2
TABLES
  0
TABLE
  2
VPORT
  5
8
330
0
100
AcDbSymbolTable
 70
    1
  0
VPORT
  5
31
330
2
100
AcDbSymbolTableRecord
100
AcDbViewportTableRecord
  2
*ACTIVE
 70
    0
 10
0
 20
0
 11
1
 21
1
 12
143.1394522489378
 22
115.5418714811477
 13
0
 23
0
 14
10
 24
10
 15
10
 25
10
 16
0
 26
0
 36
1
 17
0
 27
0
 37
0
 40
547.5360024329548
 41
2.088709677419355
 42
50
 43
0
 44
0
 50
0
 51
0
 71
    0
 72
  100
 73
    1
 74
    3
 75
    0
 76
    0
 77
    0
 78
    0
281
    0
 65
    1
110
0
120
0
130
0
111
1
121
0
131
0
112
0
122
1
132
0
 79
    0
146
0
348
10020
 60
    7
 61
    5
292
1
282
    1
141
0
142
0
 63
  250
421
3358443
  0
ENDTAB
  0
TABLE
  2
LTYPE
  5
5
330
0
100
AcDbSymbolTable
 70
    4
  0
LTYPE
  5
14
330
5
100
AcDbSymbolTableRecord
100
AcDbLinetypeTableRecord
  2
ByBlock
 70
    0
  3

 72
   65
 73
    0
 40
0
  0
LTYPE
  5
15
330
5
100
AcDbSymbolTableRecord
100
AcDbLinetypeTableRecord
  2
ByLayer
 70
    0
  3

 72
   65
 73
    0
 40
0
  0
LTYPE
  5
16
330
5
100
AcDbSymbolTableRecord
100
AcDbLinetypeTableRecord
  2
Continuous
 70
    0
  3
Solid line
 72
   65
 73
    0
 40
0
  0
LTYPE
  5
32
330
5
100
AcDbSymbolTableRecord
100
AcDbLinetypeTableRecord
  2
DOT
 70
    0
  3
Dot . . . . . . . . . . . . . . . . . . . . . .
 72
   65
 73
    2
 40
6.35
 49
0
 74
    0
 49
-6.35
 74
    0
  0
LTYPE
  5
33
330
5
100
AcDbSymbolTableRecord
100
AcDbLinetypeTableRecord
  2
DOTTINY
 70
    0
  3
Dot (.15x) .....................................
 72
   65
 73
    2
 40
0.9525
 49
0
 74
    0
 49
-0.9525
 74
    0
  0
LTYPE
  5
34
330
5
100
AcDbSymbolTableRecord
100
AcDbLinetypeTableRecord
  2
DOT2
 70
    0
  3
Dot (.5x) .....................................
 72
   65
 73
    2
 40
3.175
 49
0
 74
    0
 49
-3.175
 74
    0
  0
LTYPE
  5
35
330
5
100
AcDbSymbolTableRecord
100
AcDbLinetypeTableRecord
  2
DOTX2
 70
    0
  3
Dot (2x) .  .  .  .  .  .  .  .  .  .  .  .  .
 72
   65
 73
    2
 40
12.7
 49
0
 74
    0
 49
-12.7
 74
    0
  0
LTYPE
  5
36
330
5
100
AcDbSymbolTableRecord
100
AcDbLinetypeTableRecord
  2
DASHED
 70
    0
  3
Dashed _ _ _ _ _ _ _ _ _ _ _ _ _ _ _ _ _
 72
   65
 73
    2
 40
19.05
 49
12.7
 74
    0
 49
-6.35
 74
    0
  0
LTYPE
  5
37
330
5
100
AcDbSymbolTableRecord
100
AcDbLinetypeTableRecord
  2
DASHEDTINY
 70
    0
  3
Dashed (.15x) _ _ _ _ _ _ _ _ _ _ _ _ _ _ _ _ _
 72
   65
 73
    2
 40
2.8575
 49
1.905
 74
    0
 49
-0.9525
 74
    0
  0
LTYPE
  5
38
330
5
100
AcDbSymbolTableRecord
100
AcDbLinetypeTableRecord
  2
DASHED2
 70
    0
  3
Dashed (.5x) _ _ _ _ _ _ _ _ _ _ _ _ _ _ _ _ _
 72
   65
 73
    2
 40
9.524999999999999
 49
6.35
 74
    0
 49
-3.175
 74
    0
  0
LTYPE
  5
39
330
5
100
AcDbSymbolTableRecord
100
AcDbLinetypeTableRecord
  2
DASHEDX2
 70
    0
  3
Dashed (2x) ____  ____  ____  ____  ____  ___
 72
   65
 73
    2
 40
38.09999999999999
 49
25.4
 74
    0
 49
-12.7
 74
    0
  0
LTYPE
  5
3A
330
5
100
AcDbSymbolTableRecord
100
AcDbLinetypeTableRecord
  2
DASHDOT
 70
    0
  3
Dash dot __ . __ . __ . __ . __ . __ . __ . __
 72
   65
 73
    4
 40
25.4
 49
12.7
 74
    0
 49
-6.35
 74
    0
 49
0
 74
    0
 49
-6.35
 74
    0
  0
LTYPE
  5
3B
330
5
100
AcDbSymbolTableRecord
100
AcDbLinetypeTableRecord
  2
DASHDOTTINY
 70
    0
  3
Dash dot (.15x) _._._._._._._._._._._._._._._.
 72
   65
 73
    4
 40
3.81
 49
1.905
 74
    0
 49
-0.9525
 74
    0
 49
0
 74
    0
 49
-0.9525
 74
    0
  0
LTYPE
  5
3C
330
5
100
AcDbSymbolTableRecord
100
AcDbLinetypeTableRecord
  2
DASHDOT2
 70
    0
  3
Dash dot (.5x) _._._._._._._._._._._._._._._.
 72
   65
 73
    4
 40
12.7
 49
6.35
 74
    0
 49
-3.175
 74
    0
 49
0
 74
    0
 49
-3.175
 74
    0
  0
LTYPE
  5
3D
330
5
100
AcDbSymbolTableRecord
100
AcDbLinetypeTableRecord
  2
DASHDOTX2
 70
    0
  3
Dash dot (2x) ____  .  ____  .  ____  .  ___
 72
   65
 73
    4
 40
50.8
 49
25.4
 74
    0
 49
-12.7
 74
    0
 49
0
 74
    0
 49
-12.7
 74
    0
  0
LTYPE
  5
3E
330
5
100
AcDbSymbolTableRecord
100
AcDbLinetypeTableRecord
  2
DIVIDE
 70
    0
  3
Divide ____ . . ____ . . ____ . . ____ . . ____
 72
   65
 73
    6
 40
31.75
 49
12.7
 74
    0
 49
-6.35
 74
    0
 49
0
 74
    0
 49
-6.35
 74
    0
 49
0
 74
    0
 49
-6.35
 74
    0
  0
LTYPE
  5
3F
330
5
100
AcDbSymbolTableRecord
100
AcDbLinetypeTableRecord
  2
DIVIDETINY
 70
    0
  3
Divide (.15x) __..__..__..__..__..__..__..__.._
 72
   65
 73
    6
 40
4.7625
 49
1.905
 74
    0
 49
-0.9525
 74
    0
 49
0
 74
    0
 49
-0.9525
 74
    0
 49
0
 74
    0
 49
-0.9525
 74
    0
  0
LTYPE
  5
40
330
5
100
AcDbSymbolTableRecord
100
AcDbLinetypeTableRecord
  2
DIVIDE2
 70
    0
  3
Divide (.5x) __..__..__..__..__..__..__..__.._
 72
   65
 73
    6
 40
15.875
 49
6.35
 74
    0
 49
-3.175
 74
    0
 49
0
 74
    0
 49
-3.175
 74
    0
 49
0
 74
    0
 49
-3.175
 74
    0
  0
LTYPE
  5
41
330
5
100
AcDbSymbolTableRecord
100
AcDbLinetypeTableRecord
  2
DIVIDEX2
 70
    0
  3
Divide (2x) ________  .  .  ________  .  .  _
 72
   65
 73
    6
 40
63.5
 49
25.4
 74
    0
 49
-12.7
 74
    0
 49
0
 74
    0
 49
-12.7
 74
    0
 49
0
 74
    0
 49
-12.7
 74
    0
  0
LTYPE
  5
42
330
5
100
AcDbSymbolTableRecord
100
AcDbLinetypeTableRecord
  2
BORDER
 70
    0
  3
Border __ __ . __ __ . __ __ . __ __ . __ __ .
 72
   65
 73
    6
 40
44.45
 49
12.7
 74
    0
 49
-6.35
 74
    0
 49
12.7
 74
    0
 49
-6.35
 74
    0
 49
0
 74
    0
 49
-6.35
 74
    0
  0
LTYPE
  5
43
330
5
100
AcDbSymbolTableRecord
100
AcDbLinetypeTableRecord
  2
BORDERTINY
 70
    0
  3
Border (.15x) __.__.__.__.__.__.__.__.__.__.__.
 72
   65
 73
    6
 40
6.6675
 49
1.905
 74
    0
 49
-0.9525
 74
    0
 49
1.905
 74
    0
 49
-0.9525
 74
    0
 49
0
 74
    0
 49
-0.9525
 74
    0
  0
LTYPE
  5
44
330
5
100
AcDbSymbolTableRecord
100
AcDbLinetypeTableRecord
  2
BORDER2
 70
    0
  3
Border (.5x) __.__.__.__.__.__.__.__.__.__.__.
 72
   65
 73
    6
 40
22.225
 49
6.35
 74
    0
 49
-3.175
 74
    0
 49
6.35
 74
    0
 49
-3.175
 74
    0
 49
0
 74
    0
 49
-3.175
 74
    0
  0
LTYPE
  5
45
330
5
100
AcDbSymbolTableRecord
100
AcDbLinetypeTableRecord
  2
BORDERX2
 70
    0
  3
Border (2x) ____  ____  .  ____  ____  .  ___
 72
   65
 73
    6
 40
88.89999999999999
 49
25.4
 74
    0
 49
-12.7
 74
    0
 49
25.4
 74
    0
 49
-12.7
 74
    0
 49
0
 74
    0
 49
-12.7
 74
    0
  0
LTYPE
  5
46
330
5
100
AcDbSymbolTableRecord
100
AcDbLinetypeTableRecord
  2
CENTER
 70
    0
  3
Center ____ _ ____ _ ____ _ ____ _ ____ _ ____
 72
   65
 73
    4
 40
50.8
 49
31.75
 74
    0
 49
-6.35
 74
    0
 49
6.35
 74
    0
 49
-6.35
 74
    0
  0
LTYPE
  5
47
330
5
100
AcDbSymbolTableRecord
100
AcDbLinetypeTableRecord
  2
CENTERTINY
 70
    0
  3
Center (.15x) ___ _ ___ _ ___ _ ___ _ ___ _ ___
 72
   65
 73
    4
 40
7.619999999999999
 49
4.7625
 74
    0
 49
-0.9525
 74
    0
 49
0.9525
 74
    0
 49
-0.9525
 74
    0
  0
LTYPE
  5
48
330
5
100
AcDbSymbolTableRecord
100
AcDbLinetypeTableRecord
  2
CENTER2
 70
    0
  3
Center (.5x) ___ _ ___ _ ___ _ ___ _ ___ _ ___
 72
   65
 73
    4
 40
28.575
 49
19.05
 74
    0
 49
-3.175
 74
    0
 49
3.175
 74
    0
 49
-3.175
 74
    0
  0
LTYPE
  5
49
330
5
100
AcDbSymbolTableRecord
100
AcDbLinetypeTableRecord
  2
CENTERX2
 70
    0
  3
Center (2x) ________  __  ________  __  _____
 72
   65
 73
    4
 40
101.6
 49
63.5
 74
    0
 49
-12.7
 74
    0
 49
12.7
 74
    0
 49
-12.7
 74
    0
  0
ENDTAB
  0
TABLE
  2
LAYER
  5
2
330
0
100
AcDbSymbolTable
 70
    1
  0
LAYER
  5
10
330
2
100
AcDbSymbolTableRecord
100
AcDbLayerTableRecord
  2
0
 70
    0
 62
    7
  6
CONTINUOUS
370
   -3
390
F
  0
LAYER
  5
4A
330
2
100
AcDbSymbolTableRecord
100
AcDbLayerTableRecord
  2
CENTER
 70
    0
 62
    1
  6
CENTER
370
   -3
390
F
  0
LAYER
  5
4B
330
2
100
AcDbSymbolTableRecord
100
AcDbLayerTableRecord
  2
DEFPOINTS
 70
    0
 62
    7
  6
CONTINUOUS
370
   -3
390
F
  0
ENDTAB
  0
TABLE
  2
STYLE
  5
3
330
0
100
AcDbSymbolTable
 70
    3
  0
STYLE
  5
4C
330
2
100
AcDbSymbolTableRecord
100
AcDbTextStyleTableRecord
  2
STANDARD
 70
    0
 40
0
 41
1
 50
0
 71
    0
 42
1
  3
STANDARD
  4

  0
ENDTAB
  0
TABLE
  2
VIEW
  5
6
330
0
100
AcDbSymbolTable
 70
    0
  0
ENDTAB
  0
TABLE
  2
UCS
  5
7
330
0
100
AcDbSymbolTable
 70
    0
  0
ENDTAB
  0
TABLE
  2
APPID
  5
9
330
0
100
AcDbSymbolTable
 70
    1
  0
APPID
  5
12
330
9
100
AcDbSymbolTableRecord
100
AcDbRegAppTableRecord
  2
ACAD
 70
    0
  0
APPID
  5
4D
330
9
100
AcDbSymbolTableRecord
100
AcDbRegAppTableRecord
  2
LibreCad
 70
    0
  0
ENDTAB
  0
TABLE
  2
DIMSTYLE
  5
A
330
0
100
AcDbSymbolTable
 70
    1
100
AcDbDimStyleTable
 71
    1
  0
DIMSTYLE
105
4E
330
A
100
AcDbSymbolTableRecord
100
AcDbDimStyleTableRecord
  2
Standard
 70
    0
 40
1
 41
2.5
 42
0.625
 43
0.38
 44
1.25
 45
0
 46
0
 47
0
 48
0
 49
1
140
2.5
141
0.09
142
0
143
25.4
144
1
145
0
146
1
147
0.625
148
0
 71
    0
 72
    0
 73
    0
 74
    1
 75
    0
 76
    0
 77
    0
 78
    8
 79
    0
170
    0
171
    2
172
    0
173
    0
174
    0
175
    0
176
  137
177
  137
178
  137
179
    0
271
    4
272
    4
273
    2
274
    2
275
    0
276
    0
277
    2
278
    0
279
    0
280
    0
281
    0
282
    0
283
    1
284
    0
285
    0
286
    0
288
    0
289
    3
340
standard
341

371
   -2
372
   -2
  0
ENDTAB
  0
TABLE
  2
BLOCK_RECORD
  5
1
330
0
100
AcDbSymbolTable
 70
    2
  0
BLOCK_RECORD
  5
1F
330
1
100
AcDbSymbolTableRecord
100
AcDbBlockTableRecord
  2
*Model_Space
 70
    0
280
    1
281
    0
  0
BLOCK_RECORD
  5
1E
330
1
100
AcDbSymbolTableRecord
100
AcDbBlockTableRecord
  2
*Paper_Space
 70
    0
280
    1
281
    0
  0
BLOCK_RECORD
  5
4F
330
1
100
AcDbSymbolTableRecord
100
AcDbBlockTableRecord
  2
_OPEN30
 70
    0
280
    1
281
    0
  0
BLOCK_RECORD
  5
52
330
1
100
AcDbSymbolTableRecord
100
AcDbBlockTableRecord
  2
*U19
 70
    0
280
    1
281
    0
  0
BLOCK_RECORD
  5
55
330
1
100
AcDbSymbolTableRecord
100
AcDbBlockTableRecord
  2
*U20
 70
    0
280
    1
281
    0
  0
ENDTAB
  0
ENDSEC
  0
SECTION
  2
BLOCKS
  0
BLOCK
  5
20
330
1F
100
AcDbEntity
  8
0
100
AcDbBlockBegin
  2
*Model_Space
 70
    0
 10
0
 20
0
 30
0
  3
*Model_Space
  1

  0
ENDBLK
  5
21
330
1F
100
AcDbEntity
  8
0
100
AcDbBlockEnd
  0
BLOCK
  5
1C
330
1B
100
AcDbEntity
  8
0
100
AcDbBlockBegin
  2
*Paper_Space
 70
    0
 10
0
 20
0
 30
0
  3
*Paper_Space
  1

  0
ENDBLK
  5
1D
330
1F
100
AcDbEntity
  8
0
100
AcDbBlockEnd
  0
BLOCK
  5
50
330
4F
100
AcDbEntity
  8
0
100
AcDbBlockBegin
  2
_OPEN30
 70
    0
 10
0
 20
0
  3
_OPEN30
  1

  0
LINE
  5
58
100
AcDbEntity
  8
0
  6
ByBlock
 62
    0
370
   -1
100
AcDbLine
 10
-1
 20
0.26794919
 11
0
 21
0
  0
LINE
  5
59
100
AcDbEntity
  8
0
  6
ByBlock
 62
    0
370
   -1
100
AcDbLine
 10
0
 20
0
 11
-1
 21
-0.26794919
  0
LINE
  5
5A
100
AcDbEntity
  8
0
  6
ByBlock
 62
    0
370
   -1
100
AcDbLine
 10
0
 20
0
 11
-1
 21
0
  0
ENDBLK
  5
51
330
4F
100
AcDbEntity
  8
0
100
AcDbBlockEnd
  0
BLOCK
  5
53
330
52
100
AcDbEntity
  8
0
100
AcDbBlockBegin
  2
*U19
 70
    0
 10
0
 20
0
  3
*U19
  1

  0
TEXT
  5
5B
100
AcDbEntity
  8
0
  6
CONTINUOUS
 62
    7
370
   -1
100
AcDbText
 10
-45.00000089399999
 20
-45.13263452591028
 30
0
 40
3
  1
NEFS8-4590-50
 50
0
 41
1
 51
0
  7
STANDARD
 71
    0
210
0
220
0
230
1
100
AcDbText
  0
ENDBLK
  5
54
330
52
100
AcDbEntity
  8
0
100
AcDbBlockEnd
  0
BLOCK
  5
56
330
55
100
AcDbEntity
  8
0
100
AcDbBlockBegin
  2
*U20
 70
    0
 10
0
 20
0
  3
*U20
  1

  0
TEXT
  5
5C
100
AcDbEntity
  8
0
  6
CONTINUOUS
 62
    7
370
   -1
100
AcDbText
 10
-45.00000089399999
 20
-50.74761034294542
 30
0
 40
3
  1
NEFS8-4590
 50
0
 41
1
 51
0
  7
STANDARD
 71
    0
210
0
220
0
230
1
100
AcDbText
  0
ENDBLK
  5
57
330
55
100
AcDbEntity
  8
0
100
AcDbBlockEnd
  0
ENDSEC
  0
SECTION
  2
ENTITIES
  0
ARC
  5
5D
100
AcDbEntity
  8
0
  6
CONTINUOUS
 62
    7
370
   -1
100
AcDbCircle
 10
39.39999999999992
 20
-14.2381820158
 40
1.000000000000009
100
AcDbArc
 50
311.1214761682003
 51
0
  0
LINE
  5
5E
100
AcDbEntity
  8
0
  6
CONTINUOUS
 62
    7
370
   -1
100
AcDbLine
 10
40.3999993205
 20
-14.2381824553
 11
40.3999993205
 21
-12.50000018620001
  0
ARC
  5
5F
100
AcDbEntity
  8
0
  6
CONTINUOUS
 62
    7
370
   -1
100
AcDbCircle
 10
39.39999999999992
 20
-12.5
 40
1
100
AcDbArc
 50
0
 51
90
  0
LINE
  5
60
100
AcDbEntity
  8
0
  6
CONTINUOUS
 62
    7
370
   -1
100
AcDbLine
 10
39.40000101929994
 20
-11.5000000223001
 11
34.50000002979991
 21
-11.5000000223001
  0
ARC
  5
61
100
AcDbEntity
  8
0
  6
CONTINUOUS
 62
    7
370
   -1
100
AcDbCircle
 10
34.5
 20
-12
 40
0.5
100
AcDbArc
 50
90
 51
180
  0
LINE
  5
62
100
AcDbEntity
  8
0
  6
CONTINUOUS
 62
    7
370
   -1
100
AcDbLine
 10
33.99999901659993
 20
-12.0000001043
 11
33.99999901659993
 21
-19.9999995529
  0
ARC
  5
63
100
AcDbEntity
  8
0
  6
CONTINUOUS
 62
    7
370
   -1
100
AcDbCircle
 10
34.5
 20
-20
 40
0.5
100
AcDbArc
 50
180
 51
270
  0
LINE
  5
64
100
AcDbEntity
  8
0
  6
CONTINUOUS
 62
    7
370
   -1
100
AcDbLine
 10
34.50000002979991
 20
-20.5000005662001
 11
36.04167044169989
 21
-20.5000005662001
  0
ARC
  5
65
100
AcDbEntity
  8
0
  6
CONTINUOUS
 62
    7
370
   -1
100
AcDbCircle
 10
36.04166992449993
 20
-19.5
 40
1.000000000000005
100
AcDbArc
 50
270
 51
343.7828054368005
  0
ARC
  5
66
100
AcDbEntity
  8
0
  6
CONTINUOUS
 62
    7
370
   -1
100
AcDbCircle
 10
46.69999999999993
 20
-22.60000000000002
 40
10.1
100
AcDbArc
 50
131.1214761682003
 51
163.7828054368004
  0
ARC
  5
67
100
AcDbEntity
  8
0
  6
CONTINUOUS
 62
    7
370
   -1
100
AcDbCircle
 10
-36.0416699244
 20
-19.5
 40
1
100
AcDbArc
 50
196.2171945631995
 51
270
  0
LINE
  5
68
100
AcDbEntity
  8
0
  6
CONTINUOUS
 62
    7
370
   -1
100
AcDbLine
 10
-34.50000010429999
 20
-20.5000005662001
 11
-36.0416695848
 21
-20.5000005662001
  0
ARC
  5
69
100
AcDbEntity
  8
0
  6
CONTINUOUS
 62
    7
370
   -1
100
AcDbCircle
 10
-34.49999999999999
 20
-20
 40
0.5
100
AcDbArc
 50
270
 51
0
  0
LINE
  5
6A
100
AcDbEntity
  8
0
  6
CONTINUOUS
 62
    7
370
   -1
100
AcDbLine
 10
-34.0000000223001
 20
-12.0000001043
 11
-34.0000000223001
 21
-19.9999995529
  0
ARC
  5
6B
100
AcDbEntity
  8
0
  6
CONTINUOUS
 62
    7
370
   -1
100
AcDbCircle
 10
-34.49999999999999
 20
-12
 40
0.5
100
AcDbArc
 50
0
 51
90
  0
LINE
  5
6C
100
AcDbEntity
  8
0
  6
CONTINUOUS
 62
    7
370
   -1
100
AcDbLine
 10
-39.3999992311
 20
-11.5000000223001
 11
-34.50000010429999
 21
-11.5000000223001
  0
ARC
  5
6D
100
AcDbEntity
  8
0
  6
CONTINUOUS
 62
    7
370
   -1
100
AcDbCircle
 10
-39.39999999999999
 20
-12.5
 40
1.000000000000007
100
AcDbArc
 50
90
 51
180
  0
LINE
  5
6E
100
AcDbEntity
  8
0
  6
CONTINUOUS
 62
    7
370
   -1
100
AcDbLine
 10
-40.39999939499998
 20
-14.2381824553
 11
-40.39999939499998
 21
-12.50000018620001
  0
ARC
  5
6F
100
AcDbEntity
  8
0
  6
CONTINUOUS
 62
    7
370
   -1
100
AcDbCircle
 10
-39.39999999999999
 20
-14.2381820158
 40
1.000000000000007
100
AcDbArc
 50
180
 51
228.8785238317997
  0
ARC
  5
70
100
AcDbEntity
  8
0
  6
CONTINUOUS
 62
    7
370
   -1
100
AcDbCircle
 10
-46.69999999999999
 20
-22.60000000000002
 40
10.1
100
AcDbArc
 50
16.21719456319956
 51
48.87852383179968
  0
ARC
  5
71
100
AcDbEntity
  8
0
  6
CONTINUOUS
 62
    7
370
   -1
100
AcDbCircle
 10
36.04166992449993
 20
19.49999999999998
 40
1.000000000000001
100
AcDbArc
 50
16.21719456319956
 51
90
  0
LINE
  5
72
100
AcDbEntity
  8
0
  6
CONTINUOUS
 62
    7
370
   -1
100
AcDbLine
 10
34.50000002979991
 20
20.5000005662999
 11
36.04167044169989
 21
20.5000005662999
  0
ARC
  5
73
100
AcDbEntity
  8
0
  6
CONTINUOUS
 62
    7
370
   -1
100
AcDbCircle
 10
34.5
 20
19.99999999999998
 40
0.5
100
AcDbArc
 50
90
 51
180
  0
LINE
  5
74
100
AcDbEntity
  8
0
  6
CONTINUOUS
 62
    7
370
   -1
100
AcDbLine
 10
33.99999901659993
 20
12.00000010430001
 11
33.99999901659993
 21
19.99999955299988
  0
ARC
  5
75
100
AcDbEntity
  8
0
  6
CONTINUOUS
 62
    7
370
   -1
100
AcDbCircle
 10
34.5
 20
11.99999999999998
 40
0.5
100
AcDbArc
 50
180
 51
270
  0
LINE
  5
76
100
AcDbEntity
  8
0
  6
CONTINUOUS
 62
    7
370
   -1
100
AcDbLine
 10
39.40000101929994
 20
11.5000000223999
 11
34.50000002979991
 21
11.5000000223999
  0
ARC
  5
77
100
AcDbEntity
  8
0
  6
CONTINUOUS
 62
    7
370
   -1
100
AcDbCircle
 10
39.39999999999992
 20
12.49999999999998
 40
1
100
AcDbArc
 50
270
 51
0
  0
LINE
  5
78
100
AcDbEntity
  8
0
  6
CONTINUOUS
 62
    7
370
   -1
100
AcDbLine
 10
40.3999993205
 20
14.23818245529999
 11
40.3999993205
 21
12.5000001863
  0
ARC
  5
79
100
AcDbEntity
  8
0
  6
CONTINUOUS
 62
    7
370
   -1
100
AcDbCircle
 10
39.39999999999992
 20
14.23818201589991
 40
1.000000000000019
100
AcDbArc
 50
0
 51
48.87852383179968
  0
ARC
  5
7A
100
AcDbEntity
  8
0
  6
CONTINUOUS
 62
    7
370
   -1
100
AcDbCircle
 10
46.69999999999993
 20
22.5999999999999
 40
10.1
100
AcDbArc
 50
196.2171945631995
 51
228.8785238317997
  0
ARC
  5
7B
100
AcDbEntity
  8
0
  6
CONTINUOUS
 62
    7
370
   -1
100
AcDbCircle
 10
19
 20
-7.299999999999997
 40
0.5000000000000142
100
AcDbArc
 50
270
 51
0
  0
LINE
  5
7C
100
AcDbEntity
  8
0
  6
CONTINUOUS
 62
    7
370
   -1
100
AcDbLine
 10
19.4999994337999
 20
-6.968679837900012
 11
19.4999994337999
 21
-7.300000172100013
  0
ARC
  5
7D
100
AcDbEntity
  8
0
  6
CONTINUOUS
 62
    7
370
   -1
100
AcDbCircle
 10
20.5
 20
-6.968679932400092
 40
1
100
AcDbArc
 50
73.98660557610019
 51
180
  0
ARC
  5
7E
100
AcDbEntity
  8
0
  6
CONTINUOUS
 62
    7
370
   -1
100
AcDbCircle
 10
22.5
 20
0
 40
6.250000000000007
100
AcDbArc
 50
253.9866055761002
 51
286.0133944238998
  0
ARC
  5
7F
100
AcDbEntity
  8
0
  6
CONTINUOUS
 62
    7
370
   -1
100
AcDbCircle
 10
24.5
 20
-6.968679932400092
 40
1
100
AcDbArc
 50
0
 51
106.0133944238998
  0
LINE
  5
80
100
AcDbEntity
  8
0
  6
CONTINUOUS
 62
    7
370
   -1
100
AcDbLine
 10
25.5000004172999
 20
-7.300000172100013
 11
25.5000004172999
 21
-6.968679837900012
  0
ARC
  5
81
100
AcDbEntity
  8
0
  6
CONTINUOUS
 62
    7
370
   -1
100
AcDbCircle
 10
26
 20
-7.299999999999997
 40
0.5
100
AcDbArc
 50
180
 51
270
  0
LINE
  5
82
100
AcDbEntity
  8
0
  6
CONTINUOUS
 62
    7
370
   -1
100
AcDbLine
 10
29.7999987007
 20
-7.7999997884001
 11
26.00000143049991
 21
-7.7999997884001
  0
ARC
  5
83
100
AcDbEntity
  8
0
  6
CONTINUOUS
 62
    7
370
   -1
100
AcDbCircle
 10
29.79999999999993
 20
-7.299999999999997
 40
0.5
100
AcDbArc
 50
270
 51
0
  0
LINE
  5
84
100
AcDbEntity
  8
0
  6
CONTINUOUS
 62
    7
370
   -1
100
AcDbLine
 10
30.29999971389992
 20
-3.500000108000108
 11
30.29999971389992
 21
-7.300000172100013
  0
ARC
  5
85
100
AcDbEntity
  8
0
  6
CONTINUOUS
 62
    7
370
   -1
100
AcDbCircle
 10
29.79999999999993
 20
-3.5
 40
0.5
100
AcDbArc
 50
0
 51
90
  0
LINE
  5
86
100
AcDbEntity
  8
0
  6
CONTINUOUS
 62
    7
370
   -1
100
AcDbLine
 10
29.4686788320999
 20
-3.000000026100011
 11
29.7999987007
 21
-3.000000026100011
  0
ARC
  5
87
100
AcDbEntity
  8
0
  6
CONTINUOUS
 62
    7
370
   -1
100
AcDbCircle
 10
29.46867993240002
 20
-2
 40
1.000000000000007
100
AcDbArc
 50
163.9866055761002
 51
270
  0
ARC
  5
88
100
AcDbEntity
  8
0
  6
CONTINUOUS
 62
    7
370
   -1
100
AcDbCircle
 10
22.5
 20
0
 40
6.250000000000119
100
AcDbArc
 50
343.9866055760002
 51
16.01339442389981
  0
ARC
  5
89
100
AcDbEntity
  8
0
  6
CONTINUOUS
 62
    7
370
   -1
100
AcDbCircle
 10
29.46867993240002
 20
2
 40
1.000000000000007
100
AcDbArc
 50
90
 51
196.0133944239998
  0
LINE
  5
8A
100
AcDbEntity
  8
0
  6
CONTINUOUS
 62
    7
370
   -1
100
AcDbLine
 10
29.4686788320999
 20
3.000000026099883
 11
29.7999987007
 21
3.000000026099883
  0
ARC
  5
8B
100
AcDbEntity
  8
0
  6
CONTINUOUS
 62
    7
370
   -1
100
AcDbCircle
 10
29.79999999999993
 20
3.5
 40
0.5
100
AcDbArc
 50
270
 51
0
  0
LINE
  5
8C
100
AcDbEntity
  8
0
  6
CONTINUOUS
 62
    7
370
   -1
100
AcDbLine
 10
30.29999971389992
 20
3.500000108099897
 11
30.29999971389992
 21
7.300000172099984
  0
ARC
  5
8D
100
AcDbEntity
  8
0
  6
CONTINUOUS
 62
    7
370
   -1
100
AcDbCircle
 10
29.79999999999993
 20
7.299999999999911
 40
0.5
100
AcDbArc
 50
0
 51
90
  0
LINE
  5
8E
100
AcDbEntity
  8
0
  6
CONTINUOUS
 62
    7
370
   -1
100
AcDbLine
 10
29.7999987007
 20
7.7999997884
 11
26.00000143049991
 21
7.7999997884
  0
ARC
  5
8F
100
AcDbEntity
  8
0
  6
CONTINUOUS
 62
    7
370
   -1
100
AcDbCircle
 10
26
 20
7.299999999999911
 40
0.5
100
AcDbArc
 50
90
 51
180
  0
LINE
  5
90
100
AcDbEntity
  8
0
  6
CONTINUOUS
 62
    7
370
   -1
100
AcDbLine
 10
25.5000004172999
 20
7.300000172099984
 11
25.5000004172999
 21
6.968679837899983
  0
ARC
  5
91
100
AcDbEntity
  8
0
  6
CONTINUOUS
 62
    7
370
   -1
100
AcDbCircle
 10
24.5
 20
6.968679932399894
 40
1
100
AcDbArc
 50
253.9866055761002
 51
0
  0
ARC
  5
92
100
AcDbEntity
  8
0
  6
CONTINUOUS
 62
    7
370
   -1
100
AcDbCircle
 10
22.5
 20
0
 40
6.250000000000007
100
AcDbArc
 50
73.98660557610019
 51
106.0133944238998
  0
ARC
  5
93
100
AcDbEntity
  8
0
  6
CONTINUOUS
 62
    7
370
   -1
100
AcDbCircle
 10
20.5
 20
6.968679932399894
 40
1
100
AcDbArc
 50
180
 51
286.0133944238998
  0
LINE
  5
94
100
AcDbEntity
  8
0
  6
CONTINUOUS
 62
    7
370
   -1
100
AcDbLine
 10
19.4999994337999
 20
6.968679837899983
 11
19.4999994337999
 21
7.300000172099984
  0
ARC
  5
95
100
AcDbEntity
  8
0
  6
CONTINUOUS
 62
    7
370
   -1
100
AcDbCircle
 10
19
 20
7.299999999999911
 40
0.5000000000000142
100
AcDbArc
 50
0
 51
90
  0
LINE
  5
96
100
AcDbEntity
  8
0
  6
CONTINUOUS
 62
    7
370
   -1
100
AcDbLine
 10
15.20000115039991
 20
3.000000026099883
 11
15.53132101900002
 21
3.000000026099883
  0
ARC
  5
97
100
AcDbEntity
  8
0
  6
CONTINUOUS
 62
    7
370
   -1
100
AcDbCircle
 10
15.53132006769999
 20
2
 40
1.000000000000009
100
AcDbArc
 50
343.9866055761002
 51
90
  0
ARC
  5
98
100
AcDbEntity
  8
0
  6
CONTINUOUS
 62
    7
370
   -1
100
AcDbCircle
 10
22.5
 20
0
 40
6.250000000000111
100
AcDbArc
 50
163.9866055761002
 51
196.0133944239998
  0
ARC
  5
99
100
AcDbEntity
  8
0
  6
CONTINUOUS
 62
    7
370
   -1
100
AcDbCircle
 10
15.53132006769999
 20
-2
 40
1.000000000000011
100
AcDbArc
 50
270
 51
16.01339442389981
  0
ARC
  5
9A
100
AcDbEntity
  8
0
  6
CONTINUOUS
 62
    7
370
   -1
100
AcDbCircle
 10
-39.39999999999999
 20
14.23818201589991
 40
1.000000000000007
100
AcDbArc
 50
131.1214761682003
 51
180
  0
LINE
  5
9B
100
AcDbEntity
  8
0
  6
CONTINUOUS
 62
    7
370
   -1
100
AcDbLine
 10
-40.39999939499998
 20
14.23818245529999
 11
-40.39999939499998
 21
12.5000001863
  0
ARC
  5
9C
100
AcDbEntity
  8
0
  6
CONTINUOUS
 62
    7
370
   -1
100
AcDbCircle
 10
-39.39999999999999
 20
12.49999999999998
 40
1.000000000000007
100
AcDbArc
 50
180
 51
270
  0
LINE
  5
9D
100
AcDbEntity
  8
0
  6
CONTINUOUS
 62
    7
370
   -1
100
AcDbLine
 10
-39.3999992311
 20
11.5000000223999
 11
-34.50000010429999
 21
11.5000000223999
  0
ARC
  5
9E
100
AcDbEntity
  8
0
  6
CONTINUOUS
 62
    7
370
   -1
100
AcDbCircle
 10
-34.49999999999999
 20
11.99999999999998
 40
0.5
100
AcDbArc
 50
270
 51
0
  0
LINE
  5
9F
100
AcDbEntity
  8
0
  6
CONTINUOUS
 62
    7
370
   -1
100
AcDbLine
 10
-34.0000000223001
 20
12.00000010430001
 11
-34.0000000223001
 21
19.99999955299988
  0
ARC
  5
A0
100
AcDbEntity
  8
0
  6
CONTINUOUS
 62
    7
370
   -1
100
AcDbCircle
 10
-34.49999999999999
 20
19.99999999999998
 40
0.5000000000000142
100
AcDbArc
 50
0
 51
90
  0
LINE
  5
A1
100
AcDbEntity
  8
0
  6
CONTINUOUS
 62
    7
370
   -1
100
AcDbLine
 10
-34.50000010429999
 20
20.5000005662999
 11
-36.0416695848
 21
20.5000005662999
  0
ARC
  5
A2
100
AcDbEntity
  8
0
  6
CONTINUOUS
 62
    7
370
   -1
100
AcDbCircle
 10
-36.0416699244
 20
19.49999999999998
 40
1.000000000000011
100
AcDbArc
 50
90
 51
163.7828054368004
  0
ARC
  5
A3
100
AcDbEntity
  8
0
  6
CONTINUOUS
 62
    7
370
   -1
100
AcDbCircle
 10
-46.69999999999999
 20
22.5999999999999
 40
10.1
100
AcDbArc
 50
311.1214761682003
 51
343.7828054368005
  0
ARC
  5
A4
100
AcDbEntity
  8
0
  6
CONTINUOUS
 62
    7
370
   -1
100
AcDbCircle
 10
-39.29999999999998
 20
5.299999999999897
 40
0.2999999999999972
100
AcDbArc
 50
270
 51
0
  0
ARC
  5
A5
100
AcDbEntity
  8
0
  6
CONTINUOUS
 62
    7
370
   -1
100
AcDbCircle
 10
-40.97530492339998
 20
5.299999999999897
 40
0.2999999999999915
100
AcDbArc
 50
217.9798724449008
 51
270
  0
ARC
  5
A6
100
AcDbEntity
  8
0
  6
CONTINUOUS
 62
    7
370
   -1
100
AcDbCircle
 10
-43.02469507659999
 20
5.299999999999897
 40
0.2999999999999915
100
AcDbArc
 50
270
 51
322.0201275551995
  0
ARC
  5
A7
100
AcDbEntity
  8
0
  6
CONTINUOUS
 62
    7
370
   -1
100
AcDbCircle
 10
-44.69999999999998
 20
5.299999999999897
 40
0.2999999999999972
100
AcDbArc
 50
180
 51
270
  0
ARC
  5
A8
100
AcDbEntity
  8
0
  6
CONTINUOUS
 62
    7
370
   -1
100
AcDbCircle
 10
-41.99999999999998
 20
19.49999999999998
 40
3.000000000000006
100
AcDbArc
 50
90
 51
180
  0
ARC
  5
A9
100
AcDbEntity
  8
0
  6
CONTINUOUS
 62
    7
370
   -1
100
AcDbCircle
 10
-27.79999999999998
 20
22.19999999999989
 40
0.2999999999999972
100
AcDbArc
 50
0
 51
90
  0
ARC
  5
AA
100
AcDbEntity
  8
0
  6
CONTINUOUS
 62
    7
370
   -1
100
AcDbCircle
 10
-27.79999999999998
 20
20.5246950766
 40
0.3000000000000114
100
AcDbArc
 50
307.9798724448996
 51
0
  0
ARC
  5
AB
100
AcDbEntity
  8
0
  6
CONTINUOUS
 62
    7
370
   -1
100
AcDbCircle
 10
-27.79999999999998
 20
18.47530492339991
 40
0.3000000000000114
100
AcDbArc
 50
0
 51
52.02012755510033
  0
ARC
  5
AC
100
AcDbEntity
  8
0
  6
CONTINUOUS
 62
    7
370
   -1
100
AcDbCircle
 10
-27.79999999999998
 20
16.79999999999991
 40
0.3000000000000114
100
AcDbArc
 50
270
 51
0
  0
ARC
  5
AD
100
AcDbEntity
  8
0
  6
CONTINUOUS
 62
    7
370
   -1
100
AcDbCircle
 10
-17.20000000000007
 20
16.79999999999991
 40
0.3000000000000114
100
AcDbArc
 50
180
 51
270
  0
ARC
  5
AE
100
AcDbEntity
  8
0
  6
CONTINUOUS
 62
    7
370
   -1
100
AcDbCircle
 10
-17.20000000000007
 20
18.47530492339991
 40
0.3000000000000114
100
AcDbArc
 50
127.9798724448997
 51
180
  0
ARC
  5
AF
100
AcDbEntity
  8
0
  6
CONTINUOUS
 62
    7
370
   -1
100
AcDbCircle
 10
-17.20000000000007
 20
20.5246950766
 40
0.3000000000000114
100
AcDbArc
 50
180
 51
232.0201275551003
  0
ARC
  5
B0
100
AcDbEntity
  8
0
  6
CONTINUOUS
 62
    7
370
   -1
100
AcDbCircle
 10
-17.20000000000007
 20
22.19999999999989
 40
0.3000000000000114
100
AcDbArc
 50
90
 51
180
  0
ARC
  5
B1
100
AcDbEntity
  8
0
  6
CONTINUOUS
 62
    7
370
   -1
100
AcDbCircle
 10
17.20000000000001
 20
22.19999999999989
 40
0.3000000000000114
100
AcDbArc
 50
0
 51
90
  0
LINE
  5
B2
100
AcDbEntity
  8
0
  6
CONTINUOUS
 62
    7
370
   -1
100
AcDbLine
 10
17.49999910599999
 20
22.19999954109999
 11
17.49999910599999
 21
20.5246955155999
  0
ARC
  5
B3
100
AcDbEntity
  8
0
  6
CONTINUOUS
 62
    7
370
   -1
100
AcDbCircle
 10
17.20000000000001
 20
20.5246950766
 40
0.2999999999999972
100
AcDbArc
 50
307.9798724448996
 51
0
  0
ARC
  5
B4
100
AcDbEntity
  8
0
  6
CONTINUOUS
 62
    7
370
   -1
100
AcDbCircle
 10
18
 20
19.49999999999998
 40
1.000000000000001
100
AcDbArc
 50
127.9798724448997
 51
232.0201275551003
  0
ARC
  5
B5
100
AcDbEntity
  8
0
  6
CONTINUOUS
 62
    7
370
   -1
100
AcDbCircle
 10
17.20000000000001
 20
18.47530492339991
 40
0.3000000000000114
100
AcDbArc
 50
0
 51
52.02012755510033
  0
LINE
  5
B6
100
AcDbEntity
  8
0
  6
CONTINUOUS
 62
    7
370
   -1
100
AcDbLine
 10
17.49999910599999
 20
18.4753052889999
 11
17.49999910599999
 21
16.79999940099999
  0
ARC
  5
B7
100
AcDbEntity
  8
0
  6
CONTINUOUS
 62
    7
370
   -1
100
AcDbCircle
 10
17.20000000000001
 20
16.79999999999991
 40
0.2999999999999972
100
AcDbArc
 50
270
 51
0
  0
LINE
  5
B8
100
AcDbEntity
  8
0
  6
CONTINUOUS
 62
    7
370
   -1
100
AcDbLine
 10
17.20000147820002
 20
16.49999991059998
 11
12.50000014900001
 21
16.49999991059998
  0
LINE
  5
B9
100
AcDbEntity
  8
0
  6
CONTINUOUS
 62
    7
370
   -1
100
AcDbLine
 10
12.50000014900001
 20
16.49999991059998
 11
12.50000014900001
 21
12.12132070219989
  0
LINE
  5
BA
100
AcDbEntity
  8
0
  6
CONTINUOUS
 62
    7
370
   -1
100
AcDbLine
 10
12.50000014900001
 20
12.12132070219989
 11
15.1213192939999
 21
9.499999694499891
  0
LINE
  5
BB
100
AcDbEntity
  8
0
  6
CONTINUOUS
 62
    7
370
   -1
100
AcDbLine
 10
15.1213192939999
 20
9.499999694499891
 11
18.99999842050002
 21
9.499999694499891
  0
LINE
  5
BC
100
AcDbEntity
  8
0
  6
CONTINUOUS
 62
    7
370
   -1
100
AcDbLine
 10
18.99999842050002
 20
9.499999694499891
 11
20.58484494689989
 21
9.248984977599903
  0
LINE
  5
BD
100
AcDbEntity
  8
0
  6
CONTINUOUS
 62
    7
370
   -1
100
AcDbLine
 10
20.58484494689989
 20
9.248984977599903
 11
20.90358823539992
 21
9.43301245569991
  0
ARC
  5
BE
100
AcDbEntity
  8
0
  6
CONTINUOUS
 62
    7
370
   -1
100
AcDbCircle
 10
21.15358983850001
 20
8.999999999999986
 40
0.5000000000000041
100
AcDbArc
 50
59.99999999999986
 51
120.0000000000001
  0
LINE
  5
BF
100
AcDbEntity
  8
0
  6
CONTINUOUS
 62
    7
370
   -1
100
AcDbLine
 10
21.4035892487
 20
9.43301245569991
 11
22.50000178820002
 21
8.799999952299984
  0
LINE
  5
C0
100
AcDbEntity
  8
0
  6
CONTINUOUS
 62
    7
370
   -1
100
AcDbLine
 10
22.50000178820002
 20
8.799999952299984
 11
23.5964106024
 21
9.43301245569991
  0
ARC
  5
C1
100
AcDbEntity
  8
0
  6
CONTINUOUS
 62
    7
370
   -1
100
AcDbCircle
 10
23.84641016150002
 20
8.999999999999986
 40
0.5000000000000041
100
AcDbArc
 50
89.93666287761349
 51
120.0000000000001
  0
LINE
  5
C2
100
AcDbEntity
  8
0
  6
CONTINUOUS
 62
    7
370
   -1
100
AcDbLine
 10
23.84696288204782
 20
9.499999694499891
 11
29.878680557
 21
9.499999694499891
  0
LINE
  5
C3
100
AcDbEntity
  8
0
  6
CONTINUOUS
 62
    7
370
   -1
100
AcDbLine
 10
29.878680557
 20
9.499999694499891
 11
32.499999702
 21
12.12132070219989
  0
LINE
  5
C4
100
AcDbEntity
  8
0
  6
CONTINUOUS
 62
    7
370
   -1
100
AcDbLine
 10
32.499999702
 20
12.12132070219989
 11
32.499999702
 21
16.49999991059998
  0
LINE
  5
C5
100
AcDbEntity
  8
0
  6
CONTINUOUS
 62
    7
370
   -1
100
AcDbLine
 10
32.499999702
 20
16.49999991059998
 11
27.79999837279991
 21
16.49999991059998
  0
ARC
  5
C6
100
AcDbEntity
  8
0
  6
CONTINUOUS
 62
    7
370
   -1
100
AcDbCircle
 10
27.79999999999993
 20
16.79999999999991
 40
0.2999999999999972
100
AcDbArc
 50
180
 51
270
  0
LINE
  5
C7
100
AcDbEntity
  8
0
  6
CONTINUOUS
 62
    7
370
   -1
100
AcDbLine
 10
27.5000007450999
 20
16.79999940099999
 11
27.5000007450999
 21
18.4753052889999
  0
ARC
  5
C8
100
AcDbEntity
  8
0
  6
CONTINUOUS
 62
    7
370
   -1
100
AcDbCircle
 10
27.79999999999993
 20
18.47530492339991
 40
0.2999999999999971
100
AcDbArc
 50
127.9798724448
 51
180
  0
ARC
  5
C9
100
AcDbEntity
  8
0
  6
CONTINUOUS
 62
    7
370
   -1
100
AcDbCircle
 10
27
 20
19.49999999999998
 40
0.9999999999999932
100
AcDbArc
 50
307.9798724448996
 51
52.02012755510033
  0
ARC
  5
CA
100
AcDbEntity
  8
0
  6
CONTINUOUS
 62
    7
370
   -1
100
AcDbCircle
 10
27.79999999999993
 20
20.5246950766
 40
0.3000000000000146
100
AcDbArc
 50
180
 51
232.0201275551003
  0
LINE
  5
CB
100
AcDbEntity
  8
0
  6
CONTINUOUS
 62
    7
370
   -1
100
AcDbLine
 10
27.5000007450999
 20
20.5246955155999
 11
27.5000007450999
 21
22.19999954109999
  0
ARC
  5
CC
100
AcDbEntity
  8
0
  6
CONTINUOUS
 62
    7
370
   -1
100
AcDbCircle
 10
27.79999999999993
 20
22.19999999999989
 40
0.2999999999999972
100
AcDbArc
 50
90
 51
180
  0
LINE
  5
CD
100
AcDbEntity
  8
0
  6
CONTINUOUS
 62
    7
370
   -1
100
AcDbLine
 10
27.79999837279991
 20
22.50000089409998
 11
41.99999660260002
 21
22.50000089409998
  0
ARC
  5
CE
100
AcDbEntity
  8
0
  6
CONTINUOUS
 62
    7
370
   -1
100
AcDbCircle
 10
42
 20
19.49999999999998
 40
3
100
AcDbArc
 50
0
 51
90
  0
LINE
  5
CF
100
AcDbEntity
  8
0
  6
CONTINUOUS
 62
    7
370
   -1
100
AcDbLine
 10
45.0000026822
 20
19.50000040229999
 11
45.0000026822
 21
5.299999844300003
  0
ARC
  5
D0
100
AcDbEntity
  8
0
  6
CONTINUOUS
 62
    7
370
   -1
100
AcDbCircle
 10
44.69999999999998
 20
5.299999999999897
 40
0.3000000000000114
100
AcDbArc
 50
270
 51
0
  0
LINE
  5
D1
100
AcDbEntity
  8
0
  6
CONTINUOUS
 62
    7
370
   -1
100
AcDbLine
 10
44.69999760389998
 20
4.999999888299896
 11
43.02469730379999
 21
4.999999888299896
  0
ARC
  5
D2
100
AcDbEntity
  8
0
  6
CONTINUOUS
 62
    7
370
   -1
100
AcDbCircle
 10
43.02469507659992
 20
5.299999999999897
 40
0.3000000000000059
100
AcDbArc
 50
217.9798724449008
 51
270
  0
ARC
  5
D3
100
AcDbEntity
  8
0
  6
CONTINUOUS
 62
    7
370
   -1
100
AcDbCircle
 10
42
 20
4.5
 40
1.000000000000011
100
AcDbArc
 50
37.97987244490083
 51
142.0201275550992
  0
ARC
  5
D4
100
AcDbEntity
  8
0
  6
CONTINUOUS
 62
    7
370
   -1
100
AcDbCircle
 10
40.97530492339993
 20
5.299999999999897
 40
0.3000000000000282
100
AcDbArc
 50
270
 51
322.0201275551995
  0
LINE
  5
D5
100
AcDbEntity
  8
0
  6
CONTINUOUS
 62
    7
370
   -1
100
AcDbLine
 10
40.9753033519
 20
4.999999888299896
 11
39.29999932649983
 21
4.999999888299896
  0
ARC
  5
D6
100
AcDbEntity
  8
0
  6
CONTINUOUS
 62
    7
370
   -1
100
AcDbCircle
 10
39.29999999999992
 20
5.299999999999897
 40
0.2999999999999972
100
AcDbArc
 50
180
 51
270
  0
LINE
  5
D7
100
AcDbEntity
  8
0
  6
CONTINUOUS
 62
    7
370
   -1
100
AcDbLine
 10
39.00000169880002
 20
5.299999844300003
 11
39.00000169880002
 21
9.99999977649999
  0
LINE
  5
D8
100
AcDbEntity
  8
0
  6
CONTINUOUS
 62
    7
370
   -1
100
AcDbLine
 10
39.00000169880002
 20
9.99999977649999
 11
34.62132155900003
 21
9.99999977649999
  0
LINE
  5
D9
100
AcDbEntity
  8
0
  6
CONTINUOUS
 62
    7
370
   -1
100
AcDbLine
 10
34.62132155900003
 20
9.99999977649999
 11
31.99999868870003
 21
7.378679700199896
  0
LINE
  5
DA
100
AcDbEntity
  8
0
  6
CONTINUOUS
 62
    7
370
   -1
100
AcDbLine
 10
31.99999868870003
 20
7.378679700199896
 11
31.99999868870003
 21
3.500000108099897
  0
LINE
  5
DB
100
AcDbEntity
  8
0
  6
CONTINUOUS
 62
    7
370
   -1
100
AcDbLine
 10
31.99999868870003
 20
3.500000108099897
 11
31.74898490309983
 21
1.915155095100004
  0
LINE
  5
DC
100
AcDbEntity
  8
0
  6
CONTINUOUS
 62
    7
370
   -1
100
AcDbLine
 10
31.74898490309983
 20
1.915155095100004
 11
31.93301424389992
 21
1.596410176700004
  0
ARC
  5
DD
100
AcDbEntity
  8
0
  6
CONTINUOUS
 62
    7
370
   -1
100
AcDbCircle
 10
31.5
 20
1.346410161499989
 40
0.499999999999992
100
AcDbArc
 50
330.0000000000003
 51
29.99999999999973
  0
LINE
  5
DE
100
AcDbEntity
  8
0
  6
CONTINUOUS
 62
    7
370
   -1
100
AcDbLine
 10
31.93301424389992
 20
1.09641021119998
 11
31.3000017405
 21
0
  0
LINE
  5
DF
100
AcDbEntity
  8
0
  6
CONTINUOUS
 62
    7
370
   -1
100
AcDbLine
 10
31.93301424389992
 20
-1.096410211200009
 11
31.3000017405
 21
0
  0
ARC
  5
E0
100
AcDbEntity
  8
0
  6
CONTINUOUS
 62
    7
370
   -1
100
AcDbCircle
 10
31.5
 20
-1.346410161500088
 40
0.499999999999992
100
AcDbArc
 50
359.8687788767507
 51
29.99999999999973
  0
LINE
  5
E1
100
AcDbEntity
  8
0
  6
CONTINUOUS
 62
    7
370
   -1
100
AcDbLine
 10
31.99999868870003
 20
-7.378679700200009
 11
31.99999868870003
 21
-1.347555280813509
  0
LINE
  5
E2
100
AcDbEntity
  8
0
  6
CONTINUOUS
 62
    7
370
   -1
100
AcDbLine
 10
34.62132155900003
 20
-9.999999776500005
 11
31.99999868870003
 21
-7.378679700200009
  0
LINE
  5
E3
100
AcDbEntity
  8
0
  6
CONTINUOUS
 62
    7
370
   -1
100
AcDbLine
 10
39.00000169880002
 20
-9.999999776500005
 11
34.62132155900003
 21
-9.999999776500005
  0
LINE
  5
E4
100
AcDbEntity
  8
0
  6
CONTINUOUS
 62
    7
370
   -1
100
AcDbLine
 10
39.00000169880002
 20
-5.299999844300003
 11
39.00000169880002
 21
-9.999999776500005
  0
ARC
  5
E5
100
AcDbEntity
  8
0
  6
CONTINUOUS
 62
    7
370
   -1
100
AcDbCircle
 10
39.29999999999992
 20
-5.299999999999997
 40
0.2999999999999829
100
AcDbArc
 50
90
 51
180
  0
LINE
  5
E6
100
AcDbEntity
  8
0
  6
CONTINUOUS
 62
    7
370
   -1
100
AcDbLine
 10
40.9753033519
 20
-4.999999888199994
 11
39.29999932649983
 21
-4.999999888199994
  0
ARC
  5
E7
100
AcDbEntity
  8
0
  6
CONTINUOUS
 62
    7
370
   -1
100
AcDbCircle
 10
40.97530492339993
 20
-5.299999999999997
 40
0.3000000000000194
100
AcDbArc
 50
37.9798724448005
 51
90
  0
ARC
  5
E8
100
AcDbEntity
  8
0
  6
CONTINUOUS
 62
    7
370
   -1
100
AcDbCircle
 10
42
 20
-4.5
 40
1.000000000000011
100
AcDbArc
 50
217.9798724449008
 51
322.0201275550991
  0
ARC
  5
E9
100
AcDbEntity
  8
0
  6
CONTINUOUS
 62
    7
370
   -1
100
AcDbCircle
 10
43.02469507659992
 20
-5.299999999999997
 40
0.2999999999999971
100
AcDbArc
 50
90
 51
142.0201275551995
  0
LINE
  5
EA
100
AcDbEntity
  8
0
  6
CONTINUOUS
 62
    7
370
   -1
100
AcDbLine
 10
44.69999760389998
 20
-4.999999888199994
 11
43.02469730379999
 21
-4.999999888199994
  0
ARC
  5
EB
100
AcDbEntity
  8
0
  6
CONTINUOUS
 62
    7
370
   -1
100
AcDbCircle
 10
44.69999999999998
 20
-5.299999999999997
 40
0.2999999999999972
100
AcDbArc
 50
0
 51
90
  0
LINE
  5
EC
100
AcDbEntity
  8
0
  6
CONTINUOUS
 62
    7
370
   -1
100
AcDbLine
 10
45.0000026822
 20
-19.50000040230009
 11
45.0000026822
 21
-5.299999844300003
  0
ARC
  5
ED
100
AcDbEntity
  8
0
  6
CONTINUOUS
 62
    7
370
   -1
100
AcDbCircle
 10
42
 20
-19.5
 40
3
100
AcDbArc
 50
270
 51
0
  0
LINE
  5
EE
100
AcDbEntity
  8
0
  6
CONTINUOUS
 62
    7
370
   -1
100
AcDbLine
 10
27.79999837279991
 20
-22.5000008941
 11
41.99999660260002
 21
-22.5000008941
  0
ARC
  5
EF
100
AcDbEntity
  8
0
  6
CONTINUOUS
 62
    7
370
   -1
100
AcDbCircle
 10
27.79999999999993
 20
-22.2000000000001
 40
0.2999999999999972
100
AcDbArc
 50
180
 51
270
  0
LINE
  5
F0
100
AcDbEntity
  8
0
  6
CONTINUOUS
 62
    7
370
   -1
100
AcDbLine
 10
27.5000007450999
 20
-20.52469551560001
 11
27.5000007450999
 21
-22.1999995410001
  0
ARC
  5
F1
100
AcDbEntity
  8
0
  6
CONTINUOUS
 62
    7
370
   -1
100
AcDbCircle
 10
27.79999999999993
 20
-20.5246950766
 40
0.300000000000009
100
AcDbArc
 50
127.9798724448997
 51
180
  0
ARC
  5
F2
100
AcDbEntity
  8
0
  6
CONTINUOUS
 62
    7
370
   -1
100
AcDbCircle
 10
27
 20
-19.5
 40
0.9999999999999932
100
AcDbArc
 50
307.9798724448996
 51
52.02012755510033
  0
ARC
  5
F3
100
AcDbEntity
  8
0
  6
CONTINUOUS
 62
    7
370
   -1
100
AcDbCircle
 10
27.79999999999993
 20
-18.4753049234
 40
0.2999999999999859
100
AcDbArc
 50
180
 51
232.0201275552
  0
LINE
  5
F4
100
AcDbEntity
  8
0
  6
CONTINUOUS
 62
    7
370
   -1
100
AcDbLine
 10
27.5000007450999
 20
-16.79999940100001
 11
27.5000007450999
 21
-18.475305289
  0
ARC
  5
F5
100
AcDbEntity
  8
0
  6
CONTINUOUS
 62
    7
370
   -1
100
AcDbCircle
 10
27.79999999999993
 20
-16.79999999999999
 40
0.3000000000000043
100
AcDbArc
 50
90
 51
180
  0
LINE
  5
F6
100
AcDbEntity
  8
0
  6
CONTINUOUS
 62
    7
370
   -1
100
AcDbLine
 10
32.499999702
 20
-16.49999991060009
 11
27.79999837279991
 21
-16.49999991060009
  0
LINE
  5
F7
100
AcDbEntity
  8
0
  6
CONTINUOUS
 62
    7
370
   -1
100
AcDbLine
 10
32.499999702
 20
-12.12132070210001
 11
32.499999702
 21
-16.49999991060009
  0
LINE
  5
F8
100
AcDbEntity
  8
0
  6
CONTINUOUS
 62
    7
370
   -1
100
AcDbLine
 10
29.878680557
 20
-9.499999694500003
 11
32.499999702
 21
-12.12132070210001
  0
LINE
  5
F9
100
AcDbEntity
  8
0
  6
CONTINUOUS
 62
    7
370
   -1
100
AcDbLine
 10
26.00000143049991
 20
-9.499999694500003
 11
29.878680557
 21
-9.499999694500003
  0
LINE
  5
FA
100
AcDbEntity
  8
0
  6
CONTINUOUS
 62
    7
370
   -1
100
AcDbLine
 10
24.41515490420002
 20
-9.248984977600003
 11
26.00000143049991
 21
-9.499999694500003
  0
LINE
  5
FB
100
AcDbEntity
  8
0
  6
CONTINUOUS
 62
    7
370
   -1
100
AcDbLine
 10
24.09641161560001
 20
-9.433012455699995
 11
24.41515490420002
 21
-9.248984977600003
  0
ARC
  5
FC
100
AcDbEntity
  8
0
  6
CONTINUOUS
 62
    7
370
   -1
100
AcDbCircle
 10
23.84641016150002
 20
-9
 40
0.5000000000000041
100
AcDbArc
 50
239.9999999999999
 51
300.0000000000001
  0
LINE
  5
FD
100
AcDbEntity
  8
0
  6
CONTINUOUS
 62
    7
370
   -1
100
AcDbLine
 10
22.50000178820002
 20
-8.799999952300098
 11
23.5964106024
 21
-9.433012455699995
  0
LINE
  5
FE
100
AcDbEntity
  8
0
  6
CONTINUOUS
 62
    7
370
   -1
100
AcDbLine
 10
21.4035892487
 20
-9.433012455699995
 11
22.50000178820002
 21
-8.799999952300098
  0
ARC
  5
FF
100
AcDbEntity
  8
0
  6
CONTINUOUS
 62
    7
370
   -1
100
AcDbCircle
 10
21.15358983850001
 20
-9
 40
0.5000000000000041
100
AcDbArc
 50
269.9366628879248
 51
300.0000000000001
  0
LINE
  5
100
100
AcDbEntity
  8
0
  6
CONTINUOUS
 62
    7
370
   -1
100
AcDbLine
 10
15.1213192939999
 20
-9.499999694500003
 11
21.15303711804159
 21
-9.499999694500003
  0
LINE
  5
101
100
AcDbEntity
  8
0
  6
CONTINUOUS
 62
    7
370
   -1
100
AcDbLine
 10
12.50000014900001
 20
-12.12132070210001
 11
15.1213192939999
 21
-9.499999694500003
  0
LINE
  5
102
100
AcDbEntity
  8
0
  6
CONTINUOUS
 62
    7
370
   -1
100
AcDbLine
 10
12.50000014900001
 20
-16.49999991060009
 11
12.50000014900001
 21
-12.12132070210001
  0
LINE
  5
103
100
AcDbEntity
  8
0
  6
CONTINUOUS
 62
    7
370
   -1
100
AcDbLine
 10
17.20000147820002
 20
-16.49999991060009
 11
12.50000014900001
 21
-16.49999991060009
  0
ARC
  5
104
100
AcDbEntity
  8
0
  6
CONTINUOUS
 62
    7
370
   -1
100
AcDbCircle
 10
17.20000000000001
 20
-16.79999999999999
 40
0.2999999999999972
100
AcDbArc
 50
0
 51
90
  0
LINE
  5
105
100
AcDbEntity
  8
0
  6
CONTINUOUS
 62
    7
370
   -1
100
AcDbLine
 10
17.49999910599999
 20
-18.475305289
 11
17.49999910599999
 21
-16.79999940100001
  0
ARC
  5
106
100
AcDbEntity
  8
0
  6
CONTINUOUS
 62
    7
370
   -1
100
AcDbCircle
 10
17.20000000000001
 20
-18.4753049234
 40
0.3000000000000114
100
AcDbArc
 50
307.9798724448996
 51
0
  0
ARC
  5
107
100
AcDbEntity
  8
0
  6
CONTINUOUS
 62
    7
370
   -1
100
AcDbCircle
 10
18
 20
-19.5
 40
1.000000000000009
100
AcDbArc
 50
127.9798724448997
 51
232.0201275551003
  0
ARC
  5
108
100
AcDbEntity
  8
0
  6
CONTINUOUS
 62
    7
370
   -1
100
AcDbCircle
 10
17.20000000000001
 20
-20.5246950766
 40
0.2999999999999972
100
AcDbArc
 50
0
 51
52.02012755510033
  0
LINE
  5
109
100
AcDbEntity
  8
0
  6
CONTINUOUS
 62
    7
370
   -1
100
AcDbLine
 10
17.49999910599999
 20
-22.1999995410001
 11
17.49999910599999
 21
-20.52469551560001
  0
ARC
  5
10A
100
AcDbEntity
  8
0
  6
CONTINUOUS
 62
    7
370
   -1
100
AcDbCircle
 10
17.20000000000001
 20
-22.2000000000001
 40
0.3000000000000114
100
AcDbArc
 50
270
 51
0
  0
LINE
  5
10B
100
AcDbEntity
  8
0
  6
CONTINUOUS
 62
    7
370
   -1
100
AcDbLine
 10
17.20000147820002
 20
-22.5000008941
 11
-17.20000015570017
 21
-22.5000008941
  0
ARC
  5
10C
100
AcDbEntity
  8
0
  6
CONTINUOUS
 62
    7
370
   -1
100
AcDbCircle
 10
-17.20000000000007
 20
-22.2000000000001
 40
0.3000000000000114
100
AcDbArc
 50
180
 51
270
  0
LINE
  5
10D
100
AcDbEntity
  8
0
  6
CONTINUOUS
 62
    7
370
   -1
100
AcDbLine
 10
-17.50000011169999
 20
-22.1999995410001
 11
-17.50000011169999
 21
-20.52469551560001
  0
ARC
  5
10E
100
AcDbEntity
  8
0
  6
CONTINUOUS
 62
    7
370
   -1
100
AcDbCircle
 10
-17.20000000000007
 20
-20.5246950766
 40
0.3000000000000114
100
AcDbArc
 50
127.9798724448997
 51
180
  0
ARC
  5
10F
100
AcDbEntity
  8
0
  6
CONTINUOUS
 62
    7
370
   -1
100
AcDbCircle
 10
-18
 20
-19.5
 40
0.9999999999999987
100
AcDbArc
 50
307.9798724448996
 51
52.02012755510033
  0
ARC
  5
110
100
AcDbEntity
  8
0
  6
CONTINUOUS
 62
    7
370
   -1
100
AcDbCircle
 10
-17.20000000000007
 20
-18.4753049234
 40
0.3000000000000114
100
AcDbArc
 50
180
 51
232.0201275551003
  0
LINE
  5
111
100
AcDbEntity
  8
0
  6
CONTINUOUS
 62
    7
370
   -1
100
AcDbLine
 10
-17.50000011169999
 20
-18.475305289
 11
-17.50000011169999
 21
-16.79999940100001
  0
ARC
  5
112
100
AcDbEntity
  8
0
  6
CONTINUOUS
 62
    7
370
   -1
100
AcDbCircle
 10
-17.20000000000007
 20
-16.79999999999999
 40
0.3000000000000114
100
AcDbArc
 50
90
 51
180
  0
LINE
  5
113
100
AcDbEntity
  8
0
  6
CONTINUOUS
 62
    7
370
   -1
100
AcDbLine
 10
-17.20000015570017
 20
-16.49999991060009
 11
-12.50000022349999
 21
-16.49999991060009
  0
LINE
  5
114
100
AcDbEntity
  8
0
  6
CONTINUOUS
 62
    7
370
   -1
100
AcDbLine
 10
-12.50000022349999
 20
-16.49999991060009
 11
-12.50000022349999
 21
-12.12132070210001
  0
LINE
  5
115
100
AcDbEntity
  8
0
  6
CONTINUOUS
 62
    7
370
   -1
100
AcDbLine
 10
-12.50000022349999
 20
-12.12132070210001
 11
-15.1213202998
 21
-9.499999694500003
  0
LINE
  5
116
100
AcDbEntity
  8
0
  6
CONTINUOUS
 62
    7
370
   -1
100
AcDbLine
 10
-15.1213202998
 20
-9.499999694500003
 11
-18.99999989189999
 21
-9.499999694500003
  0
LINE
  5
117
100
AcDbEntity
  8
0
  6
CONTINUOUS
 62
    7
370
   -1
100
AcDbLine
 10
-18.99999989189999
 20
-9.499999694500003
 11
-20.58484490490001
 21
-9.248984977600003
  0
LINE
  5
118
100
AcDbEntity
  8
0
  6
CONTINUOUS
 62
    7
370
   -1
100
AcDbLine
 10
-20.58484490490001
 20
-9.248984977600003
 11
-20.90358982329998
 21
-9.433012455699995
  0
ARC
  5
119
100
AcDbEntity
  8
0
  6
CONTINUOUS
 62
    7
370
   -1
100
AcDbCircle
 10
-21.15358983850008
 20
-9
 40
0.4999999999999979
100
AcDbArc
 50
239.9999999999999
 51
300.0000000000001
  0
LINE
  5
11A
100
AcDbEntity
  8
0
  6
CONTINUOUS
 62
    7
370
   -1
100
AcDbLine
 10
-21.40358978880009
 20
-9.433012455699995
 11
-22.49999999999999
 21
-8.799999952300098
  0
LINE
  5
11B
100
AcDbEntity
  8
0
  6
CONTINUOUS
 62
    7
370
   -1
100
AcDbLine
 10
-22.49999999999999
 20
-8.799999952300098
 11
-23.59641021110009
 21
-9.433012455699995
  0
ARC
  5
11C
100
AcDbEntity
  8
0
  6
CONTINUOUS
 62
    7
370
   -1
100
AcDbCircle
 10
-23.8464101615
 20
-9
 40
0.4999999999999979
100
AcDbArc
 50
269.9366628857281
 51
300.0000000000001
  0
LINE
  5
11D
100
AcDbEntity
  8
0
  6
CONTINUOUS
 62
    7
370
   -1
100
AcDbLine
 10
-23.84696288196268
 20
-9.499999694500003
 11
-29.87867970020008
 21
-9.499999694500003
  0
LINE
  5
11E
100
AcDbEntity
  8
0
  6
CONTINUOUS
 62
    7
370
   -1
100
AcDbLine
 10
-29.87867970020008
 20
-9.499999694500003
 11
-32.4999997764
 21
-12.12132070210001
  0
LINE
  5
11F
100
AcDbEntity
  8
0
  6
CONTINUOUS
 62
    7
370
   -1
100
AcDbLine
 10
-32.4999997764
 20
-12.12132070210001
 11
-32.4999997764
 21
-16.49999991060009
  0
LINE
  5
120
100
AcDbEntity
  8
0
  6
CONTINUOUS
 62
    7
370
   -1
100
AcDbLine
 10
-32.4999997764
 20
-16.49999991060009
 11
-27.79999984419999
 21
-16.49999991060009
  0
ARC
  5
121
100
AcDbEntity
  8
0
  6
CONTINUOUS
 62
    7
370
   -1
100
AcDbCircle
 10
-27.79999999999998
 20
-16.79999999999999
 40
0.3000000000000043
100
AcDbArc
 50
0
 51
90
  0
LINE
  5
122
100
AcDbEntity
  8
0
  6
CONTINUOUS
 62
    7
370
   -1
100
AcDbLine
 10
-27.49999988820001
 20
-16.79999940100001
 11
-27.49999988820001
 21
-18.475305289
  0
ARC
  5
123
100
AcDbEntity
  8
0
  6
CONTINUOUS
 62
    7
370
   -1
100
AcDbCircle
 10
-27.79999999999998
 20
-18.4753049234
 40
0.3000000000000114
100
AcDbArc
 50
307.9798724448996
 51
0
  0
ARC
  5
124
100
AcDbEntity
  8
0
  6
CONTINUOUS
 62
    7
370
   -1
100
AcDbCircle
 10
-26.99999999999999
 20
-19.5
 40
1.000000000000007
100
AcDbArc
 50
127.9798724448997
 51
232.0201275551003
  0
ARC
  5
125
100
AcDbEntity
  8
0
  6
CONTINUOUS
 62
    7
370
   -1
100
AcDbCircle
 10
-27.79999999999998
 20
-20.5246950766
 40
0.3000000000000114
100
AcDbArc
 50
0
 51
52.02012755510033
  0
LINE
  5
126
100
AcDbEntity
  8
0
  6
CONTINUOUS
 62
    7
370
   -1
100
AcDbLine
 10
-27.49999988820001
 20
-20.52469551560001
 11
-27.49999988820001
 21
-22.1999995410001
  0
ARC
  5
127
100
AcDbEntity
  8
0
  6
CONTINUOUS
 62
    7
370
   -1
100
AcDbCircle
 10
-27.79999999999998
 20
-22.2000000000001
 40
0.3000000000000043
100
AcDbArc
 50
270
 51
0
  0
LINE
  5
128
100
AcDbEntity
  8
0
  6
CONTINUOUS
 62
    7
370
   -1
100
AcDbLine
 10
-27.79999984419999
 20
-22.5000008941
 11
-42.0000004023
 21
-22.5000008941
  0
ARC
  5
129
100
AcDbEntity
  8
0
  6
CONTINUOUS
 62
    7
370
   -1
100
AcDbCircle
 10
-41.99999999999998
 20
-19.5
 40
3.000000000000006
100
AcDbArc
 50
180
 51
270
  0
LINE
  5
12A
100
AcDbEntity
  8
0
  6
CONTINUOUS
 62
    7
370
   -1
100
AcDbLine
 10
-45.00000089399999
 20
-19.50000040230009
 11
-45.00000089399999
 21
-5.299999844300003
  0
ARC
  5
12B
100
AcDbEntity
  8
0
  6
CONTINUOUS
 62
    7
370
   -1
100
AcDbCircle
 10
-44.69999999999998
 20
-5.299999999999997
 40
0.2999999999999972
100
AcDbArc
 50
90
 51
180
  0
LINE
  5
12C
100
AcDbEntity
  8
0
  6
CONTINUOUS
 62
    7
370
   -1
100
AcDbLine
 10
-44.69999954099999
 20
-4.999999888199994
 11
-43.0246955156
 21
-4.999999888199994
  0
ARC
  5
12D
100
AcDbEntity
  8
0
  6
CONTINUOUS
 62
    7
370
   -1
100
AcDbCircle
 10
-43.02469507659999
 20
-5.299999999999997
 40
0.3000000000000002
100
AcDbArc
 50
37.97987244490083
 51
90
  0
ARC
  5
12E
100
AcDbEntity
  8
0
  6
CONTINUOUS
 62
    7
370
   -1
100
AcDbCircle
 10
-40.97530492339998
 20
-5.299999999999997
 40
0.3000000000000002
100
AcDbArc
 50
90
 51
142.0201275550992
  0
LINE
  5
12F
100
AcDbEntity
  8
0
  6
CONTINUOUS
 62
    7
370
   -1
100
AcDbLine
 10
-40.97530528900001
 20
-4.999999888199994
 11
-39.29999940089999
 21
-4.999999888199994
  0
ARC
  5
130
100
AcDbEntity
  8
0
  6
CONTINUOUS
 62
    7
370
   -1
100
AcDbCircle
 10
-39.29999999999998
 20
-5.299999999999997
 40
0.2999999999999972
100
AcDbArc
 50
0
 51
90
  0
LINE
  5
131
100
AcDbEntity
  8
0
  6
CONTINUOUS
 62
    7
370
   -1
100
AcDbLine
 10
-38.9999999106001
 20
-5.299999844300003
 11
-38.9999999106001
 21
-9.999999776500005
  0
LINE
  5
132
100
AcDbEntity
  8
0
  6
CONTINUOUS
 62
    7
370
   -1
100
AcDbLine
 10
-38.9999999106001
 20
-9.999999776500005
 11
-34.6213207021
 21
-9.999999776500005
  0
LINE
  5
133
100
AcDbEntity
  8
0
  6
CONTINUOUS
 62
    7
370
   -1
100
AcDbLine
 10
-34.6213207021
 20
-9.999999776500005
 11
-31.99999969449999
 21
-7.378679700200009
  0
LINE
  5
134
100
AcDbEntity
  8
0
  6
CONTINUOUS
 62
    7
370
   -1
100
AcDbLine
 10
-31.99999969449999
 20
-7.378679700200009
 11
-31.99999969449999
 21
-3.500000108000108
  0
LINE
  5
135
100
AcDbEntity
  8
0
  6
CONTINUOUS
 62
    7
370
   -1
100
AcDbLine
 10
-31.99999969449999
 20
-3.500000108000108
 11
-31.74898497759999
 21
-1.915155095000102
  0
LINE
  5
136
100
AcDbEntity
  8
0
  6
CONTINUOUS
 62
    7
370
   -1
100
AcDbLine
 10
-31.74898497759999
 20
-1.915155095000102
 11
-31.9330124557001
 21
-1.596410176700004
  0
ARC
  5
137
100
AcDbEntity
  8
0
  6
CONTINUOUS
 62
    7
370
   -1
100
AcDbCircle
 10
-31.49999999999999
 20
-1.346410161500088
 40
0.5000000000000041
100
AcDbArc
 50
150.0000000000002
 51
209.9999999999997
  0
LINE
  5
138
100
AcDbEntity
  8
0
  6
CONTINUOUS
 62
    7
370
   -1
100
AcDbLine
 10
-31.9330124557001
 20
-1.096410211200009
 11
-31.2999999523001
 21
0
  0
LINE
  5
139
100
AcDbEntity
  8
0
  6
CONTINUOUS
 62
    7
370
   -1
100
AcDbLine
 10
-29.4686798378
 20
-3.000000026100011
 11
-29.8000001721
 21
-3.000000026100011
  0
ARC
  5
13A
100
AcDbEntity
  8
0
  6
CONTINUOUS
 62
    7
370
   -1
100
AcDbCircle
 10
-29.79999999999999
 20
-3.5
 40
0.5
100
AcDbArc
 50
90
 51
180
  0
LINE
  5
13B
100
AcDbEntity
  8
0
  6
CONTINUOUS
 62
    7
370
   -1
100
AcDbLine
 10
-30.29999978839999
 20
-3.500000108000108
 11
-30.29999978839999
 21
-7.300000172100013
  0
ARC
  5
13C
100
AcDbEntity
  8
0
  6
CONTINUOUS
 62
    7
370
   -1
100
AcDbCircle
 10
-29.79999999999999
 20
-7.299999999999997
 40
0.5
100
AcDbArc
 50
180
 51
270
  0
LINE
  5
13D
100
AcDbEntity
  8
0
  6
CONTINUOUS
 62
    7
370
   -1
100
AcDbLine
 10
-29.8000001721
 20
-7.7999997884001
 11
-26.000000108
 21
-7.7999997884001
  0
ARC
  5
13E
100
AcDbEntity
  8
0
  6
CONTINUOUS
 62
    7
370
   -1
100
AcDbCircle
 10
-25.99999999999999
 20
-7.299999999999997
 40
0.5
100
AcDbArc
 50
270
 51
0
  0
LINE
  5
13F
100
AcDbEntity
  8
0
  6
CONTINUOUS
 62
    7
370
   -1
100
AcDbLine
 10
-25.50000002600008
 20
-7.300000172100013
 11
-25.50000002600008
 21
-6.968679837900012
  0
ARC
  5
140
100
AcDbEntity
  8
0
  6
CONTINUOUS
 62
    7
370
   -1
100
AcDbCircle
 10
-24.49999999999999
 20
-6.968679932400092
 40
1
100
AcDbArc
 50
73.98660557610019
 51
180
  0
ARC
  5
141
100
AcDbEntity
  8
0
  6
CONTINUOUS
 62
    7
370
   -1
100
AcDbCircle
 10
-22.49999999999999
 20
0
 40
6.250000000000002
100
AcDbArc
 50
253.9866055761002
 51
286.0133944238998
  0
ARC
  5
142
100
AcDbEntity
  8
0
  6
CONTINUOUS
 62
    7
370
   -1
100
AcDbCircle
 10
-20.49999999999998
 20
-6.968679932400092
 40
1
100
AcDbArc
 50
0
 51
106.0133944238998
  0
LINE
  5
143
100
AcDbEntity
  8
0
  6
CONTINUOUS
 62
    7
370
   -1
100
AcDbLine
 10
-19.4999999739
 20
-6.968679837900012
 11
-19.4999999739
 21
-7.300000172100013
  0
ARC
  5
144
100
AcDbEntity
  8
0
  6
CONTINUOUS
 62
    7
370
   -1
100
AcDbCircle
 10
-18.99999999999998
 20
-7.299999999999997
 40
0.5
100
AcDbArc
 50
180
 51
270
  0
LINE
  5
145
100
AcDbEntity
  8
0
  6
CONTINUOUS
 62
    7
370
   -1
100
AcDbLine
 10
-18.99999989189999
 20
-7.7999997884001
 11
-14.92499996719999
 21
-7.7999997884001
  0
ARC
  5
146
100
AcDbEntity
  8
0
  6
CONTINUOUS
 62
    7
370
   -1
100
AcDbCircle
 10
-14.92499996719999
 20
-7.2999997884001
 40
0.5
100
AcDbArc
 50
270
 51
8.142e-13
  0
LINE
  5
147
100
AcDbEntity
  8
0
  6
CONTINUOUS
 62
    7
370
   -1
100
AcDbLine
 10
-14.92499996719999
 20
-3.00000002610011
 11
-15.5313201621
 21
-3.000000026100011
  0
ARC
  5
148
100
AcDbEntity
  8
0
  6
CONTINUOUS
 62
    7
370
   -1
100
AcDbCircle
 10
-15.53132006759998
 20
-2
 40
1.000000000000001
100
AcDbArc
 50
163.9866055761002
 51
270
  0
ARC
  5
149
100
AcDbEntity
  8
0
  6
CONTINUOUS
 62
    7
370
   -1
100
AcDbCircle
 10
-15.53132006759998
 20
2
 40
1
100
AcDbArc
 50
90
 51
196.0133944238998
  0
ARC
  5
14A
100
AcDbEntity
  8
0
  6
CONTINUOUS
 62
    7
370
   -1
100
AcDbCircle
 10
-18.99999999999998
 20
7.299999999999911
 40
0.5
100
AcDbArc
 50
90
 51
180
  0
ARC
  5
14B
100
AcDbEntity
  8
0
  6
CONTINUOUS
 62
    7
370
   -1
100
AcDbCircle
 10
-20.49999999999998
 20
6.968679932399894
 40
1.000000000000011
100
AcDbArc
 50
253.9866055761002
 51
0
  0
ARC
  5
14C
100
AcDbEntity
  8
0
  6
CONTINUOUS
 62
    7
370
   -1
100
AcDbCircle
 10
-24.49999999999999
 20
6.968679932399894
 40
1.000000000000011
100
AcDbArc
 50
180
 51
286.0133944238998
  0
ARC
  5
14D
100
AcDbEntity
  8
0
  6
CONTINUOUS
 62
    7
370
   -1
100
AcDbCircle
 10
-25.99999999999999
 20
7.299999999999911
 40
0.5
100
AcDbArc
 50
0
 51
90
  0
ARC
  5
14E
100
AcDbEntity
  8
0
  6
CONTINUOUS
 62
    7
370
   -1
100
AcDbCircle
 10
-29.79999999999999
 20
7.299999999999911
 40
0.5
100
AcDbArc
 50
90
 51
180
  0
ARC
  5
14F
100
AcDbEntity
  8
0
  6
CONTINUOUS
 62
    7
370
   -1
100
AcDbCircle
 10
-29.79999999999999
 20
3.5
 40
0.5
100
AcDbArc
 50
180
 51
270
  0
ARC
  5
150
100
AcDbEntity
  8
0
  6
CONTINUOUS
 62
    7
370
   -1
100
AcDbCircle
 10
-29.46867993240001
 20
2
 40
1
100
AcDbArc
 50
343.9866055761002
 51
90
  0
ARC
  5
151
100
AcDbEntity
  8
0
  6
CONTINUOUS
 62
    7
370
   -1
100
AcDbCircle
 10
-29.46867993240001
 20
-2
 40
1
100
AcDbArc
 50
270
 51
16.01339442389981
  0
LINE
  5
152
100
AcDbEntity
  8
0
  6
CONTINUOUS
 62
    7
370
   -1
100
AcDbLine
 10
-12.6321064680001
 20
-7.746573071900101
 11
-9.792893230899978
 21
-10.58578677470001
  0
ARC
  5
153
100
AcDbEntity
  8
0
  6
CONTINUOUS
 62
    7
370
   -1
100
AcDbCircle
 10
-10.5
 20
-11.29289321880001
 40
1
100
AcDbArc
 50
0
 51
45
  0
LINE
  5
154
100
AcDbEntity
  8
0
  6
CONTINUOUS
 62
    7
370
   -1
100
AcDbLine
 10
-9.499999731699999
 20
-11.2928934395
 11
-9.499999731699999
 21
-18.99999938899999
  0
ARC
  5
155
100
AcDbEntity
  8
0
  6
CONTINUOUS
 62
    7
370
   -1
100
AcDbCircle
 10
-8.5
 20
-19
 40
1
100
AcDbArc
 50
180
 51
270
  0
LINE
  5
156
100
AcDbEntity
  8
0
  6
CONTINUOUS
 62
    7
370
   -1
100
AcDbLine
 10
-8.499999567799989
 20
-19.9999995529
 11
8.49999949339991
 21
-19.9999995529
  0
ARC
  5
157
100
AcDbEntity
  8
0
  6
CONTINUOUS
 62
    7
370
   -1
100
AcDbCircle
 10
8.5
 20
-19
 40
1
100
AcDbArc
 50
270
 51
0
  0
LINE
  5
158
100
AcDbEntity
  8
0
  6
CONTINUOUS
 62
    7
370
   -1
100
AcDbLine
 10
9.500001520000012
 20
-11.2928934395
 11
9.500001520000012
 21
-18.99999938899999
  0
ARC
  5
159
100
AcDbEntity
  8
0
  6
CONTINUOUS
 62
    7
370
   -1
100
AcDbCircle
 10
10.5
 20
-11.29289321880001
 40
1.000000000000001
100
AcDbArc
 50
135
 51
180
  0
LINE
  5
15A
100
AcDbEntity
  8
0
  6
CONTINUOUS
 62
    7
370
   -1
100
AcDbLine
 10
12.63210639359999
 20
-7.746573071900101
 11
9.792895019100001
 21
-10.58578677470001
  0
ARC
  5
15B
100
AcDbEntity
  8
0
  6
CONTINUOUS
 62
    7
370
   -1
100
AcDbCircle
 10
11.92500000000001
 20
-7.039466094100092
 40
0.9999999999999978
100
AcDbArc
 50
315
 51
0
  0
LINE
  5
15C
100
AcDbEntity
  8
0
  6
CONTINUOUS
 62
    7
370
   -1
100
AcDbLine
 10
12.92499989269998
 20
-7.039465941500097
 11
12.92499989269998
 21
7.039465941499898
  0
ARC
  5
15D
100
AcDbEntity
  8
0
  6
CONTINUOUS
 62
    7
370
   -1
100
AcDbCircle
 10
11.92500000000001
 20
7.039466094099893
 40
0.9999999999999879
100
AcDbArc
 50
0
 51
45
  0
LINE
  5
15E
100
AcDbEntity
  8
0
  6
CONTINUOUS
 62
    7
370
   -1
100
AcDbLine
 10
12.63210639359999
 20
7.746573071899902
 11
9.792895019100001
 21
10.5857867747999
  0
ARC
  5
15F
100
AcDbEntity
  8
0
  6
CONTINUOUS
 62
    7
370
   -1
100
AcDbCircle
 10
10.5
 20
11.29289321879999
 40
1
100
AcDbArc
 50
180
 51
225
  0
LINE
  5
160
100
AcDbEntity
  8
0
  6
CONTINUOUS
 62
    7
370
   -1
100
AcDbLine
 10
9.500001520000012
 20
11.29289343949988
 11
9.500001520000012
 21
18.99999938909998
  0
ARC
  5
161
100
AcDbEntity
  8
0
  6
CONTINUOUS
 62
    7
370
   -1
100
AcDbCircle
 10
8.5
 20
18.99999999999998
 40
1
100
AcDbArc
 50
0
 51
90
  0
ARC
  5
162
100
AcDbEntity
  8
0
  6
CONTINUOUS
 62
    7
370
   -1
100
AcDbCircle
 10
-8.5
 20
18.99999999999998
 40
1
100
AcDbArc
 50
90
 51
180
  0
ARC
  5
163
100
AcDbEntity
  8
0
  6
CONTINUOUS
 62
    7
370
   -1
100
AcDbCircle
 10
-10.5
 20
11.29289321879999
 40
1.000000000000007
100
AcDbArc
 50
315
 51
0
  0
ARC
  5
164
100
AcDbEntity
  8
0
  6
CONTINUOUS
 62
    7
370
   -1
100
AcDbCircle
 10
-11.92499999999998
 20
7.039466094099893
 40
1
100
AcDbArc
 50
135
 51
180
  0
ARC
  5
165
100
AcDbEntity
  8
0
  6
CONTINUOUS
 62
    7
370
   -1
100
AcDbCircle
 10
-11.92499999999998
 20
-7.03946609400009
 40
1
100
AcDbArc
 50
180
 51
225
  0
ARC
  5
166
100
AcDbEntity
  8
0
  6
CONTINUOUS
 62
    7
370
   -1
100
AcDbCircle
 10
-41.99999999999998
 20
-4.5
 40
1.000000000000001
100
AcDbArc
 50
217.9798724449008
 51
322.0201275550991
  0
ARC
  5
167
100
AcDbEntity
  8
0
  6
CONTINUOUS
 62
    7
370
   -1
100
AcDbCircle
 10
-41.99999999999998
 20
4.5
 40
1.000000000000011
100
AcDbArc
 50
37.97987244490083
 51
142.0201275550992
  0
LINE
  5
168
100
AcDbEntity
  8
0
  6
CONTINUOUS
 62
    7
370
   -1
100
AcDbLine
 10
-40.97530528900001
 20
4.999999888299896
 11
-39.29999940089999
 21
4.999999888299896
  0
LINE
  5
169
100
AcDbEntity
  8
0
  6
CONTINUOUS
 62
    7
370
   -1
100
AcDbLine
 10
-38.9999999106001
 20
5.299999844300003
 11
-38.9999999106001
 21
9.99999977649999
  0
LINE
  5
16A
100
AcDbEntity
  8
0
  6
CONTINUOUS
 62
    7
370
   -1
100
AcDbLine
 10
-38.9999999106001
 20
9.99999977649999
 11
-34.6213207021
 21
9.99999977649999
  0
LINE
  5
16B
100
AcDbEntity
  8
0
  6
CONTINUOUS
 62
    7
370
   -1
100
AcDbLine
 10
-34.6213207021
 20
9.99999977649999
 11
-31.99999969449999
 21
7.378679700199896
  0
LINE
  5
16C
100
AcDbEntity
  8
0
  6
CONTINUOUS
 62
    7
370
   -1
100
AcDbLine
 10
-31.99999969449999
 20
7.378679700199896
 11
-31.99999969449999
 21
1.346962881963307
  0
ARC
  5
16D
100
AcDbEntity
  8
0
  6
CONTINUOUS
 62
    7
370
   -1
100
AcDbCircle
 10
-31.49999999999999
 20
1.346410161499989
 40
0.5000000000000041
100
AcDbArc
 50
179.936662888257
 51
209.9999999999997
  0
LINE
  5
16E
100
AcDbEntity
  8
0
  6
CONTINUOUS
 62
    7
370
   -1
100
AcDbLine
 10
-31.9330124557001
 20
1.09641021119998
 11
-31.2999999523001
 21
0
  0
ARC
  5
16F
100
AcDbEntity
  8
0
  6
CONTINUOUS
 62
    7
370
   -1
100
AcDbCircle
 10
-22.49999999999999
 20
0
 40
6.250000000000002
100
AcDbArc
 50
163.9866055761002
 51
196.0133944238998
  0
LINE
  5
170
100
AcDbEntity
  8
0
  6
CONTINUOUS
 62
    7
370
   -1
100
AcDbLine
 10
-29.4686798378
 20
3.000000026099883
 11
-29.8000001721
 21
3.000000026099883
  0
LINE
  5
171
100
AcDbEntity
  8
0
  6
CONTINUOUS
 62
    7
370
   -1
100
AcDbLine
 10
-30.29999978839999
 20
3.500000108099897
 11
-30.29999978839999
 21
7.300000172099984
  0
LINE
  5
172
100
AcDbEntity
  8
0
  6
CONTINUOUS
 62
    7
370
   -1
100
AcDbLine
 10
-29.8000001721
 20
7.7999997884
 11
-26.000000108
 21
7.7999997884
  0
LINE
  5
173
100
AcDbEntity
  8
0
  6
CONTINUOUS
 62
    7
370
   -1
100
AcDbLine
 10
-25.50000002600008
 20
7.300000172099984
 11
-25.50000002600008
 21
6.968679837899983
  0
ARC
  5
174
100
AcDbEntity
  8
0
  6
CONTINUOUS
 62
    7
370
   -1
100
AcDbCircle
 10
-22.49999999999999
 20
0
 40
6.250000000000002
100
AcDbArc
 50
73.98660557610019
 51
106.0133944238998
  0
LINE
  5
175
100
AcDbEntity
  8
0
  6
CONTINUOUS
 62
    7
370
   -1
100
AcDbLine
 10
-19.4999999739
 20
6.968679837899983
 11
-19.4999999739
 21
7.300000172099984
  0
LINE
  5
176
100
AcDbEntity
  8
0
  6
CONTINUOUS
 62
    7
370
   -1
100
AcDbLine
 10
-18.99999989189999
 20
7.7999997884
 11
-14.92499996720008
 21
7.7999997884
  0
LINE
  5
177
100
AcDbEntity
  8
0
  6
CONTINUOUS
 62
    7
370
   -1
100
AcDbLine
 10
-14.92499996720008
 20
3.000000026099883
 11
-15.5313201621
 21
3.000000026099883
  0
ARC
  5
178
100
AcDbEntity
  8
0
  6
CONTINUOUS
 62
    7
370
   -1
100
AcDbCircle
 10
-22.49999999999999
 20
0
 40
6.250000000000002
100
AcDbArc
 50
343.9866055761002
 51
16.01339442389981
  0
LINE
  5
179
100
AcDbEntity
  8
0
  6
CONTINUOUS
 62
    7
370
   -1
100
AcDbLine
 10
-12.92499996719999
 20
-7.039465941500097
 11
-12.92499996719999
 21
7.039465941499898
  0
LINE
  5
17A
100
AcDbEntity
  8
0
  6
CONTINUOUS
 62
    7
370
   -1
100
AcDbLine
 10
-14.42499996719999
 20
-7.2999997884001
 11
-14.42499996720008
 21
-3.50000002610011
  0
ARC
  5
17B
100
AcDbEntity
  8
0
  6
CONTINUOUS
 62
    7
370
   -1
100
AcDbCircle
 10
-14.92499996720008
 20
-3.50000002610011
 40
0.5
100
AcDbArc
 50
0
 51
89.99999999999837
  0
LINE
  5
17C
100
AcDbEntity
  8
0
  6
CONTINUOUS
 62
    7
370
   -1
100
AcDbLine
 10
-14.42499996720008
 20
3.500000026099982
 11
-14.42499996720008
 21
7.2999997884
  0
ARC
  5
17D
100
AcDbEntity
  8
0
  6
CONTINUOUS
 62
    7
370
   -1
100
AcDbCircle
 10
-14.92499996720008
 20
3.500000026099982
 40
0.5
100
AcDbArc
 50
270
 51
0
  0
ARC
  5
17E
100
AcDbEntity
  8
0
  6
CONTINUOUS
 62
    7
370
   -1
100
AcDbCircle
 10
-14.92499996720008
 20
7.2999997884
 40
0.5
100
AcDbArc
 50
0
 51
90
  0
LINE
  5
17F
100
AcDbEntity
  8
0
  6
CONTINUOUS
 62
    7
370
   -1
100
AcDbLine
 10
-12.6321064680001
 20
7.746573071899902
 11
-9.792893230899978
 21
10.5857867747999
  0
LINE
  5
180
100
AcDbEntity
  8
0
  6
CONTINUOUS
 62
    7
370
   -1
100
AcDbLine
 10
-9.499999731699999
 20
11.29289343949988
 11
-9.499999731699999
 21
18.99999938909998
  0
LINE
  5
181
100
AcDbEntity
  8
0
  6
CONTINUOUS
 62
    7
370
   -1
100
AcDbLine
 10
-8.499999567799989
 20
19.99999955299988
 11
8.49999949339991
 21
19.99999955299988
  0
LINE
  5
182
100
AcDbEntity
  8
0
  6
CONTINUOUS
 62
    7
370
   -1
100
AcDbLine
 10
17.20000147820002
 20
22.50000089409998
 11
-17.20000015570017
 21
22.50000089409998
  0
LINE
  5
183
100
AcDbEntity
  8
0
  6
CONTINUOUS
 62
    7
370
   -1
100
AcDbLine
 10
-17.50000011169999
 20
22.19999954109999
 11
-17.50000011169999
 21
20.5246955155999
  0
ARC
  5
184
100
AcDbEntity
  8
0
  6
CONTINUOUS
 62
    7
370
   -1
100
AcDbCircle
 10
-18
 20
19.49999999999998
 40
1.000000000000001
100
AcDbArc
 50
307.9798724448996
 51
52.02012755510033
  0
LINE
  5
185
100
AcDbEntity
  8
0
  6
CONTINUOUS
 62
    7
370
   -1
100
AcDbLine
 10
-17.50000011169999
 20
18.4753052889999
 11
-17.50000011169999
 21
16.79999940099999
  0
LINE
  5
186
100
AcDbEntity
  8
0
  6
CONTINUOUS
 62
    7
370
   -1
100
AcDbLine
 10
-17.20000015570017
 20
16.49999991059998
 11
-12.50000022349999
 21
16.49999991059998
  0
LINE
  5
187
100
AcDbEntity
  8
0
  6
CONTINUOUS
 62
    7
370
   -1
100
AcDbLine
 10
-12.50000022349999
 20
16.49999991059998
 11
-12.50000022349999
 21
12.12132070219989
  0
LINE
  5
188
100
AcDbEntity
  8
0
  6
CONTINUOUS
 62
    7
370
   -1
100
AcDbLine
 10
-12.50000022349999
 20
12.12132070219989
 11
-15.1213202998
 21
9.499999694499891
  0
LINE
  5
189
100
AcDbEntity
  8
0
  6
CONTINUOUS
 62
    7
370
   -1
100
AcDbLine
 10
-15.1213202998
 20
9.499999694499891
 11
-21.15303711795889
 21
9.499999694499891
  0
ARC
  5
18A
100
AcDbEntity
  8
0
  6
CONTINUOUS
 62
    7
370
   -1
100
AcDbCircle
 10
-21.15358983850008
 20
8.999999999999986
 40
0.5000000000000041
100
AcDbArc
 50
89.93666287604368
 51
120.0000000000001
  0
LINE
  5
18B
100
AcDbEntity
  8
0
  6
CONTINUOUS
 62
    7
370
   -1
100
AcDbLine
 10
-21.40358978880009
 20
9.43301245569991
 11
-22.49999999999999
 21
8.799999952299984
  0
LINE
  5
18C
100
AcDbEntity
  8
0
  6
CONTINUOUS
 62
    7
370
   -1
100
AcDbLine
 10
-22.49999999999999
 20
8.799999952299984
 11
-23.59641021110009
 21
9.43301245569991
  0
ARC
  5
18D
100
AcDbEntity
  8
0
  6
CONTINUOUS
 62
    7
370
   -1
100
AcDbCircle
 10
-23.8464101615
 20
8.999999999999986
 40
0.5000000000000041
100
AcDbArc
 50
59.99999999999986
 51
120.0000000000001
  0
LINE
  5
18E
100
AcDbEntity
  8
0
  6
CONTINUOUS
 62
    7
370
   -1
100
AcDbLine
 10
-24.09641017669999
 20
9.43301245569991
 11
-24.41515509499999
 21
9.248984977599903
  0
LINE
  5
18F
100
AcDbEntity
  8
0
  6
CONTINUOUS
 62
    7
370
   -1
100
AcDbLine
 10
-24.41515509499999
 20
9.248984977599903
 11
-26.000000108
 21
9.499999694499891
  0
LINE
  5
190
100
AcDbEntity
  8
0
  6
CONTINUOUS
 62
    7
370
   -1
100
AcDbLine
 10
-26.000000108
 20
9.499999694499891
 11
-29.87867970020008
 21
9.499999694499891
  0
LINE
  5
191
100
AcDbEntity
  8
0
  6
CONTINUOUS
 62
    7
370
   -1
100
AcDbLine
 10
-29.87867970020008
 20
9.499999694499891
 11
-32.4999997764
 21
12.12132070219989
  0
LINE
  5
192
100
AcDbEntity
  8
0
  6
CONTINUOUS
 62
    7
370
   -1
100
AcDbLine
 10
-32.4999997764
 20
12.12132070219989
 11
-32.4999997764
 21
16.49999991059998
  0
LINE
  5
193
100
AcDbEntity
  8
0
  6
CONTINUOUS
 62
    7
370
   -1
100
AcDbLine
 10
-32.4999997764
 20
16.49999991059998
 11
-27.79999984419999
 21
16.49999991059998
  0
LINE
  5
194
100
AcDbEntity
  8
0
  6
CONTINUOUS
 62
    7
370
   -1
100
AcDbLine
 10
-27.49999988820001
 20
16.79999940099999
 11
-27.49999988820001
 21
18.4753052889999
  0
ARC
  5
195
100
AcDbEntity
  8
0
  6
CONTINUOUS
 62
    7
370
   -1
100
AcDbCircle
 10
-26.99999999999999
 20
19.49999999999998
 40
1.000000000000011
100
AcDbArc
 50
127.9798724448997
 51
232.0201275551003
  0
LINE
  5
196
100
AcDbEntity
  8
0
  6
CONTINUOUS
 62
    7
370
   -1
100
AcDbLine
 10
-27.49999988820001
 20
20.5246955155999
 11
-27.49999988820001
 21
22.19999954109999
  0
LINE
  5
197
100
AcDbEntity
  8
0
  6
CONTINUOUS
 62
    7
370
   -1
100
AcDbLine
 10
-27.79999984419999
 20
22.50000089409998
 11
-42.0000004023
 21
22.50000089409998
  0
LINE
  5
198
100
AcDbEntity
  8
0
  6
CONTINUOUS
 62
    7
370
   -1
100
AcDbLine
 10
-45.00000089399999
 20
19.50000040229999
 11
-45.00000089399999
 21
5.299999844300003
  0
LINE
  5
199
100
AcDbEntity
  8
0
  6
CONTINUOUS
 62
    7
370
   -1
100
AcDbLine
 10
-44.69999954099999
 20
4.999999888299896
 11
-43.0246955156
 21
4.999999888299896
  0
LINE
  5
19A
100
AcDbEntity
  8
0
  6
CONTINUOUS
 62
    7
370
   -1
100
AcDbLine
 10
-7.499999567799989
 20
-19.9999995529
 11
-5.961436190443492
 21
-19.9999995529
  0
LINE
  5
19B
100
AcDbEntity
  8
0
  6
CONTINUOUS
 62
    7
370
   -1
100
AcDbLine
 10
-7.499999567799989
 20
-22.5000008941
 11
-5.961436190443492
 21
-22.5000008941
  0
LINE
  5
19C
100
AcDbEntity
  8
0
  6
CONTINUOUS
 62
    7
370
   -1
100
AcDbLine
 10
18.99999989189999
 20
-7.7999997884001
 11
14.92499996719999
 21
-7.7999997884001
  0
ARC
  5
19D
100
AcDbEntity
  8
0
  6
CONTINUOUS
 62
    7
370
   -1
100
AcDbCircle
 10
14.92499996719999
 20
-7.2999997884001
 40
0.5
100
AcDbArc
 50
179.9999999999992
 51
270
  0
LINE
  5
19E
100
AcDbEntity
  8
0
  6
CONTINUOUS
 62
    7
370
   -1
100
AcDbLine
 10
14.92499996719999
 20
-3.00000002610011
 11
15.5313201621
 21
-3.000000026100011
  0
LINE
  5
19F
100
AcDbEntity
  8
0
  6
CONTINUOUS
 62
    7
370
   -1
100
AcDbLine
 10
18.99999989189999
 20
7.7999997884
 11
14.92499996719999
 21
7.7999997884
  0
LINE
  5
1A0
100
AcDbEntity
  8
0
  6
CONTINUOUS
 62
    7
370
   -1
100
AcDbLine
 10
14.92499996719999
 20
3.000000026099883
 11
15.5313201621
 21
3.000000026099883
  0
LINE
  5
1A1
100
AcDbEntity
  8
0
  6
CONTINUOUS
 62
    7
370
   -1
100
AcDbLine
 10
14.42499996719999
 20
-7.2999997884001
 11
14.42499996719999
 21
-3.50000002610011
  0
ARC
  5
1A2
100
AcDbEntity
  8
0
  6
CONTINUOUS
 62
    7
370
   -1
100
AcDbCircle
 10
14.92499996719999
 20
-3.50000002610011
 40
0.5
100
AcDbArc
 50
90.00000000000323
 51
179.9999999999992
  0
LINE
  5
1A3
100
AcDbEntity
  8
0
  6
CONTINUOUS
 62
    7
370
   -1
100
AcDbLine
 10
14.42499996719999
 20
3.500000026099982
 11
14.42499996719999
 21
7.2999997884
  0
ARC
  5
1A4
100
AcDbEntity
  8
0
  6
CONTINUOUS
 62
    7
370
   -1
100
AcDbCircle
 10
14.92499996719999
 20
3.500000026099982
 40
0.5
100
AcDbArc
 50
179.9999999999992
 51
270
  0
ARC
  5
1A5
100
AcDbEntity
  8
0
  6
CONTINUOUS
 62
    7
370
   -1
100
AcDbCircle
 10
14.92499996719999
 20
7.2999997884
 40
0.5
100
AcDbArc
 50
90
 51
180
  0
LINE
  5
1A6
100
AcDbEntity
  8
CENTER
  6
CENTER
 62
    1
370
   -1
100
AcDbLine
 10
22.5
 20
24.50000089410006
 11
22.5
 21
-24.50000089399991
  0
LINE
  5
1A7
100
AcDbEntity
  8
CENTER
  6
CENTER
 62
    1
370
   -1
100
AcDbLine
 10
-22.49999999999999
 20
24.50000089410006
 11
-22.49999999999999
 21
-24.50000089399991
  0
LINE
  5
1A8
100
AcDbEntity
  8
CENTER
  6
CENTER
 62
    1
370
   -1
100
AcDbLine
 10
47.0000026822
 20
0
 11
-46.99999999999998
 21
0
  0
CIRCLE
  5
1A9
100
AcDbEntity
  8
0
  6
CONTINUOUS
 62
    3
370
   -1
100
AcDbCircle
 10
-22.49999999999996
 20
1.433e-13
 40
6.25
  0
CIRCLE
  5
1AA
100
AcDbEntity
  8
0
  6
CONTINUOUS
 62
    3
370
   -1
100
AcDbCircle
 10
22.50000000000003
 20
1.433e-13
 40
6.25
  0
ENDSEC
  0
SECTION
  2
OBJECTS
  0
DICTIONARY
  5
C
330
0
100
AcDbDictionary
281
    1
  3
ACAD_GROUP
350
D
  0
DICTIONARY
  5
D
330
C
100
AcDbDictionary
281
    1
  0
PLOTSETTINGS
  5
1AB
100
AcDbPlotSettings
  6
1x1
 40
0
 41
0
 42
0
 43
0
  0
ENDSEC
  0
EOF
