  0
SECTION
  2
HEADER
  9
$ACADVER
  1
AC1009
  9
$INSBASE
 10
0.0
 20
0.0
 30
0.0
  9
$EXTMIN
 10
-67.822592193274659
 20
-79.412515503015328
 30
0.0
  9
$EXTMAX
 10
183.1879030858631
 20
72.534943579737273
 30
0.0
  9
$LIMMIN
 10
0.0
 20
0.0
  9
$LIMMAX
 10
420.0
 20
297.0
  9
$ORTHOMODE
 70
     0
  9
$REGENMODE
 70
     1
  9
$FILLMODE
 70
     1
  9
$QTEXTMODE
 70
     0
  9
$MIRRTEXT
 70
     0
  9
$DRAGMODE
 70
     2
  9
$LTSCALE
 40
1.0
  9
$OSMODE
 70
  2109
  9
$ATTMODE
 70
     1
  9
$TEXTSIZE
 40
3.0
  9
$TRACEWID
 40
1.0
  9
$TEXTSTYLE
  7
STANDARD
  9
$CLAYER
  8
0
  9
$CELTYPE
  6
CONTINUOUS
  9
$CECOLOR
 62
     7
  9
$DIMSCALE
 40
1.0
  9
$DIMASZ
 40
2.5
  9
$DIMEXO
 40
0.625
  9
$DIMDLI
 40
3.75
  9
$DIMRND
 40
0.0
  9
$DIMDLE
 40
0.0
  9
$DIMEXE
 40
1.25
  9
$DIMTP
 40
0.0
  9
$DIMTM
 40
0.0
  9
$DIMTXT
 40
2.5
  9
$DIMCEN
 40
2.5
  9
$DIMTSZ
 40
0.0
  9
$DIMTOL
 70
     0
  9
$DIMLIM
 70
     0
  9
$DIMTIH
 70
     0
  9
$DIMTOH
 70
     0
  9
$DIMSE1
 70
     0
  9
$DIMSE2
 70
     0
  9
$DIMTAD
 70
     1
  9
$DIMZIN
 70
     8
  9
$DIMBLK
  1
OPEN30
  9
$DIMASO
 70
     1
  9
$DIMSHO
 70
     1
  9
$DIMPOST
  1

  9
$DIMAPOST
  1

  9
$DIMALT
 70
     0
  9
$DIMALTD
 70
     3
  9
$DIMALTF
 40
0.03937007874016
  9
$DIMLFAC
 40
1.0
  9
$DIMTOFL
 70
     1
  9
$DIMTVP
 40
0.0
  9
$DIMTIX
 70
     0
  9
$DIMSOXD
 70
     0
  9
$DIMSAH
 70
     0
  9
$DIMBLK1
  1

  9
$DIMBLK2
  1

  9
$DIMSTYLE
  2
MISUMI
  9
$DIMCLRD
 70
   137
  9
$DIMCLRE
 70
   137
  9
$DIMCLRT
 70
   137
  9
$DIMTFAC
 40
1.0
  9
$DIMGAP
 40
0.625
  9
$LUNITS
 70
     2
  9
$LUPREC
 70
     2
  9
$SKETCHINC
 40
1.0
  9
$FILLETRAD
 40
0.0
  9
$AUNITS
 70
     0
  9
$AUPREC
 70
     0
  9
$MENU
  1
.
  9
$ELEVATION
 40
0.0
  9
$PELEVATION
 40
0.0
  9
$THICKNESS
 40
0.0
  9
$LIMCHECK
 70
     0
  9
$BLIPMODE
 70
     0
  9
$CHAMFERA
 40
0.5
  9
$CHAMFERB
 40
0.5
  9
$SKPOLY
 70
     0
  9
$TDCREATE
 40
2455135.5720697111
  9
$TDUPDATE
 40
2455656.6082665971
  9
$TDINDWG
 40
0.0937109838
  9
$TDUSRTIMER
 40
0.0937107986
  9
$USRTIMER
 70
     1
  9
$ANGBASE
 50
0.0
  9
$ANGDIR
 70
     0
  9
$PDMODE
 70
    35
  9
$PDSIZE
 40
0.0
  9
$PLINEWID
 40
0.0
  9
$COORDS
 70
     1
  9
$SPLFRAME
 70
     0
  9
$SPLINETYPE
 70
     6
  9
$SPLINESEGS
 70
     8
  9
$ATTDIA
 70
     0
  9
$ATTREQ
 70
     1
  9
$HANDLING
 70
     1
  9
$HANDSEED
  5
2164
  9
$SURFTAB1
 70
     6
  9
$SURFTAB2
 70
     6
  9
$SURFTYPE
 70
     6
  9
$SURFU
 70
     6
  9
$SURFV
 70
     6
  9
$UCSNAME
  2

  9
$UCSORG
 10
0.0
 20
0.0
 30
0.0
  9
$UCSXDIR
 10
1.0
 20
0.0
 30
0.0
  9
$UCSYDIR
 10
0.0
 20
1.0
 30
0.0
  9
$PUCSNAME
  2

  9
$PUCSORG
 10
0.0
 20
0.0
 30
0.0
  9
$PUCSXDIR
 10
1.0
 20
0.0
 30
0.0
  9
$PUCSYDIR
 10
0.0
 20
1.0
 30
0.0
  9
$USERI1
 70
     0
  9
$USERI2
 70
     0
  9
$USERI3
 70
     0
  9
$USERI4
 70
     0
  9
$USERI5
 70
     0
  9
$USERR1
 40
0.0
  9
$USERR2
 40
0.0
  9
$USERR3
 40
0.0
  9
$USERR4
 40
0.0
  9
$USERR5
 40
0.0
  9
$WORLDVIEW
 70
     1
  9
$SHADEDGE
 70
     3
  9
$SHADEDIF
 70
    70
  9
$TILEMODE
 70
     1
  9
$MAXACTVP
 70
    64
  9
$PLIMCHECK
 70
     0
  9
$PEXTMIN
 10
0.0
 20
0.0
 30
0.0
  9
$PEXTMAX
 10
0.0
 20
0.0
 30
0.0
  9
$PLIMMIN
 10
0.0
 20
0.0
  9
$PLIMMAX
 10
12.0
 20
9.0
  9
$UNITMODE
 70
     0
  9
$VISRETAIN
 70
     1
  9
$PLINEGEN
 70
     0
  9
$PSLTSCALE
 70
     1
  0
ENDSEC
  0
SECTION
  2
TABLES
  0
TABLE
  2
VPORT
 70
     1
  0
VPORT
  2
*ACTIVE
 70
     0
 10
0.0
 20
0.0
 11
1.0
 21
1.0
 12
70.769212577839653
 22
26.81428978195337
 13
0.0
 23
0.0
 14
10.0
 24
10.0
 15
10.0
 25
10.0
 16
0.0
 26
0.0
 36
1.0
 17
0.0
 27
0.0
 37
0.0
 40
391.0581074061472
 41
1.0918367346938771
 42
50.0
 43
0.0
 44
0.0
 50
0.0
 51
0.0
 71
     0
 72
  1000
 73
     1
 74
     3
 75
     0
 76
     0
 77
     0
 78
     0
  0
ENDTAB
  0
TABLE
  2
LTYPE
 70
     4
  0
LTYPE
  2
CONTINUOUS
 70
     0
  3
Solid line
 72
    65
 73
     0
 40
0.0
  0
LTYPE
  2
CENTER
 70
     0
  3
Center ____ _ ____ _ ____ _ ____ _ ____ _ ____
 72
    65
 73
     4
 40
50.799999999999997
 49
31.75
 49
-6.3499999999999988
 49
6.3499999999999988
 49
-6.3499999999999988
  0
LTYPE
  2
DASHED
 70
     0
  3
Dashed __ __ __ __ __ __ __ __ __ __ __ __ __ _
 72
    65
 73
     2
 40
19.050000000000001
 49
12.699999999999999
 49
-6.3499999999999988
  0
LTYPE
  2
PHANTOM
 70
     0
  3
Phantom ______  __  __  ______  __  __  ______
 72
    65
 73
     6
 40
63.5
 49
31.75
 49
-6.3499999999999988
 49
6.3499999999999988
 49
-6.3499999999999988
 49
6.3499999999999988
 49
-6.3499999999999988
  0
ENDTAB
  0
TABLE
  2
LAYER
 70
     3
  0
LAYER
  2
0
 70
     0
 62
     7
  6
CONTINUOUS
  0
LAYER
  2
CENTER
 70
     0
 62
     1
  6
CENTER
  0
LAYER
  2
DEFPOINTS
 70
     0
 62
     7
  6
CONTINUOUS
  0
ENDTAB
  0
TABLE
  2
STYLE
 70
     1
  0
STYLE
  2
STANDARD
 70
     0
 40
3.0
 41
1.0
 50
0.0
 71
     0
 42
3.0
  3
txt.shx
  4
bigfont.shx
  0
ENDTAB
  0
TABLE
  2
VIEW
 70
     0
  0
ENDTAB
  0
TABLE
  2
UCS
 70
     0
  0
ENDTAB
  0
TABLE
  2
APPID
 70
     8
  0
APPID
  2
ACAD
 70
     0
  0
APPID
  2
ACAD_MLEADERVER
 70
     0
  0
APPID
  2
ACAD_PSEXT
 70
     0
  0
APPID
  2
ACAD_DSTYLE_DIMRADIAL_EXTENSION
 70
     0
  0
APPID
  2
ACAD_EXEMPT_FROM_CAD_STANDARDS
 70
     0
  0
APPID
  2
GRADIENTCOLOR1ACI
 70
     0
  0
APPID
  2
GRADIENTCOLOR2ACI
 70
     0
  0
APPID
  2
ACAECLAYERSTANDARD
 70
     0
  0
ENDTAB
  0
TABLE
  2
DIMSTYLE
 70
     1
  0
DIMSTYLE
  2
MISUMI
 70
     0
  3

  4

  5
OPEN30
  6

  7

 40
1.0
 41
2.5
 42
0.625
 43
3.75
 44
1.25
 45
0.0
 46
0.0
 47
0.0
 48
0.0
140
2.5
141
2.5
142
0.0
143
0.03937007874016
144
1.0
145
0.0
146
1.0
147
0.625
 71
     0
 72
     0
 73
     0
 74
     0
 75
     0
 76
     0
 77
     1
 78
     8
170
     0
171
     3
172
     1
173
     0
174
     0
175
     0
176
   137
177
   137
178
   137
  0
ENDTAB
  0
ENDSEC
  0
SECTION
  2
BLOCKS
  0
BLOCK
  8
0
  2
$MODEL_SPACE
 70
     0
 10
0.0
 20
0.0
 30
0.0
  3
$MODEL_SPACE
  1

  0
ENDBLK
  5
21
  8
0
  0
BLOCK
 67
     1
  8
0
  2
$PAPER_SPACE
 70
     0
 10
0.0
 20
0.0
 30
0.0
  3
$PAPER_SPACE
  1

  0
ENDBLK
  5
53
 67
     1
  8
0
  0
BLOCK
  8
0
 62
     7
  2
_OPEN30
 70
     0
 10
0.0
 20
0.0
 30
0.0
  3
_OPEN30
  1

  0
LINE
  5
D7
  8
0
  6
BYBLOCK
 62
     0
 10
-1.0
 20
0.26794919
 30
0.0
 11
0.0
 21
0.0
 31
0.0
  0
LINE
  5
D8
  8
0
  6
BYBLOCK
 62
     0
 10
0.0
 20
0.0
 30
0.0
 11
-1.0
 21
-0.26794919
 31
0.0
  0
LINE
  5
D9
  8
0
  6
BYBLOCK
 62
     0
 10
0.0
 20
0.0
 30
0.0
 11
-1.0
 21
0.0
 31
0.0
  0
ENDBLK
  5
DB
  8
0
 62
     7
  0
BLOCK
  8
0
 62
     7
  2
*U23
 70
     1
 10
0.0
 20
0.0
 30
0.0
  3
*U23
  1

  0
TEXT
  5
215D
  8
0
  6
CONTINUOUS
 62
     7
 10
-40.0
 20
-74.555949295198673
 30
0.0
 40
3.0
  1
NEFS8-8080-50
  0
ENDBLK
  5
215F
  8
0
 62
     7
  0
BLOCK
  8
0
 62
     7
  2
*U24
 70
     1
 10
0.0
 20
0.0
 30
0.0
  3
*U24
  1

  0
TEXT
  5
2161
  8
0
  6
CONTINUOUS
 62
     7
 10
-40.0
 20
-79.412515503015328
 30
0.0
 40
3.0
  1
NEFS8-8080
  0
ENDBLK
  5
2163
  8
0
 62
     7
  0
ENDSEC
  0
SECTION
  2
ENTITIES
  0
LINE
  5
1A95
  8
CENTER
  6
CENTER
 62
     1
 10
0.0
 20
-42.000000498764287
 30
0.0
 11
0.0
 21
41.999999501235678
 31
0.0
  0
LINE
  5
1A98
  8
CENTER
  6
CENTER
 62
     1
 10
-42.0
 20
19.999999501235681
 30
0.0
 11
-12.003695469936609
 21
19.999999501235681
 31
0.0
  0
LINE
  5
1A99
  8
CENTER
  6
CENTER
 62
     1
 10
-20.0
 20
12.00369497117228
 30
0.0
 11
-20.0
 21
41.999999501235678
 31
0.0
  0
LINE
  5
1A9A
  8
CENTER
  6
CENTER
 62
     1
 10
-42.0
 20
-0.0000004987643223
 30
0.0
 11
41.999999999999972
 21
-0.0000004987643223
 31
0.0
  0
LINE
  5
1A9C
  8
CENTER
  6
CENTER
 62
     1
 10
41.999999999999972
 20
19.999999501235681
 30
0.0
 11
12.003695469936609
 21
19.999999501235681
 31
0.0
  0
LINE
  5
1A9D
  8
CENTER
  6
CENTER
 62
     1
 10
19.999999999999972
 20
12.00369503802696
 30
0.0
 11
19.999999999999972
 21
41.999999501235678
 31
0.0
  0
LINE
  5
1A9F
  8
CENTER
  6
CENTER
 62
     1
 10
41.999999999999972
 20
-20.000000498764319
 30
0.0
 11
12.003695469936609
 21
-20.000000498764329
 31
0.0
  0
LINE
  5
1AA0
  8
CENTER
  6
CENTER
 62
     1
 10
19.999999999999972
 20
-12.00369603555559
 30
0.0
 11
19.999999999999972
 21
-42.000000498764322
 31
0.0
  0
LINE
  5
1AA2
  8
CENTER
  6
CENTER
 62
     1
 10
-42.0
 20
-20.000000498764319
 30
0.0
 11
-12.003695469936609
 21
-20.000000498764319
 31
0.0
  0
LINE
  5
1AA3
  8
CENTER
  6
CENTER
 62
     1
 10
-20.0
 20
-12.003695968700921
 30
0.0
 11
-20.0
 21
-42.000000498764322
 31
0.0
  0
ARC
  5
1AA5
  8
0
  6
CONTINUOUS
 62
     7
 10
-20.0
 20
19.999999501235681
 30
0.0
 40
3.399999999999999
 50
1.0571960000000451
 51
93.957671999997856
  0
ARC
  5
1AA6
  8
0
  6
CONTINUOUS
 62
     7
 10
-15.30080000000001
 20
20.086716501235671
 30
0.0
 40
1.3
 50
181.057196
 51
1.0571960000000451
  0
ARC
  5
1AA7
  8
0
  6
CONTINUOUS
 62
     7
 10
-20.0
 20
19.999999501235681
 30
0.0
 40
3.399999999999999
 50
176.04232800000051
 51
268.94280399999832
  0
ARC
  5
1AA8
  8
0
  6
CONTINUOUS
 62
     7
 10
-20.086716999999989
 20
15.300799501235691
 30
0.0
 40
1.3
 50
268.94280399999832
 51
88.942803999998347
  0
ARC
  5
1AA9
  8
0
  6
CONTINUOUS
 62
     7
 10
-20.0
 20
19.999999501235681
 30
0.0
 40
6.0
 50
246.63833299999899
 51
268.94280399999832
  0
ARC
  5
1AAA
  8
0
  6
CONTINUOUS
 62
     7
 10
-20.0
 20
19.999999501235681
 30
0.0
 40
6.0
 50
1.0571960000000451
 51
23.361667000000271
  0
LINE
  5
1AAB
  8
0
  6
CONTINUOUS
 62
     7
 10
-14.69999999999999
 20
34.499999501235678
 30
0.0
 11
-10.0
 21
34.499999501235678
 31
0.0
  0
ARC
  5
1AAC
  8
0
  6
CONTINUOUS
 62
     7
 10
-14.69999999999999
 20
34.799999501235689
 30
0.0
 40
0.3
 50
180.0
 51
270.0
  0
LINE
  5
1AAD
  8
0
  6
CONTINUOUS
 62
     7
 10
-10.0
 20
31.767763501355649
 30
0.0
 11
-14.267796000000001
 21
27.499999501235681
 31
0.0
  0
LINE
  5
1AAE
  8
0
  6
CONTINUOUS
 62
     7
 10
-10.0
 20
34.499999501235678
 30
0.0
 11
-10.0
 21
31.767763501355649
 31
0.0
  0
LINE
  5
1AAF
  8
0
  6
CONTINUOUS
 62
     7
 10
-23.0
 20
27.499999501235681
 30
0.0
 11
-25.732240999999998
 21
27.499999501235681
 31
0.0
  0
LINE
  5
1AB0
  8
0
  6
CONTINUOUS
 62
     7
 10
-30.0
 20
31.767761501232151
 30
0.0
 11
-25.732240999999998
 21
27.499999501235681
 31
0.0
  0
LINE
  5
1AB1
  8
0
  6
CONTINUOUS
 62
     7
 10
-25.300000000000001
 20
34.499999501235678
 30
0.0
 11
-30.0
 21
34.499999501235678
 31
0.0
  0
ARC
  5
1AB2
  8
0
  6
CONTINUOUS
 62
     7
 10
-25.300000000000001
 20
34.799999501235689
 30
0.0
 40
0.3
 50
270.0
 51
0.0
  0
LINE
  5
1AB3
  8
0
  6
CONTINUOUS
 62
     7
 10
-30.0
 20
34.499999501235678
 30
0.0
 11
-30.0
 21
31.767761501232151
 31
0.0
  0
LINE
  5
1AB4
  8
0
  6
CONTINUOUS
 62
     7
 10
-19.59642199999999
 20
27.43301250123567
 30
0.0
 11
-20.000012000000002
 21
27.19999950123567
 31
0.0
  0
LINE
  5
1AB5
  8
0
  6
CONTINUOUS
 62
     7
 10
-20.000012000000002
 20
27.19999950123567
 30
0.0
 11
-20.40360200000001
 21
27.43301250123567
 31
0.0
  0
LINE
  5
1AB6
  8
0
  6
CONTINUOUS
 62
     7
 10
-19.34642199999999
 20
27.499999501235681
 30
0.0
 11
-14.267796000000009
 21
27.499999501235681
 31
0.0
  0
LINE
  5
1AB7
  8
0
  6
CONTINUOUS
 62
     7
 10
-34.5
 20
14.699999501235659
 30
0.0
 11
-34.5
 21
9.9999995012356777
 31
0.0
  0
ARC
  5
1AB8
  8
0
  6
CONTINUOUS
 62
     7
 10
-34.799999999999997
 20
14.699999501235659
 30
0.0
 40
0.3
 50
0.0
 51
90.0
  0
LINE
  5
1AB9
  8
0
  6
CONTINUOUS
 62
     7
 10
-31.767764000119978
 20
9.9999995012356777
 30
0.0
 11
-27.5
 21
14.26779550123568
 31
0.0
  0
LINE
  5
1ABA
  8
0
  6
CONTINUOUS
 62
     7
 10
-34.5
 20
9.9999995012356777
 30
0.0
 11
-31.767764000119978
 21
9.9999995012356777
 31
0.0
  0
LINE
  5
1ABB
  8
0
  6
CONTINUOUS
 62
     7
 10
-31.767761999996502
 20
29.999999501235671
 30
0.0
 11
-27.5
 21
25.732240501235669
 31
0.0
  0
LINE
  5
1ABC
  8
0
  6
CONTINUOUS
 62
     7
 10
-34.5
 20
25.299999501235689
 30
0.0
 11
-34.5
 21
29.999999501235681
 31
0.0
  0
ARC
  5
1ABD
  8
0
  6
CONTINUOUS
 62
     7
 10
-34.799999999999997
 20
25.299999501235689
 30
0.0
 40
0.3
 50
270.0
 51
0.0
  0
LINE
  5
1ABE
  8
0
  6
CONTINUOUS
 62
     7
 10
-34.5
 20
29.999999501235681
 30
0.0
 11
-31.767761999996502
 21
29.999999501235671
 31
0.0
  0
LINE
  5
1ABF
  8
0
  6
CONTINUOUS
 62
     7
 10
-37.0
 20
39.999999501235678
 30
0.0
 11
-25.300000000000001
 21
39.999999501235678
 31
0.0
  0
LINE
  5
1AC0
  8
0
  6
CONTINUOUS
 62
     7
 10
-25.0
 20
34.799999501235689
 30
0.0
 11
-25.0
 21
39.699999501235673
 31
0.0
  0
ARC
  5
1AC1
  8
0
  6
CONTINUOUS
 62
     7
 10
-25.300000000000001
 20
39.699999501235673
 30
0.0
 40
0.3
 50
0.0
 51
90.0
  0
LINE
  5
1AC2
  8
0
  6
CONTINUOUS
 62
     7
 10
-15.0
 20
39.699999501235673
 30
0.0
 11
-15.0
 21
34.799999501235689
 31
0.0
  0
ARC
  5
1AC3
  8
0
  6
CONTINUOUS
 62
     7
 10
-14.69999999999999
 20
39.699999501235673
 30
0.0
 40
0.3
 50
90.0
 51
180.0
  0
LINE
  5
1AC4
  8
0
  6
CONTINUOUS
 62
     7
 10
-34.799999999999997
 20
24.999999501235681
 30
0.0
 11
-39.700000000000003
 21
24.999999501235681
 31
0.0
  0
ARC
  5
1AC5
  8
0
  6
CONTINUOUS
 62
     7
 10
-39.700000000000003
 20
25.299999501235689
 30
0.0
 40
0.3
 50
180.0
 51
270.0
  0
LINE
  5
1AC6
  8
0
  6
CONTINUOUS
 62
     7
 10
-39.700000000000003
 20
14.999999501235679
 30
0.0
 11
-34.799999999999997
 21
14.999999501235679
 31
0.0
  0
ARC
  5
1AC7
  8
0
  6
CONTINUOUS
 62
     7
 10
-39.700000000000003
 20
14.699999501235659
 30
0.0
 40
0.3
 50
90.0
 51
180.0
  0
LINE
  5
1AC8
  8
0
  6
CONTINUOUS
 62
     7
 10
-40.0
 20
36.999999501235678
 30
0.0
 11
-40.0
 21
25.299999501235689
 31
0.0
  0
ARC
  5
1AC9
  8
0
  6
CONTINUOUS
 62
     7
 10
-37.0
 20
36.999999501235678
 30
0.0
 40
3.0
 50
90.0
 51
180.0
  0
LINE
  5
1ACA
  8
0
  6
CONTINUOUS
 62
     7
 10
-14.69999999999999
 20
39.999999501235678
 30
0.0
 11
0.0
 21
39.999999501235678
 31
0.0
  0
LINE
  5
1ACB
  8
0
  6
CONTINUOUS
 62
     7
 10
-40.0
 20
14.699999501235659
 30
0.0
 11
-40.0
 21
-0.0000004987643223
 31
0.0
  0
LINE
  5
1ACC
  8
0
  6
CONTINUOUS
 62
     7
 10
-7.6999999999999877
 20
31.370703501235671
 30
0.0
 11
-7.6999999999999877
 21
36.999999501235678
 31
0.0
  0
LINE
  5
1ACD
  8
0
  6
CONTINUOUS
 62
     7
 10
-31.370704000000011
 20
7.6999995012356663
 30
0.0
 11
-37.0
 21
7.6999995012356663
 31
0.0
  0
ARC
  5
1ACE
  8
0
  6
CONTINUOUS
 62
     7
 10
-20.65360200000001
 20
26.999999501235681
 30
0.0
 40
0.5
 50
59.999999999999858
 51
125.0000000000009
  0
ARC
  5
1ACF
  8
0
  6
CONTINUOUS
 62
     7
 10
-19.34642199999999
 20
26.999999501235681
 30
0.0
 40
0.5
 50
90.0
 51
120.0000000000001
  0
LINE
  5
1AD0
  8
0
  6
CONTINUOUS
 62
     7
 10
-20.940390000000011
 20
27.409575501235668
 30
0.0
 11
-21.686191000000012
 21
26.88736050123568
 31
0.0
  0
LINE
  5
1AD1
  8
0
  6
CONTINUOUS
 62
     7
 10
-21.686191000000012
 20
26.88736050123568
 30
0.0
 11
-23.0
 21
27.499999501235681
 31
0.0
  0
LINE
  5
1AD2
  8
0
  6
CONTINUOUS
 62
     7
 10
-27.5
 20
16.999999501235681
 30
0.0
 11
-27.5
 21
14.26779550123568
 31
0.0
  0
LINE
  5
1AD3
  8
0
  6
CONTINUOUS
 62
     7
 10
-27.433012000000009
 20
20.40357650123569
 30
0.0
 11
-27.20000000000001
 21
19.99998750123568
 31
0.0
  0
LINE
  5
1AD4
  8
0
  6
CONTINUOUS
 62
     7
 10
-27.20000000000001
 20
19.99998750123568
 30
0.0
 11
-27.433012000000009
 21
19.596397501235671
 31
0.0
  0
LINE
  5
1AD5
  8
0
  6
CONTINUOUS
 62
     7
 10
-27.5
 20
20.65357650123569
 30
0.0
 11
-27.5
 21
25.732240501235669
 31
0.0
  0
ARC
  5
1AD6
  8
0
  6
CONTINUOUS
 62
     7
 10
-27.0
 20
19.346397501235671
 30
0.0
 40
0.5
 50
150.0000000000002
 51
214.99999999999869
  0
ARC
  5
1AD7
  8
0
  6
CONTINUOUS
 62
     7
 10
-27.0
 20
20.65357650123569
 30
0.0
 40
0.5
 50
180.0
 51
209.99999999999969
  0
LINE
  5
1AD8
  8
0
  6
CONTINUOUS
 62
     7
 10
-27.409576000000001
 20
19.05960950123567
 30
0.0
 11
-26.887360999999999
 21
18.31380850123567
 31
0.0
  0
LINE
  5
1AD9
  8
0
  6
CONTINUOUS
 62
     7
 10
-26.887360999999999
 20
18.31380850123567
 30
0.0
 11
-27.5
 21
16.999999501235681
 31
0.0
  0
LINE
  5
1ADA
  8
0
  6
CONTINUOUS
 62
     7
 10
-37.5
 20
7.1999995012356663
 30
0.0
 11
-37.5
 21
-0.0000004987643223
 31
0.0
  0
ARC
  5
1ADB
  8
0
  6
CONTINUOUS
 62
     7
 10
-37.0
 20
7.1999995012356663
 30
0.0
 40
0.5
 50
90.0
 51
180.0
  0
LINE
  5
1ADC
  8
0
  6
CONTINUOUS
 62
     7
 10
-7.1999999999999877
 20
37.499999501235678
 30
0.0
 11
0.0
 21
37.499999501235678
 31
0.0
  0
ARC
  5
1ADD
  8
0
  6
CONTINUOUS
 62
     7
 10
-7.1999999999999877
 20
36.999999501235678
 30
0.0
 40
0.5
 50
90.0
 51
180.0
  0
LINE
  5
1ADE
  8
0
  6
CONTINUOUS
 62
     7
 10
-38.0
 20
31.999999501235681
 30
0.0
 11
-38.0
 21
32.363901501235667
 31
0.0
  0
LINE
  5
1ADF
  8
0
  6
CONTINUOUS
 62
     7
 10
-32.0
 20
38.000006501235688
 30
0.0
 11
-32.363898000000013
 21
38.000006501235688
 31
0.0
  0
LINE
  5
1AE0
  8
0
  6
CONTINUOUS
 62
     7
 10
-23.915772
 20
20.690455501235689
 30
0.0
 11
-23.721478999999992
 21
20.656196501235669
 31
0.0
  0
LINE
  5
1AE1
  8
0
  6
CONTINUOUS
 62
     7
 10
-20.690456000000012
 20
23.915771501235682
 30
0.0
 11
-20.656196999999992
 21
23.721478501235669
 31
0.0
  0
ARC
  5
1AE2
  8
0
  6
CONTINUOUS
 62
     7
 10
-23.790938000000011
 20
20.262273501235669
 30
0.0
 40
0.4
 50
356.04232800000051
 51
79.999999999998195
  0
ARC
  5
1AE3
  8
0
  6
CONTINUOUS
 62
     7
 10
-20.262273999999991
 20
23.790937501235689
 30
0.0
 40
0.4
 50
190.0000000000002
 51
273.9576719999979
  0
LINE
  5
1AE4
  8
0
  6
CONTINUOUS
 62
     7
 10
-31.5
 20
37.500006501235688
 30
0.0
 11
-31.5
 21
32.499999501235678
 31
0.0
  0
LINE
  5
1AE5
  8
0
  6
CONTINUOUS
 62
     7
 10
-37.5
 20
31.499999501235681
 30
0.0
 11
-32.5
 21
31.499999501235681
 31
0.0
  0
ARC
  5
1AE6
  8
0
  6
CONTINUOUS
 62
     7
 10
-32.5
 20
32.499999501235678
 30
0.0
 40
1.0
 50
270.0
 51
0.0
  0
ARC
  5
1AE7
  8
0
  6
CONTINUOUS
 62
     7
 10
-20.0
 20
19.999999501235681
 30
0.0
 40
5.0999999999999979
 50
114.1169800000005
 51
155.8830199999995
  0
ARC
  5
1AE8
  8
0
  6
CONTINUOUS
 62
     7
 10
-21.675263999999999
 20
23.742123501235671
 30
0.0
 40
1.0
 50
10.00000000000021
 51
114.1169800000005
  0
ARC
  5
1AE9
  8
0
  6
CONTINUOUS
 62
     7
 10
-23.74212399999999
 20
21.675263501235669
 30
0.0
 40
1.0
 50
155.8830199999995
 51
259.99999999999818
  0
LINE
  5
1AEA
  8
0
  6
CONTINUOUS
 62
     7
 10
-24.586489
 20
14.070046501235661
 30
0.0
 11
-30.663595000000001
 21
7.9928955012356786
 31
0.0
  0
LINE
  5
1AEB
  8
0
  6
CONTINUOUS
 62
     7
 10
-14.07004699999999
 20
24.586488501235682
 30
0.0
 11
-7.9928960000000009
 21
30.663594501235671
 31
0.0
  0
ARC
  5
1AEC
  8
0
  6
CONTINUOUS
 62
     7
 10
-8.6999999999999886
 20
31.370703501235671
 30
0.0
 40
1.0
 50
314.99978499999997
 51
0.0
  0
ARC
  5
1AED
  8
0
  6
CONTINUOUS
 62
     7
 10
-31.370704000000011
 20
8.6999995012356663
 30
0.0
 40
1.0
 50
270.0
 51
315.0002149999994
  0
ARC
  5
1AEE
  8
0
  6
CONTINUOUS
 62
     7
 10
-23.172270000000001
 20
12.65583850123569
 30
0.0
 40
2.0
 50
66.63833299999898
 51
135.0002149999994
  0
ARC
  5
1AEF
  8
0
  6
CONTINUOUS
 62
     7
 10
-12.655839000000009
 20
23.172269501235679
 30
0.0
 40
2.0
 50
134.9997850000012
 51
203.3616669999989
  0
ARC
  5
1AF0
  8
0
  6
CONTINUOUS
 62
     7
 10
-20.0
 20
-20.000000498764319
 30
0.0
 40
3.399999999999999
 50
266.0423280000021
 51
358.94280400000002
  0
ARC
  5
1AF1
  8
0
  6
CONTINUOUS
 62
     7
 10
-15.30080000000001
 20
-20.086717498764319
 30
0.0
 40
1.3
 50
358.94280400000002
 51
178.94280399999991
  0
ARC
  5
1AF2
  8
0
  6
CONTINUOUS
 62
     7
 10
-20.0
 20
-20.000000498764319
 30
0.0
 40
3.399999999999999
 50
91.057196000001625
 51
183.95767199999941
  0
ARC
  5
1AF3
  8
0
  6
CONTINUOUS
 62
     7
 10
-20.086716999999989
 20
-15.30080049876431
 30
0.0
 40
1.3
 50
271.05719599999838
 51
91.057196000001625
  0
ARC
  5
1AF4
  8
0
  6
CONTINUOUS
 62
     7
 10
-20.0
 20
-20.000000498764319
 30
0.0
 40
6.0
 50
91.057196000001625
 51
113.36166700000101
  0
ARC
  5
1AF5
  8
0
  6
CONTINUOUS
 62
     7
 10
-20.0
 20
-20.000000498764319
 30
0.0
 40
6.0
 50
336.63833299999902
 51
358.94280400000002
  0
LINE
  5
1AF6
  8
0
  6
CONTINUOUS
 62
     7
 10
-14.69999999999999
 20
-34.50000049876428
 30
0.0
 11
-10.0
 21
-34.50000049876428
 31
0.0
  0
LINE
  5
1AF7
  8
0
  6
CONTINUOUS
 62
     7
 10
-10.0
 20
-31.767764498884311
 30
0.0
 11
-14.267796000000001
 21
-27.50000049876428
 31
0.0
  0
LINE
  5
1AF8
  8
0
  6
CONTINUOUS
 62
     7
 10
-10.0
 20
-34.50000049876428
 30
0.0
 11
-10.0
 21
-31.767764498884311
 31
0.0
  0
LINE
  5
1AF9
  8
0
  6
CONTINUOUS
 62
     7
 10
-20.65360200000001
 20
-27.500000498764258
 30
0.0
 11
-25.732240999999998
 21
-27.50000049876428
 31
0.0
  0
LINE
  5
1AFA
  8
0
  6
CONTINUOUS
 62
     7
 10
-30.0
 20
-31.76776249876076
 30
0.0
 11
-25.732240999999998
 21
-27.50000049876428
 31
0.0
  0
LINE
  5
1AFB
  8
0
  6
CONTINUOUS
 62
     7
 10
-25.300000000000001
 20
-34.50000049876428
 30
0.0
 11
-30.0
 21
-34.50000049876428
 31
0.0
  0
LINE
  5
1AFC
  8
0
  6
CONTINUOUS
 62
     7
 10
-30.0
 20
-34.50000049876428
 30
0.0
 11
-30.0
 21
-31.76776249876076
 31
0.0
  0
LINE
  5
1AFD
  8
0
  6
CONTINUOUS
 62
     7
 10
-19.59642199999999
 20
-27.433013498764321
 30
0.0
 11
-20.000012000000002
 21
-27.200000498764322
 31
0.0
  0
LINE
  5
1AFE
  8
0
  6
CONTINUOUS
 62
     7
 10
-20.000012000000002
 20
-27.200000498764322
 30
0.0
 11
-20.40360200000001
 21
-27.433013498764321
 31
0.0
  0
LINE
  5
1AFF
  8
0
  6
CONTINUOUS
 62
     7
 10
-17.0
 20
-27.50000049876428
 30
0.0
 11
-14.267796000000001
 21
-27.50000049876428
 31
0.0
  0
LINE
  5
1B00
  8
0
  6
CONTINUOUS
 62
     7
 10
-34.5
 20
-14.70000049876432
 30
0.0
 11
-34.5
 21
-10.000000498764321
 31
0.0
  0
LINE
  5
1B01
  8
0
  6
CONTINUOUS
 62
     7
 10
-31.767764000119971
 20
-10.000000498764321
 30
0.0
 11
-27.5
 21
-14.267796498764319
 31
0.0
  0
LINE
  5
1B02
  8
0
  6
CONTINUOUS
 62
     7
 10
-34.5
 20
-10.000000498764321
 30
0.0
 11
-31.767764000119971
 21
-10.000000498764321
 31
0.0
  0
LINE
  5
1B03
  8
0
  6
CONTINUOUS
 62
     7
 10
-31.767761999996448
 20
-30.00000049876428
 30
0.0
 11
-27.5
 21
-25.732241498764331
 31
0.0
  0
LINE
  5
1B04
  8
0
  6
CONTINUOUS
 62
     7
 10
-34.5
 20
-25.30000049876428
 30
0.0
 11
-34.5
 21
-30.00000049876428
 31
0.0
  0
ARC
  5
1B05
  8
0
  6
CONTINUOUS
 62
     7
 10
-34.799999999999997
 20
-25.30000049876428
 30
0.0
 40
0.3
 50
0.0
 51
90.0
  0
LINE
  5
1B06
  8
0
  6
CONTINUOUS
 62
     7
 10
-34.5
 20
-30.00000049876428
 30
0.0
 11
-31.767761999996448
 21
-30.00000049876428
 31
0.0
  0
LINE
  5
1B07
  8
0
  6
CONTINUOUS
 62
     7
 10
-37.0
 20
-40.000000498764287
 30
0.0
 11
-25.300000000000001
 21
-40.000000498764301
 31
0.0
  0
LINE
  5
1B08
  8
0
  6
CONTINUOUS
 62
     7
 10
-25.0
 20
-34.800000498764277
 30
0.0
 11
-25.0
 21
-39.700000498764318
 31
0.0
  0
ARC
  5
1B09
  8
0
  6
CONTINUOUS
 62
     7
 10
-25.300000000000001
 20
-34.800000498764277
 30
0.0
 40
0.3
 50
0.0
 51
90.0
  0
ARC
  5
1B0A
  8
0
  6
CONTINUOUS
 62
     7
 10
-25.300000000000001
 20
-39.700000498764318
 30
0.0
 40
0.3
 50
270.0
 51
0.0
  0
LINE
  5
1B0B
  8
0
  6
CONTINUOUS
 62
     7
 10
-15.0
 20
-39.700000498764297
 30
0.0
 11
-15.0
 21
-34.800000498764263
 31
0.0
  0
ARC
  5
1B0C
  8
0
  6
CONTINUOUS
 62
     7
 10
-14.69999999999999
 20
-34.800000498764263
 30
0.0
 40
0.3
 50
90.0
 51
180.0
  0
LINE
  5
1B0D
  8
0
  6
CONTINUOUS
 62
     7
 10
-34.799999999999997
 20
-25.00000049876428
 30
0.0
 11
-39.700000000000003
 21
-25.00000049876428
 31
0.0
  0
ARC
  5
1B0E
  8
0
  6
CONTINUOUS
 62
     7
 10
-39.700000000000003
 20
-25.30000049876428
 30
0.0
 40
0.3
 50
90.0
 51
180.0
  0
LINE
  5
1B0F
  8
0
  6
CONTINUOUS
 62
     7
 10
-39.700000000000003
 20
-15.000000498764321
 30
0.0
 11
-34.799999999999997
 21
-15.000000498764321
 31
0.0
  0
ARC
  5
1B10
  8
0
  6
CONTINUOUS
 62
     7
 10
-39.700000000000003
 20
-14.70000049876432
 30
0.0
 40
0.3
 50
180.0
 51
270.0
  0
ARC
  5
1B11
  8
0
  6
CONTINUOUS
 62
     7
 10
-34.799999999999997
 20
-14.70000049876432
 30
0.0
 40
0.3
 50
270.0
 51
0.0
  0
LINE
  5
1B12
  8
0
  6
CONTINUOUS
 62
     7
 10
-40.0
 20
-37.00000049876428
 30
0.0
 11
-40.0
 21
-25.30000049876428
 31
0.0
  0
ARC
  5
1B13
  8
0
  6
CONTINUOUS
 62
     7
 10
-37.0
 20
-37.00000049876428
 30
0.0
 40
3.0
 50
180.0
 51
270.0
  0
LINE
  5
1B14
  8
0
  6
CONTINUOUS
 62
     7
 10
-14.69999999999999
 20
-40.000000498764287
 30
0.0
 11
0.0
 21
-40.000000498764287
 31
0.0
  0
ARC
  5
1B15
  8
0
  6
CONTINUOUS
 62
     7
 10
-14.69999999999999
 20
-39.700000498764297
 30
0.0
 40
0.3
 50
180.0
 51
270.0
  0
LINE
  5
1B16
  8
0
  6
CONTINUOUS
 62
     7
 10
-40.0
 20
-14.70000049876432
 30
0.0
 11
-40.0
 21
-0.0000004987643223
 31
0.0
  0
LINE
  5
1B17
  8
0
  6
CONTINUOUS
 62
     7
 10
-7.6999999999999877
 20
-31.370704498764329
 30
0.0
 11
-7.6999999999999877
 21
-37.00000049876428
 31
0.0
  0
LINE
  5
1B18
  8
0
  6
CONTINUOUS
 62
     7
 10
-31.370704000000011
 20
-7.7000004987643251
 30
0.0
 11
-37.0
 21
-7.7000004987643251
 31
0.0
  0
ARC
  5
1B19
  8
0
  6
CONTINUOUS
 62
     7
 10
-20.65360200000001
 20
-27.00000049876428
 30
0.0
 40
0.5
 50
270.0
 51
300.00000000000011
  0
ARC
  5
1B1A
  8
0
  6
CONTINUOUS
 62
     7
 10
-19.34642199999999
 20
-27.00000049876428
 30
0.0
 40
0.5
 50
239.99999999999989
 51
305.00000000000102
  0
LINE
  5
1B1B
  8
0
  6
CONTINUOUS
 62
     7
 10
-18.313824000000011
 20
-26.887354498764321
 30
0.0
 11
-19.059633999999988
 21
-27.409576498764281
 31
0.0
  0
LINE
  5
1B1C
  8
0
  6
CONTINUOUS
 62
     7
 10
-17.0
 20
-27.50000049876428
 30
0.0
 11
-18.313824000000011
 21
-26.887354498764321
 31
0.0
  0
LINE
  5
1B1D
  8
0
  6
CONTINUOUS
 62
     7
 10
-27.5
 20
-19.346398498764309
 30
0.0
 11
-27.5
 21
-14.267796498764319
 31
0.0
  0
LINE
  5
1B1E
  8
0
  6
CONTINUOUS
 62
     7
 10
-27.433012000000009
 20
-20.403577498764321
 30
0.0
 11
-27.20000000000001
 21
-19.99998749876432
 31
0.0
  0
LINE
  5
1B1F
  8
0
  6
CONTINUOUS
 62
     7
 10
-27.20000000000001
 20
-19.99998749876432
 30
0.0
 11
-27.433012000000009
 21
-19.596398498764309
 31
0.0
  0
LINE
  5
1B20
  8
0
  6
CONTINUOUS
 62
     7
 10
-27.5
 20
-23.000000498764319
 30
0.0
 11
-27.5
 21
-25.732241498764321
 31
0.0
  0
ARC
  5
1B21
  8
0
  6
CONTINUOUS
 62
     7
 10
-27.0
 20
-19.346398498764309
 30
0.0
 40
0.5
 50
180.0
 51
209.99999999999969
  0
ARC
  5
1B22
  8
0
  6
CONTINUOUS
 62
     7
 10
-27.0
 20
-20.653577498764321
 30
0.0
 40
0.5
 50
150.0000000000002
 51
214.99999999999869
  0
LINE
  5
1B23
  8
0
  6
CONTINUOUS
 62
     7
 10
-26.887353999999998
 20
-21.686176498764318
 30
0.0
 11
-27.409576000000001
 21
-20.940365498764319
 31
0.0
  0
LINE
  5
1B24
  8
0
  6
CONTINUOUS
 62
     7
 10
-27.5
 20
-23.000000498764319
 30
0.0
 11
-26.887353999999998
 21
-21.686176498764318
 31
0.0
  0
LINE
  5
1B25
  8
0
  6
CONTINUOUS
 62
     7
 10
-37.5
 20
-7.2000004987643251
 30
0.0
 11
-37.5
 21
-0.0000004987643223
 31
0.0
  0
ARC
  5
1B26
  8
0
  6
CONTINUOUS
 62
     7
 10
-37.0
 20
-7.2000004987643251
 30
0.0
 40
0.5
 50
180.0
 51
270.0
  0
LINE
  5
1B27
  8
0
  6
CONTINUOUS
 62
     7
 10
-7.1999999999999877
 20
-37.50000049876428
 30
0.0
 11
0.0
 21
-37.50000049876428
 31
0.0
  0
ARC
  5
1B28
  8
0
  6
CONTINUOUS
 62
     7
 10
-7.1999999999999877
 20
-37.00000049876428
 30
0.0
 40
0.5
 50
180.0
 51
270.0
  0
LINE
  5
1B29
  8
0
  6
CONTINUOUS
 62
     7
 10
-23.915772
 20
-20.69045649876432
 30
0.0
 11
-23.721478999999992
 21
-20.656197498764332
 31
0.0
  0
LINE
  5
1B2A
  8
0
  6
CONTINUOUS
 62
     7
 10
-20.690456000000012
 20
-23.91577249876433
 30
0.0
 11
-20.656196999999992
 21
-23.721479498764332
 31
0.0
  0
ARC
  5
1B2B
  8
0
  6
CONTINUOUS
 62
     7
 10
-23.790938000000011
 20
-20.262274498764331
 30
0.0
 40
0.4
 50
279.99999999999858
 51
3.957671999999429
  0
ARC
  5
1B2C
  8
0
  6
CONTINUOUS
 62
     7
 10
-20.262273999999991
 20
-23.790938498764319
 30
0.0
 40
0.4
 50
86.042328000002129
 51
169.99999999999969
  0
ARC
  5
1B2D
  8
0
  6
CONTINUOUS
 62
     7
 10
-20.0
 20
-20.000000498764319
 30
0.0
 40
5.0999999999999979
 50
204.1169800000005
 51
245.8830199999995
  0
ARC
  5
1B2E
  8
0
  6
CONTINUOUS
 62
     7
 10
-21.675263999999999
 20
-23.742124498764319
 30
0.0
 40
1.0
 50
245.8830199999995
 51
349.99999999999977
  0
ARC
  5
1B2F
  8
0
  6
CONTINUOUS
 62
     7
 10
-23.74212399999999
 20
-21.675264498764321
 30
0.0
 40
1.0
 50
100.0000000000018
 51
204.1169800000005
  0
LINE
  5
1B30
  8
0
  6
CONTINUOUS
 62
     7
 10
-24.586489
 20
-14.070047498764319
 30
0.0
 11
-30.663595000000001
 21
-7.9928964987643241
 31
0.0
  0
LINE
  5
1B31
  8
0
  6
CONTINUOUS
 62
     7
 10
-14.07004699999999
 20
-24.58648949876428
 30
0.0
 11
-7.9928960000000009
 21
-30.66359549876433
 31
0.0
  0
ARC
  5
1B32
  8
0
  6
CONTINUOUS
 62
     7
 10
-8.6999999999999886
 20
-31.370704498764329
 30
0.0
 40
1.0
 50
0.0
 51
45.000214999998242
  0
ARC
  5
1B33
  8
0
  6
CONTINUOUS
 62
     7
 10
-31.370704000000011
 20
-8.7000004987643251
 30
0.0
 40
1.0
 50
44.999785000000031
 51
90.0
  0
ARC
  5
1B34
  8
0
  6
CONTINUOUS
 62
     7
 10
-23.172270000000001
 20
-12.655839498764321
 30
0.0
 40
2.0
 50
224.9997850000006
 51
293.3616669999974
  0
ARC
  5
1B35
  8
0
  6
CONTINUOUS
 62
     7
 10
-12.655839000000009
 20
-23.17227049876432
 30
0.0
 40
2.0
 50
156.6383329999997
 51
225.00021499999821
  0
ARC
  5
1B36
  8
0
  6
CONTINUOUS
 62
     7
 10
19.999999999999972
 20
19.999999501235681
 30
0.0
 40
3.399999999999999
 50
86.042328000002129
 51
178.94280399999991
  0
ARC
  5
1B37
  8
0
  6
CONTINUOUS
 62
     7
 10
15.30080000000001
 20
20.086716501235671
 30
0.0
 40
1.3
 50
178.94280399999991
 51
358.94280400000002
  0
ARC
  5
1B38
  8
0
  6
CONTINUOUS
 62
     7
 10
19.999999999999972
 20
19.999999501235681
 30
0.0
 40
3.399999999999999
 50
271.05719599999838
 51
3.957671999999429
  0
ARC
  5
1B39
  8
0
  6
CONTINUOUS
 62
     7
 10
20.086717999999991
 20
15.300799501235691
 30
0.0
 40
1.3
 50
91.057196000001625
 51
271.05719599999838
  0
ARC
  5
1B3A
  8
0
  6
CONTINUOUS
 62
     7
 10
19.999999999999972
 20
19.999999501235681
 30
0.0
 40
6.0
 50
271.05719599999838
 51
293.3616669999974
  0
ARC
  5
1B3B
  8
0
  6
CONTINUOUS
 62
     7
 10
19.999999999999972
 20
19.999999501235681
 30
0.0
 40
6.0
 50
156.6383329999997
 51
178.94280399999991
  0
LINE
  5
1B3C
  8
0
  6
CONTINUOUS
 62
     7
 10
14.69999999999999
 20
34.499999501235678
 30
0.0
 11
10.0
 21
34.499999501235678
 31
0.0
  0
ARC
  5
1B3D
  8
0
  6
CONTINUOUS
 62
     7
 10
14.69999999999999
 20
34.799999501235689
 30
0.0
 40
0.3
 50
270.0
 51
0.0
  0
LINE
  5
1B3E
  8
0
  6
CONTINUOUS
 62
     7
 10
10.0
 20
31.767763501355649
 30
0.0
 11
14.267796000000001
 21
27.499999501235681
 31
0.0
  0
LINE
  5
1B3F
  8
0
  6
CONTINUOUS
 62
     7
 10
10.0
 20
34.499999501235678
 30
0.0
 11
10.0
 21
31.767763501355649
 31
0.0
  0
LINE
  5
1B40
  8
0
  6
CONTINUOUS
 62
     7
 10
20.653602999999979
 20
27.499999501235681
 30
0.0
 11
25.732240999999991
 21
27.499999501235681
 31
0.0
  0
LINE
  5
1B41
  8
0
  6
CONTINUOUS
 62
     7
 10
29.999999999999972
 20
31.76776150123214
 30
0.0
 11
25.732240999999991
 21
27.499999501235681
 31
0.0
  0
LINE
  5
1B42
  8
0
  6
CONTINUOUS
 62
     7
 10
25.299999999999979
 20
34.499999501235678
 30
0.0
 11
29.999999999999972
 21
34.499999501235678
 31
0.0
  0
ARC
  5
1B43
  8
0
  6
CONTINUOUS
 62
     7
 10
25.299999999999979
 20
34.799999501235689
 30
0.0
 40
0.3
 50
180.0
 51
270.0
  0
LINE
  5
1B44
  8
0
  6
CONTINUOUS
 62
     7
 10
29.999999999999972
 20
34.499999501235678
 30
0.0
 11
29.999999999999972
 21
31.76776150123214
 31
0.0
  0
LINE
  5
1B45
  8
0
  6
CONTINUOUS
 62
     7
 10
19.59642299999998
 20
27.43301250123567
 30
0.0
 11
20.000012999999971
 21
27.19999950123567
 31
0.0
  0
LINE
  5
1B46
  8
0
  6
CONTINUOUS
 62
     7
 10
20.000012999999971
 20
27.19999950123567
 30
0.0
 11
20.403602999999968
 21
27.43301250123567
 31
0.0
  0
LINE
  5
1B47
  8
0
  6
CONTINUOUS
 62
     7
 10
17.0
 20
27.499999501235681
 30
0.0
 11
14.267796000000001
 21
27.499999501235681
 31
0.0
  0
LINE
  5
1B48
  8
0
  6
CONTINUOUS
 62
     7
 10
34.499999999999972
 20
14.699999501235659
 30
0.0
 11
34.499999999999972
 21
9.9999995012356777
 31
0.0
  0
LINE
  5
1B49
  8
0
  6
CONTINUOUS
 62
     7
 10
31.767764000119971
 20
9.9999995012356777
 30
0.0
 11
27.499999999999972
 21
14.26779550123568
 31
0.0
  0
LINE
  5
1B4A
  8
0
  6
CONTINUOUS
 62
     7
 10
34.499999999999972
 20
9.9999995012356777
 30
0.0
 11
31.767764000119971
 21
9.9999995012356777
 31
0.0
  0
LINE
  5
1B4B
  8
0
  6
CONTINUOUS
 62
     7
 10
31.767761999996491
 20
29.999999501235671
 30
0.0
 11
27.499999999999972
 21
25.732240501235669
 31
0.0
  0
LINE
  5
1B4C
  8
0
  6
CONTINUOUS
 62
     7
 10
34.499999999999922
 20
25.299999501235689
 30
0.0
 11
34.499999999999972
 21
29.999999501235681
 31
0.0
  0
ARC
  5
1B4D
  8
0
  6
CONTINUOUS
 62
     7
 10
34.79999999999999
 20
25.299999501235689
 30
0.0
 40
0.3
 50
180.0
 51
270.0
  0
LINE
  5
1B4E
  8
0
  6
CONTINUOUS
 62
     7
 10
34.499999999999972
 20
29.999999501235681
 30
0.0
 11
31.767761999996491
 21
29.999999501235671
 31
0.0
  0
LINE
  5
1B4F
  8
0
  6
CONTINUOUS
 62
     7
 10
36.999999999999972
 20
39.999999501235678
 30
0.0
 11
25.299999999999979
 21
39.999999501235678
 31
0.0
  0
LINE
  5
1B50
  8
0
  6
CONTINUOUS
 62
     7
 10
24.999999999999972
 20
34.799999501235689
 30
0.0
 11
24.999999999999972
 21
39.699999501235673
 31
0.0
  0
ARC
  5
1B51
  8
0
  6
CONTINUOUS
 62
     7
 10
25.299999999999979
 20
39.699999501235673
 30
0.0
 40
0.3
 50
90.0
 51
180.0
  0
LINE
  5
1B52
  8
0
  6
CONTINUOUS
 62
     7
 10
15.0
 20
39.699999501235673
 30
0.0
 11
15.0
 21
34.799999501235689
 31
0.0
  0
ARC
  5
1B53
  8
0
  6
CONTINUOUS
 62
     7
 10
14.69999999999999
 20
39.699999501235673
 30
0.0
 40
0.3
 50
0.0
 51
90.0
  0
LINE
  5
1B54
  8
0
  6
CONTINUOUS
 62
     7
 10
34.79999999999999
 20
24.999999501235681
 30
0.0
 11
39.699999999999989
 21
24.999999501235681
 31
0.0
  0
ARC
  5
1B55
  8
0
  6
CONTINUOUS
 62
     7
 10
39.699999999999989
 20
25.299999501235689
 30
0.0
 40
0.3
 50
270.0
 51
0.0
  0
LINE
  5
1B56
  8
0
  6
CONTINUOUS
 62
     7
 10
39.699999999999903
 20
14.999999501235679
 30
0.0
 11
34.79999999999999
 21
14.999999501235679
 31
0.0
  0
ARC
  5
1B57
  8
0
  6
CONTINUOUS
 62
     7
 10
34.79999999999999
 20
14.699999501235659
 30
0.0
 40
0.3
 50
90.0
 51
180.0
  0
LINE
  5
1B58
  8
0
  6
CONTINUOUS
 62
     7
 10
39.999999999999972
 20
36.999999501235678
 30
0.0
 11
39.999999999999972
 21
25.299999501235689
 31
0.0
  0
ARC
  5
1B59
  8
0
  6
CONTINUOUS
 62
     7
 10
36.999999999999972
 20
36.999999501235678
 30
0.0
 40
3.0
 50
0.0
 51
90.0
  0
LINE
  5
1B5A
  8
0
  6
CONTINUOUS
 62
     7
 10
14.69999999999999
 20
39.999999501235678
 30
0.0
 11
0.0
 21
39.999999501235678
 31
0.0
  0
LINE
  5
1B5B
  8
0
  6
CONTINUOUS
 62
     7
 10
39.999999999999972
 20
14.699999501235659
 30
0.0
 11
39.999999999999972
 21
-0.0000004987643223
 31
0.0
  0
ARC
  5
1B5C
  8
0
  6
CONTINUOUS
 62
     7
 10
39.699999999999903
 20
14.699999501235659
 30
0.0
 40
0.3
 50
0.0
 51
90.0
  0
LINE
  5
1B5D
  8
0
  6
CONTINUOUS
 62
     7
 10
7.6999999999999877
 20
31.370703501235671
 30
0.0
 11
7.6999999999999877
 21
36.999999501235678
 31
0.0
  0
LINE
  5
1B5E
  8
0
  6
CONTINUOUS
 62
     7
 10
31.37070499999999
 20
7.6999995012356663
 30
0.0
 11
36.999999999999972
 21
7.6999995012356663
 31
0.0
  0
ARC
  5
1B5F
  8
0
  6
CONTINUOUS
 62
     7
 10
20.653602999999979
 20
26.999999501235681
 30
0.0
 40
0.5
 50
90.0
 51
120.0000000000001
  0
ARC
  5
1B60
  8
0
  6
CONTINUOUS
 62
     7
 10
19.346422999999991
 20
26.999999501235681
 30
0.0
 40
0.5
 50
59.999999999999858
 51
125.0000000000009
  0
LINE
  5
1B61
  8
0
  6
CONTINUOUS
 62
     7
 10
18.313824000000011
 20
26.887353501235669
 30
0.0
 11
19.059634999999979
 21
27.409575501235668
 31
0.0
  0
LINE
  5
1B62
  8
0
  6
CONTINUOUS
 62
     7
 10
17.0
 20
27.499999501235681
 30
0.0
 11
18.313824000000011
 21
26.887353501235669
 31
0.0
  0
LINE
  5
1B63
  8
0
  6
CONTINUOUS
 62
     7
 10
27.499999999999972
 20
19.346397501235671
 30
0.0
 11
27.499999999999961
 21
14.26779550123568
 31
0.0
  0
LINE
  5
1B64
  8
0
  6
CONTINUOUS
 62
     7
 10
27.433012999999988
 20
20.40357650123569
 30
0.0
 11
27.199999999999989
 21
19.99998750123568
 31
0.0
  0
LINE
  5
1B65
  8
0
  6
CONTINUOUS
 62
     7
 10
27.199999999999989
 20
19.99998750123568
 30
0.0
 11
27.433012999999988
 21
19.596397501235671
 31
0.0
  0
LINE
  5
1B66
  8
0
  6
CONTINUOUS
 62
     7
 10
27.499999999999972
 20
22.999999501235681
 30
0.0
 11
27.499999999999979
 21
25.732240501235669
 31
0.0
  0
ARC
  5
1B67
  8
0
  6
CONTINUOUS
 62
     7
 10
26.999999999999972
 20
19.346397501235671
 30
0.0
 40
0.5
 50
0.0
 51
29.99999999999973
  0
ARC
  5
1B68
  8
0
  6
CONTINUOUS
 62
     7
 10
26.999999999999972
 20
20.65357650123569
 30
0.0
 40
0.5
 50
330.00000000000028
 51
34.999999999998693
  0
LINE
  5
1B69
  8
0
  6
CONTINUOUS
 62
     7
 10
26.887353999999991
 20
21.68617550123567
 30
0.0
 11
27.409575999999991
 21
20.940365501235689
 31
0.0
  0
LINE
  5
1B6A
  8
0
  6
CONTINUOUS
 62
     7
 10
27.499999999999972
 20
22.999999501235681
 30
0.0
 11
26.887353999999991
 21
21.68617550123567
 31
0.0
  0
LINE
  5
1B6B
  8
0
  6
CONTINUOUS
 62
     7
 10
37.499999999999972
 20
7.1999995012356663
 30
0.0
 11
37.499999999999972
 21
-0.0000004987643223
 31
0.0
  0
ARC
  5
1B6C
  8
0
  6
CONTINUOUS
 62
     7
 10
36.999999999999972
 20
7.1999995012356663
 30
0.0
 40
0.5
 50
0.0
 51
90.0
  0
LINE
  5
1B6D
  8
0
  6
CONTINUOUS
 62
     7
 10
7.1999999999999877
 20
37.499999501235678
 30
0.0
 11
0.0
 21
37.499999501235678
 31
0.0
  0
ARC
  5
1B6E
  8
0
  6
CONTINUOUS
 62
     7
 10
7.1999999999999877
 20
36.999999501235678
 30
0.0
 40
0.5
 50
0.0
 51
90.0
  0
LINE
  5
1B6F
  8
0
  6
CONTINUOUS
 62
     7
 10
23.915771999999979
 20
20.690455501235689
 30
0.0
 11
23.721478999999992
 21
20.656196501235669
 31
0.0
  0
LINE
  5
1B70
  8
0
  6
CONTINUOUS
 62
     7
 10
20.690456999999981
 20
23.915771501235682
 30
0.0
 11
20.656196999999992
 21
23.721478501235669
 31
0.0
  0
ARC
  5
1B71
  8
0
  6
CONTINUOUS
 62
     7
 10
23.790937999999979
 20
20.262273501235669
 30
0.0
 40
0.4
 50
100.0000000000018
 51
183.95767199999941
  0
ARC
  5
1B72
  8
0
  6
CONTINUOUS
 62
     7
 10
20.262273999999991
 20
23.790937501235689
 30
0.0
 40
0.4
 50
266.0423280000021
 51
349.99999999999977
  0
ARC
  5
1B73
  8
0
  6
CONTINUOUS
 62
     7
 10
19.999999999999972
 20
19.999999501235681
 30
0.0
 40
5.0999999999999979
 50
24.11698000000046
 51
65.883019999999533
  0
ARC
  5
1B74
  8
0
  6
CONTINUOUS
 62
     7
 10
21.67526399999991
 20
23.742123501235671
 30
0.0
 40
1.0
 50
65.883019999999533
 51
169.99999999999969
  0
ARC
  5
1B75
  8
0
  6
CONTINUOUS
 62
     7
 10
23.74212399999999
 20
21.675263501235669
 30
0.0
 40
1.0
 50
279.99999999999858
 51
24.11698000000046
  0
LINE
  5
1B76
  8
0
  6
CONTINUOUS
 62
     7
 10
24.586488999999968
 20
14.070046501235661
 30
0.0
 11
30.66359499999999
 21
7.9928955012356786
 31
0.0
  0
LINE
  5
1B77
  8
0
  6
CONTINUOUS
 62
     7
 10
14.07004699999999
 20
24.586488501235682
 30
0.0
 11
7.9928960000000009
 21
30.663594501235671
 31
0.0
  0
ARC
  5
1B78
  8
0
  6
CONTINUOUS
 62
     7
 10
8.6999999999999886
 20
31.370703501235671
 30
0.0
 40
1.0
 50
180.0
 51
225.00021499999821
  0
ARC
  5
1B79
  8
0
  6
CONTINUOUS
 62
     7
 10
31.37070499999999
 20
8.6999995012356663
 30
0.0
 40
1.0
 50
224.9997850000006
 51
270.0
  0
ARC
  5
1B7A
  8
0
  6
CONTINUOUS
 62
     7
 10
23.172269999999969
 20
12.65583850123569
 30
0.0
 40
2.0
 50
44.999785000000031
 51
113.36166700000101
  0
ARC
  5
1B7B
  8
0
  6
CONTINUOUS
 62
     7
 10
12.655838999999981
 20
23.172269501235679
 30
0.0
 40
2.0
 50
336.63833299999902
 51
45.000214999998242
  0
ARC
  5
1B7C
  8
0
  6
CONTINUOUS
 62
     7
 10
19.999999999999972
 20
-20.000000498764319
 30
0.0
 40
3.399999999999999
 50
181.057196
 51
273.9576719999979
  0
ARC
  5
1B7D
  8
0
  6
CONTINUOUS
 62
     7
 10
15.30080000000001
 20
-20.086717498764319
 30
0.0
 40
1.3
 50
1.0571960000000451
 51
181.057196
  0
ARC
  5
1B7E
  8
0
  6
CONTINUOUS
 62
     7
 10
19.999999999999972
 20
-20.000000498764319
 30
0.0
 40
3.399999999999999
 50
356.04232800000051
 51
88.942803999998347
  0
ARC
  5
1B7F
  8
0
  6
CONTINUOUS
 62
     7
 10
20.086717999999991
 20
-15.30080049876431
 30
0.0
 40
1.3
 50
88.942803999998347
 51
268.94280399999832
  0
ARC
  5
1B80
  8
0
  6
CONTINUOUS
 62
     7
 10
19.999999999999972
 20
-20.000000498764319
 30
0.0
 40
6.0
 50
66.63833299999898
 51
88.942803999998347
  0
ARC
  5
1B81
  8
0
  6
CONTINUOUS
 62
     7
 10
19.999999999999972
 20
-20.000000498764319
 30
0.0
 40
6.0
 50
181.057196
 51
203.3616669999989
  0
LINE
  5
1B82
  8
0
  6
CONTINUOUS
 62
     7
 10
14.69999999999999
 20
-34.50000049876428
 30
0.0
 11
10.0
 21
-34.50000049876428
 31
0.0
  0
LINE
  5
1B83
  8
0
  6
CONTINUOUS
 62
     7
 10
10.0
 20
-31.767764498884311
 30
0.0
 11
14.267796000000001
 21
-27.50000049876428
 31
0.0
  0
LINE
  5
1B84
  8
0
  6
CONTINUOUS
 62
     7
 10
10.0
 20
-34.50000049876428
 30
0.0
 11
10.0
 21
-31.767764498884311
 31
0.0
  0
LINE
  5
1B85
  8
0
  6
CONTINUOUS
 62
     7
 10
22.999999999999972
 20
-27.50000049876428
 30
0.0
 11
25.732240999999991
 21
-27.50000049876428
 31
0.0
  0
LINE
  5
1B86
  8
0
  6
CONTINUOUS
 62
     7
 10
29.999999999999972
 20
-31.767762498760749
 30
0.0
 11
25.732240999999991
 21
-27.50000049876428
 31
0.0
  0
LINE
  5
1B87
  8
0
  6
CONTINUOUS
 62
     7
 10
25.299999999999979
 20
-34.50000049876428
 30
0.0
 11
29.999999999999972
 21
-34.50000049876428
 31
0.0
  0
LINE
  5
1B88
  8
0
  6
CONTINUOUS
 62
     7
 10
29.999999999999972
 20
-34.50000049876428
 30
0.0
 11
29.999999999999972
 21
-31.76776249876076
 31
0.0
  0
LINE
  5
1B89
  8
0
  6
CONTINUOUS
 62
     7
 10
19.59642299999998
 20
-27.433013498764321
 30
0.0
 11
20.000012999999971
 21
-27.200000498764322
 31
0.0
  0
LINE
  5
1B8A
  8
0
  6
CONTINUOUS
 62
     7
 10
20.000012999999971
 20
-27.200000498764322
 30
0.0
 11
20.403602999999968
 21
-27.433013498764321
 31
0.0
  0
LINE
  5
1B8B
  8
0
  6
CONTINUOUS
 62
     7
 10
19.346422999999991
 20
-27.50000049876428
 30
0.0
 11
14.267796000000001
 21
-27.50000049876428
 31
0.0
  0
LINE
  5
1B8C
  8
0
  6
CONTINUOUS
 62
     7
 10
34.499999999999972
 20
-14.70000049876432
 30
0.0
 11
34.499999999999972
 21
-10.000000498764321
 31
0.0
  0
ARC
  5
1B8D
  8
0
  6
CONTINUOUS
 62
     7
 10
34.79999999999999
 20
-14.70000049876432
 30
0.0
 40
0.3
 50
180.0
 51
270.0
  0
LINE
  5
1B8E
  8
0
  6
CONTINUOUS
 62
     7
 10
31.767764000119961
 20
-10.000000498764321
 30
0.0
 11
27.499999999999972
 21
-14.267796498764319
 31
0.0
  0
LINE
  5
1B8F
  8
0
  6
CONTINUOUS
 62
     7
 10
34.499999999999972
 20
-10.000000498764321
 30
0.0
 11
31.76776400011995
 21
-10.000000498764321
 31
0.0
  0
LINE
  5
1B90
  8
0
  6
CONTINUOUS
 62
     7
 10
31.767761999996431
 20
-30.00000049876428
 30
0.0
 11
27.499999999999972
 21
-25.732241498764331
 31
0.0
  0
LINE
  5
1B91
  8
0
  6
CONTINUOUS
 62
     7
 10
34.499999999999972
 20
-25.30000049876428
 30
0.0
 11
34.499999999999972
 21
-30.00000049876428
 31
0.0
  0
LINE
  5
1B92
  8
0
  6
CONTINUOUS
 62
     7
 10
34.499999999999972
 20
-30.00000049876428
 30
0.0
 11
31.767761999996431
 21
-30.00000049876428
 31
0.0
  0
LINE
  5
1B93
  8
0
  6
CONTINUOUS
 62
     7
 10
36.999999999999972
 20
-40.000000498764287
 30
0.0
 11
25.299999999999979
 21
-40.000000498764301
 31
0.0
  0
ARC
  5
1B94
  8
0
  6
CONTINUOUS
 62
     7
 10
25.299999999999979
 20
-39.700000498764318
 30
0.0
 40
0.3
 50
180.0
 51
270.0
  0
LINE
  5
1B95
  8
0
  6
CONTINUOUS
 62
     7
 10
24.999999999999972
 20
-34.800000498764263
 30
0.0
 11
24.999999999999972
 21
-39.700000498764318
 31
0.0
  0
ARC
  5
1B96
  8
0
  6
CONTINUOUS
 62
     7
 10
25.299999999999979
 20
-34.800000498764263
 30
0.0
 40
0.3
 50
90.0
 51
180.0
  0
LINE
  5
1B97
  8
0
  6
CONTINUOUS
 62
     7
 10
15.0
 20
-39.700000498764297
 30
0.0
 11
15.0
 21
-34.800000498764263
 31
0.0
  0
ARC
  5
1B98
  8
0
  6
CONTINUOUS
 62
     7
 10
14.69999999999999
 20
-39.700000498764297
 30
0.0
 40
0.3
 50
270.0
 51
0.0
  0
ARC
  5
1B99
  8
0
  6
CONTINUOUS
 62
     7
 10
14.69999999999999
 20
-34.800000498764263
 30
0.0
 40
0.3
 50
0.0
 51
90.0
  0
LINE
  5
1B9A
  8
0
  6
CONTINUOUS
 62
     7
 10
34.79999999999999
 20
-25.000000498764258
 30
0.0
 11
39.699999999999989
 21
-25.00000049876428
 31
0.0
  0
ARC
  5
1B9B
  8
0
  6
CONTINUOUS
 62
     7
 10
34.79999999999999
 20
-25.30000049876428
 30
0.0
 40
0.3
 50
90.0
 51
180.0
  0
LINE
  5
1B9C
  8
0
  6
CONTINUOUS
 62
     7
 10
39.699999999999989
 20
-15.000000498764321
 30
0.0
 11
34.79999999999999
 21
-15.000000498764321
 31
0.0
  0
ARC
  5
1B9D
  8
0
  6
CONTINUOUS
 62
     7
 10
39.699999999999989
 20
-14.70000049876432
 30
0.0
 40
0.3
 50
270.0
 51
0.0
  0
LINE
  5
1B9E
  8
0
  6
CONTINUOUS
 62
     7
 10
39.999999999999972
 20
-37.00000049876428
 30
0.0
 11
39.999999999999972
 21
-25.30000049876428
 31
0.0
  0
ARC
  5
1B9F
  8
0
  6
CONTINUOUS
 62
     7
 10
39.699999999999989
 20
-25.30000049876428
 30
0.0
 40
0.3
 50
0.0
 51
90.0
  0
ARC
  5
1BA0
  8
0
  6
CONTINUOUS
 62
     7
 10
36.999999999999972
 20
-37.00000049876428
 30
0.0
 40
3.0
 50
270.0
 51
0.0
  0
LINE
  5
1BA1
  8
0
  6
CONTINUOUS
 62
     7
 10
14.69999999999999
 20
-40.000000498764287
 30
0.0
 11
0.0
 21
-40.000000498764287
 31
0.0
  0
LINE
  5
1BA2
  8
0
  6
CONTINUOUS
 62
     7
 10
39.999999999999972
 20
-14.70000049876432
 30
0.0
 11
39.999999999999972
 21
-0.0000004987643223
 31
0.0
  0
LINE
  5
1BA3
  8
0
  6
CONTINUOUS
 62
     7
 10
7.6999999999999877
 20
-31.370704498764329
 30
0.0
 11
7.6999999999999877
 21
-37.00000049876428
 31
0.0
  0
LINE
  5
1BA4
  8
0
  6
CONTINUOUS
 62
     7
 10
31.37070499999999
 20
-7.7000004987643251
 30
0.0
 11
36.999999999999972
 21
-7.7000004987643251
 31
0.0
  0
ARC
  5
1BA5
  8
0
  6
CONTINUOUS
 62
     7
 10
20.653602999999979
 20
-27.00000049876428
 30
0.0
 40
0.5
 50
239.99999999999989
 51
305.00000000000102
  0
ARC
  5
1BA6
  8
0
  6
CONTINUOUS
 62
     7
 10
19.346422999999991
 20
-27.00000049876428
 30
0.0
 40
0.5
 50
270.0
 51
300.00000000000011
  0
LINE
  5
1BA7
  8
0
  6
CONTINUOUS
 62
     7
 10
20.94039099999998
 20
-27.409576498764281
 30
0.0
 11
21.686190999999901
 21
-26.887361498764331
 31
0.0
  0
LINE
  5
1BA8
  8
0
  6
CONTINUOUS
 62
     7
 10
21.686190999999901
 20
-26.887361498764331
 30
0.0
 11
22.999999999999972
 21
-27.50000049876428
 31
0.0
  0
LINE
  5
1BA9
  8
0
  6
CONTINUOUS
 62
     7
 10
27.499999999999972
 20
-17.000000498764319
 30
0.0
 11
27.499999999999972
 21
-14.267796498764319
 31
0.0
  0
LINE
  5
1BAA
  8
0
  6
CONTINUOUS
 62
     7
 10
27.433012999999988
 20
-20.403577498764321
 30
0.0
 11
27.199999999999989
 21
-19.99998749876432
 31
0.0
  0
LINE
  5
1BAB
  8
0
  6
CONTINUOUS
 62
     7
 10
27.199999999999989
 20
-19.99998749876432
 30
0.0
 11
27.433012999999988
 21
-19.596398498764309
 31
0.0
  0
LINE
  5
1BAC
  8
0
  6
CONTINUOUS
 62
     7
 10
27.499999999999972
 20
-20.653577498764321
 30
0.0
 11
27.499999999999972
 21
-25.732241498764321
 31
0.0
  0
ARC
  5
1BAD
  8
0
  6
CONTINUOUS
 62
     7
 10
26.999999999999972
 20
-19.346398498764309
 30
0.0
 40
0.5
 50
330.00000000000028
 51
34.999999999998693
  0
ARC
  5
1BAE
  8
0
  6
CONTINUOUS
 62
     7
 10
26.999999999999972
 20
-20.653577498764321
 30
0.0
 40
0.5
 50
0.0
 51
29.99999999999973
  0
LINE
  5
1BAF
  8
0
  6
CONTINUOUS
 62
     7
 10
27.409575999999991
 20
-19.059609498764321
 30
0.0
 11
26.88736099999997
 21
-18.313809498764329
 31
0.0
  0
LINE
  5
1BB0
  8
0
  6
CONTINUOUS
 62
     7
 10
26.88736099999997
 20
-18.313809498764329
 30
0.0
 11
27.499999999999972
 21
-17.000000498764319
 31
0.0
  0
LINE
  5
1BB1
  8
0
  6
CONTINUOUS
 62
     7
 10
37.499999999999972
 20
-7.2000004987643251
 30
0.0
 11
37.499999999999972
 21
-0.0000004987643223
 31
0.0
  0
ARC
  5
1BB2
  8
0
  6
CONTINUOUS
 62
     7
 10
36.999999999999972
 20
-7.2000004987643251
 30
0.0
 40
0.5
 50
270.0
 51
0.0
  0
LINE
  5
1BB3
  8
0
  6
CONTINUOUS
 62
     7
 10
7.1999999999999877
 20
-37.50000049876428
 30
0.0
 11
0.0
 21
-37.50000049876428
 31
0.0
  0
ARC
  5
1BB4
  8
0
  6
CONTINUOUS
 62
     7
 10
7.1999999999999877
 20
-37.00000049876428
 30
0.0
 40
0.5
 50
270.0
 51
0.0
  0
LINE
  5
1BB5
  8
0
  6
CONTINUOUS
 62
     7
 10
23.915771999999979
 20
-20.69045649876432
 30
0.0
 11
23.721478999999992
 21
-20.656197498764332
 31
0.0
  0
LINE
  5
1BB6
  8
0
  6
CONTINUOUS
 62
     7
 10
20.690456999999981
 20
-23.91577249876433
 30
0.0
 11
20.656196999999992
 21
-23.721479498764332
 31
0.0
  0
ARC
  5
1BB7
  8
0
  6
CONTINUOUS
 62
     7
 10
23.790937999999979
 20
-20.262274498764331
 30
0.0
 40
0.4
 50
176.04232800000051
 51
259.99999999999818
  0
ARC
  5
1BB8
  8
0
  6
CONTINUOUS
 62
     7
 10
20.262273999999991
 20
-23.790938498764319
 30
0.0
 40
0.4
 50
10.00000000000021
 51
93.957671999997856
  0
ARC
  5
1BB9
  8
0
  6
CONTINUOUS
 62
     7
 10
19.999999999999972
 20
-20.000000498764319
 30
0.0
 40
5.0999999999999979
 50
294.11698000000052
 51
335.88301999999948
  0
ARC
  5
1BBA
  8
0
  6
CONTINUOUS
 62
     7
 10
21.67526399999991
 20
-23.742124498764319
 30
0.0
 40
1.0
 50
190.0000000000002
 51
294.11698000000052
  0
ARC
  5
1BBB
  8
0
  6
CONTINUOUS
 62
     7
 10
23.74212399999999
 20
-21.675264498764321
 30
0.0
 40
1.0
 50
335.88301999999948
 51
79.999999999998195
  0
LINE
  5
1BBC
  8
0
  6
CONTINUOUS
 62
     7
 10
24.586488999999968
 20
-14.070047498764319
 30
0.0
 11
30.66359499999999
 21
-7.9928964987643241
 31
0.0
  0
LINE
  5
1BBD
  8
0
  6
CONTINUOUS
 62
     7
 10
14.07004699999999
 20
-24.58648949876428
 30
0.0
 11
7.9928960000000009
 21
-30.66359549876433
 31
0.0
  0
ARC
  5
1BBE
  8
0
  6
CONTINUOUS
 62
     7
 10
8.6999999999999886
 20
-31.370704498764329
 30
0.0
 40
1.0
 50
134.9997850000012
 51
180.0
  0
ARC
  5
1BBF
  8
0
  6
CONTINUOUS
 62
     7
 10
31.37070499999999
 20
-8.7000004987643251
 30
0.0
 40
1.0
 50
90.0
 51
135.0002149999994
  0
ARC
  5
1BC0
  8
0
  6
CONTINUOUS
 62
     7
 10
23.172269999999969
 20
-12.655839498764321
 30
0.0
 40
2.0
 50
246.63833299999899
 51
315.0002149999994
  0
ARC
  5
1BC1
  8
0
  6
CONTINUOUS
 62
     7
 10
12.655838999999981
 20
-23.17227049876432
 30
0.0
 40
2.0
 50
314.99978499999997
 51
23.361667000000271
  0
ARC
  5
1BC2
  8
0
  6
CONTINUOUS
 62
     7
 10
-40.0
 20
39.999999501235678
 30
0.0
 40
6.9000000000000004
 50
294.62431800000007
 51
335.37573400000031
  0
ARC
  5
1BC3
  8
0
  6
CONTINUOUS
 62
     7
 10
-32.363898000000013
 20
36.500006501235688
 30
0.0
 40
1.5
 50
90.0
 51
155.37573400000019
  0
ARC
  5
1BC4
  8
0
  6
CONTINUOUS
 62
     7
 10
-36.5
 20
32.363901501235667
 30
0.0
 40
1.5
 50
114.6243180000001
 51
180.0
  0
ARC
  5
1BC5
  8
0
  6
CONTINUOUS
 62
     7
 10
-32.0
 20
37.500006501235688
 30
0.0
 40
0.5
 50
0.0
 51
90.0
  0
ARC
  5
1BC6
  8
0
  6
CONTINUOUS
 62
     7
 10
-37.5
 20
31.999999501235681
 30
0.0
 40
0.5
 50
180.0
 51
270.0
  0
LINE
  5
1BC7
  8
0
  6
CONTINUOUS
 62
     7
 10
-38.0
 20
-32.00000049876428
 30
0.0
 11
-38.0
 21
-32.363901498764321
 31
0.0
  0
LINE
  5
1BC8
  8
0
  6
CONTINUOUS
 62
     7
 10
-32.0
 20
-38.000007498764298
 30
0.0
 11
-32.363898000000013
 21
-38.000007498764298
 31
0.0
  0
LINE
  5
1BC9
  8
0
  6
CONTINUOUS
 62
     7
 10
-31.5
 20
-37.50000749876429
 30
0.0
 11
-31.5
 21
-32.50000049876428
 31
0.0
  0
LINE
  5
1BCA
  8
0
  6
CONTINUOUS
 62
     7
 10
-37.5
 20
-31.50000049876428
 30
0.0
 11
-32.5
 21
-31.50000049876428
 31
0.0
  0
ARC
  5
1BCB
  8
0
  6
CONTINUOUS
 62
     7
 10
-32.5
 20
-32.50000049876428
 30
0.0
 40
1.0
 50
0.0
 51
90.0
  0
ARC
  5
1BCC
  8
0
  6
CONTINUOUS
 62
     7
 10
-40.0
 20
-40.000000498764287
 30
0.0
 40
6.9000000000000004
 50
24.624265999999739
 51
65.375681999999912
  0
ARC
  5
1BCD
  8
0
  6
CONTINUOUS
 62
     7
 10
-32.363898000000013
 20
-36.500007498764312
 30
0.0
 40
1.5
 50
204.62426599999981
 51
270.0
  0
ARC
  5
1BCE
  8
0
  6
CONTINUOUS
 62
     7
 10
-36.5
 20
-32.363901498764321
 30
0.0
 40
1.5
 50
180.0
 51
245.3756819999999
  0
ARC
  5
1BCF
  8
0
  6
CONTINUOUS
 62
     7
 10
-32.0
 20
-37.50000749876429
 30
0.0
 40
0.5
 50
270.0
 51
0.0
  0
ARC
  5
1BD0
  8
0
  6
CONTINUOUS
 62
     7
 10
-37.5
 20
-32.00000049876428
 30
0.0
 40
0.5
 50
90.0
 51
180.0
  0
LINE
  5
1BD1
  8
0
  6
CONTINUOUS
 62
     7
 10
37.999999999999972
 20
31.999999501235681
 30
0.0
 11
37.999999999999972
 21
32.363901501235667
 31
0.0
  0
LINE
  5
1BD2
  8
0
  6
CONTINUOUS
 62
     7
 10
31.999999999999972
 20
38.000006501235688
 30
0.0
 11
32.363898999999982
 21
38.000006501235688
 31
0.0
  0
LINE
  5
1BD3
  8
0
  6
CONTINUOUS
 62
     7
 10
31.499999999999972
 20
37.500006501235688
 30
0.0
 11
31.499999999999972
 21
32.499999501235678
 31
0.0
  0
LINE
  5
1BD4
  8
0
  6
CONTINUOUS
 62
     7
 10
37.499999999999972
 20
31.499999501235681
 30
0.0
 11
32.499999999999972
 21
31.499999501235681
 31
0.0
  0
ARC
  5
1BD5
  8
0
  6
CONTINUOUS
 62
     7
 10
32.499999999999972
 20
32.499999501235678
 30
0.0
 40
1.0
 50
180.0
 51
270.0
  0
ARC
  5
1BD6
  8
0
  6
CONTINUOUS
 62
     7
 10
39.999999999999972
 20
39.999999501235678
 30
0.0
 40
6.9000000000000004
 50
204.62426599999981
 51
245.3756819999999
  0
ARC
  5
1BD7
  8
0
  6
CONTINUOUS
 62
     7
 10
32.363898999999982
 20
36.500006501235688
 30
0.0
 40
1.5
 50
24.624265999999739
 51
90.0
  0
ARC
  5
1BD8
  8
0
  6
CONTINUOUS
 62
     7
 10
36.499999999999972
 20
32.363901501235667
 30
0.0
 40
1.5
 50
0.0
 51
65.375681999999912
  0
ARC
  5
1BD9
  8
0
  6
CONTINUOUS
 62
     7
 10
31.999999999999972
 20
37.500006501235688
 30
0.0
 40
0.5
 50
90.0
 51
180.0
  0
ARC
  5
1BDA
  8
0
  6
CONTINUOUS
 62
     7
 10
37.499999999999972
 20
31.999999501235681
 30
0.0
 40
0.5
 50
270.0
 51
0.0
  0
LINE
  5
1BDB
  8
0
  6
CONTINUOUS
 62
     7
 10
37.999999999999972
 20
-32.00000049876428
 30
0.0
 11
37.999999999999972
 21
-32.363901498764321
 31
0.0
  0
LINE
  5
1BDC
  8
0
  6
CONTINUOUS
 62
     7
 10
31.999999999999972
 20
-38.000007498764298
 30
0.0
 11
32.363898999999982
 21
-38.000007498764298
 31
0.0
  0
LINE
  5
1BDD
  8
0
  6
CONTINUOUS
 62
     7
 10
31.499999999999972
 20
-37.50000749876429
 30
0.0
 11
31.499999999999972
 21
-32.50000049876428
 31
0.0
  0
LINE
  5
1BDE
  8
0
  6
CONTINUOUS
 62
     7
 10
37.499999999999972
 20
-31.50000049876428
 30
0.0
 11
32.499999999999972
 21
-31.50000049876428
 31
0.0
  0
ARC
  5
1BDF
  8
0
  6
CONTINUOUS
 62
     7
 10
32.499999999999972
 20
-32.50000049876428
 30
0.0
 40
1.0
 50
90.0
 51
180.0
  0
ARC
  5
1BE0
  8
0
  6
CONTINUOUS
 62
     7
 10
39.999999999999972
 20
-40.000000498764287
 30
0.0
 40
6.9000000000000004
 50
114.6243180000001
 51
155.37573400000019
  0
ARC
  5
1BE1
  8
0
  6
CONTINUOUS
 62
     7
 10
32.363898999999982
 20
-36.500007498764312
 30
0.0
 40
1.5
 50
270.0
 51
335.37573400000031
  0
ARC
  5
1BE2
  8
0
  6
CONTINUOUS
 62
     7
 10
36.499999999999972
 20
-32.363901498764321
 30
0.0
 40
1.5
 50
294.62431800000007
 51
0.0
  0
ARC
  5
1BE3
  8
0
  6
CONTINUOUS
 62
     7
 10
31.999999999999972
 20
-37.50000749876429
 30
0.0
 40
0.5
 50
180.0
 51
270.0
  0
ARC
  5
1BE4
  8
0
  6
CONTINUOUS
 62
     7
 10
37.499999999999972
 20
-32.00000049876428
 30
0.0
 40
0.5
 50
0.0
 51
90.0
  0
LINE
  5
1C09
  8
0
  6
CONTINUOUS
 62
     7
 10
-40.0
 20
-6.3500004987643157
 30
0.0
 11
-40.0
 21
-4.2584147658356244
 31
0.0
  0
LINE
  5
1C0A
  8
0
  6
CONTINUOUS
 62
     7
 10
-37.5
 20
-6.2000004987643251
 30
0.0
 11
-37.5
 21
-4.2584147658356244
 31
0.0
  0
LINE
  5
1C47
  8
0
  6
CONTINUOUS
 62
     7
 10
131.1879030858631
 20
39.999999501235678
 30
0.0
 11
181.18790308586301
 21
39.999999501235678
 31
0.0
  0
LINE
  5
1C48
  8
0
  6
CONTINUOUS
 62
     7
 10
131.1879030858631
 20
24.999999501235681
 30
0.0
 11
181.18790308586301
 21
24.999999501235681
 31
0.0
  0
LINE
  5
1C49
  8
0
  6
CONTINUOUS
 62
     7
 10
131.1879030858631
 20
22.999999501235681
 30
0.0
 11
181.18790308586301
 21
22.999999501235681
 31
0.0
  0
LINE
  5
1C4A
  8
0
  6
CONTINUOUS
 62
     7
 10
131.1879030858631
 20
21.68617550123567
 30
0.0
 11
181.18790308586301
 21
21.68617550123567
 31
0.0
  0
LINE
  5
1C4B
  8
0
  6
CONTINUOUS
 62
     7
 10
131.1879030858631
 20
19.99998750123568
 30
0.0
 11
181.18790308586301
 21
19.99998750123568
 31
0.0
  0
LINE
  5
1C4C
  8
0
  6
CONTINUOUS
 62
     7
 10
131.1879030858631
 20
14.999999501235671
 30
0.0
 11
181.18790308586301
 21
14.999999501235671
 31
0.0
  0
LINE
  5
1C4D
  8
0
  6
CONTINUOUS
 62
     7
 10
131.1879030858631
 20
-0.0000004987643223
 30
0.0
 11
181.18790308586301
 21
-0.0000004987643223
 31
0.0
  0
LINE
  5
1C4E
  8
0
  6
CONTINUOUS
 62
     7
 10
131.1879030858631
 20
-15.000000498764321
 30
0.0
 11
181.18790308586301
 21
-15.000000498764321
 31
0.0
  0
LINE
  5
1C4F
  8
0
  6
CONTINUOUS
 62
     7
 10
131.1879030858631
 20
-17.000000498764319
 30
0.0
 11
181.18790308586301
 21
-17.000000498764319
 31
0.0
  0
LINE
  5
1C50
  8
0
  6
CONTINUOUS
 62
     7
 10
131.1879030858631
 20
-18.313809498764329
 30
0.0
 11
181.18790308586301
 21
-18.313809498764329
 31
0.0
  0
LINE
  5
1C51
  8
0
  6
CONTINUOUS
 62
     7
 10
131.1879030858631
 20
-19.99998749876432
 30
0.0
 11
181.18790308586301
 21
-19.99998749876432
 31
0.0
  0
LINE
  5
1C52
  8
0
  6
CONTINUOUS
 62
     7
 10
131.1879030858631
 20
-25.00000049876428
 30
0.0
 11
181.18790308586301
 21
-25.00000049876428
 31
0.0
  0
LINE
  5
1C53
  8
0
  6
CONTINUOUS
 62
     7
 10
131.1879030858631
 20
-40.000000498764287
 30
0.0
 11
181.18790308586301
 21
-40.000000498764287
 31
0.0
  0
LINE
  5
1C54
  8
0
  6
CONTINUOUS
 62
     7
 10
131.1879030858631
 20
39.999999501235678
 30
0.0
 11
131.1879030858631
 21
-40.000000498764287
 31
0.0
  0
LINE
  5
1C55
  8
0
  6
CONTINUOUS
 62
     7
 10
181.18790308586301
 20
39.999999501235678
 30
0.0
 11
181.18790308586301
 21
-40.000000498764287
 31
0.0
  0
LINE
  5
1C56
  8
CENTER
  6
CENTER
 62
     1
 10
129.18790308586301
 20
19.99998750123568
 30
0.0
 11
183.1879030858631
 21
19.99998750123568
 31
0.0
  0
LINE
  5
1C57
  8
CENTER
  6
CENTER
 62
     1
 10
129.18790308586301
 20
-19.99998749876432
 30
0.0
 11
183.1879030858631
 21
-19.99998749876432
 31
0.0
  0
LINE
  5
1C58
  8
CENTER
  6
CENTER
 62
     1
 10
129.18790308586301
 20
-0.0000004987643223
 30
0.0
 11
183.1879030858631
 21
-0.0000004987643223
 31
0.0
  0
INSERT
  5
1C5A
  8
0
  6
CONTINUOUS
 62
     7
  2
*U23
 10
0.0
 20
0.0
 30
0.0
  0
INSERT
  5
1C5B
  8
0
  6
CONTINUOUS
 62
     7
  2
*U24
 10
0.0
 20
0.0
 30
0.0
  0
CIRCLE
  5
1CAA
  8
0
  6
PHANTOM
 62
     3
 10
-20.0
 20
19.999999501235681
 30
0.0
 40
3.399999999999999
  0
CIRCLE
  5
1CAB
  8
0
  6
PHANTOM
 62
     3
 10
19.999999999999972
 20
19.999999501235681
 30
0.0
 40
3.399999999999999
  0
CIRCLE
  5
1CAC
  8
0
  6
PHANTOM
 62
     3
 10
19.999999999999972
 20
-20.000000498764319
 30
0.0
 40
3.399999999999999
  0
CIRCLE
  5
1CAD
  8
0
  6
PHANTOM
 62
     3
 10
-20.0
 20
-20.000000498764319
 30
0.0
 40
3.399999999999999
  0
ENDSEC
  0
EOF
