  0
SECTION
  2
HEADER
  9
$ACADVER
  1
AC1009
  9
$INSBASE
 10
0.0
 20
0.0
 30
0.0
  9
$EXTMIN
 10
-21.999999999999989
 20
-44.874141945984782
 30
0.0
  9
$EXTMAX
 10
118.0066929011218
 20
22.0
 30
0.0
  9
$LIMMIN
 10
0.0
 20
0.0
  9
$LIMMAX
 10
420.0
 20
297.0
  9
$ORTHOMODE
 70
     0
  9
$REGENMODE
 70
     1
  9
$FILLMODE
 70
     1
  9
$QTEXTMODE
 70
     0
  9
$MIRRTEXT
 70
     0
  9
$DRAGMODE
 70
     2
  9
$LTSCALE
 40
1.0
  9
$OSMODE
 70
  2109
  9
$ATTMODE
 70
     1
  9
$TEXTSIZE
 40
3.0
  9
$TRACEWID
 40
1.0
  9
$TEXTSTYLE
  7
STANDARD
  9
$CLAYER
  8
0
  9
$CELTYPE
  6
CONTINUOUS
  9
$CECOLOR
 62
     7
  9
$DIMSCALE
 40
1.0
  9
$DIMASZ
 40
2.5
  9
$DIMEXO
 40
0.625
  9
$DIMDLI
 40
3.75
  9
$DIMRND
 40
0.0
  9
$DIMDLE
 40
0.0
  9
$DIMEXE
 40
1.25
  9
$DIMTP
 40
0.0
  9
$DIMTM
 40
0.0
  9
$DIMTXT
 40
2.5
  9
$DIMCEN
 40
2.5
  9
$DIMTSZ
 40
0.0
  9
$DIMTOL
 70
     0
  9
$DIMLIM
 70
     0
  9
$DIMTIH
 70
     0
  9
$DIMTOH
 70
     0
  9
$DIMSE1
 70
     0
  9
$DIMSE2
 70
     0
  9
$DIMTAD
 70
     1
  9
$DIMZIN
 70
     8
  9
$DIMBLK
  1
OPEN30
  9
$DIMASO
 70
     1
  9
$DIMSHO
 70
     1
  9
$DIMPOST
  1

  9
$DIMAPOST
  1

  9
$DIMALT
 70
     0
  9
$DIMALTD
 70
     3
  9
$DIMALTF
 40
0.03937007874016
  9
$DIMLFAC
 40
1.0
  9
$DIMTOFL
 70
     1
  9
$DIMTVP
 40
0.0
  9
$DIMTIX
 70
     0
  9
$DIMSOXD
 70
     0
  9
$DIMSAH
 70
     0
  9
$DIMBLK1
  1

  9
$DIMBLK2
  1

  9
$DIMSTYLE
  2
MISUMI
  9
$DIMCLRD
 70
   137
  9
$DIMCLRE
 70
   137
  9
$DIMCLRT
 70
   137
  9
$DIMTFAC
 40
1.0
  9
$DIMGAP
 40
0.625
  9
$LUNITS
 70
     2
  9
$LUPREC
 70
     2
  9
$SKETCHINC
 40
1.0
  9
$FILLETRAD
 40
0.0
  9
$AUNITS
 70
     0
  9
$AUPREC
 70
     0
  9
$MENU
  1
.
  9
$ELEVATION
 40
0.0
  9
$PELEVATION
 40
0.0
  9
$THICKNESS
 40
0.0
  9
$LIMCHECK
 70
     0
  9
$BLIPMODE
 70
     0
  9
$CHAMFERA
 40
0.5
  9
$CHAMFERB
 40
0.5
  9
$SKPOLY
 70
     0
  9
$TDCREATE
 40
2455135.5720697111
  9
$TDUPDATE
 40
2455656.6061883448
  9
$TDINDWG
 40
0.0681178935
  9
$TDUSRTIMER
 40
0.0681177083
  9
$USRTIMER
 70
     1
  9
$ANGBASE
 50
0.0
  9
$ANGDIR
 70
     0
  9
$PDMODE
 70
    35
  9
$PDSIZE
 40
0.0
  9
$PLINEWID
 40
0.0
  9
$COORDS
 70
     1
  9
$SPLFRAME
 70
     0
  9
$SPLINETYPE
 70
     6
  9
$SPLINESEGS
 70
     8
  9
$ATTDIA
 70
     0
  9
$ATTREQ
 70
     1
  9
$HANDLING
 70
     1
  9
$HANDSEED
  5
2092
  9
$SURFTAB1
 70
     6
  9
$SURFTAB2
 70
     6
  9
$SURFTYPE
 70
     6
  9
$SURFU
 70
     6
  9
$SURFV
 70
     6
  9
$UCSNAME
  2

  9
$UCSORG
 10
0.0
 20
0.0
 30
0.0
  9
$UCSXDIR
 10
1.0
 20
0.0
 30
0.0
  9
$UCSYDIR
 10
0.0
 20
1.0
 30
0.0
  9
$PUCSNAME
  2

  9
$PUCSORG
 10
0.0
 20
0.0
 30
0.0
  9
$PUCSXDIR
 10
1.0
 20
0.0
 30
0.0
  9
$PUCSYDIR
 10
0.0
 20
1.0
 30
0.0
  9
$USERI1
 70
     0
  9
$USERI2
 70
     0
  9
$USERI3
 70
     0
  9
$USERI4
 70
     0
  9
$USERI5
 70
     0
  9
$USERR1
 40
0.0
  9
$USERR2
 40
0.0
  9
$USERR3
 40
0.0
  9
$USERR4
 40
0.0
  9
$USERR5
 40
0.0
  9
$WORLDVIEW
 70
     1
  9
$SHADEDGE
 70
     3
  9
$SHADEDIF
 70
    70
  9
$TILEMODE
 70
     1
  9
$MAXACTVP
 70
    64
  9
$PLIMCHECK
 70
     0
  9
$PEXTMIN
 10
0.0
 20
0.0
 30
0.0
  9
$PEXTMAX
 10
0.0
 20
0.0
 30
0.0
  9
$PLIMMIN
 10
0.0
 20
0.0
  9
$PLIMMAX
 10
12.0
 20
9.0
  9
$UNITMODE
 70
     0
  9
$VISRETAIN
 70
     1
  9
$PLINEGEN
 70
     0
  9
$PSLTSCALE
 70
     1
  0
ENDSEC
  0
SECTION
  2
TABLES
  0
TABLE
  2
VPORT
 70
     1
  0
VPORT
  2
*ACTIVE
 70
     0
 10
0.0
 20
0.0
 11
1.0
 21
1.0
 12
41.354619585331363
 22
16.478399375062018
 13
0.0
 23
0.0
 14
10.0
 24
10.0
 15
10.0
 25
10.0
 16
0.0
 26
0.0
 36
1.0
 17
0.0
 27
0.0
 37
0.0
 40
171.4299840769103
 41
1.0918367346938771
 42
50.0
 43
0.0
 44
0.0
 50
0.0
 51
0.0
 71
     0
 72
  1000
 73
     1
 74
     3
 75
     0
 76
     0
 77
     0
 78
     0
  0
ENDTAB
  0
TABLE
  2
LTYPE
 70
     4
  0
LTYPE
  2
CONTINUOUS
 70
     0
  3
Solid line
 72
    65
 73
     0
 40
0.0
  0
LTYPE
  2
CENTER
 70
     0
  3
Center ____ _ ____ _ ____ _ ____ _ ____ _ ____
 72
    65
 73
     4
 40
50.799999999999997
 49
31.75
 49
-6.3499999999999988
 49
6.3499999999999988
 49
-6.3499999999999988
  0
LTYPE
  2
DASHED
 70
     0
  3
Dashed __ __ __ __ __ __ __ __ __ __ __ __ __ _
 72
    65
 73
     2
 40
19.050000000000001
 49
12.699999999999999
 49
-6.3499999999999988
  0
LTYPE
  2
PHANTOM
 70
     0
  3
Phantom ______  __  __  ______  __  __  ______
 72
    65
 73
     6
 40
63.5
 49
31.75
 49
-6.3499999999999988
 49
6.3499999999999988
 49
-6.3499999999999988
 49
6.3499999999999988
 49
-6.3499999999999988
  0
ENDTAB
  0
TABLE
  2
LAYER
 70
     3
  0
LAYER
  2
0
 70
     0
 62
     7
  6
CONTINUOUS
  0
LAYER
  2
CENTER
 70
     0
 62
     1
  6
CENTER
  0
LAYER
  2
DEFPOINTS
 70
     0
 62
     7
  6
CONTINUOUS
  0
ENDTAB
  0
TABLE
  2
STYLE
 70
     1
  0
STYLE
  2
STANDARD
 70
     0
 40
3.0
 41
1.0
 50
0.0
 71
     0
 42
3.0
  3
txt.shx
  4
bigfont.shx
  0
ENDTAB
  0
TABLE
  2
VIEW
 70
     0
  0
ENDTAB
  0
TABLE
  2
UCS
 70
     0
  0
ENDTAB
  0
TABLE
  2
APPID
 70
     7
  0
APPID
  2
ACAD
 70
     0
  0
APPID
  2
ACAD_MLEADERVER
 70
     0
  0
APPID
  2
ACAD_PSEXT
 70
     0
  0
APPID
  2
ACAD_DSTYLE_DIMRADIAL_EXTENSION
 70
     0
  0
APPID
  2
ACAD_EXEMPT_FROM_CAD_STANDARDS
 70
     0
  0
APPID
  2
GRADIENTCOLOR1ACI
 70
     0
  0
APPID
  2
GRADIENTCOLOR2ACI
 70
     0
  0
ENDTAB
  0
TABLE
  2
DIMSTYLE
 70
     1
  0
DIMSTYLE
  2
MISUMI
 70
     0
  3

  4

  5
OPEN30
  6

  7

 40
1.0
 41
2.5
 42
0.625
 43
3.75
 44
1.25
 45
0.0
 46
0.0
 47
0.0
 48
0.0
140
2.5
141
2.5
142
0.0
143
0.03937007874016
144
1.0
145
0.0
146
1.0
147
0.625
 71
     0
 72
     0
 73
     0
 74
     0
 75
     0
 76
     0
 77
     1
 78
     8
170
     0
171
     3
172
     1
173
     0
174
     0
175
     0
176
   137
177
   137
178
   137
  0
ENDTAB
  0
ENDSEC
  0
SECTION
  2
BLOCKS
  0
BLOCK
  8
0
  2
$MODEL_SPACE
 70
     0
 10
0.0
 20
0.0
 30
0.0
  3
$MODEL_SPACE
  1

  0
ENDBLK
  5
21
  8
0
  0
BLOCK
 67
     1
  8
0
  2
$PAPER_SPACE
 70
     0
 10
0.0
 20
0.0
 30
0.0
  3
$PAPER_SPACE
  1

  0
ENDBLK
  5
53
 67
     1
  8
0
  0
BLOCK
  8
0
 62
     7
  2
_OPEN30
 70
     0
 10
0.0
 20
0.0
 30
0.0
  3
_OPEN30
  1

  0
LINE
  5
D7
  8
0
  6
BYBLOCK
 62
     0
 10
-1.0
 20
0.26794919
 30
0.0
 11
0.0
 21
0.0
 31
0.0
  0
LINE
  5
D8
  8
0
  6
BYBLOCK
 62
     0
 10
0.0
 20
0.0
 30
0.0
 11
-1.0
 21
-0.26794919
 31
0.0
  0
LINE
  5
D9
  8
0
  6
BYBLOCK
 62
     0
 10
0.0
 20
0.0
 30
0.0
 11
-1.0
 21
0.0
 31
0.0
  0
ENDBLK
  5
DB
  8
0
 62
     7
  0
BLOCK
  8
0
 62
     7
  2
*U2
 70
     1
 10
0.0
 20
0.0
 30
0.0
  3
*U2
  1

  0
TEXT
  5
208B
  8
0
  6
CONTINUOUS
 62
     7
 10
-19.999999999999972
 20
-38.84239379907649
 30
0.0
 40
3.0
  1
NEFS8-4040-50
  0
ENDBLK
  5
208D
  8
0
 62
     7
  0
BLOCK
  8
0
 62
     7
  2
*U3
 70
     1
 10
0.0
 20
0.0
 30
0.0
  3
*U3
  1

  0
TEXT
  5
208F
  8
0
  6
CONTINUOUS
 62
     7
 10
-19.999999999999972
 20
-44.874141945984782
 30
0.0
 40
3.0
  1
NEFS8-4040
  0
ENDBLK
  5
2091
  8
0
 62
     7
  0
ENDSEC
  0
SECTION
  2
ENTITIES
  0
LINE
  5
19D8
  8
0
  6
CONTINUOUS
 62
     7
 10
-9.9999999999999716
 20
-11.767766999999999
 30
0.0
 11
-9.9999999999999716
 21
-14.199999999999999
 31
0.0
  0
LINE
  5
19D9
  8
0
  6
CONTINUOUS
 62
     7
 10
-11.767767000000051
 20
-10.0
 30
0.0
 11
-14.19999999999999
 21
-10.0
 31
0.0
  0
ARC
  5
19DA
  8
0
  6
CONTINUOUS
 62
     7
 10
-14.19999999999999
 20
-9.7000000000000028
 30
0.0
 40
0.3
 50
180.0
 51
270.0
  0
LINE
  5
19DB
  8
0
  6
CONTINUOUS
 62
     7
 10
-5.7322329999999786
 20
-7.5
 30
0.0
 11
-9.9999999999999716
 21
-11.767766999999999
 31
0.0
  0
LINE
  5
19DC
  8
0
  6
CONTINUOUS
 62
     7
 10
-7.4999999999999707
 20
-5.7322330000001207
 30
0.0
 11
-11.767767000000051
 21
-10.0
 31
0.0
  0
LINE
  5
19DD
  8
0
  6
CONTINUOUS
 62
     7
 10
-5.2999999999999821
 20
-20.00000000000006
 30
0.0
 11
-16.999999999999972
 21
-20.0
 31
0.0
  0
LINE
  5
19DE
  8
0
  6
CONTINUOUS
 62
     7
 10
-19.999999999999972
 20
-5.2999999999999972
 30
0.0
 11
-19.999999999999972
 21
-17.0
 31
0.0
  0
ARC
  5
19DF
  8
0
  6
CONTINUOUS
 62
     7
 10
-16.999999999999972
 20
-17.0
 30
0.0
 40
3.0
 50
180.0
 51
270.0
  0
LINE
  5
19E0
  8
0
  6
CONTINUOUS
 62
     7
 10
-14.49999999999997
 20
-5.2999999999999972
 30
0.0
 11
-14.49999999999997
 21
-9.7000000000000028
 31
0.0
  0
ARC
  5
19E1
  8
0
  6
CONTINUOUS
 62
     7
 10
-14.799999999999979
 20
-5.2999999999999972
 30
0.0
 40
0.3
 50
0.0
 51
90.0
  0
LINE
  5
19E2
  8
0
  6
CONTINUOUS
 62
     7
 10
-5.2999999999999821
 20
-14.5
 30
0.0
 11
-9.6999999999999886
 21
-14.5
 31
0.0
  0
ARC
  5
19E3
  8
0
  6
CONTINUOUS
 62
     7
 10
-9.6999999999999886
 20
-14.199999999999999
 30
0.0
 40
0.3
 50
180.0
 51
270.0
  0
LINE
  5
19E4
  8
0
  6
CONTINUOUS
 62
     7
 10
-16.17530492340466
 20
-5.0
 30
0.0
 11
-14.799999999999979
 21
-5.0
 31
0.0
  0
LINE
  5
19E5
  8
0
  6
CONTINUOUS
 62
     7
 10
-4.9999999999999707
 20
-18.224695076595349
 30
0.0
 11
-4.9999999999999707
 21
-19.699999999999999
 31
0.0
  0
ARC
  5
19E6
  8
0
  6
CONTINUOUS
 62
     7
 10
-5.2999999999999821
 20
-19.699999999999999
 30
0.0
 40
0.3
 50
270.0
 51
0.0000000000008142
  0
LINE
  5
19E7
  8
0
  6
CONTINUOUS
 62
     7
 10
-4.9999999999999707
 20
-16.175304923404688
 30
0.0
 11
-4.9999999999999707
 21
-14.800000000000111
 31
0.0
  0
ARC
  5
19E8
  8
0
  6
CONTINUOUS
 62
     7
 10
-5.2999999999999821
 20
-14.800000000000111
 30
0.0
 40
0.3
 50
0.0
 51
90.0
  0
ARC
  5
19E9
  8
0
  6
CONTINUOUS
 62
     7
 10
-4.4999999999999707
 20
-17.199999999999999
 30
0.0
 40
1.0
 50
127.9798724448702
 51
232.02012755512979
  0
ARC
  5
19EA
  8
0
  6
CONTINUOUS
 62
     7
 10
-5.2999999999999821
 20
-18.224695076595349
 30
0.0
 40
0.3
 50
0.0
 51
52.020127555129797
  0
ARC
  5
19EB
  8
0
  6
CONTINUOUS
 62
     7
 10
-5.2999999999999821
 20
-16.175304923404688
 30
0.0
 40
0.3
 50
307.97987244486831
 51
0.0
  0
LINE
  5
19EC
  8
0
  6
CONTINUOUS
 62
     7
 10
-18.22469507659525
 20
-5.0
 30
0.0
 11
-19.699999999999989
 21
-5.0
 31
0.0
  0
ARC
  5
19ED
  8
0
  6
CONTINUOUS
 62
     7
 10
-19.699999999999989
 20
-5.2999999999999972
 30
0.0
 40
0.3
 50
90.0
 51
180.0
  0
ARC
  5
19EE
  8
0
  6
CONTINUOUS
 62
     7
 10
-17.200000000000038
 20
-4.5
 30
0.0
 40
1.0
 50
217.97987244486961
 51
322.02012755513039
  0
ARC
  5
19EF
  8
0
  6
CONTINUOUS
 62
     7
 10
-16.17530492340466
 20
-5.2999999999999972
 30
0.0
 40
0.3
 50
90.0
 51
142.02012755513209
  0
ARC
  5
19F0
  8
0
  6
CONTINUOUS
 62
     7
 10
-18.22469507659525
 20
-5.2999999999999972
 30
0.0
 40
0.3
 50
37.979872444867908
 51
90.0
  0
LINE
  5
19F1
  8
0
  6
CONTINUOUS
 62
     7
 10
11.767767000000021
 20
-10.0
 30
0.0
 11
14.20000000000001
 21
-10.00000000000011
 31
0.0
  0
LINE
  5
19F2
  8
0
  6
CONTINUOUS
 62
     7
 10
10.00000000000003
 20
-11.767766999999999
 30
0.0
 11
10.00000000000003
 21
-14.199999999999999
 31
0.0
  0
ARC
  5
19F3
  8
0
  6
CONTINUOUS
 62
     7
 10
9.7000000000000171
 20
-14.199999999999999
 30
0.0
 40
0.3
 50
270.0
 51
0.0
  0
LINE
  5
19F4
  8
0
  6
CONTINUOUS
 62
     7
 10
7.5000000000000284
 20
-5.7322330000001207
 30
0.0
 11
11.767767000000021
 21
-10.0
 31
0.0
  0
LINE
  5
19F5
  8
0
  6
CONTINUOUS
 62
     7
 10
5.7322329999999511
 20
-7.5
 30
0.0
 11
10.00000000000003
 21
-11.767766999999999
 31
0.0
  0
LINE
  5
19F6
  8
0
  6
CONTINUOUS
 62
     7
 10
20.000000000000028
 20
-5.2999999999999972
 30
0.0
 11
20.000000000000028
 21
-17.0
 31
0.0
  0
ARC
  5
19F7
  8
0
  6
CONTINUOUS
 62
     7
 10
19.700000000000021
 20
-5.2999999999999972
 30
0.0
 40
0.3
 50
0.0
 51
90.0
  0
LINE
  5
19F8
  8
0
  6
CONTINUOUS
 62
     7
 10
5.3000000000000114
 20
-20.0
 30
0.0
 11
17.000000000000028
 21
-20.0
 31
0.0
  0
ARC
  5
19F9
  8
0
  6
CONTINUOUS
 62
     7
 10
17.000000000000028
 20
-17.0
 30
0.0
 40
3.0
 50
270.0
 51
0.0
  0
LINE
  5
19FA
  8
0
  6
CONTINUOUS
 62
     7
 10
5.3000000000000114
 20
-14.5
 30
0.0
 11
9.7000000000000171
 21
-14.5
 31
0.0
  0
ARC
  5
19FB
  8
0
  6
CONTINUOUS
 62
     7
 10
5.3000000000000114
 20
-14.79999999999999
 30
0.0
 40
0.3
 50
90.0
 51
180.0
  0
LINE
  5
19FC
  8
0
  6
CONTINUOUS
 62
     7
 10
14.50000000000003
 20
-5.2999999999999972
 30
0.0
 11
14.50000000000003
 21
-9.7000000000001165
 31
0.0
  0
ARC
  5
19FD
  8
0
  6
CONTINUOUS
 62
     7
 10
14.20000000000001
 20
-9.7000000000001165
 30
0.0
 40
0.3
 50
270.0
 51
0.0
  0
LINE
  5
19FE
  8
0
  6
CONTINUOUS
 62
     7
 10
5.0000000000000284
 20
-16.17530492340293
 30
0.0
 11
5.0000000000000284
 21
-14.79999999999999
 31
0.0
  0
LINE
  5
19FF
  8
0
  6
CONTINUOUS
 62
     7
 10
18.224695076597129
 20
-5.0
 30
0.0
 11
19.700000000000021
 21
-5.0
 31
0.0
  0
LINE
  5
1A00
  8
0
  6
CONTINUOUS
 62
     7
 10
16.17530492340293
 20
-5.0
 30
0.0
 11
14.80000000000001
 21
-5.0
 31
0.0
  0
ARC
  5
1A01
  8
0
  6
CONTINUOUS
 62
     7
 10
14.80000000000001
 20
-5.2999999999999972
 30
0.0
 40
0.3
 50
90.0
 51
180.0
  0
ARC
  5
1A02
  8
0
  6
CONTINUOUS
 62
     7
 10
17.20000000000001
 20
-4.5
 30
0.0
 40
1.0
 50
217.97987244482201
 51
322.02012755517802
  0
ARC
  5
1A03
  8
0
  6
CONTINUOUS
 62
     7
 10
18.224695076597129
 20
-5.2999999999999972
 30
0.0
 40
0.3
 50
90.0
 51
142.0201275551803
  0
ARC
  5
1A04
  8
0
  6
CONTINUOUS
 62
     7
 10
16.17530492340293
 20
-5.30000000000011
 30
0.0
 40
0.3
 50
37.979872444822
 51
89.999999999995111
  0
LINE
  5
1A05
  8
0
  6
CONTINUOUS
 62
     7
 10
5.0000000000000284
 20
-18.22469507659714
 30
0.0
 11
5.0000000000000284
 21
-19.699999999999999
 31
0.0
  0
ARC
  5
1A06
  8
0
  6
CONTINUOUS
 62
     7
 10
5.3000000000000114
 20
-19.699999999999999
 30
0.0
 40
0.3
 50
180.0
 51
270.0
  0
ARC
  5
1A07
  8
0
  6
CONTINUOUS
 62
     7
 10
4.5000000000000284
 20
-17.199999999999999
 30
0.0
 40
1.0
 50
307.97987244482078
 51
52.020127555177368
  0
ARC
  5
1A08
  8
0
  6
CONTINUOUS
 62
     7
 10
5.3000000000000114
 20
-16.17530492340293
 30
0.0
 40
0.3
 50
180.0
 51
232.02012755518089
  0
ARC
  5
1A09
  8
0
  6
CONTINUOUS
 62
     7
 10
5.3000000000000114
 20
-18.22469507659714
 30
0.0
 40
0.3
 50
127.9798724448231
 51
180.0
  0
LINE
  5
1A0A
  8
0
  6
CONTINUOUS
 62
     7
 10
10.00000000000003
 20
11.76776699999999
 30
0.0
 11
10.00000000000003
 21
14.19999999999987
 31
0.0
  0
ARC
  5
1A0B
  8
0
  6
CONTINUOUS
 62
     7
 10
9.7000000000000171
 20
14.19999999999987
 30
0.0
 40
0.3
 50
0.0
 51
90.0
  0
LINE
  5
1A0C
  8
0
  6
CONTINUOUS
 62
     7
 10
11.767767000000021
 20
10.0
 30
0.0
 11
14.20000000000001
 21
9.9999999999998863
 31
0.0
  0
LINE
  5
1A0D
  8
0
  6
CONTINUOUS
 62
     7
 10
5.7322329999999511
 20
7.5
 30
0.0
 11
10.00000000000003
 21
11.76776699999999
 31
0.0
  0
LINE
  5
1A0E
  8
0
  6
CONTINUOUS
 62
     7
 10
7.5000000000000284
 20
5.7322329999999928
 30
0.0
 11
11.767767000000021
 21
10.0
 31
0.0
  0
LINE
  5
1A0F
  8
0
  6
CONTINUOUS
 62
     7
 10
0.6535900000000084
 20
7.5
 30
0.0
 11
5.7322329999999511
 21
7.5
 31
0.0
  0
LINE
  5
1A10
  8
0
  6
CONTINUOUS
 62
     7
 10
0.4035899999999515
 20
7.4330120000000051
 30
0.0
 11
0.0000000000000284
 21
7.1999999999998892
 31
0.0
  0
LINE
  5
1A11
  8
0
  6
CONTINUOUS
 62
     7
 10
5.3000000000000114
 20
20.0
 30
0.0
 11
17.000000000000028
 21
20.0
 31
0.0
  0
ARC
  5
1A12
  8
0
  6
CONTINUOUS
 62
     7
 10
5.3000000000000114
 20
19.699999999999871
 30
0.0
 40
0.3
 50
90.0
 51
180.0
  0
LINE
  5
1A13
  8
0
  6
CONTINUOUS
 62
     7
 10
20.000000000000028
 20
5.2999999999999972
 30
0.0
 11
20.000000000000028
 21
16.999999999999879
 31
0.0
  0
ARC
  5
1A14
  8
0
  6
CONTINUOUS
 62
     7
 10
19.700000000000021
 20
5.2999999999999972
 30
0.0
 40
0.3
 50
270.0
 51
0.0
  0
ARC
  5
1A15
  8
0
  6
CONTINUOUS
 62
     7
 10
17.000000000000028
 20
16.999999999999879
 30
0.0
 40
3.0
 50
0.0
 51
90.0
  0
LINE
  5
1A16
  8
0
  6
CONTINUOUS
 62
     7
 10
14.50000000000003
 20
5.2999999999999972
 30
0.0
 11
14.50000000000003
 21
9.7000000000000028
 31
0.0
  0
ARC
  5
1A17
  8
0
  6
CONTINUOUS
 62
     7
 10
14.20000000000001
 20
9.7000000000000028
 30
0.0
 40
0.3
 50
0.0
 51
90.0
  0
LINE
  5
1A18
  8
0
  6
CONTINUOUS
 62
     7
 10
5.3000000000000114
 20
14.5
 30
0.0
 11
9.7000000000000171
 21
14.5
 31
0.0
  0
LINE
  5
1A19
  8
0
  6
CONTINUOUS
 62
     7
 10
16.17530492340293
 20
5.0
 30
0.0
 11
14.80000000000001
 21
5.0
 31
0.0
  0
ARC
  5
1A1A
  8
0
  6
CONTINUOUS
 62
     7
 10
14.80000000000001
 20
5.2999999999999972
 30
0.0
 40
0.3
 50
180.0
 51
270.0
  0
LINE
  5
1A1B
  8
0
  6
CONTINUOUS
 62
     7
 10
5.0000000000000284
 20
18.224695076596991
 30
0.0
 11
5.0000000000000284
 21
19.699999999999871
 31
0.0
  0
LINE
  5
1A1C
  8
0
  6
CONTINUOUS
 62
     7
 10
5.0000000000000284
 20
16.17530492340288
 30
0.0
 11
5.0000000000000284
 21
14.80000000000001
 31
0.0
  0
ARC
  5
1A1D
  8
0
  6
CONTINUOUS
 62
     7
 10
5.3000000000000114
 20
14.80000000000001
 30
0.0
 40
0.3
 50
180.0
 51
270.0
  0
ARC
  5
1A1E
  8
0
  6
CONTINUOUS
 62
     7
 10
4.5000000000000284
 20
17.199999999999989
 30
0.0
 40
1.0
 50
307.97987244482078
 51
52.020127555177368
  0
ARC
  5
1A1F
  8
0
  6
CONTINUOUS
 62
     7
 10
5.3000000000000114
 20
18.224695076596991
 30
0.0
 40
0.3
 50
180.0
 51
232.02012755518089
  0
ARC
  5
1A20
  8
0
  6
CONTINUOUS
 62
     7
 10
5.3000000000000114
 20
16.17530492340288
 30
0.0
 40
0.3
 50
127.9798724448231
 51
180.0
  0
LINE
  5
1A21
  8
0
  6
CONTINUOUS
 62
     7
 10
18.224695076597129
 20
5.0
 30
0.0
 11
19.700000000000021
 21
5.0
 31
0.0
  0
ARC
  5
1A22
  8
0
  6
CONTINUOUS
 62
     7
 10
17.20000000000001
 20
4.4999999999998863
 30
0.0
 40
1.0
 50
37.979872444822
 51
142.0201275551803
  0
ARC
  5
1A23
  8
0
  6
CONTINUOUS
 62
     7
 10
18.224695076597129
 20
5.2999999999999972
 30
0.0
 40
0.3
 50
217.9798724448197
 51
270.0
  0
ARC
  5
1A24
  8
0
  6
CONTINUOUS
 62
     7
 10
16.17530492340293
 20
5.2999999999999972
 30
0.0
 40
0.3
 50
270.0
 51
322.02012755517802
  0
LINE
  5
1A25
  8
0
  6
CONTINUOUS
 62
     7
 10
-5.7999999999999821
 20
2.5
 30
0.0
 11
-5.0953410091963738
 21
2.4999999999998859
 31
0.0
  0
ARC
  5
1A26
  8
0
  6
CONTINUOUS
 62
     7
 10
-5.7999999999999821
 20
2.7999999999999972
 30
0.0
 40
0.3
 50
180.0
 51
270.0
  0
LINE
  5
1A27
  8
0
  6
CONTINUOUS
 62
     7
 10
-2.4999999999999711
 20
5.7999999999999972
 30
0.0
 11
-2.4999999999999711
 21
5.0953410091962752
 31
0.0
  0
ARC
  5
1A28
  8
0
  6
CONTINUOUS
 62
     7
 10
-2.7999999999999821
 20
5.7999999999999972
 30
0.0
 40
0.3
 50
0.0
 51
90.0
  0
ARC
  5
1A29
  8
0
  6
CONTINUOUS
 62
     7
 10
0.0000000000000284
 20
0.0
 30
0.0
 40
5.25
 50
156.6469077746095
 51
203.3530922253905
  0
ARC
  5
1A2A
  8
0
  6
CONTINUOUS
 62
     7
 10
-5.0953410091962601
 20
-2.2000000000001161
 30
0.0
 40
0.3
 50
270.0
 51
23.353092225390501
  0
ARC
  5
1A2B
  8
0
  6
CONTINUOUS
 62
     7
 10
-5.0953410091963738
 20
2.1999999999998892
 30
0.0
 40
0.3
 50
336.64690777460947
 51
90.0
  0
LINE
  5
1A2C
  8
0
  6
CONTINUOUS
 62
     7
 10
-5.7999999999999821
 20
-2.5
 30
0.0
 11
-5.0953410091962601
 21
-2.5
 31
0.0
  0
LINE
  5
1A2D
  8
0
  6
CONTINUOUS
 62
     7
 10
-2.4999999999999711
 20
-5.80000000000011
 30
0.0
 11
-2.4999999999999711
 21
-5.0953410091964173
 31
0.0
  0
LINE
  5
1A2E
  8
0
  6
CONTINUOUS
 62
     7
 10
5.8000000000000114
 20
2.5
 30
0.0
 11
5.0953410091964306
 21
2.5
 31
0.0
  0
ARC
  5
1A2F
  8
0
  6
CONTINUOUS
 62
     7
 10
5.8000000000000114
 20
2.7999999999999972
 30
0.0
 40
0.3
 50
270.0
 51
0.0
  0
LINE
  5
1A30
  8
0
  6
CONTINUOUS
 62
     7
 10
2.500000000000028
 20
5.7999999999999972
 30
0.0
 11
2.500000000000028
 21
5.0953410091962752
 31
0.0
  0
LINE
  5
1A31
  8
0
  6
CONTINUOUS
 62
     7
 10
5.8000000000000114
 20
-2.5
 30
0.0
 11
5.0953410091963462
 21
-2.5
 31
0.0
  0
LINE
  5
1A32
  8
0
  6
CONTINUOUS
 62
     7
 10
2.500000000000028
 20
-5.80000000000011
 30
0.0
 11
2.500000000000028
 21
-5.0953410091964173
 31
0.0
  0
ARC
  5
1A33
  8
0
  6
CONTINUOUS
 62
     7
 10
2.8000000000000109
 20
-5.80000000000011
 30
0.0
 40
0.3
 50
180.0
 51
270.0
  0
ARC
  5
1A34
  8
0
  6
CONTINUOUS
 62
     7
 10
0.0000000000000284
 20
0.0
 30
0.0
 40
5.25
 50
246.6469077746103
 51
293.35309222538967
  0
ARC
  5
1A35
  8
0
  6
CONTINUOUS
 62
     7
 10
-2.1999999999999882
 20
-5.0953410091964173
 30
0.0
 40
0.3
 50
66.646907774612075
 51
180.0
  0
ARC
  5
1A36
  8
0
  6
CONTINUOUS
 62
     7
 10
2.2000000000000171
 20
-5.0953410091964173
 30
0.0
 40
0.3
 50
0.0
 51
113.3530922253879
  0
ARC
  5
1A37
  8
0
  6
CONTINUOUS
 62
     7
 10
0.0000000000000284
 20
0.0
 30
0.0
 40
5.25
 50
336.64690777460947
 51
23.353092225390501
  0
ARC
  5
1A38
  8
0
  6
CONTINUOUS
 62
     7
 10
5.0953410091964306
 20
-2.200000000000002
 30
0.0
 40
0.3
 50
156.6469077746095
 51
269.99999999999511
  0
ARC
  5
1A39
  8
0
  6
CONTINUOUS
 62
     7
 10
5.0953410091964306
 20
2.200000000000002
 30
0.0
 40
0.3
 50
90.0
 51
203.3530922253905
  0
ARC
  5
1A3A
  8
0
  6
CONTINUOUS
 62
     7
 10
0.0000000000000284
 20
0.0
 30
0.0
 40
5.25
 50
66.646907774610256
 51
113.3530922253897
  0
ARC
  5
1A3B
  8
0
  6
CONTINUOUS
 62
     7
 10
2.2000000000000171
 20
5.0953410091962752
 30
0.0
 40
0.3
 50
246.64690777461209
 51
0.0
  0
ARC
  5
1A3C
  8
0
  6
CONTINUOUS
 62
     7
 10
-2.1999999999999882
 20
5.0953410091962752
 30
0.0
 40
0.3
 50
180.0
 51
293.35309222538791
  0
LINE
  5
1A3D
  8
0
  6
CONTINUOUS
 62
     7
 10
-11.767767000000051
 20
10.0
 30
0.0
 11
-14.19999999999999
 21
9.9999999999998863
 31
0.0
  0
LINE
  5
1A3E
  8
0
  6
CONTINUOUS
 62
     7
 10
-9.9999999999999716
 20
11.76776699999999
 30
0.0
 11
-9.9999999999999716
 21
14.19999999999987
 31
0.0
  0
ARC
  5
1A3F
  8
0
  6
CONTINUOUS
 62
     7
 10
-9.6999999999999886
 20
14.19999999999987
 30
0.0
 40
0.3
 50
90.0
 51
180.0
  0
LINE
  5
1A40
  8
0
  6
CONTINUOUS
 62
     7
 10
-3.4999999999999711
 20
7.5
 30
0.0
 11
-5.7322329999999786
 21
7.5
 31
0.0
  0
LINE
  5
1A41
  8
0
  6
CONTINUOUS
 62
     7
 10
-7.4999999999999707
 20
5.7322329999999928
 30
0.0
 11
-11.767767000000051
 21
10.0
 31
0.0
  0
LINE
  5
1A42
  8
0
  6
CONTINUOUS
 62
     7
 10
-5.7322329999999786
 20
7.5
 30
0.0
 11
-9.9999999999999716
 21
11.76776699999999
 31
0.0
  0
LINE
  5
1A43
  8
0
  6
CONTINUOUS
 62
     7
 10
6.1000000000000218
 20
-5.6000000000001222
 30
0.0
 11
6.1000000000000218
 21
-2.7999999999999972
 31
0.0
  0
ARC
  5
1A44
  8
0
  6
CONTINUOUS
 62
     7
 10
5.8000000000000114
 20
-2.7999999999999972
 30
0.0
 40
0.3
 50
0.0
 51
90.0
  0
LINE
  5
1A45
  8
0
  6
CONTINUOUS
 62
     7
 10
5.6000000000000218
 20
-6.1000000000001222
 30
0.0
 11
2.8000000000000109
 21
-6.1000000000001222
 31
0.0
  0
LINE
  5
1A46
  8
0
  6
CONTINUOUS
 62
     7
 10
-5.599999999999965
 20
-6.1000000000001222
 30
0.0
 11
-2.7999999999999821
 21
-6.1000000000001222
 31
0.0
  0
ARC
  5
1A47
  8
0
  6
CONTINUOUS
 62
     7
 10
-2.7999999999999821
 20
-5.80000000000011
 30
0.0
 40
0.3
 50
270.0
 51
0.0
  0
LINE
  5
1A48
  8
0
  6
CONTINUOUS
 62
     7
 10
-6.099999999999965
 20
-5.6000000000001222
 30
0.0
 11
-6.099999999999965
 21
-2.7999999999999972
 31
0.0
  0
ARC
  5
1A49
  8
0
  6
CONTINUOUS
 62
     7
 10
-5.7999999999999821
 20
-2.7999999999999972
 30
0.0
 40
0.3
 50
90.0
 51
180.0
  0
LINE
  5
1A4A
  8
0
  6
CONTINUOUS
 62
     7
 10
-6.099999999999965
 20
5.5999999999999943
 30
0.0
 11
-6.099999999999965
 21
2.7999999999999972
 31
0.0
  0
LINE
  5
1A4B
  8
0
  6
CONTINUOUS
 62
     7
 10
-5.599999999999965
 20
6.0999999999999943
 30
0.0
 11
-2.7999999999999821
 21
6.0999999999999943
 31
0.0
  0
ARC
  5
1A4C
  8
0
  6
CONTINUOUS
 62
     7
 10
-5.599999999999965
 20
5.5999999999999943
 30
0.0
 40
0.5
 50
90.0
 51
180.0
  0
ARC
  5
1A4D
  8
0
  6
CONTINUOUS
 62
     7
 10
5.6000000000000218
 20
-5.6000000000001222
 30
0.0
 40
0.5
 50
270.0
 51
0.0
  0
ARC
  5
1A4E
  8
0
  6
CONTINUOUS
 62
     7
 10
-5.599999999999965
 20
-5.6000000000001222
 30
0.0
 40
0.5
 50
180.0
 51
270.0
  0
LINE
  5
1A4F
  8
0
  6
CONTINUOUS
 62
     7
 10
0.0000000000000284
 20
7.1999999999998892
 30
0.0
 11
-0.4035899999999799
 21
7.4330120000000051
 31
0.0
  0
LINE
  5
1A50
  8
0
  6
CONTINUOUS
 62
     7
 10
-1.75241299999999
 20
7.2232089999999971
 30
0.0
 11
-3.4999999999999711
 21
7.5
 31
0.0
  0
LINE
  5
1A51
  8
0
  6
CONTINUOUS
 62
     7
 10
6.1000000000000218
 20
5.5999999999999943
 30
0.0
 11
6.1000000000000218
 21
2.7999999999999972
 31
0.0
  0
LINE
  5
1A52
  8
0
  6
CONTINUOUS
 62
     7
 10
5.6000000000000218
 20
6.0999999999999943
 30
0.0
 11
2.8000000000000109
 21
6.0999999999999943
 31
0.0
  0
ARC
  5
1A53
  8
0
  6
CONTINUOUS
 62
     7
 10
2.8000000000000109
 20
5.7999999999999972
 30
0.0
 40
0.3
 50
90.0
 51
180.0
  0
ARC
  5
1A54
  8
0
  6
CONTINUOUS
 62
     7
 10
5.6000000000000218
 20
5.5999999999999943
 30
0.0
 40
0.5
 50
0.0
 51
90.0
  0
LINE
  5
1A55
  8
0
  6
CONTINUOUS
 62
     7
 10
-19.999999999999972
 20
5.2999999999999972
 30
0.0
 11
-19.999999999999972
 21
16.999999999999879
 31
0.0
  0
ARC
  5
1A56
  8
0
  6
CONTINUOUS
 62
     7
 10
-19.699999999999989
 20
5.2999999999999972
 30
0.0
 40
0.3
 50
180.0
 51
270.0
  0
LINE
  5
1A57
  8
0
  6
CONTINUOUS
 62
     7
 10
-5.2999999999999821
 20
20.0
 30
0.0
 11
-16.999999999999972
 21
20.0
 31
0.0
  0
ARC
  5
1A58
  8
0
  6
CONTINUOUS
 62
     7
 10
-16.999999999999972
 20
16.999999999999879
 30
0.0
 40
3.0
 50
90.0
 51
180.0
  0
LINE
  5
1A59
  8
0
  6
CONTINUOUS
 62
     7
 10
-5.2999999999999821
 20
14.5
 30
0.0
 11
-9.6999999999999886
 21
14.5
 31
0.0
  0
LINE
  5
1A5A
  8
0
  6
CONTINUOUS
 62
     7
 10
-14.49999999999997
 20
5.2999999999999972
 30
0.0
 11
-14.49999999999997
 21
9.7000000000000028
 31
0.0
  0
ARC
  5
1A5B
  8
0
  6
CONTINUOUS
 62
     7
 10
-14.19999999999999
 20
9.7000000000000028
 30
0.0
 40
0.3
 50
90.0
 51
180.0
  0
LINE
  5
1A5C
  8
0
  6
CONTINUOUS
 62
     7
 10
17.207107000000029
 20
14.612697999999989
 30
0.0
 11
14.61269800000002
 21
17.20710600000001
 31
0.0
  0
LINE
  5
1A5D
  8
0
  6
CONTINUOUS
 62
     7
 10
11.30000000000001
 20
14.492514
 30
0.0
 11
11.30000000000001
 21
11.79999999999999
 31
0.0
  0
LINE
  5
1A5E
  8
0
  6
CONTINUOUS
 62
     7
 10
14.49251400000003
 20
11.29999999999999
 30
0.0
 11
11.799999999999949
 21
11.29999999999999
 31
0.0
  0
ARC
  5
1A5F
  8
0
  6
CONTINUOUS
 62
     7
 10
11.799999999999949
 20
11.79999999999999
 30
0.0
 40
0.5
 50
180.0
 51
270.0
  0
ARC
  5
1A60
  8
0
  6
CONTINUOUS
 62
     7
 10
11.00000000000003
 20
16.5
 30
0.0
 40
1.0
 50
90.0
 51
245.8522600000006
  0
ARC
  5
1A61
  8
0
  6
CONTINUOUS
 62
     7
 10
16.500000000000028
 20
11.0
 30
0.0
 40
1.0
 50
204.1477399999994
 51
0.0
  0
LINE
  5
1A62
  8
0
  6
CONTINUOUS
 62
     7
 10
-4.9999999999999707
 20
16.17530492340288
 30
0.0
 11
-4.9999999999999707
 21
14.80000000000001
 31
0.0
  0
ARC
  5
1A63
  8
0
  6
CONTINUOUS
 62
     7
 10
-5.2999999999999821
 20
14.80000000000001
 30
0.0
 40
0.3
 50
270.0
 51
0.0
  0
LINE
  5
1A64
  8
0
  6
CONTINUOUS
 62
     7
 10
-18.224695076597069
 20
5.0
 30
0.0
 11
-19.699999999999989
 21
5.0
 31
0.0
  0
LINE
  5
1A65
  8
0
  6
CONTINUOUS
 62
     7
 10
-16.175304923402852
 20
5.0
 30
0.0
 11
-14.799999999999979
 21
5.0
 31
0.0
  0
ARC
  5
1A66
  8
0
  6
CONTINUOUS
 62
     7
 10
-14.799999999999979
 20
5.2999999999999972
 30
0.0
 40
0.3
 50
270.0
 51
0.0
  0
ARC
  5
1A67
  8
0
  6
CONTINUOUS
 62
     7
 10
-17.200000000000038
 20
4.4999999999998863
 30
0.0
 40
1.0
 50
37.979872444822
 51
142.02012755517961
  0
ARC
  5
1A68
  8
0
  6
CONTINUOUS
 62
     7
 10
-18.224695076597069
 20
5.2999999999999972
 30
0.0
 40
0.3
 50
270.0
 51
322.02012755517802
  0
ARC
  5
1A69
  8
0
  6
CONTINUOUS
 62
     7
 10
-16.175304923402852
 20
5.2999999999999972
 30
0.0
 40
0.3
 50
217.9798724448197
 51
270.0
  0
LINE
  5
1A6A
  8
0
  6
CONTINUOUS
 62
     7
 10
-4.9999999999999707
 20
18.224695076596991
 30
0.0
 11
-4.9999999999999707
 21
19.699999999999871
 31
0.0
  0
ARC
  5
1A6B
  8
0
  6
CONTINUOUS
 62
     7
 10
-5.2999999999999821
 20
19.699999999999871
 30
0.0
 40
0.3
 50
0.0
 51
90.0
  0
ARC
  5
1A6C
  8
0
  6
CONTINUOUS
 62
     7
 10
-4.4999999999999707
 20
17.199999999999989
 30
0.0
 40
1.0
 50
127.9798724448226
 51
232.0201275551774
  0
ARC
  5
1A6D
  8
0
  6
CONTINUOUS
 62
     7
 10
-5.2999999999999821
 20
16.17530492340288
 30
0.0
 40
0.3
 50
0.0
 51
52.020127555180942
  0
ARC
  5
1A6E
  8
0
  6
CONTINUOUS
 62
     7
 10
-5.2999999999999821
 20
18.224695076596991
 30
0.0
 40
0.3
 50
307.97987244481908
 51
0.0
  0
ARC
  5
1A6F
  8
0
  6
CONTINUOUS
 62
     7
 10
10.100000000000019
 20
14.492514
 30
0.0
 40
1.1999999999999991
 50
0.0
 51
65.852260000000655
  0
ARC
  5
1A70
  8
0
  6
CONTINUOUS
 62
     7
 10
14.49251400000003
 20
10.099999999999991
 30
0.0
 40
1.1999999999999991
 50
24.147739999999359
 51
90.0
  0
LINE
  5
1A71
  8
0
  6
CONTINUOUS
 62
     7
 10
11.00000000000003
 20
17.5
 30
0.0
 11
13.90559100000001
 21
17.5
 31
0.0
  0
LINE
  5
1A72
  8
0
  6
CONTINUOUS
 62
     7
 10
17.500000000000028
 20
11.0
 30
0.0
 11
17.500000000000028
 21
13.90559099999999
 31
0.0
  0
ARC
  5
1A73
  8
0
  6
CONTINUOUS
 62
     7
 10
13.90559100000001
 20
16.5
 30
0.0
 40
1.0
 50
44.999999999999417
 51
90.0
  0
ARC
  5
1A74
  8
0
  6
CONTINUOUS
 62
     7
 10
16.500000000000028
 20
13.90559099999999
 30
0.0
 40
1.0
 50
0.0
 51
44.999999999999417
  0
LINE
  5
1A75
  8
0
  6
CONTINUOUS
 62
     7
 10
-14.612697999999961
 20
17.20710600000001
 30
0.0
 11
-17.207106999999979
 21
14.612697999999989
 31
0.0
  0
LINE
  5
1A76
  8
0
  6
CONTINUOUS
 62
     7
 10
-14.49251399999997
 20
11.29999999999999
 30
0.0
 11
-11.799999999999979
 21
11.29999999999999
 31
0.0
  0
LINE
  5
1A77
  8
0
  6
CONTINUOUS
 62
     7
 10
-11.299999999999979
 20
14.492514
 30
0.0
 11
-11.299999999999979
 21
11.79999999999999
 31
0.0
  0
ARC
  5
1A78
  8
0
  6
CONTINUOUS
 62
     7
 10
-11.799999999999979
 20
11.79999999999999
 30
0.0
 40
0.5
 50
270.0
 51
0.0
  0
ARC
  5
1A79
  8
0
  6
CONTINUOUS
 62
     7
 10
-16.499999999999972
 20
11.0
 30
0.0
 40
1.0
 50
180.0
 51
335.85226000000068
  0
ARC
  5
1A7A
  8
0
  6
CONTINUOUS
 62
     7
 10
-10.99999999999997
 20
16.5
 30
0.0
 40
1.0
 50
294.14773999999932
 51
90.0
  0
ARC
  5
1A7B
  8
0
  6
CONTINUOUS
 62
     7
 10
-14.49251399999997
 20
10.099999999999991
 30
0.0
 40
1.1999999999999991
 50
90.0
 51
155.85225999999989
  0
ARC
  5
1A7C
  8
0
  6
CONTINUOUS
 62
     7
 10
-10.099999999999961
 20
14.492514
 30
0.0
 40
1.1999999999999991
 50
114.1477399999993
 51
180.0
  0
LINE
  5
1A7D
  8
0
  6
CONTINUOUS
 62
     7
 10
-17.499999999999972
 20
11.0
 30
0.0
 11
-17.499999999999972
 21
13.90559099999999
 31
0.0
  0
LINE
  5
1A7E
  8
0
  6
CONTINUOUS
 62
     7
 10
-10.99999999999997
 20
17.5
 30
0.0
 11
-13.905592000000039
 21
17.5
 31
0.0
  0
ARC
  5
1A7F
  8
0
  6
CONTINUOUS
 62
     7
 10
-16.499999999999972
 20
13.90559099999999
 30
0.0
 40
1.0
 50
135.00000000000051
 51
180.0
  0
ARC
  5
1A80
  8
0
  6
CONTINUOUS
 62
     7
 10
-13.905592000000039
 20
16.5
 30
0.0
 40
1.0
 50
90.0
 51
135.00000000000051
  0
LINE
  5
1A81
  8
0
  6
CONTINUOUS
 62
     7
 10
-17.207106999999979
 20
-14.612698999999999
 30
0.0
 11
-14.612697999999961
 21
-17.207107000000011
 31
0.0
  0
LINE
  5
1A82
  8
0
  6
CONTINUOUS
 62
     7
 10
-11.299999999999979
 20
-14.492514
 30
0.0
 11
-11.299999999999979
 21
-11.800000000000111
 31
0.0
  0
LINE
  5
1A83
  8
0
  6
CONTINUOUS
 62
     7
 10
-14.49251399999997
 20
-11.29999999999999
 30
0.0
 11
-11.799999999999979
 21
-11.29999999999999
 31
0.0
  0
ARC
  5
1A84
  8
0
  6
CONTINUOUS
 62
     7
 10
-11.799999999999979
 20
-11.800000000000111
 30
0.0
 40
0.5
 50
0.0
 51
90.0
  0
ARC
  5
1A85
  8
0
  6
CONTINUOUS
 62
     7
 10
-10.99999999999997
 20
-16.5
 30
0.0
 40
1.0
 50
270.0
 51
65.852260000000655
  0
ARC
  5
1A86
  8
0
  6
CONTINUOUS
 62
     7
 10
-16.499999999999972
 20
-11.0
 30
0.0
 40
1.0
 50
24.147739999999359
 51
180.0
  0
ARC
  5
1A87
  8
0
  6
CONTINUOUS
 62
     7
 10
-10.099999999999961
 20
-14.492514
 30
0.0
 40
1.1999999999999991
 50
180.0
 51
245.8522600000006
  0
ARC
  5
1A88
  8
0
  6
CONTINUOUS
 62
     7
 10
-14.49251399999997
 20
-10.10000000000012
 30
0.0
 40
1.1999999999999991
 50
204.1477399999994
 51
270.0
  0
LINE
  5
1A89
  8
0
  6
CONTINUOUS
 62
     7
 10
-10.99999999999997
 20
-17.5
 30
0.0
 11
-13.905592000000039
 21
-17.5
 31
0.0
  0
LINE
  5
1A8A
  8
0
  6
CONTINUOUS
 62
     7
 10
-17.499999999999972
 20
-11.0
 30
0.0
 11
-17.499999999999972
 21
-13.905592000000111
 31
0.0
  0
ARC
  5
1A8B
  8
0
  6
CONTINUOUS
 62
     7
 10
-13.905592000000039
 20
-16.5
 30
0.0
 40
1.0
 50
224.9999999999994
 51
270.0
  0
ARC
  5
1A8C
  8
0
  6
CONTINUOUS
 62
     7
 10
-16.499999999999972
 20
-13.905592000000111
 30
0.0
 40
1.0
 50
180.0
 51
224.9999999999994
  0
LINE
  5
1A8D
  8
0
  6
CONTINUOUS
 62
     7
 10
14.61269800000002
 20
-17.207107000000011
 30
0.0
 11
17.207107000000029
 21
-14.612698999999999
 31
0.0
  0
LINE
  5
1A8E
  8
0
  6
CONTINUOUS
 62
     7
 10
14.49251400000003
 20
-11.29999999999999
 30
0.0
 11
11.799999999999949
 21
-11.29999999999999
 31
0.0
  0
LINE
  5
1A8F
  8
0
  6
CONTINUOUS
 62
     7
 10
11.30000000000001
 20
-14.492514
 30
0.0
 11
11.30000000000001
 21
-11.800000000000111
 31
0.0
  0
ARC
  5
1A90
  8
0
  6
CONTINUOUS
 62
     7
 10
11.799999999999949
 20
-11.800000000000111
 30
0.0
 40
0.5
 50
90.0
 51
180.0
  0
ARC
  5
1A91
  8
0
  6
CONTINUOUS
 62
     7
 10
16.500000000000028
 20
-11.0
 30
0.0
 40
1.0
 50
0.0
 51
155.85225999999989
  0
ARC
  5
1A92
  8
0
  6
CONTINUOUS
 62
     7
 10
11.00000000000003
 20
-16.5
 30
0.0
 40
1.0
 50
114.1477399999993
 51
270.0
  0
ARC
  5
1A93
  8
0
  6
CONTINUOUS
 62
     7
 10
14.49251400000003
 20
-10.10000000000012
 30
0.0
 40
1.1999999999999991
 50
270.0
 51
335.85226000000068
  0
ARC
  5
1A94
  8
0
  6
CONTINUOUS
 62
     7
 10
10.100000000000019
 20
-14.492514
 30
0.0
 40
1.1999999999999991
 50
294.14773999999932
 51
0.0
  0
LINE
  5
1A95
  8
0
  6
CONTINUOUS
 62
     7
 10
17.500000000000028
 20
-11.0
 30
0.0
 11
17.500000000000028
 21
-13.905592000000111
 31
0.0
  0
LINE
  5
1A96
  8
0
  6
CONTINUOUS
 62
     7
 10
11.00000000000003
 20
-17.5
 30
0.0
 11
13.90559100000001
 21
-17.5
 31
0.0
  0
ARC
  5
1A97
  8
0
  6
CONTINUOUS
 62
     7
 10
16.500000000000028
 20
-13.905592000000111
 30
0.0
 40
1.0
 50
315.00000000000063
 51
0.0
  0
ARC
  5
1A98
  8
0
  6
CONTINUOUS
 62
     7
 10
13.90559100000001
 20
-16.5
 30
0.0
 40
1.0
 50
270.0
 51
315.00000000000063
  0
LINE
  5
1A99
  8
0
  6
CONTINUOUS
 62
     7
 10
-0.7829989999999896
 20
7.482961999999886
 30
0.0
 11
-1.75241299999999
 21
7.2232089999999971
 31
0.0
  0
ARC
  5
1A9A
  8
0
  6
CONTINUOUS
 62
     7
 10
-0.6535899999999799
 20
7.0
 30
0.0
 40
0.5
 50
59.999999999999858
 51
105.00000000000109
  0
ARC
  5
1A9B
  8
0
  6
CONTINUOUS
 62
     7
 10
0.6535900000000084
 20
7.0
 30
0.0
 40
0.5
 50
90.0
 51
120.0000000000001
  0
LINE
  5
1A9C
  8
0
  6
CONTINUOUS
 62
     7
 10
-7.4829629999999829
 20
-0.7830000000001151
 30
0.0
 11
-7.2232089999999678
 21
-1.752413000000004
 31
0.0
  0
ARC
  5
1A9D
  8
0
  6
CONTINUOUS
 62
     7
 10
-6.9999999999999707
 20
-0.6535900000000084
 30
0.0
 40
0.5
 50
150.00000000000091
 51
194.9999999999996
  0
ARC
  5
1A9E
  8
0
  6
CONTINUOUS
 62
     7
 10
-6.9999999999999707
 20
0.6535889999999966
 30
0.0
 40
0.5
 50
180.0
 51
209.99999999999901
  0
LINE
  5
1A9F
  8
0
  6
CONTINUOUS
 62
     7
 10
-7.4999999999999707
 20
0.6535889999999966
 30
0.0
 11
-7.4999999999999707
 21
5.7322329999999928
 31
0.0
  0
LINE
  5
1AA0
  8
0
  6
CONTINUOUS
 62
     7
 10
-7.4330130000000452
 20
0.4035889999999967
 30
0.0
 11
-7.1999999999999877
 21
0.0
 31
0.0
  0
LINE
  5
1AA1
  8
0
  6
CONTINUOUS
 62
     7
 10
-7.4999999999999707
 20
-3.5
 30
0.0
 11
-7.4999999999999707
 21
-5.7322330000001207
 31
0.0
  0
LINE
  5
1AA2
  8
0
  6
CONTINUOUS
 62
     7
 10
-7.1999999999999877
 20
0.0
 30
0.0
 11
-7.4330130000000452
 21
-0.4035900000001221
 31
0.0
  0
LINE
  5
1AA3
  8
0
  6
CONTINUOUS
 62
     7
 10
-7.2232089999999678
 20
-1.752413000000004
 30
0.0
 11
-7.4999999999999707
 21
-3.5
 31
0.0
  0
LINE
  5
1AA4
  8
0
  6
CONTINUOUS
 62
     7
 10
0.782999000000018
 20
-7.482962999999998
 30
0.0
 11
1.752413000000018
 21
-7.2232099999999937
 31
0.0
  0
ARC
  5
1AA5
  8
0
  6
CONTINUOUS
 62
     7
 10
0.6535900000000084
 20
-7.0000000000001128
 30
0.0
 40
0.5
 50
239.99999999999989
 51
285.00000000000119
  0
ARC
  5
1AA6
  8
0
  6
CONTINUOUS
 62
     7
 10
-0.6535899999999799
 20
-7.0000000000001128
 30
0.0
 40
0.5
 50
270.0
 51
300.00000000000011
  0
LINE
  5
1AA7
  8
0
  6
CONTINUOUS
 62
     7
 10
-0.6535899999999799
 20
-7.5
 30
0.0
 11
-5.7322329999999786
 21
-7.5
 31
0.0
  0
LINE
  5
1AA8
  8
0
  6
CONTINUOUS
 62
     7
 10
-0.4035899999999799
 20
-7.4330130000001162
 30
0.0
 11
0.0000000000000284
 21
-7.200000000000002
 31
0.0
  0
LINE
  5
1AA9
  8
0
  6
CONTINUOUS
 62
     7
 10
3.500000000000028
 20
-7.5
 30
0.0
 11
5.7322329999999511
 21
-7.5
 31
0.0
  0
LINE
  5
1AAA
  8
0
  6
CONTINUOUS
 62
     7
 10
0.0000000000000284
 20
-7.200000000000002
 30
0.0
 11
0.4035899999999515
 21
-7.4330130000001162
 31
0.0
  0
LINE
  5
1AAB
  8
0
  6
CONTINUOUS
 62
     7
 10
1.752413000000018
 20
-7.2232099999999937
 30
0.0
 11
3.500000000000028
 21
-7.5
 31
0.0
  0
LINE
  5
1AAC
  8
0
  6
CONTINUOUS
 62
     7
 10
7.4829630000000122
 20
0.7829989999998901
 30
0.0
 11
7.2232090000000246
 21
1.7524119999999921
 31
0.0
  0
ARC
  5
1AAD
  8
0
  6
CONTINUOUS
 62
     7
 10
7.0000000000000284
 20
0.6535889999999966
 30
0.0
 40
0.5
 50
330.00000000000102
 51
14.99999999999959
  0
ARC
  5
1AAE
  8
0
  6
CONTINUOUS
 62
     7
 10
7.0000000000000284
 20
-0.6535900000000084
 30
0.0
 40
0.5
 50
0.0
 51
29.999999999999019
  0
LINE
  5
1AAF
  8
0
  6
CONTINUOUS
 62
     7
 10
7.5000000000000284
 20
-0.6535900000000084
 30
0.0
 11
7.5000000000000284
 21
-5.7322330000001207
 31
0.0
  0
LINE
  5
1AB0
  8
0
  6
CONTINUOUS
 62
     7
 10
7.4330130000000159
 20
-0.4035900000001221
 30
0.0
 11
7.2000000000000171
 21
0.0
 31
0.0
  0
LINE
  5
1AB1
  8
0
  6
CONTINUOUS
 62
     7
 10
7.5000000000000284
 20
3.5
 30
0.0
 11
7.5000000000000284
 21
5.7322329999999928
 31
0.0
  0
LINE
  5
1AB2
  8
0
  6
CONTINUOUS
 62
     7
 10
7.2000000000000171
 20
0.0
 30
0.0
 11
7.4330130000000159
 21
0.4035889999999967
 31
0.0
  0
LINE
  5
1AB3
  8
0
  6
CONTINUOUS
 62
     7
 10
7.2232090000000246
 20
1.7524119999999921
 30
0.0
 11
7.5000000000000284
 21
3.5
 31
0.0
  0
LINE
  5
1AB4
  8
CENTER
  6
CENTER
 62
     1
 10
0.0000000000000245
 20
-22.000000000000082
 30
0.0
 11
0.0000000000000299
 21
22.0
 31
0.0
  0
LINE
  5
1AB5
  8
CENTER
  6
CENTER
 62
     1
 10
-21.999999999999989
 20
0.0000000000000026
 30
0.0
 11
22.000000000000021
 21
-0.0000000000000001
 31
0.0
  0
LINE
  5
1AB6
  8
0
  6
CONTINUOUS
 62
     7
 10
66.006692901121824
 20
19.999999999999879
 30
0.0
 11
116.0066929011218
 21
19.999999999999879
 31
0.0
  0
LINE
  5
1AB7
  8
0
  6
CONTINUOUS
 62
     7
 10
66.006692901121824
 20
4.9999999999999973
 30
0.0
 11
116.0066929011218
 21
4.9999999999999973
 31
0.0
  0
LINE
  5
1AB8
  8
0
  6
CONTINUOUS
 62
     7
 10
66.006692901121824
 20
3.5
 30
0.0
 11
116.0066929011218
 21
3.5
 31
0.0
  0
LINE
  5
1AB9
  8
0
  6
CONTINUOUS
 62
     7
 10
66.006692901121809
 20
1.7524119999999921
 30
0.0
 11
116.0066929011218
 21
1.7524119999999921
 31
0.0
  0
LINE
  5
1ABA
  8
0
  6
CONTINUOUS
 62
     7
 10
66.006692901121824
 20
0.0000000000000008
 30
0.0
 11
116.0066929011218
 21
0.0000000000000008
 31
0.0
  0
LINE
  5
1ABB
  8
0
  6
CONTINUOUS
 62
     7
 10
66.006692901121824
 20
-5.0
 30
0.0
 11
116.0066929011218
 21
-5.0
 31
0.0
  0
LINE
  5
1ABC
  8
0
  6
CONTINUOUS
 62
     7
 10
66.006692901121809
 20
-20.0
 30
0.0
 11
116.0066929011218
 21
-20.0
 31
0.0
  0
LINE
  5
1ABD
  8
0
  6
CONTINUOUS
 62
     7
 10
66.006692901121824
 20
19.999999999999879
 30
0.0
 11
66.006692901121809
 21
-19.999999999999989
 31
0.0
  0
LINE
  5
1ABE
  8
0
  6
CONTINUOUS
 62
     7
 10
116.0066929011218
 20
19.999999999999879
 30
0.0
 11
116.0066929011218
 21
-19.999999999999989
 31
0.0
  0
LINE
  5
1ABF
  8
CENTER
  6
CENTER
 62
     1
 10
64.006692901121824
 20
0.0
 30
0.0
 11
118.0066929011218
 21
0.0
 31
0.0
  0
INSERT
  5
1AC1
  8
0
  6
CONTINUOUS
 62
     7
  2
*U2
 10
0.0
 20
0.0
 30
0.0
  0
INSERT
  5
1AC2
  8
0
  6
CONTINUOUS
 62
     7
  2
*U3
 10
0.0
 20
0.0
 30
0.0
  0
CIRCLE
  5
1CEA
  8
0
  6
PHANTOM
 62
     3
 10
0.0000000000000284
 20
0.0000000000000012
 30
0.0
 40
5.25
  0
ENDSEC
  0
EOF
