999
dxfrw 0.6.3
  0
SECTION
  2
HEADER
  9
$ACADVER
  1
AC1021
  9
$DWGCODEPAGE
  3
ANSI_1252
  9
$INSBASE
 10
0
 20
0
 30
0
  9
$EXTMIN
 10
-69.5
 20
-24.50000000000006
 30
0
  9
$EXTMAX
 10
162.2982749932431
 20
69.49999999999994
 30
0
  9
$LIMMIN
 10
0
 20
0
  9
$LIMMAX
 10
420
 20
297
  9
$ORTHOMODE
 70
    0
  9
$REGENMODE
 70
    1
  9
$FILLMODE
 70
    1
  9
$QTEXTMODE
 70
    0
  9
$MIRRTEXT
 70
    0
  9
$LTSCALE
 40
1
  9
$ATTMODE
 70
    1
  9
$TEXTSIZE
 40
3
  9
$TRACEWID
 40
1
  9
$TEXTSTYLE
  7
STANDARD
  9
$CLAYER
  8
0
  9
$CELTYPE
  6
CONTINUOUS
  9
$CECOLOR
 62
    7
  9
$CELTSCALE
 40
1
  9
$DISPSILH
 70
    0
  9
$DIMSCALE
 40
1
  9
$DIMASZ
 40
2.5
  9
$DIMEXO
 40
0.625
  9
$DIMDLI
 40
3.75
  9
$DIMRND
 40
0
  9
$DIMDLE
 40
0
  9
$DIMEXE
 40
1.25
  9
$DIMTP
 40
0
  9
$DIMTM
 40
0
  9
$DIMTXT
 40
2.5
  9
$DIMCEN
 40
2.5
  9
$DIMTSZ
 40
0
  9
$DIMTOL
 70
    0
  9
$DIMLIM
 70
    0
  9
$DIMTIH
 70
    0
  9
$DIMTOH
 70
    0
  9
$DIMSE1
 70
    0
  9
$DIMSE2
 70
    0
  9
$DIMTAD
 70
    1
  9
$DIMZIN
 70
    8
  9
$DIMBLK
  1
OPEN30
  9
$DIMASO
 70
    1
  9
$DIMSHO
 70
    1
  9
$DIMPOST
  1

  9
$DIMAPOST
  1

  9
$DIMALT
 70
    0
  9
$DIMALTD
 70
    3
  9
$DIMALTF
 40
0.03937007874016
  9
$DIMLFAC
 40
1
  9
$DIMTOFL
 70
    1
  9
$DIMTVP
 40
0
  9
$DIMTIX
 70
    0
  9
$DIMSOXD
 70
    0
  9
$DIMSAH
 70
    0
  9
$DIMBLK1
  1

  9
$DIMBLK2
  1

  9
$DIMSTYLE
  2
MISUMI
  9
$DIMCLRD
 70
  137
  9
$DIMCLRE
 70
  137
  9
$DIMCLRT
 70
  137
  9
$DIMTFAC
 40
1
  9
$DIMGAP
 40
0.625
  9
$DIMJUST
 70
    0
  9
$DIMSD1
 70
    0
  9
$DIMSD2
 70
    0
  9
$DIMTOLJ
 70
    0
  9
$DIMTZIN
 70
    8
  9
$DIMALTZ
 70
    0
  9
$DIMALTTZ
 70
    0
  9
$DIMUPT
 70
    0
  9
$DIMDEC
 70
    4
  9
$DIMTDEC
 70
    2
  9
$DIMALTU
 70
    2
  9
$DIMALTTD
 70
    3
  9
$DIMTXSTY
  7
STANDARD
  9
$DIMAUNIT
 70
    0
  9
$DIMADEC
 70
    0
  9
$DIMALTRND
 40
0
  9
$DIMAZIN
 70
    0
  9
$DIMDSEP
 70
   44
  9
$DIMATFIT
 70
    3
  9
$DIMFRAC
 70
    0
  9
$DIMLDRBLK
  1
STANDARD
  9
$DIMLUNIT
 70
    2
  9
$DIMLWD
 70
   -2
  9
$DIMLWE
 70
   -2
  9
$DIMTMOVE
 70
    0
  9
$DIMFXL
 40
1
  9
$DIMFXLON
 70
    0
  9
$DIMJOGANG
 40
0.7854
  9
$DIMTFILL
 70
    0
  9
$DIMTFILLCLR
 70
    0
  9
$DIMARCSYM
 70
    0
  9
$DIMLTYPE
  6

  9
$DIMLTEX1
  6

  9
$DIMLTEX2
  6

  9
$LUNITS
 70
    2
  9
$LUPREC
 70
    2
  9
$SKETCHINC
 40
1
  9
$FILLETRAD
 40
0
  9
$AUNITS
 70
    0
  9
$AUPREC
 70
    0
  9
$MENU
  1
.
  9
$ELEVATION
 40
0
  9
$PELEVATION
 40
0
  9
$THICKNESS
 40
0
  9
$LIMCHECK
 70
    0
  9
$CHAMFERA
 40
0.5
  9
$CHAMFERB
 40
0.5
  9
$CHAMFERC
 40
0
  9
$CHAMFERD
 40
0
  9
$SKPOLY
 70
    0
  9
$USRTIMER
 70
    1
  9
$ANGBASE
 50
0
  9
$ANGDIR
 70
    0
  9
$PDMODE
 70
   35
  9
$PDSIZE
 40
0
  9
$PLINEWID
 40
0
  9
$SPLFRAME
 70
    0
  9
$SPLINETYPE
 70
    6
  9
$SPLINESEGS
 70
    8
  9
$HANDSEED
  5
20000
  9
$SURFTAB1
 70
    6
  9
$SURFTAB2
 70
    6
  9
$SURFTYPE
 70
    6
  9
$SURFU
 70
    6
  9
$SURFV
 70
    6
  9
$UCSBASE
  2

  9
$UCSNAME
  2

  9
$UCSORG
 10
0
 20
0
 30
0
  9
$UCSXDIR
 10
1
 20
0
 30
0
  9
$UCSYDIR
 10
0
 20
1
 30
0
  9
$UCSORTHOREF
  2

  9
$UCSORTHOVIEW
 70
    0
  9
$UCSORGTOP
 10
0
 20
0
 30
0
  9
$UCSORGBOTTOM
 10
0
 20
0
 30
0
  9
$UCSORGLEFT
 10
0
 20
0
 30
0
  9
$UCSORGRIGHT
 10
0
 20
0
 30
0
  9
$UCSORGFRONT
 10
0
 20
0
 30
0
  9
$UCSORGBACK
 10
0
 20
0
 30
0
  9
$PUCSBASE
  2

  9
$PUCSNAME
  2

  9
$PUCSORG
 10
0
 20
0
 30
0
  9
$PUCSXDIR
 10
1
 20
0
 30
0
  9
$PUCSYDIR
 10
0
 20
1
 30
0
  9
$PUCSORTHOREF
  2

  9
$PUCSORTHOVIEW
 70
    0
  9
$PUCSORGTOP
 10
0
 20
0
 30
0
  9
$PUCSORGBOTTOM
 10
0
 20
0
 30
0
  9
$PUCSORGLEFT
 10
0
 20
0
 30
0
  9
$PUCSORGRIGHT
 10
0
 20
0
 30
0
  9
$PUCSORGFRONT
 10
0
 20
0
 30
0
  9
$PUCSORGBACK
 10
0
 20
0
 30
0
  9
$USERI1
 70
    0
  9
$USERI2
 70
    0
  9
$USERI3
 70
    0
  9
$USERI4
 70
    0
  9
$USERI5
 70
    0
  9
$USERR1
 40
0
  9
$USERR2
 40
0
  9
$USERR3
 40
0
  9
$USERR4
 40
0
  9
$USERR5
 40
0
  9
$WORLDVIEW
 70
    1
  9
$SHADEDGE
 70
    3
  9
$SHADEDIF
 70
   70
  9
$TILEMODE
 70
    1
  9
$MAXACTVP
 70
   64
  9
$PINSBASE
 10
0
 20
0
 30
0
  9
$PLIMCHECK
 70
    0
  9
$PEXTMIN
 10
0
 20
0
 30
0
  9
$PEXTMAX
 10
0
 20
0
 30
0
  9
$GRIDMODE
 70
    0
  9
$SNAPSTYLE
 70
    0
  9
$PLIMMIN
 10
0
 20
0
  9
$PLIMMAX
 10
12
 20
9
  9
$UNITMODE
 70
    0
  9
$VISRETAIN
 70
    1
  9
$PLINEGEN
 70
    0
  9
$PSLTSCALE
 70
    1
  9
$TREEDEPTH
 70
 3020
  9
$CMLSTYLE
  2
Standard
  9
$CMLJUST
 70
    0
  9
$CMLSCALE
 40
20
  9
$PROXYGRAPHICS
 70
    1
  9
$MEASUREMENT
 70
    1
  9
$CELWEIGHT
370
   -1
  9
$ENDCAPS
280
    0
  9
$JOINSTYLE
280
    0
  9
$LWDISPLAY
290
    0
  9
$INSUNITS
 70
    0
  9
$HYPERLINKBASE
  1

  9
$STYLESHEET
  1

  9
$XEDIT
290
    1
  9
$CEPSNTYPE
380
    0
  9
$PSTYLEMODE
290
    1
  9
$EXTNAMES
290
    1
  9
$PSVPSCALE
 40
1
  9
$OLESTARTUP
290
    0
  9
$SORTENTS
280
  127
  9
$INDEXCTL
280
    0
  9
$HIDETEXT
280
    1
  9
$XCLIPFRAME
290
    0
  9
$HALOGAP
280
    0
  9
$OBSCOLOR
 70
  257
  9
$OBSLTYPE
280
    0
  9
$INTERSECTIONDISPLAY
280
    0
  9
$INTERSECTIONCOLOR
 70
  257
  9
$DIMASSOC
280
    1
  9
$PROJECTNAME
  1

  9
$CAMERADISPLAY
290
    0
  9
$LENSLENGTH
 40
50
  9
$CAMERAHEIGHT
 40
0
  9
$STEPSPERSEC
 40
2
  9
$STEPSIZE
 40
50
  9
$3DDWFPREC
 40
2
  9
$PSOLWIDTH
 40
5
  9
$PSOLHEIGHT
 40
80
  9
$LOFTANG1
 40
1.570796326794897
  9
$LOFTANG2
 40
1.570796326794897
  9
$LOFTMAG1
 40
0
  9
$LOFTMAG2
 40
0
  9
$LOFTPARAM
 70
    7
  9
$LOFTNORMALS
280
    1
  9
$LATITUDE
 40
1
  9
$LONGITUDE
 40
1
  9
$NORTHDIRECTION
 40
0
  9
$TIMEZONE
 70
-8000
  9
$LIGHTGLYPHDISPLAY
280
    1
  9
$TILEMODELIGHTSYNCH
280
    1
  9
$SOLIDHIST
280
    1
  9
$SHOWHIST
280
    1
  9
$DWFFRAME
280
    2
  9
$DGNFRAME
280
    0
  9
$REALWORLDSCALE
290
    1
  9
$INTERFERECOLOR
 62
    1
  9
$CSHADOW
280
    0
  9
$SHADOWPLANELOCATION
 40
0
  0
ENDSEC
  0
SECTION
  2
CLASSES
  0
ENDSEC
  0
SECTION
  2
TABLES
  0
TABLE
  2
VPORT
  5
8
330
0
100
AcDbSymbolTable
 70
    1
  0
VPORT
  5
31
330
2
100
AcDbSymbolTableRecord
100
AcDbViewportTableRecord
  2
*ACTIVE
 70
    0
 10
0
 20
0
 11
1
 21
1
 12
88.89802513057968
 22
60.74263887221426
 13
0
 23
0
 14
10
 24
10
 15
10
 25
10
 16
0
 26
0
 36
1
 17
0
 27
0
 37
0
 40
387.9186551152568
 41
2.088709677419355
 42
50
 43
0
 44
0
 50
0
 51
0
 71
    0
 72
  100
 73
    1
 74
    3
 75
    0
 76
    0
 77
    0
 78
    0
281
    0
 65
    1
110
0
120
0
130
0
111
1
121
0
131
0
112
0
122
1
132
0
 79
    0
146
0
348
10020
 60
    7
 61
    5
292
1
282
    1
141
0
142
0
 63
  250
421
3358443
  0
ENDTAB
  0
TABLE
  2
LTYPE
  5
5
330
0
100
AcDbSymbolTable
 70
    4
  0
LTYPE
  5
14
330
5
100
AcDbSymbolTableRecord
100
AcDbLinetypeTableRecord
  2
ByBlock
 70
    0
  3

 72
   65
 73
    0
 40
0
  0
LTYPE
  5
15
330
5
100
AcDbSymbolTableRecord
100
AcDbLinetypeTableRecord
  2
ByLayer
 70
    0
  3

 72
   65
 73
    0
 40
0
  0
LTYPE
  5
16
330
5
100
AcDbSymbolTableRecord
100
AcDbLinetypeTableRecord
  2
Continuous
 70
    0
  3
Solid line
 72
   65
 73
    0
 40
0
  0
LTYPE
  5
32
330
5
100
AcDbSymbolTableRecord
100
AcDbLinetypeTableRecord
  2
DOT
 70
    0
  3
Dot . . . . . . . . . . . . . . . . . . . . . .
 72
   65
 73
    2
 40
6.35
 49
0
 74
    0
 49
-6.35
 74
    0
  0
LTYPE
  5
33
330
5
100
AcDbSymbolTableRecord
100
AcDbLinetypeTableRecord
  2
DOTTINY
 70
    0
  3
Dot (.15x) .....................................
 72
   65
 73
    2
 40
0.9525
 49
0
 74
    0
 49
-0.9525
 74
    0
  0
LTYPE
  5
34
330
5
100
AcDbSymbolTableRecord
100
AcDbLinetypeTableRecord
  2
DOT2
 70
    0
  3
Dot (.5x) .....................................
 72
   65
 73
    2
 40
3.175
 49
0
 74
    0
 49
-3.175
 74
    0
  0
LTYPE
  5
35
330
5
100
AcDbSymbolTableRecord
100
AcDbLinetypeTableRecord
  2
DOTX2
 70
    0
  3
Dot (2x) .  .  .  .  .  .  .  .  .  .  .  .  .
 72
   65
 73
    2
 40
12.7
 49
0
 74
    0
 49
-12.7
 74
    0
  0
LTYPE
  5
36
330
5
100
AcDbSymbolTableRecord
100
AcDbLinetypeTableRecord
  2
DASHED
 70
    0
  3
Dashed _ _ _ _ _ _ _ _ _ _ _ _ _ _ _ _ _
 72
   65
 73
    2
 40
19.05
 49
12.7
 74
    0
 49
-6.35
 74
    0
  0
LTYPE
  5
37
330
5
100
AcDbSymbolTableRecord
100
AcDbLinetypeTableRecord
  2
DASHEDTINY
 70
    0
  3
Dashed (.15x) _ _ _ _ _ _ _ _ _ _ _ _ _ _ _ _ _
 72
   65
 73
    2
 40
2.8575
 49
1.905
 74
    0
 49
-0.9525
 74
    0
  0
LTYPE
  5
38
330
5
100
AcDbSymbolTableRecord
100
AcDbLinetypeTableRecord
  2
DASHED2
 70
    0
  3
Dashed (.5x) _ _ _ _ _ _ _ _ _ _ _ _ _ _ _ _ _
 72
   65
 73
    2
 40
9.524999999999999
 49
6.35
 74
    0
 49
-3.175
 74
    0
  0
LTYPE
  5
39
330
5
100
AcDbSymbolTableRecord
100
AcDbLinetypeTableRecord
  2
DASHEDX2
 70
    0
  3
Dashed (2x) ____  ____  ____  ____  ____  ___
 72
   65
 73
    2
 40
38.09999999999999
 49
25.4
 74
    0
 49
-12.7
 74
    0
  0
LTYPE
  5
3A
330
5
100
AcDbSymbolTableRecord
100
AcDbLinetypeTableRecord
  2
DASHDOT
 70
    0
  3
Dash dot __ . __ . __ . __ . __ . __ . __ . __
 72
   65
 73
    4
 40
25.4
 49
12.7
 74
    0
 49
-6.35
 74
    0
 49
0
 74
    0
 49
-6.35
 74
    0
  0
LTYPE
  5
3B
330
5
100
AcDbSymbolTableRecord
100
AcDbLinetypeTableRecord
  2
DASHDOTTINY
 70
    0
  3
Dash dot (.15x) _._._._._._._._._._._._._._._.
 72
   65
 73
    4
 40
3.81
 49
1.905
 74
    0
 49
-0.9525
 74
    0
 49
0
 74
    0
 49
-0.9525
 74
    0
  0
LTYPE
  5
3C
330
5
100
AcDbSymbolTableRecord
100
AcDbLinetypeTableRecord
  2
DASHDOT2
 70
    0
  3
Dash dot (.5x) _._._._._._._._._._._._._._._.
 72
   65
 73
    4
 40
12.7
 49
6.35
 74
    0
 49
-3.175
 74
    0
 49
0
 74
    0
 49
-3.175
 74
    0
  0
LTYPE
  5
3D
330
5
100
AcDbSymbolTableRecord
100
AcDbLinetypeTableRecord
  2
DASHDOTX2
 70
    0
  3
Dash dot (2x) ____  .  ____  .  ____  .  ___
 72
   65
 73
    4
 40
50.8
 49
25.4
 74
    0
 49
-12.7
 74
    0
 49
0
 74
    0
 49
-12.7
 74
    0
  0
LTYPE
  5
3E
330
5
100
AcDbSymbolTableRecord
100
AcDbLinetypeTableRecord
  2
DIVIDE
 70
    0
  3
Divide ____ . . ____ . . ____ . . ____ . . ____
 72
   65
 73
    6
 40
31.75
 49
12.7
 74
    0
 49
-6.35
 74
    0
 49
0
 74
    0
 49
-6.35
 74
    0
 49
0
 74
    0
 49
-6.35
 74
    0
  0
LTYPE
  5
3F
330
5
100
AcDbSymbolTableRecord
100
AcDbLinetypeTableRecord
  2
DIVIDETINY
 70
    0
  3
Divide (.15x) __..__..__..__..__..__..__..__.._
 72
   65
 73
    6
 40
4.7625
 49
1.905
 74
    0
 49
-0.9525
 74
    0
 49
0
 74
    0
 49
-0.9525
 74
    0
 49
0
 74
    0
 49
-0.9525
 74
    0
  0
LTYPE
  5
40
330
5
100
AcDbSymbolTableRecord
100
AcDbLinetypeTableRecord
  2
DIVIDE2
 70
    0
  3
Divide (.5x) __..__..__..__..__..__..__..__.._
 72
   65
 73
    6
 40
15.875
 49
6.35
 74
    0
 49
-3.175
 74
    0
 49
0
 74
    0
 49
-3.175
 74
    0
 49
0
 74
    0
 49
-3.175
 74
    0
  0
LTYPE
  5
41
330
5
100
AcDbSymbolTableRecord
100
AcDbLinetypeTableRecord
  2
DIVIDEX2
 70
    0
  3
Divide (2x) ________  .  .  ________  .  .  _
 72
   65
 73
    6
 40
63.5
 49
25.4
 74
    0
 49
-12.7
 74
    0
 49
0
 74
    0
 49
-12.7
 74
    0
 49
0
 74
    0
 49
-12.7
 74
    0
  0
LTYPE
  5
42
330
5
100
AcDbSymbolTableRecord
100
AcDbLinetypeTableRecord
  2
BORDER
 70
    0
  3
Border __ __ . __ __ . __ __ . __ __ . __ __ .
 72
   65
 73
    6
 40
44.45
 49
12.7
 74
    0
 49
-6.35
 74
    0
 49
12.7
 74
    0
 49
-6.35
 74
    0
 49
0
 74
    0
 49
-6.35
 74
    0
  0
LTYPE
  5
43
330
5
100
AcDbSymbolTableRecord
100
AcDbLinetypeTableRecord
  2
BORDERTINY
 70
    0
  3
Border (.15x) __.__.__.__.__.__.__.__.__.__.__.
 72
   65
 73
    6
 40
6.6675
 49
1.905
 74
    0
 49
-0.9525
 74
    0
 49
1.905
 74
    0
 49
-0.9525
 74
    0
 49
0
 74
    0
 49
-0.9525
 74
    0
  0
LTYPE
  5
44
330
5
100
AcDbSymbolTableRecord
100
AcDbLinetypeTableRecord
  2
BORDER2
 70
    0
  3
Border (.5x) __.__.__.__.__.__.__.__.__.__.__.
 72
   65
 73
    6
 40
22.225
 49
6.35
 74
    0
 49
-3.175
 74
    0
 49
6.35
 74
    0
 49
-3.175
 74
    0
 49
0
 74
    0
 49
-3.175
 74
    0
  0
LTYPE
  5
45
330
5
100
AcDbSymbolTableRecord
100
AcDbLinetypeTableRecord
  2
BORDERX2
 70
    0
  3
Border (2x) ____  ____  .  ____  ____  .  ___
 72
   65
 73
    6
 40
88.89999999999999
 49
25.4
 74
    0
 49
-12.7
 74
    0
 49
25.4
 74
    0
 49
-12.7
 74
    0
 49
0
 74
    0
 49
-12.7
 74
    0
  0
LTYPE
  5
46
330
5
100
AcDbSymbolTableRecord
100
AcDbLinetypeTableRecord
  2
CENTER
 70
    0
  3
Center ____ _ ____ _ ____ _ ____ _ ____ _ ____
 72
   65
 73
    4
 40
50.8
 49
31.75
 74
    0
 49
-6.35
 74
    0
 49
6.35
 74
    0
 49
-6.35
 74
    0
  0
LTYPE
  5
47
330
5
100
AcDbSymbolTableRecord
100
AcDbLinetypeTableRecord
  2
CENTERTINY
 70
    0
  3
Center (.15x) ___ _ ___ _ ___ _ ___ _ ___ _ ___
 72
   65
 73
    4
 40
7.619999999999999
 49
4.7625
 74
    0
 49
-0.9525
 74
    0
 49
0.9525
 74
    0
 49
-0.9525
 74
    0
  0
LTYPE
  5
48
330
5
100
AcDbSymbolTableRecord
100
AcDbLinetypeTableRecord
  2
CENTER2
 70
    0
  3
Center (.5x) ___ _ ___ _ ___ _ ___ _ ___ _ ___
 72
   65
 73
    4
 40
28.575
 49
19.05
 74
    0
 49
-3.175
 74
    0
 49
3.175
 74
    0
 49
-3.175
 74
    0
  0
LTYPE
  5
49
330
5
100
AcDbSymbolTableRecord
100
AcDbLinetypeTableRecord
  2
CENTERX2
 70
    0
  3
Center (2x) ________  __  ________  __  _____
 72
   65
 73
    4
 40
101.6
 49
63.5
 74
    0
 49
-12.7
 74
    0
 49
12.7
 74
    0
 49
-12.7
 74
    0
  0
ENDTAB
  0
TABLE
  2
LAYER
  5
2
330
0
100
AcDbSymbolTable
 70
    1
  0
LAYER
  5
10
330
2
100
AcDbSymbolTableRecord
100
AcDbLayerTableRecord
  2
0
 70
    0
 62
    7
  6
CONTINUOUS
370
   -3
390
F
  0
LAYER
  5
4A
330
2
100
AcDbSymbolTableRecord
100
AcDbLayerTableRecord
  2
CENTER
 70
    0
 62
    1
  6
CENTER
370
   -3
390
F
  0
LAYER
  5
4B
330
2
100
AcDbSymbolTableRecord
100
AcDbLayerTableRecord
  2
DEFPOINTS
 70
    0
 62
    7
  6
CONTINUOUS
370
   -3
390
F
  0
ENDTAB
  0
TABLE
  2
STYLE
  5
3
330
0
100
AcDbSymbolTable
 70
    3
  0
STYLE
  5
4C
330
2
100
AcDbSymbolTableRecord
100
AcDbTextStyleTableRecord
  2
STANDARD
 70
    0
 40
0
 41
1
 50
0
 71
    0
 42
1
  3
STANDARD
  4

  0
ENDTAB
  0
TABLE
  2
VIEW
  5
6
330
0
100
AcDbSymbolTable
 70
    0
  0
ENDTAB
  0
TABLE
  2
UCS
  5
7
330
0
100
AcDbSymbolTable
 70
    0
  0
ENDTAB
  0
TABLE
  2
APPID
  5
9
330
0
100
AcDbSymbolTable
 70
    1
  0
APPID
  5
12
330
9
100
AcDbSymbolTableRecord
100
AcDbRegAppTableRecord
  2
ACAD
 70
    0
  0
APPID
  5
4D
330
9
100
AcDbSymbolTableRecord
100
AcDbRegAppTableRecord
  2
LibreCad
 70
    0
  0
ENDTAB
  0
TABLE
  2
DIMSTYLE
  5
A
330
0
100
AcDbSymbolTable
 70
    1
100
AcDbDimStyleTable
 71
    1
  0
DIMSTYLE
105
4E
330
A
100
AcDbSymbolTableRecord
100
AcDbDimStyleTableRecord
  2
Standard
 70
    0
 40
1
 41
2.5
 42
0.625
 43
0.38
 44
1.25
 45
0
 46
0
 47
0
 48
0
 49
1
140
2.5
141
0.09
142
0
143
25.4
144
1
145
0
146
1
147
0.625
148
0
 71
    0
 72
    0
 73
    0
 74
    1
 75
    0
 76
    0
 77
    0
 78
    8
 79
    0
170
    0
171
    2
172
    0
173
    0
174
    0
175
    0
176
  137
177
  137
178
  137
179
    0
271
    4
272
    4
273
    2
274
    2
275
    0
276
    0
277
    2
278
    0
279
    0
280
    0
281
    0
282
    0
283
    1
284
    0
285
    0
286
    0
288
    0
289
    3
340
standard
341

371
   -2
372
   -2
  0
ENDTAB
  0
TABLE
  2
BLOCK_RECORD
  5
1
330
0
100
AcDbSymbolTable
 70
    2
  0
BLOCK_RECORD
  5
1F
330
1
100
AcDbSymbolTableRecord
100
AcDbBlockTableRecord
  2
*Model_Space
 70
    0
280
    1
281
    0
  0
BLOCK_RECORD
  5
1E
330
1
100
AcDbSymbolTableRecord
100
AcDbBlockTableRecord
  2
*Paper_Space
 70
    0
280
    1
281
    0
  0
BLOCK_RECORD
  5
4F
330
1
100
AcDbSymbolTableRecord
100
AcDbBlockTableRecord
  2
_OPEN30
 70
    0
280
    1
281
    0
  0
BLOCK_RECORD
  5
52
330
1
100
AcDbSymbolTableRecord
100
AcDbBlockTableRecord
  2
*U31
 70
    0
280
    1
281
    0
  0
BLOCK_RECORD
  5
55
330
1
100
AcDbSymbolTableRecord
100
AcDbBlockTableRecord
  2
*U32
 70
    0
280
    1
281
    0
  0
BLOCK_RECORD
  5
58
330
1
100
AcDbSymbolTableRecord
100
AcDbBlockTableRecord
  2
*U33
 70
    0
280
    1
281
    0
  0
ENDTAB
  0
ENDSEC
  0
SECTION
  2
BLOCKS
  0
BLOCK
  5
20
330
1F
100
AcDbEntity
  8
0
100
AcDbBlockBegin
  2
*Model_Space
 70
    0
 10
0
 20
0
 30
0
  3
*Model_Space
  1

  0
ENDBLK
  5
21
330
1F
100
AcDbEntity
  8
0
100
AcDbBlockEnd
  0
BLOCK
  5
1C
330
1B
100
AcDbEntity
  8
0
100
AcDbBlockBegin
  2
*Paper_Space
 70
    0
 10
0
 20
0
 30
0
  3
*Paper_Space
  1

  0
ENDBLK
  5
1D
330
1F
100
AcDbEntity
  8
0
100
AcDbBlockEnd
  0
BLOCK
  5
50
330
4F
100
AcDbEntity
  8
0
100
AcDbBlockBegin
  2
_OPEN30
 70
    0
 10
0
 20
0
  3
_OPEN30
  1

  0
LINE
  5
5B
100
AcDbEntity
  8
0
  6
ByBlock
 62
    0
370
   -1
100
AcDbLine
 10
-1
 20
0.26794919
 11
0
 21
0
  0
LINE
  5
5C
100
AcDbEntity
  8
0
  6
ByBlock
 62
    0
370
   -1
100
AcDbLine
 10
0
 20
0
 11
-1
 21
-0.26794919
  0
LINE
  5
5D
100
AcDbEntity
  8
0
  6
ByBlock
 62
    0
370
   -1
100
AcDbLine
 10
0
 20
0
 11
-1
 21
0
  0
ENDBLK
  5
51
330
4F
100
AcDbEntity
  8
0
100
AcDbBlockEnd
  0
BLOCK
  5
53
330
52
100
AcDbEntity
  8
0
100
AcDbBlockBegin
  2
*U31
 70
    0
 10
0
 20
0
  3
*U31
  1

  0
TEXT
  5
5E
100
AcDbEntity
  8
0
  6
CONTINUOUS
 62
    7
370
   -1
100
AcDbText
 10
-67.5
 20
-60.30139434930294
 30
0
 40
3
  1
NEFS8-909045-50
 50
0
 41
1
 51
0
  7
STANDARD
 71
    0
210
0
220
0
230
1
100
AcDbText
  0
ENDBLK
  5
54
330
52
100
AcDbEntity
  8
0
100
AcDbBlockEnd
  0
BLOCK
  5
56
330
55
100
AcDbEntity
  8
0
100
AcDbBlockBegin
  2
*U32
 70
    0
 10
0
 20
0
  3
*U32
  1

  0
TEXT
  5
5F
100
AcDbEntity
  8
0
  6
CONTINUOUS
 62
    7
370
   -1
100
AcDbText
 10
-67.73220747614357
 20
-66.07626425231075
 30
0
 40
3
  1
NEFS8-909045
 50
0
 41
1
 51
0
  7
STANDARD
 71
    0
210
0
220
0
230
1
100
AcDbText
  0
ENDBLK
  5
57
330
55
100
AcDbEntity
  8
0
100
AcDbBlockEnd
  0
BLOCK
  5
59
330
58
100
AcDbEntity
  8
0
100
AcDbBlockBegin
  2
*U33
 70
    0
 10
0
 20
0
  3
*U33
  1

  0
TEXT
  5
60
100
AcDbEntity
  8
0
  6
CONTINUOUS
 62
  137
370
   -1
100
AcDbText
 10
-46.4808828760768
 20
31.2783746371518
 30
0
 40
3
  1
R15
 50
282.8823310012511
 41
1
 51
0
  7
STANDARD
 71
    0
210
0
220
0
230
1
100
AcDbText
  0
ENDBLK
  5
5A
330
58
100
AcDbEntity
  8
0
100
AcDbBlockEnd
  0
ENDSEC
  0
SECTION
  2
ENTITIES
  0
LINE
  5
61
100
AcDbEntity
  8
CENTER
  6
CENTER
 62
    1
370
   -1
100
AcDbLine
 10
-45
 20
69.49999999999994
 11
-45
 21
-24.50000000000006
  0
LINE
  5
62
100
AcDbEntity
  8
CENTER
  6
CENTER
 62
    1
370
   -1
100
AcDbLine
 10
-69.5
 20
44.99999999999994
 11
-20.5
 21
44.99999999999994
  0
LINE
  5
63
100
AcDbEntity
  8
0
  6
CONTINUOUS
 62
    7
370
   -1
100
AcDbLine
 10
-39.69999999999999
 20
67.49999999999994
 11
-25.5
 21
67.49999999999994
  0
LINE
  5
64
100
AcDbEntity
  8
0
  6
CONTINUOUS
 62
    7
370
   -1
100
AcDbLine
 10
-64.5
 20
67.49999999999994
 11
-50.30000000000001
 21
67.49999999999994
  0
LINE
  5
65
100
AcDbEntity
  8
0
  6
CONTINUOUS
 62
    7
370
   -1
100
AcDbLine
 10
-55
 20
61.49999999999995
 11
-50.30000000000001
 21
61.49999999999995
  0
LINE
  5
66
100
AcDbEntity
  8
0
  6
CONTINUOUS
 62
    7
370
   -1
100
AcDbLine
 10
-67.5
 20
64.49999999999994
 11
-67.5
 21
50.2999999999999
  0
ARC
  5
67
100
AcDbEntity
  8
0
  6
CONTINUOUS
 62
    7
370
   -1
100
AcDbCircle
 10
-64.5
 20
64.49999999999994
 40
3
100
AcDbArc
 50
90
 51
180
  0
LINE
  5
68
100
AcDbEntity
  8
0
  6
CONTINUOUS
 62
    7
370
   -1
100
AcDbLine
 10
-55
 20
61.49999999999995
 11
-55
 21
57.12132034355943
  0
ARC
  5
69
100
AcDbEntity
  8
0
  6
CONTINUOUS
 62
    7
370
   -1
100
AcDbCircle
 10
-48.69999999999999
 20
48.69999999999959
 40
2.299999999999998
100
AcDbArc
 50
77.59652402418381
 51
192.4034759758027
  0
ARC
  5
6A
100
AcDbEntity
  8
0
  6
CONTINUOUS
 62
    7
370
   -1
100
AcDbCircle
 10
-49.96965702388411
 20
48.42076704760336
 40
1
100
AcDbArc
 50
192.4034759757996
 51
244.9999999999963
  0
ARC
  5
6B
100
AcDbEntity
  8
0
  6
CONTINUOUS
 62
    7
370
   -1
100
AcDbCircle
 10
-48.42076704760336
 20
49.96965702388377
 40
1
100
AcDbArc
 50
25.00000000000663
 51
77.59652402418381
  0
LINE
  5
6C
100
AcDbEntity
  8
0
  6
CONTINUOUS
 62
    7
370
   -1
100
AcDbLine
 10
-50
 20
61.79999999999978
 11
-50
 21
67.19999999999976
  0
ARC
  5
6D
100
AcDbEntity
  8
0
  6
CONTINUOUS
 62
    7
370
   -1
100
AcDbCircle
 10
-50.30000000000001
 20
61.79999999999978
 40
0.3
100
AcDbArc
 50
270
 51
0
  0
ARC
  5
6E
100
AcDbEntity
  8
0
  6
CONTINUOUS
 62
    7
370
   -1
100
AcDbCircle
 10
-50.30000000000001
 20
67.19999999999976
 40
0.3
100
AcDbArc
 50
0
 51
90
  0
LINE
  5
6F
100
AcDbEntity
  8
0
  6
CONTINUOUS
 62
    7
370
   -1
100
AcDbLine
 10
-40
 20
61.79999999999978
 11
-40
 21
67.19999999999976
  0
LINE
  5
70
100
AcDbEntity
  8
0
  6
CONTINUOUS
 62
    7
370
   -1
100
AcDbLine
 10
-35
 20
61.49999999999995
 11
-39.69999999999988
 21
61.49999999999995
  0
ARC
  5
71
100
AcDbEntity
  8
0
  6
CONTINUOUS
 62
    7
370
   -1
100
AcDbCircle
 10
-39.69999999999988
 20
61.79999999999978
 40
0.3
100
AcDbArc
 50
180
 51
270
  0
LINE
  5
72
100
AcDbEntity
  8
0
  6
CONTINUOUS
 62
    7
370
   -1
100
AcDbLine
 10
-35
 20
61.49999999999995
 11
-35
 21
57.12132034355943
  0
ARC
  5
73
100
AcDbEntity
  8
0
  6
CONTINUOUS
 62
    7
370
   -1
100
AcDbCircle
 10
-39.69999999999999
 20
67.19999999999993
 40
0.3
100
AcDbArc
 50
90
 51
180
  0
LINE
  5
74
100
AcDbEntity
  8
0
  6
CONTINUOUS
 62
    7
370
   -1
100
AcDbLine
 10
-22.5
 20
64.49999999999994
 11
-22.5
 21
50.2999999999999
  0
ARC
  5
75
100
AcDbEntity
  8
0
  6
CONTINUOUS
 62
    7
370
   -1
100
AcDbCircle
 10
-25.5
 20
64.49999999999994
 40
3
100
AcDbArc
 50
0
 51
90
  0
LINE
  5
76
100
AcDbEntity
  8
0
  6
CONTINUOUS
 62
    7
370
   -1
100
AcDbLine
 10
-55
 20
57.12132034355943
 11
-52.37867965644039
 21
54.49999999999977
  0
LINE
  5
77
100
AcDbEntity
  8
0
  6
CONTINUOUS
 62
    7
370
   -1
100
AcDbLine
 10
-35
 20
57.12132034355943
 11
-37.62132034355972
 21
54.49999999999977
  0
LINE
  5
78
100
AcDbEntity
  8
0
  6
CONTINUOUS
 62
    7
370
   -1
100
AcDbLine
 10
-61.80000000000001
 20
49.99999999999994
 11
-67.19999999999997
 21
49.99999999999994
  0
LINE
  5
79
100
AcDbEntity
  8
0
  6
CONTINUOUS
 62
    7
370
   -1
100
AcDbLine
 10
-61.80000000000001
 20
39.99999999999995
 11
-67.19999999999997
 21
39.99999999999995
  0
LINE
  5
7A
100
AcDbEntity
  8
0
  6
CONTINUOUS
 62
    7
370
   -1
100
AcDbLine
 10
-61.5
 20
54.99999999999994
 11
-61.5
 21
50.2999999999999
  0
LINE
  5
7B
100
AcDbEntity
  8
0
  6
CONTINUOUS
 62
    7
370
   -1
100
AcDbLine
 10
-57.12132034355971
 20
54.99999999999994
 11
-54.49999999999988
 21
52.37867965644028
  0
LINE
  5
7C
100
AcDbEntity
  8
0
  6
CONTINUOUS
 62
    7
370
   -1
100
AcDbLine
 10
-61.5
 20
54.99999999999994
 11
-57.12132034355971
 21
54.99999999999994
  0
ARC
  5
7D
100
AcDbEntity
  8
0
  6
CONTINUOUS
 62
    7
370
   -1
100
AcDbCircle
 10
-61.80000000000001
 20
50.2999999999999
 40
0.3
100
AcDbArc
 50
270
 51
0
  0
LINE
  5
7E
100
AcDbEntity
  8
0
  6
CONTINUOUS
 62
    7
370
   -1
100
AcDbLine
 10
-57.12132034355971
 20
34.99999999999995
 11
-54.49999999999988
 21
37.62132034355955
  0
LINE
  5
7F
100
AcDbEntity
  8
0
  6
CONTINUOUS
 62
    7
370
   -1
100
AcDbLine
 10
-61.5
 20
34.99999999999995
 11
-61.5
 21
39.69999999999976
  0
ARC
  5
80
100
AcDbEntity
  8
0
  6
CONTINUOUS
 62
    7
370
   -1
100
AcDbCircle
 10
-61.80000000000001
 20
39.69999999999976
 40
0.3
100
AcDbArc
 50
0
 51
90
  0
LINE
  5
81
100
AcDbEntity
  8
0
  6
CONTINUOUS
 62
    7
370
   -1
100
AcDbLine
 10
-61.5
 20
34.99999999999995
 11
-57.12132034355971
 21
34.99999999999995
  0
ARC
  5
82
100
AcDbEntity
  8
0
  6
CONTINUOUS
 62
    7
370
   -1
100
AcDbCircle
 10
-67.19999999999997
 20
50.2999999999999
 40
0.3
100
AcDbArc
 50
180
 51
270
  0
ARC
  5
83
100
AcDbEntity
  8
0
  6
CONTINUOUS
 62
    7
370
   -1
100
AcDbCircle
 10
-67.19999999999997
 20
39.69999999999976
 40
0.3
100
AcDbArc
 50
90
 51
180
  0
LINE
  5
84
100
AcDbEntity
  8
0
  6
CONTINUOUS
 62
    7
370
   -1
100
AcDbLine
 10
-28.5
 20
34.99999999999995
 11
-28.5
 21
39.69999999999976
  0
LINE
  5
85
100
AcDbEntity
  8
0
  6
CONTINUOUS
 62
    7
370
   -1
100
AcDbLine
 10
-28.5
 20
34.99999999999995
 11
-32.87867965644034
 21
34.99999999999995
  0
LINE
  5
86
100
AcDbEntity
  8
0
  6
CONTINUOUS
 62
    7
370
   -1
100
AcDbLine
 10
-32.87867965644034
 20
34.99999999999995
 11
-35.50000000000006
 21
37.62132034355955
  0
LINE
  5
87
100
AcDbEntity
  8
0
  6
CONTINUOUS
 62
    7
370
   -1
100
AcDbLine
 10
-28.5
 20
54.99999999999994
 11
-32.87867965644034
 21
54.99999999999994
  0
ARC
  5
88
100
AcDbEntity
  8
0
  6
CONTINUOUS
 62
    7
370
   -1
100
AcDbCircle
 10
-28.19999999999999
 20
50.2999999999999
 40
0.3
100
AcDbArc
 50
180
 51
270
  0
ARC
  5
89
100
AcDbEntity
  8
0
  6
CONTINUOUS
 62
    7
370
   -1
100
AcDbCircle
 10
-28.19999999999999
 20
39.69999999999976
 40
0.3
100
AcDbArc
 50
90
 51
180
  0
LINE
  5
8A
100
AcDbEntity
  8
0
  6
CONTINUOUS
 62
    7
370
   -1
100
AcDbLine
 10
-28.5
 20
54.99999999999994
 11
-28.5
 21
50.2999999999999
  0
LINE
  5
8B
100
AcDbEntity
  8
0
  6
CONTINUOUS
 62
    7
370
   -1
100
AcDbLine
 10
-32.87867965644034
 20
54.99999999999994
 11
-35.50000000000006
 21
52.37867965644028
  0
LINE
  5
8C
100
AcDbEntity
  8
0
  6
CONTINUOUS
 62
    7
370
   -1
100
AcDbLine
 10
-28.19999999999999
 20
39.99999999999995
 11
-22.80000000000001
 21
39.99999999999995
  0
ARC
  5
8D
100
AcDbEntity
  8
0
  6
CONTINUOUS
 62
    7
370
   -1
100
AcDbCircle
 10
-22.80000000000001
 20
39.69999999999976
 40
0.3
100
AcDbArc
 50
0
 51
90
  0
ARC
  5
8E
100
AcDbEntity
  8
0
  6
CONTINUOUS
 62
    7
370
   -1
100
AcDbCircle
 10
-22.80000000000001
 20
50.2999999999999
 40
0.3
100
AcDbArc
 50
270
 51
0
  0
LINE
  5
8F
100
AcDbEntity
  8
0
  6
CONTINUOUS
 62
    7
370
   -1
100
AcDbLine
 10
-28.19999999999999
 20
49.99999999999994
 11
-22.80000000000001
 21
49.99999999999994
  0
LINE
  5
90
100
AcDbEntity
  8
0
  6
CONTINUOUS
 62
    7
370
   -1
100
AcDbLine
 10
-51.96446609406717
 20
35.49999999999994
 11
-51.60681466366509
 21
35.49999999999994
  0
LINE
  5
91
100
AcDbEntity
  8
0
  6
CONTINUOUS
 62
    7
370
   -1
100
AcDbLine
 10
-38.393185336334
 20
35.49999999999978
 11
-38.03553390593271
 21
35.49999999999978
  0
LINE
  5
92
100
AcDbEntity
  8
0
  6
CONTINUOUS
 62
    7
370
   -1
100
AcDbLine
 10
-55.085786437627
 20
32.79289321881322
 11
-52.67157287525384
 21
35.20710678118638
  0
LINE
  5
93
100
AcDbEntity
  8
0
  6
CONTINUOUS
 62
    7
370
   -1
100
AcDbLine
 10
-34.91421356237311
 20
32.79289321881322
 11
-37.32842712474621
 21
35.20710678118638
  0
LINE
  5
94
100
AcDbEntity
  8
0
  6
CONTINUOUS
 62
    7
370
   -1
100
AcDbLine
 10
-67.5
 20
5.299999999999897
 11
-67.5
 21
39.69999999999993
  0
LINE
  5
95
100
AcDbEntity
  8
0
  6
CONTINUOUS
 62
    7
370
   -1
100
AcDbLine
 10
-22.5
 20
22.7999999999999
 11
-22.5
 21
39.69999999999976
  0
LINE
  5
96
100
AcDbEntity
  8
0
  6
CONTINUOUS
 62
    7
370
   -1
100
AcDbLine
 10
-62.26794919243116
 20
32.49999999999995
 11
-55.79289321881351
 21
32.49999999999995
  0
LINE
  5
97
100
AcDbEntity
  8
0
  6
CONTINUOUS
 62
    7
370
   -1
100
AcDbLine
 10
-65
 20
12.49999999999994
 11
-65
 21
32.49999999999995
  0
ARC
  5
98
100
AcDbEntity
  8
0
  6
CONTINUOUS
 62
    7
370
   -1
100
AcDbCircle
 10
-64
 20
32.49999999999995
 40
1
100
AcDbArc
 50
30.00000000000055
 51
180
  0
LINE
  5
99
100
AcDbEntity
  8
0
  6
CONTINUOUS
 62
    7
370
   -1
100
AcDbLine
 10
-25
 20
21.68700576850858
 11
-25
 21
32.49999999999995
  0
ARC
  5
9A
100
AcDbEntity
  8
0
  6
CONTINUOUS
 62
    7
370
   -1
100
AcDbCircle
 10
-26
 20
32.49999999999995
 40
1
100
AcDbArc
 50
0
 51
149.9999999999994
  0
LINE
  5
9B
100
AcDbEntity
  8
0
  6
CONTINUOUS
 62
    7
370
   -1
100
AcDbLine
 10
-27.7320508075689
 20
32.49999999999995
 11
-34.20710678118656
 21
32.49999999999995
  0
LINE
  5
9C
100
AcDbEntity
  8
0
  6
CONTINUOUS
 62
    7
370
   -1
100
AcDbLine
 10
-62.1313409495471
 20
65.49999999999994
 11
-56.89999999999997
 21
65.49999999999994
  0
LINE
  5
9D
100
AcDbEntity
  8
0
  6
CONTINUOUS
 62
    7
370
   -1
100
AcDbLine
 10
-56.89999999999997
 20
62.76794919243087
 11
-56.89999999999997
 21
57.89999999999963
  0
ARC
  5
9E
100
AcDbEntity
  8
0
  6
CONTINUOUS
 62
    7
370
   -1
100
AcDbCircle
 10
-57.89999999999998
 20
57.89999999999963
 40
1
100
AcDbArc
 50
270
 51
0
  0
LINE
  5
9F
100
AcDbEntity
  8
0
  6
CONTINUOUS
 62
    7
370
   -1
100
AcDbLine
 10
-62.7679491924311
 20
56.89999999999992
 11
-57.89999999999998
 21
56.89999999999975
  0
LINE
  5
A0
100
AcDbEntity
  8
0
  6
CONTINUOUS
 62
    7
370
   -1
100
AcDbLine
 10
-65.5
 20
62.13134094954694
 11
-65.5
 21
56.89999999999992
  0
ARC
  5
A1
100
AcDbEntity
  8
0
  6
CONTINUOUS
 62
    7
370
   -1
100
AcDbCircle
 10
-56.89999999999997
 20
64.49999999999994
 40
1
100
AcDbArc
 50
300.0000000000005
 51
90
  0
ARC
  5
A2
100
AcDbEntity
  8
0
  6
CONTINUOUS
 62
    7
370
   -1
100
AcDbCircle
 10
-64.5
 20
56.89999999999992
 40
1
100
AcDbArc
 50
180
 51
329.9999999999995
  0
LINE
  5
A3
100
AcDbEntity
  8
0
  6
CONTINUOUS
 62
    7
370
   -1
100
AcDbLine
 10
-61.5
 20
9.999999999999943
 11
-61.5
 21
5.299999999999897
  0
LINE
  5
A4
100
AcDbEntity
  8
0
  6
CONTINUOUS
 62
    7
370
   -1
100
AcDbLine
 10
-62.26794919243116
 20
12.49999999999994
 11
-55.79289321881351
 21
12.49999999999994
  0
LINE
  5
A5
100
AcDbEntity
  8
0
  6
CONTINUOUS
 62
    7
370
   -1
100
AcDbLine
 10
-61.5
 20
9.999999999999943
 11
-57.12132034355971
 21
9.999999999999943
  0
ARC
  5
A6
100
AcDbEntity
  8
0
  6
CONTINUOUS
 62
    7
370
   -1
100
AcDbCircle
 10
-64
 20
12.49999999999994
 40
1
100
AcDbArc
 50
180
 51
329.9999999999995
  0
LINE
  5
A7
100
AcDbEntity
  8
0
  6
CONTINUOUS
 62
    7
370
   -1
100
AcDbLine
 10
-57.12132034355971
 20
9.999999999999943
 11
-54.49999999999988
 21
7.378679656440112
  0
LINE
  5
A8
100
AcDbEntity
  8
0
  6
CONTINUOUS
 62
    7
370
   -1
100
AcDbLine
 10
-55.085786437627
 20
12.20710678118644
 11
-52.67157287525384
 21
9.792893218813388
  0
LINE
  5
A9
100
AcDbEntity
  8
0
  6
CONTINUOUS
 62
    7
370
   -1
100
AcDbLine
 10
-64.5
 20
-22.50000000000006
 11
-50.30000000000001
 21
-22.50000000000006
  0
LINE
  5
AA
100
AcDbEntity
  8
0
  6
CONTINUOUS
 62
    7
370
   -1
100
AcDbLine
 10
-61.5
 20
-10.00000000000005
 11
-57.12132034355971
 21
-10.00000000000005
  0
LINE
  5
AB
100
AcDbEntity
  8
CENTER
  6
CENTER
 62
    1
370
   -1
100
AcDbLine
 10
-69.5
 20
-5.68e-14
 11
24.5
 21
-5.68e-14
  0
LINE
  5
AC
100
AcDbEntity
  8
0
  6
CONTINUOUS
 62
    7
370
   -1
100
AcDbLine
 10
-67.5
 20
-19.50000000000006
 11
-67.5
 21
-5.300000000000068
  0
ARC
  5
AD
100
AcDbEntity
  8
0
  6
CONTINUOUS
 62
    7
370
   -1
100
AcDbCircle
 10
-67.19999999999997
 20
-5.300000000000068
 40
0.3
100
AcDbArc
 50
90
 51
180
  0
ARC
  5
AE
100
AcDbEntity
  8
0
  6
CONTINUOUS
 62
    7
370
   -1
100
AcDbCircle
 10
-61.80000000000001
 20
-5.300000000000068
 40
0.3
100
AcDbArc
 50
0
 51
90
  0
LINE
  5
AF
100
AcDbEntity
  8
0
  6
CONTINUOUS
 62
    7
370
   -1
100
AcDbLine
 10
-61.80000000000001
 20
4.999999999999943
 11
-67.19999999999997
 21
4.999999999999943
  0
ARC
  5
B0
100
AcDbEntity
  8
0
  6
CONTINUOUS
 62
    7
370
   -1
100
AcDbCircle
 10
-67.19999999999997
 20
5.299999999999897
 40
0.3
100
AcDbArc
 50
180
 51
270
  0
ARC
  5
B1
100
AcDbEntity
  8
0
  6
CONTINUOUS
 62
    7
370
   -1
100
AcDbCircle
 10
-61.80000000000001
 20
5.299999999999897
 40
0.3
100
AcDbArc
 50
270
 51
0
  0
LINE
  5
B2
100
AcDbEntity
  8
0
  6
CONTINUOUS
 62
    7
370
   -1
100
AcDbLine
 10
-61.80000000000001
 20
-5.000000000000056
 11
-67.19999999999997
 21
-5.000000000000056
  0
LINE
  5
B3
100
AcDbEntity
  8
0
  6
CONTINUOUS
 62
    7
370
   -1
100
AcDbLine
 10
-61.5
 20
-10.00000000000005
 11
-61.5
 21
-5.300000000000068
  0
ARC
  5
B4
100
AcDbEntity
  8
0
  6
CONTINUOUS
 62
    7
370
   -1
100
AcDbCircle
 10
-64.5
 20
-19.50000000000006
 40
3
100
AcDbArc
 50
180
 51
270
  0
LINE
  5
B5
100
AcDbEntity
  8
0
  6
CONTINUOUS
 62
    7
370
   -1
100
AcDbLine
 10
-50
 20
-16.80000000000006
 11
-50
 21
-22.2000000000001
  0
LINE
  5
B6
100
AcDbEntity
  8
0
  6
CONTINUOUS
 62
    7
370
   -1
100
AcDbLine
 10
-55
 20
-16.50000000000005
 11
-50.30000000000001
 21
-16.50000000000005
  0
LINE
  5
B7
100
AcDbEntity
  8
0
  6
CONTINUOUS
 62
    7
370
   -1
100
AcDbLine
 10
-55
 20
-12.12132034355972
 11
-52.37867965644039
 21
-9.500000000000057
  0
LINE
  5
B8
100
AcDbEntity
  8
0
  6
CONTINUOUS
 62
    7
370
   -1
100
AcDbLine
 10
-57.12132034355971
 20
-10.00000000000005
 11
-54.5
 21
-7.378679656440453
  0
LINE
  5
B9
100
AcDbEntity
  8
0
  6
CONTINUOUS
 62
    7
370
   -1
100
AcDbLine
 10
-55
 20
-16.50000000000005
 11
-55
 21
-12.12132034355972
  0
ARC
  5
BA
100
AcDbEntity
  8
0
  6
CONTINUOUS
 62
    7
370
   -1
100
AcDbCircle
 10
-50.30000000000007
 20
-16.80000000000006
 40
0.3
100
AcDbArc
 50
0
 51
90
  0
ARC
  5
BB
100
AcDbEntity
  8
0
  6
CONTINUOUS
 62
    7
370
   -1
100
AcDbCircle
 10
-50.30000000000001
 20
-22.2000000000001
 40
0.3
100
AcDbArc
 50
270
 51
0
  0
LINE
  5
BC
100
AcDbEntity
  8
0
  6
CONTINUOUS
 62
    7
370
   -1
100
AcDbLine
 10
-36.47989898732232
 20
9.792893218813504
 11
-25.29289321881339
 21
20.97989898732226
  0
ARC
  5
BD
100
AcDbEntity
  8
0
  6
CONTINUOUS
 62
    7
370
   -1
100
AcDbCircle
 10
-37.18700576850881
 20
10.49999999999994
 40
1
100
AcDbArc
 50
270
 51
315
  0
ARC
  5
BE
100
AcDbEntity
  8
0
  6
CONTINUOUS
 62
    7
370
   -1
100
AcDbCircle
 10
19.5
 20
19.50000000000006
 40
3
100
AcDbArc
 50
0
 51
90
  0
LINE
  5
BF
100
AcDbEntity
  8
0
  6
CONTINUOUS
 62
    7
370
   -1
100
AcDbLine
 10
-22.19999999999999
 20
22.49999999999994
 11
-5.300000000000068
 21
22.49999999999994
  0
LINE
  5
C0
100
AcDbEntity
  8
0
  6
CONTINUOUS
 62
    7
370
   -1
100
AcDbLine
 10
-10
 20
16.49999999999994
 11
-5.300000000000068
 21
16.49999999999994
  0
LINE
  5
C1
100
AcDbEntity
  8
0
  6
CONTINUOUS
 62
    7
370
   -1
100
AcDbLine
 10
-10
 20
-16.50000000000005
 11
-5.300000000000068
 21
-16.50000000000005
  0
LINE
  5
C2
100
AcDbEntity
  8
0
  6
CONTINUOUS
 62
    7
370
   -1
100
AcDbLine
 10
-12.5
 20
-17.26794919243127
 11
-12.5
 21
-10.79289321881356
  0
LINE
  5
C3
100
AcDbEntity
  8
0
  6
CONTINUOUS
 62
    7
370
   -1
100
AcDbLine
 10
-10
 20
-16.50000000000005
 11
-10
 21
-12.12132034355972
  0
ARC
  5
C4
100
AcDbEntity
  8
0
  6
CONTINUOUS
 62
    7
370
   -1
100
AcDbCircle
 10
-12.5
 20
-19.00000000000005
 40
1
100
AcDbArc
 50
270
 51
59.99999999999946
  0
LINE
  5
C5
100
AcDbEntity
  8
0
  6
CONTINUOUS
 62
    7
370
   -1
100
AcDbLine
 10
-10
 20
-12.12132034355972
 11
-7.37867965644034
 21
-9.500000000000057
  0
LINE
  5
C6
100
AcDbEntity
  8
0
  6
CONTINUOUS
 62
    7
370
   -1
100
AcDbLine
 10
-12.20710678118655
 20
-10.085786437627
 11
-9.792893218813388
 21
-7.6715728752539
  0
LINE
  5
C7
100
AcDbEntity
  8
0
  6
CONTINUOUS
 62
    7
370
   -1
100
AcDbLine
 10
-23.31299423149108
 20
19.99999999999994
 11
-12.5
 21
19.99999999999994
  0
LINE
  5
C8
100
AcDbEntity
  8
0
  6
CONTINUOUS
 62
    7
370
   -1
100
AcDbLine
 10
-12.5
 20
17.2679491924311
 11
-12.5
 21
10.79289321881339
  0
LINE
  5
C9
100
AcDbEntity
  8
0
  6
CONTINUOUS
 62
    7
370
   -1
100
AcDbLine
 10
-10
 20
16.49999999999994
 11
-10
 21
12.12132034355954
  0
LINE
  5
CA
100
AcDbEntity
  8
0
  6
CONTINUOUS
 62
    7
370
   -1
100
AcDbLine
 10
-12.20710678118655
 20
10.08578643762678
 11
-9.792893218813504
 21
7.67157287525373
  0
LINE
  5
CB
100
AcDbEntity
  8
0
  6
CONTINUOUS
 62
    7
370
   -1
100
AcDbLine
 10
-10
 20
12.12132034355954
 11
-7.37867965644034
 21
9.499999999999943
  0
ARC
  5
CC
100
AcDbEntity
  8
0
  6
CONTINUOUS
 62
    7
370
   -1
100
AcDbCircle
 10
-12.5
 20
18.99999999999994
 40
1
100
AcDbArc
 50
300.0000000000005
 51
90
  0
LINE
  5
CD
100
AcDbEntity
  8
0
  6
CONTINUOUS
 62
    7
370
   -1
100
AcDbLine
 10
22.50000000000017
 20
-19.50000000000006
 11
22.5
 21
-5.300000000000068
  0
LINE
  5
CE
100
AcDbEntity
  8
0
  6
CONTINUOUS
 62
    7
370
   -1
100
AcDbLine
 10
10
 20
-16.50000000000005
 11
10
 21
-12.12132034355972
  0
LINE
  5
CF
100
AcDbEntity
  8
CENTER
  6
CENTER
 62
    1
370
   -1
100
AcDbLine
 10
0
 20
-24.50000000000006
 11
0
 21
24.49999999999994
  0
LINE
  5
D0
100
AcDbEntity
  8
0
  6
CONTINUOUS
 62
    7
370
   -1
100
AcDbLine
 10
19.5
 20
-22.50000000000006
 11
5.300000000000011
 21
-22.50000000000006
  0
ARC
  5
D1
100
AcDbEntity
  8
0
  6
CONTINUOUS
 62
    7
370
   -1
100
AcDbCircle
 10
5.300000000000011
 20
-22.2000000000001
 40
0.3
100
AcDbArc
 50
180
 51
270
  0
ARC
  5
D2
100
AcDbEntity
  8
0
  6
CONTINUOUS
 62
    7
370
   -1
100
AcDbCircle
 10
5.300000000000011
 20
-16.80000000000006
 40
0.3
100
AcDbArc
 50
90
 51
180
  0
LINE
  5
D3
100
AcDbEntity
  8
0
  6
CONTINUOUS
 62
    7
370
   -1
100
AcDbLine
 10
-5
 20
-16.80000000000006
 11
-5
 21
-22.2000000000001
  0
ARC
  5
D4
100
AcDbEntity
  8
0
  6
CONTINUOUS
 62
    7
370
   -1
100
AcDbCircle
 10
-5.300000000000011
 20
-22.2000000000001
 40
0.3
100
AcDbArc
 50
270
 51
0
  0
ARC
  5
D5
100
AcDbEntity
  8
0
  6
CONTINUOUS
 62
    7
370
   -1
100
AcDbCircle
 10
-5.300000000000068
 20
-16.80000000000006
 40
0.3
100
AcDbArc
 50
0
 51
90
  0
LINE
  5
D6
100
AcDbEntity
  8
0
  6
CONTINUOUS
 62
    7
370
   -1
100
AcDbLine
 10
5
 20
-16.80000000000006
 11
5
 21
-22.2000000000001
  0
LINE
  5
D7
100
AcDbEntity
  8
0
  6
CONTINUOUS
 62
    7
370
   -1
100
AcDbLine
 10
10
 20
-16.50000000000005
 11
5.300000000000011
 21
-16.50000000000005
  0
ARC
  5
D8
100
AcDbEntity
  8
0
  6
CONTINUOUS
 62
    7
370
   -1
100
AcDbCircle
 10
19.5
 20
-19.50000000000006
 40
3
100
AcDbArc
 50
270
 51
0
  0
LINE
  5
D9
100
AcDbEntity
  8
0
  6
CONTINUOUS
 62
    7
370
   -1
100
AcDbLine
 10
19.5
 20
22.49999999999994
 11
5.300000000000011
 21
22.49999999999994
  0
LINE
  5
DA
100
AcDbEntity
  8
0
  6
CONTINUOUS
 62
    7
370
   -1
100
AcDbLine
 10
16.7999999999999
 20
-5.000000000000056
 11
22.19999999999999
 21
-5.000000000000056
  0
LINE
  5
DB
100
AcDbEntity
  8
0
  6
CONTINUOUS
 62
    7
370
   -1
100
AcDbLine
 10
16.80000000000001
 20
5.000000000000056
 11
22.19999999999999
 21
5.000000000000056
  0
LINE
  5
DC
100
AcDbEntity
  8
0
  6
CONTINUOUS
 62
    7
370
   -1
100
AcDbLine
 10
16.5
 20
-10.00000000000005
 11
16.5
 21
-5.300000000000068
  0
LINE
  5
DD
100
AcDbEntity
  8
0
  6
CONTINUOUS
 62
    7
370
   -1
100
AcDbLine
 10
12.12132034355966
 20
-10.00000000000005
 11
9.5
 21
-7.378679656440453
  0
LINE
  5
DE
100
AcDbEntity
  8
0
  6
CONTINUOUS
 62
    7
370
   -1
100
AcDbLine
 10
10
 20
-12.12132034355972
 11
7.378679656440397
 21
-9.500000000000057
  0
LINE
  5
DF
100
AcDbEntity
  8
0
  6
CONTINUOUS
 62
    7
370
   -1
100
AcDbLine
 10
16.5
 20
-10.00000000000005
 11
12.12132034355966
 21
-10.00000000000005
  0
ARC
  5
E0
100
AcDbEntity
  8
0
  6
CONTINUOUS
 62
    7
370
   -1
100
AcDbCircle
 10
16.7999999999999
 20
-5.300000000000068
 40
0.3
100
AcDbArc
 50
90
 51
180
  0
ARC
  5
E1
100
AcDbEntity
  8
0
  6
CONTINUOUS
 62
    7
370
   -1
100
AcDbCircle
 10
5.300000000000011
 20
22.19999999999993
 40
0.3
100
AcDbArc
 50
90
 51
180
  0
ARC
  5
E2
100
AcDbEntity
  8
0
  6
CONTINUOUS
 62
    7
370
   -1
100
AcDbCircle
 10
5.300000000000011
 20
16.7999999999999
 40
0.3
100
AcDbArc
 50
180
 51
270
  0
LINE
  5
E3
100
AcDbEntity
  8
0
  6
CONTINUOUS
 62
    7
370
   -1
100
AcDbLine
 10
-5
 20
16.7999999999999
 11
-5
 21
22.19999999999993
  0
ARC
  5
E4
100
AcDbEntity
  8
0
  6
CONTINUOUS
 62
    7
370
   -1
100
AcDbCircle
 10
-5.300000000000068
 20
16.7999999999999
 40
0.3
100
AcDbArc
 50
270
 51
0
  0
ARC
  5
E5
100
AcDbEntity
  8
0
  6
CONTINUOUS
 62
    7
370
   -1
100
AcDbCircle
 10
-5.300000000000068
 20
22.19999999999993
 40
0.3
100
AcDbArc
 50
0
 51
90
  0
LINE
  5
E6
100
AcDbEntity
  8
0
  6
CONTINUOUS
 62
    7
370
   -1
100
AcDbLine
 10
5
 20
16.7999999999999
 11
5
 21
22.19999999999993
  0
LINE
  5
E7
100
AcDbEntity
  8
0
  6
CONTINUOUS
 62
    7
370
   -1
100
AcDbLine
 10
10
 20
16.49999999999994
 11
10
 21
12.12132034355954
  0
LINE
  5
E8
100
AcDbEntity
  8
0
  6
CONTINUOUS
 62
    7
370
   -1
100
AcDbLine
 10
12.12132034355966
 20
9.999999999999943
 11
9.499999999999943
 21
7.378679656440112
  0
LINE
  5
E9
100
AcDbEntity
  8
0
  6
CONTINUOUS
 62
    7
370
   -1
100
AcDbLine
 10
10
 20
12.12132034355954
 11
7.378679656440397
 21
9.499999999999943
  0
LINE
  5
EA
100
AcDbEntity
  8
0
  6
CONTINUOUS
 62
    7
370
   -1
100
AcDbLine
 10
16.5
 20
9.999999999999943
 11
16.5
 21
5.299999999999897
  0
ARC
  5
EB
100
AcDbEntity
  8
0
  6
CONTINUOUS
 62
    7
370
   -1
100
AcDbCircle
 10
16.80000000000001
 20
5.299999999999897
 40
0.3
100
AcDbArc
 50
180
 51
270
  0
LINE
  5
EC
100
AcDbEntity
  8
0
  6
CONTINUOUS
 62
    7
370
   -1
100
AcDbLine
 10
16.5
 20
9.999999999999943
 11
12.12132034355966
 21
9.999999999999943
  0
LINE
  5
ED
100
AcDbEntity
  8
0
  6
CONTINUOUS
 62
    7
370
   -1
100
AcDbLine
 10
10
 20
16.49999999999994
 11
5.300000000000011
 21
16.49999999999994
  0
ARC
  5
EE
100
AcDbEntity
  8
0
  6
CONTINUOUS
 62
    7
370
   -1
100
AcDbCircle
 10
22.19999999999999
 20
-5.300000000000068
 40
0.3
100
AcDbArc
 50
0
 51
90
  0
LINE
  5
EF
100
AcDbEntity
  8
0
  6
CONTINUOUS
 62
    7
370
   -1
100
AcDbLine
 10
22.5
 20
5.299999999999897
 11
22.5
 21
19.49999999999994
  0
ARC
  5
F0
100
AcDbEntity
  8
0
  6
CONTINUOUS
 62
    7
370
   -1
100
AcDbCircle
 10
22.20000000000016
 20
5.299999999999897
 40
0.3
100
AcDbArc
 50
270
 51
0
  0
LINE
  5
F1
100
AcDbEntity
  8
0
  6
CONTINUOUS
 62
    7
370
   -1
100
AcDbLine
 10
-39.69999999999988
 20
-22.50000000000006
 11
-5.299999999999897
 21
-22.50000000000006
  0
LINE
  5
F2
100
AcDbEntity
  8
0
  6
CONTINUOUS
 62
    7
370
   -1
100
AcDbLine
 10
-32.5
 20
-20.00000000000006
 11
-12.5
 21
-20.00000000000006
  0
LINE
  5
F3
100
AcDbEntity
  8
0
  6
CONTINUOUS
 62
    7
370
   -1
100
AcDbLine
 10
-35
 20
-16.50000000000005
 11
-39.69999999999988
 21
-16.50000000000005
  0
LINE
  5
F4
100
AcDbEntity
  8
0
  6
CONTINUOUS
 62
    7
370
   -1
100
AcDbLine
 10
-39.99999999999989
 20
-16.80000000000006
 11
-39.99999999999989
 21
-22.2000000000001
  0
ARC
  5
F5
100
AcDbEntity
  8
0
  6
CONTINUOUS
 62
    7
370
   -1
100
AcDbCircle
 10
-39.69999999999988
 20
-22.2000000000001
 40
0.3
100
AcDbArc
 50
180
 51
270
  0
ARC
  5
F6
100
AcDbEntity
  8
0
  6
CONTINUOUS
 62
    7
370
   -1
100
AcDbCircle
 10
-39.69999999999988
 20
-16.80000000000006
 40
0.3
100
AcDbArc
 50
90
 51
180
  0
ARC
  5
F7
100
AcDbEntity
  8
0
  6
CONTINUOUS
 62
    7
370
   -1
100
AcDbCircle
 10
-32.5
 20
-19.00000000000005
 40
1
100
AcDbArc
 50
120.0000000000005
 51
270
  0
LINE
  5
F8
100
AcDbEntity
  8
0
  6
CONTINUOUS
 62
    7
370
   -1
100
AcDbLine
 10
-35
 20
-16.50000000000005
 11
-35
 21
-12.12132034355972
  0
LINE
  5
F9
100
AcDbEntity
  8
0
  6
CONTINUOUS
 62
    7
370
   -1
100
AcDbLine
 10
-32.5
 20
-17.26794919243133
 11
-32.5
 21
-10.79289321881361
  0
LINE
  5
FA
100
AcDbEntity
  8
0
  6
CONTINUOUS
 62
    7
370
   -1
100
AcDbLine
 10
-32.7928932188135
 20
-10.085786437627
 11
-35.20710678118656
 21
-7.6715728752539
  0
LINE
  5
FB
100
AcDbEntity
  8
0
  6
CONTINUOUS
 62
    7
370
   -1
100
AcDbLine
 10
-35
 20
-12.12132034355972
 11
-37.62132034355972
 21
-9.500000000000057
  0
LINE
  5
FC
100
AcDbEntity
  8
0
  6
CONTINUOUS
 62
    7
370
   -1
100
AcDbLine
 10
-35.20710678118656
 20
8.520101012677628
 11
-24.02010101267769
 21
19.70710678118644
  0
ARC
  5
FD
100
AcDbEntity
  8
0
  6
CONTINUOUS
 62
    7
370
   -1
100
AcDbCircle
 10
-62.7679491924311
 20
55.89999999999992
 40
1
100
AcDbArc
 50
90
 51
149.9999999999994
  0
ARC
  5
FE
100
AcDbEntity
  8
0
  6
CONTINUOUS
 62
    7
370
   -1
100
AcDbCircle
 10
-55.89999999999998
 20
62.76794919243087
 40
1
100
AcDbArc
 50
120.0000000000005
 51
180
  0
ARC
  5
FF
100
AcDbEntity
  8
0
  6
CONTINUOUS
 62
    7
370
   -1
100
AcDbCircle
 10
-33.49999999999989
 20
-17.26794919243133
 40
1
100
AcDbArc
 50
300.0000000000005
 51
0
  0
ARC
  5
100
100
AcDbEntity
  8
0
  6
CONTINUOUS
 62
    7
370
   -1
100
AcDbCircle
 10
-11.5
 20
-17.26794919243127
 40
1
100
AcDbArc
 50
180
 51
239.9999999999995
  0
ARC
  5
101
100
AcDbEntity
  8
0
  6
CONTINUOUS
 62
    7
370
   -1
100
AcDbCircle
 10
-33.5
 20
-10.79289321881361
 40
1
100
AcDbArc
 50
0
 51
45
  0
ARC
  5
102
100
AcDbEntity
  8
0
  6
CONTINUOUS
 62
    7
370
   -1
100
AcDbCircle
 10
-23.31299423149108
 20
18.99999999999994
 40
1
100
AcDbArc
 50
90
 51
135
  0
ARC
  5
103
100
AcDbEntity
  8
0
  6
CONTINUOUS
 62
    7
370
   -1
100
AcDbCircle
 10
-11.5
 20
17.2679491924311
 40
1
100
AcDbArc
 50
120.0000000000005
 51
180
  0
ARC
  5
104
100
AcDbEntity
  8
0
  6
CONTINUOUS
 62
    7
370
   -1
100
AcDbCircle
 10
-27.7320508075689
 20
33.49999999999994
 40
1
100
AcDbArc
 50
270
 51
329.9999999999995
  0
ARC
  5
105
100
AcDbEntity
  8
0
  6
CONTINUOUS
 62
    7
370
   -1
100
AcDbCircle
 10
-34.20710678118656
 20
33.49999999999994
 40
1
100
AcDbArc
 50
225
 51
270
  0
ARC
  5
106
100
AcDbEntity
  8
0
  6
CONTINUOUS
 62
    7
370
   -1
100
AcDbCircle
 10
-38.03553390593271
 20
34.4999999999996
 40
1
100
AcDbArc
 50
45
 51
90
  0
ARC
  5
107
100
AcDbEntity
  8
0
  6
CONTINUOUS
 62
    7
370
   -1
100
AcDbCircle
 10
-51.96446609406717
 20
34.49999999999994
 40
1
100
AcDbArc
 50
90
 51
135
  0
ARC
  5
108
100
AcDbEntity
  8
0
  6
CONTINUOUS
 62
    7
370
   -1
100
AcDbCircle
 10
-55.79289321881351
 20
33.49999999999994
 40
1
100
AcDbArc
 50
270
 51
315
  0
ARC
  5
109
100
AcDbEntity
  8
0
  6
CONTINUOUS
 62
    7
370
   -1
100
AcDbCircle
 10
-62.26794919243116
 20
33.49999999999994
 40
1
100
AcDbArc
 50
210.0000000000005
 51
270
  0
ARC
  5
10A
100
AcDbEntity
  8
0
  6
CONTINUOUS
 62
    7
370
   -1
100
AcDbCircle
 10
-62.26794919243116
 20
11.49999999999994
 40
1
100
AcDbArc
 50
90
 51
149.9999999999994
  0
ARC
  5
10B
100
AcDbEntity
  8
0
  6
CONTINUOUS
 62
    7
370
   -1
100
AcDbCircle
 10
-55.79289321881351
 20
11.49999999999994
 40
1
100
AcDbArc
 50
45
 51
90
  0
ARC
  5
10C
100
AcDbEntity
  8
0
  6
CONTINUOUS
 62
    7
370
   -1
100
AcDbCircle
 10
-51.96446609406717
 20
10.49999999999994
 40
1
100
AcDbArc
 50
225
 51
270
  0
ARC
  5
10D
100
AcDbEntity
  8
0
  6
CONTINUOUS
 62
    7
370
   -1
100
AcDbCircle
 10
-26
 20
21.68700576850858
 40
1
100
AcDbArc
 50
315
 51
0
  0
ARC
  5
10E
100
AcDbEntity
  8
0
  6
CONTINUOUS
 62
    7
370
   -1
100
AcDbCircle
 10
-22.19999999999999
 20
22.7999999999999
 40
0.3
100
AcDbArc
 50
180
 51
270
  0
ARC
  5
10F
100
AcDbEntity
  8
0
  6
CONTINUOUS
 62
    7
370
   -1
100
AcDbCircle
 10
-45
 20
44.99999999999994
 40
5.25
100
AcDbArc
 50
158.0985793398219
 51
201.9014206601781
  0
ARC
  5
110
100
AcDbEntity
  8
0
  6
CONTINUOUS
 62
    7
370
   -1
100
AcDbCircle
 10
-45
 20
44.99999999999994
 40
5.25
100
AcDbArc
 50
247.5743184309615
 51
291.9014206601781
  0
ARC
  5
111
100
AcDbEntity
  8
0
  6
CONTINUOUS
 62
    7
370
   -1
100
AcDbCircle
 10
-45
 20
44.99999999999994
 40
5.25
100
AcDbArc
 50
338.0985793398219
 51
21.9014206601781
  0
ARC
  5
112
100
AcDbEntity
  8
0
  6
CONTINUOUS
 62
    7
370
   -1
100
AcDbCircle
 10
-45
 20
44.99999999999994
 40
5.25
100
AcDbArc
 50
68.09857933981888
 51
111.9014206601781
  0
ARC
  5
113
100
AcDbEntity
  8
0
  6
CONTINUOUS
 62
    7
370
   -1
100
AcDbCircle
 10
-47.07020987531137
 20
50.14943987945793
 40
0.3
100
AcDbArc
 50
205.0000000000139
 51
291.9014206601811
  0
ARC
  5
114
100
AcDbEntity
  8
0
  6
CONTINUOUS
 62
    7
370
   -1
100
AcDbCircle
 10
-50.14943987945821
 20
47.07020987531126
 40
0.3
100
AcDbArc
 50
338.0985793398189
 51
65.00000000000065
  0
LINE
  5
115
100
AcDbEntity
  8
0
  6
CONTINUOUS
 62
    7
370
   -1
100
AcDbLine
 10
-50.39227528562481
 20
47.51445926056681
 11
-50.02265440093589
 21
47.3421022114224
  0
LINE
  5
116
100
AcDbEntity
  8
0
  6
CONTINUOUS
 62
    7
370
   -1
100
AcDbLine
 10
-47.51445926056669
 20
50.39227528562446
 11
-47.34210221142229
 21
50.02265440093572
  0
ARC
  5
117
100
AcDbEntity
  8
0
  6
CONTINUOUS
 62
    7
370
   -1
100
AcDbCircle
 10
-48.69999999999982
 20
41.29999999999961
 40
2.299999999999998
100
AcDbArc
 50
167.5965240241838
 51
282.4034759758028
  0
ARC
  5
118
100
AcDbEntity
  8
0
  6
CONTINUOUS
 62
    7
370
   -1
100
AcDbCircle
 10
-48.42076704760348
 20
40.03034297611543
 40
1
100
AcDbArc
 50
282.4034759758028
 51
334.9999999999963
  0
ARC
  5
119
100
AcDbEntity
  8
0
  6
CONTINUOUS
 62
    7
370
   -1
100
AcDbCircle
 10
-49.96965702388388
 20
41.57923295239624
 40
1
100
AcDbArc
 50
115.0000000000066
 51
167.5965240241838
  0
ARC
  5
11A
100
AcDbEntity
  8
0
  6
CONTINUOUS
 62
    7
370
   -1
100
AcDbCircle
 10
-50.1494398794581
 20
42.92979012468811
 40
0.3
100
AcDbArc
 50
295.0000000000139
 51
21.90142066018112
  0
ARC
  5
11B
100
AcDbEntity
  8
0
  6
CONTINUOUS
 62
    7
370
   -1
100
AcDbCircle
 10
-47.07020987531137
 20
39.85056012054162
 40
0.3
100
AcDbArc
 50
68.09857933982191
 51
155.0000000000006
  0
LINE
  5
11C
100
AcDbEntity
  8
0
  6
CONTINUOUS
 62
    7
370
   -1
100
AcDbLine
 10
-47.51445926056686
 20
39.6077247143748
 11
-47.34210221142251
 21
39.97734559906366
  0
LINE
  5
11D
100
AcDbEntity
  8
0
  6
CONTINUOUS
 62
    7
370
   -1
100
AcDbLine
 10
-50.39227528562469
 20
42.4855407394329
 11
-50.02265440093584
 21
42.65789778857725
  0
ARC
  5
11E
100
AcDbEntity
  8
0
  6
CONTINUOUS
 62
    7
370
   -1
100
AcDbCircle
 10
-41.29999999999983
 20
41.29999999999978
 40
2.299999999999998
100
AcDbArc
 50
257.596524024187
 51
12.40347597580277
  0
ARC
  5
11F
100
AcDbEntity
  8
0
  6
CONTINUOUS
 62
    7
370
   -1
100
AcDbCircle
 10
-40.03034297611555
 20
41.57923295239618
 40
1
100
AcDbArc
 50
12.40347597580277
 51
65.00000000000065
  0
ARC
  5
120
100
AcDbEntity
  8
0
  6
CONTINUOUS
 62
    7
370
   -1
100
AcDbCircle
 10
-41.5792329523964
 20
40.03034297611577
 40
1
100
AcDbArc
 50
205.0000000000066
 51
257.596524024187
  0
ARC
  5
121
100
AcDbEntity
  8
0
  6
CONTINUOUS
 62
    7
370
   -1
100
AcDbCircle
 10
-42.9297901246884
 20
39.85056012054162
 40
0.3
100
AcDbArc
 50
25.00000000002119
 51
111.9014206601853
  0
ARC
  5
122
100
AcDbEntity
  8
0
  6
CONTINUOUS
 62
    7
370
   -1
100
AcDbCircle
 10
-39.85056012054156
 20
42.92979012468811
 40
0.3
100
AcDbArc
 50
158.0985793398146
 51
245.0000000000006
  0
LINE
  5
123
100
AcDbEntity
  8
0
  6
CONTINUOUS
 62
    7
370
   -1
100
AcDbLine
 10
-39.60772471437503
 20
42.48554073943262
 11
-39.97734559906382
 21
42.65789778857715
  0
LINE
  5
124
100
AcDbEntity
  8
0
  6
CONTINUOUS
 62
    7
370
   -1
100
AcDbLine
 10
-42.48554073943307
 20
39.60772471437491
 11
-42.65789778857737
 21
39.97734559906382
  0
ARC
  5
125
100
AcDbEntity
  8
0
  6
CONTINUOUS
 62
    7
370
   -1
100
AcDbCircle
 10
-41.30000000000001
 20
48.69999999999976
 40
2.299999999999998
100
AcDbArc
 50
347.5965240241838
 51
102.4034759758027
  0
ARC
  5
126
100
AcDbEntity
  8
0
  6
CONTINUOUS
 62
    7
370
   -1
100
AcDbCircle
 10
-41.57923295239629
 20
49.969657023884
 40
1
100
AcDbArc
 50
102.4034759757995
 51
155.0000000000006
  0
ARC
  5
127
100
AcDbEntity
  8
0
  6
CONTINUOUS
 62
    7
370
   -1
100
AcDbCircle
 10
-40.03034297611589
 20
48.42076704760325
 40
1
100
AcDbArc
 50
295.0000000000037
 51
347.5965240241838
  0
ARC
  5
128
100
AcDbEntity
  8
0
  6
CONTINUOUS
 62
    7
370
   -1
100
AcDbCircle
 10
-39.85056012054167
 20
47.07020987531115
 40
0.3
100
AcDbArc
 50
115.0000000000139
 51
201.9014206601781
  0
ARC
  5
129
100
AcDbEntity
  8
0
  6
CONTINUOUS
 62
    7
370
   -1
100
AcDbCircle
 10
-42.92979012468828
 20
50.14943987945793
 40
0.3
100
AcDbArc
 50
248.0985793398189
 51
335.0000000000006
  0
LINE
  5
12A
100
AcDbEntity
  8
0
  6
CONTINUOUS
 62
    7
370
   -1
100
AcDbLine
 10
-42.48554073943284
 20
50.39227528562463
 11
-42.65789778857731
 21
50.02265440093572
  0
LINE
  5
12B
100
AcDbEntity
  8
0
  6
CONTINUOUS
 62
    7
370
   -1
100
AcDbLine
 10
-39.60772471437508
 20
47.51445926056658
 11
-39.977345599064
 21
47.34210221142205
  0
ARC
  5
12C
100
AcDbEntity
  8
0
  6
CONTINUOUS
 62
    7
370
   -1
100
AcDbCircle
 10
-48.69999999999999
 20
3.699999999999761
 40
2.299999999999998
100
AcDbArc
 50
77.59652402418381
 51
192.4034759758027
  0
ARC
  5
12D
100
AcDbEntity
  8
0
  6
CONTINUOUS
 62
    7
370
   -1
100
AcDbCircle
 10
-49.96965702388411
 20
3.420767047603362
 40
1
100
AcDbArc
 50
192.4034759757996
 51
244.9999999999963
  0
ARC
  5
12E
100
AcDbEntity
  8
0
  6
CONTINUOUS
 62
    7
370
   -1
100
AcDbCircle
 10
-48.42076704760336
 20
4.969657023883769
 40
1
100
AcDbArc
 50
25.00000000000663
 51
77.59652402418381
  0
ARC
  5
12F
100
AcDbEntity
  8
0
  6
CONTINUOUS
 62
    7
370
   -1
100
AcDbCircle
 10
-45
 20
-5.68e-14
 40
5.25
100
AcDbArc
 50
158.0985793398219
 51
201.9014206601781
  0
ARC
  5
130
100
AcDbEntity
  8
0
  6
CONTINUOUS
 62
    7
370
   -1
100
AcDbCircle
 10
-45
 20
-5.68e-14
 40
5.25
100
AcDbArc
 50
247.5743184309615
 51
291.9014206601781
  0
ARC
  5
131
100
AcDbEntity
  8
0
  6
CONTINUOUS
 62
    7
370
   -1
100
AcDbCircle
 10
-45
 20
-5.68e-14
 40
5.25
100
AcDbArc
 50
338.0985793398219
 51
21.9014206601781
  0
ARC
  5
132
100
AcDbEntity
  8
0
  6
CONTINUOUS
 62
    7
370
   -1
100
AcDbCircle
 10
-45
 20
-5.68e-14
 40
5.25
100
AcDbArc
 50
68.09857933981888
 51
111.9014206601781
  0
ARC
  5
133
100
AcDbEntity
  8
0
  6
CONTINUOUS
 62
    7
370
   -1
100
AcDbCircle
 10
-47.07020987531137
 20
5.149439879457929
 40
0.3
100
AcDbArc
 50
205.0000000000139
 51
291.9014206601811
  0
ARC
  5
134
100
AcDbEntity
  8
0
  6
CONTINUOUS
 62
    7
370
   -1
100
AcDbCircle
 10
-50.14943987945821
 20
2.070209875311377
 40
0.3
100
AcDbArc
 50
338.0985793398189
 51
65.00000000000065
  0
LINE
  5
135
100
AcDbEntity
  8
0
  6
CONTINUOUS
 62
    7
370
   -1
100
AcDbLine
 10
-50.39227528562481
 20
2.514459260566809
 11
-50.02265440093589
 21
2.3421022114224
  0
LINE
  5
136
100
AcDbEntity
  8
0
  6
CONTINUOUS
 62
    7
370
   -1
100
AcDbLine
 10
-47.51445926056669
 20
5.392275285624521
 11
-47.34210221142229
 21
5.022654400935721
  0
ARC
  5
137
100
AcDbEntity
  8
0
  6
CONTINUOUS
 62
    7
370
   -1
100
AcDbCircle
 10
-48.69999999999982
 20
-3.700000000000216
 40
2.299999999999998
100
AcDbArc
 50
167.5965240241838
 51
282.4034759758028
  0
ARC
  5
138
100
AcDbEntity
  8
0
  6
CONTINUOUS
 62
    7
370
   -1
100
AcDbCircle
 10
-48.42076704760348
 20
-4.969657023884451
 40
1
100
AcDbArc
 50
282.4034759758028
 51
334.9999999999963
  0
ARC
  5
139
100
AcDbEntity
  8
0
  6
CONTINUOUS
 62
    7
370
   -1
100
AcDbCircle
 10
-49.96965702388388
 20
-3.42076704760359
 40
1
100
AcDbArc
 50
115.0000000000066
 51
167.5965240241838
  0
ARC
  5
13A
100
AcDbEntity
  8
0
  6
CONTINUOUS
 62
    7
370
   -1
100
AcDbCircle
 10
-50.1494398794581
 20
-2.070209875311718
 40
0.3
100
AcDbArc
 50
295.0000000000139
 51
21.90142066018112
  0
ARC
  5
13B
100
AcDbEntity
  8
0
  6
CONTINUOUS
 62
    7
370
   -1
100
AcDbCircle
 10
-47.07020987531137
 20
-5.149439879458384
 40
0.3
100
AcDbArc
 50
68.09857933982191
 51
155.0000000000006
  0
LINE
  5
13C
100
AcDbEntity
  8
0
  6
CONTINUOUS
 62
    7
370
   -1
100
AcDbLine
 10
-47.51445926056686
 20
-5.392275285625089
 11
-47.34210221142251
 21
-5.022654400936175
  0
LINE
  5
13D
100
AcDbEntity
  8
0
  6
CONTINUOUS
 62
    7
370
   -1
100
AcDbLine
 10
-50.39227528562469
 20
-2.514459260567036
 11
-50.02265440093584
 21
-2.34210221142257
  0
ARC
  5
13E
100
AcDbEntity
  8
0
  6
CONTINUOUS
 62
    7
370
   -1
100
AcDbCircle
 10
-41.29999999999983
 20
-3.700000000000102
 40
2.299999999999998
100
AcDbArc
 50
257.596524024187
 51
12.40347597580277
  0
ARC
  5
13F
100
AcDbEntity
  8
0
  6
CONTINUOUS
 62
    7
370
   -1
100
AcDbCircle
 10
-40.03034297611555
 20
-3.420767047603817
 40
1
100
AcDbArc
 50
12.40347597580277
 51
65.00000000000065
  0
ARC
  5
140
100
AcDbEntity
  8
0
  6
CONTINUOUS
 62
    7
370
   -1
100
AcDbCircle
 10
-41.5792329523964
 20
-4.969657023884224
 40
1
100
AcDbArc
 50
205.0000000000066
 51
257.596524024187
  0
ARC
  5
141
100
AcDbEntity
  8
0
  6
CONTINUOUS
 62
    7
370
   -1
100
AcDbCircle
 10
-42.9297901246884
 20
-5.149439879458384
 40
0.3
100
AcDbArc
 50
25.00000000002119
 51
111.9014206601853
  0
ARC
  5
142
100
AcDbEntity
  8
0
  6
CONTINUOUS
 62
    7
370
   -1
100
AcDbCircle
 10
-39.85056012054156
 20
-2.070209875311718
 40
0.3
100
AcDbArc
 50
158.0985793398146
 51
245.0000000000006
  0
LINE
  5
143
100
AcDbEntity
  8
0
  6
CONTINUOUS
 62
    7
370
   -1
100
AcDbLine
 10
-39.60772471437503
 20
-2.514459260567264
 11
-39.97734559906382
 21
-2.342102211422854
  0
LINE
  5
144
100
AcDbEntity
  8
0
  6
CONTINUOUS
 62
    7
370
   -1
100
AcDbLine
 10
-42.48554073943307
 20
-5.392275285625089
 11
-42.65789778857737
 21
-5.022654400936175
  0
ARC
  5
145
100
AcDbEntity
  8
0
  6
CONTINUOUS
 62
    7
370
   -1
100
AcDbCircle
 10
-41.30000000000001
 20
3.699999999999761
 40
2.299999999999998
100
AcDbArc
 50
347.5965240241838
 51
102.4034759758027
  0
ARC
  5
146
100
AcDbEntity
  8
0
  6
CONTINUOUS
 62
    7
370
   -1
100
AcDbCircle
 10
-41.57923295239629
 20
4.969657023883996
 40
1
100
AcDbArc
 50
102.4034759757995
 51
155.0000000000006
  0
ARC
  5
147
100
AcDbEntity
  8
0
  6
CONTINUOUS
 62
    7
370
   -1
100
AcDbCircle
 10
-40.03034297611589
 20
3.420767047603249
 40
1
100
AcDbArc
 50
295.0000000000037
 51
347.5965240241838
  0
ARC
  5
148
100
AcDbEntity
  8
0
  6
CONTINUOUS
 62
    7
370
   -1
100
AcDbCircle
 10
-39.85056012054167
 20
2.070209875311149
 40
0.3
100
AcDbArc
 50
115.0000000000139
 51
201.9014206601781
  0
ARC
  5
149
100
AcDbEntity
  8
0
  6
CONTINUOUS
 62
    7
370
   -1
100
AcDbCircle
 10
-42.92979012468828
 20
5.149439879457929
 40
0.3
100
AcDbArc
 50
248.0985793398189
 51
335.0000000000006
  0
LINE
  5
14A
100
AcDbEntity
  8
0
  6
CONTINUOUS
 62
    7
370
   -1
100
AcDbLine
 10
-42.48554073943284
 20
5.392275285624634
 11
-42.65789778857731
 21
5.022654400935721
  0
LINE
  5
14B
100
AcDbEntity
  8
0
  6
CONTINUOUS
 62
    7
370
   -1
100
AcDbLine
 10
-39.60772471437508
 20
2.514459260566582
 11
-39.977345599064
 21
2.342102211422059
  0
ARC
  5
14C
100
AcDbEntity
  8
0
  6
CONTINUOUS
 62
    7
370
   -1
100
AcDbCircle
 10
-3.699999999999874
 20
3.699999999999761
 40
2.299999999999998
100
AcDbArc
 50
77.59652402418381
 51
192.4034759758027
  0
ARC
  5
14D
100
AcDbEntity
  8
0
  6
CONTINUOUS
 62
    7
370
   -1
100
AcDbCircle
 10
-4.969657023883996
 20
3.420767047603362
 40
1
100
AcDbArc
 50
192.4034759757996
 51
244.9999999999963
  0
ARC
  5
14E
100
AcDbEntity
  8
0
  6
CONTINUOUS
 62
    7
370
   -1
100
AcDbCircle
 10
-3.420767047603305
 20
4.969657023883769
 40
1
100
AcDbArc
 50
25.00000000000663
 51
77.59652402418381
  0
ARC
  5
14F
100
AcDbEntity
  8
0
  6
CONTINUOUS
 62
    7
370
   -1
100
AcDbCircle
 10
1.137e-13
 20
-5.68e-14
 40
5.25
100
AcDbArc
 50
158.0985793398219
 51
201.9014206601781
  0
ARC
  5
150
100
AcDbEntity
  8
0
  6
CONTINUOUS
 62
    7
370
   -1
100
AcDbCircle
 10
1.137e-13
 20
-5.68e-14
 40
5.25
100
AcDbArc
 50
247.5743184309615
 51
291.9014206601781
  0
ARC
  5
151
100
AcDbEntity
  8
0
  6
CONTINUOUS
 62
    7
370
   -1
100
AcDbCircle
 10
1.137e-13
 20
-5.68e-14
 40
5.25
100
AcDbArc
 50
338.0985793398219
 51
21.9014206601781
  0
ARC
  5
152
100
AcDbEntity
  8
0
  6
CONTINUOUS
 62
    7
370
   -1
100
AcDbCircle
 10
1.137e-13
 20
-5.68e-14
 40
5.25
100
AcDbArc
 50
68.09857933981888
 51
111.9014206601781
  0
ARC
  5
153
100
AcDbEntity
  8
0
  6
CONTINUOUS
 62
    7
370
   -1
100
AcDbCircle
 10
-2.07020987531132
 20
5.149439879457929
 40
0.3
100
AcDbArc
 50
205.0000000000139
 51
291.9014206601811
  0
ARC
  5
154
100
AcDbEntity
  8
0
  6
CONTINUOUS
 62
    7
370
   -1
100
AcDbCircle
 10
-5.1494398794581
 20
2.070209875311377
 40
0.3
100
AcDbArc
 50
338.0985793398189
 51
65.00000000000065
  0
LINE
  5
155
100
AcDbEntity
  8
0
  6
CONTINUOUS
 62
    7
370
   -1
100
AcDbLine
 10
-5.392275285624691
 20
2.514459260566809
 11
-5.022654400935834
 21
2.3421022114224
  0
LINE
  5
156
100
AcDbEntity
  8
0
  6
CONTINUOUS
 62
    7
370
   -1
100
AcDbLine
 10
-2.514459260566582
 20
5.392275285624521
 11
-2.342102211422172
 21
5.022654400935721
  0
ARC
  5
157
100
AcDbEntity
  8
0
  6
CONTINUOUS
 62
    7
370
   -1
100
AcDbCircle
 10
-3.699999999999818
 20
-3.700000000000216
 40
2.299999999999998
100
AcDbArc
 50
167.5965240241838
 51
282.4034759758028
  0
ARC
  5
158
100
AcDbEntity
  8
0
  6
CONTINUOUS
 62
    7
370
   -1
100
AcDbCircle
 10
-3.420767047603362
 20
-4.969657023884451
 40
1
100
AcDbArc
 50
282.4034759758028
 51
334.9999999999963
  0
ARC
  5
159
100
AcDbEntity
  8
0
  6
CONTINUOUS
 62
    7
370
   -1
100
AcDbCircle
 10
-4.969657023883826
 20
-3.42076704760359
 40
1
100
AcDbArc
 50
115.0000000000066
 51
167.5965240241838
  0
ARC
  5
15A
100
AcDbEntity
  8
0
  6
CONTINUOUS
 62
    7
370
   -1
100
AcDbCircle
 10
-5.149439879457986
 20
-2.070209875311718
 40
0.3
100
AcDbArc
 50
295.0000000000139
 51
21.90142066018112
  0
ARC
  5
15B
100
AcDbEntity
  8
0
  6
CONTINUOUS
 62
    7
370
   -1
100
AcDbCircle
 10
-2.070209875311377
 20
-5.149439879458384
 40
0.3
100
AcDbArc
 50
68.09857933982191
 51
155.0000000000006
  0
LINE
  5
15C
100
AcDbEntity
  8
0
  6
CONTINUOUS
 62
    7
370
   -1
100
AcDbLine
 10
-2.514459260566809
 20
-5.392275285625089
 11
-2.3421022114224
 21
-5.022654400936175
  0
LINE
  5
15D
100
AcDbEntity
  8
0
  6
CONTINUOUS
 62
    7
370
   -1
100
AcDbLine
 10
-5.392275285624577
 20
-2.514459260567036
 11
-5.022654400935834
 21
-2.34210221142257
  0
ARC
  5
15E
100
AcDbEntity
  8
0
  6
CONTINUOUS
 62
    7
370
   -1
100
AcDbCircle
 10
3.700000000000272
 20
-3.700000000000102
 40
2.299999999999998
100
AcDbArc
 50
257.596524024187
 51
12.40347597580277
  0
ARC
  5
15F
100
AcDbEntity
  8
0
  6
CONTINUOUS
 62
    7
370
   -1
100
AcDbCircle
 10
4.969657023884508
 20
-3.420767047603817
 40
1
100
AcDbArc
 50
12.40347597580277
 51
65.00000000000065
  0
ARC
  5
160
100
AcDbEntity
  8
0
  6
CONTINUOUS
 62
    7
370
   -1
100
AcDbCircle
 10
3.420767047603703
 20
-4.969657023884224
 40
1
100
AcDbArc
 50
205.0000000000066
 51
257.596524024187
  0
ARC
  5
161
100
AcDbEntity
  8
0
  6
CONTINUOUS
 62
    7
370
   -1
100
AcDbCircle
 10
2.070209875311604
 20
-5.149439879458384
 40
0.3
100
AcDbArc
 50
25.00000000002119
 51
111.9014206601853
  0
ARC
  5
162
100
AcDbEntity
  8
0
  6
CONTINUOUS
 62
    7
370
   -1
100
AcDbCircle
 10
5.149439879458441
 20
-2.070209875311718
 40
0.3
100
AcDbArc
 50
158.0985793398146
 51
245.0000000000006
  0
LINE
  5
163
100
AcDbEntity
  8
0
  6
CONTINUOUS
 62
    7
370
   -1
100
AcDbLine
 10
5.392275285625146
 20
-2.514459260567264
 11
5.022654400936175
 21
-2.342102211422854
  0
LINE
  5
164
100
AcDbEntity
  8
0
  6
CONTINUOUS
 62
    7
370
   -1
100
AcDbLine
 10
2.514459260567036
 20
-5.392275285625089
 11
2.342102211422627
 21
-5.022654400936175
  0
ARC
  5
165
100
AcDbEntity
  8
0
  6
CONTINUOUS
 62
    7
370
   -1
100
AcDbCircle
 10
3.700000000000159
 20
3.699999999999761
 40
2.299999999999998
100
AcDbArc
 50
347.5965240241838
 51
102.4034759758027
  0
ARC
  5
166
100
AcDbEntity
  8
0
  6
CONTINUOUS
 62
    7
370
   -1
100
AcDbCircle
 10
3.420767047603817
 20
4.969657023883996
 40
1
100
AcDbArc
 50
102.4034759757995
 51
155.0000000000006
  0
ARC
  5
167
100
AcDbEntity
  8
0
  6
CONTINUOUS
 62
    7
370
   -1
100
AcDbCircle
 10
4.969657023884224
 20
3.420767047603249
 40
1
100
AcDbArc
 50
295.0000000000037
 51
347.5965240241838
  0
ARC
  5
168
100
AcDbEntity
  8
0
  6
CONTINUOUS
 62
    7
370
   -1
100
AcDbCircle
 10
5.149439879458441
 20
2.070209875311149
 40
0.3
100
AcDbArc
 50
115.0000000000139
 51
201.9014206601781
  0
ARC
  5
169
100
AcDbEntity
  8
0
  6
CONTINUOUS
 62
    7
370
   -1
100
AcDbCircle
 10
2.070209875311718
 20
5.149439879457929
 40
0.3
100
AcDbArc
 50
248.0985793398189
 51
335.0000000000006
  0
LINE
  5
16A
100
AcDbEntity
  8
0
  6
CONTINUOUS
 62
    7
370
   -1
100
AcDbLine
 10
2.51445926056715
 20
5.392275285624634
 11
2.342102211422627
 21
5.022654400935721
  0
LINE
  5
16B
100
AcDbEntity
  8
0
  6
CONTINUOUS
 62
    7
370
   -1
100
AcDbLine
 10
5.392275285624975
 20
2.514459260566582
 11
5.022654400936119
 21
2.342102211422059
  0
ARC
  5
16C
100
AcDbEntity
  8
0
  6
CONTINUOUS
 62
    7
370
   -1
100
AcDbCircle
 10
-45
 20
21.99999999999994
 40
15
100
AcDbArc
 50
64.4170126295102
 51
115.5829873704898
  0
ARC
  5
16D
100
AcDbEntity
  8
0
  6
CONTINUOUS
 62
    7
370
   -1
100
AcDbCircle
 10
-51.6068146636652
 20
35.80000000000007
 40
0.3
100
AcDbArc
 50
270.0000000000033
 51
295.5829873704898
  0
ARC
  5
16E
100
AcDbEntity
  8
0
  6
CONTINUOUS
 62
    7
370
   -1
100
AcDbCircle
 10
-38.393185336334
 20
35.79999999999961
 40
0.3
100
AcDbArc
 50
244.4170126295102
 51
270
  0
LINE
  5
16F
100
AcDbEntity
  8
0
  6
CONTINUOUS
 62
    7
370
   -1
100
AcDbLine
 10
-51.96446609406717
 20
9.499999999999773
 11
-51.60681466366509
 21
9.499999999999773
  0
LINE
  5
170
100
AcDbEntity
  8
0
  6
CONTINUOUS
 62
    7
370
   -1
100
AcDbLine
 10
-38.393185336334
 20
9.499999999999943
 11
-37.18700576850881
 21
9.499999999999943
  0
ARC
  5
171
100
AcDbEntity
  8
0
  6
CONTINUOUS
 62
    7
370
   -1
100
AcDbCircle
 10
-51.96446609406717
 20
10.49999999999977
 40
1
100
AcDbArc
 50
224.9999999999954
 51
270
  0
ARC
  5
172
100
AcDbEntity
  8
0
  6
CONTINUOUS
 62
    7
370
   -1
100
AcDbCircle
 10
-45
 20
22.99999999999994
 40
15
100
AcDbArc
 50
244.4170126295102
 51
295.5829873704942
  0
ARC
  5
173
100
AcDbEntity
  8
0
  6
CONTINUOUS
 62
    7
370
   -1
100
AcDbCircle
 10
-51.6068146636652
 20
9.199999999999591
 40
0.3
100
AcDbArc
 50
64.4170126295102
 51
89.99999999999675
  0
ARC
  5
174
100
AcDbEntity
  8
0
  6
CONTINUOUS
 62
    7
370
   -1
100
AcDbCircle
 10
-38.393185336334
 20
9.200000000000102
 40
0.3
100
AcDbArc
 50
90
 51
115.5829873704898
  0
ARC
  5
175
100
AcDbEntity
  8
0
  6
CONTINUOUS
 62
    7
370
   -1
100
AcDbCircle
 10
-34.5
 20
7.812994231491074
 40
1
100
AcDbArc
 50
135
 51
180
  0
LINE
  5
176
100
AcDbEntity
  8
0
  6
CONTINUOUS
 62
    7
370
   -1
100
AcDbLine
 10
-35.50000000000017
 20
-6.964466094067233
 11
-35.50000000000017
 21
-6.606814663665261
  0
LINE
  5
177
100
AcDbEntity
  8
0
  6
CONTINUOUS
 62
    7
370
   -1
100
AcDbLine
 10
-35.49999999999989
 20
6.606814663665943
 11
-35.49999999999989
 21
7.812994231491074
  0
ARC
  5
178
100
AcDbEntity
  8
0
  6
CONTINUOUS
 62
    7
370
   -1
100
AcDbCircle
 10
-34.50000000000017
 20
-6.964466094067233
 40
1
100
AcDbArc
 50
180
 51
225.0000000000046
  0
ARC
  5
179
100
AcDbEntity
  8
0
  6
CONTINUOUS
 62
    7
370
   -1
100
AcDbCircle
 10
-22.00000000000006
 20
-5.68e-14
 40
15
100
AcDbArc
 50
154.4170126295058
 51
205.5829873704912
  0
ARC
  5
17A
100
AcDbEntity
  8
0
  6
CONTINUOUS
 62
    7
370
   -1
100
AcDbCircle
 10
-35.80000000000018
 20
-6.606814663665261
 40
0.3
100
AcDbArc
 50
3.2569e-12
 51
25.58298737049121
  0
ARC
  5
17B
100
AcDbEntity
  8
0
  6
CONTINUOUS
 62
    7
370
   -1
100
AcDbCircle
 10
-35.7999999999999
 20
6.606814663665943
 40
0.3
100
AcDbArc
 50
334.4170126295087
 51
0
  0
LINE
  5
17C
100
AcDbEntity
  8
0
  6
CONTINUOUS
 62
    7
370
   -1
100
AcDbLine
 10
-9.500000000000057
 20
-6.964466094067404
 11
-9.500000000000057
 21
-6.606814663665261
  0
LINE
  5
17D
100
AcDbEntity
  8
0
  6
CONTINUOUS
 62
    7
370
   -1
100
AcDbLine
 10
-9.500000000000284
 20
6.606814663665772
 11
-9.500000000000284
 21
6.964466094067233
  0
LINE
  5
17E
100
AcDbEntity
  8
0
  6
CONTINUOUS
 62
    7
370
   -1
100
AcDbLine
 10
-12.20710678118666
 20
-10.085786437627
 11
-9.79289321881356
 21
-7.6715728752539
  0
LINE
  5
17F
100
AcDbEntity
  8
0
  6
CONTINUOUS
 62
    7
370
   -1
100
AcDbLine
 10
-12.20710678118666
 20
10.08578643762678
 11
-9.79289321881356
 21
7.67157287525373
  0
ARC
  5
180
100
AcDbEntity
  8
0
  6
CONTINUOUS
 62
    7
370
   -1
100
AcDbCircle
 10
-11.50000000000017
 20
10.79289321881339
 40
0.9999999999999998
100
AcDbArc
 50
180
 51
225
  0
ARC
  5
181
100
AcDbEntity
  8
0
  6
CONTINUOUS
 62
    7
370
   -1
100
AcDbCircle
 10
-10.50000000000028
 20
6.964466094067233
 40
0.9999999999999998
100
AcDbArc
 50
0
 51
45
  0
ARC
  5
182
100
AcDbEntity
  8
0
  6
CONTINUOUS
 62
    7
370
   -1
100
AcDbCircle
 10
-10.50000000000006
 20
-6.964466094067404
 40
0.9999999999999998
100
AcDbArc
 50
315
 51
0
  0
ARC
  5
183
100
AcDbEntity
  8
0
  6
CONTINUOUS
 62
    7
370
   -1
100
AcDbCircle
 10
-11.50000000000017
 20
-10.79289321881356
 40
0.9999999999999998
100
AcDbArc
 50
135
 51
180
  0
ARC
  5
184
100
AcDbEntity
  8
0
  6
CONTINUOUS
 62
    7
370
   -1
100
AcDbCircle
 10
-23.00000000000017
 20
-5.68e-14
 40
15
100
AcDbArc
 50
334.4170126295102
 51
25.58298737049121
  0
ARC
  5
185
100
AcDbEntity
  8
0
  6
CONTINUOUS
 62
    7
370
   -1
100
AcDbCircle
 10
-9.199999999999989
 20
-6.606814663665261
 40
0.2999999999999999
100
AcDbArc
 50
154.4170126295102
 51
179.9999999999967
  0
ARC
  5
186
100
AcDbEntity
  8
0
  6
CONTINUOUS
 62
    7
370
   -1
100
AcDbCircle
 10
-9.20000000000033
 20
6.606814663665772
 40
0.2999999999999999
100
AcDbArc
 50
180
 51
205.5829873704898
  0
LINE
  5
187
100
AcDbEntity
  8
0
  6
CONTINUOUS
 62
    7
370
   -1
100
AcDbLine
 10
-27.86865905045289
 20
65.49999999999994
 11
-33.10000000000002
 21
65.49999999999994
  0
LINE
  5
188
100
AcDbEntity
  8
0
  6
CONTINUOUS
 62
    7
370
   -1
100
AcDbLine
 10
-33.10000000000002
 20
62.76794919243087
 11
-33.10000000000002
 21
57.89999999999963
  0
ARC
  5
189
100
AcDbEntity
  8
0
  6
CONTINUOUS
 62
    7
370
   -1
100
AcDbCircle
 10
-32.10000000000003
 20
57.89999999999963
 40
1
100
AcDbArc
 50
180
 51
270
  0
LINE
  5
18A
100
AcDbEntity
  8
0
  6
CONTINUOUS
 62
    7
370
   -1
100
AcDbLine
 10
-27.2320508075689
 20
56.89999999999992
 11
-32.10000000000003
 21
56.89999999999975
  0
LINE
  5
18B
100
AcDbEntity
  8
0
  6
CONTINUOUS
 62
    7
370
   -1
100
AcDbLine
 10
-24.5
 20
62.13134094954694
 11
-24.5
 21
56.89999999999992
  0
ARC
  5
18C
100
AcDbEntity
  8
0
  6
CONTINUOUS
 62
    7
370
   -1
100
AcDbCircle
 10
-33.10000000000002
 20
64.49999999999994
 40
1
100
AcDbArc
 50
90
 51
239.9999999999995
  0
ARC
  5
18D
100
AcDbEntity
  8
0
  6
CONTINUOUS
 62
    7
370
   -1
100
AcDbCircle
 10
-25.5
 20
56.89999999999992
 40
1
100
AcDbArc
 50
210.0000000000005
 51
0
  0
ARC
  5
18E
100
AcDbEntity
  8
0
  6
CONTINUOUS
 62
    7
370
   -1
100
AcDbCircle
 10
-27.2320508075689
 20
55.89999999999992
 40
1
100
AcDbArc
 50
30.00000000000055
 51
90
  0
ARC
  5
18F
100
AcDbEntity
  8
0
  6
CONTINUOUS
 62
    7
370
   -1
100
AcDbCircle
 10
-34.10000000000002
 20
62.76794919243087
 40
1
100
AcDbArc
 50
0
 51
59.99999999999946
  0
LINE
  5
190
100
AcDbEntity
  8
0
  6
CONTINUOUS
 62
    7
370
   -1
100
AcDbLine
 10
-62.1313409495471
 20
-20.50000000000006
 11
-56.89999999999997
 21
-20.50000000000006
  0
LINE
  5
191
100
AcDbEntity
  8
0
  6
CONTINUOUS
 62
    7
370
   -1
100
AcDbLine
 10
-56.89999999999997
 20
-17.7679491924311
 11
-56.89999999999997
 21
-12.89999999999992
  0
ARC
  5
192
100
AcDbEntity
  8
0
  6
CONTINUOUS
 62
    7
370
   -1
100
AcDbCircle
 10
-57.89999999999998
 20
-12.89999999999992
 40
1
100
AcDbArc
 50
0
 51
90
  0
LINE
  5
193
100
AcDbEntity
  8
0
  6
CONTINUOUS
 62
    7
370
   -1
100
AcDbLine
 10
-62.7679491924311
 20
-11.90000000000009
 11
-57.89999999999998
 21
-11.89999999999992
  0
LINE
  5
194
100
AcDbEntity
  8
0
  6
CONTINUOUS
 62
    7
370
   -1
100
AcDbLine
 10
-65.5
 20
-17.13134094954728
 11
-65.5
 21
-11.90000000000009
  0
ARC
  5
195
100
AcDbEntity
  8
0
  6
CONTINUOUS
 62
    7
370
   -1
100
AcDbCircle
 10
-56.89999999999997
 20
-19.50000000000006
 40
1
100
AcDbArc
 50
270
 51
60.00000000000392
  0
ARC
  5
196
100
AcDbEntity
  8
0
  6
CONTINUOUS
 62
    7
370
   -1
100
AcDbCircle
 10
-64.5
 20
-11.90000000000009
 40
1
100
AcDbArc
 50
30.00000000000055
 51
180
  0
ARC
  5
197
100
AcDbEntity
  8
0
  6
CONTINUOUS
 62
    7
370
   -1
100
AcDbCircle
 10
-62.7679491924311
 20
-10.90000000000009
 40
1
100
AcDbArc
 50
210.0000000000005
 51
270
  0
ARC
  5
198
100
AcDbEntity
  8
0
  6
CONTINUOUS
 62
    7
370
   -1
100
AcDbCircle
 10
-55.89999999999998
 20
-17.7679491924311
 40
1
100
AcDbArc
 50
180
 51
240.0000000000039
  0
LINE
  5
199
100
AcDbEntity
  8
0
  6
CONTINUOUS
 62
    7
370
   -1
100
AcDbLine
 10
17.13134094954711
 20
-20.50000000000006
 11
11.89999999999997
 21
-20.50000000000006
  0
LINE
  5
19A
100
AcDbEntity
  8
0
  6
CONTINUOUS
 62
    7
370
   -1
100
AcDbLine
 10
11.89999999999997
 20
-17.7679491924311
 11
11.89999999999997
 21
-12.89999999999992
  0
ARC
  5
19B
100
AcDbEntity
  8
0
  6
CONTINUOUS
 62
    7
370
   -1
100
AcDbCircle
 10
12.89999999999998
 20
-12.89999999999992
 40
1
100
AcDbArc
 50
90
 51
180
  0
LINE
  5
19C
100
AcDbEntity
  8
0
  6
CONTINUOUS
 62
    7
370
   -1
100
AcDbLine
 10
17.7679491924311
 20
-11.90000000000009
 11
12.89999999999998
 21
-11.89999999999992
  0
LINE
  5
19D
100
AcDbEntity
  8
0
  6
CONTINUOUS
 62
    7
370
   -1
100
AcDbLine
 10
20.5
 20
-17.13134094954728
 11
20.5
 21
-11.90000000000009
  0
ARC
  5
19E
100
AcDbEntity
  8
0
  6
CONTINUOUS
 62
    7
370
   -1
100
AcDbCircle
 10
11.89999999999997
 20
-19.50000000000006
 40
1
100
AcDbArc
 50
119.9999999999961
 51
270
  0
ARC
  5
19F
100
AcDbEntity
  8
0
  6
CONTINUOUS
 62
    7
370
   -1
100
AcDbCircle
 10
19.5
 20
-11.90000000000009
 40
1
100
AcDbArc
 50
0
 51
149.9999999999994
  0
ARC
  5
1A0
100
AcDbEntity
  8
0
  6
CONTINUOUS
 62
    7
370
   -1
100
AcDbCircle
 10
17.7679491924311
 20
-10.90000000000009
 40
1
100
AcDbArc
 50
270
 51
329.9999999999995
  0
ARC
  5
1A1
100
AcDbEntity
  8
0
  6
CONTINUOUS
 62
    7
370
   -1
100
AcDbCircle
 10
10.89999999999998
 20
-17.7679491924311
 40
1
100
AcDbArc
 50
299.9999999999961
 51
0
  0
LINE
  5
1A2
100
AcDbEntity
  8
0
  6
CONTINUOUS
 62
    7
370
   -1
100
AcDbLine
 10
17.13134094954813
 20
20.49999999999841
 11
11.90000000000168
 21
20.49999999999887
  0
LINE
  5
1A3
100
AcDbEntity
  8
0
  6
CONTINUOUS
 62
    7
370
   -1
100
AcDbLine
 10
11.90000000000151
 20
17.76794919242991
 11
11.90000000000111
 21
12.89999999999861
  0
ARC
  5
1A4
100
AcDbEntity
  8
0
  6
CONTINUOUS
 62
    7
370
   -1
100
AcDbCircle
 10
12.90000000000111
 20
12.89999999999861
 40
1
100
AcDbArc
 50
180
 51
269.9999999999935
  0
LINE
  5
1A5
100
AcDbEntity
  8
0
  6
CONTINUOUS
 62
    7
370
   -1
100
AcDbLine
 10
17.76794919243207
 20
11.89999999999827
 11
12.900000000001
 21
11.89999999999878
  0
LINE
  5
1A6
100
AcDbEntity
  8
0
  6
CONTINUOUS
 62
    7
370
   -1
100
AcDbLine
 10
20.50000000000131
 20
17.13134094954637
 11
20.50000000000097
 21
11.8999999999981
  0
ARC
  5
1A7
100
AcDbEntity
  8
0
  6
CONTINUOUS
 62
    7
370
   -1
100
AcDbCircle
 10
11.90000000000168
 20
19.49999999999886
 40
1
100
AcDbArc
 50
89.99999999999675
 51
239.9999999999922
  0
ARC
  5
1A8
100
AcDbEntity
  8
0
  6
CONTINUOUS
 62
    7
370
   -1
100
AcDbCircle
 10
19.50000000000096
 20
11.89999999999827
 40
1
100
AcDbArc
 50
209.9999999999961
 51
0
  0
ARC
  5
1A9
100
AcDbEntity
  8
0
  6
CONTINUOUS
 62
    7
370
   -1
100
AcDbCircle
 10
17.76794919243207
 20
10.89999999999827
 40
1
100
AcDbArc
 50
29.99999999999608
 51
89.99999999999675
  0
ARC
  5
1AA
100
AcDbEntity
  8
0
  6
CONTINUOUS
 62
    7
370
   -1
100
AcDbCircle
 10
10.90000000000151
 20
17.76794919243002
 40
1
100
AcDbArc
 50
0
 51
59.99999999999217
  0
LINE
  5
1AB
100
AcDbEntity
  8
0
  6
CONTINUOUS
 62
    7
370
   -1
100
AcDbLine
 10
-52.37867965644034
 20
54.49999999999977
 11
-48.49999999999988
 21
54.49999999999977
  0
LINE
  5
1AC
100
AcDbEntity
  8
0
  6
CONTINUOUS
 62
    7
370
   -1
100
AcDbLine
 10
-43.65358983848619
 20
54.49999999999977
 11
-37.62132034355949
 21
54.49999999999977
  0
ARC
  5
1AD
100
AcDbEntity
  8
0
  6
CONTINUOUS
 62
    7
370
   -1
100
AcDbCircle
 10
-43.65358983848619
 20
53.99999999999995
 40
0.5
100
AcDbArc
 50
90
 51
120.0000000000005
  0
LINE
  5
1AE
100
AcDbEntity
  8
0
  6
CONTINUOUS
 62
    7
370
   -1
100
AcDbLine
 10
-35.49999999999989
 20
52.37867965644028
 11
-35.49999999999989
 21
48.49999999999977
  0
LINE
  5
1AF
100
AcDbEntity
  8
0
  6
CONTINUOUS
 62
    7
370
   -1
100
AcDbLine
 10
-35.49999999999989
 20
43.65358983848608
 11
-35.49999999999989
 21
37.62132034355943
  0
LINE
  5
1B0
100
AcDbEntity
  8
0
  6
CONTINUOUS
 62
    7
370
   -1
100
AcDbLine
 10
-54.49999999999988
 20
52.37867965644028
 11
-54.49999999999988
 21
46.34641016151357
  0
LINE
  5
1B1
100
AcDbEntity
  8
0
  6
CONTINUOUS
 62
    7
370
   -1
100
AcDbLine
 10
-54.49999999999988
 20
41.49999999999994
 11
-54.49999999999988
 21
37.62132034355955
  0
LINE
  5
1B2
100
AcDbEntity
  8
0
  6
CONTINUOUS
 62
    7
370
   -1
100
AcDbLine
 10
-46.09641016151369
 20
54.43301270189209
 11
-44.99999999999988
 21
53.79999999999978
  0
LINE
  5
1B3
100
AcDbEntity
  8
0
  6
CONTINUOUS
 62
    7
370
   -1
100
AcDbLine
 10
-43.9035898384862
 20
54.43301270189209
 11
-44.99999999999988
 21
53.79999999999978
  0
LINE
  5
1B4
100
AcDbEntity
  8
0
  6
CONTINUOUS
 62
    7
370
   -1
100
AcDbLine
 10
-48.49999999999988
 20
54.49999999999977
 11
-46.91515509774649
 21
54.24898522715517
  0
ARC
  5
1B5
100
AcDbEntity
  8
0
  6
CONTINUOUS
 62
    7
370
   -1
100
AcDbCircle
 10
-46.34641016151369
 20
53.99999999999995
 40
0.5
100
AcDbArc
 50
59.99999999999946
 51
120.0000000000005
  0
LINE
  5
1B6
100
AcDbEntity
  8
0
  6
CONTINUOUS
 62
    7
370
   -1
100
AcDbLine
 10
-46.91515509774649
 20
54.24898522715517
 11
-46.59641016151368
 21
54.43301270189209
  0
ARC
  5
1B7
100
AcDbEntity
  8
0
  6
CONTINUOUS
 62
    7
370
   -1
100
AcDbCircle
 10
-53.99999999999988
 20
46.34641016151357
 40
0.5
100
AcDbArc
 50
180
 51
210.0000000000005
  0
LINE
  5
1B8
100
AcDbEntity
  8
0
  6
CONTINUOUS
 62
    7
370
   -1
100
AcDbLine
 10
-54.43301270189204
 20
43.90358983848597
 11
-53.79999999999984
 21
44.99999999999994
  0
LINE
  5
1B9
100
AcDbEntity
  8
0
  6
CONTINUOUS
 62
    7
370
   -1
100
AcDbLine
 10
-54.43301270189204
 20
46.09641016151357
 11
-53.79999999999984
 21
44.99999999999994
  0
LINE
  5
1BA
100
AcDbEntity
  8
0
  6
CONTINUOUS
 62
    7
370
   -1
100
AcDbLine
 10
-54.49999999999988
 20
41.49999999999994
 11
-54.24898522715529
 21
43.0848449022531
  0
ARC
  5
1BB
100
AcDbEntity
  8
0
  6
CONTINUOUS
 62
    7
370
   -1
100
AcDbCircle
 10
-53.99999999999988
 20
43.65358983848596
 40
0.5
100
AcDbArc
 50
149.9999999999994
 51
210.0000000000005
  0
LINE
  5
1BC
100
AcDbEntity
  8
0
  6
CONTINUOUS
 62
    7
370
   -1
100
AcDbLine
 10
-54.24898522715529
 20
43.0848449022531
 11
-54.43301270189204
 21
43.40358983848597
  0
ARC
  5
1BD
100
AcDbEntity
  8
0
  6
CONTINUOUS
 62
    7
370
   -1
100
AcDbCircle
 10
-35.99999999999989
 20
43.65358983848608
 40
0.5
100
AcDbArc
 50
0
 51
30.00000000000055
  0
LINE
  5
1BE
100
AcDbEntity
  8
0
  6
CONTINUOUS
 62
    7
370
   -1
100
AcDbLine
 10
-35.56698729810768
 20
46.09641016151374
 11
-36.19999999999988
 21
44.99999999999994
  0
LINE
  5
1BF
100
AcDbEntity
  8
0
  6
CONTINUOUS
 62
    7
370
   -1
100
AcDbLine
 10
-35.56698729810768
 20
43.9035898384862
 11
-36.19999999999988
 21
44.99999999999994
  0
LINE
  5
1C0
100
AcDbEntity
  8
0
  6
CONTINUOUS
 62
    7
370
   -1
100
AcDbLine
 10
-35.49999999999989
 20
48.49999999999994
 11
-35.75101477284448
 21
46.91515509774643
  0
ARC
  5
1C1
100
AcDbEntity
  8
0
  6
CONTINUOUS
 62
    7
370
   -1
100
AcDbCircle
 10
-35.99999999999989
 20
46.34641016151369
 40
0.5
100
AcDbArc
 50
329.9999999999995
 51
30.00000000000055
  0
LINE
  5
1C2
100
AcDbEntity
  8
0
  6
CONTINUOUS
 62
    7
370
   -1
100
AcDbLine
 10
-35.75101477284448
 20
46.91515509774643
 11
-35.56698729810768
 21
46.59641016151375
  0
LINE
  5
1C3
100
AcDbEntity
  8
0
  6
CONTINUOUS
 62
    7
370
   -1
100
AcDbLine
 10
-52.37867965644039
 20
-9.500000000000057
 11
-46.34641016151386
 21
-9.500000000000057
  0
LINE
  5
1C4
100
AcDbEntity
  8
0
  6
CONTINUOUS
 62
    7
370
   -1
100
AcDbLine
 10
-41.50000000000005
 20
-9.500000000000057
 11
-37.62132034355983
 21
-9.500000000000057
  0
LINE
  5
1C5
100
AcDbEntity
  8
0
  6
CONTINUOUS
 62
    7
370
   -1
100
AcDbLine
 10
-54.50000000000006
 20
7.378679656440112
 11
-54.50000000000006
 21
1.346410161513688
  0
LINE
  5
1C6
100
AcDbEntity
  8
0
  6
CONTINUOUS
 62
    7
370
   -1
100
AcDbLine
 10
-54.50000000000006
 20
-3.500000000000056
 11
-54.50000000000006
 21
-7.378679656440453
  0
ARC
  5
1C7
100
AcDbEntity
  8
0
  6
CONTINUOUS
 62
    7
370
   -1
100
AcDbCircle
 10
-54.00000000000005
 20
1.346410161513688
 40
0.5
100
AcDbArc
 50
180
 51
210.0000000000005
  0
LINE
  5
1C8
100
AcDbEntity
  8
0
  6
CONTINUOUS
 62
    7
370
   -1
100
AcDbLine
 10
-54.43301270189232
 20
-1.096410161513915
 11
-53.80000000000006
 21
-5.68e-14
  0
LINE
  5
1C9
100
AcDbEntity
  8
0
  6
CONTINUOUS
 62
    7
370
   -1
100
AcDbLine
 10
-54.43301270189232
 20
1.096410161513688
 11
-53.80000000000006
 21
-5.68e-14
  0
LINE
  5
1CA
100
AcDbEntity
  8
0
  6
CONTINUOUS
 62
    7
370
   -1
100
AcDbLine
 10
-54.50000000000006
 20
-3.500000000000056
 11
-54.24898522715551
 21
-1.915155097746719
  0
ARC
  5
1CB
100
AcDbEntity
  8
0
  6
CONTINUOUS
 62
    7
370
   -1
100
AcDbCircle
 10
-54.00000000000005
 20
-1.346410161513915
 40
0.5
100
AcDbArc
 50
149.9999999999994
 51
210.0000000000005
  0
LINE
  5
1CC
100
AcDbEntity
  8
0
  6
CONTINUOUS
 62
    7
370
   -1
100
AcDbLine
 10
-54.24898522715551
 20
-1.915155097746719
 11
-54.43301270189232
 21
-1.596410161513915
  0
ARC
  5
1CD
100
AcDbEntity
  8
0
  6
CONTINUOUS
 62
    7
370
   -1
100
AcDbCircle
 10
-46.34641016151386
 20
-9.000000000000057
 40
0.5
100
AcDbArc
 50
270
 51
300.0000000000005
  0
LINE
  5
1CE
100
AcDbEntity
  8
0
  6
CONTINUOUS
 62
    7
370
   -1
100
AcDbLine
 10
-43.9035898384863
 20
-9.43301270189238
 11
-45.00000000000006
 21
-8.800000000000068
  0
LINE
  5
1CF
100
AcDbEntity
  8
0
  6
CONTINUOUS
 62
    7
370
   -1
100
AcDbLine
 10
-46.09641016151385
 20
-9.43301270189238
 11
-45.00000000000006
 21
-8.800000000000068
  0
LINE
  5
1D0
100
AcDbEntity
  8
0
  6
CONTINUOUS
 62
    7
370
   -1
100
AcDbLine
 10
-41.50000000000005
 20
-9.500000000000057
 11
-43.08484490225356
 21
-9.248985227155515
  0
ARC
  5
1D1
100
AcDbEntity
  8
0
  6
CONTINUOUS
 62
    7
370
   -1
100
AcDbCircle
 10
-43.65358983848631
 20
-9.000000000000057
 40
0.5
100
AcDbArc
 50
239.9999999999995
 51
300.0000000000005
  0
LINE
  5
1D2
100
AcDbEntity
  8
0
  6
CONTINUOUS
 62
    7
370
   -1
100
AcDbLine
 10
-43.08484490225356
 20
-9.248985227155515
 11
-43.40358983848631
 21
-9.43301270189238
  0
LINE
  5
1D3
100
AcDbEntity
  8
0
  6
CONTINUOUS
 62
    7
370
   -1
100
AcDbLine
 10
-7.37867965644034
 20
-9.500000000000057
 11
-1.346410161513801
 21
-9.500000000000057
  0
LINE
  5
1D4
100
AcDbEntity
  8
0
  6
CONTINUOUS
 62
    7
370
   -1
100
AcDbLine
 10
3.5
 20
-9.500000000000057
 11
7.378679656440397
 21
-9.500000000000057
  0
LINE
  5
1D5
100
AcDbEntity
  8
0
  6
CONTINUOUS
 62
    7
370
   -1
100
AcDbLine
 10
-7.378679656440397
 20
9.499999999999943
 11
-3.5
 21
9.499999999999943
  0
LINE
  5
1D6
100
AcDbEntity
  8
0
  6
CONTINUOUS
 62
    7
370
   -1
100
AcDbLine
 10
1.346410161513801
 20
9.499999999999943
 11
7.378679656440397
 21
9.499999999999943
  0
ARC
  5
1D7
100
AcDbEntity
  8
0
  6
CONTINUOUS
 62
    7
370
   -1
100
AcDbCircle
 10
1.346410161513801
 20
8.999999999999943
 40
0.5
100
AcDbArc
 50
90
 51
120.0000000000005
  0
LINE
  5
1D8
100
AcDbEntity
  8
0
  6
CONTINUOUS
 62
    7
370
   -1
100
AcDbLine
 10
9.5
 20
7.378679656440283
 11
9.5
 21
3.499999999999943
  0
LINE
  5
1D9
100
AcDbEntity
  8
0
  6
CONTINUOUS
 62
    7
370
   -1
100
AcDbLine
 10
9.5
 20
-1.346410161513801
 11
9.5
 21
-7.378679656440567
  0
LINE
  5
1DA
100
AcDbEntity
  8
0
  6
CONTINUOUS
 62
    7
370
   -1
100
AcDbLine
 10
-1.096410161513801
 20
9.433012701892096
 11
0
 21
8.799999999999898
  0
LINE
  5
1DB
100
AcDbEntity
  8
0
  6
CONTINUOUS
 62
    7
370
   -1
100
AcDbLine
 10
1.096410161513688
 20
9.433012701892096
 11
0
 21
8.799999999999898
  0
LINE
  5
1DC
100
AcDbEntity
  8
0
  6
CONTINUOUS
 62
    7
370
   -1
100
AcDbLine
 10
-3.5
 20
9.499999999999943
 11
-1.915155097746605
 21
9.248985227155231
  0
ARC
  5
1DD
100
AcDbEntity
  8
0
  6
CONTINUOUS
 62
    7
370
   -1
100
AcDbCircle
 10
-1.346410161513801
 20
8.999999999999943
 40
0.5
100
AcDbArc
 50
59.99999999999946
 51
120.0000000000005
  0
LINE
  5
1DE
100
AcDbEntity
  8
0
  6
CONTINUOUS
 62
    7
370
   -1
100
AcDbLine
 10
-1.915155097746605
 20
9.248985227155231
 11
-1.596410161513801
 21
9.433012701892096
  0
ARC
  5
1DF
100
AcDbEntity
  8
0
  6
CONTINUOUS
 62
    7
370
   -1
100
AcDbCircle
 10
-1.346410161513801
 20
-9.000000000000057
 40
0.5
100
AcDbArc
 50
270
 51
300.0000000000005
  0
LINE
  5
1E0
100
AcDbEntity
  8
0
  6
CONTINUOUS
 62
    7
370
   -1
100
AcDbLine
 10
1.096410161513801
 20
-9.43301270189238
 11
0
 21
-8.800000000000068
  0
LINE
  5
1E1
100
AcDbEntity
  8
0
  6
CONTINUOUS
 62
    7
370
   -1
100
AcDbLine
 10
-1.096410161513801
 20
-9.43301270189238
 11
0
 21
-8.800000000000068
  0
LINE
  5
1E2
100
AcDbEntity
  8
0
  6
CONTINUOUS
 62
    7
370
   -1
100
AcDbLine
 10
3.5
 20
-9.500000000000057
 11
1.915155097746492
 21
-9.248985227155515
  0
ARC
  5
1E3
100
AcDbEntity
  8
0
  6
CONTINUOUS
 62
    7
370
   -1
100
AcDbCircle
 10
1.346410161513801
 20
-9.000000000000057
 40
0.5
100
AcDbArc
 50
239.9999999999995
 51
300.0000000000005
  0
LINE
  5
1E4
100
AcDbEntity
  8
0
  6
CONTINUOUS
 62
    7
370
   -1
100
AcDbLine
 10
1.915155097746492
 20
-9.248985227155515
 11
1.596410161513801
 21
-9.43301270189238
  0
ARC
  5
1E5
100
AcDbEntity
  8
0
  6
CONTINUOUS
 62
    7
370
   -1
100
AcDbCircle
 10
9
 20
-1.346410161513801
 40
0.5
100
AcDbArc
 50
0
 51
30.00000000000055
  0
LINE
  5
1E6
100
AcDbEntity
  8
0
  6
CONTINUOUS
 62
    7
370
   -1
100
AcDbLine
 10
9.433012701892153
 20
1.096410161513745
 11
8.800000000000011
 21
-5.68e-14
  0
LINE
  5
1E7
100
AcDbEntity
  8
0
  6
CONTINUOUS
 62
    7
370
   -1
100
AcDbLine
 10
9.433012701892153
 20
-1.096410161513801
 11
8.800000000000011
 21
-5.68e-14
  0
LINE
  5
1E8
100
AcDbEntity
  8
0
  6
CONTINUOUS
 62
    7
370
   -1
100
AcDbLine
 10
9.5
 20
3.499999999999943
 11
9.248985227155458
 21
1.915155097746435
  0
ARC
  5
1E9
100
AcDbEntity
  8
0
  6
CONTINUOUS
 62
    7
370
   -1
100
AcDbCircle
 10
9
 20
1.346410161513745
 40
0.5
100
AcDbArc
 50
329.9999999999995
 51
30.00000000000055
  0
LINE
  5
1EA
100
AcDbEntity
  8
0
  6
CONTINUOUS
 62
    7
370
   -1
100
AcDbLine
 10
9.248985227155458
 20
1.915155097746435
 11
9.433012701892153
 21
1.596410161513745
  0
ARC
  5
1EB
100
AcDbEntity
  8
0
  6
CONTINUOUS
 62
    7
370
   -1
100
AcDbCircle
 10
-67.5
 20
67.49999999999994
 40
5.15
100
AcDbArc
 50
299.1964044096294
 51
330.8035955903706
  0
ARC
  5
1EC
100
AcDbEntity
  8
0
  6
CONTINUOUS
 62
    7
370
   -1
100
AcDbCircle
 10
-64.50000000000011
 20
62.13134094954694
 40
1
100
AcDbArc
 50
119.1964044096265
 51
180
  0
ARC
  5
1ED
100
AcDbEntity
  8
0
  6
CONTINUOUS
 62
    7
370
   -1
100
AcDbCircle
 10
-62.1313409495471
 20
64.49999999999994
 40
1
100
AcDbArc
 50
90
 51
150.8035955903706
  0
ARC
  5
1EE
100
AcDbEntity
  8
0
  6
CONTINUOUS
 62
    7
370
   -1
100
AcDbCircle
 10
-22.5
 20
67.49999999999994
 40
5.15
100
AcDbArc
 50
209.1964044096294
 51
240.803595590375
  0
ARC
  5
1EF
100
AcDbEntity
  8
0
  6
CONTINUOUS
 62
    7
370
   -1
100
AcDbCircle
 10
-25.49999999999989
 20
62.13134094954694
 40
1
100
AcDbArc
 50
0
 51
60.80359559037507
  0
ARC
  5
1F0
100
AcDbEntity
  8
0
  6
CONTINUOUS
 62
    7
370
   -1
100
AcDbCircle
 10
-27.86865905045289
 20
64.49999999999994
 40
1
100
AcDbArc
 50
29.19640440962937
 51
90
  0
ARC
  5
1F1
100
AcDbEntity
  8
0
  6
CONTINUOUS
 62
    7
370
   -1
100
AcDbCircle
 10
-67.5
 20
-22.50000000000006
 40
5.15
100
AcDbArc
 50
29.19640440962494
 51
60.80359559037063
  0
ARC
  5
1F2
100
AcDbEntity
  8
0
  6
CONTINUOUS
 62
    7
370
   -1
100
AcDbCircle
 10
-64.50000000000011
 20
-17.13134094954728
 40
1
100
AcDbArc
 50
180
 51
240.8035955903706
  0
ARC
  5
1F3
100
AcDbEntity
  8
0
  6
CONTINUOUS
 62
    7
370
   -1
100
AcDbCircle
 10
-62.1313409495471
 20
-19.50000000000006
 40
1
100
AcDbArc
 50
209.1964044096249
 51
270
  0
ARC
  5
1F4
100
AcDbEntity
  8
0
  6
CONTINUOUS
 62
    7
370
   -1
100
AcDbCircle
 10
22.5
 20
-22.50000000000006
 40
5.15
100
AcDbArc
 50
119.1964044096249
 51
150.8035955903735
  0
ARC
  5
1F5
100
AcDbEntity
  8
0
  6
CONTINUOUS
 62
    7
370
   -1
100
AcDbCircle
 10
19.5
 20
-17.13134094954728
 40
1
100
AcDbArc
 50
299.1964044096249
 51
0
  0
ARC
  5
1F6
100
AcDbEntity
  8
0
  6
CONTINUOUS
 62
    7
370
   -1
100
AcDbCircle
 10
17.13134094954711
 20
-19.50000000000006
 40
1
100
AcDbArc
 50
270
 51
330.8035955903735
  0
ARC
  5
1F7
100
AcDbEntity
  8
0
  6
CONTINUOUS
 62
    7
370
   -1
100
AcDbCircle
 10
22.50000000000017
 20
22.49999999999994
 40
5.15
100
AcDbArc
 50
209.1964044096439
 51
240.8035955903851
  0
ARC
  5
1F8
100
AcDbEntity
  8
0
  6
CONTINUOUS
 62
    7
370
   -1
100
AcDbCircle
 10
17.13134094954813
 20
19.49999999999846
 40
1
100
AcDbArc
 50
29.19640440964676
 51
89.99999999999675
  0
ARC
  5
1F9
100
AcDbEntity
  8
0
  6
CONTINUOUS
 62
    7
370
   -1
100
AcDbCircle
 10
19.5000000000013
 20
17.13134094954637
 40
1
100
AcDbArc
 50
359.9999999999935
 51
60.80359559038519
  0
CIRCLE
  5
1FA
100
AcDbEntity
  8
0
  6
CONTINUOUS
 62
    3
370
   -1
100
AcDbCircle
 10
-45
 20
44.99999999999994
 40
5.25
  0
CIRCLE
  5
1FB
100
AcDbEntity
  8
0
  6
CONTINUOUS
 62
    3
370
   -1
100
AcDbCircle
 10
-45
 20
-5.68e-14
 40
5.25
  0
CIRCLE
  5
1FC
100
AcDbEntity
  8
0
  6
CONTINUOUS
 62
    3
370
   -1
100
AcDbCircle
 10
1.137e-13
 20
-5.68e-14
 40
5.25
  0
ENDSEC
  0
SECTION
  2
OBJECTS
  0
DICTIONARY
  5
C
330
0
100
AcDbDictionary
281
    1
  3
ACAD_GROUP
350
D
  0
DICTIONARY
  5
D
330
C
100
AcDbDictionary
281
    1
  0
PLOTSETTINGS
  5
1FD
100
AcDbPlotSettings
  6
1x1
 40
0
 41
0
 42
0
 43
0
  0
ENDSEC
  0
EOF
