  0
SECTION
  2
HEADER
  9
$ACADVER
  1
AC1009
  9
$INSBASE
 10
0.0
 20
0.0
 30
0.0
  9
$EXTMIN
 10
-38.575598913611309
 20
-51.371501049717011
 30
0.0
  9
$EXTMAX
 10
129.06511234649739
 20
41.80730707006353
 30
0.0
  9
$LIMMIN
 10
0.0
 20
0.0
  9
$LIMMAX
 10
420.0
 20
297.0
  9
$ORTHOMODE
 70
     0
  9
$REGENMODE
 70
     1
  9
$FILLMODE
 70
     1
  9
$QTEXTMODE
 70
     0
  9
$MIRRTEXT
 70
     0
  9
$DRAGMODE
 70
     2
  9
$LTSCALE
 40
1.0
  9
$OSMODE
 70
  2109
  9
$ATTMODE
 70
     1
  9
$TEXTSIZE
 40
3.0
  9
$TRACEWID
 40
1.0
  9
$TEXTSTYLE
  7
STANDARD
  9
$CLAYER
  8
0
  9
$CELTYPE
  6
CONTINUOUS
  9
$CECOLOR
 62
     7
  9
$DIMSCALE
 40
1.0
  9
$DIMASZ
 40
2.5
  9
$DIMEXO
 40
0.625
  9
$DIMDLI
 40
3.75
  9
$DIMRND
 40
0.0
  9
$DIMDLE
 40
0.0
  9
$DIMEXE
 40
1.25
  9
$DIMTP
 40
0.0
  9
$DIMTM
 40
0.0
  9
$DIMTXT
 40
2.5
  9
$DIMCEN
 40
2.5
  9
$DIMTSZ
 40
0.0
  9
$DIMTOL
 70
     0
  9
$DIMLIM
 70
     0
  9
$DIMTIH
 70
     0
  9
$DIMTOH
 70
     0
  9
$DIMSE1
 70
     0
  9
$DIMSE2
 70
     0
  9
$DIMTAD
 70
     1
  9
$DIMZIN
 70
     8
  9
$DIMBLK
  1
OPEN30
  9
$DIMASO
 70
     1
  9
$DIMSHO
 70
     1
  9
$DIMPOST
  1

  9
$DIMAPOST
  1

  9
$DIMALT
 70
     0
  9
$DIMALTD
 70
     3
  9
$DIMALTF
 40
0.03937007874016
  9
$DIMLFAC
 40
1.0
  9
$DIMTOFL
 70
     1
  9
$DIMTVP
 40
0.0
  9
$DIMTIX
 70
     0
  9
$DIMSOXD
 70
     0
  9
$DIMSAH
 70
     0
  9
$DIMBLK1
  1

  9
$DIMBLK2
  1

  9
$DIMSTYLE
  2
MISUMI
  9
$DIMCLRD
 70
   137
  9
$DIMCLRE
 70
   137
  9
$DIMCLRT
 70
   137
  9
$DIMTFAC
 40
1.0
  9
$DIMGAP
 40
0.625
  9
$LUNITS
 70
     2
  9
$LUPREC
 70
     2
  9
$SKETCHINC
 40
1.0
  9
$FILLETRAD
 40
0.0
  9
$AUNITS
 70
     0
  9
$AUPREC
 70
     0
  9
$MENU
  1
.
  9
$ELEVATION
 40
0.0
  9
$PELEVATION
 40
0.0
  9
$THICKNESS
 40
0.0
  9
$LIMCHECK
 70
     0
  9
$BLIPMODE
 70
     0
  9
$CHAMFERA
 40
0.5
  9
$CHAMFERB
 40
0.5
  9
$SKPOLY
 70
     0
  9
$TDCREATE
 40
2455135.5720697111
  9
$TDUPDATE
 40
2455656.6069501741
  9
$TDINDWG
 40
0.0690860648
  9
$TDUSRTIMER
 40
0.0690858796
  9
$USRTIMER
 70
     1
  9
$ANGBASE
 50
0.0
  9
$ANGDIR
 70
     0
  9
$PDMODE
 70
    35
  9
$PDSIZE
 40
0.0
  9
$PLINEWID
 40
0.0
  9
$COORDS
 70
     1
  9
$SPLFRAME
 70
     0
  9
$SPLINETYPE
 70
     6
  9
$SPLINESEGS
 70
     8
  9
$ATTDIA
 70
     0
  9
$ATTREQ
 70
     1
  9
$HANDLING
 70
     1
  9
$HANDSEED
  5
1DCB
  9
$SURFTAB1
 70
     6
  9
$SURFTAB2
 70
     6
  9
$SURFTYPE
 70
     6
  9
$SURFU
 70
     6
  9
$SURFV
 70
     6
  9
$UCSNAME
  2

  9
$UCSORG
 10
0.0
 20
0.0
 30
0.0
  9
$UCSXDIR
 10
1.0
 20
0.0
 30
0.0
  9
$UCSYDIR
 10
0.0
 20
1.0
 30
0.0
  9
$PUCSNAME
  2

  9
$PUCSORG
 10
0.0
 20
0.0
 30
0.0
  9
$PUCSXDIR
 10
1.0
 20
0.0
 30
0.0
  9
$PUCSYDIR
 10
0.0
 20
1.0
 30
0.0
  9
$USERI1
 70
     0
  9
$USERI2
 70
     0
  9
$USERI3
 70
     0
  9
$USERI4
 70
     0
  9
$USERI5
 70
     0
  9
$USERR1
 40
0.0
  9
$USERR2
 40
0.0
  9
$USERR3
 40
0.0
  9
$USERR4
 40
0.0
  9
$USERR5
 40
0.0
  9
$WORLDVIEW
 70
     1
  9
$SHADEDGE
 70
     3
  9
$SHADEDIF
 70
    70
  9
$TILEMODE
 70
     1
  9
$MAXACTVP
 70
    64
  9
$PLIMCHECK
 70
     0
  9
$PEXTMIN
 10
0.0
 20
0.0
 30
0.0
  9
$PEXTMAX
 10
0.0
 20
0.0
 30
0.0
  9
$PLIMMIN
 10
0.0
 20
0.0
  9
$PLIMMAX
 10
12.0
 20
9.0
  9
$UNITMODE
 70
     0
  9
$VISRETAIN
 70
     1
  9
$PLINEGEN
 70
     0
  9
$PSLTSCALE
 70
     1
  0
ENDSEC
  0
SECTION
  2
TABLES
  0
TABLE
  2
VPORT
 70
     1
  0
VPORT
  2
*ACTIVE
 70
     0
 10
0.0
 20
0.0
 11
1.0
 21
1.0
 12
43.696765772229917
 22
-3.0008158657444559
 13
0.0
 23
0.0
 14
10.0
 24
10.0
 15
10.0
 25
10.0
 16
0.0
 26
0.0
 36
1.0
 17
0.0
 27
0.0
 37
0.0
 40
212.4436045779386
 41
1.0918367346938771
 42
50.0
 43
0.0
 44
0.0
 50
0.0
 51
0.0
 71
     0
 72
  1000
 73
     1
 74
     3
 75
     0
 76
     0
 77
     0
 78
     0
  0
ENDTAB
  0
TABLE
  2
LTYPE
 70
     4
  0
LTYPE
  2
CONTINUOUS
 70
     0
  3
Solid line
 72
    65
 73
     0
 40
0.0
  0
LTYPE
  2
CENTER
 70
     0
  3
Center ____ _ ____ _ ____ _ ____ _ ____ _ ____
 72
    65
 73
     4
 40
50.799999999999997
 49
31.75
 49
-6.3499999999999988
 49
6.3499999999999988
 49
-6.3499999999999988
  0
LTYPE
  2
DASHED
 70
     0
  3
Dashed __ __ __ __ __ __ __ __ __ __ __ __ __ _
 72
    65
 73
     2
 40
19.050000000000001
 49
12.699999999999999
 49
-6.3499999999999988
  0
LTYPE
  2
PHANTOM
 70
     0
  3
Phantom ______  __  __  ______  __  __  ______
 72
    65
 73
     6
 40
63.5
 49
31.75
 49
-6.3499999999999988
 49
6.3499999999999988
 49
-6.3499999999999988
 49
6.3499999999999988
 49
-6.3499999999999988
  0
ENDTAB
  0
TABLE
  2
LAYER
 70
     3
  0
LAYER
  2
0
 70
     0
 62
     7
  6
CONTINUOUS
  0
LAYER
  2
CENTER
 70
     0
 62
     1
  6
CENTER
  0
LAYER
  2
DEFPOINTS
 70
     0
 62
     7
  6
CONTINUOUS
  0
ENDTAB
  0
TABLE
  2
STYLE
 70
     1
  0
STYLE
  2
STANDARD
 70
     0
 40
3.0
 41
1.0
 50
0.0
 71
     0
 42
3.0
  3
txt.shx
  4
bigfont.shx
  0
ENDTAB
  0
TABLE
  2
VIEW
 70
     0
  0
ENDTAB
  0
TABLE
  2
UCS
 70
     0
  0
ENDTAB
  0
TABLE
  2
APPID
 70
     8
  0
APPID
  2
ACAD
 70
     0
  0
APPID
  2
ACAD_MLEADERVER
 70
     0
  0
APPID
  2
ACAD_PSEXT
 70
     0
  0
APPID
  2
ACAD_DSTYLE_DIMRADIAL_EXTENSION
 70
     0
  0
APPID
  2
ACAD_EXEMPT_FROM_CAD_STANDARDS
 70
     0
  0
APPID
  2
GRADIENTCOLOR1ACI
 70
     0
  0
APPID
  2
GRADIENTCOLOR2ACI
 70
     0
  0
APPID
  2
ACAECLAYERSTANDARD
 70
     0
  0
ENDTAB
  0
TABLE
  2
DIMSTYLE
 70
     1
  0
DIMSTYLE
  2
MISUMI
 70
     0
  3

  4

  5
OPEN30
  6

  7

 40
1.0
 41
2.5
 42
0.625
 43
3.75
 44
1.25
 45
0.0
 46
0.0
 47
0.0
 48
0.0
140
2.5
141
2.5
142
0.0
143
0.03937007874016
144
1.0
145
0.0
146
1.0
147
0.625
 71
     0
 72
     0
 73
     0
 74
     0
 75
     0
 76
     0
 77
     1
 78
     8
170
     0
171
     3
172
     1
173
     0
174
     0
175
     0
176
   137
177
   137
178
   137
  0
ENDTAB
  0
ENDSEC
  0
SECTION
  2
BLOCKS
  0
BLOCK
  8
0
  2
$MODEL_SPACE
 70
     0
 10
0.0
 20
0.0
 30
0.0
  3
$MODEL_SPACE
  1

  0
ENDBLK
  5
21
  8
0
  0
BLOCK
 67
     1
  8
0
  2
$PAPER_SPACE
 70
     0
 10
0.0
 20
0.0
 30
0.0
  3
$PAPER_SPACE
  1

  0
ENDBLK
  5
53
 67
     1
  8
0
  0
BLOCK
  8
0
 62
     7
  2
_OPEN30
 70
     0
 10
0.0
 20
0.0
 30
0.0
  3
_OPEN30
  1

  0
LINE
  5
D7
  8
0
  6
BYBLOCK
 62
     0
 10
-1.0
 20
0.26794919
 30
0.0
 11
0.0
 21
0.0
 31
0.0
  0
LINE
  5
D8
  8
0
  6
BYBLOCK
 62
     0
 10
0.0
 20
0.0
 30
0.0
 11
-1.0
 21
-0.26794919
 31
0.0
  0
LINE
  5
D9
  8
0
  6
BYBLOCK
 62
     0
 10
0.0
 20
0.0
 30
0.0
 11
-1.0
 21
0.0
 31
0.0
  0
ENDBLK
  5
DB
  8
0
 62
     7
  0
BLOCK
  8
0
 62
     7
  2
*U16
 70
     1
 10
0.0
 20
0.0
 30
0.0
  3
*U16
  1

  0
TEXT
  5
1DC4
  8
0
  6
CONTINUOUS
 62
     7
 10
-22.50000089409988
 20
-45.832945272774651
 30
0.0
 40
3.0
  1
NEFS8-4545-50
  0
ENDBLK
  5
1DC6
  8
0
 62
     7
  0
BLOCK
  8
0
 62
     7
  2
*U17
 70
     1
 10
0.0
 20
0.0
 30
0.0
  3
*U17
  1

  0
TEXT
  5
1DC8
  8
0
  6
CONTINUOUS
 62
     7
 10
-22.50000089409988
 20
-51.371501049717011
 30
0.0
 40
3.0
  1
NEFS8-4545
  0
ENDBLK
  5
1DCA
  8
0
 62
     7
  0
ENDSEC
  0
SECTION
  2
ENTITIES
  0
ARC
  5
19E6
  8
0
  6
CONTINUOUS
 62
     7
 10
11.80000000000009
 20
-11.799999999999949
 30
0.0
 40
0.5
 50
90.0
 51
180.0
  0
LINE
  5
19E7
  8
0
  6
CONTINUOUS
 62
     7
 10
11.300000362100089
 20
-11.80000044399995
 30
0.0
 11
11.300000362100089
 21
-16.806827858099851
 31
0.0
  0
ARC
  5
19E8
  8
0
  6
CONTINUOUS
 62
     7
 10
10.3000000000001
 20
-16.80682877999984
 30
0.0
 40
1.0000000000000011
 50
298.68540201409968
 51
0.0
  0
ARC
  5
19E9
  8
0
  6
CONTINUOUS
 62
     7
 10
11.50000000000008
 20
-18.999999999999911
 30
0.0
 40
1.5
 50
118.68540201409969
 51
270.0
  0
LINE
  5
19EA
  8
0
  6
CONTINUOUS
 62
     7
 10
11.50000002240008
 20
-20.500000566199901
 30
0.0
 11
15.148232691000089
 21
-20.500000566199901
 31
0.0
  0
ARC
  5
19EB
  8
0
  6
CONTINUOUS
 62
     7
 10
15.148232278100091
 20
-19.499999999999869
 30
0.0
 40
1.0000000000000051
 50
270.0
 51
315.0
  0
LINE
  5
19EC
  8
0
  6
CONTINUOUS
 62
     7
 10
15.85533842449999
 20
-20.207107067099901
 30
0.0
 11
20.207107067100111
 21
-15.855338424399861
 31
0.0
  0
ARC
  5
19ED
  8
0
  6
CONTINUOUS
 62
     7
 10
19.50000000000011
 20
-15.14823227809994
 30
0.0
 40
1.0000000000000151
 50
315.0
 51
0.0
  0
LINE
  5
19EE
  8
0
  6
CONTINUOUS
 62
     7
 10
20.500000566300091
 20
-15.14823269099994
 30
0.0
 11
20.500000566300091
 21
-11.50000002229994
 31
0.0
  0
ARC
  5
19EF
  8
0
  6
CONTINUOUS
 62
     7
 10
19.00000000000011
 20
-11.49999999999986
 30
0.0
 40
1.5
 50
0.0
 51
151.31459798589989
  0
ARC
  5
19F0
  8
0
  6
CONTINUOUS
 62
     7
 10
16.806828780100091
 20
-10.29999999999985
 30
0.0
 40
1.0000000000000011
 50
270.0
 51
331.31459798589913
  0
LINE
  5
19F1
  8
0
  6
CONTINUOUS
 62
     7
 10
16.806827858100089
 20
-11.30000036209986
 30
0.0
 11
11.80000044410008
 21
-11.30000036209986
 31
0.0
  0
ARC
  5
19F2
  8
0
  6
CONTINUOUS
 62
     7
 10
-16.806828779999901
 20
-10.29999999999985
 30
0.0
 40
1.0
 50
208.68540201410011
 51
270.0
  0
ARC
  5
19F3
  8
0
  6
CONTINUOUS
 62
     7
 10
-18.999999999999879
 20
-11.49999999999986
 30
0.0
 40
1.5
 50
28.685402014100148
 51
180.0
  0
LINE
  5
19F4
  8
0
  6
CONTINUOUS
 62
     7
 10
-20.500000566199901
 20
-15.14823269099994
 30
0.0
 11
-20.500000566199901
 21
-11.50000002229994
 31
0.0
  0
ARC
  5
19F5
  8
0
  6
CONTINUOUS
 62
     7
 10
-19.499999999999879
 20
-15.14823227809994
 30
0.0
 40
1.0
 50
180.0
 51
225.0
  0
LINE
  5
19F6
  8
0
  6
CONTINUOUS
 62
     7
 10
-15.855338424399919
 20
-20.207107067099901
 30
0.0
 11
-20.207107067099908
 21
-15.855338424399861
 31
0.0
  0
ARC
  5
19F7
  8
0
  6
CONTINUOUS
 62
     7
 10
-15.148232278099901
 20
-19.499999999999869
 30
0.0
 40
1.0
 50
225.0
 51
270.0
  0
LINE
  5
19F8
  8
0
  6
CONTINUOUS
 62
     7
 10
-11.500000022299901
 20
-20.500000566199901
 30
0.0
 11
-15.148232690999921
 21
-20.500000566199901
 31
0.0
  0
ARC
  5
19F9
  8
0
  6
CONTINUOUS
 62
     7
 10
-11.5
 20
-18.999999999999911
 30
0.0
 40
1.5
 50
270.0
 51
61.314597985900249
  0
ARC
  5
19FA
  8
0
  6
CONTINUOUS
 62
     7
 10
-10.299999999999921
 20
-16.80682877999984
 30
0.0
 40
1.0000000000000011
 50
180.0
 51
241.31459798590021
  0
LINE
  5
19FB
  8
0
  6
CONTINUOUS
 62
     7
 10
-11.30000036209989
 20
-11.80000044399995
 30
0.0
 11
-11.30000036209989
 21
-16.806827858099851
 31
0.0
  0
ARC
  5
19FC
  8
0
  6
CONTINUOUS
 62
     7
 10
-11.80000000000001
 20
-11.799999999999949
 30
0.0
 40
0.5
 50
0.0
 51
90.0
  0
LINE
  5
19FD
  8
0
  6
CONTINUOUS
 62
     7
 10
-16.80682785809989
 20
-11.30000036209986
 30
0.0
 11
-11.800000444
 21
-11.30000036209986
 31
0.0
  0
ARC
  5
19FE
  8
0
  6
CONTINUOUS
 62
     7
 10
16.806828780100091
 20
10.30000000000015
 30
0.0
 40
1.0000000000000071
 50
28.685402014100148
 51
90.0
  0
ARC
  5
19FF
  8
0
  6
CONTINUOUS
 62
     7
 10
19.00000000000011
 20
11.50000000000014
 30
0.0
 40
1.5
 50
208.68540201410011
 51
0.0
  0
LINE
  5
1A00
  8
0
  6
CONTINUOUS
 62
     7
 10
20.500000566300091
 20
15.148232691000061
 30
0.0
 11
20.500000566300091
 21
11.50000002240006
 31
0.0
  0
ARC
  5
1A01
  8
0
  6
CONTINUOUS
 62
     7
 10
19.50000000000011
 20
15.14823227820005
 30
0.0
 40
1.0000000000000171
 50
0.0
 51
45.0
  0
LINE
  5
1A02
  8
0
  6
CONTINUOUS
 62
     7
 10
15.85533842449999
 20
20.207107067100051
 30
0.0
 11
20.207107067100111
 21
15.85533842450004
 31
0.0
  0
ARC
  5
1A03
  8
0
  6
CONTINUOUS
 62
     7
 10
15.148232278100091
 20
19.50000000000006
 30
0.0
 40
1.0
 50
45.0
 51
90.0
  0
LINE
  5
1A04
  8
0
  6
CONTINUOUS
 62
     7
 10
11.50000002240008
 20
20.500000566300031
 30
0.0
 11
15.148232691000089
 21
20.500000566300031
 31
0.0
  0
ARC
  5
1A05
  8
0
  6
CONTINUOUS
 62
     7
 10
11.50000000000008
 20
19.00000000000005
 30
0.0
 40
1.500000000000014
 50
90.0
 51
241.31459798590021
  0
ARC
  5
1A06
  8
0
  6
CONTINUOUS
 62
     7
 10
10.3000000000001
 20
16.806828780100151
 30
0.0
 40
1.0
 50
0.0
 51
61.314597985900249
  0
LINE
  5
1A07
  8
0
  6
CONTINUOUS
 62
     7
 10
11.300000362100089
 20
11.80000044410005
 30
0.0
 11
11.300000362100089
 21
16.806827858100029
 31
0.0
  0
ARC
  5
1A08
  8
0
  6
CONTINUOUS
 62
     7
 10
11.80000000000009
 20
11.80000000000015
 30
0.0
 40
0.5000000000000071
 50
180.0
 51
270.0
  0
LINE
  5
1A09
  8
0
  6
CONTINUOUS
 62
     7
 10
16.806827858100089
 20
11.300000362100031
 30
0.0
 11
11.80000044410008
 21
11.300000362100031
 31
0.0
  0
ARC
  5
1A0A
  8
0
  6
CONTINUOUS
 62
     7
 10
-16.799999999999901
 20
5.300000000000054
 30
0.0
 40
0.3000000000000043
 50
270.0
 51
0.0
  0
ARC
  5
1A0B
  8
0
  6
CONTINUOUS
 62
     7
 10
-18.4753049233999
 20
5.300000000000054
 30
0.0
 40
0.3000000000000043
 50
217.9798724448992
 51
270.0
  0
ARC
  5
1A0C
  8
0
  6
CONTINUOUS
 62
     7
 10
-20.524695076599901
 20
5.300000000000054
 30
0.0
 40
0.2999999999999972
 50
270.0
 51
322.02012755510083
  0
ARC
  5
1A0D
  8
0
  6
CONTINUOUS
 62
     7
 10
-22.1999999999999
 20
5.300000000000054
 30
0.0
 40
0.3000000000000043
 50
180.0
 51
270.0
  0
ARC
  5
1A0E
  8
0
  6
CONTINUOUS
 62
     7
 10
-19.499999999999879
 20
19.50000000000006
 30
0.0
 40
3.0
 50
90.0
 51
180.0
  0
ARC
  5
1A0F
  8
0
  6
CONTINUOUS
 62
     7
 10
-5.2999999999999261
 20
22.200000000000049
 30
0.0
 40
0.3000000000000043
 50
0.0
 51
90.0
  0
ARC
  5
1A10
  8
0
  6
CONTINUOUS
 62
     7
 10
-5.2999999999999261
 20
20.52469507660004
 30
0.0
 40
0.3000000000000043
 50
307.97987244489963
 51
0.0
  0
ARC
  5
1A11
  8
0
  6
CONTINUOUS
 62
     7
 10
-5.2999999999999261
 20
18.475304923400159
 30
0.0
 40
0.3000000000000043
 50
0.0
 51
52.020127555100331
  0
ARC
  5
1A12
  8
0
  6
CONTINUOUS
 62
     7
 10
-5.2999999999999261
 20
16.80000000000004
 30
0.0
 40
0.3000000000000043
 50
270.0
 51
0.0
  0
LINE
  5
1A13
  8
0
  6
CONTINUOUS
 62
     7
 10
0.0
 20
8.7999999523000412
 30
0.0
 11
1.096410211200094
 21
9.4330124557001351
 31
0.0
  0
ARC
  5
1A14
  8
0
  6
CONTINUOUS
 62
     7
 10
1.346410161499989
 20
9.0000000000000568
 30
0.0
 40
0.5000000000000016
 50
89.936673262718543
 51
120.0000000000001
  0
LINE
  5
1A15
  8
0
  6
CONTINUOUS
 62
     7
 10
1.3469627914267051
 20
9.4999996946001346
 30
0.0
 11
7.378679700200081
 21
9.4999996946001346
 31
0.0
  0
LINE
  5
1A16
  8
0
  6
CONTINUOUS
 62
     7
 10
7.378679700200081
 20
9.4999996946001346
 30
0.0
 11
9.9999997765000899
 21
12.12132070220005
 31
0.0
  0
LINE
  5
1A17
  8
0
  6
CONTINUOUS
 62
     7
 10
9.9999997765000899
 20
12.12132070220005
 30
0.0
 11
9.9999997765000899
 21
16.499999910600049
 31
0.0
  0
LINE
  5
1A18
  8
0
  6
CONTINUOUS
 62
     7
 10
9.9999997765000899
 20
16.499999910600049
 30
0.0
 11
5.2999998443000891
 21
16.499999910600049
 31
0.0
  0
ARC
  5
1A19
  8
0
  6
CONTINUOUS
 62
     7
 10
5.3000000000000957
 20
16.80000000000004
 30
0.0
 40
0.3000000000000043
 50
180.0
 51
270.0
  0
LINE
  5
1A1A
  8
0
  6
CONTINUOUS
 62
     7
 10
4.9999998882000787
 20
16.79999940100015
 30
0.0
 11
4.9999998882000787
 21
18.475305289100049
 31
0.0
  0
ARC
  5
1A1B
  8
0
  6
CONTINUOUS
 62
     7
 10
5.3000000000000957
 20
18.475304923400159
 30
0.0
 40
0.3000000000000043
 50
127.9798724448997
 51
180.0
  0
ARC
  5
1A1C
  8
0
  6
CONTINUOUS
 62
     7
 10
4.5000000000000853
 20
19.50000000000006
 30
0.0
 40
1.0000000000000011
 50
307.97987244489963
 51
52.020127555100331
  0
ARC
  5
1A1D
  8
0
  6
CONTINUOUS
 62
     7
 10
5.3000000000000957
 20
20.52469507660004
 30
0.0
 40
0.3000000000000043
 50
180.0
 51
232.02012755510029
  0
LINE
  5
1A1E
  8
0
  6
CONTINUOUS
 62
     7
 10
4.9999998882000787
 20
20.524695515700049
 30
0.0
 11
4.9999998882000787
 21
22.199999541100059
 31
0.0
  0
ARC
  5
1A1F
  8
0
  6
CONTINUOUS
 62
     7
 10
5.3000000000000957
 20
22.200000000000049
 30
0.0
 40
0.3000000000000043
 50
90.0
 51
180.0
  0
LINE
  5
1A20
  8
0
  6
CONTINUOUS
 62
     7
 10
5.2999998443000891
 20
22.500000894100062
 30
0.0
 11
19.500000402300088
 21
22.500000894100062
 31
0.0
  0
ARC
  5
1A21
  8
0
  6
CONTINUOUS
 62
     7
 10
19.50000000000011
 20
19.50000000000006
 30
0.0
 40
3.0
 50
0.0
 51
90.0
  0
LINE
  5
1A22
  8
0
  6
CONTINUOUS
 62
     7
 10
22.500000894100111
 20
19.500000402400129
 30
0.0
 11
22.500000894100111
 21
5.2999998443000598
 31
0.0
  0
ARC
  5
1A23
  8
0
  6
CONTINUOUS
 62
     7
 10
22.200000000000099
 20
5.300000000000054
 30
0.0
 40
0.3000000000000114
 50
270.0
 51
0.0
  0
LINE
  5
1A24
  8
0
  6
CONTINUOUS
 62
     7
 10
22.19999954110008
 20
4.9999998883001524
 30
0.0
 11
20.52469551560009
 21
4.9999998883001524
 31
0.0
  0
ARC
  5
1A25
  8
0
  6
CONTINUOUS
 62
     7
 10
20.5246950766001
 20
5.300000000000054
 30
0.0
 40
0.2999999999999972
 50
217.9798724448992
 51
270.0
  0
ARC
  5
1A26
  8
0
  6
CONTINUOUS
 62
     7
 10
19.50000000000011
 20
4.500000000000056
 30
0.0
 40
1.0000000000000191
 50
37.979872444899193
 51
142.0201275551008
  0
ARC
  5
1A27
  8
0
  6
CONTINUOUS
 62
     7
 10
18.475304923400099
 20
5.300000000000054
 30
0.0
 40
0.3000000000000043
 50
270.0
 51
322.02012755510083
  0
LINE
  5
1A28
  8
0
  6
CONTINUOUS
 62
     7
 10
18.47530528900009
 20
4.9999998883001524
 30
0.0
 11
16.79999940100009
 21
4.9999998883001524
 31
0.0
  0
ARC
  5
1A29
  8
0
  6
CONTINUOUS
 62
     7
 10
16.80000000000009
 20
5.300000000000054
 30
0.0
 40
0.3000000000000043
 50
180.0
 51
270.0
  0
LINE
  5
1A2A
  8
0
  6
CONTINUOUS
 62
     7
 10
16.499999910600081
 20
5.2999998443000598
 30
0.0
 11
16.499999910600081
 21
9.9999997765000472
 31
0.0
  0
LINE
  5
1A2B
  8
0
  6
CONTINUOUS
 62
     7
 10
16.499999910600081
 20
9.9999997765000472
 30
0.0
 11
12.121320702100091
 21
9.9999997765000472
 31
0.0
  0
LINE
  5
1A2C
  8
0
  6
CONTINUOUS
 62
     7
 10
12.121320702100091
 20
9.9999997765000472
 30
0.0
 11
9.4999996945001044
 21
7.3786797002001521
 31
0.0
  0
LINE
  5
1A2D
  8
0
  6
CONTINUOUS
 62
     7
 10
9.4999996945001044
 20
7.3786797002001521
 30
0.0
 11
9.4999996945001044
 21
3.5000001081001382
 31
0.0
  0
LINE
  5
1A2E
  8
0
  6
CONTINUOUS
 62
     7
 10
9.4999996945001044
 20
3.5000001081001382
 30
0.0
 11
9.2489849776000881
 21
1.9151550951000469
 31
0.0
  0
LINE
  5
1A2F
  8
0
  6
CONTINUOUS
 62
     7
 10
9.2489849776000881
 20
1.9151550951000469
 30
0.0
 11
9.4330124557000943
 21
1.596410176700146
 31
0.0
  0
ARC
  5
1A30
  8
0
  6
CONTINUOUS
 62
     7
 10
9.0000000000000853
 20
1.3464101615001449
 30
0.0
 40
0.5000000000000041
 50
330.00000000000028
 51
29.99999999999973
  0
LINE
  5
1A31
  8
0
  6
CONTINUOUS
 62
     7
 10
9.4330124557000943
 20
1.0964102112000651
 30
0.0
 11
8.7999999523000838
 21
0.0000000000001421
 31
0.0
  0
LINE
  5
1A32
  8
0
  6
CONTINUOUS
 62
     7
 10
9.4330124557000943
 20
-1.0964102110999501
 30
0.0
 11
8.7999999523000838
 21
0.0000000000001421
 31
0.0
  0
ARC
  5
1A33
  8
0
  6
CONTINUOUS
 62
     7
 10
9.0000000000000853
 20
-1.346410161499846
 30
0.0
 40
0.5000000000000041
 50
359.93666288947833
 51
29.99999999999973
  0
LINE
  5
1A34
  8
0
  6
CONTINUOUS
 62
     7
 10
9.4999996945001044
 20
-7.3786797001999531
 30
0.0
 11
9.4999996945001044
 21
-1.346962881943341
 31
0.0
  0
LINE
  5
1A35
  8
0
  6
CONTINUOUS
 62
     7
 10
12.121320702100091
 20
-9.9999997764998483
 30
0.0
 11
9.4999996945001044
 21
-7.3786797001999531
 31
0.0
  0
LINE
  5
1A36
  8
0
  6
CONTINUOUS
 62
     7
 10
16.499999910600081
 20
-9.9999997764998483
 30
0.0
 11
12.121320702100091
 21
-9.9999997764998483
 31
0.0
  0
LINE
  5
1A37
  8
0
  6
CONTINUOUS
 62
     7
 10
16.499999910600081
 20
-5.2999998442999461
 30
0.0
 11
16.499999910600081
 21
-9.9999997764998483
 31
0.0
  0
ARC
  5
1A38
  8
0
  6
CONTINUOUS
 62
     7
 10
16.80000000000009
 20
-5.2999999999999536
 30
0.0
 40
0.3000000000000043
 50
90.0
 51
180.0
  0
LINE
  5
1A39
  8
0
  6
CONTINUOUS
 62
     7
 10
18.47530528900009
 20
-4.9999998881999508
 30
0.0
 11
16.79999940100009
 21
-4.9999998881999508
 31
0.0
  0
ARC
  5
1A3A
  8
0
  6
CONTINUOUS
 62
     7
 10
18.475304923400099
 20
-5.2999999999999536
 30
0.0
 40
0.3000000000000043
 50
37.979872444899193
 51
90.0
  0
ARC
  5
1A3B
  8
0
  6
CONTINUOUS
 62
     7
 10
19.50000000000011
 20
-4.4999999999999432
 30
0.0
 40
1.0000000000000191
 50
217.9798724448992
 51
322.02012755510083
  0
ARC
  5
1A3C
  8
0
  6
CONTINUOUS
 62
     7
 10
20.5246950766001
 20
-5.2999999999999536
 30
0.0
 40
0.2999999999999972
 50
90.0
 51
142.0201275551008
  0
LINE
  5
1A3D
  8
0
  6
CONTINUOUS
 62
     7
 10
22.19999954110008
 20
-4.9999998881999508
 30
0.0
 11
20.52469551560009
 21
-4.9999998881999508
 31
0.0
  0
ARC
  5
1A3E
  8
0
  6
CONTINUOUS
 62
     7
 10
22.200000000000099
 20
-5.2999999999999536
 30
0.0
 40
0.3000000000000114
 50
0.0
 51
90.0
  0
LINE
  5
1A3F
  8
0
  6
CONTINUOUS
 62
     7
 10
22.500000894100111
 20
-19.50000040229985
 30
0.0
 11
22.500000894100111
 21
-5.2999998442999461
 31
0.0
  0
ARC
  5
1A40
  8
0
  6
CONTINUOUS
 62
     7
 10
19.50000000000011
 20
-19.499999999999869
 30
0.0
 40
3.0
 50
270.0
 51
0.0
  0
LINE
  5
1A41
  8
0
  6
CONTINUOUS
 62
     7
 10
5.2999998443000891
 20
-22.500000893999911
 30
0.0
 11
19.500000402300088
 21
-22.500000893999911
 31
0.0
  0
ARC
  5
1A42
  8
0
  6
CONTINUOUS
 62
     7
 10
5.3000000000000957
 20
-22.199999999999878
 30
0.0
 40
0.3000000000000043
 50
180.0
 51
270.0
  0
LINE
  5
1A43
  8
0
  6
CONTINUOUS
 62
     7
 10
4.9999998882000787
 20
-20.524695515599898
 30
0.0
 11
4.9999998882000787
 21
-22.199999540999901
 31
0.0
  0
ARC
  5
1A44
  8
0
  6
CONTINUOUS
 62
     7
 10
5.3000000000000957
 20
-20.524695076599912
 30
0.0
 40
0.3000000000000046
 50
127.9798724448997
 51
180.0
  0
ARC
  5
1A45
  8
0
  6
CONTINUOUS
 62
     7
 10
4.5000000000000853
 20
-19.499999999999869
 30
0.0
 40
0.9999999999999987
 50
307.97987244489963
 51
52.020127555100331
  0
ARC
  5
1A46
  8
0
  6
CONTINUOUS
 62
     7
 10
5.3000000000000957
 20
-18.475304923399872
 30
0.0
 40
0.3000000000000046
 50
180.0
 51
232.02012755510029
  0
LINE
  5
1A47
  8
0
  6
CONTINUOUS
 62
     7
 10
4.9999998882000787
 20
-16.79999940089985
 30
0.0
 11
4.9999998882000787
 21
-18.475305288999849
 31
0.0
  0
ARC
  5
1A48
  8
0
  6
CONTINUOUS
 62
     7
 10
5.3000000000000957
 20
-16.799999999999951
 30
0.0
 40
0.3000000000000043
 50
90.0
 51
180.0
  0
LINE
  5
1A49
  8
0
  6
CONTINUOUS
 62
     7
 10
9.9999997765000899
 20
-16.499999910599939
 30
0.0
 11
5.2999998443000891
 21
-16.499999910599939
 31
0.0
  0
LINE
  5
1A4A
  8
0
  6
CONTINUOUS
 62
     7
 10
9.9999997765000899
 20
-12.12132070209994
 30
0.0
 11
9.9999997765000899
 21
-16.499999910599939
 31
0.0
  0
LINE
  5
1A4B
  8
0
  6
CONTINUOUS
 62
     7
 10
7.378679700200081
 20
-9.4999996944998628
 30
0.0
 11
9.9999997765000899
 21
-12.12132070209994
 31
0.0
  0
LINE
  5
1A4C
  8
0
  6
CONTINUOUS
 62
     7
 10
3.5000001079999938
 20
-9.4999996944998628
 30
0.0
 11
7.378679700200081
 21
-9.4999996944998628
 31
0.0
  0
LINE
  5
1A4D
  8
0
  6
CONTINUOUS
 62
     7
 10
1.9151550951000891
 20
-9.2489849775999442
 30
0.0
 11
3.5000001079999938
 21
-9.4999996944998628
 31
0.0
  0
LINE
  5
1A4E
  8
0
  6
CONTINUOUS
 62
     7
 10
1.5964101767000889
 20
-9.4330124556999522
 30
0.0
 11
1.9151550951000891
 21
-9.2489849775999442
 31
0.0
  0
ARC
  5
1A4F
  8
0
  6
CONTINUOUS
 62
     7
 10
1.346410161499989
 20
-8.9999999999999432
 30
0.0
 40
0.5000000000000016
 50
239.99999999999989
 51
300.00000000000011
  0
LINE
  5
1A50
  8
0
  6
CONTINUOUS
 62
     7
 10
0.0
 20
-8.7999999522999417
 30
0.0
 11
1.096410211200094
 21
-9.4330124556999522
 31
0.0
  0
LINE
  5
1A51
  8
0
  6
CONTINUOUS
 62
     7
 10
0.0
 20
-8.7999999522999417
 30
0.0
 11
-1.096410211199895
 21
-9.4330124556999522
 31
0.0
  0
ARC
  5
1A52
  8
0
  6
CONTINUOUS
 62
     7
 10
-1.3464101614999029
 20
-8.9999999999999432
 30
0.0
 40
0.4999999999999979
 50
269.93666288059683
 51
300.00000000000011
  0
LINE
  5
1A53
  8
0
  6
CONTINUOUS
 62
     7
 10
-1.3469628820321871
 20
-9.4999996944998628
 30
0.0
 11
-7.3786797001999096
 21
-9.4999996944998628
 31
0.0
  0
LINE
  5
1A54
  8
0
  6
CONTINUOUS
 62
     7
 10
-7.3786797001999096
 20
-9.4999996944998628
 30
0.0
 11
-9.9999997764999193
 21
-12.12132070209994
 31
0.0
  0
LINE
  5
1A55
  8
0
  6
CONTINUOUS
 62
     7
 10
-9.9999997764999193
 20
-12.12132070209994
 30
0.0
 11
-9.9999997764999193
 21
-16.499999910599939
 31
0.0
  0
LINE
  5
1A56
  8
0
  6
CONTINUOUS
 62
     7
 10
-9.9999997764999193
 20
-16.499999910599939
 30
0.0
 11
-5.2999998442999177
 21
-16.499999910599939
 31
0.0
  0
ARC
  5
1A57
  8
0
  6
CONTINUOUS
 62
     7
 10
-5.2999999999999261
 20
-16.799999999999951
 30
0.0
 40
0.3000000000000043
 50
0.0
 51
90.0
  0
LINE
  5
1A58
  8
0
  6
CONTINUOUS
 62
     7
 10
-4.999999888199909
 20
-16.79999940089985
 30
0.0
 11
-4.999999888199909
 21
-18.475305288999849
 31
0.0
  0
ARC
  5
1A59
  8
0
  6
CONTINUOUS
 62
     7
 10
-5.2999999999999261
 20
-18.475304923399872
 30
0.0
 40
0.3000000000000046
 50
307.97987244489963
 51
0.0
  0
ARC
  5
1A5A
  8
0
  6
CONTINUOUS
 62
     7
 10
-4.4999999999999138
 20
-19.499999999999869
 30
0.0
 40
0.9999999999999987
 50
127.9798724448997
 51
232.02012755510029
  0
ARC
  5
1A5B
  8
0
  6
CONTINUOUS
 62
     7
 10
-5.2999999999999261
 20
-20.524695076599912
 30
0.0
 40
0.3000000000000046
 50
0.0
 51
52.020127555100331
  0
LINE
  5
1A5C
  8
0
  6
CONTINUOUS
 62
     7
 10
-4.999999888199909
 20
-20.524695515599898
 30
0.0
 11
-4.999999888199909
 21
-22.199999540999901
 31
0.0
  0
ARC
  5
1A5D
  8
0
  6
CONTINUOUS
 62
     7
 10
-5.2999999999999261
 20
-22.199999999999878
 30
0.0
 40
0.3000000000000043
 50
270.0
 51
0.0
  0
LINE
  5
1A5E
  8
0
  6
CONTINUOUS
 62
     7
 10
-5.2999998442999177
 20
-22.500000893999911
 30
0.0
 11
-19.500000402299889
 21
-22.500000893999911
 31
0.0
  0
ARC
  5
1A5F
  8
0
  6
CONTINUOUS
 62
     7
 10
-19.499999999999879
 20
-19.499999999999869
 30
0.0
 40
3.0
 50
180.0
 51
270.0
  0
LINE
  5
1A60
  8
0
  6
CONTINUOUS
 62
     7
 10
-22.50000089409988
 20
-19.50000040229985
 30
0.0
 11
-22.50000089409988
 21
-5.2999998442999461
 31
0.0
  0
ARC
  5
1A61
  8
0
  6
CONTINUOUS
 62
     7
 10
-22.1999999999999
 20
-5.2999999999999536
 30
0.0
 40
0.3000000000000043
 50
90.0
 51
180.0
  0
LINE
  5
1A62
  8
0
  6
CONTINUOUS
 62
     7
 10
-22.199999540999901
 20
-4.9999998881999508
 30
0.0
 11
-20.524695515599891
 21
-4.9999998881999508
 31
0.0
  0
ARC
  5
1A63
  8
0
  6
CONTINUOUS
 62
     7
 10
-20.524695076599901
 20
-5.2999999999999536
 30
0.0
 40
0.2999999999999972
 50
37.979872444899193
 51
90.0
  0
ARC
  5
1A64
  8
0
  6
CONTINUOUS
 62
     7
 10
-19.499999999999879
 20
-4.4999999999999432
 30
0.0
 40
1.0000000000000011
 50
217.9798724448992
 51
322.02012755510083
  0
ARC
  5
1A65
  8
0
  6
CONTINUOUS
 62
     7
 10
-18.4753049233999
 20
-5.2999999999999536
 30
0.0
 40
0.3000000000000043
 50
90.0
 51
142.0201275551008
  0
LINE
  5
1A66
  8
0
  6
CONTINUOUS
 62
     7
 10
-18.475305288999891
 20
-4.9999998881999508
 30
0.0
 11
-16.799999400999891
 21
-4.9999998881999508
 31
0.0
  0
ARC
  5
1A67
  8
0
  6
CONTINUOUS
 62
     7
 10
-16.799999999999901
 20
-5.2999999999999536
 30
0.0
 40
0.3000000000000043
 50
0.0
 51
90.0
  0
LINE
  5
1A68
  8
0
  6
CONTINUOUS
 62
     7
 10
-16.499999910599879
 20
-5.2999998442999461
 30
0.0
 11
-16.499999910599879
 21
-9.9999997764998483
 31
0.0
  0
LINE
  5
1A69
  8
0
  6
CONTINUOUS
 62
     7
 10
-16.499999910599879
 20
-9.9999997764998483
 30
0.0
 11
-12.12132070209989
 21
-9.9999997764998483
 31
0.0
  0
LINE
  5
1A6A
  8
0
  6
CONTINUOUS
 62
     7
 10
-12.12132070209989
 20
-9.9999997764998483
 30
0.0
 11
-9.4999996944999907
 21
-7.3786797001999531
 31
0.0
  0
LINE
  5
1A6B
  8
0
  6
CONTINUOUS
 62
     7
 10
-9.4999996944999907
 20
-7.3786797001999531
 30
0.0
 11
-9.4999996944999907
 21
-3.5000001079998522
 31
0.0
  0
LINE
  5
1A6C
  8
0
  6
CONTINUOUS
 62
     7
 10
-9.4999996944999907
 20
-3.5000001079998522
 30
0.0
 11
-9.2489849775999176
 21
-1.9151550949998459
 31
0.0
  0
LINE
  5
1A6D
  8
0
  6
CONTINUOUS
 62
     7
 10
-9.2489849775999176
 20
-1.9151550949998459
 30
0.0
 11
-9.433012455700009
 21
-1.596410176699947
 31
0.0
  0
ARC
  5
1A6E
  8
0
  6
CONTINUOUS
 62
     7
 10
-8.9999999999999147
 20
-1.346410161499846
 30
0.0
 40
0.5000000000000041
 50
150.0000000000002
 51
209.99999999999969
  0
LINE
  5
1A6F
  8
0
  6
CONTINUOUS
 62
     7
 10
-9.433012455700009
 20
-1.0964102110999501
 30
0.0
 11
-8.7999999522999133
 21
0.0000000000001421
 31
0.0
  0
ARC
  5
1A70
  8
0
  6
CONTINUOUS
 62
     7
 10
-11.80000000000001
 20
11.80000000000015
 30
0.0
 40
0.5000000000000071
 50
270.0
 51
0.0
  0
LINE
  5
1A71
  8
0
  6
CONTINUOUS
 62
     7
 10
-11.30000036209989
 20
11.80000044410005
 30
0.0
 11
-11.30000036209989
 21
16.806827858100029
 31
0.0
  0
ARC
  5
1A72
  8
0
  6
CONTINUOUS
 62
     7
 10
-10.299999999999921
 20
16.806828780100151
 30
0.0
 40
1.0
 50
118.68540201409969
 51
180.0
  0
ARC
  5
1A73
  8
0
  6
CONTINUOUS
 62
     7
 10
-11.5
 20
19.00000000000005
 30
0.0
 40
1.500000000000014
 50
298.68540201409968
 51
90.0
  0
LINE
  5
1A74
  8
0
  6
CONTINUOUS
 62
     7
 10
-11.500000022299901
 20
20.500000566300031
 30
0.0
 11
-15.148232690999921
 21
20.500000566300031
 31
0.0
  0
ARC
  5
1A75
  8
0
  6
CONTINUOUS
 62
     7
 10
-15.148232278099901
 20
19.50000000000006
 30
0.0
 40
1.0
 50
90.0
 51
135.0
  0
LINE
  5
1A76
  8
0
  6
CONTINUOUS
 62
     7
 10
-15.855338424399919
 20
20.207107067100051
 30
0.0
 11
-20.207107067099908
 21
15.85533842450004
 31
0.0
  0
ARC
  5
1A77
  8
0
  6
CONTINUOUS
 62
     7
 10
-19.499999999999879
 20
15.14823227820005
 30
0.0
 40
1.0000000000000011
 50
135.0
 51
180.0
  0
LINE
  5
1A78
  8
0
  6
CONTINUOUS
 62
     7
 10
-20.500000566199901
 20
15.148232691000061
 30
0.0
 11
-20.500000566199901
 21
11.50000002240006
 31
0.0
  0
ARC
  5
1A79
  8
0
  6
CONTINUOUS
 62
     7
 10
-18.999999999999879
 20
11.50000000000014
 30
0.0
 40
1.5
 50
180.0
 51
331.31459798589913
  0
ARC
  5
1A7A
  8
0
  6
CONTINUOUS
 62
     7
 10
-16.806828779999901
 20
10.30000000000015
 30
0.0
 40
1.0000000000000071
 50
90.0
 51
151.31459798589989
  0
LINE
  5
1A7B
  8
0
  6
CONTINUOUS
 62
     7
 10
-16.80682785809989
 20
11.300000362100031
 30
0.0
 11
-11.800000444
 21
11.300000362100031
 31
0.0
  0
LINE
  5
1A7C
  8
0
  6
CONTINUOUS
 62
     7
 10
-6.968679837899912
 20
-3.000000025999952
 30
0.0
 11
-7.3000001720999128
 21
-3.000000025999952
 31
0.0
  0
ARC
  5
1A7D
  8
0
  6
CONTINUOUS
 62
     7
 10
-7.2999999999999261
 20
-3.5999999999999508
 30
0.0
 40
0.6000000000000015
 50
90.0
 51
180.0
  0
LINE
  5
1A7E
  8
0
  6
CONTINUOUS
 62
     7
 10
-7.8999996184999191
 20
-3.5999999380999408
 30
0.0
 11
-7.8999996184999191
 21
-7.4000000021998451
 31
0.0
  0
ARC
  5
1A7F
  8
0
  6
CONTINUOUS
 62
     7
 10
-7.3999999999999204
 20
-7.399999999999948
 30
0.0
 40
0.5
 50
180.0
 51
270.0
  0
ARC
  5
1A80
  8
0
  6
CONTINUOUS
 62
     7
 10
-3.5999999999999091
 20
-7.299999999999855
 30
0.0
 40
0.5999999999999944
 50
270.0
 51
0.0
  0
LINE
  5
1A81
  8
0
  6
CONTINUOUS
 62
     7
 10
-3.0000000260999111
 20
-7.3000001720999421
 30
0.0
 11
-3.0000000260999111
 21
-6.9686798378999546
 31
0.0
  0
ARC
  5
1A82
  8
0
  6
CONTINUOUS
 62
     7
 10
-1.9999999999999141
 20
-6.96867993239995
 30
0.0
 40
1.0
 50
73.986605576100189
 51
180.0
  0
ARC
  5
1A83
  8
0
  6
CONTINUOUS
 62
     7
 10
0.0
 20
0.0000000000001421
 30
0.0
 40
6.2500000000000133
 50
253.9866055761002
 51
286.0133944238998
  0
ARC
  5
1A84
  8
0
  6
CONTINUOUS
 62
     7
 10
2.0000000000000848
 20
-6.96867993239995
 30
0.0
 40
1.0
 50
0.0
 51
106.0133944238998
  0
LINE
  5
1A85
  8
0
  6
CONTINUOUS
 62
     7
 10
3.0000000261000821
 20
-7.3000001720999421
 30
0.0
 11
3.0000000261000821
 21
-6.9686798378999546
 31
0.0
  0
ARC
  5
1A86
  8
0
  6
CONTINUOUS
 62
     7
 10
3.6000000000000791
 20
-7.299999999999855
 30
0.0
 40
0.5999999999999944
 50
180.0
 51
270.0
  0
LINE
  5
1A87
  8
0
  6
CONTINUOUS
 62
     7
 10
7.4000000022000156
 20
-7.8999996184999466
 30
0.0
 11
3.5999999382000851
 21
-7.8999996184999466
 31
0.0
  0
ARC
  5
1A88
  8
0
  6
CONTINUOUS
 62
     7
 10
7.4000000000000901
 20
-7.399999999999948
 30
0.0
 40
0.5
 50
270.0
 51
0.0
  0
LINE
  5
1A89
  8
0
  6
CONTINUOUS
 62
     7
 10
7.8999996185000887
 20
-3.5999999380999408
 30
0.0
 11
7.8999996185000887
 21
-7.4000000021998451
 31
0.0
  0
ARC
  5
1A8A
  8
0
  6
CONTINUOUS
 62
     7
 10
7.3000000000000957
 20
-3.5999999999999508
 30
0.0
 40
0.6000000000000015
 50
0.0
 51
90.0
  0
LINE
  5
1A8B
  8
0
  6
CONTINUOUS
 62
     7
 10
6.9686798379000834
 20
-3.000000025999952
 30
0.0
 11
7.3000001721000842
 21
-3.000000025999952
 31
0.0
  0
ARC
  5
1A8C
  8
0
  6
CONTINUOUS
 62
     7
 10
6.9686799324000779
 20
-1.999999999999857
 30
0.0
 40
1.0000000000000011
 50
163.9866055761002
 51
270.0
  0
ARC
  5
1A8D
  8
0
  6
CONTINUOUS
 62
     7
 10
0.0
 20
0.0000000000001421
 30
0.0
 40
6.2500000000000018
 50
343.9866055761002
 51
16.013394423899811
  0
ARC
  5
1A8E
  8
0
  6
CONTINUOUS
 62
     7
 10
6.9686799324000779
 20
2.0000000000001421
 30
0.0
 40
1.0000000000000011
 50
90.0
 51
196.0133944238998
  0
LINE
  5
1A8F
  8
0
  6
CONTINUOUS
 62
     7
 10
6.9686798379000834
 20
3.0000000261000528
 30
0.0
 11
7.3000001721000842
 21
3.0000000261000528
 31
0.0
  0
ARC
  5
1A90
  8
0
  6
CONTINUOUS
 62
     7
 10
7.3000000000000957
 20
3.6000000000000512
 30
0.0
 40
0.6000000000000015
 50
270.0
 51
0.0
  0
LINE
  5
1A91
  8
0
  6
CONTINUOUS
 62
     7
 10
7.8999996185000887
 20
3.599999938200042
 30
0.0
 11
7.8999996185000887
 21
7.4000000023000458
 31
0.0
  0
ARC
  5
1A92
  8
0
  6
CONTINUOUS
 62
     7
 10
7.4000000000000901
 20
7.4000000000001469
 30
0.0
 40
0.5
 50
0.0
 51
90.0
  0
LINE
  5
1A93
  8
0
  6
CONTINUOUS
 62
     7
 10
7.4000000022000156
 20
7.8999996186000621
 30
0.0
 11
3.5999999382000851
 21
7.8999996186000621
 31
0.0
  0
ARC
  5
1A94
  8
0
  6
CONTINUOUS
 62
     7
 10
3.6000000000000791
 20
7.300000000000054
 30
0.0
 40
0.5999999999999944
 50
90.0
 51
180.0
  0
LINE
  5
1A95
  8
0
  6
CONTINUOUS
 62
     7
 10
3.0000000261000821
 20
7.3000001721000407
 30
0.0
 11
3.0000000261000821
 21
6.9686798379000541
 31
0.0
  0
ARC
  5
1A96
  8
0
  6
CONTINUOUS
 62
     7
 10
2.0000000000000848
 20
6.9686799324000503
 30
0.0
 40
1.0
 50
253.9866055761002
 51
0.0
  0
ARC
  5
1A97
  8
0
  6
CONTINUOUS
 62
     7
 10
-1.9999999999999141
 20
6.9686799324000503
 30
0.0
 40
1.0
 50
180.0
 51
286.0133944238998
  0
ARC
  5
1A98
  8
0
  6
CONTINUOUS
 62
     7
 10
-3.5999999999999091
 20
7.300000000000054
 30
0.0
 40
0.5999999999999944
 50
0.0
 51
90.0
  0
ARC
  5
1A99
  8
0
  6
CONTINUOUS
 62
     7
 10
-7.3999999999999204
 20
7.4000000000001469
 30
0.0
 40
0.5
 50
90.0
 51
180.0
  0
ARC
  5
1A9A
  8
0
  6
CONTINUOUS
 62
     7
 10
-7.2999999999999261
 20
3.6000000000000512
 30
0.0
 40
0.6000000000000015
 50
180.0
 51
270.0
  0
ARC
  5
1A9B
  8
0
  6
CONTINUOUS
 62
     7
 10
-6.9686799323999082
 20
2.0000000000001421
 30
0.0
 40
1.0000000000000011
 50
343.9866055761002
 51
90.0
  0
ARC
  5
1A9C
  8
0
  6
CONTINUOUS
 62
     7
 10
-6.9686799323999082
 20
-1.999999999999857
 30
0.0
 40
1.0000000000000011
 50
270.0
 51
16.013394423899811
  0
LINE
  5
1A9D
  8
0
  6
CONTINUOUS
 62
     7
 10
-7.4000000021999019
 20
-7.8999996184999466
 30
0.0
 11
-3.5999999381999142
 21
-7.8999996184999466
 31
0.0
  0
LINE
  5
1A9E
  8
0
  6
CONTINUOUS
 62
     7
 10
-7.4000000021999019
 20
7.8999996186000621
 30
0.0
 11
-3.5999999381999142
 21
7.8999996186000621
 31
0.0
  0
LINE
  5
1A9F
  8
0
  6
CONTINUOUS
 62
     7
 10
-3.0000000260999111
 20
7.3000001721000407
 30
0.0
 11
-3.0000000260999111
 21
6.9686798379000541
 31
0.0
  0
ARC
  5
1AA0
  8
0
  6
CONTINUOUS
 62
     7
 10
0.0
 20
0.0000000000001421
 30
0.0
 40
6.2500000000000018
 50
73.986605576100189
 51
106.0133944238998
  0
LINE
  5
1AA1
  8
0
  6
CONTINUOUS
 62
     7
 10
0.0
 20
8.7999999523000412
 30
0.0
 11
-1.096410211199895
 21
9.4330124557001351
 31
0.0
  0
ARC
  5
1AA2
  8
0
  6
CONTINUOUS
 62
     7
 10
-1.3464101614999029
 20
9.0000000000000568
 30
0.0
 40
0.4999999999999979
 50
59.999999999999858
 51
120.0000000000001
  0
LINE
  5
1AA3
  8
0
  6
CONTINUOUS
 62
     7
 10
-1.596410176699919
 20
9.4330124557001351
 30
0.0
 11
-1.915155094999903
 21
9.2489849776000597
 31
0.0
  0
LINE
  5
1AA4
  8
0
  6
CONTINUOUS
 62
     7
 10
-1.915155094999903
 20
9.2489849776000597
 30
0.0
 11
-3.500000107999909
 21
9.4999996946001346
 31
0.0
  0
LINE
  5
1AA5
  8
0
  6
CONTINUOUS
 62
     7
 10
-3.500000107999909
 20
9.4999996946001346
 30
0.0
 11
-7.3786797001999096
 21
9.4999996946001346
 31
0.0
  0
LINE
  5
1AA6
  8
0
  6
CONTINUOUS
 62
     7
 10
-7.3786797001999096
 20
9.4999996946001346
 30
0.0
 11
-9.9999997764999193
 21
12.12132070220005
 31
0.0
  0
LINE
  5
1AA7
  8
0
  6
CONTINUOUS
 62
     7
 10
-9.9999997764999193
 20
12.12132070220005
 30
0.0
 11
-9.9999997764999193
 21
16.499999910600049
 31
0.0
  0
LINE
  5
1AA8
  8
0
  6
CONTINUOUS
 62
     7
 10
-9.9999997764999193
 20
16.499999910600049
 30
0.0
 11
-5.2999998442999177
 21
16.499999910600049
 31
0.0
  0
LINE
  5
1AA9
  8
0
  6
CONTINUOUS
 62
     7
 10
-4.999999888199909
 20
16.79999940100015
 30
0.0
 11
-4.999999888199909
 21
18.475305289100049
 31
0.0
  0
ARC
  5
1AAA
  8
0
  6
CONTINUOUS
 62
     7
 10
-4.4999999999999138
 20
19.50000000000006
 30
0.0
 40
1.0000000000000011
 50
127.9798724448997
 51
232.02012755510029
  0
LINE
  5
1AAB
  8
0
  6
CONTINUOUS
 62
     7
 10
-4.999999888199909
 20
20.524695515700049
 30
0.0
 11
-4.999999888199909
 21
22.199999541100059
 31
0.0
  0
LINE
  5
1AAC
  8
0
  6
CONTINUOUS
 62
     7
 10
-5.2999998442999177
 20
22.500000894100062
 30
0.0
 11
-19.500000402299889
 21
22.500000894100062
 31
0.0
  0
LINE
  5
1AAD
  8
0
  6
CONTINUOUS
 62
     7
 10
-22.50000089409988
 20
19.500000402400129
 30
0.0
 11
-22.50000089409988
 21
5.2999998443000598
 31
0.0
  0
LINE
  5
1AAE
  8
0
  6
CONTINUOUS
 62
     7
 10
-22.199999540999901
 20
4.9999998883001524
 30
0.0
 11
-20.524695515599891
 21
4.9999998883001524
 31
0.0
  0
ARC
  5
1AAF
  8
0
  6
CONTINUOUS
 62
     7
 10
-19.499999999999879
 20
4.500000000000056
 30
0.0
 40
1.0000000000000011
 50
37.979872444899193
 51
142.0201275551008
  0
LINE
  5
1AB0
  8
0
  6
CONTINUOUS
 62
     7
 10
-18.475305288999891
 20
4.9999998883001524
 30
0.0
 11
-16.799999400999891
 21
4.9999998883001524
 31
0.0
  0
LINE
  5
1AB1
  8
0
  6
CONTINUOUS
 62
     7
 10
-16.499999910599879
 20
5.2999998443000598
 30
0.0
 11
-16.499999910599879
 21
9.9999997765000472
 31
0.0
  0
LINE
  5
1AB2
  8
0
  6
CONTINUOUS
 62
     7
 10
-16.499999910599879
 20
9.9999997765000472
 30
0.0
 11
-12.12132070209989
 21
9.9999997765000472
 31
0.0
  0
LINE
  5
1AB3
  8
0
  6
CONTINUOUS
 62
     7
 10
-12.12132070209989
 20
9.9999997765000472
 30
0.0
 11
-9.4999996944999907
 21
7.3786797002001521
 31
0.0
  0
LINE
  5
1AB4
  8
0
  6
CONTINUOUS
 62
     7
 10
-9.4999996944999907
 20
7.3786797002001521
 30
0.0
 11
-9.4999996944999907
 21
1.3469628819385511
 31
0.0
  0
ARC
  5
1AB5
  8
0
  6
CONTINUOUS
 62
     7
 10
-8.9999999999999147
 20
1.3464101615001449
 30
0.0
 40
0.5000000000000041
 50
179.9366628886234
 51
209.99999999999969
  0
LINE
  5
1AB6
  8
0
  6
CONTINUOUS
 62
     7
 10
-9.433012455700009
 20
1.0964102112000651
 30
0.0
 11
-8.7999999522999133
 21
0.0000000000001421
 31
0.0
  0
ARC
  5
1AB7
  8
0
  6
CONTINUOUS
 62
     7
 10
0.0
 20
0.0000000000001421
 30
0.0
 40
6.2499999999999973
 50
163.9866055761002
 51
196.0133944238998
  0
LINE
  5
1AB8
  8
0
  6
CONTINUOUS
 62
     7
 10
-6.968679837899912
 20
3.0000000261000528
 30
0.0
 11
-7.3000001720999128
 21
3.0000000261000528
 31
0.0
  0
LINE
  5
1AB9
  8
0
  6
CONTINUOUS
 62
     7
 10
-7.8999996184999191
 20
3.599999938200042
 30
0.0
 11
-7.8999996184999191
 21
7.4000000023000458
 31
0.0
  0
LINE
  5
1ACB
  8
0
  6
CONTINUOUS
 62
     7
 10
77.065112346497472
 20
22.500000894100062
 30
0.0
 11
127.0651123464974
 21
22.500000894100062
 31
0.0
  0
LINE
  5
1ACC
  8
0
  6
CONTINUOUS
 62
     7
 10
77.065112346497472
 20
4.9999998883001524
 30
0.0
 11
127.0651123464974
 21
4.9999998883001524
 31
0.0
  0
LINE
  5
1ACD
  8
0
  6
CONTINUOUS
 62
     7
 10
77.065112346497472
 20
3.5000001081001382
 30
0.0
 11
127.0651123464974
 21
3.5000001081001382
 31
0.0
  0
LINE
  5
1ACE
  8
0
  6
CONTINUOUS
 62
     7
 10
77.065112346497472
 20
1.9151550951000469
 30
0.0
 11
127.0651123464974
 21
1.9151550951000469
 31
0.0
  0
LINE
  5
1ACF
  8
0
  6
CONTINUOUS
 62
     7
 10
77.065112346497443
 20
0.0000000000001421
 30
0.0
 11
127.0651123464974
 21
0.0000000000001421
 31
0.0
  0
LINE
  5
1AD0
  8
0
  6
CONTINUOUS
 62
     7
 10
77.065112346497472
 20
-4.9999998881999508
 30
0.0
 11
127.0651123464974
 21
-4.9999998881999508
 31
0.0
  0
LINE
  5
1AD1
  8
0
  6
CONTINUOUS
 62
     7
 10
77.065112346497443
 20
-22.500000893999911
 30
0.0
 11
127.0651123464974
 21
-22.500000893999911
 31
0.0
  0
LINE
  5
1AD8
  8
0
  6
CONTINUOUS
 62
     7
 10
77.065112346497472
 20
22.500000894100062
 30
0.0
 11
77.065112346497443
 21
-22.500000893999911
 31
0.0
  0
LINE
  5
1AD9
  8
0
  6
CONTINUOUS
 62
     7
 10
127.0651123464974
 20
22.500000894100062
 30
0.0
 11
127.0651123464974
 21
-22.500000893999911
 31
0.0
  0
LINE
  5
1ADA
  8
CENTER
  6
CENTER
 62
     1
 10
75.065112346497457
 20
0.0000000000001421
 30
0.0
 11
129.06511234649739
 21
0.0000000000001421
 31
0.0
  0
LINE
  5
1ADB
  8
CENTER
  6
CENTER
 62
     1
 10
0.0000000000000016
 20
24.500000894100062
 30
0.0
 11
-0.0000000000000044
 21
-24.500000893999911
 31
0.0
  0
LINE
  5
1ADC
  8
CENTER
  6
CENTER
 62
     1
 10
-24.50000089409988
 20
0.000000000000145
 30
0.0
 11
24.500000894100111
 21
0.000000000000142
 31
0.0
  0
INSERT
  5
1ADE
  8
0
  6
CONTINUOUS
 62
     7
  2
*U16
 10
0.0
 20
0.0
 30
0.0
  0
INSERT
  5
1ADF
  8
0
  6
CONTINUOUS
 62
     7
  2
*U17
 10
0.0
 20
0.0
 30
0.0
  0
CIRCLE
  5
1B2A
  8
0
  6
PHANTOM
 62
     3
 10
0.0000000000000284
 20
0.0000000000001433
 30
0.0
 40
6.25
  0
ENDSEC
  0
EOF
