  0
SECTION
  2
HEADER
  9
$ACADVER
  1
AC1009
  9
$INSBASE
 10
0.0
 20
0.0
 30
0.0
  9
$EXTMIN
 10
-40.941313993389251
 20
-75.865914275957607
 30
0.0
  9
$EXTMAX
 10
133.40071819950259
 20
42.991242280207409
 30
0.0
  9
$LIMMIN
 10
0.0
 20
0.0
  9
$LIMMAX
 10
420.0
 20
297.0
  9
$ORTHOMODE
 70
     0
  9
$REGENMODE
 70
     1
  9
$FILLMODE
 70
     1
  9
$QTEXTMODE
 70
     0
  9
$MIRRTEXT
 70
     0
  9
$DRAGMODE
 70
     2
  9
$LTSCALE
 40
1.0
  9
$OSMODE
 70
  2109
  9
$ATTMODE
 70
     1
  9
$TEXTSIZE
 40
3.0
  9
$TRACEWID
 40
1.0
  9
$TEXTSTYLE
  7
STANDARD
  9
$CLAYER
  8
0
  9
$CELTYPE
  6
CONTINUOUS
  9
$CECOLOR
 62
     7
  9
$DIMSCALE
 40
1.0
  9
$DIMASZ
 40
2.5
  9
$DIMEXO
 40
0.625
  9
$DIMDLI
 40
3.75
  9
$DIMRND
 40
0.0
  9
$DIMDLE
 40
0.0
  9
$DIMEXE
 40
1.25
  9
$DIMTP
 40
0.0
  9
$DIMTM
 40
0.0
  9
$DIMTXT
 40
2.5
  9
$DIMCEN
 40
2.5
  9
$DIMTSZ
 40
0.0
  9
$DIMTOL
 70
     0
  9
$DIMLIM
 70
     0
  9
$DIMTIH
 70
     0
  9
$DIMTOH
 70
     0
  9
$DIMSE1
 70
     0
  9
$DIMSE2
 70
     0
  9
$DIMTAD
 70
     1
  9
$DIMZIN
 70
     8
  9
$DIMBLK
  1
OPEN30
  9
$DIMASO
 70
     1
  9
$DIMSHO
 70
     1
  9
$DIMPOST
  1

  9
$DIMAPOST
  1

  9
$DIMALT
 70
     0
  9
$DIMALTD
 70
     3
  9
$DIMALTF
 40
0.03937007874016
  9
$DIMLFAC
 40
1.0
  9
$DIMTOFL
 70
     1
  9
$DIMTVP
 40
0.0
  9
$DIMTIX
 70
     0
  9
$DIMSOXD
 70
     0
  9
$DIMSAH
 70
     0
  9
$DIMBLK1
  1

  9
$DIMBLK2
  1

  9
$DIMSTYLE
  2
MISUMI
  9
$DIMCLRD
 70
   137
  9
$DIMCLRE
 70
   137
  9
$DIMCLRT
 70
   137
  9
$DIMTFAC
 40
1.0
  9
$DIMGAP
 40
0.625
  9
$LUNITS
 70
     2
  9
$LUPREC
 70
     2
  9
$SKETCHINC
 40
1.0
  9
$FILLETRAD
 40
0.0
  9
$AUNITS
 70
     0
  9
$AUPREC
 70
     0
  9
$MENU
  1
.
  9
$ELEVATION
 40
0.0
  9
$PELEVATION
 40
0.0
  9
$THICKNESS
 40
0.0
  9
$LIMCHECK
 70
     0
  9
$BLIPMODE
 70
     0
  9
$CHAMFERA
 40
0.5
  9
$CHAMFERB
 40
0.5
  9
$SKPOLY
 70
     0
  9
$TDCREATE
 40
2455135.5720697111
  9
$TDUPDATE
 40
2455656.6105583101
  9
$TDINDWG
 40
0.0705807407
  9
$TDUSRTIMER
 40
0.0705805556
  9
$USRTIMER
 70
     1
  9
$ANGBASE
 50
0.0
  9
$ANGDIR
 70
     0
  9
$PDMODE
 70
    35
  9
$PDSIZE
 40
0.0
  9
$PLINEWID
 40
0.0
  9
$COORDS
 70
     1
  9
$SPLFRAME
 70
     0
  9
$SPLINETYPE
 70
     6
  9
$SPLINESEGS
 70
     8
  9
$ATTDIA
 70
     0
  9
$ATTREQ
 70
     1
  9
$HANDLING
 70
     1
  9
$HANDSEED
  5
1EF0
  9
$SURFTAB1
 70
     6
  9
$SURFTAB2
 70
     6
  9
$SURFTYPE
 70
     6
  9
$SURFU
 70
     6
  9
$SURFV
 70
     6
  9
$UCSNAME
  2

  9
$UCSORG
 10
0.0
 20
0.0
 30
0.0
  9
$UCSXDIR
 10
1.0
 20
0.0
 30
0.0
  9
$UCSYDIR
 10
0.0
 20
1.0
 30
0.0
  9
$PUCSNAME
  2

  9
$PUCSORG
 10
0.0
 20
0.0
 30
0.0
  9
$PUCSXDIR
 10
1.0
 20
0.0
 30
0.0
  9
$PUCSYDIR
 10
0.0
 20
1.0
 30
0.0
  9
$USERI1
 70
     0
  9
$USERI2
 70
     0
  9
$USERI3
 70
     0
  9
$USERI4
 70
     0
  9
$USERI5
 70
     0
  9
$USERR1
 40
0.0
  9
$USERR2
 40
0.0
  9
$USERR3
 40
0.0
  9
$USERR4
 40
0.0
  9
$USERR5
 40
0.0
  9
$WORLDVIEW
 70
     1
  9
$SHADEDGE
 70
     3
  9
$SHADEDIF
 70
    70
  9
$TILEMODE
 70
     1
  9
$MAXACTVP
 70
    64
  9
$PLIMCHECK
 70
     0
  9
$PEXTMIN
 10
0.0
 20
0.0
 30
0.0
  9
$PEXTMAX
 10
0.0
 20
0.0
 30
0.0
  9
$PLIMMIN
 10
0.0
 20
0.0
  9
$PLIMMAX
 10
12.0
 20
9.0
  9
$UNITMODE
 70
     0
  9
$VISRETAIN
 70
     1
  9
$PLINEGEN
 70
     0
  9
$PSLTSCALE
 70
     1
  0
ENDSEC
  0
SECTION
  2
TABLES
  0
TABLE
  2
VPORT
 70
     1
  0
VPORT
  2
*ACTIVE
 70
     0
 10
0.0
 20
0.0
 11
1.0
 21
1.0
 12
46.194105024198898
 22
20.899958922890459
 13
0.0
 23
0.0
 14
10.0
 24
10.0
 15
10.0
 25
10.0
 16
0.0
 26
0.0
 36
1.0
 17
0.0
 27
0.0
 37
0.0
 40
241.30959363005351
 41
1.0918367346938771
 42
50.0
 43
0.0
 44
0.0
 50
0.0
 51
0.0
 71
     0
 72
  1000
 73
     1
 74
     3
 75
     0
 76
     0
 77
     0
 78
     0
  0
ENDTAB
  0
TABLE
  2
LTYPE
 70
     4
  0
LTYPE
  2
CONTINUOUS
 70
     0
  3
Solid line
 72
    65
 73
     0
 40
0.0
  0
LTYPE
  2
CENTER
 70
     0
  3
Center ____ _ ____ _ ____ _ ____ _ ____ _ ____
 72
    65
 73
     4
 40
50.799999999999997
 49
31.75
 49
-6.3499999999999988
 49
6.3499999999999988
 49
-6.3499999999999988
  0
LTYPE
  2
DASHED
 70
     0
  3
Dashed __ __ __ __ __ __ __ __ __ __ __ __ __ _
 72
    65
 73
     2
 40
19.050000000000001
 49
12.699999999999999
 49
-6.3499999999999988
  0
LTYPE
  2
PHANTOM
 70
     0
  3
Phantom ______  __  __  ______  __  __  ______
 72
    65
 73
     6
 40
63.5
 49
31.75
 49
-6.3499999999999988
 49
6.3499999999999988
 49
-6.3499999999999988
 49
6.3499999999999988
 49
-6.3499999999999988
  0
ENDTAB
  0
TABLE
  2
LAYER
 70
     3
  0
LAYER
  2
0
 70
     0
 62
     7
  6
CONTINUOUS
  0
LAYER
  2
CENTER
 70
     0
 62
     1
  6
CENTER
  0
LAYER
  2
DEFPOINTS
 70
     0
 62
     7
  6
CONTINUOUS
  0
ENDTAB
  0
TABLE
  2
STYLE
 70
     1
  0
STYLE
  2
STANDARD
 70
     0
 40
3.0
 41
1.0
 50
0.0
 71
     0
 42
3.0
  3
txt.shx
  4
bigfont.shx
  0
ENDTAB
  0
TABLE
  2
VIEW
 70
     0
  0
ENDTAB
  0
TABLE
  2
UCS
 70
     0
  0
ENDTAB
  0
TABLE
  2
APPID
 70
     8
  0
APPID
  2
ACAD
 70
     0
  0
APPID
  2
ACAD_MLEADERVER
 70
     0
  0
APPID
  2
ACAD_PSEXT
 70
     0
  0
APPID
  2
ACAD_DSTYLE_DIMRADIAL_EXTENSION
 70
     0
  0
APPID
  2
ACAD_EXEMPT_FROM_CAD_STANDARDS
 70
     0
  0
APPID
  2
GRADIENTCOLOR1ACI
 70
     0
  0
APPID
  2
GRADIENTCOLOR2ACI
 70
     0
  0
APPID
  2
ACAECLAYERSTANDARD
 70
     0
  0
ENDTAB
  0
TABLE
  2
DIMSTYLE
 70
     1
  0
DIMSTYLE
  2
MISUMI
 70
     0
  3

  4

  5
OPEN30
  6

  7

 40
1.0
 41
2.5
 42
0.625
 43
3.75
 44
1.25
 45
0.0
 46
0.0
 47
0.0
 48
0.0
140
2.5
141
2.5
142
0.0
143
0.03937007874016
144
1.0
145
0.0
146
1.0
147
0.625
 71
     0
 72
     0
 73
     0
 74
     0
 75
     0
 76
     0
 77
     1
 78
     8
170
     0
171
     3
172
     1
173
     0
174
     0
175
     0
176
   137
177
   137
178
   137
  0
ENDTAB
  0
ENDSEC
  0
SECTION
  2
BLOCKS
  0
BLOCK
  8
0
  2
$MODEL_SPACE
 70
     0
 10
0.0
 20
0.0
 30
0.0
  3
$MODEL_SPACE
  1

  0
ENDBLK
  5
21
  8
0
  0
BLOCK
 67
     1
  8
0
  2
$PAPER_SPACE
 70
     0
 10
0.0
 20
0.0
 30
0.0
  3
$PAPER_SPACE
  1

  0
ENDBLK
  5
53
 67
     1
  8
0
  0
BLOCK
  8
0
 62
     7
  2
_OPEN30
 70
     0
 10
0.0
 20
0.0
 30
0.0
  3
_OPEN30
  1

  0
LINE
  5
D7
  8
0
  6
BYBLOCK
 62
     0
 10
-1.0
 20
0.26794919
 30
0.0
 11
0.0
 21
0.0
 31
0.0
  0
LINE
  5
D8
  8
0
  6
BYBLOCK
 62
     0
 10
0.0
 20
0.0
 30
0.0
 11
-1.0
 21
-0.26794919
 31
0.0
  0
LINE
  5
D9
  8
0
  6
BYBLOCK
 62
     0
 10
0.0
 20
0.0
 30
0.0
 11
-1.0
 21
0.0
 31
0.0
  0
ENDBLK
  5
DB
  8
0
 62
     7
  0
BLOCK
  8
0
 62
     7
  2
*U21
 70
     1
 10
0.0
 20
0.0
 30
0.0
  3
*U21
  1

  0
TEXT
  5
1EE9
  8
0
  6
CONTINUOUS
 62
     7
 10
-22.50007050132745
 20
-69.991646162785855
 30
0.0
 40
3.0
  1
NEFST8-4545-50
  0
ENDBLK
  5
1EEB
  8
0
 62
     7
  0
BLOCK
  8
0
 62
     7
  2
*U22
 70
     1
 10
0.0
 20
0.0
 30
0.0
  3
*U22
  1

  0
TEXT
  5
1EED
  8
0
  6
CONTINUOUS
 62
     7
 10
-22.50007050132745
 20
-75.865914275957607
 30
0.0
 40
3.0
  1
NEFST8-4545
  0
ENDBLK
  5
1EEF
  8
0
 62
     7
  0
ENDSEC
  0
SECTION
  2
ENTITIES
  0
ARC
  5
19DE
  8
0
  6
CONTINUOUS
 62
     7
 10
-7.399989753068609
 20
7.4000112469153398
 30
0.0
 40
0.5
 50
89.999920661452876
 51
179.99992066145279
  0
ARC
  5
19DF
  8
0
  6
CONTINUOUS
 62
     7
 10
7.4000162469102966
 20
7.399985753067738
 30
0.0
 40
0.5
 50
359.99992066145279
 51
89.999920661452876
  0
ARC
  5
19E0
  8
0
  6
CONTINUOUS
 62
     7
 10
3.6000101084421199
 20
7.2999910150079179
 30
0.0
 40
0.6
 50
89.999920661452876
 51
179.99992066145279
  0
ARC
  5
19E1
  8
0
  6
CONTINUOUS
 62
     7
 10
7.3000109849731132
 20
3.5999818915433361
 30
0.0
 40
0.6
 50
269.9999206614529
 51
359.99992066145279
  0
LINE
  5
19E2
  8
0
  6
CONTINUOUS
 62
     7
 10
3.0000096496617061
 20
6.9686748458395584
 30
0.0
 11
3.0000101084426092
 21
7.2999918458392301
 31
0.0
  0
LINE
  5
19E3
  8
0
  6
CONTINUOUS
 62
     7
 10
7.300010154141801
 20
2.999981891543924
 30
0.0
 11
6.9686891541422247
 21
2.9999823503303409
 31
0.0
  0
LINE
  5
19E4
  8
0
  6
CONTINUOUS
 62
     7
 10
7.4000169392697037
 20
7.8999857530673401
 30
0.0
 11
3.6000109392734032
 21
7.8999910150073438
 31
0.0
  0
LINE
  5
19E5
  8
0
  6
CONTINUOUS
 62
     7
 10
7.900016246909785
 20
7.3999850607083308
 30
0.0
 11
7.9000109849726243
 21
3.5999810607119249
 31
0.0
  0
ARC
  5
19E6
  8
0
  6
CONTINUOUS
 62
     7
 10
7.3999897530626981
 20
-7.4000202469096621
 30
0.0
 40
0.5
 50
269.9999206614529
 51
359.99992066145279
  0
ARC
  5
19E7
  8
0
  6
CONTINUOUS
 62
     7
 10
7.2999950150028212
 20
-3.6000141084414561
 30
0.0
 40
0.6
 50
359.99992066145279
 51
89.999920661452876
  0
ARC
  5
19E8
  8
0
  6
CONTINUOUS
 62
     7
 10
3.5999868915382081
 20
-7.3000149849739548
 30
0.0
 40
0.6
 50
179.99992066145279
 51
269.9999206614529
  0
LINE
  5
19E9
  8
0
  6
CONTINUOUS
 62
     7
 10
6.9686838458343914
 20
-3.0000136496680758
 30
0.0
 11
7.2999958458341041
 21
-3.0000141084420728
 31
0.0
  0
LINE
  5
19EA
  8
0
  6
CONTINUOUS
 62
     7
 10
2.9999868915388102
 20
-7.3000141541426578
 30
0.0
 11
2.9999873449303891
 21
-6.9725891541429661
 31
0.0
  0
LINE
  5
19EB
  8
0
  6
CONTINUOUS
 62
     7
 10
7.8999897530622141
 20
-7.4000209392691678
 30
0.0
 11
7.8999950150021903
 21
-3.600014939272782
 31
0.0
  0
LINE
  5
19EC
  8
0
  6
CONTINUOUS
 62
     7
 10
7.3999890607032901
 20
-7.9000202469092642
 30
0.0
 11
3.5999860607068959
 21
-7.9000149849733674
 31
0.0
  0
ARC
  5
19ED
  8
0
  6
CONTINUOUS
 62
     7
 10
-7.4000152469147897
 20
-7.3999937530634554
 30
0.0
 40
0.5
 50
179.99992066145279
 51
269.9999206614529
  0
ARC
  5
19EE
  8
0
  6
CONTINUOUS
 62
     7
 10
-3.6000101084465248
 20
-7.2999990150022853
 30
0.0
 40
0.6
 50
269.9999206614529
 51
359.99992066145279
  0
ARC
  5
19EF
  8
0
  6
CONTINUOUS
 62
     7
 10
-7.30000998497772
 20
-3.5999898915390669
 30
0.0
 40
0.6
 50
89.999920661452876
 51
179.99992066145279
  0
LINE
  5
19F0
  8
0
  6
CONTINUOUS
 62
     7
 10
-3.000009649667589
 20
-6.9686838458338647
 30
0.0
 11
-3.0000101084470989
 21
-7.2999998458335824
 31
0.0
  0
LINE
  5
19F1
  8
0
  6
CONTINUOUS
 62
     7
 10
-6.9686811541466218
 20
-2.9999903503357781
 30
0.0
 11
-7.300009154146295
 21
-2.9999898915396548
 31
0.0
  0
LINE
  5
19F2
  8
0
  6
CONTINUOUS
 62
     7
 10
-7.400015939274283
 20
-7.8999937530631561
 30
0.0
 11
-3.600010939277893
 21
-7.8999990150016677
 31
0.0
  0
LINE
  5
19F3
  8
0
  6
CONTINUOUS
 62
     7
 10
-7.900015246914279
 20
-7.3999930607040758
 30
0.0
 11
-7.9000099849772019
 21
-3.5999890607077698
 31
0.0
  0
LINE
  5
19F4
  8
0
  6
CONTINUOUS
 62
     7
 10
9.499992356143224
 20
-6.9644961548225686
 30
0.0
 11
9.5000116438161228
 21
6.9644488451641271
 31
0.0
  0
LINE
  5
19F5
  8
0
  6
CONTINUOUS
 62
     7
 10
7.3787031548226016
 20
9.4999877825824228
 30
0.0
 11
10.000036784586401
 21
12.121286152774839
 31
0.0
  0
LINE
  5
19F6
  8
0
  6
CONTINUOUS
 62
     7
 10
10.000036784586401
 20
12.121286152774839
 30
0.0
 11
10.000042847819
 21
16.499960152770651
 31
0.0
  0
LINE
  5
19F7
  8
0
  6
CONTINUOUS
 62
     7
 10
19.50004415614811
 20
22.499964997945309
 30
0.0
 11
5.3000281561617149
 21
22.499984660975311
 31
0.0
  0
LINE
  5
19F8
  8
0
  6
CONTINUOUS
 62
     7
 10
22.500040001988619
 20
19.499960843791541
 30
0.0
 11
22.499985997945799
 21
-19.500044156171072
 31
0.0
  0
LINE
  5
19F9
  8
0
  6
CONTINUOUS
 62
     7
 10
9.7929096229657944
 20
7.671559439583433
 30
0.0
 11
11.007131304299969
 21
8.8857647582289303
 31
0.0
  0
LINE
  5
19FA
  8
0
  6
CONTINUOUS
 62
     7
 10
7.3787031548226016
 20
9.4999877825824228
 30
0.0
 11
1.3464231548284991
 21
9.4999961355943299
 31
0.0
  0
LINE
  5
19FB
  8
0
  6
CONTINUOUS
 62
     7
 10
0.0000121855266002
 20
8.7999979999944458
 30
0.0
 11
1.0964230620692199
 21
9.4330084817741238
 31
0.0
  0
ARC
  5
19FC
  8
0
  6
CONTINUOUS
 62
     7
 10
1.3464224624690919
 20
8.9999961355948415
 30
0.0
 40
0.5
 50
89.999920661452876
 51
119.9999206614533
  0
LINE
  5
19FD
  8
0
  6
CONTINUOUS
 62
     7
 10
5.3000198478291054
 20
16.49997066098112
 30
0.0
 11
10.00003884782461
 21
16.49996415277613
 31
0.0
  0
ARC
  5
19FE
  8
0
  6
CONTINUOUS
 62
     7
 10
5.300020263244817
 20
16.79997066098084
 30
0.0
 40
0.3
 50
179.99992066145279
 51
269.9999206614529
  0
LINE
  5
19FF
  8
0
  6
CONTINUOUS
 62
     7
 10
5.0000225830839042
 20
18.475284999797822
 30
0.0
 11
5.0000202632451192
 21
16.799971076396531
 31
0.0
  0
LINE
  5
1A00
  8
0
  6
CONTINUOUS
 62
     7
 10
5.0000254209131176
 20
20.52467515299006
 30
0.0
 11
5.0000277407463036
 21
22.199985076391329
 31
0.0
  0
ARC
  5
1A01
  8
0
  6
CONTINUOUS
 62
     7
 10
5.3000277407459739
 20
22.199984660975641
 30
0.0
 40
0.3
 50
89.999920661452876
 51
179.9999206614537
  0
ARC
  5
1A02
  8
0
  6
CONTINUOUS
 62
     7
 10
4.5000240019988951
 20
19.499980768753431
 30
0.0
 40
1.0
 50
307.9797931062738
 51
52.020048216631018
  0
ARC
  5
1A03
  8
0
  6
CONTINUOUS
 62
     7
 10
5.3000225830836021
 20
18.475284584382141
 30
0.0
 40
0.3
 50
127.97979310627539
 51
179.9999206614537
  0
ARC
  5
1A04
  8
0
  6
CONTINUOUS
 62
     7
 10
5.3000254209128173
 20
20.524674737574308
 30
0.0
 40
0.3
 50
179.9999206614537
 51
232.02004821662931
  0
LINE
  5
1A05
  8
0
  6
CONTINUOUS
 62
     7
 10
11.8283905583597
 20
-9.7071363790020655
 30
0.0
 11
9.7928813770026011
 21
-7.6716005603921644
 31
0.0
  0
LINE
  5
1A06
  8
0
  6
CONTINUOUS
 62
     7
 10
-9.5000122173947812
 20
-7.378673845158076
 30
0.0
 11
-9.5000068465091942
 21
-3.4999908451617752
 31
0.0
  0
LINE
  5
1A07
  8
0
  6
CONTINUOUS
 62
     7
 10
-9.4330155182127822
 20
-1.096400937923675
 30
0.0
 11
-8.8000019999937802
 21
0.0000081855316267
 31
0.0
  0
LINE
  5
1A08
  8
0
  6
CONTINUOUS
 62
     7
 10
-9.2489896519446972
 20
-1.9151461927485789
 30
0.0
 11
-9.4330162105721911
 21
-1.596400937923149
 31
0.0
  0
LINE
  5
1A09
  8
0
  6
CONTINUOUS
 62
     7
 10
-9.5000068465091942
 20
-3.4999908451617752
 30
0.0
 11
-9.2489896519446972
 21
-1.9151461927485789
 31
0.0
  0
ARC
  5
1A0A
  8
0
  6
CONTINUOUS
 62
     7
 10
-9.0000038643931077
 20
-1.346401537523277
 30
0.0
 40
0.5
 50
149.99992066145421
 51
209.99992066145381
  0
LINE
  5
1A0B
  8
0
  6
CONTINUOUS
 62
     7
 10
-22.500040002011101
 20
-19.49998184378596
 30
0.0
 11
-22.500020338996279
 21
-5.2999768437994703
 31
0.0
  0
LINE
  5
1A0C
  8
0
  6
CONTINUOUS
 62
     7
 10
-9.5000122173947812
 20
-7.378673845158076
 30
0.0
 11
-12.121359847177899
 21
-9.999986215331063
 31
0.0
  0
LINE
  5
1A0D
  8
0
  6
CONTINUOUS
 62
     7
 10
-12.121359847177899
 20
-9.999986215331063
 30
0.0
 11
-16.500021847173709
 21
-9.9999801521151692
 31
0.0
  0
LINE
  5
1A0E
  8
0
  6
CONTINUOUS
 62
     7
 10
-20.524709000177811
 20
-4.9999795790501764
 30
0.0
 11
-22.2000199235809
 21
-4.9999772592154548
 31
0.0
  0
ARC
  5
1A0F
  8
0
  6
CONTINUOUS
 62
     7
 10
-22.200020338996499
 20
-5.2999772592151544
 30
0.0
 40
0.3
 50
89.999920661452876
 51
179.99992066145279
  0
LINE
  5
1A10
  8
0
  6
CONTINUOUS
 62
     7
 10
-16.500011339001979
 20
-5.2999851521251591
 30
0.0
 11
-16.50001784717929
 21
-9.9999841521206605
 31
0.0
  0
ARC
  5
1A11
  8
0
  6
CONTINUOUS
 62
     7
 10
-16.80001133900171
 20
-5.2999847367095612
 30
0.0
 40
0.3
 50
359.99992066145279
 51
89.999920661452876
  0
LINE
  5
1A12
  8
0
  6
CONTINUOUS
 62
     7
 10
-18.475318846989119
 20
-4.9999824168792619
 30
0.0
 11
-16.800010923586001
 21
-4.9999847367098482
 31
0.0
  0
ARC
  5
1A13
  8
0
  6
CONTINUOUS
 62
     7
 10
-19.500013231223988
 20
-4.4999809979652658
 30
0.0
 40
1.0
 50
217.97979310632121
 51
322.02004821658397
  0
ARC
  5
1A14
  8
0
  6
CONTINUOUS
 62
     7
 10
-18.47531926240481
 20
-5.2999824168790752
 30
0.0
 40
0.3
 50
89.999920661459385
 51
142.0200482165823
  0
ARC
  5
1A15
  8
0
  6
CONTINUOUS
 62
     7
 10
-20.524709415593492
 20
-5.2999795790497748
 30
0.0
 40
0.3
 50
37.979793106318994
 51
89.999920661454496
  0
LINE
  5
1A16
  8
0
  6
CONTINUOUS
 62
     7
 10
-7.3786688451632179
 20
9.5000082173939102
 30
0.0
 11
-3.499986845166887
 21
9.5000028465097444
 31
0.0
  0
LINE
  5
1A17
  8
0
  6
CONTINUOUS
 62
     7
 10
-1.096396937928716
 20
9.4330115182134193
 30
0.0
 11
0.0000121855266002
 21
8.7999979999944458
 31
0.0
  0
LINE
  5
1A18
  8
0
  6
CONTINUOUS
 62
     7
 10
-1.9151421927536201
 20
9.2489856519452172
 30
0.0
 11
-1.5963969379282901
 21
9.4330122105728549
 31
0.0
  0
LINE
  5
1A19
  8
0
  6
CONTINUOUS
 62
     7
 10
-3.499986845166887
 20
9.5000028465097444
 30
0.0
 11
-1.9151421927536201
 21
9.2489856519452172
 31
0.0
  0
ARC
  5
1A1A
  8
0
  6
CONTINUOUS
 62
     7
 10
-1.346397537528389
 20
8.9999998643935442
 30
0.0
 40
0.5
 50
59.999920661452407
 51
119.9999206614533
  0
ARC
  5
1A1B
  8
0
  6
CONTINUOUS
 62
     7
 10
-7.299995015007311
 20
3.600006108447146
 30
0.0
 40
0.6
 50
179.99992066145279
 51
269.9999206614529
  0
ARC
  5
1A1C
  8
0
  6
CONTINUOUS
 62
     7
 10
-3.5999858915442071
 20
7.3000059849782133
 30
0.0
 40
0.6
 50
359.99992066145279
 51
89.999920661452876
  0
LINE
  5
1A1D
  8
0
  6
CONTINUOUS
 62
     7
 10
-15.1481946132385
 20
20.500025976013319
 30
0.0
 11
-11.4999746132419
 21
20.50002092425424
 31
0.0
  0
LINE
  5
1A1E
  8
0
  6
CONTINUOUS
 62
     7
 10
-20.499979023939911
 20
15.148256386725141
 30
0.0
 11
-20.49998407569479
 21
11.500039386728639
 31
0.0
  0
LINE
  5
1A1F
  8
0
  6
CONTINUOUS
 62
     7
 10
-16.80681235264219
 20
11.300034272723851
 30
0.0
 11
-11.79998735264701
 21
11.30002733967882
 31
0.0
  0
LINE
  5
1A20
  8
0
  6
CONTINUOUS
 62
     7
 10
-11.299979727245701
 20
16.80684964731412
 30
0.0
 11
-11.299986660288001
 21
11.80002664731893
 31
0.0
  0
ARC
  5
1A21
  8
0
  6
CONTINUOUS
 62
     7
 10
-11.799986660287511
 20
11.800027339678341
 30
0.0
 40
0.5
 50
269.9999206614529
 51
359.99992066145279
  0
ARC
  5
1A22
  8
0
  6
CONTINUOUS
 62
     7
 10
-16.806813737361011
 20
10.30003427272481
 30
0.0
 40
1.0
 50
89.999920661452876
 51
151.31451866145241
  0
ARC
  5
1A23
  8
0
  6
CONTINUOUS
 62
     7
 10
-18.99998407569629
 20
11.50003730965034
 30
0.0
 40
1.5
 50
179.99992066145279
 51
331.3145186614525
  0
ARC
  5
1A24
  8
0
  6
CONTINUOUS
 62
     7
 10
-10.29997972724661
 20
16.806848262595221
 30
0.0
 40
1.0
 50
118.6853226614522
 51
179.99992066145279
  0
ARC
  5
1A25
  8
0
  6
CONTINUOUS
 62
     7
 10
-11.49997669032029
 20
19.000020924255718
 30
0.0
 40
1.5
 50
298.68532266145218
 51
89.999920661452876
  0
LINE
  5
1A26
  8
0
  6
CONTINUOUS
 62
     7
 10
20.50003097600688
 20
15.14818961323763
 30
0.0
 11
20.499997537486109
 21
-9.0000483867392642
 31
0.0
  0
ARC
  5
1A27
  8
0
  6
CONTINUOUS
 62
     7
 10
-19.500040002014
 20
-19.49998599794246
 30
0.0
 40
3.0
 50
179.99992066145279
 51
269.9999206614529
  0
LINE
  5
1A28
  8
0
  6
CONTINUOUS
 62
     7
 10
15.14826138672001
 20
20.499975023939129
 30
0.0
 11
11.50004438672363
 21
20.49998007569403
 31
0.0
  0
LINE
  5
1A29
  8
0
  6
CONTINUOUS
 62
     7
 10
11.30002928344819
 20
9.5928743526482378
 30
0.0
 11
11.3000392727188
 21
16.806808352641351
 31
0.0
  0
ARC
  5
1A2A
  8
0
  6
CONTINUOUS
 62
     7
 10
10.30003927271971
 20
16.806809737360219
 30
0.0
 40
1.0
 50
359.99992066145279
 51
61.314518661452851
  0
ARC
  5
1A2B
  8
0
  6
CONTINUOUS
 62
     7
 10
11.50004230964529
 20
18.999980075695451
 30
0.0
 40
1.5
 50
89.999920661452876
 51
241.31451866145281
  0
LINE
  5
1A2C
  8
0
  6
CONTINUOUS
 62
     7
 10
-9.4999917825832938
 20
7.3786981548277311
 30
0.0
 11
-12.1212901527756
 21
10.000031784591609
 31
0.0
  0
LINE
  5
1A2D
  8
0
  6
CONTINUOUS
 62
     7
 10
-12.1212901527756
 20
10.000031784591609
 30
0.0
 11
-16.499964152771408
 21
10.00003784782413
 31
0.0
  0
LINE
  5
1A2E
  8
0
  6
CONTINUOUS
 62
     7
 10
-22.499968997944709
 20
19.500040156153151
 30
0.0
 11
-22.499988660976189
 21
5.300023156166815
 31
0.0
  0
LINE
  5
1A2F
  8
0
  6
CONTINUOUS
 62
     7
 10
-19.499964843790991
 20
22.50003600199372
 30
0.0
 11
-5.299971843804598
 21
22.50001633899533
 31
0.0
  0
LINE
  5
1A30
  8
0
  6
CONTINUOUS
 62
     7
 10
-7.3786688451632179
 20
9.5000082173939102
 30
0.0
 11
-9.9999822153361038
 21
12.121355847178529
 31
0.0
  0
LINE
  5
1A31
  8
0
  6
CONTINUOUS
 62
     7
 10
-9.9999822153361038
 20
12.121355847178529
 30
0.0
 11
-9.9999761521202117
 21
16.50001784717432
 31
0.0
  0
ARC
  5
1A32
  8
0
  6
CONTINUOUS
 62
     7
 10
-0.0000000000022169
 20
-0.0000039999971619
 30
0.0
 40
6.25
 50
73.986505661452341
 51
106.01328366145231
  0
LINE
  5
1A33
  8
0
  6
CONTINUOUS
 62
     7
 10
-6.9686758458388729
 20
3.0000056496626391
 30
0.0
 11
-7.2999958458385938
 21
3.0000061084477352
 31
0.0
  0
LINE
  5
1A34
  8
0
  6
CONTINUOUS
 62
     7
 10
-2.9999863503352908
 20
6.9686811541472187
 30
0.0
 11
-2.999985891544696
 21
7.3000051541469304
 31
0.0
  0
ARC
  5
1A35
  8
0
  6
CONTINUOUS
 62
     7
 10
-1.999986350336286
 20
6.9686797694283484
 30
0.0
 40
1.0
 50
179.99992066145279
 51
286.01328366145231
  0
ARC
  5
1A36
  8
0
  6
CONTINUOUS
 62
     7
 10
-6.9686772305578009
 20
2.0000056496636338
 30
0.0
 40
1.0
 50
343.98652666145301
 51
89.999920661452876
  0
ARC
  5
1A37
  8
0
  6
CONTINUOUS
 62
     7
 10
-0.0000000000022169
 20
-0.0000039999971619
 30
0.0
 40
6.25
 50
163.98652666145301
 51
196.01332066145301
  0
ARC
  5
1A38
  8
0
  6
CONTINUOUS
 62
     7
 10
-0.0000000000022169
 20
-0.0000039999971619
 30
0.0
 40
6.2500000000000169
 50
343.98650566145398
 51
16.013283661452281
  0
ARC
  5
1A39
  8
0
  6
CONTINUOUS
 62
     7
 10
6.9686877694287821
 20
1.99998635033134
 30
0.0
 40
1.0
 50
89.999920661452876
 51
196.01328366145231
  0
ARC
  5
1A3A
  8
0
  6
CONTINUOUS
 62
     7
 10
2.0000136496627192
 20
6.9686762305528296
 30
0.0
 40
1.0
 50
253.98652666145301
 51
359.99992066145279
  0
ARC
  5
1A3B
  8
0
  6
CONTINUOUS
 62
     7
 10
0.0000079999977061
 20
-0.0000040000082748
 30
0.0
 40
6.2500000000000053
 50
253.9865056614523
 51
286.01328366145231
  0
ARC
  5
1A3C
  8
0
  6
CONTINUOUS
 62
     7
 10
1.999994350331803
 20
-6.9686877694337701
 30
0.0
 40
1.0
 50
359.7764626614524
 51
106.01328366145231
  0
ARC
  5
1A3D
  8
0
  6
CONTINUOUS
 62
     7
 10
6.9686852305533193
 20
-2.000013649669071
 30
0.0
 40
1.0
 50
163.98652666145301
 51
269.9999206614529
  0
ARC
  5
1A3E
  8
0
  6
CONTINUOUS
 62
     7
 10
-6.9686797694332929
 20
-1.9999943503366631
 30
0.0
 40
1.0
 50
269.9999206614529
 51
16.013320661453061
  0
ARC
  5
1A3F
  8
0
  6
CONTINUOUS
 62
     7
 10
-2.0000056496686218
 20
-6.968685230558278
 30
0.0
 40
1.0
 50
73.986526661453013
 51
179.99992066145279
  0
LINE
  5
1A40
  8
0
  6
CONTINUOUS
 62
     7
 10
-7.8999897530680983
 20
7.4000119392748331
 30
0.0
 11
-7.8999950150067093
 21
3.6000069392784431
 31
0.0
  0
LINE
  5
1A41
  8
0
  6
CONTINUOUS
 62
     7
 10
-7.3999890607091174
 20
7.9000112469148291
 30
0.0
 11
-3.5999850607127821
 21
7.9000059849776392
 31
0.0
  0
LINE
  5
1A42
  8
0
  6
CONTINUOUS
 62
     7
 10
-9.4999917825832938
 20
7.3786981548277311
 30
0.0
 11
-9.5000001355937798
 21
1.34641915483354
 31
0.0
  0
LINE
  5
1A43
  8
0
  6
CONTINUOUS
 62
     7
 10
-8.8000019999937802
 20
0.0000081855316267
 30
0.0
 11
-9.4330124817736021
 21
1.096419062074232
 31
0.0
  0
ARC
  5
1A44
  8
0
  6
CONTINUOUS
 62
     7
 10
-9.0000001355942914
 20
1.3464184624741189
 30
0.0
 40
0.5
 50
179.99992066145279
 51
209.99992066145381
  0
LINE
  5
1A45
  8
0
  6
CONTINUOUS
 62
     7
 10
-16.499974660981991
 20
5.3000148478341478
 30
0.0
 11
-16.499968152777001
 21
10.000033847829631
 31
0.0
  0
ARC
  5
1A46
  8
0
  6
CONTINUOUS
 62
     7
 10
-16.7999746609818
 20
5.3000152632498319
 30
0.0
 40
0.3
 50
269.9999206614529
 51
359.99992066145279
  0
LINE
  5
1A47
  8
0
  6
CONTINUOUS
 62
     7
 10
-18.475288999798689
 20
5.0000175830889191
 30
0.0
 11
-16.799975076397288
 21
5.000015263250134
 31
0.0
  0
LINE
  5
1A48
  8
0
  6
CONTINUOUS
 62
     7
 10
-4.9999745790552756
 20
20.524705000178731
 30
0.0
 11
-4.9999722592206117
 21
22.200015923580061
 31
0.0
  0
ARC
  5
1A49
  8
0
  6
CONTINUOUS
 62
     7
 10
-5.299972259220282
 20
22.200016338995741
 30
0.0
 40
0.3
 50
359.99992066145199
 51
89.999920661452876
  0
LINE
  5
1A4A
  8
0
  6
CONTINUOUS
 62
     7
 10
-5.2999801521303018
 20
16.50000733900114
 30
0.0
 11
-9.9999801521258007
 21
16.50001384717984
 31
0.0
  0
ARC
  5
1A4B
  8
0
  6
CONTINUOUS
 62
     7
 10
-5.299979736714703
 20
16.800007339000839
 30
0.0
 40
0.3
 50
269.9999206614529
 51
359.99992066145199
  0
LINE
  5
1A4C
  8
0
  6
CONTINUOUS
 62
     7
 10
-4.9999774168843771
 20
18.475314846986521
 30
0.0
 11
-4.9999797367150052
 21
16.80000692358524
 31
0.0
  0
ARC
  5
1A4D
  8
0
  6
CONTINUOUS
 62
     7
 10
-4.4999759979702949
 20
19.500009231223231
 30
0.0
 40
1.0
 50
127.9797931062719
 51
232.02004821663331
  0
ARC
  5
1A4E
  8
0
  6
CONTINUOUS
 62
     7
 10
-5.2999774168841043
 20
18.475315262402152
 30
0.0
 40
0.3
 50
359.9999206614537
 51
52.020048216635089
  0
ARC
  5
1A4F
  8
0
  6
CONTINUOUS
 62
     7
 10
-5.29997457905489
 20
20.52470541559444
 30
0.0
 40
0.3
 50
307.97979310627193
 51
359.99992066145938
  0
LINE
  5
1A50
  8
0
  6
CONTINUOUS
 62
     7
 10
-20.524679152990899
 20
5.0000204209181334
 30
0.0
 11
-22.1999890763922
 21
5.000022740751433
 31
0.0
  0
ARC
  5
1A51
  8
0
  6
CONTINUOUS
 62
     7
 10
-22.199988660976491
 20
5.3000227407511309
 30
0.0
 40
0.3
 50
179.99992066145279
 51
269.9999206614529
  0
ARC
  5
1A52
  8
0
  6
CONTINUOUS
 62
     7
 10
-19.499984768754189
 20
4.500019002004052
 30
0.0
 40
1.0
 50
37.979793106273711
 51
142.0200482166328
  0
ARC
  5
1A53
  8
0
  6
CONTINUOUS
 62
     7
 10
-18.475288584383009
 20
5.3000175830886462
 30
0.0
 40
0.3
 50
217.97979310627539
 51
269.99992066144802
  0
ARC
  5
1A54
  8
0
  6
CONTINUOUS
 62
     7
 10
-20.524678737575211
 20
5.3000204209178321
 30
0.0
 40
0.3
 50
269.9999206614545
 51
322.02004821663218
  0
LINE
  5
1A55
  8
0
  6
CONTINUOUS
 62
     7
 10
19.499981843792
 20
-22.50004000201157
 30
0.0
 11
-19.50004415617062
 21
-22.49998599793966
 31
0.0
  0
ARC
  5
1A56
  8
0
  6
CONTINUOUS
 62
     7
 10
19.499985997948581
 20
-19.500040002014451
 30
0.0
 40
3.0
 50
269.9999206614529
 51
359.99992066145279
  0
ARC
  5
1A57
  8
0
  6
CONTINUOUS
 62
     7
 10
19.50004000199149
 20
19.499964997948119
 30
0.0
 40
3.0
 50
359.99992066145279
 51
89.999920661452876
  0
ARC
  5
1A58
  8
0
  6
CONTINUOUS
 62
     7
 10
-19.499968997947601
 20
19.500036001996531
 30
0.0
 40
3.0
 50
89.999920661452876
 51
179.99992066145279
  0
LINE
  5
1A59
  8
0
  6
CONTINUOUS
 62
     7
 10
-15.1482543867329
 20
-20.499989023943069
 30
0.0
 11
8.9999916132439921
 21
-20.500022462475059
 31
0.0
  0
LINE
  5
1A5A
  8
0
  6
CONTINUOUS
 62
     7
 10
-20.500026976016979
 20
-15.148201613237561
 30
0.0
 11
-20.500021924248191
 21
-11.499974613240949
 31
0.0
  0
ARC
  5
1A5B
  8
0
  6
CONTINUOUS
 62
     7
 10
-19.00002192424969
 20
-11.499976690319279
 30
0.0
 40
1.5
 50
28.68532266145224
 51
179.99992066145279
  0
ARC
  5
1A5C
  8
0
  6
CONTINUOUS
 62
     7
 10
-16.806849262589111
 20
-10.29997972724578
 30
0.0
 40
1.0
 50
208.6853226614522
 51
269.9999206614529
  0
LINE
  5
1A5D
  8
0
  6
CONTINUOUS
 62
     7
 10
-9.5929316473148845
 20
-11.29998971649456
 30
0.0
 11
-16.806850647308011
 21
-11.29997972724477
 31
0.0
  0
LINE
  5
1A5E
  8
0
  6
CONTINUOUS
 62
     7
 10
-8.8858282417452852
 20
-11.00710069563366
 30
0.0
 11
-7.6715915603917031
 21
-9.7928813770089675
 31
0.0
  0
LINE
  5
1A5F
  8
0
  6
CONTINUOUS
 62
     7
 10
-6.9644881548221056
 20
-9.4999923561480557
 30
0.0
 11
6.964457845164616
 21
-9.5000116438224467
 31
0.0
  0
LINE
  5
1A60
  8
0
  6
CONTINUOUS
 62
     7
 10
7.6715674395838951
 20
-9.7929096229707682
 30
0.0
 11
9.7071166208842214
 21
-11.82848644163607
 31
0.0
  0
LINE
  5
1A61
  8
0
  6
CONTINUOUS
 62
     7
 10
10.0000056417451
 20
-12.535589847205671
 30
0.0
 11
9.9999929979618951
 21
-19.500023847194871
 31
0.0
  0
LINE
  5
1A62
  8
0
  6
CONTINUOUS
 62
     7
 10
20.499990023950598
 20
-15.148253386734661
 30
0.0
 11
20.499995967908319
 21
-12.300052386740269
 31
0.0
  0
LINE
  5
1A63
  8
0
  6
CONTINUOUS
 62
     7
 10
15.14818861322561
 20
-20.50003997599946
 30
0.0
 11
12.29998661322969
 21
-20.500035032040358
 31
0.0
  0
LINE
  5
1A64
  8
0
  6
CONTINUOUS
 62
     7
 10
11.299988997950891
 20
-19.500032647323859
 30
0.0
 11
11.30000266028213
 21
-11.800035647335459
 31
0.0
  0
ARC
  5
1A65
  8
0
  6
CONTINUOUS
 62
     7
 10
11.80000266028159
 20
-11.80003633969487
 30
0.0
 40
0.5
 50
89.999896661453391
 51
179.99989666145339
  0
LINE
  5
1A66
  8
0
  6
CONTINUOUS
 62
     7
 10
19.499997352628132
 20
-11.30005100202237
 30
0.0
 11
11.800003352640999
 21
-11.30003633969536
 31
0.0
  0
LINE
  5
1A67
  8
0
  6
CONTINUOUS
 62
     7
 10
-20.2070850447958
 20
15.85536298115005
 30
0.0
 11
-15.85530201881218
 21
20.207133955158131
 31
0.0
  0
LINE
  5
1A68
  8
0
  6
CONTINUOUS
 62
     7
 10
20.207096044806491
 20
-15.855359981159561
 30
0.0
 11
15.855297018799369
 21
-20.207147955145562
 31
0.0
  0
LINE
  5
1A69
  8
0
  6
CONTINUOUS
 62
     7
 10
-15.855360981157791
 20
-20.207095044798962
 30
0.0
 11
-20.207134955161699
 21
-15.855309018811271
 31
0.0
  0
LINE
  5
1A6A
  8
0
  6
CONTINUOUS
 62
     7
 10
15.855366981144901
 20
20.207081044796318
 30
0.0
 11
20.20713895515161
 21
15.85529701881142
 31
0.0
  0
LINE
  5
1A6B
  8
0
  6
CONTINUOUS
 62
     7
 10
19.499996152768201
 20
-10.00004700201945
 30
0.0
 11
12.53550015277898
 21
-10.00003435815036
 31
0.0
  0
ARC
  5
1A6C
  8
0
  6
CONTINUOUS
 62
     7
 10
-19.500026976017921
 20
-15.148202997956361
 30
0.0
 40
1.0
 50
179.99992066145279
 51
224.99992066145219
  0
ARC
  5
1A6D
  8
0
  6
CONTINUOUS
 62
     7
 10
-15.148253002014
 20
-19.499989023944071
 30
0.0
 40
1.0
 50
224.99992066145219
 51
269.9999206614529
  0
ARC
  5
1A6E
  8
0
  6
CONTINUOUS
 62
     7
 10
15.14819099794448
 20
-19.500039976001769
 30
0.0
 40
1.0
 50
269.99989666145342
 51
314.99992066145398
  0
ARC
  5
1A6F
  8
0
  6
CONTINUOUS
 62
     7
 10
19.499990023951622
 20
-15.148252002015861
 30
0.0
 40
1.0
 50
314.99994466145301
 51
359.99992066145279
  0
ARC
  5
1A70
  8
0
  6
CONTINUOUS
 62
     7
 10
19.500030976007899
 20
15.148190997956441
 30
0.0
 40
1.0
 50
359.99992066145279
 51
44.999920661452236
  0
ARC
  5
1A71
  8
0
  6
CONTINUOUS
 62
     7
 10
15.148260002001219
 20
19.499975023940038
 30
0.0
 40
1.0
 50
44.999920661452236
 51
89.999920661452876
  0
ARC
  5
1A72
  8
0
  6
CONTINUOUS
 62
     7
 10
10.30002928344919
 20
9.5928757373671374
 30
0.0
 40
1.0
 50
314.99961466145282
 51
359.99992066145279
  0
ARC
  5
1A73
  8
0
  6
CONTINUOUS
 62
     7
 10
10.50001164381518
 20
6.9644474604452284
 30
0.0
 40
1.0
 50
134.99961466145271
 51
179.99992066145279
  0
ARC
  5
1A74
  8
0
  6
CONTINUOUS
 62
     7
 10
10.499992356142201
 20
-6.9644975395413686
 30
0.0
 40
1.0
 50
179.99992066145279
 51
224.99962566145311
  0
ARC
  5
1A75
  8
0
  6
CONTINUOUS
 62
     7
 10
12.53550253749779
 20
-9.0000343581528597
 30
0.0
 40
1.0
 50
224.99964966145319
 51
269.9999206614529
  0
ARC
  5
1A76
  8
0
  6
CONTINUOUS
 62
     7
 10
19.499997537487129
 20
-9.0000470020203664
 30
0.0
 40
1.0
 50
269.99989666145342
 51
359.99992066145279
  0
ARC
  5
1A77
  8
0
  6
CONTINUOUS
 62
     7
 10
19.49999596790931
 20
-12.300051002021361
 30
0.0
 40
1.0
 50
359.99989666145342
 51
89.999896661453391
  0
ARC
  5
1A78
  8
0
  6
CONTINUOUS
 62
     7
 10
12.299988997948621
 20
-19.500035032042771
 30
0.0
 40
1.0
 50
179.99992066145279
 51
269.9999206614529
  0
ARC
  5
1A79
  8
0
  6
CONTINUOUS
 62
     7
 10
8.9999929979628064
 20
-19.50002246247595
 30
0.0
 40
1.0
 50
269.99994466145228
 51
359.99992066145279
  0
ARC
  5
1A7A
  8
0
  6
CONTINUOUS
 62
     7
 10
9.0000056417459842
 20
-12.535588462486871
 30
0.0
 40
1.0
 50
359.99989666145342
 51
44.99961466145276
  0
ARC
  5
1A7B
  8
0
  6
CONTINUOUS
 62
     7
 10
6.9644564604457173
 20
-10.50001164382158
 30
0.0
 40
1.0
 50
44.99961466145276
 51
89.999920661452876
  0
ARC
  5
1A7C
  8
0
  6
CONTINUOUS
 62
     7
 10
-6.9644895395408923
 20
-10.49999235614716
 30
0.0
 40
1.0
 50
89.999920661452876
 51
134.99962566145311
  0
ARC
  5
1A7D
  8
0
  6
CONTINUOUS
 62
     7
 10
-9.5929302625960133
 20
-10.29998971649546
 30
0.0
 40
1.0
 50
269.9999206614529
 51
314.99962566145308
  0
ARC
  5
1A7E
  8
0
  6
CONTINUOUS
 62
     7
 10
-15.148195997957281
 20
19.500025976014228
 30
0.0
 40
1.0
 50
89.999920661452876
 51
134.9999206614539
  0
ARC
  5
1A7F
  8
0
  6
CONTINUOUS
 62
     7
 10
-19.499979023940909
 20
15.148255002006239
 30
0.0
 40
1.0
 50
134.9999206614539
 51
179.99992066145279
  0
LINE
  5
1AC5
  8
0
  6
CONTINUOUS
 62
     7
 10
81.400718199502634
 20
22.50001633899533
 30
0.0
 11
131.40071819950259
 21
22.50001633899533
 31
0.0
  0
LINE
  5
1AC7
  8
0
  6
CONTINUOUS
 62
     7
 10
81.400718199502634
 20
-22.50004000201157
 30
0.0
 11
131.40071819950259
 21
-22.50004000201157
 31
0.0
  0
LINE
  5
1AC9
  8
CENTER
  6
CENTER
 62
     1
 10
-0.0000000000022214
 20
-24.50004000201158
 30
0.0
 11
-0.0000000000022124
 21
24.500016338995319
 31
0.0
  0
LINE
  5
1ACB
  8
0
  6
CONTINUOUS
 62
     7
 10
-0.0000000029869735
 20
-16248794.97247001
 30
0.0
 11
-0.0000000029869735
 21
-16248794.97247001
 31
0.0
  0
CIRCLE
  5
1ACC
  8
0
  6
PHANTOM
 62
     3
 10
0.0000079999977061
 20
-0.0000040000082748
 30
0.0
 40
6.25
  0
LINE
  5
1ACD
  8
0
  6
CONTINUOUS
 62
     7
 10
81.400718199502634
 20
22.50001633899533
 30
0.0
 11
81.400718199502634
 21
-22.50004000201157
 31
0.0
  0
LINE
  5
1ACE
  8
0
  6
CONTINUOUS
 62
     7
 10
131.40071819950259
 20
22.50001633899533
 30
0.0
 11
131.40071819950259
 21
-22.50004000201157
 31
0.0
  0
LINE
  5
1ACF
  8
CENTER
  6
CENTER
 62
     1
 10
79.400718199502634
 20
-0.0000039999971649
 30
0.0
 11
133.40071819950259
 21
-0.0000039999971649
 31
0.0
  0
INSERT
  5
1AD1
  8
0
  6
CONTINUOUS
 62
     7
  2
*U21
 10
0.0
 20
0.0
 30
0.0
  0
INSERT
  5
1AD2
  8
0
  6
CONTINUOUS
 62
     7
  2
*U22
 10
0.0
 20
0.0
 30
0.0
  0
ENDSEC
  0
EOF
