  0
SECTION
  2
HEADER
  9
$ACADVER
  1
AC1009
  9
$INSBASE
 10
0.0
 20
0.0
 30
0.0
  9
$EXTMIN
 10
-59.333346727010792
 20
-60.01431328305955
 30
0.0
  9
$EXTMAX
 10
126.82264936373249
 20
56.705019728615071
 30
0.0
  9
$LIMMIN
 10
0.0
 20
0.0
  9
$LIMMAX
 10
420.0
 20
297.0
  9
$ORTHOMODE
 70
     0
  9
$REGENMODE
 70
     1
  9
$FILLMODE
 70
     1
  9
$QTEXTMODE
 70
     0
  9
$MIRRTEXT
 70
     0
  9
$DRAGMODE
 70
     2
  9
$LTSCALE
 40
1.0
  9
$OSMODE
 70
  2109
  9
$ATTMODE
 70
     1
  9
$TEXTSIZE
 40
3.0
  9
$TRACEWID
 40
1.0
  9
$TEXTSTYLE
  7
STANDARD
  9
$CLAYER
  8
0
  9
$CELTYPE
  6
CONTINUOUS
  9
$CECOLOR
 62
     7
  9
$DIMSCALE
 40
1.0
  9
$DIMASZ
 40
2.5
  9
$DIMEXO
 40
0.625
  9
$DIMDLI
 40
3.75
  9
$DIMRND
 40
0.0
  9
$DIMDLE
 40
0.0
  9
$DIMEXE
 40
1.25
  9
$DIMTP
 40
0.0
  9
$DIMTM
 40
0.0
  9
$DIMTXT
 40
2.5
  9
$DIMCEN
 40
2.5
  9
$DIMTSZ
 40
0.0
  9
$DIMTOL
 70
     0
  9
$DIMLIM
 70
     0
  9
$DIMTIH
 70
     0
  9
$DIMTOH
 70
     0
  9
$DIMSE1
 70
     0
  9
$DIMSE2
 70
     0
  9
$DIMTAD
 70
     1
  9
$DIMZIN
 70
     8
  9
$DIMBLK
  1
OPEN30
  9
$DIMASO
 70
     1
  9
$DIMSHO
 70
     1
  9
$DIMPOST
  1

  9
$DIMAPOST
  1

  9
$DIMALT
 70
     0
  9
$DIMALTD
 70
     3
  9
$DIMALTF
 40
0.03937007874016
  9
$DIMLFAC
 40
1.0
  9
$DIMTOFL
 70
     1
  9
$DIMTVP
 40
0.0
  9
$DIMTIX
 70
     0
  9
$DIMSOXD
 70
     0
  9
$DIMSAH
 70
     0
  9
$DIMBLK1
  1

  9
$DIMBLK2
  1

  9
$DIMSTYLE
  2
MISUMI
  9
$DIMCLRD
 70
   137
  9
$DIMCLRE
 70
   137
  9
$DIMCLRT
 70
   137
  9
$DIMTFAC
 40
1.0
  9
$DIMGAP
 40
0.625
  9
$LUNITS
 70
     2
  9
$LUPREC
 70
     2
  9
$SKETCHINC
 40
1.0
  9
$FILLETRAD
 40
0.0
  9
$AUNITS
 70
     0
  9
$AUPREC
 70
     0
  9
$MENU
  1
.
  9
$ELEVATION
 40
0.0
  9
$PELEVATION
 40
0.0
  9
$THICKNESS
 40
0.0
  9
$LIMCHECK
 70
     0
  9
$BLIPMODE
 70
     0
  9
$CHAMFERA
 40
0.5
  9
$CHAMFERB
 40
0.5
  9
$SKPOLY
 70
     0
  9
$TDCREATE
 40
2455135.5720697111
  9
$TDUPDATE
 40
2455656.6065525231
  9
$TDINDWG
 40
0.0741219792
  9
$TDUSRTIMER
 40
0.074121794
  9
$USRTIMER
 70
     1
  9
$ANGBASE
 50
0.0
  9
$ANGDIR
 70
     0
  9
$PDMODE
 70
    35
  9
$PDSIZE
 40
0.0
  9
$PLINEWID
 40
0.0
  9
$COORDS
 70
     1
  9
$SPLFRAME
 70
     0
  9
$SPLINETYPE
 70
     6
  9
$SPLINESEGS
 70
     8
  9
$ATTDIA
 70
     0
  9
$ATTREQ
 70
     1
  9
$HANDLING
 70
     1
  9
$HANDSEED
  5
23C8
  9
$SURFTAB1
 70
     6
  9
$SURFTAB2
 70
     6
  9
$SURFTYPE
 70
     6
  9
$SURFU
 70
     6
  9
$SURFV
 70
     6
  9
$UCSNAME
  2

  9
$UCSORG
 10
0.0
 20
0.0
 30
0.0
  9
$UCSXDIR
 10
1.0
 20
0.0
 30
0.0
  9
$UCSYDIR
 10
0.0
 20
1.0
 30
0.0
  9
$PUCSNAME
  2

  9
$PUCSORG
 10
0.0
 20
0.0
 30
0.0
  9
$PUCSXDIR
 10
1.0
 20
0.0
 30
0.0
  9
$PUCSYDIR
 10
0.0
 20
1.0
 30
0.0
  9
$USERI1
 70
     0
  9
$USERI2
 70
     0
  9
$USERI3
 70
     0
  9
$USERI4
 70
     0
  9
$USERI5
 70
     0
  9
$USERR1
 40
0.0
  9
$USERR2
 40
0.0
  9
$USERR3
 40
0.0
  9
$USERR4
 40
0.0
  9
$USERR5
 40
0.0
  9
$WORLDVIEW
 70
     1
  9
$SHADEDGE
 70
     3
  9
$SHADEDIF
 70
    70
  9
$TILEMODE
 70
     1
  9
$MAXACTVP
 70
    64
  9
$PLIMCHECK
 70
     0
  9
$PEXTMIN
 10
0.0
 20
0.0
 30
0.0
  9
$PEXTMAX
 10
0.0
 20
0.0
 30
0.0
  9
$PLIMMIN
 10
0.0
 20
0.0
  9
$PLIMMAX
 10
12.0
 20
9.0
  9
$UNITMODE
 70
     0
  9
$VISRETAIN
 70
     1
  9
$PLINEGEN
 70
     0
  9
$PSLTSCALE
 70
     1
  0
ENDSEC
  0
SECTION
  2
TABLES
  0
TABLE
  2
VPORT
 70
     1
  0
VPORT
  2
*ACTIVE
 70
     0
 10
0.0
 20
0.0
 11
1.0
 21
1.0
 12
49.787492831170667
 22
3.0317565296551972
 13
0.0
 23
0.0
 14
10.0
 24
10.0
 15
10.0
 25
10.0
 16
0.0
 26
0.0
 36
1.0
 17
0.0
 27
0.0
 37
0.0
 40
180.6908010140769
 41
1.0918367346938771
 42
50.0
 43
0.0
 44
0.0
 50
0.0
 51
0.0
 71
     0
 72
  1000
 73
     1
 74
     3
 75
     0
 76
     0
 77
     0
 78
     0
  0
ENDTAB
  0
TABLE
  2
LTYPE
 70
     4
  0
LTYPE
  2
CONTINUOUS
 70
     0
  3
Solid line
 72
    65
 73
     0
 40
0.0
  0
LTYPE
  2
CENTER
 70
     0
  3
Center ____ _ ____ _ ____ _ ____ _ ____ _ ____
 72
    65
 73
     4
 40
50.799999999999997
 49
31.75
 49
-6.3499999999999988
 49
6.3499999999999988
 49
-6.3499999999999988
  0
LTYPE
  2
DASHED
 70
     0
  3
Dashed __ __ __ __ __ __ __ __ __ __ __ __ __ _
 72
    65
 73
     2
 40
19.050000000000001
 49
12.699999999999999
 49
-6.3499999999999988
  0
LTYPE
  2
PHANTOM
 70
     0
  3
Phantom ______  __  __  ______  __  __  ______
 72
    65
 73
     6
 40
63.5
 49
31.75
 49
-6.3499999999999988
 49
6.3499999999999988
 49
-6.3499999999999988
 49
6.3499999999999988
 49
-6.3499999999999988
  0
ENDTAB
  0
TABLE
  2
LAYER
 70
     3
  0
LAYER
  2
0
 70
     0
 62
     7
  6
CONTINUOUS
  0
LAYER
  2
CENTER
 70
     0
 62
     1
  6
CENTER
  0
LAYER
  2
DEFPOINTS
 70
     0
 62
     7
  6
CONTINUOUS
  0
ENDTAB
  0
TABLE
  2
STYLE
 70
     1
  0
STYLE
  2
STANDARD
 70
     0
 40
3.0
 41
1.0
 50
0.0
 71
     0
 42
3.0
  3
txt.shx
  4
bigfont.shx
  0
ENDTAB
  0
TABLE
  2
VIEW
 70
     0
  0
ENDTAB
  0
TABLE
  2
UCS
 70
     0
  0
ENDTAB
  0
TABLE
  2
APPID
 70
     8
  0
APPID
  2
ACAD
 70
     0
  0
APPID
  2
ACAD_MLEADERVER
 70
     0
  0
APPID
  2
ACAD_PSEXT
 70
     0
  0
APPID
  2
ACAD_DSTYLE_DIMRADIAL_EXTENSION
 70
     0
  0
APPID
  2
ACAD_EXEMPT_FROM_CAD_STANDARDS
 70
     0
  0
APPID
  2
GRADIENTCOLOR1ACI
 70
     0
  0
APPID
  2
GRADIENTCOLOR2ACI
 70
     0
  0
APPID
  2
ACAECLAYERSTANDARD
 70
     0
  0
ENDTAB
  0
TABLE
  2
DIMSTYLE
 70
     1
  0
DIMSTYLE
  2
MISUMI
 70
     0
  3

  4

  5
OPEN30
  6

  7

 40
1.0
 41
2.5
 42
0.625
 43
3.75
 44
1.25
 45
0.0
 46
0.0
 47
0.0
 48
0.0
140
2.5
141
2.5
142
0.0
143
0.03937007874016
144
1.0
145
0.0
146
1.0
147
0.625
 71
     0
 72
     0
 73
     0
 74
     0
 75
     0
 76
     0
 77
     1
 78
     8
170
     0
171
     3
172
     1
173
     0
174
     0
175
     0
176
   137
177
   137
178
   137
  0
ENDTAB
  0
ENDSEC
  0
SECTION
  2
BLOCKS
  0
BLOCK
  8
0
  2
$MODEL_SPACE
 70
     0
 10
0.0
 20
0.0
 30
0.0
  3
$MODEL_SPACE
  1

  0
ENDBLK
  5
21
  8
0
  0
BLOCK
 67
     1
  8
0
  2
$PAPER_SPACE
 70
     0
 10
0.0
 20
0.0
 30
0.0
  3
$PAPER_SPACE
  1

  0
ENDBLK
  5
53
 67
     1
  8
0
  0
BLOCK
  8
0
 62
     7
  2
_OPEN30
 70
     0
 10
0.0
 20
0.0
 30
0.0
  3
_OPEN30
  1

  0
LINE
  5
D7
  8
0
  6
BYBLOCK
 62
     0
 10
-1.0
 20
0.26794919
 30
0.0
 11
0.0
 21
0.0
 31
0.0
  0
LINE
  5
D8
  8
0
  6
BYBLOCK
 62
     0
 10
0.0
 20
0.0
 30
0.0
 11
-1.0
 21
-0.26794919
 31
0.0
  0
LINE
  5
D9
  8
0
  6
BYBLOCK
 62
     0
 10
0.0
 20
0.0
 30
0.0
 11
-1.0
 21
0.0
 31
0.0
  0
ENDBLK
  5
DB
  8
0
 62
     7
  0
BLOCK
  8
0
 62
     7
  2
*U20
 70
     1
 10
0.0
 20
0.0
 30
0.0
  3
*U20
  1

  0
TEXT
  5
23C1
  8
0
  6
CONTINUOUS
 62
     7
 10
-39.99999999999995
 20
-54.705088996476768
 30
0.0
 40
3.0
  1
NEFS8-4080-50
  0
ENDBLK
  5
23C3
  8
0
 62
     7
  0
BLOCK
  8
0
 62
     7
  2
*U21
 70
     1
 10
0.0
 20
0.0
 30
0.0
  3
*U21
  1

  0
TEXT
  5
23C5
  8
0
  6
CONTINUOUS
 62
     7
 10
-39.99999999999995
 20
-60.01431328305955
 30
0.0
 40
3.0
  1
NEFS8-4080
  0
ENDBLK
  5
23C7
  8
0
 62
     7
  0
ENDSEC
  0
SECTION
  2
ENTITIES
  0
ARC
  5
1DBD
  8
0
  6
CONTINUOUS
 62
     7
 10
25.450000000000049
 20
5.4500000000000446
 30
0.0
 40
0.3000000000000114
 50
0.0
 51
90.0
  0
ARC
  5
1DBE
  8
0
  6
CONTINUOUS
 62
     7
 10
22.80000000000004
 20
5.4500000000000446
 30
0.0
 40
0.3000000000000043
 50
90.0
 51
180.0
  0
LINE
  5
1DBF
  8
0
  6
CONTINUOUS
 62
     7
 10
22.500000894100062
 20
5.0953407772000503
 30
0.0
 11
22.500000894100062
 21
5.4500000551000483
 31
0.0
  0
ARC
  5
1DC0
  8
0
  6
CONTINUOUS
 62
     7
 10
22.200000000000049
 20
5.0953410092000553
 30
0.0
 40
0.2999999999999987
 50
246.64690777460149
 51
0.0
  0
ARC
  5
1DC1
  8
0
  6
CONTINUOUS
 62
     7
 10
20.00000000000006
 20
0.0000000000000568
 30
0.0
 40
5.2499999999999876
 50
66.646907774601473
 51
113.3530922253985
  0
ARC
  5
1DC2
  8
0
  6
CONTINUOUS
 62
     7
 10
17.80000000000004
 20
5.0953410092000553
 30
0.0
 40
0.3000000000000046
 50
180.0
 51
293.35309222539848
  0
LINE
  5
1DC3
  8
0
  6
CONTINUOUS
 62
     7
 10
17.500000074500061
 20
5.4500000551000483
 30
0.0
 11
17.500000074500061
 21
5.0953407772000503
 31
0.0
  0
ARC
  5
1DC4
  8
0
  6
CONTINUOUS
 62
     7
 10
17.200000000000038
 20
5.4500000000000446
 30
0.0
 40
0.3000000000000114
 50
0.0
 51
90.0
  0
LINE
  5
1DC5
  8
0
  6
CONTINUOUS
 62
     7
 10
14.550000429100059
 20
5.750000011199929
 30
0.0
 11
17.200000584099971
 21
5.750000011199929
 31
0.0
  0
ARC
  5
1DC6
  8
0
  6
CONTINUOUS
 62
     7
 10
14.55000000000004
 20
5.4500000000000446
 30
0.0
 40
0.2999999999999972
 50
90.0
 51
180.0
  0
LINE
  5
1DC7
  8
0
  6
CONTINUOUS
 62
     7
 10
14.25000000740007
 20
2.7999999000999329
 30
0.0
 11
14.25000000740007
 21
5.4500000551000483
 31
0.0
  0
ARC
  5
1DC8
  8
0
  6
CONTINUOUS
 62
     7
 10
14.55000000000004
 20
2.800000000000054
 30
0.0
 40
0.2999999999999972
 50
180.0
 51
270.0
  0
LINE
  5
1DC9
  8
0
  6
CONTINUOUS
 62
     7
 10
14.904659241400051
 20
2.4999999441000531
 30
0.0
 11
14.550000429100059
 21
2.4999999441000531
 31
0.0
  0
ARC
  5
1DCA
  8
0
  6
CONTINUOUS
 62
     7
 10
14.904658990800041
 20
2.200000000000045
 30
0.0
 40
0.3000000000000083
 50
336.64690777459862
 51
90.0
  0
ARC
  5
1DCB
  8
0
  6
CONTINUOUS
 62
     7
 10
20.00000000000006
 20
0.0000000000000568
 30
0.0
 40
5.2499999999999947
 50
156.64690777459859
 51
203.35309222540141
  0
ARC
  5
1DCC
  8
0
  6
CONTINUOUS
 62
     7
 10
14.904658990800041
 20
-2.1999999999999451
 30
0.0
 40
0.2999999999999987
 50
270.0
 51
23.353092225401411
  0
LINE
  5
1DCD
  8
0
  6
CONTINUOUS
 62
     7
 10
14.550000429100059
 20
-2.4999999440999541
 30
0.0
 11
14.904659241400051
 21
-2.4999999440999541
 31
0.0
  0
ARC
  5
1DCE
  8
0
  6
CONTINUOUS
 62
     7
 10
14.55000000000004
 20
-2.7999999999999541
 30
0.0
 40
0.3000000000000043
 50
90.0
 51
180.0
  0
LINE
  5
1DCF
  8
0
  6
CONTINUOUS
 62
     7
 10
14.25000000740007
 20
-5.4500000551999497
 30
0.0
 11
14.25000000740007
 21
-2.7999999001999489
 31
0.0
  0
ARC
  5
1DD0
  8
0
  6
CONTINUOUS
 62
     7
 10
14.55000000000004
 20
-5.4499999999999451
 30
0.0
 40
0.2999999999999972
 50
180.0
 51
270.0
  0
LINE
  5
1DD1
  8
0
  6
CONTINUOUS
 62
     7
 10
17.200000584099971
 20
-5.7500000111999583
 30
0.0
 11
14.550000429100059
 21
-5.7500000111999583
 31
0.0
  0
ARC
  5
1DD2
  8
0
  6
CONTINUOUS
 62
     7
 10
17.200000000000038
 20
-5.4499999999999451
 30
0.0
 40
0.2999999999999972
 50
270.0
 51
0.0
  0
LINE
  5
1DD3
  8
0
  6
CONTINUOUS
 62
     7
 10
17.500000074500061
 20
-5.0953407772000503
 30
0.0
 11
17.500000074500061
 21
-5.4500000551999497
 31
0.0
  0
ARC
  5
1DD4
  8
0
  6
CONTINUOUS
 62
     7
 10
17.80000000000004
 20
-5.0953410091999549
 30
0.0
 40
0.3000000000000046
 50
66.646907774601473
 51
180.0
  0
ARC
  5
1DD5
  8
0
  6
CONTINUOUS
 62
     7
 10
20.00000000000006
 20
0.0000000000000568
 30
0.0
 40
5.25
 50
246.64690777460149
 51
293.35309222539848
  0
ARC
  5
1DD6
  8
0
  6
CONTINUOUS
 62
     7
 10
22.200000000000049
 20
-5.0953410091999549
 30
0.0
 40
0.2999999999999972
 50
0.0
 51
113.3530922253985
  0
LINE
  5
1DD7
  8
0
  6
CONTINUOUS
 62
     7
 10
22.500000894100062
 20
-5.4500000551999497
 30
0.0
 11
22.500000894100062
 21
-5.0953407772000503
 31
0.0
  0
ARC
  5
1DD8
  8
0
  6
CONTINUOUS
 62
     7
 10
22.80000000000004
 20
-5.4499999999999451
 30
0.0
 40
0.2999999999999972
 50
180.0
 51
270.0
  0
LINE
  5
1DD9
  8
0
  6
CONTINUOUS
 62
     7
 10
25.450000539400069
 20
-5.7500000111999583
 30
0.0
 11
22.800000384400079
 21
-5.7500000111999583
 31
0.0
  0
ARC
  5
1DDA
  8
0
  6
CONTINUOUS
 62
     7
 10
25.450000000000049
 20
-5.4499999999999451
 30
0.0
 40
0.3000000000000114
 50
270.0
 51
0.0
  0
LINE
  5
1DDB
  8
0
  6
CONTINUOUS
 62
     7
 10
25.75000002979996
 20
-2.7999999001999489
 30
0.0
 11
25.75000002979996
 21
-5.4500000551999497
 31
0.0
  0
ARC
  5
1DDC
  8
0
  6
CONTINUOUS
 62
     7
 10
25.450000000000049
 20
-2.7999999999999541
 30
0.0
 40
0.3000000000000043
 50
0.0
 51
90.0
  0
LINE
  5
1DDD
  8
0
  6
CONTINUOUS
 62
     7
 10
25.09534172709996
 20
-2.4999999440999541
 30
0.0
 11
25.450000539400069
 21
-2.4999999440999541
 31
0.0
  0
ARC
  5
1DDE
  8
0
  6
CONTINUOUS
 62
     7
 10
25.095341009200069
 20
-2.1999999999999451
 30
0.0
 40
0.2999999999999972
 50
156.64690777459859
 51
270.0
  0
ARC
  5
1DDF
  8
0
  6
CONTINUOUS
 62
     7
 10
20.00000000000006
 20
0.0000000000000568
 30
0.0
 40
5.2499999999999947
 50
336.64690777459862
 51
23.353092225401411
  0
ARC
  5
1DE0
  8
0
  6
CONTINUOUS
 62
     7
 10
25.095341009200069
 20
2.200000000000045
 30
0.0
 40
0.2999999999999987
 50
90.0
 51
203.35309222540141
  0
LINE
  5
1DE1
  8
0
  6
CONTINUOUS
 62
     7
 10
25.450000539400069
 20
2.4999999441000531
 30
0.0
 11
25.09534172709996
 21
2.4999999441000531
 31
0.0
  0
ARC
  5
1DE2
  8
0
  6
CONTINUOUS
 62
     7
 10
25.450000000000049
 20
2.800000000000054
 30
0.0
 40
0.3000000000000043
 50
270.0
 51
0.0
  0
LINE
  5
1DE3
  8
0
  6
CONTINUOUS
 62
     7
 10
25.75000002979996
 20
5.4500000551000483
 30
0.0
 11
25.75000002979996
 21
2.7999999000999329
 31
0.0
  0
ARC
  5
1DE4
  8
0
  6
CONTINUOUS
 62
     7
 10
31.799999999999979
 20
11.80000000000005
 30
0.0
 40
0.5
 50
180.0
 51
270.0
  0
LINE
  5
1DE5
  8
0
  6
CONTINUOUS
 62
     7
 10
37.600000470900063
 20
11.30000036210005
 30
0.0
 11
31.800001859699961
 21
11.30000036210005
 31
0.0
  0
LINE
  5
1DE6
  8
0
  6
CONTINUOUS
 62
     7
 10
38.100000470900063
 20
13.05224187670005
 30
0.0
 11
38.100000470900063
 21
11.800000362099929
 31
0.0
  0
ARC
  5
1DE7
  8
0
  6
CONTINUOUS
 62
     7
 10
37.600000470900063
 20
11.800000362099929
 30
0.0
 40
0.5
 50
270.0
 51
0.0
  0
ARC
  5
1DE8
  8
0
  6
CONTINUOUS
 62
     7
 10
37.100000000000051
 20
13.05224172590006
 30
0.0
 40
1.0
 50
0.0
 51
70.265485108800974
  0
ARC
  5
1DE9
  8
0
  6
CONTINUOUS
 62
     7
 10
39.700000000000053
 20
20.300000000000061
 30
0.0
 40
6.7000000000000082
 50
211.2974122203004
 51
250.26548510880099
  0
ARC
  5
1DEA
  8
0
  6
CONTINUOUS
 62
     7
 10
33.120486340200053
 20
16.30000000000005
 30
0.0
 40
1.0000000000000111
 50
31.297412220300458
 51
90.0
  0
LINE
  5
1DEB
  8
0
  6
CONTINUOUS
 62
     7
 10
32.100000846400043
 20
17.300000414200049
 30
0.0
 11
33.120486885300068
 21
17.300000414200049
 31
0.0
  0
LINE
  5
1DEC
  8
0
  6
CONTINUOUS
 62
     7
 10
31.30000084640006
 20
11.800000443999931
 30
0.0
 11
31.30000084640006
 21
16.500000414200041
 31
0.0
  0
ARC
  5
1DED
  8
0
  6
CONTINUOUS
 62
     7
 10
32.100000846400043
 20
16.500000414200041
 30
0.0
 40
0.8
 50
90.0
 51
180.0
  0
LINE
  5
1DEE
  8
0
  6
CONTINUOUS
 62
     7
 10
31.800001859699961
 20
-11.30000036209996
 30
0.0
 11
37.600000470900063
 21
-11.30000036209996
 31
0.0
  0
ARC
  5
1DEF
  8
0
  6
CONTINUOUS
 62
     7
 10
31.799999999999979
 20
-11.799999999999949
 30
0.0
 40
0.5
 50
90.0
 51
180.0
  0
LINE
  5
1DF0
  8
0
  6
CONTINUOUS
 62
     7
 10
31.300000846399971
 20
-16.500000414299951
 30
0.0
 11
31.30000084640006
 21
-11.80000044409995
 31
0.0
  0
LINE
  5
1DF1
  8
0
  6
CONTINUOUS
 62
     7
 10
33.120486885300068
 20
-17.300000414299959
 30
0.0
 11
32.100000846399979
 21
-17.300000414299959
 31
0.0
  0
ARC
  5
1DF2
  8
0
  6
CONTINUOUS
 62
     7
 10
32.100000846399979
 20
-16.500000414299951
 30
0.0
 40
0.8
 50
180.0
 51
270.0
  0
ARC
  5
1DF3
  8
0
  6
CONTINUOUS
 62
     7
 10
33.120486340200053
 20
-16.299999999999951
 30
0.0
 40
1.0
 50
270.0
 51
328.7025877797002
  0
ARC
  5
1DF4
  8
0
  6
CONTINUOUS
 62
     7
 10
39.700000000000053
 20
-20.299999999999951
 30
0.0
 40
6.7000000000000206
 50
109.734514891199
 51
148.70258777969951
  0
ARC
  5
1DF5
  8
0
  6
CONTINUOUS
 62
     7
 10
37.100000000000051
 20
-13.05224172589994
 30
0.0
 40
1.0
 50
289.73451489119901
 51
0.0
  0
LINE
  5
1DF6
  8
0
  6
CONTINUOUS
 62
     7
 10
38.100000470900063
 20
-11.80000036209996
 30
0.0
 11
38.100000470900063
 21
-13.05224187669995
 31
0.0
  0
ARC
  5
1DF7
  8
0
  6
CONTINUOUS
 62
     7
 10
37.600000470900063
 20
-11.80000036209996
 30
0.0
 40
0.5
 50
0.0
 51
90.0
  0
ARC
  5
1DF8
  8
0
  6
CONTINUOUS
 62
     7
 10
6.500000000000056
 20
-16.49999999999994
 30
0.0
 40
1.0000000000000011
 50
270.0
 51
0.0
  0
LINE
  5
1DF9
  8
0
  6
CONTINUOUS
 62
     7
 10
7.4999998324000776
 20
-16.499999910599971
 30
0.0
 11
7.4999998324000776
 21
-12.13639602069996
 31
0.0
  0
ARC
  5
1DFA
  8
0
  6
CONTINUOUS
 62
     7
 10
8.5000000000000568
 20
-12.136396103099971
 30
0.0
 40
1.0
 50
135.00000000000051
 51
180.0
  0
LINE
  5
1DFB
  8
0
  6
CONTINUOUS
 62
     7
 10
7.7928933315000668
 20
-11.42928935589995
 30
0.0
 11
12.75710668410008
 21
-6.465075537599958
 31
0.0
  0
ARC
  5
1DFC
  8
0
  6
CONTINUOUS
 62
     7
 10
12.05000000000004
 20
-5.7579689782999424
 30
0.0
 40
1.0000000000000011
 50
315.00000000000063
 51
0.0
  0
LINE
  5
1DFD
  8
0
  6
CONTINUOUS
 62
     7
 10
13.05000018330005
 20
-5.7579688727999487
 30
0.0
 11
13.05000018330005
 21
-2.3690110537999649
 31
0.0
  0
ARC
  5
1DFE
  8
0
  6
CONTINUOUS
 62
     7
 10
13.45000000000004
 20
-2.369011134499956
 30
0.0
 40
0.4000000000000057
 50
112.7015222537996
 51
180.0
  0
ARC
  5
1DFF
  8
0
  6
CONTINUOUS
 62
     7
 10
13.14125555800007
 20
-1.630988865499958
 30
0.0
 40
0.3999999999999979
 50
292.70152225379951
 51
13.37632571609981
  0
ARC
  5
1E00
  8
0
  6
CONTINUOUS
 62
     7
 10
20.00000000000006
 20
0.0000000000000568
 30
0.0
 40
6.6499999999999906
 50
166.6236742839001
 51
193.37632571609981
  0
ARC
  5
1E01
  8
0
  6
CONTINUOUS
 62
     7
 10
13.14125555800007
 20
1.6309888655000431
 30
0.0
 40
0.3999999999999971
 50
346.62367428390019
 51
67.29847774620039
  0
ARC
  5
1E02
  8
0
  6
CONTINUOUS
 62
     7
 10
13.45000000000004
 20
2.3690111345000409
 30
0.0
 40
0.4000000000000057
 50
180.0
 51
247.2984777462004
  0
LINE
  5
1E03
  8
0
  6
CONTINUOUS
 62
     7
 10
13.05000018330005
 20
2.369011053800036
 30
0.0
 11
13.05000018330005
 21
5.757968872800034
 31
0.0
  0
ARC
  5
1E04
  8
0
  6
CONTINUOUS
 62
     7
 10
12.05000000000004
 20
5.7579689783000561
 30
0.0
 40
1.0000000000000011
 50
0.0
 51
44.999999999999417
  0
LINE
  5
1E05
  8
0
  6
CONTINUOUS
 62
     7
 10
12.75710668410008
 20
6.4650755375000548
 30
0.0
 11
7.7928933315000668
 21
11.42928935590005
 31
0.0
  0
ARC
  5
1E06
  8
0
  6
CONTINUOUS
 62
     7
 10
8.5000000000000568
 20
12.136396103000051
 30
0.0
 40
1.0
 50
180.0
 51
224.9999999999994
  0
LINE
  5
1E07
  8
0
  6
CONTINUOUS
 62
     7
 10
7.4999998324000776
 20
12.13639602060003
 30
0.0
 11
7.4999998324000776
 21
16.499999910600039
 31
0.0
  0
ARC
  5
1E08
  8
0
  6
CONTINUOUS
 62
     7
 10
6.500000000000056
 20
16.500000000000039
 30
0.0
 40
1.0000000000000071
 50
0.0
 51
90.0
  0
ARC
  5
1E09
  8
0
  6
CONTINUOUS
 62
     7
 10
-8.4999999999999432
 20
12.136396103000051
 30
0.0
 40
1.0000000000000011
 50
315.00000000000063
 51
0.0
  0
ARC
  5
1E0A
  8
0
  6
CONTINUOUS
 62
     7
 10
-12.049999999999949
 20
5.7579689783000561
 30
0.0
 40
1.0000000000000011
 50
135.00000000000051
 51
180.0
  0
ARC
  5
1E0B
  8
0
  6
CONTINUOUS
 62
     7
 10
-12.049999999999949
 20
-5.7579689782999424
 30
0.0
 40
1.0000000000000011
 50
180.0
 51
224.9999999999994
  0
ARC
  5
1E0C
  8
0
  6
CONTINUOUS
 62
     7
 10
-8.4999999999999432
 20
-12.136396103099971
 30
0.0
 40
1.0000000000000011
 50
0.0
 51
44.999999999999417
  0
ARC
  5
1E0D
  8
0
  6
CONTINUOUS
 62
     7
 10
-25.450000000000049
 20
2.800000000000054
 30
0.0
 40
0.3000000000000043
 50
180.0
 51
270.0
  0
LINE
  5
1E0E
  8
0
  6
CONTINUOUS
 62
     7
 10
-25.450000539399941
 20
2.4999999441000531
 30
0.0
 11
-25.095341727100049
 21
2.4999999441000531
 31
0.0
  0
ARC
  5
1E0F
  8
0
  6
CONTINUOUS
 62
     7
 10
-25.095341009199942
 20
2.200000000000045
 30
0.0
 40
0.2999999999999987
 50
336.64690777459862
 51
90.0
  0
ARC
  5
1E10
  8
0
  6
CONTINUOUS
 62
     7
 10
-19.99999999999994
 20
0.0000000000000568
 30
0.0
 40
5.249999999999976
 50
156.64690777459859
 51
203.35309222540141
  0
ARC
  5
1E11
  8
0
  6
CONTINUOUS
 62
     7
 10
-25.095341009199942
 20
-2.1999999999999451
 30
0.0
 40
0.2999999999999972
 50
270.0
 51
23.353092225401411
  0
LINE
  5
1E12
  8
0
  6
CONTINUOUS
 62
     7
 10
-25.095341727100049
 20
-2.4999999440999541
 30
0.0
 11
-25.450000539399941
 21
-2.4999999440999541
 31
0.0
  0
ARC
  5
1E13
  8
0
  6
CONTINUOUS
 62
     7
 10
-25.450000000000049
 20
-2.7999999999999541
 30
0.0
 40
0.3000000000000043
 50
90.0
 51
180.0
  0
LINE
  5
1E14
  8
0
  6
CONTINUOUS
 62
     7
 10
-25.750000029799939
 20
-2.7999999001999489
 30
0.0
 11
-25.750000029799939
 21
-5.4500000551999497
 31
0.0
  0
ARC
  5
1E15
  8
0
  6
CONTINUOUS
 62
     7
 10
-25.450000000000049
 20
-5.4499999999999451
 30
0.0
 40
0.2999999999999972
 50
180.0
 51
270.0
  0
LINE
  5
1E16
  8
0
  6
CONTINUOUS
 62
     7
 10
-25.450000539399941
 20
-5.7500000111999583
 30
0.0
 11
-22.800000384499938
 21
-5.7500000111999583
 31
0.0
  0
ARC
  5
1E17
  8
0
  6
CONTINUOUS
 62
     7
 10
-22.79999999999994
 20
-5.4499999999999451
 30
0.0
 40
0.2999999999999972
 50
270.0
 51
0.0
  0
LINE
  5
1E18
  8
0
  6
CONTINUOUS
 62
     7
 10
-22.500000894099941
 20
-5.4500000551999497
 30
0.0
 11
-22.500000894099941
 21
-5.0953407772000503
 31
0.0
  0
ARC
  5
1E19
  8
0
  6
CONTINUOUS
 62
     7
 10
-22.19999999999995
 20
-5.0953410091999549
 30
0.0
 40
0.2999999999999987
 50
66.646907774601473
 51
180.0
  0
ARC
  5
1E1A
  8
0
  6
CONTINUOUS
 62
     7
 10
-19.99999999999994
 20
0.0000000000000568
 30
0.0
 40
5.2499999999999947
 50
246.64690777460149
 51
293.35309222539848
  0
ARC
  5
1E1B
  8
0
  6
CONTINUOUS
 62
     7
 10
-17.799999999999951
 20
-5.0953410091999549
 30
0.0
 40
0.3000000000000043
 50
0.0
 51
113.3530922253985
  0
LINE
  5
1E1C
  8
0
  6
CONTINUOUS
 62
     7
 10
-17.500000074499919
 20
-5.0953407772000503
 30
0.0
 11
-17.500000074499919
 21
-5.4500000551999497
 31
0.0
  0
ARC
  5
1E1D
  8
0
  6
CONTINUOUS
 62
     7
 10
-17.19999999999996
 20
-5.4499999999999451
 30
0.0
 40
0.2999999999999901
 50
180.0
 51
270.0
  0
LINE
  5
1E1E
  8
0
  6
CONTINUOUS
 62
     7
 10
-17.200000584099939
 20
-5.7500000111999583
 30
0.0
 11
-14.55000042919994
 21
-5.7500000111999583
 31
0.0
  0
ARC
  5
1E1F
  8
0
  6
CONTINUOUS
 62
     7
 10
-14.549999999999949
 20
-5.4499999999999451
 30
0.0
 40
0.3000000000000043
 50
270.0
 51
0.0
  0
LINE
  5
1E20
  8
0
  6
CONTINUOUS
 62
     7
 10
-14.250000007499951
 20
-5.4500000551999497
 30
0.0
 11
-14.250000007499951
 21
-2.7999999001999489
 31
0.0
  0
ARC
  5
1E21
  8
0
  6
CONTINUOUS
 62
     7
 10
-14.549999999999949
 20
-2.7999999999999541
 30
0.0
 40
0.3000000000000043
 50
0.0
 51
90.0
  0
LINE
  5
1E22
  8
0
  6
CONTINUOUS
 62
     7
 10
-14.55000042919994
 20
-2.4999999440999541
 30
0.0
 11
-14.904659241399941
 21
-2.4999999440999541
 31
0.0
  0
ARC
  5
1E23
  8
0
  6
CONTINUOUS
 62
     7
 10
-14.904658990799961
 20
-2.1999999999999451
 30
0.0
 40
0.2999999999999987
 50
156.64690777459859
 51
270.0
  0
ARC
  5
1E24
  8
0
  6
CONTINUOUS
 62
     7
 10
-19.99999999999994
 20
0.0000000000000568
 30
0.0
 40
5.25
 50
336.64690777459862
 51
23.353092225401411
  0
ARC
  5
1E25
  8
0
  6
CONTINUOUS
 62
     7
 10
-14.904658990799961
 20
2.200000000000045
 30
0.0
 40
0.3000000000000043
 50
90.0
 51
203.35309222540141
  0
LINE
  5
1E26
  8
0
  6
CONTINUOUS
 62
     7
 10
-14.904659241399941
 20
2.4999999441000531
 30
0.0
 11
-14.55000042919994
 21
2.4999999441000531
 31
0.0
  0
ARC
  5
1E27
  8
0
  6
CONTINUOUS
 62
     7
 10
-14.549999999999949
 20
2.800000000000054
 30
0.0
 40
0.3000000000000043
 50
270.0
 51
0.0
  0
LINE
  5
1E28
  8
0
  6
CONTINUOUS
 62
     7
 10
-14.250000007499951
 20
2.7999999000999329
 30
0.0
 11
-14.250000007499951
 21
5.4500000551000483
 31
0.0
  0
ARC
  5
1E29
  8
0
  6
CONTINUOUS
 62
     7
 10
-14.549999999999949
 20
5.4500000000000446
 30
0.0
 40
0.3000000000000043
 50
0.0
 51
90.0
  0
LINE
  5
1E2A
  8
0
  6
CONTINUOUS
 62
     7
 10
-14.55000042919994
 20
5.750000011199929
 30
0.0
 11
-17.200000584099939
 21
5.750000011199929
 31
0.0
  0
ARC
  5
1E2B
  8
0
  6
CONTINUOUS
 62
     7
 10
-17.19999999999996
 20
5.4500000000000446
 30
0.0
 40
0.3000000000000043
 50
90.0
 51
180.0
  0
LINE
  5
1E2C
  8
0
  6
CONTINUOUS
 62
     7
 10
-17.500000074499919
 20
5.4500000551000483
 30
0.0
 11
-17.500000074499919
 21
5.0953407772000503
 31
0.0
  0
ARC
  5
1E2D
  8
0
  6
CONTINUOUS
 62
     7
 10
-17.799999999999951
 20
5.0953410092000553
 30
0.0
 40
0.3000000000000043
 50
246.64690777460149
 51
0.0
  0
ARC
  5
1E2E
  8
0
  6
CONTINUOUS
 62
     7
 10
-19.99999999999994
 20
0.0000000000000568
 30
0.0
 40
5.2499999999999876
 50
66.646907774601473
 51
113.3530922253985
  0
ARC
  5
1E2F
  8
0
  6
CONTINUOUS
 62
     7
 10
-22.19999999999995
 20
5.0953410092000553
 30
0.0
 40
0.3000000000000015
 50
180.0
 51
293.35309222539848
  0
LINE
  5
1E30
  8
0
  6
CONTINUOUS
 62
     7
 10
-22.500000894099941
 20
5.0953407772000503
 30
0.0
 11
-22.500000894099941
 21
5.4500000551000483
 31
0.0
  0
ARC
  5
1E31
  8
0
  6
CONTINUOUS
 62
     7
 10
-22.79999999999994
 20
5.4500000000000446
 30
0.0
 40
0.3000000000000043
 50
0.0
 51
90.0
  0
LINE
  5
1E32
  8
0
  6
CONTINUOUS
 62
     7
 10
-22.800000384499938
 20
5.750000011199929
 30
0.0
 11
-25.450000539399941
 21
5.750000011199929
 31
0.0
  0
ARC
  5
1E33
  8
0
  6
CONTINUOUS
 62
     7
 10
-25.450000000000049
 20
5.4500000000000446
 30
0.0
 40
0.3000000000000043
 50
90.0
 51
180.0
  0
LINE
  5
1E34
  8
0
  6
CONTINUOUS
 62
     7
 10
-25.750000029799939
 20
5.4500000551000483
 30
0.0
 11
-25.750000029799939
 21
2.7999999000999329
 31
0.0
  0
LINE
  5
1E35
  8
0
  6
CONTINUOUS
 62
     7
 10
-32.100000846399936
 20
17.300000414200049
 30
0.0
 11
-33.12048688529994
 21
17.300000414200049
 31
0.0
  0
ARC
  5
1E36
  8
0
  6
CONTINUOUS
 62
     7
 10
-33.120486340200053
 20
16.30000000000005
 30
0.0
 40
1.0000000000000071
 50
90.0
 51
148.70258777969951
  0
ARC
  5
1E37
  8
0
  6
CONTINUOUS
 62
     7
 10
-39.699999999999953
 20
20.300000000000061
 30
0.0
 40
6.7000000000000002
 50
289.73451489119901
 51
328.7025877797002
  0
ARC
  5
1E38
  8
0
  6
CONTINUOUS
 62
     7
 10
-37.099999999999952
 20
13.05224172590006
 30
0.0
 40
1.0
 50
109.734514891199
 51
180.0
  0
LINE
  5
1E39
  8
0
  6
CONTINUOUS
 62
     7
 10
-38.100000470899928
 20
13.05224187670005
 30
0.0
 11
-38.100000470899928
 21
11.800000362099929
 31
0.0
  0
LINE
  5
1E3A
  8
0
  6
CONTINUOUS
 62
     7
 10
-37.600000470899928
 20
11.30000036210005
 30
0.0
 11
-31.80000185969995
 21
11.30000036210005
 31
0.0
  0
ARC
  5
1E3B
  8
0
  6
CONTINUOUS
 62
     7
 10
-37.600000470899928
 20
11.800000362099929
 30
0.0
 40
0.5
 50
180.0
 51
270.0
  0
ARC
  5
1E3C
  8
0
  6
CONTINUOUS
 62
     7
 10
-31.79999999999994
 20
11.80000000000005
 30
0.0
 40
0.5
 50
270.0
 51
0.0
  0
LINE
  5
1E3D
  8
0
  6
CONTINUOUS
 62
     7
 10
-31.300000846399939
 20
11.800000443999931
 30
0.0
 11
-31.300000846399939
 21
16.500000414200041
 31
0.0
  0
ARC
  5
1E3E
  8
0
  6
CONTINUOUS
 62
     7
 10
-32.100000846399936
 20
16.500000414200041
 30
0.0
 40
0.8
 50
0.0
 51
90.0
  0
ARC
  5
1E3F
  8
0
  6
CONTINUOUS
 62
     7
 10
-37.099999999999952
 20
-13.05224172589994
 30
0.0
 40
1.0
 50
180.0
 51
250.26548510880099
  0
ARC
  5
1E40
  8
0
  6
CONTINUOUS
 62
     7
 10
-39.699999999999953
 20
-20.299999999999951
 30
0.0
 40
6.7000000000000064
 50
31.297412220300458
 51
70.265485108800974
  0
ARC
  5
1E41
  8
0
  6
CONTINUOUS
 62
     7
 10
-33.120486340200053
 20
-16.299999999999951
 30
0.0
 40
1.0000000000000011
 50
211.2974122203004
 51
270.0
  0
LINE
  5
1E42
  8
0
  6
CONTINUOUS
 62
     7
 10
-33.12048688529994
 20
-17.300000414299959
 30
0.0
 11
-32.100000846399936
 21
-17.300000414299959
 31
0.0
  0
ARC
  5
1E43
  8
0
  6
CONTINUOUS
 62
     7
 10
-32.100000846399936
 20
-16.500000414299951
 30
0.0
 40
0.8
 50
270.0
 51
0.0
  0
LINE
  5
1E44
  8
0
  6
CONTINUOUS
 62
     7
 10
-31.300000846399939
 20
-16.500000414299951
 30
0.0
 11
-31.300000846399939
 21
-11.80000044409995
 31
0.0
  0
ARC
  5
1E45
  8
0
  6
CONTINUOUS
 62
     7
 10
-31.79999999999994
 20
-11.799999999999949
 30
0.0
 40
0.5
 50
0.0
 51
90.0
  0
LINE
  5
1E46
  8
0
  6
CONTINUOUS
 62
     7
 10
-31.80000185969995
 20
-11.30000036209996
 30
0.0
 11
-37.600000470899928
 21
-11.30000036209996
 31
0.0
  0
LINE
  5
1E47
  8
0
  6
CONTINUOUS
 62
     7
 10
-38.100000470899928
 20
-11.80000036209996
 30
0.0
 11
-38.100000470899928
 21
-13.05224187669995
 31
0.0
  0
ARC
  5
1E48
  8
0
  6
CONTINUOUS
 62
     7
 10
-37.600000470899928
 20
-11.80000036209996
 30
0.0
 40
0.5
 50
90.0
 51
180.0
  0
ARC
  5
1E49
  8
0
  6
CONTINUOUS
 62
     7
 10
14.70000000000004
 20
14.80000000000005
 30
0.0
 40
0.3000000000000114
 50
270.0
 51
0.0
  0
LINE
  5
1E4A
  8
0
  6
CONTINUOUS
 62
     7
 10
14.70000017429996
 20
14.499999582700029
 30
0.0
 11
9.9999997765000614
 21
14.499999582700029
 31
0.0
  0
LINE
  5
1E4B
  8
0
  6
CONTINUOUS
 62
     7
 10
9.9999997765000614
 20
14.499999582700029
 30
0.0
 11
9.9999997765000614
 21
11.767767369700049
 31
0.0
  0
LINE
  5
1E4C
  8
0
  6
CONTINUOUS
 62
     7
 10
9.9999997765000614
 20
11.767767369700049
 30
0.0
 11
14.26776684820007
 21
7.4999998323000483
 31
0.0
  0
LINE
  5
1E4D
  8
0
  6
CONTINUOUS
 62
     7
 10
14.26776684820007
 20
7.4999998323000483
 30
0.0
 11
16.499999910600049
 21
7.4999998323000483
 31
0.0
  0
LINE
  5
1E4E
  8
0
  6
CONTINUOUS
 62
     7
 10
16.499999910600049
 20
7.4999998323000483
 30
0.0
 11
18.247587606299959
 21
7.2232093662000381
 31
0.0
  0
LINE
  5
1E4F
  8
0
  6
CONTINUOUS
 62
     7
 10
18.247587606299959
 20
7.2232093662000381
 30
0.0
 11
19.21700127420004
 21
7.4829626828000348
 31
0.0
  0
ARC
  5
1E50
  8
0
  6
CONTINUOUS
 62
     7
 10
19.346410161500071
 20
7.000000000000056
 30
0.0
 40
0.5000000000000016
 50
59.999999999999858
 51
105.00000000000109
  0
LINE
  5
1E51
  8
0
  6
CONTINUOUS
 62
     7
 10
19.596410915200071
 20
7.4330125935000382
 30
0.0
 11
19.999999553000059
 21
7.1999998763000397
 31
0.0
  0
LINE
  5
1E52
  8
0
  6
CONTINUOUS
 62
     7
 10
19.999999553000059
 20
7.1999998763000397
 30
0.0
 11
20.403590053300071
 21
7.4330125935000382
 31
0.0
  0
ARC
  5
1E53
  8
0
  6
CONTINUOUS
 62
     7
 10
20.653589838500071
 20
7.000000000000056
 30
0.0
 40
0.4999999999999979
 50
89.953073389791584
 51
120.0000000000001
  0
LINE
  5
1E54
  8
0
  6
CONTINUOUS
 62
     7
 10
20.653999350362771
 20
7.4999998323000483
 30
0.0
 11
25.732232257700051
 21
7.4999998323000483
 31
0.0
  0
LINE
  5
1E55
  8
0
  6
CONTINUOUS
 62
     7
 10
25.732232257700051
 20
7.4999998323000483
 30
0.0
 11
29.99999932940009
 21
11.767767369700049
 31
0.0
  0
LINE
  5
1E56
  8
0
  6
CONTINUOUS
 62
     7
 10
29.99999932940009
 20
11.767767369700049
 30
0.0
 11
29.99999932940009
 21
14.499999582700029
 31
0.0
  0
LINE
  5
1E57
  8
0
  6
CONTINUOUS
 62
     7
 10
29.99999932940009
 20
14.499999582700029
 30
0.0
 11
25.299999862900052
 21
14.499999582700029
 31
0.0
  0
ARC
  5
1E58
  8
0
  6
CONTINUOUS
 62
     7
 10
25.30000000000004
 20
14.80000000000005
 30
0.0
 40
0.3000000000000043
 50
180.0
 51
270.0
  0
ARC
  5
1E59
  8
0
  6
CONTINUOUS
 62
     7
 10
25.30000000000004
 20
19.70000000000006
 30
0.0
 40
0.3000000000000114
 50
90.0
 51
180.0
  0
LINE
  5
1E5A
  8
0
  6
CONTINUOUS
 62
     7
 10
25.299999862900052
 20
19.999999552900029
 30
0.0
 11
37.000000476800068
 21
19.999999552900029
 31
0.0
  0
ARC
  5
1E5B
  8
0
  6
CONTINUOUS
 62
     7
 10
37.000000000000057
 20
17.000000000000039
 30
0.0
 40
3.0
 50
0.0
 51
90.0
  0
LINE
  5
1E5C
  8
0
  6
CONTINUOUS
 62
     7
 10
39.999999105900059
 20
17.000000923799931
 30
0.0
 11
39.999999105900059
 21
5.2999998443000322
 31
0.0
  0
ARC
  5
1E5D
  8
0
  6
CONTINUOUS
 62
     7
 10
39.700000000000053
 20
5.300000000000054
 30
0.0
 40
0.2999999999999972
 50
270.0
 51
0.0
  0
ARC
  5
1E5E
  8
0
  6
CONTINUOUS
 62
     7
 10
34.80000000000004
 20
5.300000000000054
 30
0.0
 40
0.3000000000000114
 50
180.0
 51
270.0
  0
LINE
  5
1E5F
  8
0
  6
CONTINUOUS
 62
     7
 10
34.499999135700051
 20
5.2999998443000322
 30
0.0
 11
34.499999135700051
 21
9.9999997765000472
 31
0.0
  0
LINE
  5
1E60
  8
0
  6
CONTINUOUS
 62
     7
 10
34.499999135700051
 20
9.9999997765000472
 30
0.0
 11
31.767766922700051
 21
9.9999997765000472
 31
0.0
  0
LINE
  5
1E61
  8
0
  6
CONTINUOUS
 62
     7
 10
31.767766922700051
 20
9.9999997765000472
 30
0.0
 11
27.499999851000069
 21
5.7322331704000362
 31
0.0
  0
LINE
  5
1E62
  8
0
  6
CONTINUOUS
 62
     7
 10
27.499999851000069
 20
5.7322331704000362
 30
0.0
 11
27.499999851000069
 21
3.5000001080000369
 31
0.0
  0
LINE
  5
1E63
  8
0
  6
CONTINUOUS
 62
     7
 10
27.499999851000069
 20
3.5000001080000369
 30
0.0
 11
27.223208919200061
 21
1.7524127615000531
 31
0.0
  0
LINE
  5
1E64
  8
0
  6
CONTINUOUS
 62
     7
 10
27.223208919200061
 20
1.7524127615000531
 30
0.0
 11
27.48296223580008
 21
0.7829993847000482
 31
0.0
  0
ARC
  5
1E65
  8
0
  6
CONTINUOUS
 62
     7
 10
27.00000000000006
 20
0.6535898385000394
 30
0.0
 40
0.5
 50
329.99999999999869
 51
15.00000000000038
  0
LINE
  5
1E66
  8
0
  6
CONTINUOUS
 62
     7
 10
27.433013543500071
 20
0.4035898309000459
 30
0.0
 11
27.200000360600061
 21
0.0000000000000568
 31
0.0
  0
LINE
  5
1E67
  8
0
  6
CONTINUOUS
 62
     7
 10
27.200000360600061
 20
0.0000000000000568
 30
0.0
 11
27.433013543500071
 21
-0.4035898309999482
 31
0.0
  0
ARC
  5
1E68
  8
0
  6
CONTINUOUS
 62
     7
 10
27.00000000000006
 20
-0.6535898384999542
 30
0.0
 40
0.5
 50
359.95576706612252
 51
30.000000000001251
  0
LINE
  5
1E69
  8
0
  6
CONTINUOUS
 62
     7
 10
27.499999851000069
 20
-0.6539758436179568
 30
0.0
 11
27.499999851000069
 21
-5.7322331703999652
 31
0.0
  0
LINE
  5
1E6A
  8
0
  6
CONTINUOUS
 62
     7
 10
27.499999851000069
 20
-5.7322331703999652
 30
0.0
 11
31.767766922700051
 21
-9.9999997764999602
 31
0.0
  0
LINE
  5
1E6B
  8
0
  6
CONTINUOUS
 62
     7
 10
31.767766922700051
 20
-9.9999997764999602
 30
0.0
 11
34.499999135700051
 21
-9.9999997764999602
 31
0.0
  0
LINE
  5
1E6C
  8
0
  6
CONTINUOUS
 62
     7
 10
34.499999135700051
 20
-9.9999997764999602
 30
0.0
 11
34.499999135700051
 21
-5.2999998442999461
 31
0.0
  0
ARC
  5
1E6D
  8
0
  6
CONTINUOUS
 62
     7
 10
34.80000000000004
 20
-5.2999999999999536
 30
0.0
 40
0.3000000000000114
 50
90.0
 51
180.0
  0
ARC
  5
1E6E
  8
0
  6
CONTINUOUS
 62
     7
 10
39.700000000000053
 20
-5.2999999999999536
 30
0.0
 40
0.3000000000000114
 50
0.0
 51
90.0
  0
LINE
  5
1E6F
  8
0
  6
CONTINUOUS
 62
     7
 10
39.999999105900059
 20
-5.2999998442999461
 30
0.0
 11
39.999999105900059
 21
-17.00000092390006
 31
0.0
  0
ARC
  5
1E70
  8
0
  6
CONTINUOUS
 62
     7
 10
37.000000000000057
 20
-16.99999999999994
 30
0.0
 40
3.0
 50
270.0
 51
0.0
  0
LINE
  5
1E71
  8
0
  6
CONTINUOUS
 62
     7
 10
37.000000476800068
 20
-19.99999955299997
 30
0.0
 11
25.299999862900052
 21
-19.99999955299997
 31
0.0
  0
ARC
  5
1E72
  8
0
  6
CONTINUOUS
 62
     7
 10
25.30000000000004
 20
-19.699999999999971
 30
0.0
 40
0.3000000000000007
 50
180.0
 51
270.0
  0
ARC
  5
1E73
  8
0
  6
CONTINUOUS
 62
     7
 10
25.30000000000004
 20
-14.799999999999949
 30
0.0
 40
0.2999999999999972
 50
90.0
 51
180.0
  0
LINE
  5
1E74
  8
0
  6
CONTINUOUS
 62
     7
 10
25.299999862900052
 20
-14.49999958279996
 30
0.0
 11
29.99999932940009
 21
-14.49999958279996
 31
0.0
  0
LINE
  5
1E75
  8
0
  6
CONTINUOUS
 62
     7
 10
29.99999932940009
 20
-14.49999958279996
 30
0.0
 11
29.99999932940009
 21
-11.767767369799969
 31
0.0
  0
LINE
  5
1E76
  8
0
  6
CONTINUOUS
 62
     7
 10
29.99999932940009
 20
-11.767767369799969
 30
0.0
 11
25.732232257700051
 21
-7.4999998324000643
 31
0.0
  0
LINE
  5
1E77
  8
0
  6
CONTINUOUS
 62
     7
 10
25.732232257700051
 20
-7.4999998324000643
 30
0.0
 11
23.499999195300092
 21
-7.4999998324000643
 31
0.0
  0
LINE
  5
1E78
  8
0
  6
CONTINUOUS
 62
     7
 10
23.499999195300092
 20
-7.4999998324000643
 30
0.0
 11
21.752413362300079
 21
-7.2232093661999519
 31
0.0
  0
LINE
  5
1E79
  8
0
  6
CONTINUOUS
 62
     7
 10
21.752413362300079
 20
-7.2232093661999519
 30
0.0
 11
20.782999694300059
 21
-7.4829626828999523
 31
0.0
  0
ARC
  5
1E7A
  8
0
  6
CONTINUOUS
 62
     7
 10
20.653589838500071
 20
-6.9999999999999432
 30
0.0
 40
0.4999999999999979
 50
239.99999999999989
 51
285.00000000000119
  0
LINE
  5
1E7B
  8
0
  6
CONTINUOUS
 62
     7
 10
20.403590053300071
 20
-7.4330125935999538
 30
0.0
 11
19.999999553000059
 21
-7.1999998762999553
 31
0.0
  0
LINE
  5
1E7C
  8
0
  6
CONTINUOUS
 62
     7
 10
19.999999553000059
 20
-7.1999998762999553
 30
0.0
 11
19.596410915200071
 21
-7.4330125935999538
 31
0.0
  0
ARC
  5
1E7D
  8
0
  6
CONTINUOUS
 62
     7
 10
19.346410161500071
 20
-6.9999999999999432
 30
0.0
 40
0.5000000000000016
 50
269.9530874022181
 51
300.00000000000011
  0
LINE
  5
1E7E
  8
0
  6
CONTINUOUS
 62
     7
 10
19.34600077188022
 20
-7.4999998324000643
 30
0.0
 11
14.26776684820007
 21
-7.4999998324000643
 31
0.0
  0
LINE
  5
1E7F
  8
0
  6
CONTINUOUS
 62
     7
 10
14.26776684820007
 20
-7.4999998324000643
 30
0.0
 11
9.9999997765000614
 21
-11.767767369799969
 31
0.0
  0
LINE
  5
1E80
  8
0
  6
CONTINUOUS
 62
     7
 10
9.9999997765000614
 20
-11.767767369799969
 30
0.0
 11
9.9999997765000614
 21
-14.49999958279996
 31
0.0
  0
LINE
  5
1E81
  8
0
  6
CONTINUOUS
 62
     7
 10
9.9999997765000614
 20
-14.49999958279996
 30
0.0
 11
14.70000017429996
 21
-14.49999958279996
 31
0.0
  0
ARC
  5
1E82
  8
0
  6
CONTINUOUS
 62
     7
 10
14.70000000000004
 20
-14.799999999999949
 30
0.0
 40
0.3000000000000114
 50
0.0
 51
90.0
  0
ARC
  5
1E83
  8
0
  6
CONTINUOUS
 62
     7
 10
14.70000000000004
 20
-19.699999999999971
 30
0.0
 40
0.3000000000000114
 50
270.0
 51
0.0
  0
ARC
  5
1E84
  8
0
  6
CONTINUOUS
 62
     7
 10
14.70000000000004
 20
19.70000000000006
 30
0.0
 40
0.3000000000000114
 50
0.0
 51
90.0
  0
LINE
  5
1E85
  8
0
  6
CONTINUOUS
 62
     7
 10
22.800000384400079
 20
5.750000011199929
 30
0.0
 11
25.450000539400069
 21
5.750000011199929
 31
0.0
  0
ARC
  5
1E86
  8
0
  6
CONTINUOUS
 62
     7
 10
-14.69999999999996
 20
19.70000000000006
 30
0.0
 40
0.3000000000000114
 50
90.0
 51
180.0
  0
ARC
  5
1E87
  8
0
  6
CONTINUOUS
 62
     7
 10
-14.69999999999996
 20
14.80000000000005
 30
0.0
 40
0.3000000000000043
 50
180.0
 51
270.0
  0
LINE
  5
1E88
  8
0
  6
CONTINUOUS
 62
     7
 10
-14.700000174399939
 20
14.499999582700029
 30
0.0
 11
-9.9999997764999478
 21
14.499999582700029
 31
0.0
  0
LINE
  5
1E89
  8
0
  6
CONTINUOUS
 62
     7
 10
-9.9999997764999478
 20
14.499999582700029
 30
0.0
 11
-9.9999997764999478
 21
11.767767369700049
 31
0.0
  0
LINE
  5
1E8A
  8
0
  6
CONTINUOUS
 62
     7
 10
-9.9999997764999478
 20
11.767767369700049
 30
0.0
 11
-14.267766848199949
 21
7.4999998323000483
 31
0.0
  0
LINE
  5
1E8B
  8
0
  6
CONTINUOUS
 62
     7
 10
-14.267766848199949
 20
7.4999998323000483
 30
0.0
 11
-19.34600064959605
 21
7.4999998323000483
 31
0.0
  0
ARC
  5
1E8C
  8
0
  6
CONTINUOUS
 62
     7
 10
-19.346410161499929
 20
7.000000000000056
 30
0.0
 40
0.5
 50
89.953073386603094
 51
120.0000000000001
  0
LINE
  5
1E8D
  8
0
  6
CONTINUOUS
 62
     7
 10
-19.596410915300051
 20
7.4330125935000382
 30
0.0
 11
-19.999999552999949
 21
7.1999998763000397
 31
0.0
  0
LINE
  5
1E8E
  8
0
  6
CONTINUOUS
 62
     7
 10
-19.999999552999949
 20
7.1999998763000397
 30
0.0
 11
-20.403590053299951
 21
7.4330125935000382
 31
0.0
  0
ARC
  5
1E8F
  8
0
  6
CONTINUOUS
 62
     7
 10
-20.653589838499929
 20
7.000000000000056
 30
0.0
 40
0.5
 50
59.999999999999858
 51
105.00000000000109
  0
LINE
  5
1E90
  8
0
  6
CONTINUOUS
 62
     7
 10
-20.78299969439993
 20
7.4829626828000348
 30
0.0
 11
-21.752413362299951
 21
7.2232093662000381
 31
0.0
  0
LINE
  5
1E91
  8
0
  6
CONTINUOUS
 62
     7
 10
-21.752413362299951
 20
7.2232093662000381
 30
0.0
 11
-23.499999195299932
 21
7.4999998323000483
 31
0.0
  0
LINE
  5
1E92
  8
0
  6
CONTINUOUS
 62
     7
 10
-23.499999195299932
 20
7.4999998323000483
 30
0.0
 11
-25.73223225769993
 21
7.4999998323000483
 31
0.0
  0
LINE
  5
1E93
  8
0
  6
CONTINUOUS
 62
     7
 10
-25.73223225769993
 20
7.4999998323000483
 30
0.0
 11
-29.999999329499929
 21
11.767767369700049
 31
0.0
  0
LINE
  5
1E94
  8
0
  6
CONTINUOUS
 62
     7
 10
-29.999999329499929
 20
11.767767369700049
 30
0.0
 11
-29.999999329499929
 21
14.499999582700029
 31
0.0
  0
LINE
  5
1E95
  8
0
  6
CONTINUOUS
 62
     7
 10
-29.999999329499929
 20
14.499999582700029
 30
0.0
 11
-25.299999862899941
 21
14.499999582700029
 31
0.0
  0
ARC
  5
1E96
  8
0
  6
CONTINUOUS
 62
     7
 10
-25.29999999999994
 20
14.80000000000005
 30
0.0
 40
0.3000000000000043
 50
270.0
 51
0.0
  0
ARC
  5
1E97
  8
0
  6
CONTINUOUS
 62
     7
 10
-25.29999999999994
 20
19.70000000000006
 30
0.0
 40
0.3000000000000114
 50
0.0
 51
90.0
  0
LINE
  5
1E98
  8
0
  6
CONTINUOUS
 62
     7
 10
-25.299999862899941
 20
19.999999552900029
 30
0.0
 11
-37.000000476799933
 21
19.999999552900029
 31
0.0
  0
ARC
  5
1E99
  8
0
  6
CONTINUOUS
 62
     7
 10
-36.999999999999943
 20
17.000000000000039
 30
0.0
 40
3.0000000000000031
 50
90.0
 51
180.0
  0
LINE
  5
1E9A
  8
0
  6
CONTINUOUS
 62
     7
 10
-39.999999105899931
 20
17.000000923799931
 30
0.0
 11
-39.999999105899931
 21
5.2999998443000322
 31
0.0
  0
ARC
  5
1E9B
  8
0
  6
CONTINUOUS
 62
     7
 10
-39.699999999999953
 20
5.300000000000054
 30
0.0
 40
0.3000000000000043
 50
180.0
 51
270.0
  0
ARC
  5
1E9C
  8
0
  6
CONTINUOUS
 62
     7
 10
-34.79999999999994
 20
5.300000000000054
 30
0.0
 40
0.2999999999999972
 50
270.0
 51
0.0
  0
LINE
  5
1E9D
  8
0
  6
CONTINUOUS
 62
     7
 10
-34.499999135699937
 20
5.2999998443000322
 30
0.0
 11
-34.499999135699937
 21
9.9999997765000472
 31
0.0
  0
LINE
  5
1E9E
  8
0
  6
CONTINUOUS
 62
     7
 10
-34.499999135699937
 20
9.9999997765000472
 30
0.0
 11
-31.767766922699941
 21
9.9999997765000472
 31
0.0
  0
LINE
  5
1E9F
  8
0
  6
CONTINUOUS
 62
     7
 10
-31.767766922699941
 20
9.9999997765000472
 30
0.0
 11
-27.499999850999931
 21
5.7322331704000362
 31
0.0
  0
LINE
  5
1EA0
  8
0
  6
CONTINUOUS
 62
     7
 10
-27.499999850999931
 20
5.7322331704000362
 30
0.0
 11
-27.499999850999931
 21
0.6539758436625363
 31
0.0
  0
ARC
  5
1EA1
  8
0
  6
CONTINUOUS
 62
     7
 10
-26.99999999999994
 20
0.6535898385000394
 30
0.0
 40
0.4999999999999928
 50
179.95576706383611
 51
210.00000000000119
  0
LINE
  5
1EA2
  8
0
  6
CONTINUOUS
 62
     7
 10
-27.433013543499928
 20
0.4035898309000459
 30
0.0
 11
-27.200000360599951
 21
0.0000000000000568
 31
0.0
  0
LINE
  5
1EA3
  8
0
  6
CONTINUOUS
 62
     7
 10
-27.200000360599951
 20
0.0000000000000568
 30
0.0
 11
-27.433013543499928
 21
-0.4035898309999482
 31
0.0
  0
ARC
  5
1EA4
  8
0
  6
CONTINUOUS
 62
     7
 10
-26.99999999999994
 20
-0.6535898384999542
 30
0.0
 40
0.5
 50
149.99999999999869
 51
195.0000000000004
  0
LINE
  5
1EA5
  8
0
  6
CONTINUOUS
 62
     7
 10
-27.482962235799949
 20
-0.7829993846999628
 30
0.0
 11
-27.223208919199951
 21
-1.752412761599941
 31
0.0
  0
LINE
  5
1EA6
  8
0
  6
CONTINUOUS
 62
     7
 10
-27.223208919199951
 20
-1.752412761599941
 30
0.0
 11
-27.499999850999931
 21
-3.5000001080999681
 31
0.0
  0
LINE
  5
1EA7
  8
0
  6
CONTINUOUS
 62
     7
 10
-27.499999850999931
 20
-3.5000001080999681
 30
0.0
 11
-27.499999850999931
 21
-5.7322331703999652
 31
0.0
  0
LINE
  5
1EA8
  8
0
  6
CONTINUOUS
 62
     7
 10
-27.499999850999931
 20
-5.7322331703999652
 30
0.0
 11
-31.767766922699941
 21
-9.9999997764999602
 31
0.0
  0
LINE
  5
1EA9
  8
0
  6
CONTINUOUS
 62
     7
 10
-31.767766922699941
 20
-9.9999997764999602
 30
0.0
 11
-34.499999135699937
 21
-9.9999997764999602
 31
0.0
  0
LINE
  5
1EAA
  8
0
  6
CONTINUOUS
 62
     7
 10
-34.499999135699937
 20
-9.9999997764999602
 30
0.0
 11
-34.499999135699937
 21
-5.2999998442999461
 31
0.0
  0
ARC
  5
1EAB
  8
0
  6
CONTINUOUS
 62
     7
 10
-34.79999999999994
 20
-5.2999999999999536
 30
0.0
 40
0.3000000000000043
 50
0.0
 51
90.0
  0
ARC
  5
1EAC
  8
0
  6
CONTINUOUS
 62
     7
 10
-39.699999999999953
 20
-5.2999999999999536
 30
0.0
 40
0.3000000000000114
 50
90.0
 51
180.0
  0
LINE
  5
1EAD
  8
0
  6
CONTINUOUS
 62
     7
 10
-39.999999105899931
 20
-5.2999998442999461
 30
0.0
 11
-39.999999105899931
 21
-17.00000092390006
 31
0.0
  0
ARC
  5
1EAE
  8
0
  6
CONTINUOUS
 62
     7
 10
-36.999999999999943
 20
-16.99999999999994
 30
0.0
 40
3.0000000000000031
 50
180.0
 51
270.0
  0
LINE
  5
1EAF
  8
0
  6
CONTINUOUS
 62
     7
 10
-37.000000476799933
 20
-19.99999955299997
 30
0.0
 11
-25.299999862899941
 21
-19.99999955299997
 31
0.0
  0
ARC
  5
1EB0
  8
0
  6
CONTINUOUS
 62
     7
 10
-25.29999999999994
 20
-19.699999999999971
 30
0.0
 40
0.3000000000000007
 50
270.0
 51
0.0
  0
ARC
  5
1EB1
  8
0
  6
CONTINUOUS
 62
     7
 10
-25.29999999999994
 20
-14.799999999999949
 30
0.0
 40
0.2999999999999972
 50
0.0
 51
90.0
  0
LINE
  5
1EB2
  8
0
  6
CONTINUOUS
 62
     7
 10
-25.299999862899941
 20
-14.49999958279996
 30
0.0
 11
-29.999999329499929
 21
-14.49999958279996
 31
0.0
  0
LINE
  5
1EB3
  8
0
  6
CONTINUOUS
 62
     7
 10
-29.999999329499929
 20
-14.49999958279996
 30
0.0
 11
-29.999999329499929
 21
-11.767767369799969
 31
0.0
  0
LINE
  5
1EB4
  8
0
  6
CONTINUOUS
 62
     7
 10
-29.999999329499929
 20
-11.767767369799969
 30
0.0
 11
-25.73223225769993
 21
-7.4999998324000643
 31
0.0
  0
LINE
  5
1EB5
  8
0
  6
CONTINUOUS
 62
     7
 10
-25.73223225769993
 20
-7.4999998324000643
 30
0.0
 11
-20.653999228105931
 21
-7.4999998324000643
 31
0.0
  0
ARC
  5
1EB6
  8
0
  6
CONTINUOUS
 62
     7
 10
-20.653589838499929
 20
-6.9999999999999432
 30
0.0
 40
0.5
 50
269.95308740342648
 51
300.00000000000011
  0
LINE
  5
1EB7
  8
0
  6
CONTINUOUS
 62
     7
 10
-20.403590053299951
 20
-7.4330125935999538
 30
0.0
 11
-19.999999552999949
 21
-7.1999998762999553
 31
0.0
  0
LINE
  5
1EB8
  8
0
  6
CONTINUOUS
 62
     7
 10
-19.999999552999949
 20
-7.1999998762999553
 30
0.0
 11
-19.596410915300051
 21
-7.4330125935999538
 31
0.0
  0
ARC
  5
1EB9
  8
0
  6
CONTINUOUS
 62
     7
 10
-19.346410161499929
 20
-6.9999999999999432
 30
0.0
 40
0.5
 50
239.99999999999989
 51
285.00000000000119
  0
LINE
  5
1EBA
  8
0
  6
CONTINUOUS
 62
     7
 10
-19.217001274199959
 20
-7.4829626828999523
 30
0.0
 11
-18.24758760629993
 21
-7.2232093661999519
 31
0.0
  0
LINE
  5
1EBB
  8
0
  6
CONTINUOUS
 62
     7
 10
-18.24758760629993
 20
-7.2232093661999519
 30
0.0
 11
-16.499999910599939
 21
-7.4999998324000643
 31
0.0
  0
LINE
  5
1EBC
  8
0
  6
CONTINUOUS
 62
     7
 10
-16.499999910599939
 20
-7.4999998324000643
 30
0.0
 11
-14.267766848199949
 21
-7.4999998324000643
 31
0.0
  0
LINE
  5
1EBD
  8
0
  6
CONTINUOUS
 62
     7
 10
-14.267766848199949
 20
-7.4999998324000643
 30
0.0
 11
-9.9999997764999478
 21
-11.767767369799969
 31
0.0
  0
LINE
  5
1EBE
  8
0
  6
CONTINUOUS
 62
     7
 10
-9.9999997764999478
 20
-11.767767369799969
 30
0.0
 11
-9.9999997764999478
 21
-14.49999958279996
 31
0.0
  0
LINE
  5
1EBF
  8
0
  6
CONTINUOUS
 62
     7
 10
-9.9999997764999478
 20
-14.49999958279996
 30
0.0
 11
-14.700000174399939
 21
-14.49999958279996
 31
0.0
  0
ARC
  5
1EC0
  8
0
  6
CONTINUOUS
 62
     7
 10
-14.69999999999996
 20
-14.799999999999949
 30
0.0
 40
0.3000000000000043
 50
90.0
 51
180.0
  0
ARC
  5
1EC1
  8
0
  6
CONTINUOUS
 62
     7
 10
-14.69999999999996
 20
-19.699999999999971
 30
0.0
 40
0.3000000000000043
 50
180.0
 51
270.0
  0
LINE
  5
1EC2
  8
0
  6
CONTINUOUS
 62
     7
 10
-14.700000174399939
 20
-19.99999955299997
 30
0.0
 11
14.70000017429996
 21
-19.99999955299997
 31
0.0
  0
LINE
  5
1EC3
  8
0
  6
CONTINUOUS
 62
     7
 10
6.5000001341000759
 20
-17.500000074499951
 30
0.0
 11
-6.5000001340999338
 21
-17.500000074499951
 31
0.0
  0
ARC
  5
1EC4
  8
0
  6
CONTINUOUS
 62
     7
 10
-6.4999999999999432
 20
-16.49999999999994
 30
0.0
 40
1.0000000000000011
 50
180.0
 51
270.0
  0
LINE
  5
1EC5
  8
0
  6
CONTINUOUS
 62
     7
 10
-7.4999998323999364
 20
-16.499999910599971
 30
0.0
 11
-7.4999998323999364
 21
-12.13639602069996
 31
0.0
  0
LINE
  5
1EC6
  8
0
  6
CONTINUOUS
 62
     7
 10
-7.7928933315000393
 20
-11.42928935589995
 30
0.0
 11
-12.75710668419995
 21
-6.465075537599958
 31
0.0
  0
LINE
  5
1EC7
  8
0
  6
CONTINUOUS
 62
     7
 10
-13.050000183299939
 20
-5.7579688727999487
 30
0.0
 11
-13.050000183299939
 21
-2.3690110537999649
 31
0.0
  0
ARC
  5
1EC8
  8
0
  6
CONTINUOUS
 62
     7
 10
-13.44999999999996
 20
-2.369011134499956
 30
0.0
 40
0.4000000000000057
 50
0.0
 51
67.29847774620039
  0
ARC
  5
1EC9
  8
0
  6
CONTINUOUS
 62
     7
 10
-13.141255557999919
 20
-1.630988865499958
 30
0.0
 40
0.3999999999999999
 50
166.6236742839001
 51
247.2984777462004
  0
ARC
  5
1ECA
  8
0
  6
CONTINUOUS
 62
     7
 10
-19.99999999999994
 20
0.0000000000000568
 30
0.0
 40
6.649999999999987
 50
346.62367428390019
 51
13.37632571609981
  0
ARC
  5
1ECB
  8
0
  6
CONTINUOUS
 62
     7
 10
-13.141255557999919
 20
1.6309888655000431
 30
0.0
 40
0.4000000000000015
 50
112.7015222537996
 51
193.37632571609981
  0
ARC
  5
1ECC
  8
0
  6
CONTINUOUS
 62
     7
 10
-13.44999999999996
 20
2.3690111345000409
 30
0.0
 40
0.4000000000000057
 50
292.70152225379951
 51
0.0
  0
LINE
  5
1ECD
  8
0
  6
CONTINUOUS
 62
     7
 10
-13.050000183299939
 20
2.369011053800036
 30
0.0
 11
-13.050000183299939
 21
5.757968872800034
 31
0.0
  0
LINE
  5
1ECE
  8
0
  6
CONTINUOUS
 62
     7
 10
-12.75710668419995
 20
6.4650755375000548
 30
0.0
 11
-7.7928933315000393
 21
11.42928935590005
 31
0.0
  0
LINE
  5
1ECF
  8
0
  6
CONTINUOUS
 62
     7
 10
-7.4999998323999364
 20
12.13639602060003
 30
0.0
 11
-7.4999998323999364
 21
16.499999910600039
 31
0.0
  0
ARC
  5
1ED0
  8
0
  6
CONTINUOUS
 62
     7
 10
-6.4999999999999432
 20
16.500000000000039
 30
0.0
 40
1.0000000000000071
 50
90.0
 51
180.0
  0
LINE
  5
1ED1
  8
0
  6
CONTINUOUS
 62
     7
 10
-6.5000001340999338
 20
17.500000074500051
 30
0.0
 11
6.5000001341000759
 21
17.500000074500051
 31
0.0
  0
LINE
  5
1ED2
  8
0
  6
CONTINUOUS
 62
     7
 10
14.70000017429996
 20
19.999999552900029
 30
0.0
 11
-14.700000174399939
 21
19.999999552900029
 31
0.0
  0
LINE
  5
1EFD
  8
0
  6
CONTINUOUS
 62
     7
 10
-5.4999999999999432
 20
-17.49999999999994
 30
0.0
 11
-5.2621985503343458
 21
-17.49999999999994
 31
0.0
  0
LINE
  5
1EFE
  8
0
  6
CONTINUOUS
 62
     7
 10
-5.4999999999999432
 20
-19.99999955299997
 30
0.0
 11
-5.2621985503343458
 21
-19.99999955299997
 31
0.0
  0
LINE
  5
1F0F
  8
0
  6
CONTINUOUS
 62
     7
 10
-14.99999999999994
 20
18.274695076595329
 30
0.0
 11
-14.99999999999994
 21
19.70000000000006
 31
0.0
  0
LINE
  5
1F10
  8
0
  6
CONTINUOUS
 62
     7
 10
-14.99999999999994
 20
16.225304923404629
 30
0.0
 11
-14.99999999999994
 21
14.80000000000005
 31
0.0
  0
ARC
  5
1F11
  8
0
  6
CONTINUOUS
 62
     7
 10
-15.49999999999994
 20
17.250000000000039
 30
0.0
 40
1.0
 50
307.9798724448666
 51
52.020127555131587
  0
ARC
  5
1F12
  8
0
  6
CONTINUOUS
 62
     7
 10
-14.69999999999996
 20
16.225304923404629
 30
0.0
 40
0.3
 50
127.9798724448666
 51
180.0
  0
ARC
  5
1F13
  8
0
  6
CONTINUOUS
 62
     7
 10
-14.69999999999996
 20
18.274695076595329
 30
0.0
 40
0.3
 50
180.0
 51
232.02012755513209
  0
LINE
  5
1F14
  8
0
  6
CONTINUOUS
 62
     7
 10
-24.99999999999995
 20
16.225304923404629
 30
0.0
 11
-24.99999999999995
 21
14.79999999999994
 31
0.0
  0
LINE
  5
1F15
  8
0
  6
CONTINUOUS
 62
     7
 10
-24.99999999999995
 20
18.274695076595329
 30
0.0
 11
-24.99999999999995
 21
19.70000000000006
 31
0.0
  0
ARC
  5
1F16
  8
0
  6
CONTINUOUS
 62
     7
 10
-24.49999999999994
 20
17.250000000000039
 30
0.0
 40
1.0
 50
127.97987244486841
 51
232.02012755513161
  0
ARC
  5
1F17
  8
0
  6
CONTINUOUS
 62
     7
 10
-25.29999999999994
 20
16.225304923404629
 30
0.0
 40
0.3
 50
0.0
 51
52.020127555133371
  0
ARC
  5
1F18
  8
0
  6
CONTINUOUS
 62
     7
 10
-25.29999999999994
 20
18.274695076595329
 30
0.0
 40
0.3
 50
307.9798724448666
 51
0.0
  0
LINE
  5
1F19
  8
0
  6
CONTINUOUS
 62
     7
 10
-38.27469507659525
 20
5.000000000000056
 30
0.0
 11
-39.699999999999953
 21
5.000000000000056
 31
0.0
  0
LINE
  5
1F1A
  8
0
  6
CONTINUOUS
 62
     7
 10
-36.225304923404643
 20
5.000000000000056
 30
0.0
 11
-34.79999999999994
 21
5.000000000000056
 31
0.0
  0
ARC
  5
1F1B
  8
0
  6
CONTINUOUS
 62
     7
 10
-37.249999999999943
 20
4.500000000000056
 30
0.0
 40
1.0
 50
37.979872444867269
 51
142.02012755513269
  0
ARC
  5
1F1C
  8
0
  6
CONTINUOUS
 62
     7
 10
-36.225304923404643
 20
5.300000000000054
 30
0.0
 40
0.3
 50
217.9798724448672
 51
270.0
  0
ARC
  5
1F1D
  8
0
  6
CONTINUOUS
 62
     7
 10
-38.27469507659525
 20
5.300000000000054
 30
0.0
 40
0.3
 50
270.0
 51
322.02012755513272
  0
LINE
  5
1F1E
  8
0
  6
CONTINUOUS
 62
     7
 10
-36.225304923404643
 20
-4.9999999999999432
 30
0.0
 11
-34.79999999999994
 21
-4.9999999999999432
 31
0.0
  0
LINE
  5
1F1F
  8
0
  6
CONTINUOUS
 62
     7
 10
-38.27469507659525
 20
-4.9999999999999432
 30
0.0
 11
-39.699999999999953
 21
-4.9999999999999432
 31
0.0
  0
ARC
  5
1F20
  8
0
  6
CONTINUOUS
 62
     7
 10
-37.249999999999943
 20
-4.4999999999999432
 30
0.0
 40
1.0
 50
217.9798724448672
 51
322.02012755513272
  0
ARC
  5
1F21
  8
0
  6
CONTINUOUS
 62
     7
 10
-36.225304923404643
 20
-5.2999999999999536
 30
0.0
 40
0.3
 50
90.0
 51
142.02012755513269
  0
ARC
  5
1F22
  8
0
  6
CONTINUOUS
 62
     7
 10
-38.27469507659525
 20
-5.2999999999999536
 30
0.0
 40
0.3
 50
37.979872444867269
 51
90.0
  0
LINE
  5
1F23
  8
0
  6
CONTINUOUS
 62
     7
 10
-25.000000000000039
 20
-18.27469507659525
 30
0.0
 11
-25.000000000000039
 21
-19.699999999999928
 31
0.0
  0
LINE
  5
1F24
  8
0
  6
CONTINUOUS
 62
     7
 10
-25.000000000000039
 20
-16.225304923404661
 30
0.0
 11
-25.000000000000039
 21
-14.799999999999949
 31
0.0
  0
ARC
  5
1F25
  8
0
  6
CONTINUOUS
 62
     7
 10
-24.49999999999994
 20
-17.24999999999994
 30
0.0
 40
1.0
 50
127.9798724448666
 51
232.0201275551334
  0
ARC
  5
1F26
  8
0
  6
CONTINUOUS
 62
     7
 10
-25.29999999999994
 20
-16.225304923404661
 30
0.0
 40
0.3
 50
307.9798724448666
 51
0.0
  0
ARC
  5
1F27
  8
0
  6
CONTINUOUS
 62
     7
 10
-25.29999999999994
 20
-18.27469507659525
 30
0.0
 40
0.3
 50
0.0
 51
52.020127555133371
  0
LINE
  5
1F28
  8
0
  6
CONTINUOUS
 62
     7
 10
-14.99999999999994
 20
-16.225304923404661
 30
0.0
 11
-14.99999999999994
 21
-14.799999999999949
 31
0.0
  0
LINE
  5
1F29
  8
0
  6
CONTINUOUS
 62
     7
 10
-14.99999999999994
 20
-18.274695076595361
 30
0.0
 11
-14.99999999999994
 21
-19.699999999999939
 31
0.0
  0
ARC
  5
1F2A
  8
0
  6
CONTINUOUS
 62
     7
 10
-15.50000000000003
 20
-17.24999999999994
 30
0.0
 40
1.0
 50
307.9798724448666
 51
52.020127555133371
  0
ARC
  5
1F2B
  8
0
  6
CONTINUOUS
 62
     7
 10
-14.69999999999996
 20
-16.225304923404661
 30
0.0
 40
0.3
 50
180.0
 51
232.0201275551334
  0
ARC
  5
1F2C
  8
0
  6
CONTINUOUS
 62
     7
 10
-14.69999999999996
 20
-18.274695076595361
 30
0.0
 40
0.3
 50
127.9798724448666
 51
180.0
  0
LINE
  5
1F2D
  8
0
  6
CONTINUOUS
 62
     7
 10
14.999999999999829
 20
18.274695076595329
 30
0.0
 11
14.999999999999829
 21
19.700000000000141
 31
0.0
  0
LINE
  5
1F2E
  8
0
  6
CONTINUOUS
 62
     7
 10
14.999999999999829
 20
16.22530492340475
 30
0.0
 11
14.99999999999997
 21
14.800000000000139
 31
0.0
  0
ARC
  5
1F2F
  8
0
  6
CONTINUOUS
 62
     7
 10
15.499999999999741
 20
17.250000000000149
 30
0.0
 40
1.0
 50
127.9798724448666
 51
232.02012755513391
  0
ARC
  5
1F30
  8
0
  6
CONTINUOUS
 62
     7
 10
14.69999999999999
 20
16.22530492340475
 30
0.0
 40
0.3
 50
0.0
 51
52.020127555133371
  0
ARC
  5
1F31
  8
0
  6
CONTINUOUS
 62
     7
 10
14.69999999999999
 20
18.274695076595329
 30
0.0
 40
0.3
 50
307.9798724448666
 51
0.0
  0
LINE
  5
1F32
  8
0
  6
CONTINUOUS
 62
     7
 10
24.999999999999751
 20
16.225304923404831
 30
0.0
 11
24.999999999999751
 21
14.80000000000005
 31
0.0
  0
LINE
  5
1F33
  8
0
  6
CONTINUOUS
 62
     7
 10
24.999999999999751
 20
18.274695076595329
 30
0.0
 11
24.999999999999751
 21
19.700000000000141
 31
0.0
  0
ARC
  5
1F34
  8
0
  6
CONTINUOUS
 62
     7
 10
24.499999999999829
 20
17.250000000000149
 30
0.0
 40
1.0
 50
307.9798724448666
 51
52.020127555133371
  0
ARC
  5
1F35
  8
0
  6
CONTINUOUS
 62
     7
 10
25.299999999999759
 20
16.225304923404831
 30
0.0
 40
0.3
 50
127.9798724448666
 51
180.0
  0
ARC
  5
1F36
  8
0
  6
CONTINUOUS
 62
     7
 10
25.299999999999759
 20
18.274695076595329
 30
0.0
 40
0.3
 50
180.0
 51
232.02012755513391
  0
LINE
  5
1F37
  8
0
  6
CONTINUOUS
 62
     7
 10
38.274695076595243
 20
5.0000000000002407
 30
0.0
 11
39.699999999999989
 21
5.0000000000002407
 31
0.0
  0
LINE
  5
1F38
  8
0
  6
CONTINUOUS
 62
     7
 10
36.225304923404678
 20
5.0000000000002407
 30
0.0
 11
34.79999999999999
 21
5.0000000000001421
 31
0.0
  0
ARC
  5
1F39
  8
0
  6
CONTINUOUS
 62
     7
 10
37.249999999999972
 20
4.5000000000002407
 30
0.0
 40
1.0
 50
37.979872444867269
 51
142.02012755513269
  0
ARC
  5
1F3A
  8
0
  6
CONTINUOUS
 62
     7
 10
36.225304923404678
 20
5.3000000000001393
 30
0.0
 40
0.3
 50
270.0
 51
322.02012755513272
  0
ARC
  5
1F3B
  8
0
  6
CONTINUOUS
 62
     7
 10
38.274695076595243
 20
5.3000000000002379
 30
0.0
 40
0.3
 50
217.9798724448672
 51
270.0
  0
LINE
  5
1F3C
  8
0
  6
CONTINUOUS
 62
     7
 10
36.225304923404678
 20
-4.9999999999997584
 30
0.0
 11
34.79999999999999
 21
-4.9999999999997584
 31
0.0
  0
LINE
  5
1F3D
  8
0
  6
CONTINUOUS
 62
     7
 10
38.27469507659535
 20
-4.9999999999997584
 30
0.0
 11
39.700000000000053
 21
-4.9999999999997584
 31
0.0
  0
ARC
  5
1F3E
  8
0
  6
CONTINUOUS
 62
     7
 10
37.249999999999972
 20
-4.4999999999997584
 30
0.0
 40
1.0
 50
217.9798724448672
 51
322.02012755513272
  0
ARC
  5
1F3F
  8
0
  6
CONTINUOUS
 62
     7
 10
36.225304923404678
 20
-5.2999999999997547
 30
0.0
 40
0.3
 50
37.979872444867269
 51
90.0
  0
ARC
  5
1F40
  8
0
  6
CONTINUOUS
 62
     7
 10
38.27469507659535
 20
-5.2999999999997547
 30
0.0
 40
0.3
 50
90.0
 51
142.02012755513269
  0
LINE
  5
1F41
  8
0
  6
CONTINUOUS
 62
     7
 10
25.000000000000171
 20
-18.274695076595162
 30
0.0
 11
25.000000000000171
 21
-19.69999999999979
 31
0.0
  0
LINE
  5
1F42
  8
0
  6
CONTINUOUS
 62
     7
 10
25.000000000000171
 20
-16.225304923404451
 30
0.0
 11
25.00000000000006
 21
-14.79999999999985
 31
0.0
  0
ARC
  5
1F43
  8
0
  6
CONTINUOUS
 62
     7
 10
24.500000000000171
 20
-17.249999999999861
 30
0.0
 40
1.0
 50
307.97987244486609
 51
52.020127555133861
  0
ARC
  5
1F44
  8
0
  6
CONTINUOUS
 62
     7
 10
25.30000000000004
 20
-16.225304923404451
 30
0.0
 40
0.3
 50
180.0
 51
232.02012755513391
  0
ARC
  5
1F45
  8
0
  6
CONTINUOUS
 62
     7
 10
25.30000000000004
 20
-18.274695076595162
 30
0.0
 40
0.3
 50
127.9798724448661
 51
180.0
  0
LINE
  5
1F46
  8
0
  6
CONTINUOUS
 62
     7
 10
15.00000000000006
 20
-16.225304923404561
 30
0.0
 11
15.00000000000006
 21
-14.79999999999985
 31
0.0
  0
LINE
  5
1F47
  8
0
  6
CONTINUOUS
 62
     7
 10
15.00000000000014
 20
-18.27469507659525
 30
0.0
 11
15.00000000000014
 21
-19.699999999999871
 31
0.0
  0
ARC
  5
1F48
  8
0
  6
CONTINUOUS
 62
     7
 10
15.50000000000006
 20
-17.24999999999994
 30
0.0
 40
1.0
 50
127.9798724448661
 51
232.02012755513391
  0
ARC
  5
1F49
  8
0
  6
CONTINUOUS
 62
     7
 10
14.70000000000004
 20
-16.225304923404561
 30
0.0
 40
0.3
 50
307.97987244486609
 51
0.0
  0
ARC
  5
1F4A
  8
0
  6
CONTINUOUS
 62
     7
 10
14.700000000000159
 20
-18.27469507659525
 30
0.0
 40
0.3
 50
0.0
 51
52.020127555133861
  0
LINE
  5
1F51
  8
0
  6
CONTINUOUS
 62
     7
 10
74.82264936373258
 20
20.000000000000039
 30
0.0
 11
124.82264936373249
 21
20.000000000000039
 31
0.0
  0
LINE
  5
1F52
  8
0
  6
CONTINUOUS
 62
     7
 10
74.82264936373258
 20
5.000000000000056
 30
0.0
 11
124.82264936373249
 21
5.000000000000056
 31
0.0
  0
LINE
  5
1F53
  8
0
  6
CONTINUOUS
 62
     7
 10
74.82264936373258
 20
3.5000001080000369
 30
0.0
 11
124.82264936373249
 21
3.5000001080000369
 31
0.0
  0
LINE
  5
1F54
  8
0
  6
CONTINUOUS
 62
     7
 10
74.82264936373258
 20
1.7524127615000531
 30
0.0
 11
124.82264936373249
 21
1.7524127615000531
 31
0.0
  0
LINE
  5
1F55
  8
0
  6
CONTINUOUS
 62
     7
 10
74.82264936373258
 20
0.0000000000000568
 30
0.0
 11
124.82264936373249
 21
0.0000000000000568
 31
0.0
  0
LINE
  5
1F56
  8
0
  6
CONTINUOUS
 62
     7
 10
74.82264936373258
 20
-4.9999999999999432
 30
0.0
 11
124.82264936373249
 21
-4.9999999999999432
 31
0.0
  0
LINE
  5
1F57
  8
0
  6
CONTINUOUS
 62
     7
 10
74.822649363732566
 20
-19.99999999999994
 30
0.0
 11
124.82264936373249
 21
-19.99999999999994
 31
0.0
  0
LINE
  5
1F58
  8
0
  6
CONTINUOUS
 62
     7
 10
74.82264936373258
 20
20.000000000000039
 30
0.0
 11
74.822649363732566
 21
-19.99999999999994
 31
0.0
  0
LINE
  5
1F59
  8
0
  6
CONTINUOUS
 62
     7
 10
124.82264936373249
 20
20.000000000000039
 30
0.0
 11
124.82264936373249
 21
-19.99999999999994
 31
0.0
  0
LINE
  5
1F5A
  8
CENTER
  6
CENTER
 62
     1
 10
72.82264936373258
 20
0.0000000000000568
 30
0.0
 11
126.82264936373249
 21
0.0000000000000568
 31
0.0
  0
LINE
  5
1F5B
  8
CENTER
  6
CENTER
 62
     1
 10
20.00000000000005
 20
-21.999999999999989
 30
0.0
 11
20.00000000000006
 21
22.000000000000071
 31
0.0
  0
LINE
  5
1F5C
  8
CENTER
  6
CENTER
 62
     1
 10
41.999999105900059
 20
0.0000000000000567
 30
0.0
 11
-41.999999999999943
 21
0.0000000000000644
 31
0.0
  0
LINE
  5
1F5D
  8
CENTER
  6
CENTER
 62
     1
 10
-19.99999999999995
 20
-21.999999999999989
 30
0.0
 11
-19.99999999999994
 21
22.000000000000071
 31
0.0
  0
INSERT
  5
1F5F
  8
0
  6
CONTINUOUS
 62
     7
  2
*U20
 10
0.0
 20
0.0
 30
0.0
  0
INSERT
  5
1F60
  8
0
  6
CONTINUOUS
 62
     7
  2
*U21
 10
0.0
 20
0.0
 30
0.0
  0
CIRCLE
  5
1FAB
  8
0
  6
PHANTOM
 62
     3
 10
-19.999999999999911
 20
0.0000000000000581
 30
0.0
 40
5.25
  0
CIRCLE
  5
1FB3
  8
0
  6
PHANTOM
 62
     3
 10
20.000000000000082
 20
0.0000000000000581
 30
0.0
 40
5.25
  0
ENDSEC
  0
EOF
