  0
SECTION
  2
HEADER
  9
$ACADVER
  1
AC1009
  9
$INSBASE
 10
0.0
 20
0.0
 30
0.0
  9
$EXTMIN
 10
-104.346950049174
 20
-66.07626425231075
 30
0.0
  9
$EXTMAX
 10
162.2982749932431
 20
95.783995971408785
 30
0.0
  9
$LIMMIN
 10
0.0
 20
0.0
  9
$LIMMAX
 10
420.0
 20
297.0
  9
$ORTHOMODE
 70
     0
  9
$REGENMODE
 70
     1
  9
$FILLMODE
 70
     1
  9
$QTEXTMODE
 70
     0
  9
$MIRRTEXT
 70
     0
  9
$DRAGMODE
 70
     2
  9
$LTSCALE
 40
1.0
  9
$OSMODE
 70
  2109
  9
$ATTMODE
 70
     1
  9
$TEXTSIZE
 40
3.0
  9
$TRACEWID
 40
1.0
  9
$TEXTSTYLE
  7
STANDARD
  9
$CLAYER
  8
0
  9
$CELTYPE
  6
CONTINUOUS
  9
$CECOLOR
 62
     7
  9
$DIMSCALE
 40
1.0
  9
$DIMASZ
 40
2.5
  9
$DIMEXO
 40
0.625
  9
$DIMDLI
 40
3.75
  9
$DIMRND
 40
0.0
  9
$DIMDLE
 40
0.0
  9
$DIMEXE
 40
1.25
  9
$DIMTP
 40
0.0
  9
$DIMTM
 40
0.0
  9
$DIMTXT
 40
2.5
  9
$DIMCEN
 40
2.5
  9
$DIMTSZ
 40
0.0
  9
$DIMTOL
 70
     0
  9
$DIMLIM
 70
     0
  9
$DIMTIH
 70
     0
  9
$DIMTOH
 70
     0
  9
$DIMSE1
 70
     0
  9
$DIMSE2
 70
     0
  9
$DIMTAD
 70
     1
  9
$DIMZIN
 70
     8
  9
$DIMBLK
  1
OPEN30
  9
$DIMASO
 70
     1
  9
$DIMSHO
 70
     1
  9
$DIMPOST
  1

  9
$DIMAPOST
  1

  9
$DIMALT
 70
     0
  9
$DIMALTD
 70
     3
  9
$DIMALTF
 40
0.03937007874016
  9
$DIMLFAC
 40
1.0
  9
$DIMTOFL
 70
     1
  9
$DIMTVP
 40
0.0
  9
$DIMTIX
 70
     0
  9
$DIMSOXD
 70
     0
  9
$DIMSAH
 70
     0
  9
$DIMBLK1
  1

  9
$DIMBLK2
  1

  9
$DIMSTYLE
  2
MISUMI
  9
$DIMCLRD
 70
   137
  9
$DIMCLRE
 70
   137
  9
$DIMCLRT
 70
   137
  9
$DIMTFAC
 40
1.0
  9
$DIMGAP
 40
0.625
  9
$LUNITS
 70
     2
  9
$LUPREC
 70
     2
  9
$SKETCHINC
 40
1.0
  9
$FILLETRAD
 40
0.0
  9
$AUNITS
 70
     0
  9
$AUPREC
 70
     0
  9
$MENU
  1
.
  9
$ELEVATION
 40
0.0
  9
$PELEVATION
 40
0.0
  9
$THICKNESS
 40
0.0
  9
$LIMCHECK
 70
     0
  9
$BLIPMODE
 70
     0
  9
$CHAMFERA
 40
0.5
  9
$CHAMFERB
 40
0.5
  9
$SKPOLY
 70
     0
  9
$TDCREATE
 40
2455135.5720697111
  9
$TDUPDATE
 40
2455656.6102082762
  9
$TDINDWG
 40
0.0782240394
  9
$TDUSRTIMER
 40
0.0782238542
  9
$USRTIMER
 70
     1
  9
$ANGBASE
 50
0.0
  9
$ANGDIR
 70
     0
  9
$PDMODE
 70
    35
  9
$PDSIZE
 40
0.0
  9
$PLINEWID
 40
0.0
  9
$COORDS
 70
     1
  9
$SPLFRAME
 70
     0
  9
$SPLINETYPE
 70
     6
  9
$SPLINESEGS
 70
     8
  9
$ATTDIA
 70
     0
  9
$ATTREQ
 70
     1
  9
$HANDLING
 70
     1
  9
$HANDSEED
  5
2214
  9
$SURFTAB1
 70
     6
  9
$SURFTAB2
 70
     6
  9
$SURFTYPE
 70
     6
  9
$SURFU
 70
     6
  9
$SURFV
 70
     6
  9
$UCSNAME
  2

  9
$UCSORG
 10
0.0
 20
0.0
 30
0.0
  9
$UCSXDIR
 10
1.0
 20
0.0
 30
0.0
  9
$UCSYDIR
 10
0.0
 20
1.0
 30
0.0
  9
$PUCSNAME
  2

  9
$PUCSORG
 10
0.0
 20
0.0
 30
0.0
  9
$PUCSXDIR
 10
1.0
 20
0.0
 30
0.0
  9
$PUCSYDIR
 10
0.0
 20
1.0
 30
0.0
  9
$USERI1
 70
     0
  9
$USERI2
 70
     0
  9
$USERI3
 70
     0
  9
$USERI4
 70
     0
  9
$USERI5
 70
     0
  9
$USERR1
 40
0.0
  9
$USERR2
 40
0.0
  9
$USERR3
 40
0.0
  9
$USERR4
 40
0.0
  9
$USERR5
 40
0.0
  9
$WORLDVIEW
 70
     1
  9
$SHADEDGE
 70
     3
  9
$SHADEDIF
 70
    70
  9
$TILEMODE
 70
     1
  9
$MAXACTVP
 70
    64
  9
$PLIMCHECK
 70
     0
  9
$PEXTMIN
 10
0.0
 20
0.0
 30
0.0
  9
$PEXTMAX
 10
0.0
 20
0.0
 30
0.0
  9
$PLIMMIN
 10
0.0
 20
0.0
  9
$PLIMMAX
 10
12.0
 20
9.0
  9
$UNITMODE
 70
     0
  9
$VISRETAIN
 70
     1
  9
$PLINEGEN
 70
     0
  9
$PSLTSCALE
 70
     1
  0
ENDSEC
  0
SECTION
  2
TABLES
  0
TABLE
  2
VPORT
 70
     1
  0
VPORT
  2
*ACTIVE
 70
     0
 10
0.0
 20
0.0
 11
1.0
 21
1.0
 12
21.70846512704907
 22
44.797260149885631
 13
0.0
 23
0.0
 14
10.0
 24
10.0
 15
10.0
 25
10.0
 16
0.0
 26
0.0
 36
1.0
 17
0.0
 27
0.0
 37
0.0
 40
387.9186551152568
 41
1.0918367346938771
 42
50.0
 43
0.0
 44
0.0
 50
0.0
 51
0.0
 71
     0
 72
  1000
 73
     1
 74
     3
 75
     0
 76
     0
 77
     0
 78
     0
  0
ENDTAB
  0
TABLE
  2
LTYPE
 70
     4
  0
LTYPE
  2
CONTINUOUS
 70
     0
  3
Solid line
 72
    65
 73
     0
 40
0.0
  0
LTYPE
  2
CENTER
 70
     0
  3
Center ____ _ ____ _ ____ _ ____ _ ____ _ ____
 72
    65
 73
     4
 40
50.799999999999997
 49
31.75
 49
-6.3499999999999988
 49
6.3499999999999988
 49
-6.3499999999999988
  0
LTYPE
  2
DASHED
 70
     0
  3
Dashed __ __ __ __ __ __ __ __ __ __ __ __ __ _
 72
    65
 73
     2
 40
19.050000000000001
 49
12.699999999999999
 49
-6.3499999999999988
  0
LTYPE
  2
PHANTOM
 70
     0
  3
Phantom ______  __  __  ______  __  __  ______
 72
    65
 73
     6
 40
63.5
 49
31.75
 49
-6.3499999999999988
 49
6.3499999999999988
 49
-6.3499999999999988
 49
6.3499999999999988
 49
-6.3499999999999988
  0
ENDTAB
  0
TABLE
  2
LAYER
 70
     3
  0
LAYER
  2
0
 70
     0
 62
     7
  6
CONTINUOUS
  0
LAYER
  2
CENTER
 70
     0
 62
     1
  6
CENTER
  0
LAYER
  2
DEFPOINTS
 70
     0
 62
     7
  6
CONTINUOUS
  0
ENDTAB
  0
TABLE
  2
STYLE
 70
     1
  0
STYLE
  2
STANDARD
 70
     0
 40
3.0
 41
1.0
 50
0.0
 71
     0
 42
3.0
  3
txt.shx
  4
bigfont.shx
  0
ENDTAB
  0
TABLE
  2
VIEW
 70
     0
  0
ENDTAB
  0
TABLE
  2
UCS
 70
     0
  0
ENDTAB
  0
TABLE
  2
APPID
 70
     8
  0
APPID
  2
ACAD
 70
     0
  0
APPID
  2
ACAD_MLEADERVER
 70
     0
  0
APPID
  2
ACAD_PSEXT
 70
     0
  0
APPID
  2
ACAD_DSTYLE_DIMRADIAL_EXTENSION
 70
     0
  0
APPID
  2
ACAD_EXEMPT_FROM_CAD_STANDARDS
 70
     0
  0
APPID
  2
GRADIENTCOLOR1ACI
 70
     0
  0
APPID
  2
GRADIENTCOLOR2ACI
 70
     0
  0
APPID
  2
ACAECLAYERSTANDARD
 70
     0
  0
ENDTAB
  0
TABLE
  2
DIMSTYLE
 70
     1
  0
DIMSTYLE
  2
MISUMI
 70
     0
  3

  4

  5
OPEN30
  6

  7

 40
1.0
 41
2.5
 42
0.625
 43
3.75
 44
1.25
 45
0.0
 46
0.0
 47
0.0
 48
0.0
140
2.5
141
2.5
142
0.0
143
0.03937007874016
144
1.0
145
0.0
146
1.0
147
0.625
 71
     0
 72
     0
 73
     0
 74
     0
 75
     0
 76
     0
 77
     1
 78
     8
170
     0
171
     3
172
     1
173
     0
174
     0
175
     0
176
   137
177
   137
178
   137
  0
ENDTAB
  0
ENDSEC
  0
SECTION
  2
BLOCKS
  0
BLOCK
  8
0
  2
$MODEL_SPACE
 70
     0
 10
0.0
 20
0.0
 30
0.0
  3
$MODEL_SPACE
  1

  0
ENDBLK
  5
21
  8
0
  0
BLOCK
 67
     1
  8
0
  2
$PAPER_SPACE
 70
     0
 10
0.0
 20
0.0
 30
0.0
  3
$PAPER_SPACE
  1

  0
ENDBLK
  5
53
 67
     1
  8
0
  0
BLOCK
  8
0
 62
     7
  2
_OPEN30
 70
     0
 10
0.0
 20
0.0
 30
0.0
  3
_OPEN30
  1

  0
LINE
  5
D7
  8
0
  6
BYBLOCK
 62
     0
 10
-1.0
 20
0.26794919
 30
0.0
 11
0.0
 21
0.0
 31
0.0
  0
LINE
  5
D8
  8
0
  6
BYBLOCK
 62
     0
 10
0.0
 20
0.0
 30
0.0
 11
-1.0
 21
-0.26794919
 31
0.0
  0
LINE
  5
D9
  8
0
  6
BYBLOCK
 62
     0
 10
0.0
 20
0.0
 30
0.0
 11
-1.0
 21
0.0
 31
0.0
  0
ENDBLK
  5
DB
  8
0
 62
     7
  0
BLOCK
  8
0
 62
     7
  2
*U31
 70
     1
 10
0.0
 20
0.0
 30
0.0
  3
*U31
  1

  0
TEXT
  5
2209
  8
0
  6
CONTINUOUS
 62
     7
 10
-67.5
 20
-60.301394349302939
 30
0.0
 40
3.0
  1
NEFS8-909045-50
  0
ENDBLK
  5
220B
  8
0
 62
     7
  0
BLOCK
  8
0
 62
     7
  2
*U32
 70
     1
 10
0.0
 20
0.0
 30
0.0
  3
*U32
  1

  0
TEXT
  5
220D
  8
0
  6
CONTINUOUS
 62
     7
 10
-67.732207476143572
 20
-66.07626425231075
 30
0.0
 40
3.0
  1
NEFS8-909045
  0
ENDBLK
  5
220F
  8
0
 62
     7
  0
BLOCK
  8
0
 62
     7
  2
*U33
 70
     1
 10
0.0
 20
0.0
 30
0.0
  3
*U33
  1

  0
TEXT
  5
2211
  8
0
  6
CONTINUOUS
 62
   137
 10
-46.480882876076798
 20
31.278374637151799
 30
0.0
 40
3.0
  1
R15
 50
282.88233100125109
  0
ENDBLK
  5
2213
  8
0
 62
     7
  0
ENDSEC
  0
SECTION
  2
ENTITIES
  0
LINE
  5
1AC6
  8
CENTER
  6
CENTER
 62
     1
 10
-45.0
 20
69.499999999999943
 30
0.0
 11
-45.0
 21
-24.50000000000006
 31
0.0
  0
LINE
  5
1AC8
  8
CENTER
  6
CENTER
 62
     1
 10
-69.5
 20
44.999999999999943
 30
0.0
 11
-20.5
 21
44.999999999999943
 31
0.0
  0
LINE
  5
1ACA
  8
0
  6
CONTINUOUS
 62
     7
 10
-39.699999999999989
 20
67.499999999999943
 30
0.0
 11
-25.5
 21
67.499999999999943
 31
0.0
  0
LINE
  5
1ACB
  8
0
  6
CONTINUOUS
 62
     7
 10
-64.5
 20
67.499999999999943
 30
0.0
 11
-50.300000000000011
 21
67.499999999999943
 31
0.0
  0
LINE
  5
1ACC
  8
0
  6
CONTINUOUS
 62
     7
 10
-55.0
 20
61.49999999999995
 30
0.0
 11
-50.300000000000011
 21
61.49999999999995
 31
0.0
  0
LINE
  5
1ACD
  8
0
  6
CONTINUOUS
 62
     7
 10
-67.5
 20
64.499999999999943
 30
0.0
 11
-67.5
 21
50.299999999999898
 31
0.0
  0
ARC
  5
1ACE
  8
0
  6
CONTINUOUS
 62
     7
 10
-64.5
 20
64.499999999999943
 30
0.0
 40
3.0
 50
90.0
 51
180.0
  0
LINE
  5
1ACF
  8
0
  6
CONTINUOUS
 62
     7
 10
-55.0
 20
61.49999999999995
 30
0.0
 11
-55.0
 21
57.121320343559432
 31
0.0
  0
ARC
  5
1AD0
  8
0
  6
CONTINUOUS
 62
     7
 10
-48.699999999999989
 20
48.699999999999591
 30
0.0
 40
2.299999999999998
 50
77.596524024183807
 51
192.40347597580271
  0
ARC
  5
1AD1
  8
0
  6
CONTINUOUS
 62
     7
 10
-49.96965702388411
 20
48.420767047603363
 30
0.0
 40
1.0
 50
192.40347597579961
 51
244.99999999999631
  0
ARC
  5
1AD2
  8
0
  6
CONTINUOUS
 62
     7
 10
-48.420767047603363
 20
49.969657023883769
 30
0.0
 40
1.0
 50
25.000000000006629
 51
77.596524024183807
  0
LINE
  5
1AD3
  8
0
  6
CONTINUOUS
 62
     7
 10
-50.0
 20
61.799999999999777
 30
0.0
 11
-50.0
 21
67.199999999999761
 31
0.0
  0
ARC
  5
1AD4
  8
0
  6
CONTINUOUS
 62
     7
 10
-50.300000000000011
 20
61.799999999999777
 30
0.0
 40
0.3
 50
270.0
 51
0.0
  0
ARC
  5
1AD5
  8
0
  6
CONTINUOUS
 62
     7
 10
-50.300000000000011
 20
67.199999999999761
 30
0.0
 40
0.3
 50
0.0
 51
90.0
  0
LINE
  5
1AD6
  8
0
  6
CONTINUOUS
 62
     7
 10
-40.0
 20
61.799999999999777
 30
0.0
 11
-40.0
 21
67.199999999999761
 31
0.0
  0
LINE
  5
1AD7
  8
0
  6
CONTINUOUS
 62
     7
 10
-35.0
 20
61.49999999999995
 30
0.0
 11
-39.699999999999882
 21
61.49999999999995
 31
0.0
  0
ARC
  5
1AD8
  8
0
  6
CONTINUOUS
 62
     7
 10
-39.699999999999882
 20
61.799999999999777
 30
0.0
 40
0.3
 50
180.0
 51
270.0
  0
LINE
  5
1AD9
  8
0
  6
CONTINUOUS
 62
     7
 10
-35.0
 20
61.49999999999995
 30
0.0
 11
-35.0
 21
57.121320343559432
 31
0.0
  0
ARC
  5
1ADA
  8
0
  6
CONTINUOUS
 62
     7
 10
-39.699999999999989
 20
67.199999999999932
 30
0.0
 40
0.3
 50
90.0
 51
180.0
  0
LINE
  5
1ADB
  8
0
  6
CONTINUOUS
 62
     7
 10
-22.5
 20
64.499999999999943
 30
0.0
 11
-22.5
 21
50.299999999999898
 31
0.0
  0
ARC
  5
1ADC
  8
0
  6
CONTINUOUS
 62
     7
 10
-25.5
 20
64.499999999999943
 30
0.0
 40
3.0
 50
0.0
 51
90.0
  0
LINE
  5
1ADD
  8
0
  6
CONTINUOUS
 62
     7
 10
-55.0
 20
57.121320343559432
 30
0.0
 11
-52.37867965644039
 21
54.499999999999773
 31
0.0
  0
LINE
  5
1ADE
  8
0
  6
CONTINUOUS
 62
     7
 10
-35.0
 20
57.121320343559432
 30
0.0
 11
-37.621320343559717
 21
54.499999999999773
 31
0.0
  0
LINE
  5
1ADF
  8
0
  6
CONTINUOUS
 62
     7
 10
-61.800000000000011
 20
49.999999999999943
 30
0.0
 11
-67.199999999999974
 21
49.999999999999943
 31
0.0
  0
LINE
  5
1AE0
  8
0
  6
CONTINUOUS
 62
     7
 10
-61.800000000000011
 20
39.99999999999995
 30
0.0
 11
-67.199999999999974
 21
39.99999999999995
 31
0.0
  0
LINE
  5
1AE1
  8
0
  6
CONTINUOUS
 62
     7
 10
-61.5
 20
54.999999999999943
 30
0.0
 11
-61.5
 21
50.299999999999898
 31
0.0
  0
LINE
  5
1AE2
  8
0
  6
CONTINUOUS
 62
     7
 10
-57.121320343559709
 20
54.999999999999943
 30
0.0
 11
-54.499999999999879
 21
52.378679656440283
 31
0.0
  0
LINE
  5
1AE3
  8
0
  6
CONTINUOUS
 62
     7
 10
-61.5
 20
54.999999999999943
 30
0.0
 11
-57.121320343559709
 21
54.999999999999943
 31
0.0
  0
ARC
  5
1AE4
  8
0
  6
CONTINUOUS
 62
     7
 10
-61.800000000000011
 20
50.299999999999898
 30
0.0
 40
0.3
 50
270.0
 51
0.0
  0
LINE
  5
1AE5
  8
0
  6
CONTINUOUS
 62
     7
 10
-57.121320343559709
 20
34.99999999999995
 30
0.0
 11
-54.499999999999879
 21
37.621320343559553
 31
0.0
  0
LINE
  5
1AE6
  8
0
  6
CONTINUOUS
 62
     7
 10
-61.5
 20
34.99999999999995
 30
0.0
 11
-61.5
 21
39.699999999999761
 31
0.0
  0
ARC
  5
1AE7
  8
0
  6
CONTINUOUS
 62
     7
 10
-61.800000000000011
 20
39.699999999999761
 30
0.0
 40
0.3
 50
0.0
 51
90.0
  0
LINE
  5
1AE8
  8
0
  6
CONTINUOUS
 62
     7
 10
-61.5
 20
34.99999999999995
 30
0.0
 11
-57.121320343559709
 21
34.99999999999995
 31
0.0
  0
ARC
  5
1AE9
  8
0
  6
CONTINUOUS
 62
     7
 10
-67.199999999999974
 20
50.299999999999898
 30
0.0
 40
0.3
 50
180.0
 51
270.0
  0
ARC
  5
1AEA
  8
0
  6
CONTINUOUS
 62
     7
 10
-67.199999999999974
 20
39.699999999999761
 30
0.0
 40
0.3
 50
90.0
 51
180.0
  0
LINE
  5
1AEB
  8
0
  6
CONTINUOUS
 62
     7
 10
-28.5
 20
34.99999999999995
 30
0.0
 11
-28.5
 21
39.699999999999761
 31
0.0
  0
LINE
  5
1AEC
  8
0
  6
CONTINUOUS
 62
     7
 10
-28.5
 20
34.99999999999995
 30
0.0
 11
-32.87867965644034
 21
34.99999999999995
 31
0.0
  0
LINE
  5
1AED
  8
0
  6
CONTINUOUS
 62
     7
 10
-32.87867965644034
 20
34.99999999999995
 30
0.0
 11
-35.500000000000057
 21
37.621320343559553
 31
0.0
  0
LINE
  5
1AEE
  8
0
  6
CONTINUOUS
 62
     7
 10
-28.5
 20
54.999999999999943
 30
0.0
 11
-32.87867965644034
 21
54.999999999999943
 31
0.0
  0
ARC
  5
1AEF
  8
0
  6
CONTINUOUS
 62
     7
 10
-28.199999999999989
 20
50.299999999999898
 30
0.0
 40
0.3
 50
180.0
 51
270.0
  0
ARC
  5
1AF0
  8
0
  6
CONTINUOUS
 62
     7
 10
-28.199999999999989
 20
39.699999999999761
 30
0.0
 40
0.3
 50
90.0
 51
180.0
  0
LINE
  5
1AF1
  8
0
  6
CONTINUOUS
 62
     7
 10
-28.5
 20
54.999999999999943
 30
0.0
 11
-28.5
 21
50.299999999999898
 31
0.0
  0
LINE
  5
1AF2
  8
0
  6
CONTINUOUS
 62
     7
 10
-32.87867965644034
 20
54.999999999999943
 30
0.0
 11
-35.500000000000057
 21
52.378679656440283
 31
0.0
  0
LINE
  5
1AF3
  8
0
  6
CONTINUOUS
 62
     7
 10
-28.199999999999989
 20
39.99999999999995
 30
0.0
 11
-22.800000000000011
 21
39.99999999999995
 31
0.0
  0
ARC
  5
1AF4
  8
0
  6
CONTINUOUS
 62
     7
 10
-22.800000000000011
 20
39.699999999999761
 30
0.0
 40
0.3
 50
0.0
 51
90.0
  0
ARC
  5
1AF5
  8
0
  6
CONTINUOUS
 62
     7
 10
-22.800000000000011
 20
50.299999999999898
 30
0.0
 40
0.3
 50
270.0
 51
0.0
  0
LINE
  5
1AF6
  8
0
  6
CONTINUOUS
 62
     7
 10
-28.199999999999989
 20
49.999999999999943
 30
0.0
 11
-22.800000000000011
 21
49.999999999999943
 31
0.0
  0
LINE
  5
1AF7
  8
0
  6
CONTINUOUS
 62
     7
 10
-51.96446609406717
 20
35.499999999999943
 30
0.0
 11
-51.606814663665091
 21
35.499999999999943
 31
0.0
  0
LINE
  5
1AF8
  8
0
  6
CONTINUOUS
 62
     7
 10
-38.393185336334
 20
35.49999999999978
 30
0.0
 11
-38.035533905932709
 21
35.49999999999978
 31
0.0
  0
LINE
  5
1AF9
  8
0
  6
CONTINUOUS
 62
     7
 10
-55.085786437627
 20
32.792893218813219
 30
0.0
 11
-52.671572875253837
 21
35.207106781186383
 31
0.0
  0
LINE
  5
1AFA
  8
0
  6
CONTINUOUS
 62
     7
 10
-34.914213562373106
 20
32.792893218813219
 30
0.0
 11
-37.328427124746213
 21
35.207106781186383
 31
0.0
  0
LINE
  5
1AFB
  8
0
  6
CONTINUOUS
 62
     7
 10
-67.5
 20
5.2999999999998968
 30
0.0
 11
-67.5
 21
39.699999999999932
 31
0.0
  0
LINE
  5
1AFC
  8
0
  6
CONTINUOUS
 62
     7
 10
-22.5
 20
22.799999999999901
 30
0.0
 11
-22.5
 21
39.699999999999761
 31
0.0
  0
LINE
  5
1AFD
  8
0
  6
CONTINUOUS
 62
     7
 10
-62.267949192431161
 20
32.49999999999995
 30
0.0
 11
-55.792893218813511
 21
32.49999999999995
 31
0.0
  0
LINE
  5
1AFE
  8
0
  6
CONTINUOUS
 62
     7
 10
-65.0
 20
12.49999999999994
 30
0.0
 11
-65.0
 21
32.49999999999995
 31
0.0
  0
ARC
  5
1AFF
  8
0
  6
CONTINUOUS
 62
     7
 10
-64.0
 20
32.49999999999995
 30
0.0
 40
1.0
 50
30.000000000000551
 51
180.0
  0
LINE
  5
1B00
  8
0
  6
CONTINUOUS
 62
     7
 10
-25.0
 20
21.68700576850858
 30
0.0
 11
-25.0
 21
32.49999999999995
 31
0.0
  0
ARC
  5
1B01
  8
0
  6
CONTINUOUS
 62
     7
 10
-26.0
 20
32.49999999999995
 30
0.0
 40
1.0
 50
0.0
 51
149.9999999999994
  0
LINE
  5
1B02
  8
0
  6
CONTINUOUS
 62
     7
 10
-27.7320508075689
 20
32.49999999999995
 30
0.0
 11
-34.20710678118656
 21
32.49999999999995
 31
0.0
  0
LINE
  5
1B03
  8
0
  6
CONTINUOUS
 62
     7
 10
-62.131340949547102
 20
65.499999999999943
 30
0.0
 11
-56.89999999999997
 21
65.499999999999943
 31
0.0
  0
LINE
  5
1B04
  8
0
  6
CONTINUOUS
 62
     7
 10
-56.89999999999997
 20
62.767949192430869
 30
0.0
 11
-56.89999999999997
 21
57.899999999999629
 31
0.0
  0
ARC
  5
1B05
  8
0
  6
CONTINUOUS
 62
     7
 10
-57.899999999999977
 20
57.899999999999629
 30
0.0
 40
1.0
 50
270.0
 51
0.0
  0
LINE
  5
1B06
  8
0
  6
CONTINUOUS
 62
     7
 10
-62.767949192431097
 20
56.89999999999992
 30
0.0
 11
-57.899999999999977
 21
56.89999999999975
 31
0.0
  0
LINE
  5
1B07
  8
0
  6
CONTINUOUS
 62
     7
 10
-65.5
 20
62.131340949546939
 30
0.0
 11
-65.5
 21
56.89999999999992
 31
0.0
  0
ARC
  5
1B08
  8
0
  6
CONTINUOUS
 62
     7
 10
-56.89999999999997
 20
64.499999999999943
 30
0.0
 40
1.0
 50
300.00000000000051
 51
90.0
  0
ARC
  5
1B09
  8
0
  6
CONTINUOUS
 62
     7
 10
-64.5
 20
56.89999999999992
 30
0.0
 40
1.0
 50
180.0
 51
329.99999999999949
  0
LINE
  5
1B0A
  8
0
  6
CONTINUOUS
 62
     7
 10
-61.5
 20
9.9999999999999432
 30
0.0
 11
-61.5
 21
5.2999999999998968
 31
0.0
  0
LINE
  5
1B0B
  8
0
  6
CONTINUOUS
 62
     7
 10
-62.267949192431161
 20
12.49999999999994
 30
0.0
 11
-55.792893218813511
 21
12.49999999999994
 31
0.0
  0
LINE
  5
1B0C
  8
0
  6
CONTINUOUS
 62
     7
 10
-61.5
 20
9.9999999999999432
 30
0.0
 11
-57.121320343559709
 21
9.9999999999999432
 31
0.0
  0
ARC
  5
1B0D
  8
0
  6
CONTINUOUS
 62
     7
 10
-64.0
 20
12.49999999999994
 30
0.0
 40
1.0
 50
180.0
 51
329.99999999999949
  0
LINE
  5
1B0E
  8
0
  6
CONTINUOUS
 62
     7
 10
-57.121320343559709
 20
9.9999999999999432
 30
0.0
 11
-54.499999999999879
 21
7.378679656440112
 31
0.0
  0
LINE
  5
1B0F
  8
0
  6
CONTINUOUS
 62
     7
 10
-55.085786437627
 20
12.20710678118644
 30
0.0
 11
-52.671572875253837
 21
9.7928932188133881
 31
0.0
  0
LINE
  5
1B10
  8
0
  6
CONTINUOUS
 62
     7
 10
-64.5
 20
-22.50000000000006
 30
0.0
 11
-50.300000000000011
 21
-22.50000000000006
 31
0.0
  0
LINE
  5
1B11
  8
0
  6
CONTINUOUS
 62
     7
 10
-61.5
 20
-10.00000000000005
 30
0.0
 11
-57.121320343559709
 21
-10.00000000000005
 31
0.0
  0
LINE
  5
1B12
  8
CENTER
  6
CENTER
 62
     1
 10
-69.5
 20
-0.0000000000000568
 30
0.0
 11
24.5
 21
-0.0000000000000568
 31
0.0
  0
LINE
  5
1B13
  8
0
  6
CONTINUOUS
 62
     7
 10
-67.5
 20
-19.50000000000006
 30
0.0
 11
-67.5
 21
-5.3000000000000682
 31
0.0
  0
ARC
  5
1B14
  8
0
  6
CONTINUOUS
 62
     7
 10
-67.199999999999974
 20
-5.3000000000000682
 30
0.0
 40
0.3
 50
90.0
 51
180.0
  0
ARC
  5
1B15
  8
0
  6
CONTINUOUS
 62
     7
 10
-61.800000000000011
 20
-5.3000000000000682
 30
0.0
 40
0.3
 50
0.0
 51
90.0
  0
LINE
  5
1B16
  8
0
  6
CONTINUOUS
 62
     7
 10
-61.800000000000011
 20
4.9999999999999432
 30
0.0
 11
-67.199999999999974
 21
4.9999999999999432
 31
0.0
  0
ARC
  5
1B17
  8
0
  6
CONTINUOUS
 62
     7
 10
-67.199999999999974
 20
5.2999999999998968
 30
0.0
 40
0.3
 50
180.0
 51
270.0
  0
ARC
  5
1B18
  8
0
  6
CONTINUOUS
 62
     7
 10
-61.800000000000011
 20
5.2999999999998968
 30
0.0
 40
0.3
 50
270.0
 51
0.0
  0
LINE
  5
1B19
  8
0
  6
CONTINUOUS
 62
     7
 10
-61.800000000000011
 20
-5.000000000000056
 30
0.0
 11
-67.199999999999974
 21
-5.000000000000056
 31
0.0
  0
LINE
  5
1B1A
  8
0
  6
CONTINUOUS
 62
     7
 10
-61.5
 20
-10.00000000000005
 30
0.0
 11
-61.5
 21
-5.3000000000000682
 31
0.0
  0
ARC
  5
1B1B
  8
0
  6
CONTINUOUS
 62
     7
 10
-64.5
 20
-19.50000000000006
 30
0.0
 40
3.0
 50
180.0
 51
270.0
  0
LINE
  5
1B1C
  8
0
  6
CONTINUOUS
 62
     7
 10
-50.0
 20
-16.800000000000061
 30
0.0
 11
-50.0
 21
-22.200000000000099
 31
0.0
  0
LINE
  5
1B1D
  8
0
  6
CONTINUOUS
 62
     7
 10
-55.0
 20
-16.50000000000005
 30
0.0
 11
-50.300000000000011
 21
-16.50000000000005
 31
0.0
  0
LINE
  5
1B1E
  8
0
  6
CONTINUOUS
 62
     7
 10
-55.0
 20
-12.12132034355972
 30
0.0
 11
-52.37867965644039
 21
-9.5000000000000568
 31
0.0
  0
LINE
  5
1B1F
  8
0
  6
CONTINUOUS
 62
     7
 10
-57.121320343559709
 20
-10.00000000000005
 30
0.0
 11
-54.5
 21
-7.3786796564404531
 31
0.0
  0
LINE
  5
1B20
  8
0
  6
CONTINUOUS
 62
     7
 10
-55.0
 20
-16.50000000000005
 30
0.0
 11
-55.0
 21
-12.12132034355972
 31
0.0
  0
ARC
  5
1B21
  8
0
  6
CONTINUOUS
 62
     7
 10
-50.300000000000068
 20
-16.800000000000061
 30
0.0
 40
0.3
 50
0.0
 51
90.0
  0
ARC
  5
1B22
  8
0
  6
CONTINUOUS
 62
     7
 10
-50.300000000000011
 20
-22.200000000000099
 30
0.0
 40
0.3
 50
270.0
 51
0.0
  0
LINE
  5
1B23
  8
0
  6
CONTINUOUS
 62
     7
 10
-36.479898987322322
 20
9.7928932188135036
 30
0.0
 11
-25.29289321881339
 21
20.979898987322262
 31
0.0
  0
ARC
  5
1B24
  8
0
  6
CONTINUOUS
 62
     7
 10
-37.187005768508811
 20
10.49999999999994
 30
0.0
 40
1.0
 50
270.0
 51
315.0
  0
ARC
  5
1B25
  8
0
  6
CONTINUOUS
 62
     7
 10
19.5
 20
19.50000000000006
 30
0.0
 40
3.0
 50
0.0
 51
90.0
  0
LINE
  5
1B26
  8
0
  6
CONTINUOUS
 62
     7
 10
-22.199999999999989
 20
22.49999999999994
 30
0.0
 11
-5.3000000000000682
 21
22.49999999999994
 31
0.0
  0
LINE
  5
1B27
  8
0
  6
CONTINUOUS
 62
     7
 10
-10.0
 20
16.49999999999994
 30
0.0
 11
-5.3000000000000682
 21
16.49999999999994
 31
0.0
  0
LINE
  5
1B28
  8
0
  6
CONTINUOUS
 62
     7
 10
-10.0
 20
-16.50000000000005
 30
0.0
 11
-5.3000000000000682
 21
-16.50000000000005
 31
0.0
  0
LINE
  5
1B29
  8
0
  6
CONTINUOUS
 62
     7
 10
-12.5
 20
-17.267949192431271
 30
0.0
 11
-12.5
 21
-10.79289321881356
 31
0.0
  0
LINE
  5
1B2A
  8
0
  6
CONTINUOUS
 62
     7
 10
-10.0
 20
-16.50000000000005
 30
0.0
 11
-10.0
 21
-12.12132034355972
 31
0.0
  0
ARC
  5
1B2B
  8
0
  6
CONTINUOUS
 62
     7
 10
-12.5
 20
-19.00000000000005
 30
0.0
 40
1.0
 50
270.0
 51
59.99999999999946
  0
LINE
  5
1B2C
  8
0
  6
CONTINUOUS
 62
     7
 10
-10.0
 20
-12.12132034355972
 30
0.0
 11
-7.3786796564403403
 21
-9.5000000000000568
 31
0.0
  0
LINE
  5
1B2D
  8
0
  6
CONTINUOUS
 62
     7
 10
-12.20710678118655
 20
-10.085786437627
 30
0.0
 11
-9.7928932188133881
 21
-7.6715728752538999
 31
0.0
  0
LINE
  5
1B2E
  8
0
  6
CONTINUOUS
 62
     7
 10
-23.312994231491079
 20
19.99999999999994
 30
0.0
 11
-12.5
 21
19.99999999999994
 31
0.0
  0
LINE
  5
1B2F
  8
0
  6
CONTINUOUS
 62
     7
 10
-12.5
 20
17.2679491924311
 30
0.0
 11
-12.5
 21
10.79289321881339
 31
0.0
  0
LINE
  5
1B30
  8
0
  6
CONTINUOUS
 62
     7
 10
-10.0
 20
16.49999999999994
 30
0.0
 11
-10.0
 21
12.121320343559541
 31
0.0
  0
LINE
  5
1B31
  8
0
  6
CONTINUOUS
 62
     7
 10
-12.20710678118655
 20
10.08578643762678
 30
0.0
 11
-9.7928932188135036
 21
7.6715728752537302
 31
0.0
  0
LINE
  5
1B32
  8
0
  6
CONTINUOUS
 62
     7
 10
-10.0
 20
12.121320343559541
 30
0.0
 11
-7.3786796564403403
 21
9.4999999999999432
 31
0.0
  0
ARC
  5
1B33
  8
0
  6
CONTINUOUS
 62
     7
 10
-12.5
 20
18.99999999999994
 30
0.0
 40
1.0
 50
300.00000000000051
 51
90.0
  0
LINE
  5
1B34
  8
0
  6
CONTINUOUS
 62
     7
 10
22.500000000000171
 20
-19.50000000000006
 30
0.0
 11
22.5
 21
-5.3000000000000682
 31
0.0
  0
LINE
  5
1B35
  8
0
  6
CONTINUOUS
 62
     7
 10
10.0
 20
-16.50000000000005
 30
0.0
 11
10.0
 21
-12.12132034355972
 31
0.0
  0
LINE
  5
1B36
  8
CENTER
  6
CENTER
 62
     1
 10
0.0
 20
-24.50000000000006
 30
0.0
 11
0.0
 21
24.49999999999994
 31
0.0
  0
LINE
  5
1B37
  8
0
  6
CONTINUOUS
 62
     7
 10
19.5
 20
-22.50000000000006
 30
0.0
 11
5.3000000000000114
 21
-22.50000000000006
 31
0.0
  0
ARC
  5
1B38
  8
0
  6
CONTINUOUS
 62
     7
 10
5.3000000000000114
 20
-22.200000000000099
 30
0.0
 40
0.3
 50
180.0
 51
270.0
  0
ARC
  5
1B39
  8
0
  6
CONTINUOUS
 62
     7
 10
5.3000000000000114
 20
-16.800000000000061
 30
0.0
 40
0.3
 50
90.0
 51
180.0
  0
LINE
  5
1B3A
  8
0
  6
CONTINUOUS
 62
     7
 10
-5.0
 20
-16.800000000000061
 30
0.0
 11
-5.0
 21
-22.200000000000099
 31
0.0
  0
ARC
  5
1B3B
  8
0
  6
CONTINUOUS
 62
     7
 10
-5.3000000000000114
 20
-22.200000000000099
 30
0.0
 40
0.3
 50
270.0
 51
0.0
  0
ARC
  5
1B3C
  8
0
  6
CONTINUOUS
 62
     7
 10
-5.3000000000000682
 20
-16.800000000000061
 30
0.0
 40
0.3
 50
0.0
 51
90.0
  0
LINE
  5
1B3D
  8
0
  6
CONTINUOUS
 62
     7
 10
5.0
 20
-16.800000000000061
 30
0.0
 11
5.0
 21
-22.200000000000099
 31
0.0
  0
LINE
  5
1B3E
  8
0
  6
CONTINUOUS
 62
     7
 10
10.0
 20
-16.50000000000005
 30
0.0
 11
5.3000000000000114
 21
-16.50000000000005
 31
0.0
  0
ARC
  5
1B3F
  8
0
  6
CONTINUOUS
 62
     7
 10
19.5
 20
-19.50000000000006
 30
0.0
 40
3.0
 50
270.0
 51
0.0
  0
LINE
  5
1B40
  8
0
  6
CONTINUOUS
 62
     7
 10
19.5
 20
22.49999999999994
 30
0.0
 11
5.3000000000000114
 21
22.49999999999994
 31
0.0
  0
LINE
  5
1B41
  8
0
  6
CONTINUOUS
 62
     7
 10
16.799999999999901
 20
-5.000000000000056
 30
0.0
 11
22.199999999999989
 21
-5.000000000000056
 31
0.0
  0
LINE
  5
1B42
  8
0
  6
CONTINUOUS
 62
     7
 10
16.800000000000011
 20
5.000000000000056
 30
0.0
 11
22.199999999999989
 21
5.000000000000056
 31
0.0
  0
LINE
  5
1B43
  8
0
  6
CONTINUOUS
 62
     7
 10
16.5
 20
-10.00000000000005
 30
0.0
 11
16.5
 21
-5.3000000000000682
 31
0.0
  0
LINE
  5
1B44
  8
0
  6
CONTINUOUS
 62
     7
 10
12.12132034355966
 20
-10.00000000000005
 30
0.0
 11
9.5
 21
-7.3786796564404531
 31
0.0
  0
LINE
  5
1B45
  8
0
  6
CONTINUOUS
 62
     7
 10
10.0
 20
-12.12132034355972
 30
0.0
 11
7.3786796564403971
 21
-9.5000000000000568
 31
0.0
  0
LINE
  5
1B46
  8
0
  6
CONTINUOUS
 62
     7
 10
16.5
 20
-10.00000000000005
 30
0.0
 11
12.12132034355966
 21
-10.00000000000005
 31
0.0
  0
ARC
  5
1B47
  8
0
  6
CONTINUOUS
 62
     7
 10
16.799999999999901
 20
-5.3000000000000682
 30
0.0
 40
0.3
 50
90.0
 51
180.0
  0
ARC
  5
1B48
  8
0
  6
CONTINUOUS
 62
     7
 10
5.3000000000000114
 20
22.199999999999928
 30
0.0
 40
0.3
 50
90.0
 51
180.0
  0
ARC
  5
1B49
  8
0
  6
CONTINUOUS
 62
     7
 10
5.3000000000000114
 20
16.799999999999901
 30
0.0
 40
0.3
 50
180.0
 51
270.0
  0
LINE
  5
1B4A
  8
0
  6
CONTINUOUS
 62
     7
 10
-5.0
 20
16.799999999999901
 30
0.0
 11
-5.0
 21
22.199999999999928
 31
0.0
  0
ARC
  5
1B4B
  8
0
  6
CONTINUOUS
 62
     7
 10
-5.3000000000000682
 20
16.799999999999901
 30
0.0
 40
0.3
 50
270.0
 51
0.0
  0
ARC
  5
1B4C
  8
0
  6
CONTINUOUS
 62
     7
 10
-5.3000000000000682
 20
22.199999999999928
 30
0.0
 40
0.3
 50
0.0
 51
90.0
  0
LINE
  5
1B4D
  8
0
  6
CONTINUOUS
 62
     7
 10
5.0
 20
16.799999999999901
 30
0.0
 11
5.0
 21
22.199999999999928
 31
0.0
  0
LINE
  5
1B4E
  8
0
  6
CONTINUOUS
 62
     7
 10
10.0
 20
16.49999999999994
 30
0.0
 11
10.0
 21
12.121320343559541
 31
0.0
  0
LINE
  5
1B4F
  8
0
  6
CONTINUOUS
 62
     7
 10
12.12132034355966
 20
9.9999999999999432
 30
0.0
 11
9.4999999999999432
 21
7.378679656440112
 31
0.0
  0
LINE
  5
1B50
  8
0
  6
CONTINUOUS
 62
     7
 10
10.0
 20
12.121320343559541
 30
0.0
 11
7.3786796564403971
 21
9.4999999999999432
 31
0.0
  0
LINE
  5
1B51
  8
0
  6
CONTINUOUS
 62
     7
 10
16.5
 20
9.9999999999999432
 30
0.0
 11
16.5
 21
5.2999999999998968
 31
0.0
  0
ARC
  5
1B52
  8
0
  6
CONTINUOUS
 62
     7
 10
16.800000000000011
 20
5.2999999999998968
 30
0.0
 40
0.3
 50
180.0
 51
270.0
  0
LINE
  5
1B53
  8
0
  6
CONTINUOUS
 62
     7
 10
16.5
 20
9.9999999999999432
 30
0.0
 11
12.12132034355966
 21
9.9999999999999432
 31
0.0
  0
LINE
  5
1B54
  8
0
  6
CONTINUOUS
 62
     7
 10
10.0
 20
16.49999999999994
 30
0.0
 11
5.3000000000000114
 21
16.49999999999994
 31
0.0
  0
ARC
  5
1B55
  8
0
  6
CONTINUOUS
 62
     7
 10
22.199999999999989
 20
-5.3000000000000682
 30
0.0
 40
0.3
 50
0.0
 51
90.0
  0
LINE
  5
1B56
  8
0
  6
CONTINUOUS
 62
     7
 10
22.5
 20
5.2999999999998968
 30
0.0
 11
22.5
 21
19.49999999999994
 31
0.0
  0
ARC
  5
1B57
  8
0
  6
CONTINUOUS
 62
     7
 10
22.200000000000159
 20
5.2999999999998968
 30
0.0
 40
0.3
 50
270.0
 51
0.0
  0
LINE
  5
1B58
  8
0
  6
CONTINUOUS
 62
     7
 10
-39.699999999999882
 20
-22.50000000000006
 30
0.0
 11
-5.2999999999998968
 21
-22.50000000000006
 31
0.0
  0
LINE
  5
1B59
  8
0
  6
CONTINUOUS
 62
     7
 10
-32.5
 20
-20.00000000000006
 30
0.0
 11
-12.5
 21
-20.00000000000006
 31
0.0
  0
LINE
  5
1B5A
  8
0
  6
CONTINUOUS
 62
     7
 10
-35.0
 20
-16.50000000000005
 30
0.0
 11
-39.699999999999882
 21
-16.50000000000005
 31
0.0
  0
LINE
  5
1B5B
  8
0
  6
CONTINUOUS
 62
     7
 10
-39.999999999999893
 20
-16.800000000000061
 30
0.0
 11
-39.999999999999893
 21
-22.200000000000099
 31
0.0
  0
ARC
  5
1B5C
  8
0
  6
CONTINUOUS
 62
     7
 10
-39.699999999999882
 20
-22.200000000000099
 30
0.0
 40
0.3
 50
180.0
 51
270.0
  0
ARC
  5
1B5D
  8
0
  6
CONTINUOUS
 62
     7
 10
-39.699999999999882
 20
-16.800000000000061
 30
0.0
 40
0.3
 50
90.0
 51
180.0
  0
ARC
  5
1B5E
  8
0
  6
CONTINUOUS
 62
     7
 10
-32.5
 20
-19.00000000000005
 30
0.0
 40
1.0
 50
120.0000000000005
 51
270.0
  0
LINE
  5
1B5F
  8
0
  6
CONTINUOUS
 62
     7
 10
-35.0
 20
-16.50000000000005
 30
0.0
 11
-35.0
 21
-12.12132034355972
 31
0.0
  0
LINE
  5
1B60
  8
0
  6
CONTINUOUS
 62
     7
 10
-32.5
 20
-17.267949192431331
 30
0.0
 11
-32.5
 21
-10.79289321881361
 31
0.0
  0
LINE
  5
1B61
  8
0
  6
CONTINUOUS
 62
     7
 10
-32.792893218813497
 20
-10.085786437627
 30
0.0
 11
-35.20710678118656
 21
-7.6715728752538999
 31
0.0
  0
LINE
  5
1B62
  8
0
  6
CONTINUOUS
 62
     7
 10
-35.0
 20
-12.12132034355972
 30
0.0
 11
-37.621320343559717
 21
-9.5000000000000568
 31
0.0
  0
LINE
  5
1B63
  8
0
  6
CONTINUOUS
 62
     7
 10
-35.20710678118656
 20
8.5201010126776282
 30
0.0
 11
-24.020101012677689
 21
19.70710678118644
 31
0.0
  0
ARC
  5
1B64
  8
0
  6
CONTINUOUS
 62
     7
 10
-62.767949192431097
 20
55.89999999999992
 30
0.0
 40
1.0
 50
90.0
 51
149.9999999999994
  0
ARC
  5
1B65
  8
0
  6
CONTINUOUS
 62
     7
 10
-55.899999999999977
 20
62.767949192430869
 30
0.0
 40
1.0
 50
120.0000000000005
 51
180.0
  0
ARC
  5
1B66
  8
0
  6
CONTINUOUS
 62
     7
 10
-33.499999999999893
 20
-17.267949192431331
 30
0.0
 40
1.0
 50
300.00000000000051
 51
0.0
  0
ARC
  5
1B67
  8
0
  6
CONTINUOUS
 62
     7
 10
-11.5
 20
-17.267949192431271
 30
0.0
 40
1.0
 50
180.0
 51
239.99999999999949
  0
ARC
  5
1B68
  8
0
  6
CONTINUOUS
 62
     7
 10
-33.5
 20
-10.79289321881361
 30
0.0
 40
1.0
 50
0.0
 51
45.0
  0
ARC
  5
1B69
  8
0
  6
CONTINUOUS
 62
     7
 10
-23.312994231491079
 20
18.99999999999994
 30
0.0
 40
1.0
 50
90.0
 51
135.0
  0
ARC
  5
1B6A
  8
0
  6
CONTINUOUS
 62
     7
 10
-11.5
 20
17.2679491924311
 30
0.0
 40
1.0
 50
120.0000000000005
 51
180.0
  0
ARC
  5
1B6B
  8
0
  6
CONTINUOUS
 62
     7
 10
-27.7320508075689
 20
33.499999999999943
 30
0.0
 40
1.0
 50
270.0
 51
329.99999999999949
  0
ARC
  5
1B6C
  8
0
  6
CONTINUOUS
 62
     7
 10
-34.20710678118656
 20
33.499999999999943
 30
0.0
 40
1.0
 50
225.0
 51
270.0
  0
ARC
  5
1B6D
  8
0
  6
CONTINUOUS
 62
     7
 10
-38.035533905932709
 20
34.499999999999602
 30
0.0
 40
1.0
 50
45.0
 51
90.0
  0
ARC
  5
1B6E
  8
0
  6
CONTINUOUS
 62
     7
 10
-51.96446609406717
 20
34.499999999999943
 30
0.0
 40
1.0
 50
90.0
 51
135.0
  0
ARC
  5
1B6F
  8
0
  6
CONTINUOUS
 62
     7
 10
-55.792893218813511
 20
33.499999999999943
 30
0.0
 40
1.0
 50
270.0
 51
315.0
  0
ARC
  5
1B70
  8
0
  6
CONTINUOUS
 62
     7
 10
-62.267949192431161
 20
33.499999999999943
 30
0.0
 40
1.0
 50
210.00000000000051
 51
270.0
  0
ARC
  5
1B71
  8
0
  6
CONTINUOUS
 62
     7
 10
-62.267949192431161
 20
11.49999999999994
 30
0.0
 40
1.0
 50
90.0
 51
149.9999999999994
  0
ARC
  5
1B72
  8
0
  6
CONTINUOUS
 62
     7
 10
-55.792893218813511
 20
11.49999999999994
 30
0.0
 40
1.0
 50
45.0
 51
90.0
  0
ARC
  5
1B73
  8
0
  6
CONTINUOUS
 62
     7
 10
-51.96446609406717
 20
10.49999999999994
 30
0.0
 40
1.0
 50
225.0
 51
270.0
  0
ARC
  5
1B74
  8
0
  6
CONTINUOUS
 62
     7
 10
-26.0
 20
21.68700576850858
 30
0.0
 40
1.0
 50
315.0
 51
0.0
  0
ARC
  5
1B75
  8
0
  6
CONTINUOUS
 62
     7
 10
-22.199999999999989
 20
22.799999999999901
 30
0.0
 40
0.3
 50
180.0
 51
270.0
  0
ARC
  5
1B76
  8
0
  6
CONTINUOUS
 62
     7
 10
-45.0
 20
44.999999999999943
 30
0.0
 40
5.25
 50
158.0985793398219
 51
201.9014206601781
  0
ARC
  5
1B77
  8
0
  6
CONTINUOUS
 62
     7
 10
-45.0
 20
44.999999999999943
 30
0.0
 40
5.25
 50
247.57431843096151
 51
291.90142066017808
  0
ARC
  5
1B78
  8
0
  6
CONTINUOUS
 62
     7
 10
-45.0
 20
44.999999999999943
 30
0.0
 40
5.25
 50
338.09857933982192
 51
21.901420660178101
  0
ARC
  5
1B79
  8
0
  6
CONTINUOUS
 62
     7
 10
-45.0
 20
44.999999999999943
 30
0.0
 40
5.25
 50
68.098579339818883
 51
111.9014206601781
  0
ARC
  5
1B7A
  8
0
  6
CONTINUOUS
 62
     7
 10
-47.07020987531137
 20
50.14943987945793
 30
0.0
 40
0.3
 50
205.0000000000139
 51
291.90142066018109
  0
ARC
  5
1B7B
  8
0
  6
CONTINUOUS
 62
     7
 10
-50.149439879458207
 20
47.070209875311257
 30
0.0
 40
0.3
 50
338.09857933981891
 51
65.000000000000654
  0
LINE
  5
1B7E
  8
0
  6
CONTINUOUS
 62
     7
 10
-50.392275285624812
 20
47.514459260566809
 30
0.0
 11
-50.022654400935892
 21
47.3421022114224
 31
0.0
  0
LINE
  5
1B7F
  8
0
  6
CONTINUOUS
 62
     7
 10
-47.514459260566689
 20
50.392275285624457
 30
0.0
 11
-47.342102211422286
 21
50.022654400935721
 31
0.0
  0
ARC
  5
1B80
  8
0
  6
CONTINUOUS
 62
     7
 10
-48.699999999999818
 20
41.299999999999613
 30
0.0
 40
2.299999999999998
 50
167.59652402418379
 51
282.40347597580279
  0
ARC
  5
1B81
  8
0
  6
CONTINUOUS
 62
     7
 10
-48.420767047603483
 20
40.030342976115428
 30
0.0
 40
1.0
 50
282.40347597580279
 51
334.99999999999631
  0
ARC
  5
1B82
  8
0
  6
CONTINUOUS
 62
     7
 10
-49.969657023883883
 20
41.579232952396239
 30
0.0
 40
1.0
 50
115.00000000000659
 51
167.59652402418379
  0
ARC
  5
1B83
  8
0
  6
CONTINUOUS
 62
     7
 10
-50.1494398794581
 20
42.929790124688111
 30
0.0
 40
0.3
 50
295.00000000001393
 51
21.90142066018112
  0
ARC
  5
1B84
  8
0
  6
CONTINUOUS
 62
     7
 10
-47.07020987531137
 20
39.850560120541623
 30
0.0
 40
0.3
 50
68.09857933982191
 51
155.0000000000006
  0
LINE
  5
1B85
  8
0
  6
CONTINUOUS
 62
     7
 10
-47.514459260566859
 20
39.607724714374797
 30
0.0
 11
-47.342102211422507
 21
39.977345599063661
 31
0.0
  0
LINE
  5
1B86
  8
0
  6
CONTINUOUS
 62
     7
 10
-50.392275285624692
 20
42.485540739432899
 30
0.0
 11
-50.022654400935842
 21
42.657897788577252
 31
0.0
  0
ARC
  5
1B87
  8
0
  6
CONTINUOUS
 62
     7
 10
-41.299999999999827
 20
41.299999999999777
 30
0.0
 40
2.299999999999998
 50
257.59652402418698
 51
12.40347597580277
  0
ARC
  5
1B88
  8
0
  6
CONTINUOUS
 62
     7
 10
-40.030342976115548
 20
41.579232952396183
 30
0.0
 40
1.0
 50
12.40347597580277
 51
65.000000000000654
  0
ARC
  5
1B89
  8
0
  6
CONTINUOUS
 62
     7
 10
-41.579232952396403
 20
40.030342976115769
 30
0.0
 40
1.0
 50
205.00000000000659
 51
257.59652402418698
  0
ARC
  5
1B8A
  8
0
  6
CONTINUOUS
 62
     7
 10
-42.929790124688402
 20
39.850560120541623
 30
0.0
 40
0.3
 50
25.000000000021188
 51
111.90142066018529
  0
ARC
  5
1B8B
  8
0
  6
CONTINUOUS
 62
     7
 10
-39.850560120541559
 20
42.929790124688111
 30
0.0
 40
0.3
 50
158.09857933981459
 51
245.0000000000006
  0
LINE
  5
1B8C
  8
0
  6
CONTINUOUS
 62
     7
 10
-39.607724714375031
 20
42.485540739432622
 30
0.0
 11
-39.977345599063817
 21
42.657897788577152
 31
0.0
  0
LINE
  5
1B8D
  8
0
  6
CONTINUOUS
 62
     7
 10
-42.48554073943307
 20
39.60772471437491
 30
0.0
 11
-42.657897788577372
 21
39.977345599063817
 31
0.0
  0
ARC
  5
1B8E
  8
0
  6
CONTINUOUS
 62
     7
 10
-41.300000000000011
 20
48.699999999999761
 30
0.0
 40
2.299999999999998
 50
347.59652402418379
 51
102.40347597580271
  0
ARC
  5
1B8F
  8
0
  6
CONTINUOUS
 62
     7
 10
-41.579232952396289
 20
49.969657023883997
 30
0.0
 40
1.0
 50
102.40347597579949
 51
155.0000000000006
  0
ARC
  5
1B90
  8
0
  6
CONTINUOUS
 62
     7
 10
-40.03034297611589
 20
48.420767047603249
 30
0.0
 40
1.0
 50
295.00000000000369
 51
347.59652402418379
  0
ARC
  5
1B91
  8
0
  6
CONTINUOUS
 62
     7
 10
-39.850560120541672
 20
47.07020987531115
 30
0.0
 40
0.3
 50
115.0000000000139
 51
201.9014206601781
  0
ARC
  5
1B92
  8
0
  6
CONTINUOUS
 62
     7
 10
-42.929790124688282
 20
50.14943987945793
 30
0.0
 40
0.3
 50
248.09857933981891
 51
335.00000000000063
  0
LINE
  5
1B93
  8
0
  6
CONTINUOUS
 62
     7
 10
-42.485540739432842
 20
50.392275285624628
 30
0.0
 11
-42.657897788577309
 21
50.022654400935721
 31
0.0
  0
LINE
  5
1B94
  8
0
  6
CONTINUOUS
 62
     7
 10
-39.607724714375081
 20
47.514459260566582
 30
0.0
 11
-39.977345599064002
 21
47.342102211422052
 31
0.0
  0
ARC
  5
1B95
  8
0
  6
CONTINUOUS
 62
     7
 10
-48.699999999999989
 20
3.6999999999997608
 30
0.0
 40
2.299999999999998
 50
77.596524024183807
 51
192.40347597580271
  0
ARC
  5
1B96
  8
0
  6
CONTINUOUS
 62
     7
 10
-49.96965702388411
 20
3.4207670476033618
 30
0.0
 40
1.0
 50
192.40347597579961
 51
244.99999999999631
  0
ARC
  5
1B97
  8
0
  6
CONTINUOUS
 62
     7
 10
-48.420767047603363
 20
4.9696570238837694
 30
0.0
 40
1.0
 50
25.000000000006629
 51
77.596524024183807
  0
ARC
  5
1B98
  8
0
  6
CONTINUOUS
 62
     7
 10
-45.0
 20
-0.0000000000000568
 30
0.0
 40
5.25
 50
158.0985793398219
 51
201.9014206601781
  0
ARC
  5
1B99
  8
0
  6
CONTINUOUS
 62
     7
 10
-45.0
 20
-0.0000000000000568
 30
0.0
 40
5.25
 50
247.57431843096151
 51
291.90142066017808
  0
ARC
  5
1B9A
  8
0
  6
CONTINUOUS
 62
     7
 10
-45.0
 20
-0.0000000000000568
 30
0.0
 40
5.25
 50
338.09857933982192
 51
21.901420660178101
  0
ARC
  5
1B9B
  8
0
  6
CONTINUOUS
 62
     7
 10
-45.0
 20
-0.0000000000000568
 30
0.0
 40
5.25
 50
68.098579339818883
 51
111.9014206601781
  0
ARC
  5
1B9C
  8
0
  6
CONTINUOUS
 62
     7
 10
-47.07020987531137
 20
5.1494398794579288
 30
0.0
 40
0.3
 50
205.0000000000139
 51
291.90142066018109
  0
ARC
  5
1B9D
  8
0
  6
CONTINUOUS
 62
     7
 10
-50.149439879458207
 20
2.0702098753113769
 30
0.0
 40
0.3
 50
338.09857933981891
 51
65.000000000000654
  0
LINE
  5
1B9E
  8
0
  6
CONTINUOUS
 62
     7
 10
-50.392275285624812
 20
2.514459260566809
 30
0.0
 11
-50.022654400935892
 21
2.3421022114224002
 31
0.0
  0
LINE
  5
1B9F
  8
0
  6
CONTINUOUS
 62
     7
 10
-47.514459260566689
 20
5.3922752856245211
 30
0.0
 11
-47.342102211422286
 21
5.0226544009357212
 31
0.0
  0
ARC
  5
1BA0
  8
0
  6
CONTINUOUS
 62
     7
 10
-48.699999999999818
 20
-3.700000000000216
 30
0.0
 40
2.299999999999998
 50
167.59652402418379
 51
282.40347597580279
  0
ARC
  5
1BA1
  8
0
  6
CONTINUOUS
 62
     7
 10
-48.420767047603483
 20
-4.9696570238844506
 30
0.0
 40
1.0
 50
282.40347597580279
 51
334.99999999999631
  0
ARC
  5
1BA2
  8
0
  6
CONTINUOUS
 62
     7
 10
-49.969657023883883
 20
-3.4207670476035901
 30
0.0
 40
1.0
 50
115.00000000000659
 51
167.59652402418379
  0
ARC
  5
1BA3
  8
0
  6
CONTINUOUS
 62
     7
 10
-50.1494398794581
 20
-2.070209875311718
 30
0.0
 40
0.3
 50
295.00000000001393
 51
21.90142066018112
  0
ARC
  5
1BA4
  8
0
  6
CONTINUOUS
 62
     7
 10
-47.07020987531137
 20
-5.1494398794583844
 30
0.0
 40
0.3
 50
68.09857933982191
 51
155.0000000000006
  0
LINE
  5
1BA5
  8
0
  6
CONTINUOUS
 62
     7
 10
-47.514459260566859
 20
-5.3922752856250886
 30
0.0
 11
-47.342102211422507
 21
-5.0226544009361751
 31
0.0
  0
LINE
  5
1BA6
  8
0
  6
CONTINUOUS
 62
     7
 10
-50.392275285624692
 20
-2.5144592605670359
 30
0.0
 11
-50.022654400935842
 21
-2.3421022114225698
 31
0.0
  0
ARC
  5
1BA7
  8
0
  6
CONTINUOUS
 62
     7
 10
-41.299999999999827
 20
-3.7000000000001019
 30
0.0
 40
2.299999999999998
 50
257.59652402418698
 51
12.40347597580277
  0
ARC
  5
1BA8
  8
0
  6
CONTINUOUS
 62
     7
 10
-40.030342976115548
 20
-3.420767047603817
 30
0.0
 40
1.0
 50
12.40347597580277
 51
65.000000000000654
  0
ARC
  5
1BA9
  8
0
  6
CONTINUOUS
 62
     7
 10
-41.579232952396403
 20
-4.9696570238842241
 30
0.0
 40
1.0
 50
205.00000000000659
 51
257.59652402418698
  0
ARC
  5
1BAA
  8
0
  6
CONTINUOUS
 62
     7
 10
-42.929790124688402
 20
-5.1494398794583844
 30
0.0
 40
0.3
 50
25.000000000021188
 51
111.90142066018529
  0
ARC
  5
1BAB
  8
0
  6
CONTINUOUS
 62
     7
 10
-39.850560120541559
 20
-2.070209875311718
 30
0.0
 40
0.3
 50
158.09857933981459
 51
245.0000000000006
  0
LINE
  5
1BAC
  8
0
  6
CONTINUOUS
 62
     7
 10
-39.607724714375031
 20
-2.5144592605672642
 30
0.0
 11
-39.977345599063817
 21
-2.342102211422854
 31
0.0
  0
LINE
  5
1BAD
  8
0
  6
CONTINUOUS
 62
     7
 10
-42.48554073943307
 20
-5.3922752856250886
 30
0.0
 11
-42.657897788577372
 21
-5.0226544009361751
 31
0.0
  0
ARC
  5
1BAE
  8
0
  6
CONTINUOUS
 62
     7
 10
-41.300000000000011
 20
3.6999999999997608
 30
0.0
 40
2.299999999999998
 50
347.59652402418379
 51
102.40347597580271
  0
ARC
  5
1BAF
  8
0
  6
CONTINUOUS
 62
     7
 10
-41.579232952396289
 20
4.9696570238839959
 30
0.0
 40
1.0
 50
102.40347597579949
 51
155.0000000000006
  0
ARC
  5
1BB0
  8
0
  6
CONTINUOUS
 62
     7
 10
-40.03034297611589
 20
3.420767047603249
 30
0.0
 40
1.0
 50
295.00000000000369
 51
347.59652402418379
  0
ARC
  5
1BB1
  8
0
  6
CONTINUOUS
 62
     7
 10
-39.850560120541672
 20
2.0702098753111491
 30
0.0
 40
0.3
 50
115.0000000000139
 51
201.9014206601781
  0
ARC
  5
1BB2
  8
0
  6
CONTINUOUS
 62
     7
 10
-42.929790124688282
 20
5.1494398794579288
 30
0.0
 40
0.3
 50
248.09857933981891
 51
335.00000000000063
  0
LINE
  5
1BB3
  8
0
  6
CONTINUOUS
 62
     7
 10
-42.485540739432842
 20
5.3922752856246339
 30
0.0
 11
-42.657897788577309
 21
5.0226544009357212
 31
0.0
  0
LINE
  5
1BB4
  8
0
  6
CONTINUOUS
 62
     7
 10
-39.607724714375081
 20
2.5144592605665821
 30
0.0
 11
-39.977345599064002
 21
2.3421022114220591
 31
0.0
  0
ARC
  5
1BB5
  8
0
  6
CONTINUOUS
 62
     7
 10
-3.6999999999998741
 20
3.6999999999997608
 30
0.0
 40
2.299999999999998
 50
77.596524024183807
 51
192.40347597580271
  0
ARC
  5
1BB6
  8
0
  6
CONTINUOUS
 62
     7
 10
-4.9696570238839959
 20
3.4207670476033618
 30
0.0
 40
1.0
 50
192.40347597579961
 51
244.99999999999631
  0
ARC
  5
1BB7
  8
0
  6
CONTINUOUS
 62
     7
 10
-3.420767047603305
 20
4.9696570238837694
 30
0.0
 40
1.0
 50
25.000000000006629
 51
77.596524024183807
  0
ARC
  5
1BB8
  8
0
  6
CONTINUOUS
 62
     7
 10
0.0000000000001137
 20
-0.0000000000000568
 30
0.0
 40
5.25
 50
158.0985793398219
 51
201.9014206601781
  0
ARC
  5
1BB9
  8
0
  6
CONTINUOUS
 62
     7
 10
0.0000000000001137
 20
-0.0000000000000568
 30
0.0
 40
5.25
 50
247.57431843096151
 51
291.90142066017808
  0
ARC
  5
1BBA
  8
0
  6
CONTINUOUS
 62
     7
 10
0.0000000000001137
 20
-0.0000000000000568
 30
0.0
 40
5.25
 50
338.09857933982192
 51
21.901420660178101
  0
ARC
  5
1BBB
  8
0
  6
CONTINUOUS
 62
     7
 10
0.0000000000001137
 20
-0.0000000000000568
 30
0.0
 40
5.25
 50
68.098579339818883
 51
111.9014206601781
  0
ARC
  5
1BBC
  8
0
  6
CONTINUOUS
 62
     7
 10
-2.0702098753113201
 20
5.1494398794579288
 30
0.0
 40
0.3
 50
205.0000000000139
 51
291.90142066018109
  0
ARC
  5
1BBD
  8
0
  6
CONTINUOUS
 62
     7
 10
-5.1494398794581002
 20
2.0702098753113769
 30
0.0
 40
0.3
 50
338.09857933981891
 51
65.000000000000654
  0
LINE
  5
1BBE
  8
0
  6
CONTINUOUS
 62
     7
 10
-5.3922752856246907
 20
2.514459260566809
 30
0.0
 11
-5.022654400935834
 21
2.3421022114224002
 31
0.0
  0
LINE
  5
1BBF
  8
0
  6
CONTINUOUS
 62
     7
 10
-2.5144592605665821
 20
5.3922752856245211
 30
0.0
 11
-2.3421022114221719
 21
5.0226544009357212
 31
0.0
  0
ARC
  5
1BC0
  8
0
  6
CONTINUOUS
 62
     7
 10
-3.6999999999998181
 20
-3.700000000000216
 30
0.0
 40
2.299999999999998
 50
167.59652402418379
 51
282.40347597580279
  0
ARC
  5
1BC1
  8
0
  6
CONTINUOUS
 62
     7
 10
-3.4207670476033618
 20
-4.9696570238844506
 30
0.0
 40
1.0
 50
282.40347597580279
 51
334.99999999999631
  0
ARC
  5
1BC2
  8
0
  6
CONTINUOUS
 62
     7
 10
-4.9696570238838262
 20
-3.4207670476035901
 30
0.0
 40
1.0
 50
115.00000000000659
 51
167.59652402418379
  0
ARC
  5
1BC3
  8
0
  6
CONTINUOUS
 62
     7
 10
-5.1494398794579856
 20
-2.070209875311718
 30
0.0
 40
0.3
 50
295.00000000001393
 51
21.90142066018112
  0
ARC
  5
1BC4
  8
0
  6
CONTINUOUS
 62
     7
 10
-2.0702098753113769
 20
-5.1494398794583844
 30
0.0
 40
0.3
 50
68.09857933982191
 51
155.0000000000006
  0
LINE
  5
1BC5
  8
0
  6
CONTINUOUS
 62
     7
 10
-2.514459260566809
 20
-5.3922752856250886
 30
0.0
 11
-2.3421022114224002
 21
-5.0226544009361751
 31
0.0
  0
LINE
  5
1BC6
  8
0
  6
CONTINUOUS
 62
     7
 10
-5.392275285624577
 20
-2.5144592605670359
 30
0.0
 11
-5.022654400935834
 21
-2.3421022114225698
 31
0.0
  0
ARC
  5
1BC7
  8
0
  6
CONTINUOUS
 62
     7
 10
3.700000000000272
 20
-3.7000000000001019
 30
0.0
 40
2.299999999999998
 50
257.59652402418698
 51
12.40347597580277
  0
ARC
  5
1BC8
  8
0
  6
CONTINUOUS
 62
     7
 10
4.9696570238845084
 20
-3.420767047603817
 30
0.0
 40
1.0
 50
12.40347597580277
 51
65.000000000000654
  0
ARC
  5
1BC9
  8
0
  6
CONTINUOUS
 62
     7
 10
3.4207670476037029
 20
-4.9696570238842241
 30
0.0
 40
1.0
 50
205.00000000000659
 51
257.59652402418698
  0
ARC
  5
1BCA
  8
0
  6
CONTINUOUS
 62
     7
 10
2.0702098753116038
 20
-5.1494398794583844
 30
0.0
 40
0.3
 50
25.000000000021188
 51
111.90142066018529
  0
ARC
  5
1BCB
  8
0
  6
CONTINUOUS
 62
     7
 10
5.1494398794584413
 20
-2.070209875311718
 30
0.0
 40
0.3
 50
158.09857933981459
 51
245.0000000000006
  0
LINE
  5
1BCC
  8
0
  6
CONTINUOUS
 62
     7
 10
5.3922752856251464
 20
-2.5144592605672642
 30
0.0
 11
5.0226544009361751
 21
-2.342102211422854
 31
0.0
  0
LINE
  5
1BCD
  8
0
  6
CONTINUOUS
 62
     7
 10
2.5144592605670359
 20
-5.3922752856250886
 30
0.0
 11
2.3421022114226271
 21
-5.0226544009361751
 31
0.0
  0
ARC
  5
1BCE
  8
0
  6
CONTINUOUS
 62
     7
 10
3.7000000000001592
 20
3.6999999999997608
 30
0.0
 40
2.299999999999998
 50
347.59652402418379
 51
102.40347597580271
  0
ARC
  5
1BCF
  8
0
  6
CONTINUOUS
 62
     7
 10
3.420767047603817
 20
4.9696570238839959
 30
0.0
 40
1.0
 50
102.40347597579949
 51
155.0000000000006
  0
ARC
  5
1BD0
  8
0
  6
CONTINUOUS
 62
     7
 10
4.9696570238842241
 20
3.420767047603249
 30
0.0
 40
1.0
 50
295.00000000000369
 51
347.59652402418379
  0
ARC
  5
1BD1
  8
0
  6
CONTINUOUS
 62
     7
 10
5.1494398794584413
 20
2.0702098753111491
 30
0.0
 40
0.3
 50
115.0000000000139
 51
201.9014206601781
  0
ARC
  5
1BD2
  8
0
  6
CONTINUOUS
 62
     7
 10
2.070209875311718
 20
5.1494398794579288
 30
0.0
 40
0.3
 50
248.09857933981891
 51
335.00000000000063
  0
LINE
  5
1BD3
  8
0
  6
CONTINUOUS
 62
     7
 10
2.5144592605671501
 20
5.3922752856246339
 30
0.0
 11
2.3421022114226271
 21
5.0226544009357212
 31
0.0
  0
LINE
  5
1BD4
  8
0
  6
CONTINUOUS
 62
     7
 10
5.3922752856249749
 20
2.5144592605665821
 30
0.0
 11
5.0226544009361191
 21
2.3421022114220591
 31
0.0
  0
ARC
  5
1BD5
  8
0
  6
CONTINUOUS
 62
     7
 10
-45.0
 20
21.99999999999994
 30
0.0
 40
15.0
 50
64.417012629510197
 51
115.5829873704898
  0
ARC
  5
1BD6
  8
0
  6
CONTINUOUS
 62
     7
 10
-51.606814663665197
 20
35.800000000000068
 30
0.0
 40
0.3
 50
270.0000000000033
 51
295.58298737048978
  0
ARC
  5
1BD7
  8
0
  6
CONTINUOUS
 62
     7
 10
-38.393185336334
 20
35.799999999999613
 30
0.0
 40
0.3
 50
244.4170126295102
 51
270.0
  0
LINE
  5
1BD8
  8
0
  6
CONTINUOUS
 62
     7
 10
-51.96446609406717
 20
9.4999999999997726
 30
0.0
 11
-51.606814663665091
 21
9.4999999999997726
 31
0.0
  0
LINE
  5
1BD9
  8
0
  6
CONTINUOUS
 62
     7
 10
-38.393185336334
 20
9.4999999999999432
 30
0.0
 11
-37.187005768508811
 21
9.4999999999999432
 31
0.0
  0
ARC
  5
1BDA
  8
0
  6
CONTINUOUS
 62
     7
 10
-51.96446609406717
 20
10.499999999999771
 30
0.0
 40
1.0
 50
224.9999999999954
 51
270.0
  0
ARC
  5
1BDB
  8
0
  6
CONTINUOUS
 62
     7
 10
-45.0
 20
22.99999999999994
 30
0.0
 40
15.0
 50
244.4170126295102
 51
295.58298737049421
  0
ARC
  5
1BDC
  8
0
  6
CONTINUOUS
 62
     7
 10
-51.606814663665197
 20
9.1999999999995907
 30
0.0
 40
0.3
 50
64.417012629510197
 51
89.999999999996746
  0
ARC
  5
1BDD
  8
0
  6
CONTINUOUS
 62
     7
 10
-38.393185336334
 20
9.2000000000001023
 30
0.0
 40
0.3
 50
90.0
 51
115.5829873704898
  0
ARC
  5
1BE0
  8
0
  6
CONTINUOUS
 62
     7
 10
-34.5
 20
7.8129942314910741
 30
0.0
 40
1.0
 50
135.0
 51
180.0
  0
LINE
  5
1BE1
  8
0
  6
CONTINUOUS
 62
     7
 10
-35.500000000000171
 20
-6.9644660940672329
 30
0.0
 11
-35.500000000000171
 21
-6.6068146636652614
 31
0.0
  0
LINE
  5
1BE2
  8
0
  6
CONTINUOUS
 62
     7
 10
-35.499999999999893
 20
6.6068146636659426
 30
0.0
 11
-35.499999999999893
 21
7.8129942314910741
 31
0.0
  0
ARC
  5
1BE3
  8
0
  6
CONTINUOUS
 62
     7
 10
-34.500000000000171
 20
-6.9644660940672329
 30
0.0
 40
1.0
 50
180.0
 51
225.0000000000046
  0
ARC
  5
1BE4
  8
0
  6
CONTINUOUS
 62
     7
 10
-22.00000000000006
 20
-0.0000000000000568
 30
0.0
 40
15.0
 50
154.41701262950579
 51
205.5829873704912
  0
ARC
  5
1BE5
  8
0
  6
CONTINUOUS
 62
     7
 10
-35.800000000000182
 20
-6.6068146636652614
 30
0.0
 40
0.3
 50
0.0000000000032569
 51
25.58298737049121
  0
ARC
  5
1BE6
  8
0
  6
CONTINUOUS
 62
     7
 10
-35.799999999999898
 20
6.6068146636659426
 30
0.0
 40
0.3
 50
334.41701262950869
 51
0.0
  0
LINE
  5
1BE7
  8
0
  6
CONTINUOUS
 62
     7
 10
-9.5000000000000568
 20
-6.9644660940674044
 30
0.0
 11
-9.5000000000000568
 21
-6.6068146636652614
 31
0.0
  0
LINE
  5
1BE8
  8
0
  6
CONTINUOUS
 62
     7
 10
-9.5000000000002842
 20
6.6068146636657721
 30
0.0
 11
-9.5000000000002842
 21
6.9644660940672329
 31
0.0
  0
LINE
  5
1BE9
  8
0
  6
CONTINUOUS
 62
     7
 10
-12.20710678118666
 20
-10.085786437627
 30
0.0
 11
-9.7928932188135605
 21
-7.6715728752538999
 31
0.0
  0
LINE
  5
1BEA
  8
0
  6
CONTINUOUS
 62
     7
 10
-12.20710678118666
 20
10.08578643762678
 30
0.0
 11
-9.7928932188135605
 21
7.6715728752537302
 31
0.0
  0
ARC
  5
1BEB
  8
0
  6
CONTINUOUS
 62
     7
 10
-11.500000000000171
 20
10.79289321881339
 30
0.0
 40
0.9999999999999998
 50
180.0
 51
225.0
  0
ARC
  5
1BEC
  8
0
  6
CONTINUOUS
 62
     7
 10
-10.500000000000281
 20
6.9644660940672329
 30
0.0
 40
0.9999999999999998
 50
0.0
 51
45.0
  0
ARC
  5
1BED
  8
0
  6
CONTINUOUS
 62
     7
 10
-10.50000000000006
 20
-6.9644660940674044
 30
0.0
 40
0.9999999999999998
 50
315.0
 51
0.0
  0
ARC
  5
1BEE
  8
0
  6
CONTINUOUS
 62
     7
 10
-11.500000000000171
 20
-10.79289321881356
 30
0.0
 40
0.9999999999999998
 50
135.0
 51
180.0
  0
ARC
  5
1BEF
  8
0
  6
CONTINUOUS
 62
     7
 10
-23.000000000000171
 20
-0.0000000000000568
 30
0.0
 40
15.0
 50
334.41701262951022
 51
25.58298737049121
  0
ARC
  5
1BF0
  8
0
  6
CONTINUOUS
 62
     7
 10
-9.1999999999999886
 20
-6.6068146636652614
 30
0.0
 40
0.2999999999999999
 50
154.4170126295102
 51
179.9999999999967
  0
ARC
  5
1BF1
  8
0
  6
CONTINUOUS
 62
     7
 10
-9.2000000000003297
 20
6.6068146636657721
 30
0.0
 40
0.2999999999999999
 50
180.0
 51
205.5829873704898
  0
LINE
  5
1BF2
  8
0
  6
CONTINUOUS
 62
     7
 10
-27.868659050452891
 20
65.499999999999943
 30
0.0
 11
-33.100000000000023
 21
65.499999999999943
 31
0.0
  0
LINE
  5
1BF3
  8
0
  6
CONTINUOUS
 62
     7
 10
-33.100000000000023
 20
62.767949192430869
 30
0.0
 11
-33.100000000000023
 21
57.899999999999629
 31
0.0
  0
ARC
  5
1BF4
  8
0
  6
CONTINUOUS
 62
     7
 10
-32.10000000000003
 20
57.899999999999629
 30
0.0
 40
1.0
 50
180.0
 51
270.0
  0
LINE
  5
1BF5
  8
0
  6
CONTINUOUS
 62
     7
 10
-27.2320508075689
 20
56.89999999999992
 30
0.0
 11
-32.10000000000003
 21
56.89999999999975
 31
0.0
  0
LINE
  5
1BF6
  8
0
  6
CONTINUOUS
 62
     7
 10
-24.5
 20
62.131340949546939
 30
0.0
 11
-24.5
 21
56.89999999999992
 31
0.0
  0
ARC
  5
1BF7
  8
0
  6
CONTINUOUS
 62
     7
 10
-33.100000000000023
 20
64.499999999999943
 30
0.0
 40
1.0
 50
90.0
 51
239.99999999999949
  0
ARC
  5
1BF8
  8
0
  6
CONTINUOUS
 62
     7
 10
-25.5
 20
56.89999999999992
 30
0.0
 40
1.0
 50
210.00000000000051
 51
0.0
  0
ARC
  5
1BF9
  8
0
  6
CONTINUOUS
 62
     7
 10
-27.2320508075689
 20
55.89999999999992
 30
0.0
 40
1.0
 50
30.000000000000551
 51
90.0
  0
ARC
  5
1BFA
  8
0
  6
CONTINUOUS
 62
     7
 10
-34.100000000000023
 20
62.767949192430869
 30
0.0
 40
1.0
 50
0.0
 51
59.99999999999946
  0
LINE
  5
1BFB
  8
0
  6
CONTINUOUS
 62
     7
 10
-62.131340949547102
 20
-20.50000000000006
 30
0.0
 11
-56.89999999999997
 21
-20.50000000000006
 31
0.0
  0
LINE
  5
1BFC
  8
0
  6
CONTINUOUS
 62
     7
 10
-56.89999999999997
 20
-17.7679491924311
 30
0.0
 11
-56.89999999999997
 21
-12.89999999999992
 31
0.0
  0
ARC
  5
1BFD
  8
0
  6
CONTINUOUS
 62
     7
 10
-57.899999999999977
 20
-12.89999999999992
 30
0.0
 40
1.0
 50
0.0
 51
90.0
  0
LINE
  5
1BFE
  8
0
  6
CONTINUOUS
 62
     7
 10
-62.767949192431097
 20
-11.900000000000089
 30
0.0
 11
-57.899999999999977
 21
-11.89999999999992
 31
0.0
  0
LINE
  5
1BFF
  8
0
  6
CONTINUOUS
 62
     7
 10
-65.5
 20
-17.13134094954728
 30
0.0
 11
-65.5
 21
-11.900000000000089
 31
0.0
  0
ARC
  5
1C00
  8
0
  6
CONTINUOUS
 62
     7
 10
-56.89999999999997
 20
-19.50000000000006
 30
0.0
 40
1.0
 50
270.0
 51
60.000000000003908
  0
ARC
  5
1C01
  8
0
  6
CONTINUOUS
 62
     7
 10
-64.5
 20
-11.900000000000089
 30
0.0
 40
1.0
 50
30.000000000000551
 51
180.0
  0
ARC
  5
1C02
  8
0
  6
CONTINUOUS
 62
     7
 10
-62.767949192431097
 20
-10.900000000000089
 30
0.0
 40
1.0
 50
210.00000000000051
 51
270.0
  0
ARC
  5
1C03
  8
0
  6
CONTINUOUS
 62
     7
 10
-55.899999999999977
 20
-17.7679491924311
 30
0.0
 40
1.0
 50
180.0
 51
240.00000000000389
  0
LINE
  5
1C04
  8
0
  6
CONTINUOUS
 62
     7
 10
17.131340949547109
 20
-20.50000000000006
 30
0.0
 11
11.89999999999997
 21
-20.50000000000006
 31
0.0
  0
LINE
  5
1C05
  8
0
  6
CONTINUOUS
 62
     7
 10
11.89999999999997
 20
-17.7679491924311
 30
0.0
 11
11.89999999999997
 21
-12.89999999999992
 31
0.0
  0
ARC
  5
1C06
  8
0
  6
CONTINUOUS
 62
     7
 10
12.899999999999981
 20
-12.89999999999992
 30
0.0
 40
1.0
 50
90.0
 51
180.0
  0
LINE
  5
1C07
  8
0
  6
CONTINUOUS
 62
     7
 10
17.7679491924311
 20
-11.900000000000089
 30
0.0
 11
12.899999999999981
 21
-11.89999999999992
 31
0.0
  0
LINE
  5
1C08
  8
0
  6
CONTINUOUS
 62
     7
 10
20.5
 20
-17.13134094954728
 30
0.0
 11
20.5
 21
-11.900000000000089
 31
0.0
  0
ARC
  5
1C09
  8
0
  6
CONTINUOUS
 62
     7
 10
11.89999999999997
 20
-19.50000000000006
 30
0.0
 40
1.0
 50
119.99999999999611
 51
270.0
  0
ARC
  5
1C0A
  8
0
  6
CONTINUOUS
 62
     7
 10
19.5
 20
-11.900000000000089
 30
0.0
 40
1.0
 50
0.0
 51
149.9999999999994
  0
ARC
  5
1C0B
  8
0
  6
CONTINUOUS
 62
     7
 10
17.7679491924311
 20
-10.900000000000089
 30
0.0
 40
1.0
 50
270.0
 51
329.99999999999949
  0
ARC
  5
1C0C
  8
0
  6
CONTINUOUS
 62
     7
 10
10.899999999999981
 20
-17.7679491924311
 30
0.0
 40
1.0
 50
299.99999999999608
 51
0.0
  0
LINE
  5
1C0D
  8
0
  6
CONTINUOUS
 62
     7
 10
17.131340949548129
 20
20.499999999998408
 30
0.0
 11
11.900000000001681
 21
20.49999999999887
 31
0.0
  0
LINE
  5
1C0E
  8
0
  6
CONTINUOUS
 62
     7
 10
11.90000000000151
 20
17.76794919242991
 30
0.0
 11
11.900000000001111
 21
12.899999999998609
 31
0.0
  0
ARC
  5
1C0F
  8
0
  6
CONTINUOUS
 62
     7
 10
12.900000000001111
 20
12.899999999998609
 30
0.0
 40
1.0
 50
180.0
 51
269.99999999999352
  0
LINE
  5
1C10
  8
0
  6
CONTINUOUS
 62
     7
 10
17.76794919243207
 20
11.89999999999827
 30
0.0
 11
12.900000000001
 21
11.89999999999878
 31
0.0
  0
LINE
  5
1C11
  8
0
  6
CONTINUOUS
 62
     7
 10
20.500000000001311
 20
17.13134094954637
 30
0.0
 11
20.50000000000097
 21
11.8999999999981
 31
0.0
  0
ARC
  5
1C12
  8
0
  6
CONTINUOUS
 62
     7
 10
11.900000000001681
 20
19.49999999999886
 30
0.0
 40
1.0
 50
89.999999999996746
 51
239.99999999999221
  0
ARC
  5
1C13
  8
0
  6
CONTINUOUS
 62
     7
 10
19.500000000000959
 20
11.89999999999827
 30
0.0
 40
1.0
 50
209.99999999999611
 51
0.0
  0
ARC
  5
1C14
  8
0
  6
CONTINUOUS
 62
     7
 10
17.76794919243207
 20
10.89999999999827
 30
0.0
 40
1.0
 50
29.999999999996088
 51
89.999999999996746
  0
ARC
  5
1C15
  8
0
  6
CONTINUOUS
 62
     7
 10
10.90000000000151
 20
17.76794919243002
 30
0.0
 40
1.0
 50
0.0
 51
59.999999999992177
  0
LINE
  5
1C34
  8
0
  6
CONTINUOUS
 62
     7
 10
-52.37867965644034
 20
54.499999999999773
 30
0.0
 11
-48.499999999999879
 21
54.499999999999773
 31
0.0
  0
LINE
  5
1C35
  8
0
  6
CONTINUOUS
 62
     7
 10
-43.653589838486191
 20
54.499999999999773
 30
0.0
 11
-37.621320343559489
 21
54.499999999999773
 31
0.0
  0
ARC
  5
1C36
  8
0
  6
CONTINUOUS
 62
     7
 10
-43.653589838486191
 20
53.99999999999995
 30
0.0
 40
0.5
 50
90.0
 51
120.0000000000005
  0
LINE
  5
1C37
  8
0
  6
CONTINUOUS
 62
     7
 10
-35.499999999999893
 20
52.378679656440283
 30
0.0
 11
-35.499999999999893
 21
48.499999999999773
 31
0.0
  0
LINE
  5
1C38
  8
0
  6
CONTINUOUS
 62
     7
 10
-35.499999999999893
 20
43.653589838486077
 30
0.0
 11
-35.499999999999893
 21
37.621320343559432
 31
0.0
  0
LINE
  5
1C39
  8
0
  6
CONTINUOUS
 62
     7
 10
-54.499999999999879
 20
52.378679656440283
 30
0.0
 11
-54.499999999999879
 21
46.346410161513568
 31
0.0
  0
LINE
  5
1C3A
  8
0
  6
CONTINUOUS
 62
     7
 10
-54.499999999999879
 20
41.499999999999943
 30
0.0
 11
-54.499999999999879
 21
37.621320343559553
 31
0.0
  0
LINE
  5
1C3B
  8
0
  6
CONTINUOUS
 62
     7
 10
-46.096410161513688
 20
54.433012701892089
 30
0.0
 11
-44.999999999999879
 21
53.799999999999777
 31
0.0
  0
LINE
  5
1C3C
  8
0
  6
CONTINUOUS
 62
     7
 10
-43.903589838486198
 20
54.433012701892089
 30
0.0
 11
-44.999999999999879
 21
53.799999999999777
 31
0.0
  0
LINE
  5
1C3D
  8
0
  6
CONTINUOUS
 62
     7
 10
-48.499999999999879
 20
54.499999999999773
 30
0.0
 11
-46.915155097746492
 21
54.248985227155167
 31
0.0
  0
ARC
  5
1C3E
  8
0
  6
CONTINUOUS
 62
     7
 10
-46.346410161513688
 20
53.99999999999995
 30
0.0
 40
0.5
 50
59.99999999999946
 51
120.0000000000005
  0
LINE
  5
1C3F
  8
0
  6
CONTINUOUS
 62
     7
 10
-46.915155097746492
 20
54.248985227155167
 30
0.0
 11
-46.596410161513681
 21
54.433012701892089
 31
0.0
  0
ARC
  5
1C40
  8
0
  6
CONTINUOUS
 62
     7
 10
-53.999999999999879
 20
46.346410161513568
 30
0.0
 40
0.5
 50
180.0
 51
210.00000000000051
  0
LINE
  5
1C41
  8
0
  6
CONTINUOUS
 62
     7
 10
-54.433012701892039
 20
43.903589838485971
 30
0.0
 11
-53.799999999999841
 21
44.999999999999943
 31
0.0
  0
LINE
  5
1C42
  8
0
  6
CONTINUOUS
 62
     7
 10
-54.433012701892039
 20
46.096410161513568
 30
0.0
 11
-53.799999999999841
 21
44.999999999999943
 31
0.0
  0
LINE
  5
1C43
  8
0
  6
CONTINUOUS
 62
     7
 10
-54.499999999999879
 20
41.499999999999943
 30
0.0
 11
-54.248985227155288
 21
43.084844902253103
 31
0.0
  0
ARC
  5
1C44
  8
0
  6
CONTINUOUS
 62
     7
 10
-53.999999999999879
 20
43.653589838485964
 30
0.0
 40
0.5
 50
149.9999999999994
 51
210.00000000000051
  0
LINE
  5
1C45
  8
0
  6
CONTINUOUS
 62
     7
 10
-54.248985227155288
 20
43.084844902253103
 30
0.0
 11
-54.433012701892039
 21
43.403589838485971
 31
0.0
  0
ARC
  5
1C46
  8
0
  6
CONTINUOUS
 62
     7
 10
-35.999999999999893
 20
43.653589838486077
 30
0.0
 40
0.5
 50
0.0
 51
30.000000000000551
  0
LINE
  5
1C47
  8
0
  6
CONTINUOUS
 62
     7
 10
-35.566987298107676
 20
46.096410161513738
 30
0.0
 11
-36.199999999999882
 21
44.999999999999943
 31
0.0
  0
LINE
  5
1C48
  8
0
  6
CONTINUOUS
 62
     7
 10
-35.566987298107676
 20
43.903589838486198
 30
0.0
 11
-36.199999999999882
 21
44.999999999999943
 31
0.0
  0
LINE
  5
1C49
  8
0
  6
CONTINUOUS
 62
     7
 10
-35.499999999999893
 20
48.499999999999943
 30
0.0
 11
-35.751014772844478
 21
46.915155097746428
 31
0.0
  0
ARC
  5
1C4A
  8
0
  6
CONTINUOUS
 62
     7
 10
-35.999999999999893
 20
46.346410161513688
 30
0.0
 40
0.5
 50
329.99999999999949
 51
30.000000000000551
  0
LINE
  5
1C4B
  8
0
  6
CONTINUOUS
 62
     7
 10
-35.751014772844478
 20
46.915155097746428
 30
0.0
 11
-35.566987298107676
 21
46.596410161513752
 31
0.0
  0
LINE
  5
1C4C
  8
0
  6
CONTINUOUS
 62
     7
 10
-52.37867965644039
 20
-9.5000000000000568
 30
0.0
 11
-46.346410161513859
 21
-9.5000000000000568
 31
0.0
  0
LINE
  5
1C4D
  8
0
  6
CONTINUOUS
 62
     7
 10
-41.50000000000005
 20
-9.5000000000000568
 30
0.0
 11
-37.62132034355983
 21
-9.5000000000000568
 31
0.0
  0
LINE
  5
1C4E
  8
0
  6
CONTINUOUS
 62
     7
 10
-54.500000000000057
 20
7.378679656440112
 30
0.0
 11
-54.500000000000057
 21
1.3464101615136881
 31
0.0
  0
LINE
  5
1C4F
  8
0
  6
CONTINUOUS
 62
     7
 10
-54.500000000000057
 20
-3.500000000000056
 30
0.0
 11
-54.500000000000057
 21
-7.3786796564404531
 31
0.0
  0
ARC
  5
1C50
  8
0
  6
CONTINUOUS
 62
     7
 10
-54.00000000000005
 20
1.3464101615136881
 30
0.0
 40
0.5
 50
180.0
 51
210.00000000000051
  0
LINE
  5
1C51
  8
0
  6
CONTINUOUS
 62
     7
 10
-54.433012701892324
 20
-1.096410161513915
 30
0.0
 11
-53.800000000000061
 21
-0.0000000000000568
 31
0.0
  0
LINE
  5
1C52
  8
0
  6
CONTINUOUS
 62
     7
 10
-54.433012701892324
 20
1.0964101615136881
 30
0.0
 11
-53.800000000000061
 21
-0.0000000000000568
 31
0.0
  0
LINE
  5
1C53
  8
0
  6
CONTINUOUS
 62
     7
 10
-54.500000000000057
 20
-3.500000000000056
 30
0.0
 11
-54.248985227155508
 21
-1.9151550977467191
 31
0.0
  0
ARC
  5
1C54
  8
0
  6
CONTINUOUS
 62
     7
 10
-54.00000000000005
 20
-1.346410161513915
 30
0.0
 40
0.5
 50
149.9999999999994
 51
210.00000000000051
  0
LINE
  5
1C55
  8
0
  6
CONTINUOUS
 62
     7
 10
-54.248985227155508
 20
-1.9151550977467191
 30
0.0
 11
-54.433012701892324
 21
-1.596410161513915
 31
0.0
  0
ARC
  5
1C56
  8
0
  6
CONTINUOUS
 62
     7
 10
-46.346410161513859
 20
-9.0000000000000568
 30
0.0
 40
0.5
 50
270.0
 51
300.00000000000051
  0
LINE
  5
1C57
  8
0
  6
CONTINUOUS
 62
     7
 10
-43.903589838486297
 20
-9.4330127018923804
 30
0.0
 11
-45.000000000000057
 21
-8.8000000000000682
 31
0.0
  0
LINE
  5
1C58
  8
0
  6
CONTINUOUS
 62
     7
 10
-46.096410161513852
 20
-9.4330127018923804
 30
0.0
 11
-45.000000000000057
 21
-8.8000000000000682
 31
0.0
  0
LINE
  5
1C59
  8
0
  6
CONTINUOUS
 62
     7
 10
-41.50000000000005
 20
-9.5000000000000568
 30
0.0
 11
-43.084844902253558
 21
-9.2489852271555151
 31
0.0
  0
ARC
  5
1C5A
  8
0
  6
CONTINUOUS
 62
     7
 10
-43.653589838486312
 20
-9.0000000000000568
 30
0.0
 40
0.5
 50
239.99999999999949
 51
300.00000000000051
  0
LINE
  5
1C5B
  8
0
  6
CONTINUOUS
 62
     7
 10
-43.084844902253558
 20
-9.2489852271555151
 30
0.0
 11
-43.403589838486312
 21
-9.4330127018923804
 31
0.0
  0
LINE
  5
1C5C
  8
0
  6
CONTINUOUS
 62
     7
 10
-7.3786796564403403
 20
-9.5000000000000568
 30
0.0
 11
-1.3464101615138011
 21
-9.5000000000000568
 31
0.0
  0
LINE
  5
1C5D
  8
0
  6
CONTINUOUS
 62
     7
 10
3.5
 20
-9.5000000000000568
 30
0.0
 11
7.3786796564403971
 21
-9.5000000000000568
 31
0.0
  0
LINE
  5
1C5E
  8
0
  6
CONTINUOUS
 62
     7
 10
-7.3786796564403971
 20
9.4999999999999432
 30
0.0
 11
-3.5
 21
9.4999999999999432
 31
0.0
  0
LINE
  5
1C5F
  8
0
  6
CONTINUOUS
 62
     7
 10
1.3464101615138011
 20
9.4999999999999432
 30
0.0
 11
7.3786796564403971
 21
9.4999999999999432
 31
0.0
  0
ARC
  5
1C60
  8
0
  6
CONTINUOUS
 62
     7
 10
1.3464101615138011
 20
8.9999999999999432
 30
0.0
 40
0.5
 50
90.0
 51
120.0000000000005
  0
LINE
  5
1C61
  8
0
  6
CONTINUOUS
 62
     7
 10
9.5
 20
7.3786796564402826
 30
0.0
 11
9.5
 21
3.4999999999999432
 31
0.0
  0
LINE
  5
1C62
  8
0
  6
CONTINUOUS
 62
     7
 10
9.5
 20
-1.3464101615138011
 30
0.0
 11
9.5
 21
-7.3786796564405668
 31
0.0
  0
LINE
  5
1C63
  8
0
  6
CONTINUOUS
 62
     7
 10
-1.0964101615138011
 20
9.4330127018920962
 30
0.0
 11
0.0
 21
8.7999999999998977
 31
0.0
  0
LINE
  5
1C64
  8
0
  6
CONTINUOUS
 62
     7
 10
1.0964101615136881
 20
9.4330127018920962
 30
0.0
 11
0.0
 21
8.7999999999998977
 31
0.0
  0
LINE
  5
1C65
  8
0
  6
CONTINUOUS
 62
     7
 10
-3.5
 20
9.4999999999999432
 30
0.0
 11
-1.915155097746605
 21
9.2489852271552309
 31
0.0
  0
ARC
  5
1C66
  8
0
  6
CONTINUOUS
 62
     7
 10
-1.3464101615138011
 20
8.9999999999999432
 30
0.0
 40
0.5
 50
59.99999999999946
 51
120.0000000000005
  0
LINE
  5
1C67
  8
0
  6
CONTINUOUS
 62
     7
 10
-1.915155097746605
 20
9.2489852271552309
 30
0.0
 11
-1.5964101615138011
 21
9.4330127018920962
 31
0.0
  0
ARC
  5
1C68
  8
0
  6
CONTINUOUS
 62
     7
 10
-1.3464101615138011
 20
-9.0000000000000568
 30
0.0
 40
0.5
 50
270.0
 51
300.00000000000051
  0
LINE
  5
1C69
  8
0
  6
CONTINUOUS
 62
     7
 10
1.0964101615138011
 20
-9.4330127018923804
 30
0.0
 11
0.0
 21
-8.8000000000000682
 31
0.0
  0
LINE
  5
1C6A
  8
0
  6
CONTINUOUS
 62
     7
 10
-1.0964101615138011
 20
-9.4330127018923804
 30
0.0
 11
0.0
 21
-8.8000000000000682
 31
0.0
  0
LINE
  5
1C6B
  8
0
  6
CONTINUOUS
 62
     7
 10
3.5
 20
-9.5000000000000568
 30
0.0
 11
1.915155097746492
 21
-9.2489852271555151
 31
0.0
  0
ARC
  5
1C6C
  8
0
  6
CONTINUOUS
 62
     7
 10
1.3464101615138011
 20
-9.0000000000000568
 30
0.0
 40
0.5
 50
239.99999999999949
 51
300.00000000000051
  0
LINE
  5
1C6D
  8
0
  6
CONTINUOUS
 62
     7
 10
1.915155097746492
 20
-9.2489852271555151
 30
0.0
 11
1.5964101615138011
 21
-9.4330127018923804
 31
0.0
  0
ARC
  5
1C6E
  8
0
  6
CONTINUOUS
 62
     7
 10
9.0
 20
-1.3464101615138011
 30
0.0
 40
0.5
 50
0.0
 51
30.000000000000551
  0
LINE
  5
1C6F
  8
0
  6
CONTINUOUS
 62
     7
 10
9.433012701892153
 20
1.0964101615137449
 30
0.0
 11
8.8000000000000114
 21
-0.0000000000000568
 31
0.0
  0
LINE
  5
1C70
  8
0
  6
CONTINUOUS
 62
     7
 10
9.433012701892153
 20
-1.0964101615138011
 30
0.0
 11
8.8000000000000114
 21
-0.0000000000000568
 31
0.0
  0
LINE
  5
1C71
  8
0
  6
CONTINUOUS
 62
     7
 10
9.5
 20
3.4999999999999432
 30
0.0
 11
9.2489852271554582
 21
1.9151550977464351
 31
0.0
  0
ARC
  5
1C72
  8
0
  6
CONTINUOUS
 62
     7
 10
9.0
 20
1.3464101615137449
 30
0.0
 40
0.5
 50
329.99999999999949
 51
30.000000000000551
  0
LINE
  5
1C73
  8
0
  6
CONTINUOUS
 62
     7
 10
9.2489852271554582
 20
1.9151550977464351
 30
0.0
 11
9.433012701892153
 21
1.5964101615137449
 31
0.0
  0
ARC
  5
1C83
  8
0
  6
CONTINUOUS
 62
     7
 10
-67.5
 20
67.499999999999943
 30
0.0
 40
5.1500000000000004
 50
299.19640440962939
 51
330.80359559037061
  0
ARC
  5
1C84
  8
0
  6
CONTINUOUS
 62
     7
 10
-64.500000000000114
 20
62.131340949546939
 30
0.0
 40
1.0
 50
119.1964044096265
 51
180.0
  0
ARC
  5
1C85
  8
0
  6
CONTINUOUS
 62
     7
 10
-62.131340949547102
 20
64.499999999999943
 30
0.0
 40
1.0
 50
90.0
 51
150.80359559037061
  0
ARC
  5
1C86
  8
0
  6
CONTINUOUS
 62
     7
 10
-22.5
 20
67.499999999999943
 30
0.0
 40
5.1500000000000004
 50
209.19640440962939
 51
240.80359559037501
  0
ARC
  5
1C87
  8
0
  6
CONTINUOUS
 62
     7
 10
-25.49999999999989
 20
62.131340949546939
 30
0.0
 40
1.0
 50
0.0
 51
60.803595590375068
  0
ARC
  5
1C88
  8
0
  6
CONTINUOUS
 62
     7
 10
-27.868659050452891
 20
64.499999999999943
 30
0.0
 40
1.0
 50
29.19640440962937
 51
90.0
  0
ARC
  5
1C89
  8
0
  6
CONTINUOUS
 62
     7
 10
-67.5
 20
-22.50000000000006
 30
0.0
 40
5.1500000000000004
 50
29.19640440962494
 51
60.803595590370627
  0
ARC
  5
1C8A
  8
0
  6
CONTINUOUS
 62
     7
 10
-64.500000000000114
 20
-17.13134094954728
 30
0.0
 40
1.0
 50
180.0
 51
240.80359559037061
  0
ARC
  5
1C8B
  8
0
  6
CONTINUOUS
 62
     7
 10
-62.131340949547102
 20
-19.50000000000006
 30
0.0
 40
1.0
 50
209.1964044096249
 51
270.0
  0
ARC
  5
1C8C
  8
0
  6
CONTINUOUS
 62
     7
 10
22.5
 20
-22.50000000000006
 30
0.0
 40
5.1500000000000004
 50
119.1964044096249
 51
150.8035955903735
  0
ARC
  5
1C8D
  8
0
  6
CONTINUOUS
 62
     7
 10
19.5
 20
-17.13134094954728
 30
0.0
 40
1.0
 50
299.1964044096249
 51
0.0
  0
ARC
  5
1C8E
  8
0
  6
CONTINUOUS
 62
     7
 10
17.131340949547109
 20
-19.50000000000006
 30
0.0
 40
1.0
 50
270.0
 51
330.8035955903735
  0
ARC
  5
1C8F
  8
0
  6
CONTINUOUS
 62
     7
 10
22.500000000000171
 20
22.49999999999994
 30
0.0
 40
5.1500000000000004
 50
209.19640440964389
 51
240.8035955903851
  0
ARC
  5
1C90
  8
0
  6
CONTINUOUS
 62
     7
 10
17.131340949548129
 20
19.499999999998462
 30
0.0
 40
1.0
 50
29.19640440964676
 51
89.999999999996746
  0
ARC
  5
1C91
  8
0
  6
CONTINUOUS
 62
     7
 10
19.5000000000013
 20
17.13134094954637
 30
0.0
 40
1.0
 50
359.99999999999352
 51
60.803595590385193
  0
CIRCLE
  5
1C98
  8
0
  6
PHANTOM
 62
     3
 10
-45.0
 20
44.999999999999943
 30
0.0
 40
5.25
  0
CIRCLE
  5
1C99
  8
0
  6
PHANTOM
 62
     3
 10
-45.0
 20
-0.0000000000000568
 30
0.0
 40
5.25
  0
CIRCLE
  5
1C9A
  8
0
  6
PHANTOM
 62
     3
 10
0.0000000000001137
 20
-0.0000000000000568
 30
0.0
 40
5.25
  0
LINE
  5
1CDD
  8
0
  6
CONTINUOUS
 62
     7
 10
110.2982749932431
 20
67.499999999999943
 30
0.0
 11
160.2982749932431
 21
67.499999999999943
 31
0.0
  0
LINE
  5
1CDE
  8
0
  6
CONTINUOUS
 62
     7
 10
110.2982749932431
 20
22.50000000000006
 30
0.0
 11
160.2982749932431
 21
22.50000000000006
 31
0.0
  0
LINE
  5
1CDF
  8
0
  6
CONTINUOUS
 62
     7
 10
110.2982749932431
 20
-22.50000000000006
 30
0.0
 11
160.2982749932431
 21
-22.50000000000006
 31
0.0
  0
LINE
  5
1CE0
  8
0
  6
CONTINUOUS
 62
     7
 10
110.2982749932431
 20
67.499999999999943
 30
0.0
 11
110.2982749932431
 21
-22.50000000000006
 31
0.0
  0
LINE
  5
1CE1
  8
0
  6
CONTINUOUS
 62
     7
 10
160.2982749932431
 20
67.499999999999943
 30
0.0
 11
160.2982749932431
 21
-22.50000000000006
 31
0.0
  0
LINE
  5
1CE2
  8
0
  6
CONTINUOUS
 62
     7
 10
110.2982749932431
 20
49.999999999999901
 30
0.0
 11
160.2982749932431
 21
49.999999999999901
 31
0.0
  0
LINE
  5
1CE3
  8
0
  6
CONTINUOUS
 62
     7
 10
110.2982749932431
 20
48.499999999999773
 30
0.0
 11
160.2982749932431
 21
48.499999999999773
 31
0.0
  0
LINE
  5
1CE4
  8
0
  6
CONTINUOUS
 62
     7
 10
110.2982749932431
 20
46.915155097746428
 30
0.0
 11
160.2982749932431
 21
46.915155097746428
 31
0.0
  0
LINE
  5
1CE5
  8
0
  6
CONTINUOUS
 62
     7
 10
110.2982749932431
 20
44.999999999999943
 30
0.0
 11
160.2982749932431
 21
44.999999999999943
 31
0.0
  0
LINE
  5
1CE6
  8
0
  6
CONTINUOUS
 62
     7
 10
110.2982749932431
 20
39.999999999999758
 30
0.0
 11
160.2982749932431
 21
39.999999999999758
 31
0.0
  0
LINE
  5
1CE7
  8
0
  6
CONTINUOUS
 62
     7
 10
110.2982749932431
 20
5.000000000000056
 30
0.0
 11
160.2982749932431
 21
5.000000000000056
 31
0.0
  0
LINE
  5
1CE8
  8
0
  6
CONTINUOUS
 62
     7
 10
110.2982749932431
 20
3.4999999999999432
 30
0.0
 11
160.2982749932431
 21
3.4999999999999432
 31
0.0
  0
LINE
  5
1CE9
  8
0
  6
CONTINUOUS
 62
     7
 10
110.2982749932431
 20
1.9151550977464351
 30
0.0
 11
160.2982749932431
 21
1.9151550977464351
 31
0.0
  0
LINE
  5
1CEA
  8
0
  6
CONTINUOUS
 62
     7
 10
110.2982749932431
 20
-0.0000000000000568
 30
0.0
 11
160.2982749932431
 21
-0.0000000000000568
 31
0.0
  0
LINE
  5
1CEB
  8
0
  6
CONTINUOUS
 62
     7
 10
110.2982749932431
 20
-5.0000000000000684
 30
0.0
 11
160.2982749932431
 21
-5.0000000000000684
 31
0.0
  0
LINE
  5
1CEC
  8
CENTER
  6
CENTER
 62
     1
 10
108.2982749932431
 20
44.999999999999943
 30
0.0
 11
162.2982749932431
 21
44.999999999999943
 31
0.0
  0
LINE
  5
1CED
  8
CENTER
  6
CENTER
 62
     1
 10
108.2982749932431
 20
-0.0000000000000568
 30
0.0
 11
162.2982749932431
 21
-0.0000000000000568
 31
0.0
  0
INSERT
  5
1D31
  8
0
  6
CONTINUOUS
 62
     7
  2
*U31
 10
0.0
 20
0.0
 30
0.0
  0
INSERT
  5
1D32
  8
0
  6
CONTINUOUS
 62
     7
  2
*U32
 10
0.0
 20
0.0
 30
0.0
  0
ENDSEC
  0
EOF
