  0
SECTION
  2
HEADER
  9
$ACADVER
  1
AC1009
  9
$INSBASE
 10
0.0
 20
0.0
 30
0.0
  9
$EXTMIN
 10
-47.642283491069847
 20
-66.711651191565494
 30
0.0
  9
$EXTMAX
 10
122.005445681852
 20
45.194218328879799
 30
0.0
  9
$LIMMIN
 10
0.0
 20
0.0
  9
$LIMMAX
 10
420.0
 20
297.0
  9
$ORTHOMODE
 70
     0
  9
$REGENMODE
 70
     1
  9
$FILLMODE
 70
     1
  9
$QTEXTMODE
 70
     0
  9
$MIRRTEXT
 70
     0
  9
$DRAGMODE
 70
     2
  9
$LTSCALE
 40
1.0
  9
$OSMODE
 70
  2109
  9
$ATTMODE
 70
     1
  9
$TEXTSIZE
 40
3.0
  9
$TRACEWID
 40
1.0
  9
$TEXTSTYLE
  7
STANDARD
  9
$CLAYER
  8
0
  9
$CELTYPE
  6
CONTINUOUS
  9
$CECOLOR
 62
     7
  9
$DIMSCALE
 40
1.0
  9
$DIMASZ
 40
2.5
  9
$DIMEXO
 40
0.625
  9
$DIMDLI
 40
3.75
  9
$DIMRND
 40
0.0
  9
$DIMDLE
 40
0.0
  9
$DIMEXE
 40
1.25
  9
$DIMTP
 40
0.0
  9
$DIMTM
 40
0.0
  9
$DIMTXT
 40
2.5
  9
$DIMCEN
 40
2.5
  9
$DIMTSZ
 40
0.0
  9
$DIMTOL
 70
     0
  9
$DIMLIM
 70
     0
  9
$DIMTIH
 70
     0
  9
$DIMTOH
 70
     0
  9
$DIMSE1
 70
     0
  9
$DIMSE2
 70
     0
  9
$DIMTAD
 70
     1
  9
$DIMZIN
 70
     8
  9
$DIMBLK
  1
OPEN30
  9
$DIMASO
 70
     1
  9
$DIMSHO
 70
     1
  9
$DIMPOST
  1

  9
$DIMAPOST
  1

  9
$DIMALT
 70
     0
  9
$DIMALTD
 70
     3
  9
$DIMALTF
 40
0.03937007874016
  9
$DIMLFAC
 40
1.0
  9
$DIMTOFL
 70
     1
  9
$DIMTVP
 40
0.0
  9
$DIMTIX
 70
     0
  9
$DIMSOXD
 70
     0
  9
$DIMSAH
 70
     0
  9
$DIMBLK1
  1

  9
$DIMBLK2
  1

  9
$DIMSTYLE
  2
MISUMI
  9
$DIMCLRD
 70
   137
  9
$DIMCLRE
 70
   137
  9
$DIMCLRT
 70
   137
  9
$DIMTFAC
 40
1.0
  9
$DIMGAP
 40
0.625
  9
$LUNITS
 70
     2
  9
$LUPREC
 70
     2
  9
$SKETCHINC
 40
1.0
  9
$FILLETRAD
 40
0.0
  9
$AUNITS
 70
     0
  9
$AUPREC
 70
     0
  9
$MENU
  1
.
  9
$ELEVATION
 40
0.0
  9
$PELEVATION
 40
0.0
  9
$THICKNESS
 40
0.0
  9
$LIMCHECK
 70
     0
  9
$BLIPMODE
 70
     0
  9
$CHAMFERA
 40
0.5
  9
$CHAMFERB
 40
0.5
  9
$SKPOLY
 70
     0
  9
$TDCREATE
 40
2455135.5720697111
  9
$TDUPDATE
 40
2455656.6077131722
  9
$TDINDWG
 40
0.0717731829
  9
$TDUSRTIMER
 40
0.0717729977
  9
$USRTIMER
 70
     1
  9
$ANGBASE
 50
0.0
  9
$ANGDIR
 70
     0
  9
$PDMODE
 70
    35
  9
$PDSIZE
 40
0.0
  9
$PLINEWID
 40
0.0
  9
$COORDS
 70
     1
  9
$SPLFRAME
 70
     0
  9
$SPLINETYPE
 70
     6
  9
$SPLINESEGS
 70
     8
  9
$ATTDIA
 70
     0
  9
$ATTREQ
 70
     1
  9
$HANDLING
 70
     1
  9
$HANDSEED
  5
1E4B
  9
$SURFTAB1
 70
     6
  9
$SURFTAB2
 70
     6
  9
$SURFTYPE
 70
     6
  9
$SURFU
 70
     6
  9
$SURFV
 70
     6
  9
$UCSNAME
  2

  9
$UCSORG
 10
0.0
 20
0.0
 30
0.0
  9
$UCSXDIR
 10
1.0
 20
0.0
 30
0.0
  9
$UCSYDIR
 10
0.0
 20
1.0
 30
0.0
  9
$PUCSNAME
  2

  9
$PUCSORG
 10
0.0
 20
0.0
 30
0.0
  9
$PUCSXDIR
 10
1.0
 20
0.0
 30
0.0
  9
$PUCSYDIR
 10
0.0
 20
1.0
 30
0.0
  9
$USERI1
 70
     0
  9
$USERI2
 70
     0
  9
$USERI3
 70
     0
  9
$USERI4
 70
     0
  9
$USERI5
 70
     0
  9
$USERR1
 40
0.0
  9
$USERR2
 40
0.0
  9
$USERR3
 40
0.0
  9
$USERR4
 40
0.0
  9
$USERR5
 40
0.0
  9
$WORLDVIEW
 70
     1
  9
$SHADEDGE
 70
     3
  9
$SHADEDIF
 70
    70
  9
$TILEMODE
 70
     1
  9
$MAXACTVP
 70
    64
  9
$PLIMCHECK
 70
     0
  9
$PEXTMIN
 10
0.0
 20
0.0
 30
0.0
  9
$PEXTMAX
 10
0.0
 20
0.0
 30
0.0
  9
$PLIMMIN
 10
0.0
 20
0.0
  9
$PLIMMAX
 10
12.0
 20
9.0
  9
$UNITMODE
 70
     0
  9
$VISRETAIN
 70
     1
  9
$PLINEGEN
 70
     0
  9
$PSLTSCALE
 70
     1
  0
ENDSEC
  0
SECTION
  2
TABLES
  0
TABLE
  2
VPORT
 70
     1
  0
VPORT
  2
*ACTIVE
 70
     0
 10
0.0
 20
0.0
 11
1.0
 21
1.0
 12
35.548248873520308
 22
-3.8474728516638521
 13
0.0
 23
0.0
 14
10.0
 24
10.0
 15
10.0
 25
10.0
 16
0.0
 26
0.0
 36
1.0
 17
0.0
 27
0.0
 37
0.0
 40
179.92117593409171
 41
1.0918367346938771
 42
50.0
 43
0.0
 44
0.0
 50
0.0
 51
0.0
 71
     0
 72
  1000
 73
     1
 74
     3
 75
     0
 76
     0
 77
     0
 78
     0
  0
ENDTAB
  0
TABLE
  2
LTYPE
 70
     4
  0
LTYPE
  2
CONTINUOUS
 70
     0
  3
Solid line
 72
    65
 73
     0
 40
0.0
  0
LTYPE
  2
CENTER
 70
     0
  3
Center ____ _ ____ _ ____ _ ____ _ ____ _ ____
 72
    65
 73
     4
 40
50.799999999999997
 49
31.75
 49
-6.3499999999999988
 49
6.3499999999999988
 49
-6.3499999999999988
  0
LTYPE
  2
DASHED
 70
     0
  3
Dashed __ __ __ __ __ __ __ __ __ __ __ __ __ _
 72
    65
 73
     2
 40
19.050000000000001
 49
12.699999999999999
 49
-6.3499999999999988
  0
LTYPE
  2
PHANTOM
 70
     0
  3
Phantom ______  __  __  ______  __  __  ______
 72
    65
 73
     6
 40
63.5
 49
31.75
 49
-6.3499999999999988
 49
6.3499999999999988
 49
-6.3499999999999988
 49
6.3499999999999988
 49
-6.3499999999999988
  0
ENDTAB
  0
TABLE
  2
LAYER
 70
     3
  0
LAYER
  2
0
 70
     0
 62
     7
  6
CONTINUOUS
  0
LAYER
  2
CENTER
 70
     0
 62
     1
  6
CENTER
  0
LAYER
  2
DEFPOINTS
 70
     0
 62
     7
  6
CONTINUOUS
  0
ENDTAB
  0
TABLE
  2
STYLE
 70
     1
  0
STYLE
  2
STANDARD
 70
     0
 40
3.0
 41
1.0
 50
0.0
 71
     0
 42
3.0
  3
txt.shx
  4
bigfont.shx
  0
ENDTAB
  0
TABLE
  2
VIEW
 70
     0
  0
ENDTAB
  0
TABLE
  2
UCS
 70
     0
  0
ENDTAB
  0
TABLE
  2
APPID
 70
     8
  0
APPID
  2
ACAD
 70
     0
  0
APPID
  2
ACAD_MLEADERVER
 70
     0
  0
APPID
  2
ACAD_PSEXT
 70
     0
  0
APPID
  2
ACAD_DSTYLE_DIMRADIAL_EXTENSION
 70
     0
  0
APPID
  2
ACAD_EXEMPT_FROM_CAD_STANDARDS
 70
     0
  0
APPID
  2
GRADIENTCOLOR1ACI
 70
     0
  0
APPID
  2
GRADIENTCOLOR2ACI
 70
     0
  0
APPID
  2
ACAECLAYERSTANDARD
 70
     0
  0
ENDTAB
  0
TABLE
  2
DIMSTYLE
 70
     1
  0
DIMSTYLE
  2
MISUMI
 70
     0
  3

  4

  5
OPEN30
  6

  7

 40
1.0
 41
2.5
 42
0.625
 43
3.75
 44
1.25
 45
0.0
 46
0.0
 47
0.0
 48
0.0
140
2.5
141
2.5
142
0.0
143
0.03937007874016
144
1.0
145
0.0
146
1.0
147
0.625
 71
     0
 72
     0
 73
     0
 74
     0
 75
     0
 76
     0
 77
     1
 78
     8
170
     0
171
     3
172
     1
173
     0
174
     0
175
     0
176
   137
177
   137
178
   137
  0
ENDTAB
  0
ENDSEC
  0
SECTION
  2
BLOCKS
  0
BLOCK
  8
0
  2
$MODEL_SPACE
 70
     0
 10
0.0
 20
0.0
 30
0.0
  3
$MODEL_SPACE
  1

  0
ENDBLK
  5
21
  8
0
  0
BLOCK
 67
     1
  8
0
  2
$PAPER_SPACE
 70
     0
 10
0.0
 20
0.0
 30
0.0
  3
$PAPER_SPACE
  1

  0
ENDBLK
  5
53
 67
     1
  8
0
  0
BLOCK
  8
0
 62
     7
  2
_OPEN30
 70
     0
 10
0.0
 20
0.0
 30
0.0
  3
_OPEN30
  1

  0
LINE
  5
D7
  8
0
  6
BYBLOCK
 62
     0
 10
-1.0
 20
0.26794919
 30
0.0
 11
0.0
 21
0.0
 31
0.0
  0
LINE
  5
D8
  8
0
  6
BYBLOCK
 62
     0
 10
0.0
 20
0.0
 30
0.0
 11
-1.0
 21
-0.26794919
 31
0.0
  0
LINE
  5
D9
  8
0
  6
BYBLOCK
 62
     0
 10
0.0
 20
0.0
 30
0.0
 11
-1.0
 21
0.0
 31
0.0
  0
ENDBLK
  5
DB
  8
0
 62
     7
  0
BLOCK
  8
0
 62
     7
  2
*U17
 70
     1
 10
0.0
 20
0.0
 30
0.0
  3
*U17
  1

  0
TEXT
  5
1E40
  8
0
  6
CONTINUOUS
 62
     7
 10
-24.999999999999972
 20
-61.219275518949409
 30
0.0
 40
3.0
  1
NEFS8-5050-50
  0
ENDBLK
  5
1E42
  8
0
 62
     7
  0
BLOCK
  8
0
 62
     7
  2
*U18
 70
     1
 10
0.0
 20
0.0
 30
0.0
  3
*U18
  1

  0
TEXT
  5
1E44
  8
0
  6
CONTINUOUS
 62
     7
 10
-24.999999999999972
 20
-66.711651191565494
 30
0.0
 40
3.0
  1
NEFS8-5050
  0
ENDBLK
  5
1E46
  8
0
 62
     7
  0
BLOCK
  8
0
 62
     7
  2
*U19
 70
     1
 10
0.0
 20
0.0
 30
0.0
  3
*U19
  1

  0
TEXT
  5
1E48
  8
0
  6
CONTINUOUS
 62
   137
 10
48.918321966675272
 20
-36.1903998879474
 30
0.0
 40
3.0
  1
27,5
 50
45.0
  0
ENDBLK
  5
1E4A
  8
0
 62
     7
  0
ENDSEC
  0
SECTION
  2
ENTITIES
  0
LINE
  5
19FE
  8
0
  6
CONTINUOUS
 62
     7
 10
-12.00000199999999
 20
-7.4038079999999971
 30
0.0
 11
-12.00000199999999
 21
-3.500007999999994
 31
0.0
  0
LINE
  5
19FF
  8
0
  6
CONTINUOUS
 62
     7
 10
-11.933013999999901
 20
-1.096417999999999
 30
0.0
 11
-11.300001999999891
 21
-0.000007999999994
 31
0.0
  0
LINE
  5
1A00
  8
0
  6
CONTINUOUS
 62
     7
 10
-11.748986999999969
 20
-1.915162999999992
 30
0.0
 11
-11.933013999999901
 21
-1.596417999999999
 31
0.0
  0
LINE
  5
1A01
  8
0
  6
CONTINUOUS
 62
     7
 10
-12.00000199999999
 20
-3.500007999999994
 30
0.0
 11
-11.748986999999969
 21
-1.915162999999992
 31
0.0
  0
ARC
  5
1A02
  8
0
  6
CONTINUOUS
 62
     7
 10
-11.50000199999999
 20
-1.346417999999999
 30
0.0
 40
0.5
 50
149.99999999999801
 51
210.00000000000199
  0
LINE
  5
1A03
  8
0
  6
CONTINUOUS
 62
     7
 10
-7.4038159999999769
 20
12.000010000000019
 30
0.0
 11
-3.4999999999999711
 21
12.000010000000019
 31
0.0
  0
LINE
  5
1A04
  8
0
  6
CONTINUOUS
 62
     7
 10
0.0000000000000284
 20
11.30001
 30
0.0
 11
-1.096409999999991
 21
11.93302200000001
 31
0.0
  0
LINE
  5
1A05
  8
0
  6
CONTINUOUS
 62
     7
 10
-1.596409999999991
 20
11.93302200000001
 30
0.0
 11
-1.915154999999884
 21
11.74899499999999
 31
0.0
  0
LINE
  5
1A06
  8
0
  6
CONTINUOUS
 62
     7
 10
-1.915154999999884
 20
11.74899499999999
 30
0.0
 11
-3.4999999999999711
 21
12.000010000000019
 31
0.0
  0
ARC
  5
1A07
  8
0
  6
CONTINUOUS
 62
     7
 10
-1.346409999999991
 20
11.500010000000019
 30
0.0
 40
0.5
 50
59.999999999999858
 51
119.9999999999997
  0
LINE
  5
1A08
  8
0
  6
CONTINUOUS
 62
     7
 10
-14.59619999999998
 20
10.000006000000001
 30
0.0
 11
-18.999982999999979
 21
10.000006000000001
 31
0.0
  0
LINE
  5
1A09
  8
0
  6
CONTINUOUS
 62
     7
 10
-24.999999999999972
 20
5.2999830000000108
 30
0.0
 11
-24.999999999999972
 21
21.999999999999989
 31
0.0
  0
ARC
  5
1A0A
  8
0
  6
CONTINUOUS
 62
     7
 10
-21.999999999999972
 20
21.999999999999989
 30
0.0
 40
3.0
 50
90.0
 51
180.0
  0
LINE
  5
1A0B
  8
0
  6
CONTINUOUS
 62
     7
 10
-5.3000079999999912
 20
24.999999999999989
 30
0.0
 11
-21.999999999999972
 21
24.999999999999989
 31
0.0
  0
LINE
  5
1A0C
  8
0
  6
CONTINUOUS
 62
     7
 10
-10.000002999999991
 20
14.59619699999997
 30
0.0
 11
-10.000002999999991
 21
18.999994999999998
 31
0.0
  0
LINE
  5
1A0D
  8
0
  6
CONTINUOUS
 62
     7
 10
-18.999985999999979
 20
5.2999830000000108
 30
0.0
 11
-18.999985999999979
 21
10.000002000000009
 31
0.0
  0
ARC
  5
1A0E
  8
0
  6
CONTINUOUS
 62
     7
 10
-19.29998599999999
 20
5.2999830000000108
 30
0.0
 40
0.3
 50
270.0
 51
0.0
  0
LINE
  5
1A0F
  8
0
  6
CONTINUOUS
 62
     7
 10
-20.92761447052408
 20
4.9999830000000003
 30
0.0
 11
-19.29998599999999
 21
4.9999830000000003
 31
0.0
  0
LINE
  5
1A10
  8
0
  6
CONTINUOUS
 62
     7
 10
-5.0000079999998936
 20
23.072374529476001
 30
0.0
 11
-5.0000079999998936
 21
24.699999999999971
 31
0.0
  0
ARC
  5
1A11
  8
0
  6
CONTINUOUS
 62
     7
 10
-5.3000079999999912
 20
24.699999999999971
 30
0.0
 40
0.3
 50
0.0
 51
90.0
  0
LINE
  5
1A12
  8
0
  6
CONTINUOUS
 62
     7
 10
-5.3000079999998766
 20
18.99999099999998
 30
0.0
 11
-10.000006999999981
 21
18.99999099999998
 31
0.0
  0
ARC
  5
1A13
  8
0
  6
CONTINUOUS
 62
     7
 10
-5.3000079999998766
 20
19.299990999999991
 30
0.0
 40
0.3
 50
270.0
 51
0.0
  0
LINE
  5
1A14
  8
0
  6
CONTINUOUS
 62
     7
 10
-5.0000079999998936
 20
20.92761347052398
 30
0.0
 11
-5.0000079999998936
 21
19.299990999999991
 31
0.0
  0
ARC
  5
1A15
  8
0
  6
CONTINUOUS
 62
     7
 10
-4.5000079999999789
 20
21.999993999999969
 30
0.0
 40
1.0
 50
130.00520088487031
 51
229.99479911512961
  0
ARC
  5
1A16
  8
0
  6
CONTINUOUS
 62
     7
 10
-5.4000079999999002
 20
20.92761347052398
 30
0.0
 40
0.4
 50
0.0
 51
49.994799115129638
  0
ARC
  5
1A17
  8
0
  6
CONTINUOUS
 62
     7
 10
-5.4000079999999002
 20
23.072374529476001
 30
0.0
 40
0.4
 50
310.00520088487042
 51
0.0
  0
LINE
  5
1A18
  8
0
  6
CONTINUOUS
 62
     7
 10
-23.072375529475892
 20
4.9999830000000003
 30
0.0
 11
-24.699999999999989
 21
4.9999830000000003
 31
0.0
  0
ARC
  5
1A19
  8
0
  6
CONTINUOUS
 62
     7
 10
-24.699999999999989
 20
5.2999830000000108
 30
0.0
 40
0.3
 50
180.0
 51
270.0
  0
ARC
  5
1A1A
  8
0
  6
CONTINUOUS
 62
     7
 10
-21.999994999999981
 20
4.4999830000000003
 30
0.0
 40
1.0
 50
40.005200884870881
 51
139.9947991151291
  0
ARC
  5
1A1B
  8
0
  6
CONTINUOUS
 62
     7
 10
-23.072375529475892
 20
5.3999830000000051
 30
0.0
 40
0.4
 50
270.0
 51
319.99479911512623
  0
ARC
  5
1A1C
  8
0
  6
CONTINUOUS
 62
     7
 10
-20.92761447052408
 20
5.3999830000000051
 30
0.0
 40
0.4
 50
220.0052008848738
 51
270.0
  0
LINE
  5
1A1D
  8
0
  6
CONTINUOUS
 62
     7
 10
-7.4038159999999769
 20
12.000010000000019
 30
0.0
 11
-10.000002999999991
 21
14.59619699999997
 31
0.0
  0
LINE
  5
1A1E
  8
0
  6
CONTINUOUS
 62
     7
 10
-12.000009999999969
 20
7.4038159999999928
 30
0.0
 11
-14.59619999999998
 21
10.000006000000001
 31
0.0
  0
LINE
  5
1A1F
  8
0
  6
CONTINUOUS
 62
     7
 10
-9.0000099999999748
 20
10.00001000000001
 30
0.0
 11
-6.1763269999999864
 21
10.00001000000001
 31
0.0
  0
LINE
  5
1A20
  8
0
  6
CONTINUOUS
 62
     7
 10
-2.9999999999999711
 20
6.9686799999999911
 30
0.0
 11
-2.9999999999999711
 21
8.2078920000000011
 31
0.0
  0
LINE
  5
1A21
  8
0
  6
CONTINUOUS
 62
     7
 10
-5.8343069999999946
 20
9.9397019999999952
 30
0.0
 11
-3.657979999999895
 21
9.147584000000009
 31
0.0
  0
ARC
  5
1A22
  8
0
  6
CONTINUOUS
 62
     7
 10
-3.9999999999999711
 20
8.2078920000000011
 30
0.0
 40
1.0
 50
0.0
 51
69.999999999999915
  0
ARC
  5
1A23
  8
0
  6
CONTINUOUS
 62
     7
 10
-1.9999999999999709
 20
6.9686799999999911
 30
0.0
 40
1.0
 50
180.0
 51
286.01339399999978
  0
ARC
  5
1A24
  8
0
  6
CONTINUOUS
 62
     7
 10
-6.1763269999999864
 20
9.0000100000000174
 30
0.0
 40
1.0
 50
69.999999999999915
 51
90.0
  0
LINE
  5
1A25
  8
0
  6
CONTINUOUS
 62
     7
 10
-8.2078919999999869
 20
3.0000000000000142
 30
0.0
 11
-6.9686799999998916
 21
3.0000000000000142
 31
0.0
  0
LINE
  5
1A26
  8
0
  6
CONTINUOUS
 62
     7
 10
-9.9397029999999802
 20
5.8343070000000088
 30
0.0
 11
-9.1475849999999923
 21
3.657979999999994
 31
0.0
  0
ARC
  5
1A27
  8
0
  6
CONTINUOUS
 62
     7
 10
-6.9686799999998916
 20
2.0000000000000142
 30
0.0
 40
1.0
 50
343.98660600000022
 51
90.0
  0
ARC
  5
1A28
  8
0
  6
CONTINUOUS
 62
     7
 10
-8.2078919999999869
 20
4.0000000000000142
 30
0.0
 40
1.0
 50
199.99999999999929
 51
270.0
  0
ARC
  5
1A29
  8
0
  6
CONTINUOUS
 62
     7
 10
-9.0000099999999748
 20
6.1763269999999997
 30
0.0
 40
1.0
 50
180.0
 51
199.99999999999929
  0
LINE
  5
1A2A
  8
0
  6
CONTINUOUS
 62
     7
 10
-10.000009999999969
 20
9.0000100000000174
 30
0.0
 11
-10.000009999999969
 21
6.1763269999999997
 31
0.0
  0
ARC
  5
1A2B
  8
0
  6
CONTINUOUS
 62
     7
 10
-9.0000099999999748
 20
9.0000100000000174
 30
0.0
 40
1.0
 50
90.0
 51
180.0
  0
LINE
  5
1A2C
  8
0
  6
CONTINUOUS
 62
     7
 10
-16.476659999999981
 20
21.999999999999989
 30
0.0
 11
-11.450002999999979
 21
21.999999999999989
 31
0.0
  0
LINE
  5
1A2D
  8
0
  6
CONTINUOUS
 62
     7
 10
-13.000002999999991
 20
12.000006000000001
 30
0.0
 11
-19.558838999999981
 21
12.000006000000001
 31
0.0
  0
LINE
  5
1A2E
  8
0
  6
CONTINUOUS
 62
     7
 10
-12.000002999999991
 20
13.000006000000001
 30
0.0
 11
-12.000002999999991
 21
19.558845999999971
 31
0.0
  0
ARC
  5
1A2F
  8
0
  6
CONTINUOUS
 62
     7
 10
-11.450002999999979
 20
21.249999999999989
 30
0.0
 40
0.75
 50
284.90059700000029
 51
90.0
  0
ARC
  5
1A30
  8
0
  6
CONTINUOUS
 62
     7
 10
-11.000002999999991
 20
19.558845999999971
 30
0.0
 40
1.0
 50
104.9005970000002
 51
180.0
  0
LINE
  5
1A31
  8
0
  6
CONTINUOUS
 62
     7
 10
-21.999995999999982
 20
16.476662999999991
 30
0.0
 11
-21.999992999999989
 21
11.45000299999999
 31
0.0
  0
ARC
  5
1A32
  8
0
  6
CONTINUOUS
 62
     7
 10
-21.249992999999989
 20
11.450003999999989
 30
0.0
 40
0.75
 50
180.0
 51
345.09943600000031
  0
ARC
  5
1A33
  8
0
  6
CONTINUOUS
 62
     7
 10
-19.558838999999981
 20
11.000006000000001
 30
0.0
 40
1.0
 50
90.0
 51
165.0994699999998
  0
LINE
  5
1A34
  8
0
  6
CONTINUOUS
 62
     7
 10
-17.183765999999991
 20
21.70710699999999
 30
0.0
 11
-21.707102999999879
 21
17.183769999999988
 31
0.0
  0
ARC
  5
1A35
  8
0
  6
CONTINUOUS
 62
     7
 10
-20.999995999999982
 20
16.476662999999991
 30
0.0
 40
1.0
 50
135.0
 51
180.00003400000051
  0
ARC
  5
1A36
  8
0
  6
CONTINUOUS
 62
     7
 10
-16.476659999999981
 20
20.999999999999989
 30
0.0
 40
1.0
 50
90.0
 51
135.0
  0
ARC
  5
1A37
  8
0
  6
CONTINUOUS
 62
     7
 10
0.0000000000000284
 20
0.0
 30
0.0
 40
6.25
 50
163.98660600000019
 51
196.01339399999981
  0
ARC
  5
1A38
  8
0
  6
CONTINUOUS
 62
     7
 10
0.0000000000000284
 20
0.0
 30
0.0
 40
6.25
 50
73.986606000000194
 51
106.01339399999981
  0
LINE
  5
1A39
  8
0
  6
CONTINUOUS
 62
     7
 10
7.4038080000000264
 20
-12.00000199999999
 30
0.0
 11
3.5000080000000078
 21
-12.00000199999999
 31
0.0
  0
LINE
  5
1A3A
  8
0
  6
CONTINUOUS
 62
     7
 10
1.0964180000000281
 20
-11.933014
 30
0.0
 11
0.0000080000000082
 21
-11.30000199999999
 31
0.0
  0
LINE
  5
1A3B
  8
0
  6
CONTINUOUS
 62
     7
 10
1.9151630000000059
 20
-11.748987
 30
0.0
 11
1.5964180000000281
 21
-11.933014
 31
0.0
  0
LINE
  5
1A3C
  8
0
  6
CONTINUOUS
 62
     7
 10
3.5000080000000078
 20
-12.00000199999999
 30
0.0
 11
1.9151630000000059
 21
-11.748987
 31
0.0
  0
ARC
  5
1A3D
  8
0
  6
CONTINUOUS
 62
     7
 10
1.3464180000000281
 20
-11.50000199999999
 30
0.0
 40
0.5
 50
239.99999999999989
 51
300.00000000000011
  0
LINE
  5
1A3E
  8
0
  6
CONTINUOUS
 62
     7
 10
-12.000009999999969
 20
7.4038159999999911
 30
0.0
 11
-12.000009999999969
 21
1.3464112157142121
 31
0.0
  0
ARC
  5
1A3F
  8
0
  6
CONTINUOUS
 62
     7
 10
-11.500009999999889
 20
1.3464112157142121
 30
0.0
 40
0.5
 50
180.0
 51
209.99997614535019
  0
LINE
  5
1A40
  8
0
  6
CONTINUOUS
 62
     7
 10
-11.300009999999981
 20
0.0
 30
0.0
 11
-11.933022805977711
 21
1.096411395995716
 31
0.0
  0
LINE
  5
1A41
  8
0
  6
CONTINUOUS
 62
     7
 10
-10.00000599999998
 20
-14.596199999999991
 30
0.0
 11
-10.00000599999998
 21
-18.999983
 31
0.0
  0
LINE
  5
1A42
  8
0
  6
CONTINUOUS
 62
     7
 10
-5.2999829999999966
 20
-25.0
 30
0.0
 11
-21.999999999999972
 21
-25.0
 31
0.0
  0
ARC
  5
1A43
  8
0
  6
CONTINUOUS
 62
     7
 10
-5.2999829999999966
 20
-24.699999999999989
 30
0.0
 40
0.3
 50
270.0
 51
0.0
  0
ARC
  5
1A44
  8
0
  6
CONTINUOUS
 62
     7
 10
-21.999999999999972
 20
-22.0
 30
0.0
 40
3.0
 50
180.0
 51
270.0
  0
LINE
  5
1A45
  8
0
  6
CONTINUOUS
 62
     7
 10
-24.999999999999972
 20
-5.3000079999999912
 30
0.0
 11
-24.999999999999972
 21
-22.0
 31
0.0
  0
ARC
  5
1A46
  8
0
  6
CONTINUOUS
 62
     7
 10
-24.699999999999989
 20
-5.3000079999999912
 30
0.0
 40
0.3
 50
90.0
 51
180.0
  0
LINE
  5
1A47
  8
0
  6
CONTINUOUS
 62
     7
 10
-14.596196999999989
 20
-10.000002999999991
 30
0.0
 11
-18.999994999999981
 21
-10.000002999999991
 31
0.0
  0
LINE
  5
1A48
  8
0
  6
CONTINUOUS
 62
     7
 10
-5.2999829999999966
 20
-18.999985999999989
 30
0.0
 11
-10.00000199999999
 21
-18.999985999999989
 31
0.0
  0
LINE
  5
1A49
  8
0
  6
CONTINUOUS
 62
     7
 10
-4.9999829999999861
 20
-20.927614470524009
 30
0.0
 11
-4.9999829999999861
 21
-19.29998599999999
 31
0.0
  0
ARC
  5
1A4A
  8
0
  6
CONTINUOUS
 62
     7
 10
-5.2999829999999966
 20
-19.29998599999999
 30
0.0
 40
0.3
 50
0.0
 51
90.0
  0
LINE
  5
1A4B
  8
0
  6
CONTINUOUS
 62
     7
 10
-23.072374529475979
 20
-5.000007999999994
 30
0.0
 11
-24.699999999999989
 21
-5.000007999999994
 31
0.0
  0
LINE
  5
1A4C
  8
0
  6
CONTINUOUS
 62
     7
 10
-18.999990999999991
 20
-5.3000079999999912
 30
0.0
 11
-18.999990999999991
 21
-10.000006999999989
 31
0.0
  0
ARC
  5
1A4D
  8
0
  6
CONTINUOUS
 62
     7
 10
-19.299990999999981
 20
-5.3000079999999912
 30
0.0
 40
0.3
 50
0.0
 51
90.0
  0
LINE
  5
1A4E
  8
0
  6
CONTINUOUS
 62
     7
 10
-20.927613470524001
 20
-5.000007999999994
 30
0.0
 11
-19.299990999999981
 21
-5.000007999999994
 31
0.0
  0
ARC
  5
1A4F
  8
0
  6
CONTINUOUS
 62
     7
 10
-21.99999399999999
 20
-4.500007999999994
 30
0.0
 40
1.0
 50
220.0052008848692
 51
319.99479911512913
  0
ARC
  5
1A50
  8
0
  6
CONTINUOUS
 62
     7
 10
-23.072374529475979
 20
-5.4000079999999988
 30
0.0
 40
0.4
 50
40.005200884871513
 51
90.0
  0
ARC
  5
1A51
  8
0
  6
CONTINUOUS
 62
     7
 10
-20.927613470524001
 20
-5.4000079999999988
 30
0.0
 40
0.4
 50
90.0
 51
139.99479911513069
  0
LINE
  5
1A52
  8
0
  6
CONTINUOUS
 62
     7
 10
-4.9999829999999861
 20
-23.072375529475892
 30
0.0
 11
-4.9999829999999861
 21
-24.699999999999989
 31
0.0
  0
ARC
  5
1A53
  8
0
  6
CONTINUOUS
 62
     7
 10
-4.4999829999999861
 20
-21.999994999999998
 30
0.0
 40
1.0
 50
130.0052008848709
 51
229.9947991151291
  0
ARC
  5
1A54
  8
0
  6
CONTINUOUS
 62
     7
 10
-5.3999829999999909
 20
-23.072375529475892
 30
0.0
 40
0.4
 50
0.0000000000024427
 51
49.994799115126831
  0
ARC
  5
1A55
  8
0
  6
CONTINUOUS
 62
     7
 10
-5.3999829999999909
 20
-20.927614470524009
 30
0.0
 40
0.4
 50
310.00520088487042
 51
359.99999999999841
  0
LINE
  5
1A56
  8
0
  6
CONTINUOUS
 62
     7
 10
-12.00000199999999
 20
-7.403808000000013
 30
0.0
 11
-14.596196999999989
 21
-10.000002999999991
 31
0.0
  0
LINE
  5
1A57
  8
0
  6
CONTINUOUS
 62
     7
 10
-7.40381599999988
 20
-12.000009999999991
 30
0.0
 11
-10.00000599999998
 21
-14.596199999999991
 31
0.0
  0
LINE
  5
1A58
  8
0
  6
CONTINUOUS
 62
     7
 10
-10.000009999999969
 20
-9.0000099999999872
 30
0.0
 11
-10.000009999999969
 21
-6.1763269999999997
 31
0.0
  0
LINE
  5
1A59
  8
0
  6
CONTINUOUS
 62
     7
 10
-6.9686799999998916
 20
-3.0
 30
0.0
 11
-8.2078919999999869
 21
-3.0
 31
0.0
  0
LINE
  5
1A5A
  8
0
  6
CONTINUOUS
 62
     7
 10
-9.9397029999999802
 20
-5.8343069999999946
 30
0.0
 11
-9.1475849999999923
 21
-3.657979999999994
 31
0.0
  0
ARC
  5
1A5B
  8
0
  6
CONTINUOUS
 62
     7
 10
-8.2078919999999869
 20
-4.0
 30
0.0
 40
1.0
 50
90.0
 51
160.0000000000006
  0
ARC
  5
1A5C
  8
0
  6
CONTINUOUS
 62
     7
 10
-6.9686799999998916
 20
-2.0
 30
0.0
 40
1.0
 50
270.0
 51
16.013393999999789
  0
ARC
  5
1A5D
  8
0
  6
CONTINUOUS
 62
     7
 10
-9.0000099999999748
 20
-6.1763269999999997
 30
0.0
 40
1.0
 50
160.0000000000006
 51
180.0
  0
LINE
  5
1A5E
  8
0
  6
CONTINUOUS
 62
     7
 10
-2.9999999999999711
 20
-8.2078920000000011
 30
0.0
 11
-2.9999999999999711
 21
-6.9686799999999911
 31
0.0
  0
LINE
  5
1A5F
  8
0
  6
CONTINUOUS
 62
     7
 10
-5.8343069999999946
 20
-9.9397029999999944
 30
0.0
 11
-3.657979999999895
 21
-9.1475849999999923
 31
0.0
  0
ARC
  5
1A60
  8
0
  6
CONTINUOUS
 62
     7
 10
-1.9999999999999709
 20
-6.9686799999999911
 30
0.0
 40
1.0
 50
73.986606000000194
 51
180.0
  0
ARC
  5
1A61
  8
0
  6
CONTINUOUS
 62
     7
 10
-3.9999999999999711
 20
-8.2078920000000011
 30
0.0
 40
1.0
 50
290.00000000000011
 51
0.0
  0
ARC
  5
1A62
  8
0
  6
CONTINUOUS
 62
     7
 10
-6.1763269999999864
 20
-9.0000099999999872
 30
0.0
 40
1.0
 50
270.0
 51
290.00000000000011
  0
LINE
  5
1A63
  8
0
  6
CONTINUOUS
 62
     7
 10
-9.0000099999999748
 20
-10.000009999999991
 30
0.0
 11
-6.1763269999999864
 21
-10.000009999999991
 31
0.0
  0
ARC
  5
1A64
  8
0
  6
CONTINUOUS
 62
     7
 10
-9.0000099999999748
 20
-9.0000099999999872
 30
0.0
 40
1.0
 50
180.0
 51
270.0
  0
LINE
  5
1A65
  8
0
  6
CONTINUOUS
 62
     7
 10
-21.999999999999972
 20
-16.476659999999988
 30
0.0
 11
-21.999999999999972
 21
-11.45000299999999
 31
0.0
  0
LINE
  5
1A66
  8
0
  6
CONTINUOUS
 62
     7
 10
-12.00000599999998
 20
-13.000002999999991
 30
0.0
 11
-12.00000599999998
 21
-19.558838999999988
 31
0.0
  0
LINE
  5
1A67
  8
0
  6
CONTINUOUS
 62
     7
 10
-13.00000599999998
 20
-12.000002999999991
 30
0.0
 11
-19.558846999999979
 21
-12.000002999999991
 31
0.0
  0
ARC
  5
1A68
  8
0
  6
CONTINUOUS
 62
     7
 10
-21.249999999999972
 20
-11.45000299999999
 30
0.0
 40
0.75
 50
14.900597000000049
 51
180.0
  0
ARC
  5
1A69
  8
0
  6
CONTINUOUS
 62
     7
 10
-19.558846999999979
 20
-11.000002999999991
 30
0.0
 40
1.0
 50
194.900597
 51
270.0
  0
LINE
  5
1A6A
  8
0
  6
CONTINUOUS
 62
     7
 10
-16.47666299999997
 20
-21.999995999999989
 30
0.0
 11
-11.45000399999989
 21
-21.999992999999989
 31
0.0
  0
ARC
  5
1A6B
  8
0
  6
CONTINUOUS
 62
     7
 10
-11.45000399999989
 20
-21.249992999999989
 30
0.0
 40
0.75
 50
270.0
 51
75.099435999998732
  0
ARC
  5
1A6C
  8
0
  6
CONTINUOUS
 62
     7
 10
-11.00000599999998
 20
-19.558838999999988
 30
0.0
 40
1.0
 50
180.0
 51
255.0994699999998
  0
LINE
  5
1A6D
  8
0
  6
CONTINUOUS
 62
     7
 10
-21.707106999999901
 20
-17.183765999999991
 30
0.0
 11
-17.183769999999981
 21
-21.707102999999989
 31
0.0
  0
ARC
  5
1A6E
  8
0
  6
CONTINUOUS
 62
     7
 10
-16.476663999999971
 20
-20.999995999999999
 30
0.0
 40
1.0
 50
225.0
 51
270.00003399999878
  0
ARC
  5
1A6F
  8
0
  6
CONTINUOUS
 62
     7
 10
-20.999999999999972
 20
-16.476659999999988
 30
0.0
 40
1.0
 50
180.0
 51
225.0
  0
ARC
  5
1A70
  8
0
  6
CONTINUOUS
 62
     7
 10
0.0000000000000284
 20
0.0
 30
0.0
 40
6.25
 50
253.98660600000019
 51
286.01339399999978
  0
LINE
  5
1A71
  8
0
  6
CONTINUOUS
 62
     7
 10
12.00000200000002
 20
7.4038080000000122
 30
0.0
 11
12.00000200000002
 21
3.500007999999994
 31
0.0
  0
LINE
  5
1A72
  8
0
  6
CONTINUOUS
 62
     7
 10
11.933014000000011
 20
1.096417999999999
 30
0.0
 11
11.300001999999999
 21
0.0000080000000082
 31
0.0
  0
LINE
  5
1A73
  8
0
  6
CONTINUOUS
 62
     7
 10
11.74898700000003
 20
1.915162999999992
 30
0.0
 11
11.933014000000011
 21
1.5964180000000141
 31
0.0
  0
LINE
  5
1A74
  8
0
  6
CONTINUOUS
 62
     7
 10
12.00000200000002
 20
3.500007999999994
 30
0.0
 11
11.74898700000003
 21
1.915162999999992
 31
0.0
  0
ARC
  5
1A75
  8
0
  6
CONTINUOUS
 62
     7
 10
11.50000200000002
 20
1.346417999999886
 30
0.0
 40
0.5
 50
329.99999999999812
 51
30.000000000001961
  0
LINE
  5
1A76
  8
0
  6
CONTINUOUS
 62
     7
 10
-7.4038159999999769
 20
-12.000009999999991
 30
0.0
 11
-1.3464112157141981
 21
-12.000009999999991
 31
0.0
  0
ARC
  5
1A77
  8
0
  6
CONTINUOUS
 62
     7
 10
-1.3464112157141981
 20
-11.500009999999991
 30
0.0
 40
0.5
 50
270.0
 51
299.9999761453484
  0
LINE
  5
1A78
  8
0
  6
CONTINUOUS
 62
     7
 10
0.0000000000000284
 20
-11.30001
 30
0.0
 11
-1.096411395995716
 21
-11.9330228059777
 31
0.0
  0
LINE
  5
1A79
  8
0
  6
CONTINUOUS
 62
     7
 10
14.59620000000001
 20
-10.000006000000001
 30
0.0
 11
18.9999830000001
 21
-10.000006000000001
 31
0.0
  0
LINE
  5
1A7A
  8
0
  6
CONTINUOUS
 62
     7
 10
25.000000000000028
 20
-5.2999829999999966
 30
0.0
 11
25.000000000000028
 21
-22.0
 31
0.0
  0
ARC
  5
1A7B
  8
0
  6
CONTINUOUS
 62
     7
 10
24.700000000000021
 20
-5.2999829999999966
 30
0.0
 40
0.3
 50
0.0
 51
90.0
  0
ARC
  5
1A7C
  8
0
  6
CONTINUOUS
 62
     7
 10
22.000000000000028
 20
-22.0
 30
0.0
 40
3.0
 50
270.0
 51
0.0
  0
LINE
  5
1A7D
  8
0
  6
CONTINUOUS
 62
     7
 10
5.3000080000000187
 20
-25.0
 30
0.0
 11
22.000000000000028
 21
-25.0
 31
0.0
  0
LINE
  5
1A7E
  8
0
  6
CONTINUOUS
 62
     7
 10
10.000003000000021
 20
-14.596196999999989
 30
0.0
 11
10.000003000000021
 21
-18.999994999999998
 31
0.0
  0
LINE
  5
1A7F
  8
0
  6
CONTINUOUS
 62
     7
 10
18.999986000000089
 20
-5.2999829999999966
 30
0.0
 11
18.999986000000089
 21
-10.00000199999999
 31
0.0
  0
LINE
  5
1A80
  8
0
  6
CONTINUOUS
 62
     7
 10
20.927614470524102
 20
-4.9999830000000003
 30
0.0
 11
19.2999860000001
 21
-4.9999830000000003
 31
0.0
  0
ARC
  5
1A81
  8
0
  6
CONTINUOUS
 62
     7
 10
19.2999860000001
 20
-5.2999829999999966
 30
0.0
 40
0.3
 50
90.0
 51
180.0
  0
LINE
  5
1A82
  8
0
  6
CONTINUOUS
 62
     7
 10
5.0000080000000082
 20
-23.072374529475891
 30
0.0
 11
5.0000080000000082
 21
-24.699999999999989
 31
0.0
  0
ARC
  5
1A83
  8
0
  6
CONTINUOUS
 62
     7
 10
5.3000080000000187
 20
-24.699999999999989
 30
0.0
 40
0.3
 50
180.0
 51
270.0
  0
LINE
  5
1A84
  8
0
  6
CONTINUOUS
 62
     7
 10
5.3000080000000187
 20
-18.999990999999991
 30
0.0
 11
10.000007000000011
 21
-18.999990999999991
 31
0.0
  0
LINE
  5
1A85
  8
0
  6
CONTINUOUS
 62
     7
 10
5.0000080000000082
 20
-20.92761347052409
 30
0.0
 11
5.0000080000000082
 21
-19.299990999999991
 31
0.0
  0
ARC
  5
1A86
  8
0
  6
CONTINUOUS
 62
     7
 10
5.3000080000000187
 20
-19.299990999999991
 30
0.0
 40
0.3
 50
90.0
 51
180.0
  0
ARC
  5
1A87
  8
0
  6
CONTINUOUS
 62
     7
 10
4.5000080000000082
 20
-21.999994000000001
 30
0.0
 40
1.0
 50
310.00520088487087
 51
49.994799115127343
  0
ARC
  5
1A88
  8
0
  6
CONTINUOUS
 62
     7
 10
5.400008000000013
 20
-23.072374529475891
 30
0.0
 40
0.4
 50
130.00520088487309
 51
180.0
  0
ARC
  5
1A89
  8
0
  6
CONTINUOUS
 62
     7
 10
5.400008000000013
 20
-20.92761347052409
 30
0.0
 40
0.4
 50
179.9999999999975
 51
229.9947991151268
  0
LINE
  5
1A8A
  8
0
  6
CONTINUOUS
 62
     7
 10
23.07237552947603
 20
-4.9999830000000003
 30
0.0
 11
24.700000000000021
 21
-4.9999830000000003
 31
0.0
  0
ARC
  5
1A8B
  8
0
  6
CONTINUOUS
 62
     7
 10
21.999995000000009
 20
-4.4999830000000003
 30
0.0
 40
1.0
 50
220.0052008848692
 51
319.99479911512913
  0
ARC
  5
1A8C
  8
0
  6
CONTINUOUS
 62
     7
 10
23.07237552947603
 20
-5.3999829999999909
 30
0.0
 40
0.4
 50
89.999999999996746
 51
139.9947991151291
  0
ARC
  5
1A8D
  8
0
  6
CONTINUOUS
 62
     7
 10
20.927614470524102
 20
-5.3999829999999909
 30
0.0
 40
0.4
 50
40.005200884871513
 51
90.0
  0
LINE
  5
1A8E
  8
0
  6
CONTINUOUS
 62
     7
 10
7.4038080000000113
 20
-12.00000199999999
 30
0.0
 11
10.000003000000021
 21
-14.596196999999989
 31
0.0
  0
LINE
  5
1A8F
  8
0
  6
CONTINUOUS
 62
     7
 10
12.00001
 20
-7.4038159999999777
 30
0.0
 11
14.59620000000001
 21
-10.000006000000001
 31
0.0
  0
LINE
  5
1A90
  8
0
  6
CONTINUOUS
 62
     7
 10
9.0000100000000032
 20
-10.000009999999991
 30
0.0
 11
6.1763270000001
 21
-10.000009999999991
 31
0.0
  0
LINE
  5
1A91
  8
0
  6
CONTINUOUS
 62
     7
 10
3.000000000000028
 20
-6.9686799999999911
 30
0.0
 11
3.000000000000028
 21
-8.2078920000000011
 31
0.0
  0
LINE
  5
1A92
  8
0
  6
CONTINUOUS
 62
     7
 10
5.834307000000023
 20
-9.9397029999999944
 30
0.0
 11
3.6579800000000091
 21
-9.1475849999999923
 31
0.0
  0
ARC
  5
1A93
  8
0
  6
CONTINUOUS
 62
     7
 10
4.0000000000000284
 20
-8.2078920000000011
 30
0.0
 40
1.0
 50
180.0
 51
249.99999999999989
  0
ARC
  5
1A94
  8
0
  6
CONTINUOUS
 62
     7
 10
2.000000000000028
 20
-6.9686799999999911
 30
0.0
 40
1.0
 50
0.0
 51
106.01339399999981
  0
ARC
  5
1A95
  8
0
  6
CONTINUOUS
 62
     7
 10
6.1763270000001
 20
-9.0000099999999872
 30
0.0
 40
1.0
 50
249.99999999999989
 51
270.0
  0
LINE
  5
1A96
  8
0
  6
CONTINUOUS
 62
     7
 10
8.2078910000000178
 20
-3.0
 30
0.0
 11
6.9686800000000062
 21
-3.0
 31
0.0
  0
LINE
  5
1A97
  8
0
  6
CONTINUOUS
 62
     7
 10
9.9397020000000111
 20
-5.8343069999999946
 30
0.0
 11
9.1475840000000233
 21
-3.657979999999994
 31
0.0
  0
ARC
  5
1A98
  8
0
  6
CONTINUOUS
 62
     7
 10
6.9686800000000062
 20
-2.0
 30
0.0
 40
1.0
 50
163.98660600000019
 51
270.0
  0
ARC
  5
1A99
  8
0
  6
CONTINUOUS
 62
     7
 10
8.2078910000000178
 20
-4.0
 30
0.0
 40
1.0
 50
19.999999999999329
 51
90.0
  0
ARC
  5
1A9A
  8
0
  6
CONTINUOUS
 62
     7
 10
9.0000100000000032
 20
-6.1763269999999997
 30
0.0
 40
1.0
 50
0.0
 51
19.999999999999329
  0
LINE
  5
1A9B
  8
0
  6
CONTINUOUS
 62
     7
 10
10.00001
 20
-9.0000099999999872
 30
0.0
 11
10.00001
 21
-6.1763269999999997
 31
0.0
  0
ARC
  5
1A9C
  8
0
  6
CONTINUOUS
 62
     7
 10
9.0000100000000032
 20
-9.0000099999999872
 30
0.0
 40
1.0
 50
270.0
 51
0.0
  0
LINE
  5
1A9D
  8
0
  6
CONTINUOUS
 62
     7
 10
16.476659000000101
 20
-22.0
 30
0.0
 11
11.450003000000089
 21
-22.0
 31
0.0
  0
LINE
  5
1A9E
  8
0
  6
CONTINUOUS
 62
     7
 10
13.000003000000021
 20
-12.000006000000001
 30
0.0
 11
19.558839000000091
 21
-12.000006000000001
 31
0.0
  0
LINE
  5
1A9F
  8
0
  6
CONTINUOUS
 62
     7
 10
12.000003000000021
 20
-13.000006000000001
 30
0.0
 11
12.000003000000021
 21
-19.558847
 31
0.0
  0
ARC
  5
1AA0
  8
0
  6
CONTINUOUS
 62
     7
 10
11.450003000000089
 20
-21.25
 30
0.0
 40
0.75
 50
104.9005970000002
 51
270.0
  0
ARC
  5
1AA1
  8
0
  6
CONTINUOUS
 62
     7
 10
11.000003000000021
 20
-19.558847
 30
0.0
 40
1.0
 50
284.90059700000029
 51
0.0
  0
LINE
  5
1AA2
  8
0
  6
CONTINUOUS
 62
     7
 10
21.99999600000001
 20
-16.476662999999999
 30
0.0
 11
21.999993000000099
 21
-11.450003999999989
 31
0.0
  0
ARC
  5
1AA3
  8
0
  6
CONTINUOUS
 62
     7
 10
21.249993000000021
 20
-11.450003999999989
 30
0.0
 40
0.75
 50
0.0
 51
165.09943600000031
  0
ARC
  5
1AA4
  8
0
  6
CONTINUOUS
 62
     7
 10
19.558839000000091
 20
-11.000006000000001
 30
0.0
 40
1.0
 50
270.0
 51
345.09946999999983
  0
LINE
  5
1AA5
  8
0
  6
CONTINUOUS
 62
     7
 10
17.18376600000002
 20
-21.70710699999999
 30
0.0
 11
21.707103000000021
 21
-17.183769999999988
 31
0.0
  0
ARC
  5
1AA6
  8
0
  6
CONTINUOUS
 62
     7
 10
20.99999600000001
 20
-16.476662999999999
 30
0.0
 40
1.0
 50
315.0
 51
0.0000340000004907
  0
ARC
  5
1AA7
  8
0
  6
CONTINUOUS
 62
     7
 10
16.476659000000101
 20
-21.0
 30
0.0
 40
1.0
 50
270.0
 51
315.0
  0
ARC
  5
1AA8
  8
0
  6
CONTINUOUS
 62
     7
 10
0.0000000000000284
 20
0.0
 30
0.0
 40
6.25
 50
343.98660600000022
 51
16.013393999999789
  0
LINE
  5
1AA9
  8
0
  6
CONTINUOUS
 62
     7
 10
7.4038080000000832
 20
12.000002000000009
 30
0.0
 11
1.3464192157142061
 21
12.000002000000009
 31
0.0
  0
LINE
  5
1AAA
  8
0
  6
CONTINUOUS
 62
     7
 10
1.0964193959956949
 20
11.93301480597772
 30
0.0
 11
0.0000080000000082
 21
11.30000199999999
 31
0.0
  0
ARC
  5
1AAB
  8
0
  6
CONTINUOUS
 62
     7
 10
1.3464192157142061
 20
11.500002000000009
 30
0.0
 40
0.5
 50
90.0
 51
119.99997614534981
  0
LINE
  5
1AAC
  8
0
  6
CONTINUOUS
 62
     7
 10
12.00001
 20
-7.4038159999999911
 30
0.0
 11
12.00001
 21
-1.346411215714113
 31
0.0
  0
LINE
  5
1AAD
  8
0
  6
CONTINUOUS
 62
     7
 10
11.3000100000001
 20
0.0
 30
0.0
 11
11.93302280597768
 21
-1.0964113959956161
 31
0.0
  0
ARC
  5
1AAE
  8
0
  6
CONTINUOUS
 62
     7
 10
11.50001
 20
-1.346411215714113
 30
0.0
 40
0.5
 50
0.0
 51
29.999976145348011
  0
LINE
  5
1AAF
  8
0
  6
CONTINUOUS
 62
     7
 10
10.00000600000001
 20
14.596199999999991
 30
0.0
 11
10.00000600000001
 21
18.999982999999968
 31
0.0
  0
LINE
  5
1AB0
  8
0
  6
CONTINUOUS
 62
     7
 10
5.2999830000000818
 20
24.999999999999989
 30
0.0
 11
22.000000000000028
 21
24.999999999999989
 31
0.0
  0
ARC
  5
1AB1
  8
0
  6
CONTINUOUS
 62
     7
 10
22.000000000000028
 20
21.999999999999989
 30
0.0
 40
3.0
 50
0.0
 51
90.0
  0
LINE
  5
1AB2
  8
0
  6
CONTINUOUS
 62
     7
 10
25.000000000000028
 20
5.3000080000000054
 30
0.0
 11
25.000000000000028
 21
21.999999999999989
 31
0.0
  0
ARC
  5
1AB3
  8
0
  6
CONTINUOUS
 62
     7
 10
24.700000000000021
 20
5.3000080000000054
 30
0.0
 40
0.3
 50
270.0
 51
0.0
  0
LINE
  5
1AB4
  8
0
  6
CONTINUOUS
 62
     7
 10
14.5961970000001
 20
10.000003
 30
0.0
 11
18.999995000000009
 21
10.000003
 31
0.0
  0
LINE
  5
1AB5
  8
0
  6
CONTINUOUS
 62
     7
 10
5.2999830000000818
 20
18.999985999999989
 30
0.0
 11
10.00000200000002
 21
18.999985999999989
 31
0.0
  0
LINE
  5
1AB6
  8
0
  6
CONTINUOUS
 62
     7
 10
4.9999830000000989
 20
20.927614470524119
 30
0.0
 11
4.9999830000000989
 21
19.299985999999969
 31
0.0
  0
ARC
  5
1AB7
  8
0
  6
CONTINUOUS
 62
     7
 10
5.2999830000000818
 20
19.299985999999969
 30
0.0
 40
0.3
 50
180.0
 51
270.0
  0
LINE
  5
1AB8
  8
0
  6
CONTINUOUS
 62
     7
 10
23.07237452947604
 20
5.000007999999994
 30
0.0
 11
24.700000000000021
 21
5.000007999999994
 31
0.0
  0
LINE
  5
1AB9
  8
0
  6
CONTINUOUS
 62
     7
 10
18.999991000000019
 20
5.3000080000000054
 30
0.0
 11
18.999991000000019
 21
10.000006999999989
 31
0.0
  0
LINE
  5
1ABA
  8
0
  6
CONTINUOUS
 62
     7
 10
20.927613470524111
 20
5.000007999999994
 30
0.0
 11
19.299991000000091
 21
5.000007999999994
 31
0.0
  0
ARC
  5
1ABB
  8
0
  6
CONTINUOUS
 62
     7
 10
19.299991000000091
 20
5.3000080000000054
 30
0.0
 40
0.3
 50
180.0
 51
270.0
  0
ARC
  5
1ABC
  8
0
  6
CONTINUOUS
 62
     7
 10
21.9999940000001
 20
4.500007999999994
 30
0.0
 40
1.0
 50
40.005200884870881
 51
139.9947991151291
  0
ARC
  5
1ABD
  8
0
  6
CONTINUOUS
 62
     7
 10
20.927613470524111
 20
5.4000079999999988
 30
0.0
 40
0.4
 50
270.0
 51
319.99479911512623
  0
ARC
  5
1ABE
  8
0
  6
CONTINUOUS
 62
     7
 10
23.07237452947604
 20
5.4000079999999988
 30
0.0
 40
0.4
 50
220.0052008848709
 51
270.0
  0
LINE
  5
1ABF
  8
0
  6
CONTINUOUS
 62
     7
 10
4.9999830000000989
 20
23.072375529475991
 30
0.0
 11
4.9999830000000989
 21
24.699999999999971
 31
0.0
  0
ARC
  5
1AC0
  8
0
  6
CONTINUOUS
 62
     7
 10
5.2999830000000818
 20
24.699999999999971
 30
0.0
 40
0.3
 50
90.0
 51
180.0
  0
ARC
  5
1AC1
  8
0
  6
CONTINUOUS
 62
     7
 10
4.4999830000000989
 20
21.999994999999998
 30
0.0
 40
1.0
 50
310.00520088487087
 51
49.994799115129112
  0
ARC
  5
1AC2
  8
0
  6
CONTINUOUS
 62
     7
 10
5.3999830000001046
 20
20.927614470524119
 30
0.0
 40
0.4
 50
130.00520088487309
 51
180.0
  0
ARC
  5
1AC3
  8
0
  6
CONTINUOUS
 62
     7
 10
5.3999830000001046
 20
23.072375529475991
 30
0.0
 40
0.4
 50
180.0
 51
229.99479911512961
  0
LINE
  5
1AC4
  8
0
  6
CONTINUOUS
 62
     7
 10
12.00000200000002
 20
7.4038080000000122
 30
0.0
 11
14.5961970000001
 21
10.000003
 31
0.0
  0
LINE
  5
1AC5
  8
0
  6
CONTINUOUS
 62
     7
 10
7.4038080000000832
 20
12.000002000000009
 30
0.0
 11
10.00000600000001
 21
14.596199999999991
 31
0.0
  0
LINE
  5
1AC6
  8
0
  6
CONTINUOUS
 62
     7
 10
10.00001
 20
9.0000100000000174
 30
0.0
 11
10.00001
 21
6.1763269999999997
 31
0.0
  0
LINE
  5
1AC7
  8
0
  6
CONTINUOUS
 62
     7
 10
6.9686800000000062
 20
3.0000000000000142
 30
0.0
 11
8.2078910000000178
 21
3.0000000000000142
 31
0.0
  0
LINE
  5
1AC8
  8
0
  6
CONTINUOUS
 62
     7
 10
9.9397020000000111
 20
5.8343070000000088
 30
0.0
 11
9.1475840000000233
 21
3.657979999999994
 31
0.0
  0
ARC
  5
1AC9
  8
0
  6
CONTINUOUS
 62
     7
 10
8.2078910000000178
 20
4.0000000000000142
 30
0.0
 40
1.0
 50
270.0
 51
340.00000000000068
  0
ARC
  5
1ACA
  8
0
  6
CONTINUOUS
 62
     7
 10
6.9686800000000062
 20
2.0000000000000142
 30
0.0
 40
1.0
 50
90.0
 51
196.01339399999981
  0
ARC
  5
1ACB
  8
0
  6
CONTINUOUS
 62
     7
 10
9.0000100000000032
 20
6.1763269999999997
 30
0.0
 40
1.0
 50
340.00000000000068
 51
0.0
  0
LINE
  5
1ACC
  8
0
  6
CONTINUOUS
 62
     7
 10
3.000000000000028
 20
8.2078920000000011
 30
0.0
 11
3.000000000000028
 21
6.9686799999999911
 31
0.0
  0
LINE
  5
1ACD
  8
0
  6
CONTINUOUS
 62
     7
 10
5.834307000000023
 20
9.9397019999999952
 30
0.0
 11
3.6579800000000091
 21
9.147584000000009
 31
0.0
  0
ARC
  5
1ACE
  8
0
  6
CONTINUOUS
 62
     7
 10
2.000000000000028
 20
6.9686799999999911
 30
0.0
 40
1.0
 50
253.98660600000019
 51
0.0
  0
ARC
  5
1ACF
  8
0
  6
CONTINUOUS
 62
     7
 10
4.0000000000000284
 20
8.2078920000000011
 30
0.0
 40
1.0
 50
110.0000000000001
 51
180.0
  0
ARC
  5
1AD0
  8
0
  6
CONTINUOUS
 62
     7
 10
6.1763270000001
 20
9.0000100000000174
 30
0.0
 40
1.0
 50
90.0
 51
110.0000000000001
  0
LINE
  5
1AD1
  8
0
  6
CONTINUOUS
 62
     7
 10
9.0000100000000032
 20
10.00001000000001
 30
0.0
 11
6.1763270000001
 21
10.00001000000001
 31
0.0
  0
ARC
  5
1AD2
  8
0
  6
CONTINUOUS
 62
     7
 10
9.0000100000000032
 20
9.0000100000000174
 30
0.0
 40
1.0
 50
0.0
 51
90.0
  0
LINE
  5
1AD3
  8
0
  6
CONTINUOUS
 62
     7
 10
22.000000000000028
 20
16.476658999999991
 30
0.0
 11
22.000000000000028
 21
11.45000299999999
 31
0.0
  0
LINE
  5
1AD4
  8
0
  6
CONTINUOUS
 62
     7
 10
12.00000600000001
 20
13.000003
 30
0.0
 11
12.00000600000001
 21
19.558838999999988
 31
0.0
  0
LINE
  5
1AD5
  8
0
  6
CONTINUOUS
 62
     7
 10
13.00000600000001
 20
12.00000300000001
 30
0.0
 11
19.55884600000002
 21
12.00000300000001
 31
0.0
  0
ARC
  5
1AD6
  8
0
  6
CONTINUOUS
 62
     7
 10
21.250000000000028
 20
11.45000299999999
 30
0.0
 40
0.75
 50
194.900597
 51
0.0
  0
ARC
  5
1AD7
  8
0
  6
CONTINUOUS
 62
     7
 10
19.55884600000002
 20
11.000003
 30
0.0
 40
1.0
 50
14.900597000000049
 51
90.0
  0
LINE
  5
1AD8
  8
0
  6
CONTINUOUS
 62
     7
 10
16.47666200000009
 20
21.999995999999989
 30
0.0
 11
11.450003000000089
 21
21.999992999999979
 31
0.0
  0
ARC
  5
1AD9
  8
0
  6
CONTINUOUS
 62
     7
 10
11.45000400000009
 20
21.249992999999979
 30
0.0
 40
0.75
 50
90.0
 51
255.09943599999869
  0
ARC
  5
1ADA
  8
0
  6
CONTINUOUS
 62
     7
 10
11.00000600000001
 20
19.558838999999988
 30
0.0
 40
1.0
 50
0.0
 51
75.099469999999769
  0
LINE
  5
1ADB
  8
0
  6
CONTINUOUS
 62
     7
 10
21.707107000000011
 20
17.183765999999981
 30
0.0
 11
17.18377000000001
 21
21.707102999999972
 31
0.0
  0
ARC
  5
1ADC
  8
0
  6
CONTINUOUS
 62
     7
 10
16.476662999999999
 20
20.999995999999999
 30
0.0
 40
1.0
 50
45.0
 51
90.000033999998863
  0
ARC
  5
1ADD
  8
0
  6
CONTINUOUS
 62
     7
 10
21.000000000000028
 20
16.476658999999991
 30
0.0
 40
1.0
 50
0.0
 51
45.0
  0
ARC
  5
1ADE
  8
0
  6
CONTINUOUS
 62
     7
 10
13.00000600000001
 20
13.000003
 30
0.0
 40
1.0
 50
180.0
 51
270.0
  0
ARC
  5
1ADF
  8
0
  6
CONTINUOUS
 62
     7
 10
-13.000002999999991
 20
13.000006000000001
 30
0.0
 40
1.0
 50
270.0
 51
0.0
  0
ARC
  5
1AE0
  8
0
  6
CONTINUOUS
 62
     7
 10
-13.00000599999998
 20
-13.000002999999991
 30
0.0
 40
1.0
 50
0.0
 51
90.0
  0
ARC
  5
1AE1
  8
0
  6
CONTINUOUS
 62
     7
 10
13.000003000000021
 20
-13.000006000000001
 30
0.0
 40
1.0
 50
90.0
 51
180.0
  0
LINE
  5
1AF3
  8
0
  6
CONTINUOUS
 62
     7
 10
70.005445681852052
 20
24.999999999999989
 30
0.0
 11
120.005445681852
 21
24.999999999999989
 31
0.0
  0
LINE
  5
1AF4
  8
0
  6
CONTINUOUS
 62
     7
 10
70.005445681852052
 20
-25.0
 30
0.0
 11
120.005445681852
 21
-25.0
 31
0.0
  0
LINE
  5
1AF5
  8
0
  6
CONTINUOUS
 62
     7
 10
70.005445681852052
 20
-4.9999830000000003
 30
0.0
 11
120.005445681852
 21
-4.9999830000000003
 31
0.0
  0
LINE
  5
1AF6
  8
0
  6
CONTINUOUS
 62
     7
 10
70.005445681852052
 20
5.000007999999994
 30
0.0
 11
120.005445681852
 21
5.000007999999994
 31
0.0
  0
LINE
  5
1AF7
  8
0
  6
CONTINUOUS
 62
     7
 10
70.005445681852052
 20
0.0
 30
0.0
 11
120.005445681852
 21
0.0
 31
0.0
  0
LINE
  5
1AF8
  8
0
  6
CONTINUOUS
 62
     7
 10
70.005445681852052
 20
3.500007999999994
 30
0.0
 11
120.005445681852
 21
3.500007999999994
 31
0.0
  0
LINE
  5
1AFF
  8
0
  6
CONTINUOUS
 62
     7
 10
70.005445681852052
 20
24.999999999999989
 30
0.0
 11
70.005445681852052
 21
-25.0
 31
0.0
  0
LINE
  5
1B00
  8
0
  6
CONTINUOUS
 62
     7
 10
120.005445681852
 20
24.999999999999989
 30
0.0
 11
120.005445681852
 21
-25.0
 31
0.0
  0
LINE
  5
1B13
  8
CENTER
  6
CENTER
 62
     1
 10
0.0000000000000304
 20
27.000000894100062
 30
0.0
 11
0.0000000000000237
 21
-27.000000893999911
 31
0.0
  0
LINE
  5
1B14
  8
CENTER
  6
CENTER
 62
     1
 10
-27.000000894099848
 20
0.0000000000001451
 30
0.0
 11
27.00000089410014
 21
0.0000000000001418
 31
0.0
  0
LINE
  5
1B15
  8
CENTER
  6
CENTER
 62
     1
 10
68.005445681852052
 20
0.0
 30
0.0
 11
122.005445681852
 21
0.0
 31
0.0
  0
INSERT
  5
1B17
  8
0
  6
CONTINUOUS
 62
     7
  2
*U17
 10
0.0
 20
0.0
 30
0.0
  0
INSERT
  5
1B18
  8
0
  6
CONTINUOUS
 62
     7
  2
*U18
 10
0.0
 20
0.0
 30
0.0
  0
CIRCLE
  5
1B64
  8
0
  6
PHANTOM
 62
     3
 10
0.0000000000000568
 20
0.0000000000001433
 30
0.0
 40
6.25
  0
ENDSEC
  0
EOF
