  0
SECTION
  2
HEADER
  9
$ACADVER
  1
AC1009
  9
$INSBASE
 10
0.0
 20
0.0
 30
0.0
  9
$EXTMIN
 10
-64.975695873491745
 20
-50.747610342945421
 30
0.0
  9
$EXTMAX
 10
168.1046665510722
 20
52.872675150867849
 30
0.0
  9
$LIMMIN
 10
0.0
 20
0.0
  9
$LIMMAX
 10
420.0
 20
297.0
  9
$ORTHOMODE
 70
     0
  9
$REGENMODE
 70
     1
  9
$FILLMODE
 70
     1
  9
$QTEXTMODE
 70
     0
  9
$MIRRTEXT
 70
     0
  9
$DRAGMODE
 70
     2
  9
$LTSCALE
 40
1.0
  9
$OSMODE
 70
  2109
  9
$ATTMODE
 70
     1
  9
$TEXTSIZE
 40
3.0
  9
$TRACEWID
 40
1.0
  9
$TEXTSTYLE
  7
STANDARD
  9
$CLAYER
  8
0
  9
$CELTYPE
  6
CONTINUOUS
  9
$CECOLOR
 62
     7
  9
$DIMSCALE
 40
1.0
  9
$DIMASZ
 40
2.5
  9
$DIMEXO
 40
0.625
  9
$DIMDLI
 40
3.75
  9
$DIMRND
 40
0.0
  9
$DIMDLE
 40
0.0
  9
$DIMEXE
 40
1.25
  9
$DIMTP
 40
0.0
  9
$DIMTM
 40
0.0
  9
$DIMTXT
 40
2.5
  9
$DIMCEN
 40
2.5
  9
$DIMTSZ
 40
0.0
  9
$DIMTOL
 70
     0
  9
$DIMLIM
 70
     0
  9
$DIMTIH
 70
     0
  9
$DIMTOH
 70
     0
  9
$DIMSE1
 70
     0
  9
$DIMSE2
 70
     0
  9
$DIMTAD
 70
     1
  9
$DIMZIN
 70
     8
  9
$DIMBLK
  1
OPEN30
  9
$DIMASO
 70
     1
  9
$DIMSHO
 70
     1
  9
$DIMPOST
  1

  9
$DIMAPOST
  1

  9
$DIMALT
 70
     0
  9
$DIMALTD
 70
     3
  9
$DIMALTF
 40
0.03937007874016
  9
$DIMLFAC
 40
1.0
  9
$DIMTOFL
 70
     1
  9
$DIMTVP
 40
0.0
  9
$DIMTIX
 70
     0
  9
$DIMSOXD
 70
     0
  9
$DIMSAH
 70
     0
  9
$DIMBLK1
  1

  9
$DIMBLK2
  1

  9
$DIMSTYLE
  2
MISUMI
  9
$DIMCLRD
 70
   137
  9
$DIMCLRE
 70
   137
  9
$DIMCLRT
 70
   137
  9
$DIMTFAC
 40
1.0
  9
$DIMGAP
 40
0.625
  9
$LUNITS
 70
     2
  9
$LUPREC
 70
     2
  9
$SKETCHINC
 40
1.0
  9
$FILLETRAD
 40
0.0
  9
$AUNITS
 70
     0
  9
$AUPREC
 70
     0
  9
$MENU
  1
.
  9
$ELEVATION
 40
0.0
  9
$PELEVATION
 40
0.0
  9
$THICKNESS
 40
0.0
  9
$LIMCHECK
 70
     0
  9
$BLIPMODE
 70
     0
  9
$CHAMFERA
 40
0.5
  9
$CHAMFERB
 40
0.5
  9
$SKPOLY
 70
     0
  9
$TDCREATE
 40
2455135.5720697111
  9
$TDUPDATE
 40
2455656.607309734
  9
$TDINDWG
 40
0.0708926273
  9
$TDUSRTIMER
 40
0.0708924421
  9
$USRTIMER
 70
     1
  9
$ANGBASE
 50
0.0
  9
$ANGDIR
 70
     0
  9
$PDMODE
 70
    35
  9
$PDSIZE
 40
0.0
  9
$PLINEWID
 40
0.0
  9
$COORDS
 70
     1
  9
$SPLFRAME
 70
     0
  9
$SPLINETYPE
 70
     6
  9
$SPLINESEGS
 70
     8
  9
$ATTDIA
 70
     0
  9
$ATTREQ
 70
     1
  9
$HANDLING
 70
     1
  9
$HANDSEED
  5
1F9E
  9
$SURFTAB1
 70
     6
  9
$SURFTAB2
 70
     6
  9
$SURFTYPE
 70
     6
  9
$SURFU
 70
     6
  9
$SURFV
 70
     6
  9
$UCSNAME
  2

  9
$UCSORG
 10
0.0
 20
0.0
 30
0.0
  9
$UCSXDIR
 10
1.0
 20
0.0
 30
0.0
  9
$UCSYDIR
 10
0.0
 20
1.0
 30
0.0
  9
$PUCSNAME
  2

  9
$PUCSORG
 10
0.0
 20
0.0
 30
0.0
  9
$PUCSXDIR
 10
1.0
 20
0.0
 30
0.0
  9
$PUCSYDIR
 10
0.0
 20
1.0
 30
0.0
  9
$USERI1
 70
     0
  9
$USERI2
 70
     0
  9
$USERI3
 70
     0
  9
$USERI4
 70
     0
  9
$USERI5
 70
     0
  9
$USERR1
 40
0.0
  9
$USERR2
 40
0.0
  9
$USERR3
 40
0.0
  9
$USERR4
 40
0.0
  9
$USERR5
 40
0.0
  9
$WORLDVIEW
 70
     1
  9
$SHADEDGE
 70
     3
  9
$SHADEDIF
 70
    70
  9
$TILEMODE
 70
     1
  9
$MAXACTVP
 70
    64
  9
$PLIMCHECK
 70
     0
  9
$PEXTMIN
 10
0.0
 20
0.0
 30
0.0
  9
$PEXTMAX
 10
0.0
 20
0.0
 30
0.0
  9
$PLIMMIN
 10
0.0
 20
0.0
  9
$PLIMMAX
 10
12.0
 20
9.0
  9
$UNITMODE
 70
     0
  9
$VISRETAIN
 70
     1
  9
$PLINEGEN
 70
     0
  9
$PSLTSCALE
 70
     1
  0
ENDSEC
  0
SECTION
  2
TABLES
  0
TABLE
  2
VPORT
 70
     1
  0
VPORT
  2
*ACTIVE
 70
     0
 10
0.0
 20
0.0
 11
1.0
 21
1.0
 12
40.611144186514132
 22
55.46114619036728
 13
0.0
 23
0.0
 14
10.0
 24
10.0
 15
10.0
 25
10.0
 16
0.0
 26
0.0
 36
1.0
 17
0.0
 27
0.0
 37
0.0
 40
327.62031390828082
 41
1.0918367346938771
 42
50.0
 43
0.0
 44
0.0
 50
0.0
 51
0.0
 71
     0
 72
  1000
 73
     1
 74
     3
 75
     0
 76
     0
 77
     0
 78
     0
  0
ENDTAB
  0
TABLE
  2
LTYPE
 70
     4
  0
LTYPE
  2
CONTINUOUS
 70
     0
  3
Solid line
 72
    65
 73
     0
 40
0.0
  0
LTYPE
  2
CENTER
 70
     0
  3
Center ____ _ ____ _ ____ _ ____ _ ____ _ ____
 72
    65
 73
     4
 40
50.799999999999997
 49
31.75
 49
-6.3499999999999988
 49
6.3499999999999988
 49
-6.3499999999999988
  0
LTYPE
  2
DASHED
 70
     0
  3
Dashed __ __ __ __ __ __ __ __ __ __ __ __ __ _
 72
    65
 73
     2
 40
19.050000000000001
 49
12.699999999999999
 49
-6.3499999999999988
  0
LTYPE
  2
PHANTOM
 70
     0
  3
Phantom ______  __  __  ______  __  __  ______
 72
    65
 73
     6
 40
63.5
 49
31.75
 49
-6.3499999999999988
 49
6.3499999999999988
 49
-6.3499999999999988
 49
6.3499999999999988
 49
-6.3499999999999988
  0
ENDTAB
  0
TABLE
  2
LAYER
 70
     3
  0
LAYER
  2
0
 70
     0
 62
     7
  6
CONTINUOUS
  0
LAYER
  2
CENTER
 70
     0
 62
     1
  6
CENTER
  0
LAYER
  2
DEFPOINTS
 70
     0
 62
     7
  6
CONTINUOUS
  0
ENDTAB
  0
TABLE
  2
STYLE
 70
     1
  0
STYLE
  2
STANDARD
 70
     0
 40
3.0
 41
1.0
 50
0.0
 71
     0
 42
3.0
  3
txt.shx
  4
bigfont.shx
  0
ENDTAB
  0
TABLE
  2
VIEW
 70
     0
  0
ENDTAB
  0
TABLE
  2
UCS
 70
     0
  0
ENDTAB
  0
TABLE
  2
APPID
 70
     8
  0
APPID
  2
ACAD
 70
     0
  0
APPID
  2
ACAD_MLEADERVER
 70
     0
  0
APPID
  2
ACAD_PSEXT
 70
     0
  0
APPID
  2
ACAD_DSTYLE_DIMRADIAL_EXTENSION
 70
     0
  0
APPID
  2
ACAD_EXEMPT_FROM_CAD_STANDARDS
 70
     0
  0
APPID
  2
GRADIENTCOLOR1ACI
 70
     0
  0
APPID
  2
GRADIENTCOLOR2ACI
 70
     0
  0
APPID
  2
ACAECLAYERSTANDARD
 70
     0
  0
ENDTAB
  0
TABLE
  2
DIMSTYLE
 70
     1
  0
DIMSTYLE
  2
MISUMI
 70
     0
  3

  4

  5
OPEN30
  6

  7

 40
1.0
 41
2.5
 42
0.625
 43
3.75
 44
1.25
 45
0.0
 46
0.0
 47
0.0
 48
0.0
140
2.5
141
2.5
142
0.0
143
0.03937007874016
144
1.0
145
0.0
146
1.0
147
0.625
 71
     0
 72
     0
 73
     0
 74
     0
 75
     0
 76
     0
 77
     1
 78
     8
170
     0
171
     3
172
     1
173
     0
174
     0
175
     0
176
   137
177
   137
178
   137
  0
ENDTAB
  0
ENDSEC
  0
SECTION
  2
BLOCKS
  0
BLOCK
  8
0
  2
$MODEL_SPACE
 70
     0
 10
0.0
 20
0.0
 30
0.0
  3
$MODEL_SPACE
  1

  0
ENDBLK
  5
21
  8
0
  0
BLOCK
 67
     1
  8
0
  2
$PAPER_SPACE
 70
     0
 10
0.0
 20
0.0
 30
0.0
  3
$PAPER_SPACE
  1

  0
ENDBLK
  5
53
 67
     1
  8
0
  0
BLOCK
  8
0
 62
     7
  2
_OPEN30
 70
     0
 10
0.0
 20
0.0
 30
0.0
  3
_OPEN30
  1

  0
LINE
  5
D7
  8
0
  6
BYBLOCK
 62
     0
 10
-1.0
 20
0.26794919
 30
0.0
 11
0.0
 21
0.0
 31
0.0
  0
LINE
  5
D8
  8
0
  6
BYBLOCK
 62
     0
 10
0.0
 20
0.0
 30
0.0
 11
-1.0
 21
-0.26794919
 31
0.0
  0
LINE
  5
D9
  8
0
  6
BYBLOCK
 62
     0
 10
0.0
 20
0.0
 30
0.0
 11
-1.0
 21
0.0
 31
0.0
  0
ENDBLK
  5
DB
  8
0
 62
     7
  0
BLOCK
  8
0
 62
     7
  2
*U19
 70
     1
 10
0.0
 20
0.0
 30
0.0
  3
*U19
  1

  0
TEXT
  5
1F97
  8
0
  6
CONTINUOUS
 62
     7
 10
-45.000000893999989
 20
-45.132634525910277
 30
0.0
 40
3.0
  1
NEFS8-4590-50
  0
ENDBLK
  5
1F99
  8
0
 62
     7
  0
BLOCK
  8
0
 62
     7
  2
*U20
 70
     1
 10
0.0
 20
0.0
 30
0.0
  3
*U20
  1

  0
TEXT
  5
1F9B
  8
0
  6
CONTINUOUS
 62
     7
 10
-45.000000893999989
 20
-50.747610342945421
 30
0.0
 40
3.0
  1
NEFS8-4590
  0
ENDBLK
  5
1F9D
  8
0
 62
     7
  0
ENDSEC
  0
SECTION
  2
ENTITIES
  0
ARC
  5
1A82
  8
0
  6
CONTINUOUS
 62
     7
 10
39.39999999999992
 20
-14.2381820158
 30
0.0
 40
1.0000000000000091
 50
311.12147616820027
 51
0.0
  0
LINE
  5
1A83
  8
0
  6
CONTINUOUS
 62
     7
 10
40.399999320500001
 20
-14.2381824553
 30
0.0
 11
40.399999320500001
 21
-12.50000018620001
 31
0.0
  0
ARC
  5
1A84
  8
0
  6
CONTINUOUS
 62
     7
 10
39.39999999999992
 20
-12.5
 30
0.0
 40
1.0
 50
0.0
 51
90.0
  0
LINE
  5
1A85
  8
0
  6
CONTINUOUS
 62
     7
 10
39.400001019299943
 20
-11.5000000223001
 30
0.0
 11
34.500000029799907
 21
-11.5000000223001
 31
0.0
  0
ARC
  5
1A86
  8
0
  6
CONTINUOUS
 62
     7
 10
34.5
 20
-12.0
 30
0.0
 40
0.5
 50
90.0
 51
180.0
  0
LINE
  5
1A87
  8
0
  6
CONTINUOUS
 62
     7
 10
33.999999016599929
 20
-12.0000001043
 30
0.0
 11
33.999999016599929
 21
-19.9999995529
 31
0.0
  0
ARC
  5
1A88
  8
0
  6
CONTINUOUS
 62
     7
 10
34.5
 20
-20.0
 30
0.0
 40
0.5
 50
180.0
 51
270.0
  0
LINE
  5
1A89
  8
0
  6
CONTINUOUS
 62
     7
 10
34.500000029799907
 20
-20.5000005662001
 30
0.0
 11
36.041670441699893
 21
-20.5000005662001
 31
0.0
  0
ARC
  5
1A8A
  8
0
  6
CONTINUOUS
 62
     7
 10
36.041669924499928
 20
-19.5
 30
0.0
 40
1.0000000000000051
 50
270.0
 51
343.78280543680052
  0
ARC
  5
1A8B
  8
0
  6
CONTINUOUS
 62
     7
 10
46.699999999999932
 20
-22.600000000000019
 30
0.0
 40
10.1
 50
131.1214761682003
 51
163.7828054368004
  0
ARC
  5
1A8C
  8
0
  6
CONTINUOUS
 62
     7
 10
-36.041669924399997
 20
-19.5
 30
0.0
 40
1.0
 50
196.21719456319951
 51
270.0
  0
LINE
  5
1A8D
  8
0
  6
CONTINUOUS
 62
     7
 10
-34.500000104299993
 20
-20.5000005662001
 30
0.0
 11
-36.041669584799997
 21
-20.5000005662001
 31
0.0
  0
ARC
  5
1A8E
  8
0
  6
CONTINUOUS
 62
     7
 10
-34.499999999999993
 20
-20.0
 30
0.0
 40
0.5
 50
270.0
 51
0.0
  0
LINE
  5
1A8F
  8
0
  6
CONTINUOUS
 62
     7
 10
-34.0000000223001
 20
-12.0000001043
 30
0.0
 11
-34.0000000223001
 21
-19.9999995529
 31
0.0
  0
ARC
  5
1A90
  8
0
  6
CONTINUOUS
 62
     7
 10
-34.499999999999993
 20
-12.0
 30
0.0
 40
0.5
 50
0.0
 51
90.0
  0
LINE
  5
1A91
  8
0
  6
CONTINUOUS
 62
     7
 10
-39.399999231099997
 20
-11.5000000223001
 30
0.0
 11
-34.500000104299993
 21
-11.5000000223001
 31
0.0
  0
ARC
  5
1A92
  8
0
  6
CONTINUOUS
 62
     7
 10
-39.399999999999991
 20
-12.5
 30
0.0
 40
1.0000000000000071
 50
90.0
 51
180.0
  0
LINE
  5
1A93
  8
0
  6
CONTINUOUS
 62
     7
 10
-40.39999939499998
 20
-14.2381824553
 30
0.0
 11
-40.39999939499998
 21
-12.50000018620001
 31
0.0
  0
ARC
  5
1A94
  8
0
  6
CONTINUOUS
 62
     7
 10
-39.399999999999991
 20
-14.2381820158
 30
0.0
 40
1.0000000000000071
 50
180.0
 51
228.8785238317997
  0
ARC
  5
1A95
  8
0
  6
CONTINUOUS
 62
     7
 10
-46.699999999999989
 20
-22.600000000000019
 30
0.0
 40
10.1
 50
16.217194563199559
 51
48.878523831799683
  0
ARC
  5
1A96
  8
0
  6
CONTINUOUS
 62
     7
 10
36.041669924499928
 20
19.499999999999979
 30
0.0
 40
1.0000000000000011
 50
16.217194563199559
 51
90.0
  0
LINE
  5
1A97
  8
0
  6
CONTINUOUS
 62
     7
 10
34.500000029799907
 20
20.500000566299899
 30
0.0
 11
36.041670441699893
 21
20.500000566299899
 31
0.0
  0
ARC
  5
1A98
  8
0
  6
CONTINUOUS
 62
     7
 10
34.5
 20
19.999999999999979
 30
0.0
 40
0.5
 50
90.0
 51
180.0
  0
LINE
  5
1A99
  8
0
  6
CONTINUOUS
 62
     7
 10
33.999999016599929
 20
12.00000010430001
 30
0.0
 11
33.999999016599929
 21
19.999999552999881
 31
0.0
  0
ARC
  5
1A9A
  8
0
  6
CONTINUOUS
 62
     7
 10
34.5
 20
11.99999999999998
 30
0.0
 40
0.5
 50
180.0
 51
270.0
  0
LINE
  5
1A9B
  8
0
  6
CONTINUOUS
 62
     7
 10
39.400001019299943
 20
11.500000022399901
 30
0.0
 11
34.500000029799907
 21
11.500000022399901
 31
0.0
  0
ARC
  5
1A9C
  8
0
  6
CONTINUOUS
 62
     7
 10
39.39999999999992
 20
12.49999999999998
 30
0.0
 40
1.0
 50
270.0
 51
0.0
  0
LINE
  5
1A9D
  8
0
  6
CONTINUOUS
 62
     7
 10
40.399999320500001
 20
14.23818245529999
 30
0.0
 11
40.399999320500001
 21
12.500000186299999
 31
0.0
  0
ARC
  5
1A9E
  8
0
  6
CONTINUOUS
 62
     7
 10
39.39999999999992
 20
14.238182015899911
 30
0.0
 40
1.0000000000000191
 50
0.0
 51
48.878523831799683
  0
ARC
  5
1A9F
  8
0
  6
CONTINUOUS
 62
     7
 10
46.699999999999932
 20
22.599999999999898
 30
0.0
 40
10.1
 50
196.21719456319951
 51
228.8785238317997
  0
ARC
  5
1AA0
  8
0
  6
CONTINUOUS
 62
     7
 10
19.0
 20
-7.2999999999999972
 30
0.0
 40
0.5000000000000142
 50
270.0
 51
0.0
  0
LINE
  5
1AA1
  8
0
  6
CONTINUOUS
 62
     7
 10
19.4999994337999
 20
-6.9686798379000123
 30
0.0
 11
19.4999994337999
 21
-7.3000001721000132
 31
0.0
  0
ARC
  5
1AA2
  8
0
  6
CONTINUOUS
 62
     7
 10
20.5
 20
-6.9686799324000921
 30
0.0
 40
1.0
 50
73.986605576100189
 51
180.0
  0
ARC
  5
1AA3
  8
0
  6
CONTINUOUS
 62
     7
 10
22.5
 20
0.0
 30
0.0
 40
6.2500000000000071
 50
253.9866055761002
 51
286.0133944238998
  0
ARC
  5
1AA4
  8
0
  6
CONTINUOUS
 62
     7
 10
24.5
 20
-6.9686799324000921
 30
0.0
 40
1.0
 50
0.0
 51
106.0133944238998
  0
LINE
  5
1AA5
  8
0
  6
CONTINUOUS
 62
     7
 10
25.500000417299901
 20
-7.3000001721000132
 30
0.0
 11
25.500000417299901
 21
-6.9686798379000123
 31
0.0
  0
ARC
  5
1AA6
  8
0
  6
CONTINUOUS
 62
     7
 10
26.0
 20
-7.2999999999999972
 30
0.0
 40
0.5
 50
180.0
 51
270.0
  0
LINE
  5
1AA7
  8
0
  6
CONTINUOUS
 62
     7
 10
29.799998700700002
 20
-7.7999997884001004
 30
0.0
 11
26.000001430499911
 21
-7.7999997884001004
 31
0.0
  0
ARC
  5
1AA8
  8
0
  6
CONTINUOUS
 62
     7
 10
29.79999999999993
 20
-7.2999999999999972
 30
0.0
 40
0.5
 50
270.0
 51
0.0
  0
LINE
  5
1AA9
  8
0
  6
CONTINUOUS
 62
     7
 10
30.299999713899918
 20
-3.500000108000108
 30
0.0
 11
30.299999713899918
 21
-7.3000001721000132
 31
0.0
  0
ARC
  5
1AAA
  8
0
  6
CONTINUOUS
 62
     7
 10
29.79999999999993
 20
-3.5
 30
0.0
 40
0.5
 50
0.0
 51
90.0
  0
LINE
  5
1AAB
  8
0
  6
CONTINUOUS
 62
     7
 10
29.468678832099901
 20
-3.000000026100011
 30
0.0
 11
29.799998700700002
 21
-3.000000026100011
 31
0.0
  0
ARC
  5
1AAC
  8
0
  6
CONTINUOUS
 62
     7
 10
29.468679932400018
 20
-2.0
 30
0.0
 40
1.0000000000000071
 50
163.9866055761002
 51
270.0
  0
ARC
  5
1AAD
  8
0
  6
CONTINUOUS
 62
     7
 10
22.5
 20
0.0
 30
0.0
 40
6.250000000000119
 50
343.98660557600022
 51
16.013394423899811
  0
ARC
  5
1AAE
  8
0
  6
CONTINUOUS
 62
     7
 10
29.468679932400018
 20
2.0
 30
0.0
 40
1.0000000000000071
 50
90.0
 51
196.01339442399981
  0
LINE
  5
1AAF
  8
0
  6
CONTINUOUS
 62
     7
 10
29.468678832099901
 20
3.0000000260998831
 30
0.0
 11
29.799998700700002
 21
3.0000000260998831
 31
0.0
  0
ARC
  5
1AB0
  8
0
  6
CONTINUOUS
 62
     7
 10
29.79999999999993
 20
3.5
 30
0.0
 40
0.5
 50
270.0
 51
0.0
  0
LINE
  5
1AB1
  8
0
  6
CONTINUOUS
 62
     7
 10
30.299999713899918
 20
3.500000108099897
 30
0.0
 11
30.299999713899918
 21
7.3000001720999839
 31
0.0
  0
ARC
  5
1AB2
  8
0
  6
CONTINUOUS
 62
     7
 10
29.79999999999993
 20
7.299999999999911
 30
0.0
 40
0.5
 50
0.0
 51
90.0
  0
LINE
  5
1AB3
  8
0
  6
CONTINUOUS
 62
     7
 10
29.799998700700002
 20
7.7999997884000001
 30
0.0
 11
26.000001430499911
 21
7.7999997884000001
 31
0.0
  0
ARC
  5
1AB4
  8
0
  6
CONTINUOUS
 62
     7
 10
26.0
 20
7.299999999999911
 30
0.0
 40
0.5
 50
90.0
 51
180.0
  0
LINE
  5
1AB5
  8
0
  6
CONTINUOUS
 62
     7
 10
25.500000417299901
 20
7.3000001720999839
 30
0.0
 11
25.500000417299901
 21
6.968679837899983
 31
0.0
  0
ARC
  5
1AB6
  8
0
  6
CONTINUOUS
 62
     7
 10
24.5
 20
6.968679932399894
 30
0.0
 40
1.0
 50
253.9866055761002
 51
0.0
  0
ARC
  5
1AB7
  8
0
  6
CONTINUOUS
 62
     7
 10
22.5
 20
0.0
 30
0.0
 40
6.2500000000000071
 50
73.986605576100189
 51
106.0133944238998
  0
ARC
  5
1AB8
  8
0
  6
CONTINUOUS
 62
     7
 10
20.5
 20
6.968679932399894
 30
0.0
 40
1.0
 50
180.0
 51
286.0133944238998
  0
LINE
  5
1AB9
  8
0
  6
CONTINUOUS
 62
     7
 10
19.4999994337999
 20
6.968679837899983
 30
0.0
 11
19.4999994337999
 21
7.3000001720999839
 31
0.0
  0
ARC
  5
1ABA
  8
0
  6
CONTINUOUS
 62
     7
 10
19.0
 20
7.299999999999911
 30
0.0
 40
0.5000000000000142
 50
0.0
 51
90.0
  0
LINE
  5
1ABB
  8
0
  6
CONTINUOUS
 62
     7
 10
15.20000115039991
 20
3.0000000260998831
 30
0.0
 11
15.531321019000019
 21
3.0000000260998831
 31
0.0
  0
ARC
  5
1ABC
  8
0
  6
CONTINUOUS
 62
     7
 10
15.531320067699991
 20
2.0
 30
0.0
 40
1.0000000000000091
 50
343.9866055761002
 51
90.0
  0
ARC
  5
1ABD
  8
0
  6
CONTINUOUS
 62
     7
 10
22.5
 20
0.0
 30
0.0
 40
6.250000000000111
 50
163.9866055761002
 51
196.01339442399981
  0
ARC
  5
1ABE
  8
0
  6
CONTINUOUS
 62
     7
 10
15.531320067699991
 20
-2.0
 30
0.0
 40
1.0000000000000111
 50
270.0
 51
16.013394423899811
  0
ARC
  5
1ABF
  8
0
  6
CONTINUOUS
 62
     7
 10
-39.399999999999991
 20
14.238182015899911
 30
0.0
 40
1.0000000000000071
 50
131.1214761682003
 51
180.0
  0
LINE
  5
1AC0
  8
0
  6
CONTINUOUS
 62
     7
 10
-40.39999939499998
 20
14.23818245529999
 30
0.0
 11
-40.39999939499998
 21
12.500000186299999
 31
0.0
  0
ARC
  5
1AC1
  8
0
  6
CONTINUOUS
 62
     7
 10
-39.399999999999991
 20
12.49999999999998
 30
0.0
 40
1.0000000000000071
 50
180.0
 51
270.0
  0
LINE
  5
1AC2
  8
0
  6
CONTINUOUS
 62
     7
 10
-39.399999231099997
 20
11.500000022399901
 30
0.0
 11
-34.500000104299993
 21
11.500000022399901
 31
0.0
  0
ARC
  5
1AC3
  8
0
  6
CONTINUOUS
 62
     7
 10
-34.499999999999993
 20
11.99999999999998
 30
0.0
 40
0.5
 50
270.0
 51
0.0
  0
LINE
  5
1AC4
  8
0
  6
CONTINUOUS
 62
     7
 10
-34.0000000223001
 20
12.00000010430001
 30
0.0
 11
-34.0000000223001
 21
19.999999552999881
 31
0.0
  0
ARC
  5
1AC5
  8
0
  6
CONTINUOUS
 62
     7
 10
-34.499999999999993
 20
19.999999999999979
 30
0.0
 40
0.5000000000000142
 50
0.0
 51
90.0
  0
LINE
  5
1AC6
  8
0
  6
CONTINUOUS
 62
     7
 10
-34.500000104299993
 20
20.500000566299899
 30
0.0
 11
-36.041669584799997
 21
20.500000566299899
 31
0.0
  0
ARC
  5
1AC7
  8
0
  6
CONTINUOUS
 62
     7
 10
-36.041669924399997
 20
19.499999999999979
 30
0.0
 40
1.0000000000000111
 50
90.0
 51
163.7828054368004
  0
ARC
  5
1AC8
  8
0
  6
CONTINUOUS
 62
     7
 10
-46.699999999999989
 20
22.599999999999898
 30
0.0
 40
10.1
 50
311.12147616820027
 51
343.78280543680052
  0
ARC
  5
1AC9
  8
0
  6
CONTINUOUS
 62
     7
 10
-39.299999999999983
 20
5.2999999999998968
 30
0.0
 40
0.2999999999999972
 50
270.0
 51
0.0
  0
ARC
  5
1ACA
  8
0
  6
CONTINUOUS
 62
     7
 10
-40.975304923399982
 20
5.2999999999998968
 30
0.0
 40
0.2999999999999915
 50
217.97987244490079
 51
270.0
  0
ARC
  5
1ACB
  8
0
  6
CONTINUOUS
 62
     7
 10
-43.02469507659999
 20
5.2999999999998968
 30
0.0
 40
0.2999999999999915
 50
270.0
 51
322.02012755519951
  0
ARC
  5
1ACC
  8
0
  6
CONTINUOUS
 62
     7
 10
-44.699999999999982
 20
5.2999999999998968
 30
0.0
 40
0.2999999999999972
 50
180.0
 51
270.0
  0
ARC
  5
1ACD
  8
0
  6
CONTINUOUS
 62
     7
 10
-41.999999999999979
 20
19.499999999999979
 30
0.0
 40
3.0000000000000062
 50
90.0
 51
180.0
  0
ARC
  5
1ACE
  8
0
  6
CONTINUOUS
 62
     7
 10
-27.799999999999979
 20
22.199999999999889
 30
0.0
 40
0.2999999999999972
 50
0.0
 51
90.0
  0
ARC
  5
1ACF
  8
0
  6
CONTINUOUS
 62
     7
 10
-27.799999999999979
 20
20.5246950766
 30
0.0
 40
0.3000000000000114
 50
307.97987244489963
 51
0.0
  0
ARC
  5
1AD0
  8
0
  6
CONTINUOUS
 62
     7
 10
-27.799999999999979
 20
18.475304923399911
 30
0.0
 40
0.3000000000000114
 50
0.0
 51
52.020127555100331
  0
ARC
  5
1AD1
  8
0
  6
CONTINUOUS
 62
     7
 10
-27.799999999999979
 20
16.799999999999908
 30
0.0
 40
0.3000000000000114
 50
270.0
 51
0.0
  0
ARC
  5
1AD2
  8
0
  6
CONTINUOUS
 62
     7
 10
-17.20000000000007
 20
16.799999999999908
 30
0.0
 40
0.3000000000000114
 50
180.0
 51
270.0
  0
ARC
  5
1AD3
  8
0
  6
CONTINUOUS
 62
     7
 10
-17.20000000000007
 20
18.475304923399911
 30
0.0
 40
0.3000000000000114
 50
127.9798724448997
 51
180.0
  0
ARC
  5
1AD4
  8
0
  6
CONTINUOUS
 62
     7
 10
-17.20000000000007
 20
20.5246950766
 30
0.0
 40
0.3000000000000114
 50
180.0
 51
232.02012755510029
  0
ARC
  5
1AD5
  8
0
  6
CONTINUOUS
 62
     7
 10
-17.20000000000007
 20
22.199999999999889
 30
0.0
 40
0.3000000000000114
 50
90.0
 51
180.0
  0
ARC
  5
1AD6
  8
0
  6
CONTINUOUS
 62
     7
 10
17.20000000000001
 20
22.199999999999889
 30
0.0
 40
0.3000000000000114
 50
0.0
 51
90.0
  0
LINE
  5
1AD7
  8
0
  6
CONTINUOUS
 62
     7
 10
17.49999910599999
 20
22.199999541099992
 30
0.0
 11
17.49999910599999
 21
20.524695515599898
 31
0.0
  0
ARC
  5
1AD8
  8
0
  6
CONTINUOUS
 62
     7
 10
17.20000000000001
 20
20.5246950766
 30
0.0
 40
0.2999999999999972
 50
307.97987244489963
 51
0.0
  0
ARC
  5
1AD9
  8
0
  6
CONTINUOUS
 62
     7
 10
18.0
 20
19.499999999999979
 30
0.0
 40
1.0000000000000011
 50
127.9798724448997
 51
232.02012755510029
  0
ARC
  5
1ADA
  8
0
  6
CONTINUOUS
 62
     7
 10
17.20000000000001
 20
18.475304923399911
 30
0.0
 40
0.3000000000000114
 50
0.0
 51
52.020127555100331
  0
LINE
  5
1ADB
  8
0
  6
CONTINUOUS
 62
     7
 10
17.49999910599999
 20
18.475305288999898
 30
0.0
 11
17.49999910599999
 21
16.79999940099999
 31
0.0
  0
ARC
  5
1ADC
  8
0
  6
CONTINUOUS
 62
     7
 10
17.20000000000001
 20
16.799999999999908
 30
0.0
 40
0.2999999999999972
 50
270.0
 51
0.0
  0
LINE
  5
1ADD
  8
0
  6
CONTINUOUS
 62
     7
 10
17.200001478200019
 20
16.499999910599978
 30
0.0
 11
12.500000149000011
 21
16.499999910599978
 31
0.0
  0
LINE
  5
1ADE
  8
0
  6
CONTINUOUS
 62
     7
 10
12.500000149000011
 20
16.499999910599978
 30
0.0
 11
12.500000149000011
 21
12.12132070219989
 31
0.0
  0
LINE
  5
1ADF
  8
0
  6
CONTINUOUS
 62
     7
 10
12.500000149000011
 20
12.12132070219989
 30
0.0
 11
15.1213192939999
 21
9.4999996944998912
 31
0.0
  0
LINE
  5
1AE0
  8
0
  6
CONTINUOUS
 62
     7
 10
15.1213192939999
 20
9.4999996944998912
 30
0.0
 11
18.99999842050002
 21
9.4999996944998912
 31
0.0
  0
LINE
  5
1AE1
  8
0
  6
CONTINUOUS
 62
     7
 10
18.99999842050002
 20
9.4999996944998912
 30
0.0
 11
20.584844946899889
 21
9.2489849775999033
 31
0.0
  0
LINE
  5
1AE2
  8
0
  6
CONTINUOUS
 62
     7
 10
20.584844946899889
 20
9.2489849775999033
 30
0.0
 11
20.903588235399919
 21
9.4330124556999095
 31
0.0
  0
ARC
  5
1AE3
  8
0
  6
CONTINUOUS
 62
     7
 10
21.153589838500011
 20
8.9999999999999858
 30
0.0
 40
0.5000000000000041
 50
59.999999999999858
 51
120.0000000000001
  0
LINE
  5
1AE4
  8
0
  6
CONTINUOUS
 62
     7
 10
21.403589248700001
 20
9.4330124556999095
 30
0.0
 11
22.50000178820002
 21
8.7999999522999843
 31
0.0
  0
LINE
  5
1AE5
  8
0
  6
CONTINUOUS
 62
     7
 10
22.50000178820002
 20
8.7999999522999843
 30
0.0
 11
23.596410602399999
 21
9.4330124556999095
 31
0.0
  0
ARC
  5
1AE6
  8
0
  6
CONTINUOUS
 62
     7
 10
23.846410161500021
 20
8.9999999999999858
 30
0.0
 40
0.5000000000000041
 50
89.936662877613486
 51
120.0000000000001
  0
LINE
  5
1AE7
  8
0
  6
CONTINUOUS
 62
     7
 10
23.846962882047819
 20
9.4999996944998912
 30
0.0
 11
29.878680556999999
 21
9.4999996944998912
 31
0.0
  0
LINE
  5
1AE8
  8
0
  6
CONTINUOUS
 62
     7
 10
29.878680556999999
 20
9.4999996944998912
 30
0.0
 11
32.499999701999997
 21
12.12132070219989
 31
0.0
  0
LINE
  5
1AE9
  8
0
  6
CONTINUOUS
 62
     7
 10
32.499999701999997
 20
12.12132070219989
 30
0.0
 11
32.499999701999997
 21
16.499999910599978
 31
0.0
  0
LINE
  5
1AEA
  8
0
  6
CONTINUOUS
 62
     7
 10
32.499999701999997
 20
16.499999910599978
 30
0.0
 11
27.799998372799909
 21
16.499999910599978
 31
0.0
  0
ARC
  5
1AEB
  8
0
  6
CONTINUOUS
 62
     7
 10
27.79999999999993
 20
16.799999999999908
 30
0.0
 40
0.2999999999999972
 50
180.0
 51
270.0
  0
LINE
  5
1AEC
  8
0
  6
CONTINUOUS
 62
     7
 10
27.5000007450999
 20
16.79999940099999
 30
0.0
 11
27.5000007450999
 21
18.475305288999898
 31
0.0
  0
ARC
  5
1AED
  8
0
  6
CONTINUOUS
 62
     7
 10
27.79999999999993
 20
18.475304923399911
 30
0.0
 40
0.2999999999999971
 50
127.97987244479999
 51
180.0
  0
ARC
  5
1AEE
  8
0
  6
CONTINUOUS
 62
     7
 10
27.0
 20
19.499999999999979
 30
0.0
 40
0.9999999999999932
 50
307.97987244489963
 51
52.020127555100331
  0
ARC
  5
1AEF
  8
0
  6
CONTINUOUS
 62
     7
 10
27.79999999999993
 20
20.5246950766
 30
0.0
 40
0.3000000000000146
 50
180.0
 51
232.02012755510029
  0
LINE
  5
1AF0
  8
0
  6
CONTINUOUS
 62
     7
 10
27.5000007450999
 20
20.524695515599898
 30
0.0
 11
27.5000007450999
 21
22.199999541099992
 31
0.0
  0
ARC
  5
1AF1
  8
0
  6
CONTINUOUS
 62
     7
 10
27.79999999999993
 20
22.199999999999889
 30
0.0
 40
0.2999999999999972
 50
90.0
 51
180.0
  0
LINE
  5
1AF2
  8
0
  6
CONTINUOUS
 62
     7
 10
27.799998372799909
 20
22.50000089409998
 30
0.0
 11
41.999996602600021
 21
22.50000089409998
 31
0.0
  0
ARC
  5
1AF3
  8
0
  6
CONTINUOUS
 62
     7
 10
42.0
 20
19.499999999999979
 30
0.0
 40
3.0
 50
0.0
 51
90.0
  0
LINE
  5
1AF4
  8
0
  6
CONTINUOUS
 62
     7
 10
45.000002682199998
 20
19.500000402299989
 30
0.0
 11
45.000002682199998
 21
5.2999998443000029
 31
0.0
  0
ARC
  5
1AF5
  8
0
  6
CONTINUOUS
 62
     7
 10
44.699999999999982
 20
5.2999999999998968
 30
0.0
 40
0.3000000000000114
 50
270.0
 51
0.0
  0
LINE
  5
1AF6
  8
0
  6
CONTINUOUS
 62
     7
 10
44.69999760389998
 20
4.9999998882998957
 30
0.0
 11
43.024697303799989
 21
4.9999998882998957
 31
0.0
  0
ARC
  5
1AF7
  8
0
  6
CONTINUOUS
 62
     7
 10
43.024695076599919
 20
5.2999999999998968
 30
0.0
 40
0.3000000000000059
 50
217.97987244490079
 51
270.0
  0
ARC
  5
1AF8
  8
0
  6
CONTINUOUS
 62
     7
 10
42.0
 20
4.5
 30
0.0
 40
1.0000000000000111
 50
37.979872444900828
 51
142.02012755509921
  0
ARC
  5
1AF9
  8
0
  6
CONTINUOUS
 62
     7
 10
40.975304923399932
 20
5.2999999999998968
 30
0.0
 40
0.3000000000000282
 50
270.0
 51
322.02012755519951
  0
LINE
  5
1AFA
  8
0
  6
CONTINUOUS
 62
     7
 10
40.975303351900003
 20
4.9999998882998957
 30
0.0
 11
39.29999932649983
 21
4.9999998882998957
 31
0.0
  0
ARC
  5
1AFB
  8
0
  6
CONTINUOUS
 62
     7
 10
39.299999999999919
 20
5.2999999999998968
 30
0.0
 40
0.2999999999999972
 50
180.0
 51
270.0
  0
LINE
  5
1AFC
  8
0
  6
CONTINUOUS
 62
     7
 10
39.00000169880002
 20
5.2999998443000029
 30
0.0
 11
39.00000169880002
 21
9.9999997764999904
 31
0.0
  0
LINE
  5
1AFD
  8
0
  6
CONTINUOUS
 62
     7
 10
39.00000169880002
 20
9.9999997764999904
 30
0.0
 11
34.62132155900003
 21
9.9999997764999904
 31
0.0
  0
LINE
  5
1AFE
  8
0
  6
CONTINUOUS
 62
     7
 10
34.62132155900003
 20
9.9999997764999904
 30
0.0
 11
31.999998688700028
 21
7.3786797001998963
 31
0.0
  0
LINE
  5
1AFF
  8
0
  6
CONTINUOUS
 62
     7
 10
31.999998688700028
 20
7.3786797001998963
 30
0.0
 11
31.999998688700028
 21
3.500000108099897
 31
0.0
  0
LINE
  5
1B00
  8
0
  6
CONTINUOUS
 62
     7
 10
31.999998688700028
 20
3.500000108099897
 30
0.0
 11
31.748984903099831
 21
1.915155095100004
 31
0.0
  0
LINE
  5
1B01
  8
0
  6
CONTINUOUS
 62
     7
 10
31.748984903099831
 20
1.915155095100004
 30
0.0
 11
31.933014243899919
 21
1.5964101767000041
 31
0.0
  0
ARC
  5
1B02
  8
0
  6
CONTINUOUS
 62
     7
 10
31.5
 20
1.346410161499989
 30
0.0
 40
0.499999999999992
 50
330.00000000000028
 51
29.99999999999973
  0
LINE
  5
1B03
  8
0
  6
CONTINUOUS
 62
     7
 10
31.933014243899919
 20
1.0964102111999801
 30
0.0
 11
31.300001740500001
 21
0.0
 31
0.0
  0
LINE
  5
1B04
  8
0
  6
CONTINUOUS
 62
     7
 10
31.933014243899919
 20
-1.0964102112000089
 30
0.0
 11
31.300001740500001
 21
0.0
 31
0.0
  0
ARC
  5
1B05
  8
0
  6
CONTINUOUS
 62
     7
 10
31.5
 20
-1.3464101615000881
 30
0.0
 40
0.499999999999992
 50
359.8687788767507
 51
29.99999999999973
  0
LINE
  5
1B06
  8
0
  6
CONTINUOUS
 62
     7
 10
31.999998688700028
 20
-7.3786797002000091
 30
0.0
 11
31.999998688700028
 21
-1.3475552808135089
 31
0.0
  0
LINE
  5
1B07
  8
0
  6
CONTINUOUS
 62
     7
 10
34.62132155900003
 20
-9.9999997765000046
 30
0.0
 11
31.999998688700028
 21
-7.3786797002000091
 31
0.0
  0
LINE
  5
1B08
  8
0
  6
CONTINUOUS
 62
     7
 10
39.00000169880002
 20
-9.9999997765000046
 30
0.0
 11
34.62132155900003
 21
-9.9999997765000046
 31
0.0
  0
LINE
  5
1B09
  8
0
  6
CONTINUOUS
 62
     7
 10
39.00000169880002
 20
-5.2999998443000029
 30
0.0
 11
39.00000169880002
 21
-9.9999997765000046
 31
0.0
  0
ARC
  5
1B0A
  8
0
  6
CONTINUOUS
 62
     7
 10
39.299999999999919
 20
-5.2999999999999972
 30
0.0
 40
0.2999999999999829
 50
90.0
 51
180.0
  0
LINE
  5
1B0B
  8
0
  6
CONTINUOUS
 62
     7
 10
40.975303351900003
 20
-4.9999998881999943
 30
0.0
 11
39.29999932649983
 21
-4.9999998881999943
 31
0.0
  0
ARC
  5
1B0C
  8
0
  6
CONTINUOUS
 62
     7
 10
40.975304923399932
 20
-5.2999999999999972
 30
0.0
 40
0.3000000000000194
 50
37.979872444800499
 51
90.0
  0
ARC
  5
1B0D
  8
0
  6
CONTINUOUS
 62
     7
 10
42.0
 20
-4.5
 30
0.0
 40
1.0000000000000111
 50
217.97987244490079
 51
322.02012755509912
  0
ARC
  5
1B0E
  8
0
  6
CONTINUOUS
 62
     7
 10
43.024695076599919
 20
-5.2999999999999972
 30
0.0
 40
0.2999999999999971
 50
90.0
 51
142.02012755519951
  0
LINE
  5
1B0F
  8
0
  6
CONTINUOUS
 62
     7
 10
44.69999760389998
 20
-4.9999998881999943
 30
0.0
 11
43.024697303799989
 21
-4.9999998881999943
 31
0.0
  0
ARC
  5
1B10
  8
0
  6
CONTINUOUS
 62
     7
 10
44.699999999999982
 20
-5.2999999999999972
 30
0.0
 40
0.2999999999999972
 50
0.0
 51
90.0
  0
LINE
  5
1B11
  8
0
  6
CONTINUOUS
 62
     7
 10
45.000002682199998
 20
-19.500000402300088
 30
0.0
 11
45.000002682199998
 21
-5.2999998443000029
 31
0.0
  0
ARC
  5
1B12
  8
0
  6
CONTINUOUS
 62
     7
 10
42.0
 20
-19.5
 30
0.0
 40
3.0
 50
270.0
 51
0.0
  0
LINE
  5
1B13
  8
0
  6
CONTINUOUS
 62
     7
 10
27.799998372799909
 20
-22.500000894100001
 30
0.0
 11
41.999996602600021
 21
-22.500000894100001
 31
0.0
  0
ARC
  5
1B14
  8
0
  6
CONTINUOUS
 62
     7
 10
27.79999999999993
 20
-22.200000000000099
 30
0.0
 40
0.2999999999999972
 50
180.0
 51
270.0
  0
LINE
  5
1B15
  8
0
  6
CONTINUOUS
 62
     7
 10
27.5000007450999
 20
-20.524695515600008
 30
0.0
 11
27.5000007450999
 21
-22.1999995410001
 31
0.0
  0
ARC
  5
1B16
  8
0
  6
CONTINUOUS
 62
     7
 10
27.79999999999993
 20
-20.5246950766
 30
0.0
 40
0.300000000000009
 50
127.9798724448997
 51
180.0
  0
ARC
  5
1B17
  8
0
  6
CONTINUOUS
 62
     7
 10
27.0
 20
-19.5
 30
0.0
 40
0.9999999999999932
 50
307.97987244489963
 51
52.020127555100331
  0
ARC
  5
1B18
  8
0
  6
CONTINUOUS
 62
     7
 10
27.79999999999993
 20
-18.4753049234
 30
0.0
 40
0.2999999999999859
 50
180.0
 51
232.02012755519999
  0
LINE
  5
1B19
  8
0
  6
CONTINUOUS
 62
     7
 10
27.5000007450999
 20
-16.799999401000012
 30
0.0
 11
27.5000007450999
 21
-18.475305289000001
 31
0.0
  0
ARC
  5
1B1A
  8
0
  6
CONTINUOUS
 62
     7
 10
27.79999999999993
 20
-16.79999999999999
 30
0.0
 40
0.3000000000000043
 50
90.0
 51
180.0
  0
LINE
  5
1B1B
  8
0
  6
CONTINUOUS
 62
     7
 10
32.499999701999997
 20
-16.499999910600089
 30
0.0
 11
27.799998372799909
 21
-16.499999910600089
 31
0.0
  0
LINE
  5
1B1C
  8
0
  6
CONTINUOUS
 62
     7
 10
32.499999701999997
 20
-12.121320702100009
 30
0.0
 11
32.499999701999997
 21
-16.499999910600089
 31
0.0
  0
LINE
  5
1B1D
  8
0
  6
CONTINUOUS
 62
     7
 10
29.878680556999999
 20
-9.4999996945000031
 30
0.0
 11
32.499999701999997
 21
-12.121320702100009
 31
0.0
  0
LINE
  5
1B1E
  8
0
  6
CONTINUOUS
 62
     7
 10
26.000001430499911
 20
-9.4999996945000031
 30
0.0
 11
29.878680556999999
 21
-9.4999996945000031
 31
0.0
  0
LINE
  5
1B1F
  8
0
  6
CONTINUOUS
 62
     7
 10
24.415154904200019
 20
-9.2489849776000028
 30
0.0
 11
26.000001430499911
 21
-9.4999996945000031
 31
0.0
  0
LINE
  5
1B20
  8
0
  6
CONTINUOUS
 62
     7
 10
24.096411615600012
 20
-9.4330124556999948
 30
0.0
 11
24.415154904200019
 21
-9.2489849776000028
 31
0.0
  0
ARC
  5
1B21
  8
0
  6
CONTINUOUS
 62
     7
 10
23.846410161500021
 20
-9.0
 30
0.0
 40
0.5000000000000041
 50
239.99999999999989
 51
300.00000000000011
  0
LINE
  5
1B22
  8
0
  6
CONTINUOUS
 62
     7
 10
22.50000178820002
 20
-8.799999952300098
 30
0.0
 11
23.596410602399999
 21
-9.4330124556999948
 31
0.0
  0
LINE
  5
1B23
  8
0
  6
CONTINUOUS
 62
     7
 10
21.403589248700001
 20
-9.4330124556999948
 30
0.0
 11
22.50000178820002
 21
-8.799999952300098
 31
0.0
  0
ARC
  5
1B24
  8
0
  6
CONTINUOUS
 62
     7
 10
21.153589838500011
 20
-9.0
 30
0.0
 40
0.5000000000000041
 50
269.9366628879248
 51
300.00000000000011
  0
LINE
  5
1B25
  8
0
  6
CONTINUOUS
 62
     7
 10
15.1213192939999
 20
-9.4999996945000031
 30
0.0
 11
21.153037118041588
 21
-9.4999996945000031
 31
0.0
  0
LINE
  5
1B26
  8
0
  6
CONTINUOUS
 62
     7
 10
12.500000149000011
 20
-12.121320702100009
 30
0.0
 11
15.1213192939999
 21
-9.4999996945000031
 31
0.0
  0
LINE
  5
1B27
  8
0
  6
CONTINUOUS
 62
     7
 10
12.500000149000011
 20
-16.499999910600089
 30
0.0
 11
12.500000149000011
 21
-12.121320702100009
 31
0.0
  0
LINE
  5
1B28
  8
0
  6
CONTINUOUS
 62
     7
 10
17.200001478200019
 20
-16.499999910600089
 30
0.0
 11
12.500000149000011
 21
-16.499999910600089
 31
0.0
  0
ARC
  5
1B29
  8
0
  6
CONTINUOUS
 62
     7
 10
17.20000000000001
 20
-16.79999999999999
 30
0.0
 40
0.2999999999999972
 50
0.0
 51
90.0
  0
LINE
  5
1B2A
  8
0
  6
CONTINUOUS
 62
     7
 10
17.49999910599999
 20
-18.475305289000001
 30
0.0
 11
17.49999910599999
 21
-16.799999401000012
 31
0.0
  0
ARC
  5
1B2B
  8
0
  6
CONTINUOUS
 62
     7
 10
17.20000000000001
 20
-18.4753049234
 30
0.0
 40
0.3000000000000114
 50
307.97987244489963
 51
0.0
  0
ARC
  5
1B2C
  8
0
  6
CONTINUOUS
 62
     7
 10
18.0
 20
-19.5
 30
0.0
 40
1.0000000000000091
 50
127.9798724448997
 51
232.02012755510029
  0
ARC
  5
1B2D
  8
0
  6
CONTINUOUS
 62
     7
 10
17.20000000000001
 20
-20.5246950766
 30
0.0
 40
0.2999999999999972
 50
0.0
 51
52.020127555100331
  0
LINE
  5
1B2E
  8
0
  6
CONTINUOUS
 62
     7
 10
17.49999910599999
 20
-22.1999995410001
 30
0.0
 11
17.49999910599999
 21
-20.524695515600008
 31
0.0
  0
ARC
  5
1B2F
  8
0
  6
CONTINUOUS
 62
     7
 10
17.20000000000001
 20
-22.200000000000099
 30
0.0
 40
0.3000000000000114
 50
270.0
 51
0.0
  0
LINE
  5
1B30
  8
0
  6
CONTINUOUS
 62
     7
 10
17.200001478200019
 20
-22.500000894100001
 30
0.0
 11
-17.20000015570017
 21
-22.500000894100001
 31
0.0
  0
ARC
  5
1B31
  8
0
  6
CONTINUOUS
 62
     7
 10
-17.20000000000007
 20
-22.200000000000099
 30
0.0
 40
0.3000000000000114
 50
180.0
 51
270.0
  0
LINE
  5
1B32
  8
0
  6
CONTINUOUS
 62
     7
 10
-17.50000011169999
 20
-22.1999995410001
 30
0.0
 11
-17.50000011169999
 21
-20.524695515600008
 31
0.0
  0
ARC
  5
1B33
  8
0
  6
CONTINUOUS
 62
     7
 10
-17.20000000000007
 20
-20.5246950766
 30
0.0
 40
0.3000000000000114
 50
127.9798724448997
 51
180.0
  0
ARC
  5
1B34
  8
0
  6
CONTINUOUS
 62
     7
 10
-18.0
 20
-19.5
 30
0.0
 40
0.9999999999999987
 50
307.97987244489963
 51
52.020127555100331
  0
ARC
  5
1B35
  8
0
  6
CONTINUOUS
 62
     7
 10
-17.20000000000007
 20
-18.4753049234
 30
0.0
 40
0.3000000000000114
 50
180.0
 51
232.02012755510029
  0
LINE
  5
1B36
  8
0
  6
CONTINUOUS
 62
     7
 10
-17.50000011169999
 20
-18.475305289000001
 30
0.0
 11
-17.50000011169999
 21
-16.799999401000012
 31
0.0
  0
ARC
  5
1B37
  8
0
  6
CONTINUOUS
 62
     7
 10
-17.20000000000007
 20
-16.79999999999999
 30
0.0
 40
0.3000000000000114
 50
90.0
 51
180.0
  0
LINE
  5
1B38
  8
0
  6
CONTINUOUS
 62
     7
 10
-17.20000015570017
 20
-16.499999910600089
 30
0.0
 11
-12.50000022349999
 21
-16.499999910600089
 31
0.0
  0
LINE
  5
1B39
  8
0
  6
CONTINUOUS
 62
     7
 10
-12.50000022349999
 20
-16.499999910600089
 30
0.0
 11
-12.50000022349999
 21
-12.121320702100009
 31
0.0
  0
LINE
  5
1B3A
  8
0
  6
CONTINUOUS
 62
     7
 10
-12.50000022349999
 20
-12.121320702100009
 30
0.0
 11
-15.121320299800001
 21
-9.4999996945000031
 31
0.0
  0
LINE
  5
1B3B
  8
0
  6
CONTINUOUS
 62
     7
 10
-15.121320299800001
 20
-9.4999996945000031
 30
0.0
 11
-18.999999891899989
 21
-9.4999996945000031
 31
0.0
  0
LINE
  5
1B3C
  8
0
  6
CONTINUOUS
 62
     7
 10
-18.999999891899989
 20
-9.4999996945000031
 30
0.0
 11
-20.58484490490001
 21
-9.2489849776000028
 31
0.0
  0
LINE
  5
1B3D
  8
0
  6
CONTINUOUS
 62
     7
 10
-20.58484490490001
 20
-9.2489849776000028
 30
0.0
 11
-20.903589823299981
 21
-9.4330124556999948
 31
0.0
  0
ARC
  5
1B3E
  8
0
  6
CONTINUOUS
 62
     7
 10
-21.153589838500078
 20
-9.0
 30
0.0
 40
0.4999999999999979
 50
239.99999999999989
 51
300.00000000000011
  0
LINE
  5
1B3F
  8
0
  6
CONTINUOUS
 62
     7
 10
-21.40358978880009
 20
-9.4330124556999948
 30
0.0
 11
-22.499999999999989
 21
-8.799999952300098
 31
0.0
  0
LINE
  5
1B40
  8
0
  6
CONTINUOUS
 62
     7
 10
-22.499999999999989
 20
-8.799999952300098
 30
0.0
 11
-23.596410211100089
 21
-9.4330124556999948
 31
0.0
  0
ARC
  5
1B41
  8
0
  6
CONTINUOUS
 62
     7
 10
-23.8464101615
 20
-9.0
 30
0.0
 40
0.4999999999999979
 50
269.93666288572808
 51
300.00000000000011
  0
LINE
  5
1B42
  8
0
  6
CONTINUOUS
 62
     7
 10
-23.846962881962678
 20
-9.4999996945000031
 30
0.0
 11
-29.878679700200081
 21
-9.4999996945000031
 31
0.0
  0
LINE
  5
1B43
  8
0
  6
CONTINUOUS
 62
     7
 10
-29.878679700200081
 20
-9.4999996945000031
 30
0.0
 11
-32.499999776400003
 21
-12.121320702100009
 31
0.0
  0
LINE
  5
1B44
  8
0
  6
CONTINUOUS
 62
     7
 10
-32.499999776400003
 20
-12.121320702100009
 30
0.0
 11
-32.499999776400003
 21
-16.499999910600089
 31
0.0
  0
LINE
  5
1B45
  8
0
  6
CONTINUOUS
 62
     7
 10
-32.499999776400003
 20
-16.499999910600089
 30
0.0
 11
-27.799999844199991
 21
-16.499999910600089
 31
0.0
  0
ARC
  5
1B46
  8
0
  6
CONTINUOUS
 62
     7
 10
-27.799999999999979
 20
-16.79999999999999
 30
0.0
 40
0.3000000000000043
 50
0.0
 51
90.0
  0
LINE
  5
1B47
  8
0
  6
CONTINUOUS
 62
     7
 10
-27.499999888200009
 20
-16.799999401000012
 30
0.0
 11
-27.499999888200009
 21
-18.475305289000001
 31
0.0
  0
ARC
  5
1B48
  8
0
  6
CONTINUOUS
 62
     7
 10
-27.799999999999979
 20
-18.4753049234
 30
0.0
 40
0.3000000000000114
 50
307.97987244489963
 51
0.0
  0
ARC
  5
1B49
  8
0
  6
CONTINUOUS
 62
     7
 10
-26.999999999999989
 20
-19.5
 30
0.0
 40
1.0000000000000071
 50
127.9798724448997
 51
232.02012755510029
  0
ARC
  5
1B4A
  8
0
  6
CONTINUOUS
 62
     7
 10
-27.799999999999979
 20
-20.5246950766
 30
0.0
 40
0.3000000000000114
 50
0.0
 51
52.020127555100331
  0
LINE
  5
1B4B
  8
0
  6
CONTINUOUS
 62
     7
 10
-27.499999888200009
 20
-20.524695515600008
 30
0.0
 11
-27.499999888200009
 21
-22.1999995410001
 31
0.0
  0
ARC
  5
1B4C
  8
0
  6
CONTINUOUS
 62
     7
 10
-27.799999999999979
 20
-22.200000000000099
 30
0.0
 40
0.3000000000000043
 50
270.0
 51
0.0
  0
LINE
  5
1B4D
  8
0
  6
CONTINUOUS
 62
     7
 10
-27.799999844199991
 20
-22.500000894100001
 30
0.0
 11
-42.000000402300003
 21
-22.500000894100001
 31
0.0
  0
ARC
  5
1B4E
  8
0
  6
CONTINUOUS
 62
     7
 10
-41.999999999999979
 20
-19.5
 30
0.0
 40
3.0000000000000062
 50
180.0
 51
270.0
  0
LINE
  5
1B4F
  8
0
  6
CONTINUOUS
 62
     7
 10
-45.000000893999989
 20
-19.500000402300088
 30
0.0
 11
-45.000000893999989
 21
-5.2999998443000029
 31
0.0
  0
ARC
  5
1B50
  8
0
  6
CONTINUOUS
 62
     7
 10
-44.699999999999982
 20
-5.2999999999999972
 30
0.0
 40
0.2999999999999972
 50
90.0
 51
180.0
  0
LINE
  5
1B51
  8
0
  6
CONTINUOUS
 62
     7
 10
-44.69999954099999
 20
-4.9999998881999943
 30
0.0
 11
-43.024695515600001
 21
-4.9999998881999943
 31
0.0
  0
ARC
  5
1B52
  8
0
  6
CONTINUOUS
 62
     7
 10
-43.02469507659999
 20
-5.2999999999999972
 30
0.0
 40
0.3000000000000002
 50
37.979872444900828
 51
90.0
  0
ARC
  5
1B53
  8
0
  6
CONTINUOUS
 62
     7
 10
-40.975304923399982
 20
-5.2999999999999972
 30
0.0
 40
0.3000000000000002
 50
90.0
 51
142.02012755509921
  0
LINE
  5
1B54
  8
0
  6
CONTINUOUS
 62
     7
 10
-40.975305289000012
 20
-4.9999998881999943
 30
0.0
 11
-39.299999400899992
 21
-4.9999998881999943
 31
0.0
  0
ARC
  5
1B55
  8
0
  6
CONTINUOUS
 62
     7
 10
-39.299999999999983
 20
-5.2999999999999972
 30
0.0
 40
0.2999999999999972
 50
0.0
 51
90.0
  0
LINE
  5
1B56
  8
0
  6
CONTINUOUS
 62
     7
 10
-38.999999910600103
 20
-5.2999998443000029
 30
0.0
 11
-38.999999910600103
 21
-9.9999997765000046
 31
0.0
  0
LINE
  5
1B57
  8
0
  6
CONTINUOUS
 62
     7
 10
-38.999999910600103
 20
-9.9999997765000046
 30
0.0
 11
-34.6213207021
 21
-9.9999997765000046
 31
0.0
  0
LINE
  5
1B58
  8
0
  6
CONTINUOUS
 62
     7
 10
-34.6213207021
 20
-9.9999997765000046
 30
0.0
 11
-31.999999694499991
 21
-7.3786797002000091
 31
0.0
  0
LINE
  5
1B59
  8
0
  6
CONTINUOUS
 62
     7
 10
-31.999999694499991
 20
-7.3786797002000091
 30
0.0
 11
-31.999999694499991
 21
-3.500000108000108
 31
0.0
  0
LINE
  5
1B5A
  8
0
  6
CONTINUOUS
 62
     7
 10
-31.999999694499991
 20
-3.500000108000108
 30
0.0
 11
-31.748984977599989
 21
-1.9151550950001019
 31
0.0
  0
LINE
  5
1B5B
  8
0
  6
CONTINUOUS
 62
     7
 10
-31.748984977599989
 20
-1.9151550950001019
 30
0.0
 11
-31.933012455700101
 21
-1.5964101767000041
 31
0.0
  0
ARC
  5
1B5C
  8
0
  6
CONTINUOUS
 62
     7
 10
-31.499999999999989
 20
-1.3464101615000881
 30
0.0
 40
0.5000000000000041
 50
150.0000000000002
 51
209.99999999999969
  0
LINE
  5
1B5D
  8
0
  6
CONTINUOUS
 62
     7
 10
-31.933012455700101
 20
-1.0964102112000089
 30
0.0
 11
-31.299999952300102
 21
0.0
 31
0.0
  0
LINE
  5
1B5E
  8
0
  6
CONTINUOUS
 62
     7
 10
-29.4686798378
 20
-3.000000026100011
 30
0.0
 11
-29.800000172099999
 21
-3.000000026100011
 31
0.0
  0
ARC
  5
1B5F
  8
0
  6
CONTINUOUS
 62
     7
 10
-29.79999999999999
 20
-3.5
 30
0.0
 40
0.5
 50
90.0
 51
180.0
  0
LINE
  5
1B60
  8
0
  6
CONTINUOUS
 62
     7
 10
-30.29999978839999
 20
-3.500000108000108
 30
0.0
 11
-30.29999978839999
 21
-7.3000001721000132
 31
0.0
  0
ARC
  5
1B61
  8
0
  6
CONTINUOUS
 62
     7
 10
-29.79999999999999
 20
-7.2999999999999972
 30
0.0
 40
0.5
 50
180.0
 51
270.0
  0
LINE
  5
1B62
  8
0
  6
CONTINUOUS
 62
     7
 10
-29.800000172099999
 20
-7.7999997884001004
 30
0.0
 11
-26.000000107999998
 21
-7.7999997884001004
 31
0.0
  0
ARC
  5
1B63
  8
0
  6
CONTINUOUS
 62
     7
 10
-25.999999999999989
 20
-7.2999999999999972
 30
0.0
 40
0.5
 50
270.0
 51
0.0
  0
LINE
  5
1B64
  8
0
  6
CONTINUOUS
 62
     7
 10
-25.50000002600008
 20
-7.3000001721000132
 30
0.0
 11
-25.50000002600008
 21
-6.9686798379000123
 31
0.0
  0
ARC
  5
1B65
  8
0
  6
CONTINUOUS
 62
     7
 10
-24.499999999999989
 20
-6.9686799324000921
 30
0.0
 40
1.0
 50
73.986605576100189
 51
180.0
  0
ARC
  5
1B66
  8
0
  6
CONTINUOUS
 62
     7
 10
-22.499999999999989
 20
0.0
 30
0.0
 40
6.2500000000000018
 50
253.9866055761002
 51
286.0133944238998
  0
ARC
  5
1B67
  8
0
  6
CONTINUOUS
 62
     7
 10
-20.499999999999979
 20
-6.9686799324000921
 30
0.0
 40
1.0
 50
0.0
 51
106.0133944238998
  0
LINE
  5
1B68
  8
0
  6
CONTINUOUS
 62
     7
 10
-19.4999999739
 20
-6.9686798379000123
 30
0.0
 11
-19.4999999739
 21
-7.3000001721000132
 31
0.0
  0
ARC
  5
1B69
  8
0
  6
CONTINUOUS
 62
     7
 10
-18.999999999999979
 20
-7.2999999999999972
 30
0.0
 40
0.5
 50
180.0
 51
270.0
  0
LINE
  5
1B6A
  8
0
  6
CONTINUOUS
 62
     7
 10
-18.999999891899989
 20
-7.7999997884001004
 30
0.0
 11
-14.924999967199989
 21
-7.7999997884001004
 31
0.0
  0
ARC
  5
1B6B
  8
0
  6
CONTINUOUS
 62
     7
 10
-14.924999967199989
 20
-7.2999997884001004
 30
0.0
 40
0.5
 50
270.0
 51
0.0000000000008142
  0
LINE
  5
1B6C
  8
0
  6
CONTINUOUS
 62
     7
 10
-14.924999967199989
 20
-3.0000000261001101
 30
0.0
 11
-15.5313201621
 21
-3.000000026100011
 31
0.0
  0
ARC
  5
1B6D
  8
0
  6
CONTINUOUS
 62
     7
 10
-15.53132006759998
 20
-2.0
 30
0.0
 40
1.0000000000000011
 50
163.9866055761002
 51
270.0
  0
ARC
  5
1B6E
  8
0
  6
CONTINUOUS
 62
     7
 10
-15.53132006759998
 20
2.0
 30
0.0
 40
1.0
 50
90.0
 51
196.0133944238998
  0
ARC
  5
1B6F
  8
0
  6
CONTINUOUS
 62
     7
 10
-18.999999999999979
 20
7.299999999999911
 30
0.0
 40
0.5
 50
90.0
 51
180.0
  0
ARC
  5
1B70
  8
0
  6
CONTINUOUS
 62
     7
 10
-20.499999999999979
 20
6.968679932399894
 30
0.0
 40
1.0000000000000111
 50
253.9866055761002
 51
0.0
  0
ARC
  5
1B71
  8
0
  6
CONTINUOUS
 62
     7
 10
-24.499999999999989
 20
6.968679932399894
 30
0.0
 40
1.0000000000000111
 50
180.0
 51
286.0133944238998
  0
ARC
  5
1B72
  8
0
  6
CONTINUOUS
 62
     7
 10
-25.999999999999989
 20
7.299999999999911
 30
0.0
 40
0.5
 50
0.0
 51
90.0
  0
ARC
  5
1B73
  8
0
  6
CONTINUOUS
 62
     7
 10
-29.79999999999999
 20
7.299999999999911
 30
0.0
 40
0.5
 50
90.0
 51
180.0
  0
ARC
  5
1B74
  8
0
  6
CONTINUOUS
 62
     7
 10
-29.79999999999999
 20
3.5
 30
0.0
 40
0.5
 50
180.0
 51
270.0
  0
ARC
  5
1B75
  8
0
  6
CONTINUOUS
 62
     7
 10
-29.468679932400011
 20
2.0
 30
0.0
 40
1.0
 50
343.9866055761002
 51
90.0
  0
ARC
  5
1B76
  8
0
  6
CONTINUOUS
 62
     7
 10
-29.468679932400011
 20
-2.0
 30
0.0
 40
1.0
 50
270.0
 51
16.013394423899811
  0
LINE
  5
1B77
  8
0
  6
CONTINUOUS
 62
     7
 10
-12.632106468000099
 20
-7.7465730719001007
 30
0.0
 11
-9.7928932308999777
 21
-10.58578677470001
 31
0.0
  0
ARC
  5
1B78
  8
0
  6
CONTINUOUS
 62
     7
 10
-10.5
 20
-11.29289321880001
 30
0.0
 40
1.0
 50
0.0
 51
45.0
  0
LINE
  5
1B79
  8
0
  6
CONTINUOUS
 62
     7
 10
-9.4999997316999991
 20
-11.2928934395
 30
0.0
 11
-9.4999997316999991
 21
-18.999999388999989
 31
0.0
  0
ARC
  5
1B7A
  8
0
  6
CONTINUOUS
 62
     7
 10
-8.5
 20
-19.0
 30
0.0
 40
1.0
 50
180.0
 51
270.0
  0
LINE
  5
1B7B
  8
0
  6
CONTINUOUS
 62
     7
 10
-8.4999995677999891
 20
-19.9999995529
 30
0.0
 11
8.4999994933999101
 21
-19.9999995529
 31
0.0
  0
ARC
  5
1B7C
  8
0
  6
CONTINUOUS
 62
     7
 10
8.5
 20
-19.0
 30
0.0
 40
1.0
 50
270.0
 51
0.0
  0
LINE
  5
1B7D
  8
0
  6
CONTINUOUS
 62
     7
 10
9.5000015200000121
 20
-11.2928934395
 30
0.0
 11
9.5000015200000121
 21
-18.999999388999989
 31
0.0
  0
ARC
  5
1B7E
  8
0
  6
CONTINUOUS
 62
     7
 10
10.5
 20
-11.29289321880001
 30
0.0
 40
1.0000000000000011
 50
135.0
 51
180.0
  0
LINE
  5
1B7F
  8
0
  6
CONTINUOUS
 62
     7
 10
12.63210639359999
 20
-7.7465730719001007
 30
0.0
 11
9.7928950191000013
 21
-10.58578677470001
 31
0.0
  0
ARC
  5
1B80
  8
0
  6
CONTINUOUS
 62
     7
 10
11.92500000000001
 20
-7.0394660941000922
 30
0.0
 40
0.9999999999999978
 50
315.0
 51
0.0
  0
LINE
  5
1B81
  8
0
  6
CONTINUOUS
 62
     7
 10
12.924999892699979
 20
-7.0394659415000973
 30
0.0
 11
12.924999892699979
 21
7.0394659414998983
 31
0.0
  0
ARC
  5
1B82
  8
0
  6
CONTINUOUS
 62
     7
 10
11.92500000000001
 20
7.0394660940998932
 30
0.0
 40
0.9999999999999879
 50
0.0
 51
45.0
  0
LINE
  5
1B83
  8
0
  6
CONTINUOUS
 62
     7
 10
12.63210639359999
 20
7.7465730718999017
 30
0.0
 11
9.7928950191000013
 21
10.585786774799899
 31
0.0
  0
ARC
  5
1B84
  8
0
  6
CONTINUOUS
 62
     7
 10
10.5
 20
11.292893218799991
 30
0.0
 40
1.0
 50
180.0
 51
225.0
  0
LINE
  5
1B85
  8
0
  6
CONTINUOUS
 62
     7
 10
9.5000015200000121
 20
11.292893439499879
 30
0.0
 11
9.5000015200000121
 21
18.99999938909998
 31
0.0
  0
ARC
  5
1B86
  8
0
  6
CONTINUOUS
 62
     7
 10
8.5
 20
18.999999999999979
 30
0.0
 40
1.0
 50
0.0
 51
90.0
  0
ARC
  5
1B87
  8
0
  6
CONTINUOUS
 62
     7
 10
-8.5
 20
18.999999999999979
 30
0.0
 40
1.0
 50
90.0
 51
180.0
  0
ARC
  5
1B88
  8
0
  6
CONTINUOUS
 62
     7
 10
-10.5
 20
11.292893218799991
 30
0.0
 40
1.0000000000000071
 50
315.0
 51
0.0
  0
ARC
  5
1B89
  8
0
  6
CONTINUOUS
 62
     7
 10
-11.924999999999979
 20
7.0394660940998932
 30
0.0
 40
1.0
 50
135.0
 51
180.0
  0
ARC
  5
1B8A
  8
0
  6
CONTINUOUS
 62
     7
 10
-11.924999999999979
 20
-7.0394660940000904
 30
0.0
 40
1.0
 50
180.0
 51
225.0
  0
ARC
  5
1B8B
  8
0
  6
CONTINUOUS
 62
     7
 10
-41.999999999999979
 20
-4.5
 30
0.0
 40
1.0000000000000011
 50
217.97987244490079
 51
322.02012755509912
  0
ARC
  5
1B8C
  8
0
  6
CONTINUOUS
 62
     7
 10
-41.999999999999979
 20
4.5
 30
0.0
 40
1.0000000000000111
 50
37.979872444900828
 51
142.02012755509921
  0
LINE
  5
1B8D
  8
0
  6
CONTINUOUS
 62
     7
 10
-40.975305289000012
 20
4.9999998882998957
 30
0.0
 11
-39.299999400899992
 21
4.9999998882998957
 31
0.0
  0
LINE
  5
1B8E
  8
0
  6
CONTINUOUS
 62
     7
 10
-38.999999910600103
 20
5.2999998443000029
 30
0.0
 11
-38.999999910600103
 21
9.9999997764999904
 31
0.0
  0
LINE
  5
1B8F
  8
0
  6
CONTINUOUS
 62
     7
 10
-38.999999910600103
 20
9.9999997764999904
 30
0.0
 11
-34.6213207021
 21
9.9999997764999904
 31
0.0
  0
LINE
  5
1B90
  8
0
  6
CONTINUOUS
 62
     7
 10
-34.6213207021
 20
9.9999997764999904
 30
0.0
 11
-31.999999694499991
 21
7.3786797001998963
 31
0.0
  0
LINE
  5
1B91
  8
0
  6
CONTINUOUS
 62
     7
 10
-31.999999694499991
 20
7.3786797001998963
 30
0.0
 11
-31.999999694499991
 21
1.346962881963307
 31
0.0
  0
ARC
  5
1B92
  8
0
  6
CONTINUOUS
 62
     7
 10
-31.499999999999989
 20
1.346410161499989
 30
0.0
 40
0.5000000000000041
 50
179.93666288825699
 51
209.99999999999969
  0
LINE
  5
1B93
  8
0
  6
CONTINUOUS
 62
     7
 10
-31.933012455700101
 20
1.0964102111999801
 30
0.0
 11
-31.299999952300102
 21
0.0
 31
0.0
  0
ARC
  5
1B94
  8
0
  6
CONTINUOUS
 62
     7
 10
-22.499999999999989
 20
0.0
 30
0.0
 40
6.2500000000000018
 50
163.9866055761002
 51
196.0133944238998
  0
LINE
  5
1B95
  8
0
  6
CONTINUOUS
 62
     7
 10
-29.4686798378
 20
3.0000000260998831
 30
0.0
 11
-29.800000172099999
 21
3.0000000260998831
 31
0.0
  0
LINE
  5
1B96
  8
0
  6
CONTINUOUS
 62
     7
 10
-30.29999978839999
 20
3.500000108099897
 30
0.0
 11
-30.29999978839999
 21
7.3000001720999839
 31
0.0
  0
LINE
  5
1B97
  8
0
  6
CONTINUOUS
 62
     7
 10
-29.800000172099999
 20
7.7999997884000001
 30
0.0
 11
-26.000000107999998
 21
7.7999997884000001
 31
0.0
  0
LINE
  5
1B98
  8
0
  6
CONTINUOUS
 62
     7
 10
-25.50000002600008
 20
7.3000001720999839
 30
0.0
 11
-25.50000002600008
 21
6.968679837899983
 31
0.0
  0
ARC
  5
1B99
  8
0
  6
CONTINUOUS
 62
     7
 10
-22.499999999999989
 20
0.0
 30
0.0
 40
6.2500000000000018
 50
73.986605576100189
 51
106.0133944238998
  0
LINE
  5
1B9A
  8
0
  6
CONTINUOUS
 62
     7
 10
-19.4999999739
 20
6.968679837899983
 30
0.0
 11
-19.4999999739
 21
7.3000001720999839
 31
0.0
  0
LINE
  5
1B9B
  8
0
  6
CONTINUOUS
 62
     7
 10
-18.999999891899989
 20
7.7999997884000001
 30
0.0
 11
-14.92499996720008
 21
7.7999997884000001
 31
0.0
  0
LINE
  5
1B9C
  8
0
  6
CONTINUOUS
 62
     7
 10
-14.92499996720008
 20
3.0000000260998831
 30
0.0
 11
-15.5313201621
 21
3.0000000260998831
 31
0.0
  0
ARC
  5
1B9D
  8
0
  6
CONTINUOUS
 62
     7
 10
-22.499999999999989
 20
0.0
 30
0.0
 40
6.2500000000000018
 50
343.9866055761002
 51
16.013394423899811
  0
LINE
  5
1B9E
  8
0
  6
CONTINUOUS
 62
     7
 10
-12.924999967199989
 20
-7.0394659415000973
 30
0.0
 11
-12.924999967199989
 21
7.0394659414998983
 31
0.0
  0
LINE
  5
1B9F
  8
0
  6
CONTINUOUS
 62
     7
 10
-14.424999967199989
 20
-7.2999997884001004
 30
0.0
 11
-14.42499996720008
 21
-3.5000000261001101
 31
0.0
  0
ARC
  5
1BA0
  8
0
  6
CONTINUOUS
 62
     7
 10
-14.92499996720008
 20
-3.5000000261001101
 30
0.0
 40
0.5
 50
0.0
 51
89.999999999998366
  0
LINE
  5
1BA1
  8
0
  6
CONTINUOUS
 62
     7
 10
-14.42499996720008
 20
3.5000000260999822
 30
0.0
 11
-14.42499996720008
 21
7.2999997884000001
 31
0.0
  0
ARC
  5
1BA2
  8
0
  6
CONTINUOUS
 62
     7
 10
-14.92499996720008
 20
3.5000000260999822
 30
0.0
 40
0.5
 50
270.0
 51
0.0
  0
ARC
  5
1BA3
  8
0
  6
CONTINUOUS
 62
     7
 10
-14.92499996720008
 20
7.2999997884000001
 30
0.0
 40
0.5
 50
0.0
 51
90.0
  0
LINE
  5
1BA4
  8
0
  6
CONTINUOUS
 62
     7
 10
-12.632106468000099
 20
7.7465730718999017
 30
0.0
 11
-9.7928932308999777
 21
10.585786774799899
 31
0.0
  0
LINE
  5
1BA5
  8
0
  6
CONTINUOUS
 62
     7
 10
-9.4999997316999991
 20
11.292893439499879
 30
0.0
 11
-9.4999997316999991
 21
18.99999938909998
 31
0.0
  0
LINE
  5
1BA6
  8
0
  6
CONTINUOUS
 62
     7
 10
-8.4999995677999891
 20
19.999999552999881
 30
0.0
 11
8.4999994933999101
 21
19.999999552999881
 31
0.0
  0
LINE
  5
1BA7
  8
0
  6
CONTINUOUS
 62
     7
 10
17.200001478200019
 20
22.50000089409998
 30
0.0
 11
-17.20000015570017
 21
22.50000089409998
 31
0.0
  0
LINE
  5
1BA8
  8
0
  6
CONTINUOUS
 62
     7
 10
-17.50000011169999
 20
22.199999541099992
 30
0.0
 11
-17.50000011169999
 21
20.524695515599898
 31
0.0
  0
ARC
  5
1BA9
  8
0
  6
CONTINUOUS
 62
     7
 10
-18.0
 20
19.499999999999979
 30
0.0
 40
1.0000000000000011
 50
307.97987244489963
 51
52.020127555100331
  0
LINE
  5
1BAA
  8
0
  6
CONTINUOUS
 62
     7
 10
-17.50000011169999
 20
18.475305288999898
 30
0.0
 11
-17.50000011169999
 21
16.79999940099999
 31
0.0
  0
LINE
  5
1BAB
  8
0
  6
CONTINUOUS
 62
     7
 10
-17.20000015570017
 20
16.499999910599978
 30
0.0
 11
-12.50000022349999
 21
16.499999910599978
 31
0.0
  0
LINE
  5
1BAC
  8
0
  6
CONTINUOUS
 62
     7
 10
-12.50000022349999
 20
16.499999910599978
 30
0.0
 11
-12.50000022349999
 21
12.12132070219989
 31
0.0
  0
LINE
  5
1BAD
  8
0
  6
CONTINUOUS
 62
     7
 10
-12.50000022349999
 20
12.12132070219989
 30
0.0
 11
-15.121320299800001
 21
9.4999996944998912
 31
0.0
  0
LINE
  5
1BAE
  8
0
  6
CONTINUOUS
 62
     7
 10
-15.121320299800001
 20
9.4999996944998912
 30
0.0
 11
-21.153037117958888
 21
9.4999996944998912
 31
0.0
  0
ARC
  5
1BAF
  8
0
  6
CONTINUOUS
 62
     7
 10
-21.153589838500078
 20
8.9999999999999858
 30
0.0
 40
0.5000000000000041
 50
89.936662876043684
 51
120.0000000000001
  0
LINE
  5
1BB0
  8
0
  6
CONTINUOUS
 62
     7
 10
-21.40358978880009
 20
9.4330124556999095
 30
0.0
 11
-22.499999999999989
 21
8.7999999522999843
 31
0.0
  0
LINE
  5
1BB1
  8
0
  6
CONTINUOUS
 62
     7
 10
-22.499999999999989
 20
8.7999999522999843
 30
0.0
 11
-23.596410211100089
 21
9.4330124556999095
 31
0.0
  0
ARC
  5
1BB2
  8
0
  6
CONTINUOUS
 62
     7
 10
-23.8464101615
 20
8.9999999999999858
 30
0.0
 40
0.5000000000000041
 50
59.999999999999858
 51
120.0000000000001
  0
LINE
  5
1BB3
  8
0
  6
CONTINUOUS
 62
     7
 10
-24.09641017669999
 20
9.4330124556999095
 30
0.0
 11
-24.415155094999989
 21
9.2489849775999033
 31
0.0
  0
LINE
  5
1BB4
  8
0
  6
CONTINUOUS
 62
     7
 10
-24.415155094999989
 20
9.2489849775999033
 30
0.0
 11
-26.000000107999998
 21
9.4999996944998912
 31
0.0
  0
LINE
  5
1BB5
  8
0
  6
CONTINUOUS
 62
     7
 10
-26.000000107999998
 20
9.4999996944998912
 30
0.0
 11
-29.878679700200081
 21
9.4999996944998912
 31
0.0
  0
LINE
  5
1BB6
  8
0
  6
CONTINUOUS
 62
     7
 10
-29.878679700200081
 20
9.4999996944998912
 30
0.0
 11
-32.499999776400003
 21
12.12132070219989
 31
0.0
  0
LINE
  5
1BB7
  8
0
  6
CONTINUOUS
 62
     7
 10
-32.499999776400003
 20
12.12132070219989
 30
0.0
 11
-32.499999776400003
 21
16.499999910599978
 31
0.0
  0
LINE
  5
1BB8
  8
0
  6
CONTINUOUS
 62
     7
 10
-32.499999776400003
 20
16.499999910599978
 30
0.0
 11
-27.799999844199991
 21
16.499999910599978
 31
0.0
  0
LINE
  5
1BB9
  8
0
  6
CONTINUOUS
 62
     7
 10
-27.499999888200009
 20
16.79999940099999
 30
0.0
 11
-27.499999888200009
 21
18.475305288999898
 31
0.0
  0
ARC
  5
1BBA
  8
0
  6
CONTINUOUS
 62
     7
 10
-26.999999999999989
 20
19.499999999999979
 30
0.0
 40
1.0000000000000111
 50
127.9798724448997
 51
232.02012755510029
  0
LINE
  5
1BBB
  8
0
  6
CONTINUOUS
 62
     7
 10
-27.499999888200009
 20
20.524695515599898
 30
0.0
 11
-27.499999888200009
 21
22.199999541099992
 31
0.0
  0
LINE
  5
1BBC
  8
0
  6
CONTINUOUS
 62
     7
 10
-27.799999844199991
 20
22.50000089409998
 30
0.0
 11
-42.000000402300003
 21
22.50000089409998
 31
0.0
  0
LINE
  5
1BBD
  8
0
  6
CONTINUOUS
 62
     7
 10
-45.000000893999989
 20
19.500000402299989
 30
0.0
 11
-45.000000893999989
 21
5.2999998443000029
 31
0.0
  0
LINE
  5
1BBE
  8
0
  6
CONTINUOUS
 62
     7
 10
-44.69999954099999
 20
4.9999998882998957
 30
0.0
 11
-43.024695515600001
 21
4.9999998882998957
 31
0.0
  0
LINE
  5
1BD8
  8
0
  6
CONTINUOUS
 62
     7
 10
-7.4999995677999891
 20
-19.9999995529
 30
0.0
 11
-5.961436190443492
 21
-19.9999995529
 31
0.0
  0
LINE
  5
1BD9
  8
0
  6
CONTINUOUS
 62
     7
 10
-7.4999995677999891
 20
-22.500000894100001
 30
0.0
 11
-5.961436190443492
 21
-22.500000894100001
 31
0.0
  0
LINE
  5
1BF0
  8
0
  6
CONTINUOUS
 62
     7
 10
18.999999891899989
 20
-7.7999997884001004
 30
0.0
 11
14.924999967199989
 21
-7.7999997884001004
 31
0.0
  0
ARC
  5
1BF1
  8
0
  6
CONTINUOUS
 62
     7
 10
14.924999967199989
 20
-7.2999997884001004
 30
0.0
 40
0.5
 50
179.9999999999992
 51
270.0
  0
LINE
  5
1BF2
  8
0
  6
CONTINUOUS
 62
     7
 10
14.924999967199989
 20
-3.0000000261001101
 30
0.0
 11
15.5313201621
 21
-3.000000026100011
 31
0.0
  0
LINE
  5
1BF3
  8
0
  6
CONTINUOUS
 62
     7
 10
18.999999891899989
 20
7.7999997884000001
 30
0.0
 11
14.924999967199989
 21
7.7999997884000001
 31
0.0
  0
LINE
  5
1BF4
  8
0
  6
CONTINUOUS
 62
     7
 10
14.924999967199989
 20
3.0000000260998831
 30
0.0
 11
15.5313201621
 21
3.0000000260998831
 31
0.0
  0
LINE
  5
1BF5
  8
0
  6
CONTINUOUS
 62
     7
 10
14.424999967199989
 20
-7.2999997884001004
 30
0.0
 11
14.424999967199989
 21
-3.5000000261001101
 31
0.0
  0
ARC
  5
1BF6
  8
0
  6
CONTINUOUS
 62
     7
 10
14.924999967199989
 20
-3.5000000261001101
 30
0.0
 40
0.5
 50
90.000000000003226
 51
179.9999999999992
  0
LINE
  5
1BF7
  8
0
  6
CONTINUOUS
 62
     7
 10
14.424999967199989
 20
3.5000000260999822
 30
0.0
 11
14.424999967199989
 21
7.2999997884000001
 31
0.0
  0
ARC
  5
1BF8
  8
0
  6
CONTINUOUS
 62
     7
 10
14.924999967199989
 20
3.5000000260999822
 30
0.0
 40
0.5
 50
179.9999999999992
 51
270.0
  0
ARC
  5
1BF9
  8
0
  6
CONTINUOUS
 62
     7
 10
14.924999967199989
 20
7.2999997884000001
 30
0.0
 40
0.5
 50
90.0
 51
180.0
  0
LINE
  5
1C0B
  8
0
  6
CONTINUOUS
 62
     7
 10
116.1046665510722
 20
22.499999999999989
 30
0.0
 11
166.1046665510722
 21
22.499999999999989
 31
0.0
  0
LINE
  5
1C0C
  8
0
  6
CONTINUOUS
 62
     7
 10
116.1046665510722
 20
4.9999998882998957
 30
0.0
 11
166.1046665510722
 21
4.9999998882998957
 31
0.0
  0
LINE
  5
1C0D
  8
0
  6
CONTINUOUS
 62
     7
 10
116.1046665510722
 20
3.500000108099897
 30
0.0
 11
166.1046665510722
 21
3.500000108099897
 31
0.0
  0
LINE
  5
1C0E
  8
0
  6
CONTINUOUS
 62
     7
 10
116.1046665510722
 20
1.915155095100004
 30
0.0
 11
166.1046665510722
 21
1.915155095100004
 31
0.0
  0
LINE
  5
1C0F
  8
0
  6
CONTINUOUS
 62
     7
 10
116.1046665510722
 20
0.0
 30
0.0
 11
166.1046665510722
 21
0.0
 31
0.0
  0
LINE
  5
1C10
  8
0
  6
CONTINUOUS
 62
     7
 10
116.1046665510722
 20
-4.9999998881999943
 30
0.0
 11
166.1046665510722
 21
-4.9999998881999943
 31
0.0
  0
LINE
  5
1C11
  8
0
  6
CONTINUOUS
 62
     7
 10
116.1046665510722
 20
-22.500000894100001
 30
0.0
 11
166.1046665510722
 21
-22.500000894100001
 31
0.0
  0
LINE
  5
1C12
  8
0
  6
CONTINUOUS
 62
     7
 10
116.1046665510722
 20
22.499999999999989
 30
0.0
 11
116.1046665510722
 21
-22.500000894100001
 31
0.0
  0
LINE
  5
1C13
  8
0
  6
CONTINUOUS
 62
     7
 10
166.1046665510722
 20
22.499999999999989
 30
0.0
 11
166.1046665510722
 21
-22.500000894100001
 31
0.0
  0
LINE
  5
1C1B
  8
CENTER
  6
CENTER
 62
     1
 10
22.5
 20
24.500000894100062
 30
0.0
 11
22.5
 21
-24.500000893999911
 31
0.0
  0
LINE
  5
1C23
  8
CENTER
  6
CENTER
 62
     1
 10
-22.499999999999989
 20
24.500000894100062
 30
0.0
 11
-22.499999999999989
 21
-24.500000893999911
 31
0.0
  0
LINE
  5
1C24
  8
CENTER
  6
CENTER
 62
     1
 10
47.000002682199998
 20
0.0
 30
0.0
 11
-46.999999999999979
 21
0.0
 31
0.0
  0
LINE
  5
1C25
  8
CENTER
  6
CENTER
 62
     1
 10
114.1046665510722
 20
0.0
 30
0.0
 11
168.1046665510722
 21
0.0
 31
0.0
  0
INSERT
  5
1C27
  8
0
  6
CONTINUOUS
 62
     7
  2
*U19
 10
0.0
 20
0.0
 30
0.0
  0
INSERT
  5
1C28
  8
0
  6
CONTINUOUS
 62
     7
  2
*U20
 10
0.0
 20
0.0
 30
0.0
  0
CIRCLE
  5
1C73
  8
0
  6
PHANTOM
 62
     3
 10
-22.499999999999961
 20
0.0000000000001433
 30
0.0
 40
6.25
  0
CIRCLE
  5
1C7B
  8
0
  6
PHANTOM
 62
     3
 10
22.500000000000028
 20
0.0000000000001433
 30
0.0
 40
6.25
  0
ENDSEC
  0
EOF
