  0
SECTION
  2
HEADER
  9
$ACADVER
  1
AC1009
  9
$INSBASE
 10
0.0
 20
0.0
 30
0.0
  9
$EXTMIN
 10
-42.39827600848411
 20
-40.889968628180661
 30
0.0
  9
$EXTMAX
 10
88.557570000878513
 20
26.336776522461211
 30
0.0
  9
$LIMMIN
 10
0.0
 20
0.0
  9
$LIMMAX
 10
420.0
 20
297.0
  9
$ORTHOMODE
 70
     0
  9
$REGENMODE
 70
     1
  9
$FILLMODE
 70
     1
  9
$QTEXTMODE
 70
     0
  9
$MIRRTEXT
 70
     0
  9
$DRAGMODE
 70
     2
  9
$LTSCALE
 40
1.0
  9
$OSMODE
 70
  2109
  9
$ATTMODE
 70
     1
  9
$TEXTSIZE
 40
3.0
  9
$TRACEWID
 40
1.0
  9
$TEXTSTYLE
  7
STANDARD
  9
$CLAYER
  8
0
  9
$CELTYPE
  6
CONTINUOUS
  9
$CECOLOR
 62
     7
  9
$DIMSCALE
 40
1.0
  9
$DIMASZ
 40
2.5
  9
$DIMEXO
 40
0.625
  9
$DIMDLI
 40
3.75
  9
$DIMRND
 40
0.0
  9
$DIMDLE
 40
0.0
  9
$DIMEXE
 40
1.25
  9
$DIMTP
 40
0.0
  9
$DIMTM
 40
0.0
  9
$DIMTXT
 40
2.5
  9
$DIMCEN
 40
2.5
  9
$DIMTSZ
 40
0.0
  9
$DIMTOL
 70
     0
  9
$DIMLIM
 70
     0
  9
$DIMTIH
 70
     0
  9
$DIMTOH
 70
     0
  9
$DIMSE1
 70
     0
  9
$DIMSE2
 70
     0
  9
$DIMTAD
 70
     1
  9
$DIMZIN
 70
     8
  9
$DIMBLK
  1
OPEN30
  9
$DIMASO
 70
     1
  9
$DIMSHO
 70
     1
  9
$DIMPOST
  1

  9
$DIMAPOST
  1

  9
$DIMALT
 70
     0
  9
$DIMALTD
 70
     3
  9
$DIMALTF
 40
0.03937007874016
  9
$DIMLFAC
 40
1.0
  9
$DIMTOFL
 70
     1
  9
$DIMTVP
 40
0.0
  9
$DIMTIX
 70
     0
  9
$DIMSOXD
 70
     0
  9
$DIMSAH
 70
     0
  9
$DIMBLK1
  1

  9
$DIMBLK2
  1

  9
$DIMSTYLE
  2
MISUMI
  9
$DIMCLRD
 70
   137
  9
$DIMCLRE
 70
   137
  9
$DIMCLRT
 70
   137
  9
$DIMTFAC
 40
1.0
  9
$DIMGAP
 40
0.625
  9
$LUNITS
 70
     2
  9
$LUPREC
 70
     2
  9
$SKETCHINC
 40
1.0
  9
$FILLETRAD
 40
0.0
  9
$AUNITS
 70
     0
  9
$AUPREC
 70
     0
  9
$MENU
  1
.
  9
$ELEVATION
 40
0.0
  9
$PELEVATION
 40
0.0
  9
$THICKNESS
 40
0.0
  9
$LIMCHECK
 70
     0
  9
$BLIPMODE
 70
     0
  9
$CHAMFERA
 40
0.5
  9
$CHAMFERB
 40
0.5
  9
$SKPOLY
 70
     0
  9
$TDCREATE
 40
2455135.5720697111
  9
$TDUPDATE
 40
2455656.6135899769
  9
$TDINDWG
 40
0.0864268056
  9
$TDUSRTIMER
 40
0.0864266204
  9
$USRTIMER
 70
     1
  9
$ANGBASE
 50
0.0
  9
$ANGDIR
 70
     0
  9
$PDMODE
 70
    35
  9
$PDSIZE
 40
0.0
  9
$PLINEWID
 40
0.0
  9
$COORDS
 70
     1
  9
$SPLFRAME
 70
     0
  9
$SPLINETYPE
 70
     6
  9
$SPLINESEGS
 70
     8
  9
$ATTDIA
 70
     0
  9
$ATTREQ
 70
     1
  9
$HANDLING
 70
     1
  9
$HANDSEED
  5
1F09
  9
$SURFTAB1
 70
     6
  9
$SURFTAB2
 70
     6
  9
$SURFTYPE
 70
     6
  9
$SURFU
 70
     6
  9
$SURFV
 70
     6
  9
$UCSNAME
  2

  9
$UCSORG
 10
0.0
 20
0.0
 30
0.0
  9
$UCSXDIR
 10
1.0
 20
0.0
 30
0.0
  9
$UCSYDIR
 10
0.0
 20
1.0
 30
0.0
  9
$PUCSNAME
  2

  9
$PUCSORG
 10
0.0
 20
0.0
 30
0.0
  9
$PUCSXDIR
 10
1.0
 20
0.0
 30
0.0
  9
$PUCSYDIR
 10
0.0
 20
1.0
 30
0.0
  9
$USERI1
 70
     0
  9
$USERI2
 70
     0
  9
$USERI3
 70
     0
  9
$USERI4
 70
     0
  9
$USERI5
 70
     0
  9
$USERR1
 40
0.0
  9
$USERR2
 40
0.0
  9
$USERR3
 40
0.0
  9
$USERR4
 40
0.0
  9
$USERR5
 40
0.0
  9
$WORLDVIEW
 70
     1
  9
$SHADEDGE
 70
     3
  9
$SHADEDIF
 70
    70
  9
$TILEMODE
 70
     1
  9
$MAXACTVP
 70
    64
  9
$PLIMCHECK
 70
     0
  9
$PEXTMIN
 10
0.0
 20
0.0
 30
0.0
  9
$PEXTMAX
 10
0.0
 20
0.0
 30
0.0
  9
$PLIMMIN
 10
0.0
 20
0.0
  9
$PLIMMAX
 10
12.0
 20
9.0
  9
$UNITMODE
 70
     0
  9
$VISRETAIN
 70
     1
  9
$PLINEGEN
 70
     0
  9
$PSLTSCALE
 70
     1
  0
ENDSEC
  0
SECTION
  2
TABLES
  0
TABLE
  2
VPORT
 70
     1
  0
VPORT
  2
*ACTIVE
 70
     0
 10
0.0
 20
0.0
 11
1.0
 21
1.0
 12
24.767337996520521
 22
-4.2845303875959502
 13
0.0
 23
0.0
 14
10.0
 24
10.0
 15
10.0
 25
10.0
 16
0.0
 26
0.0
 36
1.0
 17
0.0
 27
0.0
 37
0.0
 40
130.58798951918479
 41
1.0918367346938771
 42
50.0
 43
0.0
 44
0.0
 50
0.0
 51
0.0
 71
     0
 72
  1000
 73
     1
 74
     3
 75
     0
 76
     0
 77
     0
 78
     0
  0
ENDTAB
  0
TABLE
  2
LTYPE
 70
     4
  0
LTYPE
  2
CONTINUOUS
 70
     0
  3
Solid line
 72
    65
 73
     0
 40
0.0
  0
LTYPE
  2
CENTER
 70
     0
  3
Center ____ _ ____ _ ____ _ ____ _ ____ _ ____
 72
    65
 73
     4
 40
50.799999999999997
 49
31.75
 49
-6.3499999999999988
 49
6.3499999999999988
 49
-6.3499999999999988
  0
LTYPE
  2
DASHED
 70
     0
  3
Dashed __ __ __ __ __ __ __ __ __ __ __ __ __ _
 72
    65
 73
     2
 40
19.050000000000001
 49
12.699999999999999
 49
-6.3499999999999988
  0
LTYPE
  2
PHANTOM
 70
     0
  3
Phantom ______  __  __  ______  __  __  ______
 72
    65
 73
     6
 40
63.5
 49
31.75
 49
-6.3499999999999988
 49
6.3499999999999988
 49
-6.3499999999999988
 49
6.3499999999999988
 49
-6.3499999999999988
  0
ENDTAB
  0
TABLE
  2
LAYER
 70
     3
  0
LAYER
  2
0
 70
     0
 62
     7
  6
CONTINUOUS
  0
LAYER
  2
CENTER
 70
     0
 62
     1
  6
CENTER
  0
LAYER
  2
DEFPOINTS
 70
     0
 62
     7
  6
CONTINUOUS
  0
ENDTAB
  0
TABLE
  2
STYLE
 70
     1
  0
STYLE
  2
STANDARD
 70
     0
 40
3.0
 41
1.0
 50
0.0
 71
     0
 42
3.0
  3
txt.shx
  4
bigfont.shx
  0
ENDTAB
  0
TABLE
  2
VIEW
 70
     0
  0
ENDTAB
  0
TABLE
  2
UCS
 70
     0
  0
ENDTAB
  0
TABLE
  2
APPID
 70
     8
  0
APPID
  2
ACAD
 70
     0
  0
APPID
  2
ACAD_MLEADERVER
 70
     0
  0
APPID
  2
ACAD_PSEXT
 70
     0
  0
APPID
  2
ACAD_DSTYLE_DIMRADIAL_EXTENSION
 70
     0
  0
APPID
  2
ACAD_EXEMPT_FROM_CAD_STANDARDS
 70
     0
  0
APPID
  2
GRADIENTCOLOR1ACI
 70
     0
  0
APPID
  2
GRADIENTCOLOR2ACI
 70
     0
  0
APPID
  2
ACAECLAYERSTANDARD
 70
     0
  0
ENDTAB
  0
TABLE
  2
DIMSTYLE
 70
     1
  0
DIMSTYLE
  2
MISUMI
 70
     0
  3

  4

  5
OPEN30
  6

  7

 40
1.0
 41
2.5
 42
0.625
 43
3.75
 44
1.25
 45
0.0
 46
0.0
 47
0.0
 48
0.0
140
2.5
141
2.5
142
0.0
143
0.03937007874016
144
1.0
145
0.0
146
1.0
147
0.625
 71
     0
 72
     0
 73
     0
 74
     0
 75
     0
 76
     0
 77
     1
 78
     8
170
     0
171
     3
172
     1
173
     0
174
     0
175
     0
176
   137
177
   137
178
   137
  0
ENDTAB
  0
ENDSEC
  0
SECTION
  2
BLOCKS
  0
BLOCK
  8
0
  2
$MODEL_SPACE
 70
     0
 10
0.0
 20
0.0
 30
0.0
  3
$MODEL_SPACE
  1

  0
ENDBLK
  5
21
  8
0
  0
BLOCK
 67
     1
  8
0
  2
$PAPER_SPACE
 70
     0
 10
0.0
 20
0.0
 30
0.0
  3
$PAPER_SPACE
  1

  0
ENDBLK
  5
53
 67
     1
  8
0
  0
BLOCK
  8
0
 62
     7
  2
_OPEN30
 70
     0
 10
0.0
 20
0.0
 30
0.0
  3
_OPEN30
  1

  0
LINE
  5
D7
  8
0
  6
BYBLOCK
 62
     0
 10
-1.0
 20
0.26794919
 30
0.0
 11
0.0
 21
0.0
 31
0.0
  0
LINE
  5
D8
  8
0
  6
BYBLOCK
 62
     0
 10
0.0
 20
0.0
 30
0.0
 11
-1.0
 21
-0.26794919
 31
0.0
  0
LINE
  5
D9
  8
0
  6
BYBLOCK
 62
     0
 10
0.0
 20
0.0
 30
0.0
 11
-1.0
 21
0.0
 31
0.0
  0
ENDBLK
  5
DB
  8
0
 62
     7
  0
BLOCK
  8
0
 62
     7
  2
*U19
 70
     1
 10
0.0
 20
0.0
 30
0.0
  3
*U19
  1

  0
TEXT
  5
1F02
  8
0
  6
CONTINUOUS
 62
     7
 10
-30.551475327652501
 20
-35.98708212489646
 30
0.0
 40
3.0
  1
NFS5-2040-50
  0
ENDBLK
  5
1F04
  8
0
 62
     7
  0
BLOCK
  8
0
 62
     7
  2
*U20
 70
     1
 10
0.0
 20
0.0
 30
0.0
  3
*U20
  1

  0
TEXT
  5
1F06
  8
0
  6
CONTINUOUS
 62
     7
 10
-30.551475327652501
 20
-40.889968628180661
 30
0.0
 40
3.0
  1
NFS5-2040
  0
ENDBLK
  5
1F08
  8
0
 62
     7
  0
ENDSEC
  0
SECTION
  2
ENTITIES
  0
LINE
  5
19BA
  8
0
  6
CONTINUOUS
 62
     7
 10
-22.939342149998101
 20
-3.9999999999999991
 30
0.0
 11
-20.653589499999999
 21
-4.0000000000000853
 31
0.0
  0
LINE
  5
19BB
  8
CENTER
  6
CENTER
 62
     1
 10
-31.999999999999989
 20
0.0
 30
0.0
 11
12.0
 21
0.0
 31
0.0
  0
LINE
  5
19BC
  8
0
  6
CONTINUOUS
 62
     7
 10
-29.999999999999989
 20
-3.2999999999999972
 30
0.0
 11
-29.999999999999989
 21
-8.9999999999999005
 31
0.0
  0
LINE
  5
19BD
  8
0
  6
CONTINUOUS
 62
     7
 10
-23.000000499999999
 20
-9.6999999999999886
 30
0.0
 11
-23.000000499999999
 21
-8.2999999999998977
 31
0.0
  0
ARC
  5
19BE
  8
0
  6
CONTINUOUS
 62
     7
 10
-23.300000499999999
 20
-8.2999999999998977
 30
0.0
 40
0.3
 50
0.0
 51
90.000000000001606
  0
LINE
  5
19BF
  8
0
  6
CONTINUOUS
 62
     7
 10
-28.999999999999979
 20
-9.9999999999999005
 30
0.0
 11
-23.300000499999889
 21
-10.0
 31
0.0
  0
ARC
  5
19C0
  8
0
  6
CONTINUOUS
 62
     7
 10
-23.300000499999889
 20
-9.6999999999999886
 30
0.0
 40
0.3
 50
270.0
 51
0.0
  0
LINE
  5
19C1
  8
0
  6
CONTINUOUS
 62
     7
 10
-16.70000049999998
 20
-10.0
 30
0.0
 11
-3.2999999999999972
 21
-10.00000000000051
 31
0.0
  0
ARC
  5
19C2
  8
0
  6
CONTINUOUS
 62
     7
 10
-16.70000049999998
 20
-9.6999999999999886
 30
0.0
 40
0.3
 50
180.0
 51
270.0
  0
ARC
  5
19C3
  8
0
  6
CONTINUOUS
 62
     7
 10
-3.2999999999999972
 20
-9.7000000000005144
 30
0.0
 40
0.3
 50
270.0
 51
0.0
  0
LINE
  5
19C4
  8
0
  6
CONTINUOUS
 62
     7
 10
-5.9999999999999849
 20
-8.0000000000002984
 30
0.0
 11
-3.2999999999999972
 21
-8.0000000000002984
 31
0.0
  0
LINE
  5
19C5
  8
0
  6
CONTINUOUS
 62
     7
 10
-2.939319249985501
 20
-4.0000000000001981
 30
0.0
 11
-0.6535890000000819
 21
-4.0000000000002984
 31
0.0
  0
LINE
  5
19C6
  8
0
  6
CONTINUOUS
 62
     7
 10
-11.700000249999899
 20
-8.0000000000001972
 30
0.0
 11
-8.3000004999998964
 21
-8.0000000000001972
 31
0.0
  0
ARC
  5
19C7
  8
0
  6
CONTINUOUS
 62
     7
 10
-11.700000249999899
 20
-7.7000000000003013
 30
0.0
 40
0.3
 50
180.0
 51
270.0
  0
ARC
  5
19C8
  8
0
  6
CONTINUOUS
 62
     7
 10
-28.999999999999979
 20
-8.9999999999999005
 30
0.0
 40
1.0
 50
180.0
 51
270.0
  0
LINE
  5
19C9
  8
0
  6
CONTINUOUS
 62
     7
 10
-26.000000499999899
 20
-8.0
 30
0.0
 11
-23.300000499999999
 21
-7.9999999999998996
 31
0.0
  0
LINE
  5
19CA
  8
0
  6
CONTINUOUS
 62
     7
 10
-29.999999999999989
 20
8.9999999999999005
 30
0.0
 11
-29.999999999999989
 21
3.2999999999996978
 31
0.0
  0
LINE
  5
19CB
  8
0
  6
CONTINUOUS
 62
     7
 10
-23.000000499999999
 20
9.7000000000000881
 30
0.0
 11
-23.000000499999999
 21
8.2999999999999972
 31
0.0
  0
ARC
  5
19CC
  8
0
  6
CONTINUOUS
 62
     7
 10
-23.300000499999999
 20
8.2999999999999972
 30
0.0
 40
0.3
 50
270.0
 51
0.0
  0
ARC
  5
19CD
  8
0
  6
CONTINUOUS
 62
     7
 10
-23.300000499999889
 20
9.7000000000000881
 30
0.0
 40
0.3
 50
0.0
 51
90.0
  0
LINE
  5
19CE
  8
0
  6
CONTINUOUS
 62
     7
 10
-26.000000499999899
 20
-7.0606568500041682
 30
0.0
 11
-22.939342149998101
 21
-4.0
 31
0.0
  0
LINE
  5
19CF
  8
0
  6
CONTINUOUS
 62
     7
 10
-27.999999999999989
 20
-6.0
 30
0.0
 11
-27.999999999999989
 21
-3.2999999999999972
 31
0.0
  0
ARC
  5
19D0
  8
0
  6
CONTINUOUS
 62
     7
 10
-28.300000000000001
 20
-3.2999999999999972
 30
0.0
 40
0.3
 50
0.0
 51
90.0
  0
LINE
  5
19D1
  8
0
  6
CONTINUOUS
 62
     7
 10
-23.999999999999989
 20
-2.9393364999986029
 30
0.0
 11
-23.999999999999989
 21
-2.5000009999997128
 31
0.0
  0
LINE
  5
19D2
  8
0
  6
CONTINUOUS
 62
     7
 10
-15.99999999999998
 20
-2.9393319500007911
 30
0.0
 11
-15.99999999999998
 21
2.9393349999998
 31
0.0
  0
LINE
  5
19D3
  8
0
  6
CONTINUOUS
 62
     7
 10
-27.060662800001701
 20
-6.0
 30
0.0
 11
-23.999999999999989
 21
-2.9393364999986029
 31
0.0
  0
LINE
  5
19D4
  8
0
  6
CONTINUOUS
 62
     7
 10
-27.999999999999989
 20
-6.0
 30
0.0
 11
-27.060662800001701
 21
-6.0
 31
0.0
  0
LINE
  5
19D5
  8
0
  6
CONTINUOUS
 62
     7
 10
-26.000000499999899
 20
-7.0606568500041673
 30
0.0
 11
-26.000000499999899
 21
-8.0
 31
0.0
  0
LINE
  5
19D6
  8
0
  6
CONTINUOUS
 62
     7
 10
-29.700000000000031
 20
-3.0
 30
0.0
 11
-28.300000000000001
 21
-3.0
 31
0.0
  0
ARC
  5
19D7
  8
0
  6
CONTINUOUS
 62
     7
 10
-29.700000000000031
 20
-3.2999999999999972
 30
0.0
 40
0.3
 50
90.0
 51
180.0
  0
LINE
  5
19D8
  8
0
  6
CONTINUOUS
 62
     7
 10
-26.000000499999899
 20
7.0606365000197817
 30
0.0
 11
-22.939357500000401
 21
4.0
 31
0.0
  0
LINE
  5
19D9
  8
0
  6
CONTINUOUS
 62
     7
 10
-27.060682500000539
 20
5.9999999999999147
 30
0.0
 11
-23.999999999999989
 21
2.9393180000025012
 31
0.0
  0
LINE
  5
19DA
  8
0
  6
CONTINUOUS
 62
     7
 10
-27.999999999999989
 20
5.9999999999999138
 30
0.0
 11
-27.999999999999989
 21
3.299999999999911
 31
0.0
  0
LINE
  5
19DB
  8
0
  6
CONTINUOUS
 62
     7
 10
-23.999999999999989
 20
2.9393180000025012
 30
0.0
 11
-23.999999999999989
 21
0.6535900000000084
 31
0.0
  0
LINE
  5
19DC
  8
0
  6
CONTINUOUS
 62
     7
 10
-29.700000000000031
 20
2.999999999999801
 30
0.0
 11
-28.300000000000001
 21
2.9999999999999138
 31
0.0
  0
ARC
  5
19DD
  8
0
  6
CONTINUOUS
 62
     7
 10
-28.300000000000001
 20
3.299999999999911
 30
0.0
 40
0.3
 50
270.0000000000033
 51
0.0
  0
ARC
  5
19DE
  8
0
  6
CONTINUOUS
 62
     7
 10
-29.700000000000031
 20
3.2999999999996978
 30
0.0
 40
0.3
 50
180.0
 51
270.0
  0
LINE
  5
19DF
  8
0
  6
CONTINUOUS
 62
     7
 10
-27.999999999999989
 20
5.9999999999999138
 30
0.0
 11
-27.060682500000532
 21
5.9999999999999138
 31
0.0
  0
LINE
  5
19E0
  8
0
  6
CONTINUOUS
 62
     7
 10
-26.000000499999899
 20
8.0000000000000142
 30
0.0
 11
-23.300000499999999
 21
8.0000000000000142
 31
0.0
  0
LINE
  5
19E1
  8
0
  6
CONTINUOUS
 62
     7
 10
-22.939357500000401
 20
4.0
 30
0.0
 11
-22.49999949999949
 21
4.0
 31
0.0
  0
LINE
  5
19E2
  8
0
  6
CONTINUOUS
 62
     7
 10
-26.000000499999899
 20
8.0000000000000142
 30
0.0
 11
-26.000000499999899
 21
7.0606365000197817
 31
0.0
  0
LINE
  5
19E3
  8
0
  6
CONTINUOUS
 62
     7
 10
-28.999999999999979
 20
10.000000000000011
 30
0.0
 11
-23.300000499999889
 21
10.000000000000011
 31
0.0
  0
LINE
  5
19E4
  8
0
  6
CONTINUOUS
 62
     7
 10
-16.70000049999998
 20
10.000000000000011
 30
0.0
 11
-3.2999999999999972
 21
10.000000000000011
 31
0.0
  0
ARC
  5
19E5
  8
0
  6
CONTINUOUS
 62
     7
 10
-16.70000049999998
 20
9.7000000000000881
 30
0.0
 40
0.3
 50
90.0
 51
180.0
  0
LINE
  5
19E6
  8
0
  6
CONTINUOUS
 62
     7
 10
-11.700000249999899
 20
8.0000000000000142
 30
0.0
 11
-8.3000004999998964
 21
8.0000000000000142
 31
0.0
  0
ARC
  5
19E7
  8
0
  6
CONTINUOUS
 62
     7
 10
-28.999999999999979
 20
8.9999999999999005
 30
0.0
 40
1.0
 50
90.0
 51
180.0
  0
LINE
  5
19E8
  8
0
  6
CONTINUOUS
 62
     7
 10
10.0
 20
-3.2999999999999972
 30
0.0
 11
10.0
 21
-9.0
 31
0.0
  0
ARC
  5
19E9
  8
0
  6
CONTINUOUS
 62
     7
 10
9.7000000000000171
 20
-3.2999999999999972
 30
0.0
 40
0.3
 50
0.0
 51
90.0
  0
LINE
  5
19EA
  8
0
  6
CONTINUOUS
 62
     7
 10
8.0
 20
-3.3000000000000962
 30
0.0
 11
8.0
 21
-6.0000000000000853
 31
0.0
  0
LINE
  5
19EB
  8
0
  6
CONTINUOUS
 62
     7
 10
4.0
 20
-0.6535889999999966
 30
0.0
 11
4.0
 21
-2.9393539999483091
 31
0.0
  0
LINE
  5
19EC
  8
0
  6
CONTINUOUS
 62
     7
 10
-3.9999999999999849
 20
2.939339000000003
 30
0.0
 11
-3.9999999999999849
 21
-2.9393355000005101
 31
0.0
  0
LINE
  5
19ED
  8
0
  6
CONTINUOUS
 62
     7
 10
3.0
 20
-9.6999999999999886
 30
0.0
 11
3.0
 21
-8.2999999999999972
 31
0.0
  0
LINE
  5
19EE
  8
0
  6
CONTINUOUS
 62
     7
 10
-2.9999999999999849
 20
-9.7000000000005144
 30
0.0
 11
-2.9999999999999849
 21
-8.3000000000002956
 31
0.0
  0
ARC
  5
19EF
  8
0
  6
CONTINUOUS
 62
     7
 10
-3.2999999999999972
 20
-8.3000000000002956
 30
0.0
 40
0.3
 50
0.0
 51
90.0
  0
LINE
  5
19F0
  8
0
  6
CONTINUOUS
 62
     7
 10
-17.000000499999999
 20
-9.6999999999999886
 30
0.0
 11
-17.000000499999999
 21
-8.2999999999998977
 31
0.0
  0
ARC
  5
19F1
  8
0
  6
CONTINUOUS
 62
     7
 10
-16.70000049999998
 20
-8.2999999999998977
 30
0.0
 40
0.3
 50
89.999999999998366
 51
180.0
  0
LINE
  5
19F4
  8
0
  6
CONTINUOUS
 62
     7
 10
-16.70000049999998
 20
-7.9999999999998996
 30
0.0
 11
-14.0000005039999
 21
-8.0
 31
0.0
  0
LINE
  5
19F5
  8
0
  6
CONTINUOUS
 62
     7
 10
9.0
 20
-10.0
 30
0.0
 11
3.2999999999999261
 21
-10.0
 31
0.0
  0
ARC
  5
19F6
  8
0
  6
CONTINUOUS
 62
     7
 10
3.2999999999999261
 20
-9.6999999999999886
 30
0.0
 40
0.3
 50
180.0
 51
270.0
  0
LINE
  5
19F7
  8
0
  6
CONTINUOUS
 62
     7
 10
6.0
 20
-8.0
 30
0.0
 11
3.3000000000000109
 21
-8.0
 31
0.0
  0
ARC
  5
19F8
  8
0
  6
CONTINUOUS
 62
     7
 10
3.3000000000000109
 20
-8.2999999999999972
 30
0.0
 40
0.3
 50
90.0
 51
180.0
  0
LINE
  5
19F9
  8
0
  6
CONTINUOUS
 62
     7
 10
2.939336749995817
 20
-4.0000000000000853
 30
0.0
 11
2.4999989999987231
 21
-4.0000000000000853
 31
0.0
  0
ARC
  5
19FA
  8
0
  6
CONTINUOUS
 62
     7
 10
9.0
 20
-9.0
 30
0.0
 40
1.0
 50
270.0
 51
0.0
  0
LINE
  5
19FB
  8
0
  6
CONTINUOUS
 62
     7
 10
10.0
 20
8.9999999999999005
 30
0.0
 11
10.0
 21
3.2999999999996978
 31
0.0
  0
LINE
  5
19FC
  8
0
  6
CONTINUOUS
 62
     7
 10
3.0
 20
9.7000000000000881
 30
0.0
 11
3.0
 21
8.2999999999999972
 31
0.0
  0
ARC
  5
19FD
  8
0
  6
CONTINUOUS
 62
     7
 10
3.2999999999999261
 20
9.7000000000000881
 30
0.0
 40
0.3
 50
90.0
 51
180.0
  0
LINE
  5
19FE
  8
0
  6
CONTINUOUS
 62
     7
 10
-2.9999999999999849
 20
9.7000000000000881
 30
0.0
 11
-2.9999999999999849
 21
8.2999999999999972
 31
0.0
  0
ARC
  5
19FF
  8
0
  6
CONTINUOUS
 62
     7
 10
-3.2999999999999972
 20
8.2999999999999972
 30
0.0
 40
0.3
 50
270.0
 51
0.0
  0
ARC
  5
1A00
  8
0
  6
CONTINUOUS
 62
     7
 10
-3.2999999999999972
 20
9.7000000000000881
 30
0.0
 40
0.3
 50
0.0
 51
90.0
  0
LINE
  5
1A01
  8
0
  6
CONTINUOUS
 62
     7
 10
-17.000000499999999
 20
9.7000000000000881
 30
0.0
 11
-17.000000499999999
 21
8.2999999999999972
 31
0.0
  0
LINE
  5
1A02
  8
0
  6
CONTINUOUS
 62
     7
 10
-5.9999999999999849
 20
8.0000000000000142
 30
0.0
 11
-3.2999999999999972
 21
8.0000000000000142
 31
0.0
  0
LINE
  5
1A03
  8
0
  6
CONTINUOUS
 62
     7
 10
-2.939340000001692
 20
4.0
 30
0.0
 11
-2.500001000001788
 21
4.0
 31
0.0
  0
LINE
  5
1A04
  8
0
  6
CONTINUOUS
 62
     7
 10
-7.9121294999999909
 20
-6.8514657999999988
 30
0.0
 11
-3.9999999999999849
 21
-2.9393355000005101
 31
0.0
  0
LINE
  5
1A05
  8
0
  6
CONTINUOUS
 62
     7
 10
-5.9999999999999858
 20
-7.0606779999883154
 30
0.0
 11
-2.939319249985501
 21
-4.0000000000001981
 31
0.0
  0
LINE
  5
1A06
  8
0
  6
CONTINUOUS
 62
     7
 10
-5.9999999999999858
 20
7.0606589999989851
 30
0.0
 11
-2.939340000001692
 21
4.0
 31
0.0
  0
LINE
  5
1A07
  8
0
  6
CONTINUOUS
 62
     7
 10
-7.9121294999999909
 20
6.8514689999999092
 30
0.0
 11
-3.9999999999999849
 21
2.939339000000003
 31
0.0
  0
CIRCLE
  5
1A08
  8
0
  6
CONTINUOUS
 62
     7
 10
-20.000000499999999
 20
0.0
 30
0.0
 40
2.099999899999998
  0
LINE
  5
1A09
  8
0
  6
CONTINUOUS
 62
     7
 10
-12.08786439999999
 20
-6.8514765500000001
 30
0.0
 11
-15.99999999999998
 21
-2.9393319500007911
 31
0.0
  0
LINE
  5
1A0A
  8
0
  6
CONTINUOUS
 62
     7
 10
-14.0000005039999
 20
-7.0606823599954156
 30
0.0
 11
-17.060683650012599
 21
-4.0
 31
0.0
  0
LINE
  5
1A0B
  8
0
  6
CONTINUOUS
 62
     7
 10
-14.0000005039999
 20
-7.0606823599954147
 30
0.0
 11
-14.0000005039999
 21
-8.0
 31
0.0
  0
ARC
  5
1A0C
  8
0
  6
CONTINUOUS
 62
     7
 10
-12.299988000000081
 20
-7.0636051499999999
 30
0.0
 40
0.30000001
 50
0.0
 51
45.000001000003799
  0
LINE
  5
1A0D
  8
0
  6
CONTINUOUS
 62
     7
 10
-12.000000249999999
 20
-7.7000000000003013
 30
0.0
 11
-12.000000249999999
 21
-7.0636051499999999
 31
0.0
  0
ARC
  5
1A0E
  8
0
  6
CONTINUOUS
 62
     7
 10
-7.7000125000001836
 20
-7.0635994500000834
 30
0.0
 40
0.30000001
 50
135.0
 51
180.000010000001
  0
LINE
  5
1A0F
  8
0
  6
CONTINUOUS
 62
     7
 10
-8.0000004999999987
 20
-7.7000000000003013
 30
0.0
 11
-8.0000004999999987
 21
-7.0635994500000834
 31
0.0
  0
ARC
  5
1A10
  8
0
  6
CONTINUOUS
 62
     7
 10
-8.3000004999998964
 20
-7.7000000000003013
 30
0.0
 40
0.3
 50
270.0
 51
0.0
  0
LINE
  5
1A11
  8
0
  6
CONTINUOUS
 62
     7
 10
-5.9999999999999849
 20
-7.0606779999883136
 30
0.0
 11
-5.9999999999999849
 21
-8.0000000000002984
 31
0.0
  0
LINE
  5
1A12
  8
0
  6
CONTINUOUS
 62
     7
 10
-12.08786379999999
 20
6.8514794999999964
 30
0.0
 11
-15.99999999999998
 21
2.9393349999998
 31
0.0
  0
LINE
  5
1A13
  8
0
  6
CONTINUOUS
 62
     7
 10
-14.000000499999899
 20
7.060662569988593
 30
0.0
 11
-17.060668800006191
 21
4.0
 31
0.0
  0
LINE
  5
1A14
  8
0
  6
CONTINUOUS
 62
     7
 10
-14.000000499999899
 20
8.0000000000000995
 30
0.0
 11
-16.70000049999998
 21
8.0000000000000142
 31
0.0
  0
ARC
  5
1A15
  8
0
  6
CONTINUOUS
 62
     7
 10
-16.70000049999998
 20
8.2999999999999972
 30
0.0
 40
0.3
 50
180.0
 51
270.00000000000171
  0
LINE
  5
1A16
  8
0
  6
CONTINUOUS
 62
     7
 10
-17.060668800006191
 20
4.0
 30
0.0
 11
-19.34641049999999
 21
4.0000000000000986
 31
0.0
  0
LINE
  5
1A17
  8
0
  6
CONTINUOUS
 62
     7
 10
-12.000000249999999
 20
7.7000000000000881
 30
0.0
 11
-12.000000249999999
 21
7.0636044999998973
 31
0.0
  0
ARC
  5
1A18
  8
0
  6
CONTINUOUS
 62
     7
 10
-11.700000249999899
 20
7.7000000000000881
 30
0.0
 40
0.3
 50
90.0
 51
180.0
  0
ARC
  5
1A19
  8
0
  6
CONTINUOUS
 62
     7
 10
-12.29998567767761
 20
7.0636045380602042
 30
0.0
 40
0.2999976876774562
 50
314.99981628234531
 51
359.99999273095818
  0
LINE
  5
1A1A
  8
0
  6
CONTINUOUS
 62
     7
 10
-8.0000004999999987
 20
7.7000000000000881
 30
0.0
 11
-8.0000004999999987
 21
7.0635994999997962
 31
0.0
  0
ARC
  5
1A1B
  8
0
  6
CONTINUOUS
 62
     7
 10
-8.3000004999998964
 20
7.7000000000000881
 30
0.0
 40
0.3
 50
0.0
 51
90.0
  0
ARC
  5
1A1C
  8
0
  6
CONTINUOUS
 62
     7
 10
-7.7000148223221876
 20
7.0635995380603021
 30
0.0
 40
0.2999976876778877
 50
179.9999972689952
 51
225.00018371761789
  0
LINE
  5
1A1D
  8
0
  6
CONTINUOUS
 62
     7
 10
-5.9999999999999849
 20
8.0000000000000142
 30
0.0
 11
-5.9999999999999858
 21
7.0606589999989859
 31
0.0
  0
CIRCLE
  5
1A1E
  8
0
  6
CONTINUOUS
 62
     7
 10
0.0
 20
0.0
 30
0.0
 40
2.099999899999998
  0
LINE
  5
1A1F
  8
0
  6
CONTINUOUS
 62
     7
 10
6.0
 20
-7.060661000002721
 30
0.0
 11
2.939336749995817
 21
-4.0000000000000853
 31
0.0
  0
LINE
  5
1A20
  8
0
  6
CONTINUOUS
 62
     7
 10
7.0606597499740831
 20
-6.0000000000000009
 30
0.0
 11
4.0
 21
-2.9393539999483091
 31
0.0
  0
LINE
  5
1A21
  8
0
  6
CONTINUOUS
 62
     7
 10
5.9999999999999991
 20
-7.060661000002721
 30
0.0
 11
6.0
 21
-8.0
 31
0.0
  0
LINE
  5
1A22
  8
0
  6
CONTINUOUS
 62
     7
 10
8.0
 20
-6.0000000000000853
 30
0.0
 11
7.0606597499740831
 21
-6.0
 31
0.0
  0
LINE
  5
1A23
  8
0
  6
CONTINUOUS
 62
     7
 10
9.7000000000000171
 20
-3.0
 30
0.0
 11
8.2999999999999261
 21
-3.0000000000000848
 31
0.0
  0
ARC
  5
1A24
  8
0
  6
CONTINUOUS
 62
     7
 10
8.3000000000000114
 20
-3.3000000000000962
 30
0.0
 40
0.3
 50
90.000000000003226
 51
180.0
  0
LINE
  5
1A25
  8
0
  6
CONTINUOUS
 62
     7
 10
6.0
 20
8.0000000000000142
 30
0.0
 11
3.3000000000000109
 21
8.0000000000000142
 31
0.0
  0
ARC
  5
1A26
  8
0
  6
CONTINUOUS
 62
     7
 10
3.3000000000000109
 20
8.2999999999999972
 30
0.0
 40
0.3
 50
180.0
 51
270.0
  0
LINE
  5
1A27
  8
0
  6
CONTINUOUS
 62
     7
 10
6.0
 20
7.0606420000016641
 30
0.0
 11
2.9393565000019062
 21
3.999999999999801
 31
0.0
  0
LINE
  5
1A28
  8
0
  6
CONTINUOUS
 62
     7
 10
7.0606780000126683
 20
5.9999999999999138
 30
0.0
 11
3.99998649999992
 21
2.9393215000570612
 31
0.0
  0
LINE
  5
1A29
  8
0
  6
CONTINUOUS
 62
     7
 10
3.99998649999992
 20
2.9393215000570612
 30
0.0
 11
3.99998649999992
 21
2.4999315486514879
 31
0.0
  0
LINE
  5
1A2A
  8
0
  6
CONTINUOUS
 62
     7
 10
8.0
 20
5.9999999999999138
 30
0.0
 11
8.0
 21
3.299999999999911
 31
0.0
  0
LINE
  5
1A2B
  8
0
  6
CONTINUOUS
 62
     7
 10
9.7000000000000171
 20
2.999999999999801
 30
0.0
 11
8.2999999999999261
 21
2.999999999999801
 31
0.0
  0
ARC
  5
1A2C
  8
0
  6
CONTINUOUS
 62
     7
 10
8.3000000000000114
 20
3.299999999999911
 30
0.0
 40
0.3
 50
180.0
 51
269.99999999999682
  0
ARC
  5
1A2D
  8
0
  6
CONTINUOUS
 62
     7
 10
9.7000000000000171
 20
3.2999999999996978
 30
0.0
 40
0.3
 50
270.0
 51
0.0
  0
LINE
  5
1A2E
  8
0
  6
CONTINUOUS
 62
     7
 10
8.0
 20
5.9999999999999138
 30
0.0
 11
7.0606780000126692
 21
5.9999999999999138
 31
0.0
  0
LINE
  5
1A2F
  8
0
  6
CONTINUOUS
 62
     7
 10
6.0
 20
8.0000000000000142
 30
0.0
 11
6.0
 21
7.0606420000016632
 31
0.0
  0
LINE
  5
1A30
  8
0
  6
CONTINUOUS
 62
     7
 10
9.0
 20
10.000000000000011
 30
0.0
 11
3.2999999999999261
 21
10.000000000000011
 31
0.0
  0
ARC
  5
1A31
  8
0
  6
CONTINUOUS
 62
     7
 10
9.0
 20
8.9999999999999005
 30
0.0
 40
1.0
 50
0.0
 51
90.0
  0
LINE
  5
1A32
  8
0
  6
CONTINUOUS
 62
     7
 10
0.6535899999999231
 20
3.9999999999997011
 30
0.0
 11
2.9393565000019062
 21
3.999999999999801
 31
0.0
  0
LINE
  5
1A33
  8
0
  6
CONTINUOUS
 62
     7
 10
-17.499999500000701
 20
-4.0
 30
0.0
 11
-17.060683650012599
 21
-4.0
 31
0.0
  0
LINE
  5
1A34
  8
0
  6
CONTINUOUS
 62
     7
 10
-14.000000499999899
 20
8.0000000000000995
 30
0.0
 11
-14.000000499999899
 21
7.060662569988593
 31
0.0
  0
LINE
  5
1A59
  8
0
  6
CONTINUOUS
 62
     7
 10
-19.59641049999999
 20
3.933013000000201
 30
0.0
 11
-20.000000499999999
 21
3.7000000000002009
 31
0.0
  0
LINE
  5
1A5A
  8
0
  6
CONTINUOUS
 62
     7
 10
-20.000000499999999
 20
3.7000000000002009
 30
0.0
 11
-20.403589499999988
 21
3.933013000000201
 31
0.0
  0
LINE
  5
1A5B
  8
0
  6
CONTINUOUS
 62
     7
 10
-20.903589499999999
 20
3.933013000000201
 30
0.0
 11
-21.218885499999999
 21
3.7509770000001899
 31
0.0
  0
LINE
  5
1A5C
  8
0
  6
CONTINUOUS
 62
     7
 10
-21.218885499999999
 20
3.7509770000001899
 30
0.0
 11
-22.49999949999949
 21
4.0
 31
0.0
  0
ARC
  5
1A5D
  8
0
  6
CONTINUOUS
 62
     7
 10
-20.653589499999999
 20
3.500000000000099
 30
0.0
 40
0.5
 50
59.999999999999858
 51
120.0000000000001
  0
ARC
  5
1A5E
  8
0
  6
CONTINUOUS
 62
     7
 10
-19.34641049999999
 20
3.500000000000099
 30
0.0
 40
0.5
 50
89.999999999996746
 51
120.0000000000001
  0
LINE
  5
1A5F
  8
0
  6
CONTINUOUS
 62
     7
 10
-23.93301200000009
 20
-0.4035889999999967
 30
0.0
 11
-23.699999999999989
 21
0.0
 31
0.0
  0
LINE
  5
1A60
  8
0
  6
CONTINUOUS
 62
     7
 10
-23.999999999999989
 20
-2.5000009999997128
 30
0.0
 11
-23.750976000000001
 21
-1.218885999999997
 31
0.0
  0
ARC
  5
1A61
  8
0
  6
CONTINUOUS
 62
     7
 10
-23.500000000000082
 20
-0.6535889999999966
 30
0.0
 40
0.5
 50
149.99999999999869
 51
210.00000000000119
  0
LINE
  5
1A62
  8
0
  6
CONTINUOUS
 62
     7
 10
-23.750976000000001
 20
-1.218885999999997
 30
0.0
 11
-23.93301200000009
 21
-0.9035889999999966
 31
0.0
  0
LINE
  5
1A63
  8
0
  6
CONTINUOUS
 62
     7
 10
-23.93301200000009
 20
0.4035900000000084
 30
0.0
 11
-23.699999999999989
 21
0.0
 31
0.0
  0
ARC
  5
1A64
  8
0
  6
CONTINUOUS
 62
     7
 10
-23.500000000000082
 20
0.6535900000000084
 30
0.0
 40
0.5
 50
180.0
 51
210.00000000000119
  0
LINE
  5
1A65
  8
0
  6
CONTINUOUS
 62
     7
 10
-19.59641049999999
 20
-3.9330130000000869
 30
0.0
 11
-20.000000499999999
 21
-3.7000000000000881
 31
0.0
  0
LINE
  5
1A66
  8
0
  6
CONTINUOUS
 62
     7
 10
-20.000000499999999
 20
-3.7000000000000881
 30
0.0
 11
-20.403589499999988
 21
-3.9330130000000869
 31
0.0
  0
LINE
  5
1A67
  8
0
  6
CONTINUOUS
 62
     7
 10
-17.499999500000701
 20
-4.0
 30
0.0
 11
-18.78111449999998
 21
-3.7509760000000929
 31
0.0
  0
ARC
  5
1A68
  8
0
  6
CONTINUOUS
 62
     7
 10
-20.653589499999999
 20
-3.5000000000000848
 30
0.0
 40
0.5
 50
269.99999999999841
 51
300.00000000000011
  0
ARC
  5
1A69
  8
0
  6
CONTINUOUS
 62
     7
 10
-19.34641049999999
 20
-3.5000000000000848
 30
0.0
 40
0.5
 50
239.99999999999989
 51
300.00000000000011
  0
LINE
  5
1A6A
  8
0
  6
CONTINUOUS
 62
     7
 10
-18.78111449999998
 20
-3.7509760000000929
 30
0.0
 11
-19.09641049999999
 21
-3.9330130000000869
 31
0.0
  0
LINE
  5
1A6B
  8
0
  6
CONTINUOUS
 62
     7
 10
-0.4035889999999825
 20
3.9330129999997041
 30
0.0
 11
0.0
 21
3.699999999999704
 31
0.0
  0
LINE
  5
1A6C
  8
0
  6
CONTINUOUS
 62
     7
 10
0.0
 20
3.699999999999704
 30
0.0
 11
0.4035900000000084
 21
3.9330129999997041
 31
0.0
  0
LINE
  5
1A6D
  8
0
  6
CONTINUOUS
 62
     7
 10
-2.500001000001788
 20
4.0
 30
0.0
 11
-1.218884999999986
 21
3.7509769999996929
 31
0.0
  0
ARC
  5
1A6E
  8
0
  6
CONTINUOUS
 62
     7
 10
0.6535900000000084
 20
3.4999999999996021
 30
0.0
 40
0.5
 50
90.000000000003226
 51
120.0000000000001
  0
ARC
  5
1A6F
  8
0
  6
CONTINUOUS
 62
     7
 10
-0.6535889999999966
 20
3.4999999999996021
 30
0.0
 40
0.5
 50
59.999999999999858
 51
120.0000000000001
  0
LINE
  5
1A70
  8
0
  6
CONTINUOUS
 62
     7
 10
-1.218884999999986
 20
3.7509769999996929
 30
0.0
 11
-0.9035889999999966
 21
3.9330129999997041
 31
0.0
  0
LINE
  5
1A71
  8
0
  6
CONTINUOUS
 62
     7
 10
-0.4035889999999825
 20
-3.9330130000003001
 30
0.0
 11
0.0
 21
-3.7000000000003008
 31
0.0
  0
LINE
  5
1A72
  8
0
  6
CONTINUOUS
 62
     7
 10
0.0
 20
-3.7000000000003008
 30
0.0
 11
0.4035900000000084
 21
-3.9330130000003001
 31
0.0
  0
LINE
  5
1A73
  8
0
  6
CONTINUOUS
 62
     7
 10
0.9035900000000083
 20
-3.9330130000003001
 30
0.0
 11
1.218885999999997
 21
-3.750977000000304
 31
0.0
  0
LINE
  5
1A74
  8
0
  6
CONTINUOUS
 62
     7
 10
1.218885999999997
 20
-3.750977000000304
 30
0.0
 11
2.4999989999987231
 21
-4.0000000000000853
 31
0.0
  0
ARC
  5
1A75
  8
0
  6
CONTINUOUS
 62
     7
 10
0.6535900000000084
 20
-3.500000000000298
 30
0.0
 40
0.5
 50
239.99999999999989
 51
300.00000000000011
  0
ARC
  5
1A76
  8
0
  6
CONTINUOUS
 62
     7
 10
-0.6535889999999966
 20
-3.500000000000298
 30
0.0
 40
0.5
 50
269.99999999999841
 51
300.00000000000011
  0
LINE
  5
1A77
  8
0
  6
CONTINUOUS
 62
     7
 10
3.9330119999999051
 20
-0.4035889999999967
 30
0.0
 11
3.7000000000000171
 21
0.0
 31
0.0
  0
ARC
  5
1A78
  8
0
  6
CONTINUOUS
 62
     7
 10
3.5
 20
-0.6535889999999966
 30
0.0
 40
0.5
 50
0.0
 51
30.000000000000838
  0
LINE
  5
1A79
  8
0
  6
CONTINUOUS
 62
     7
 10
3.9330119999999051
 20
0.4035900000000084
 30
0.0
 11
3.7000000000000171
 21
0.0
 31
0.0
  0
LINE
  5
1A7A
  8
0
  6
CONTINUOUS
 62
     7
 10
3.99998649999992
 20
2.4999315486514879
 30
0.0
 11
3.7509759999999228
 21
1.218886000000011
 31
0.0
  0
ARC
  5
1A7B
  8
0
  6
CONTINUOUS
 62
     7
 10
3.5
 20
0.6535900000000084
 30
0.0
 40
0.5
 50
329.99999999999909
 51
30.000000000000838
  0
LINE
  5
1A7C
  8
0
  6
CONTINUOUS
 62
     7
 10
3.7509759999999228
 20
1.218886000000011
 30
0.0
 11
3.9330119999999051
 21
0.9035900000000083
 31
0.0
  0
LINE
  5
1A96
  8
CENTER
  6
CENTER
 62
     1
 10
-0.0000000000000005
 20
11.999999999999851
 30
0.0
 11
0.0
 21
-11.99999999999992
 31
0.0
  0
LINE
  5
1A97
  8
0
  6
CONTINUOUS
 62
     7
 10
36.557570000878513
 20
9.9999999999999716
 30
0.0
 11
86.557570000878499
 21
9.9999999999999716
 31
0.0
  0
LINE
  5
1A98
  8
0
  6
CONTINUOUS
 62
     7
 10
36.557570000878513
 20
2.9999999400001141
 30
0.0
 11
86.557570000878499
 21
2.9999999400001141
 31
0.0
  0
LINE
  5
1A99
  8
0
  6
CONTINUOUS
 62
     7
 10
36.557570000878513
 20
0.0
 30
0.0
 11
86.557570000878499
 21
0.0
 31
0.0
  0
LINE
  5
1A9A
  8
0
  6
CONTINUOUS
 62
     7
 10
36.557570000878513
 20
1.218885999999997
 30
0.0
 11
86.557570000878499
 21
1.218885999999997
 31
0.0
  0
LINE
  5
1A9B
  8
0
  6
CONTINUOUS
 62
     7
 10
36.557570000878513
 20
2.500000999999819
 30
0.0
 11
86.557570000878499
 21
2.500000999999819
 31
0.0
  0
LINE
  5
1A9C
  8
0
  6
CONTINUOUS
 62
     7
 10
36.557570000878513
 20
-2.9999999999999072
 30
0.0
 11
86.557570000878499
 21
-2.9999999999999072
 31
0.0
  0
LINE
  5
1A9D
  8
0
  6
CONTINUOUS
 62
     7
 10
36.557570000878513
 20
-9.9999999999999361
 30
0.0
 11
86.557570000878499
 21
-9.9999999999999361
 31
0.0
  0
LINE
  5
1A9E
  8
0
  6
CONTINUOUS
 62
     7
 10
36.557570000878513
 20
9.9999999999999716
 30
0.0
 11
36.557570000878513
 21
-9.9999999999999361
 31
0.0
  0
LINE
  5
1A9F
  8
0
  6
CONTINUOUS
 62
     7
 10
86.557570000878499
 20
9.9999999999999716
 30
0.0
 11
86.557570000878499
 21
-9.9999999999999361
 31
0.0
  0
LINE
  5
1AA0
  8
CENTER
  6
CENTER
 62
     1
 10
34.55757000087852
 20
0.0
 30
0.0
 11
88.557570000878513
 21
0.0
 31
0.0
  0
LINE
  5
1AA1
  8
CENTER
  6
CENTER
 62
     1
 10
-20.000000499999999
 20
11.999999999999851
 30
0.0
 11
-20.000000499999999
 21
-11.99999999999992
 31
0.0
  0
INSERT
  5
1AA3
  8
0
  6
CONTINUOUS
 62
     7
  2
*U19
 10
0.0
 20
0.0
 30
0.0
  0
INSERT
  5
1AA4
  8
0
  6
CONTINUOUS
 62
     7
  2
*U20
 10
0.0
 20
0.0
 30
0.0
  0
ENDSEC
  0
EOF
