  0
SECTION
  2
HEADER
  9
$ACADVER
  1
AC1009
  9
$INSBASE
 10
0.0
 20
0.0
 30
0.0
  9
$EXTMIN
 10
-41.84459406161249
 20
-48.523661101233166
 30
0.0
  9
$EXTMAX
 10
114.7658188454792
 20
43.162730728744009
 30
0.0
  9
$LIMMIN
 10
0.0
 20
0.0
  9
$LIMMAX
 10
420.0
 20
297.0
  9
$ORTHOMODE
 70
     0
  9
$REGENMODE
 70
     1
  9
$FILLMODE
 70
     1
  9
$QTEXTMODE
 70
     0
  9
$MIRRTEXT
 70
     0
  9
$DRAGMODE
 70
     2
  9
$LTSCALE
 40
1.0
  9
$OSMODE
 70
  2109
  9
$ATTMODE
 70
     1
  9
$TEXTSIZE
 40
3.0
  9
$TRACEWID
 40
1.0
  9
$TEXTSTYLE
  7
STANDARD
  9
$CLAYER
  8
0
  9
$CELTYPE
  6
CONTINUOUS
  9
$CECOLOR
 62
     7
  9
$DIMSCALE
 40
1.0
  9
$DIMASZ
 40
2.5
  9
$DIMEXO
 40
0.625
  9
$DIMDLI
 40
3.75
  9
$DIMRND
 40
0.0
  9
$DIMDLE
 40
0.0
  9
$DIMEXE
 40
1.25
  9
$DIMTP
 40
0.0
  9
$DIMTM
 40
0.0
  9
$DIMTXT
 40
2.5
  9
$DIMCEN
 40
2.5
  9
$DIMTSZ
 40
0.0
  9
$DIMTOL
 70
     0
  9
$DIMLIM
 70
     0
  9
$DIMTIH
 70
     0
  9
$DIMTOH
 70
     0
  9
$DIMSE1
 70
     0
  9
$DIMSE2
 70
     0
  9
$DIMTAD
 70
     1
  9
$DIMZIN
 70
     8
  9
$DIMBLK
  1
OPEN30
  9
$DIMASO
 70
     1
  9
$DIMSHO
 70
     1
  9
$DIMPOST
  1

  9
$DIMAPOST
  1

  9
$DIMALT
 70
     0
  9
$DIMALTD
 70
     3
  9
$DIMALTF
 40
0.03937007874016
  9
$DIMLFAC
 40
1.0
  9
$DIMTOFL
 70
     1
  9
$DIMTVP
 40
0.0
  9
$DIMTIX
 70
     0
  9
$DIMSOXD
 70
     0
  9
$DIMSAH
 70
     0
  9
$DIMBLK1
  1

  9
$DIMBLK2
  1

  9
$DIMSTYLE
  2
MISUMI
  9
$DIMCLRD
 70
   137
  9
$DIMCLRE
 70
   137
  9
$DIMCLRT
 70
   137
  9
$DIMTFAC
 40
1.0
  9
$DIMGAP
 40
0.625
  9
$LUNITS
 70
     2
  9
$LUPREC
 70
     2
  9
$SKETCHINC
 40
1.0
  9
$FILLETRAD
 40
0.0
  9
$AUNITS
 70
     0
  9
$AUPREC
 70
     0
  9
$MENU
  1
.
  9
$ELEVATION
 40
0.0
  9
$PELEVATION
 40
0.0
  9
$THICKNESS
 40
0.0
  9
$LIMCHECK
 70
     0
  9
$BLIPMODE
 70
     0
  9
$CHAMFERA
 40
0.5
  9
$CHAMFERB
 40
0.5
  9
$SKPOLY
 70
     0
  9
$TDCREATE
 40
2455135.5720697111
  9
$TDUPDATE
 40
2455656.629123773
  9
$TDINDWG
 40
0.0816262731
  9
$TDUSRTIMER
 40
0.081626088
  9
$USRTIMER
 70
     1
  9
$ANGBASE
 50
0.0
  9
$ANGDIR
 70
     0
  9
$PDMODE
 70
    35
  9
$PDSIZE
 40
0.0
  9
$PLINEWID
 40
0.0
  9
$COORDS
 70
     1
  9
$SPLFRAME
 70
     0
  9
$SPLINETYPE
 70
     6
  9
$SPLINESEGS
 70
     8
  9
$ATTDIA
 70
     0
  9
$ATTREQ
 70
     1
  9
$HANDLING
 70
     1
  9
$HANDSEED
  5
2078
  9
$SURFTAB1
 70
     6
  9
$SURFTAB2
 70
     6
  9
$SURFTYPE
 70
     6
  9
$SURFU
 70
     6
  9
$SURFV
 70
     6
  9
$UCSNAME
  2

  9
$UCSORG
 10
0.0
 20
0.0
 30
0.0
  9
$UCSXDIR
 10
1.0
 20
0.0
 30
0.0
  9
$UCSYDIR
 10
0.0
 20
1.0
 30
0.0
  9
$PUCSNAME
  2

  9
$PUCSORG
 10
0.0
 20
0.0
 30
0.0
  9
$PUCSXDIR
 10
1.0
 20
0.0
 30
0.0
  9
$PUCSYDIR
 10
0.0
 20
1.0
 30
0.0
  9
$USERI1
 70
     0
  9
$USERI2
 70
     0
  9
$USERI3
 70
     0
  9
$USERI4
 70
     0
  9
$USERI5
 70
     0
  9
$USERR1
 40
0.0
  9
$USERR2
 40
0.0
  9
$USERR3
 40
0.0
  9
$USERR4
 40
0.0
  9
$USERR5
 40
0.0
  9
$WORLDVIEW
 70
     1
  9
$SHADEDGE
 70
     3
  9
$SHADEDIF
 70
    70
  9
$TILEMODE
 70
     1
  9
$MAXACTVP
 70
    64
  9
$PLIMCHECK
 70
     0
  9
$PEXTMIN
 10
0.0
 20
0.0
 30
0.0
  9
$PEXTMAX
 10
0.0
 20
0.0
 30
0.0
  9
$PLIMMIN
 10
0.0
 20
0.0
  9
$PLIMMAX
 10
12.0
 20
9.0
  9
$UNITMODE
 70
     0
  9
$VISRETAIN
 70
     1
  9
$PLINEGEN
 70
     0
  9
$PSLTSCALE
 70
     1
  0
ENDSEC
  0
SECTION
  2
TABLES
  0
TABLE
  2
VPORT
 70
     1
  0
VPORT
  2
*ACTIVE
 70
     0
 10
0.0
 20
0.0
 11
1.0
 21
1.0
 12
54.64868786261011
 22
2.8994948379304608
 13
0.0
 23
0.0
 14
10.0
 24
10.0
 15
10.0
 25
10.0
 16
0.0
 26
0.0
 36
1.0
 17
0.0
 27
0.0
 37
0.0
 40
205.59110604882059
 41
1.0918367346938771
 42
50.0
 43
0.0
 44
0.0
 50
0.0
 51
0.0
 71
     0
 72
  1000
 73
     1
 74
     3
 75
     0
 76
     0
 77
     0
 78
     0
  0
ENDTAB
  0
TABLE
  2
LTYPE
 70
     4
  0
LTYPE
  2
CONTINUOUS
 70
     0
  3
Solid line
 72
    65
 73
     0
 40
0.0
  0
LTYPE
  2
CENTER
 70
     0
  3
Center ____ _ ____ _ ____ _ ____ _ ____ _ ____
 72
    65
 73
     4
 40
50.799999999999997
 49
31.75
 49
-6.3499999999999988
 49
6.3499999999999988
 49
-6.3499999999999988
  0
LTYPE
  2
DASHED
 70
     0
  3
Dashed __ __ __ __ __ __ __ __ __ __ __ __ __ _
 72
    65
 73
     2
 40
19.050000000000001
 49
12.699999999999999
 49
-6.3499999999999988
  0
LTYPE
  2
PHANTOM
 70
     0
  3
Phantom ______  __  __  ______  __  __  ______
 72
    65
 73
     6
 40
63.5
 49
31.75
 49
-6.3499999999999988
 49
6.3499999999999988
 49
-6.3499999999999988
 49
6.3499999999999988
 49
-6.3499999999999988
  0
ENDTAB
  0
TABLE
  2
LAYER
 70
     3
  0
LAYER
  2
0
 70
     0
 62
     7
  6
CONTINUOUS
  0
LAYER
  2
CENTER
 70
     0
 62
     1
  6
CENTER
  0
LAYER
  2
DEFPOINTS
 70
     0
 62
     7
  6
CONTINUOUS
  0
ENDTAB
  0
TABLE
  2
STYLE
 70
     1
  0
STYLE
  2
STANDARD
 70
     0
 40
3.0
 41
1.0
 50
0.0
 71
     0
 42
3.0
  3
txt.shx
  4
bigfont.shx
  0
ENDTAB
  0
TABLE
  2
VIEW
 70
     0
  0
ENDTAB
  0
TABLE
  2
UCS
 70
     0
  0
ENDTAB
  0
TABLE
  2
APPID
 70
     8
  0
APPID
  2
ACAD
 70
     0
  0
APPID
  2
ACAD_MLEADERVER
 70
     0
  0
APPID
  2
ACAD_PSEXT
 70
     0
  0
APPID
  2
ACAD_DSTYLE_DIMRADIAL_EXTENSION
 70
     0
  0
APPID
  2
ACAD_EXEMPT_FROM_CAD_STANDARDS
 70
     0
  0
APPID
  2
GRADIENTCOLOR1ACI
 70
     0
  0
APPID
  2
GRADIENTCOLOR2ACI
 70
     0
  0
APPID
  2
ACAECLAYERSTANDARD
 70
     0
  0
ENDTAB
  0
TABLE
  2
DIMSTYLE
 70
     1
  0
DIMSTYLE
  2
MISUMI
 70
     0
  3

  4

  5
OPEN30
  6

  7

 40
1.0
 41
2.5
 42
0.625
 43
3.75
 44
1.25
 45
0.0
 46
0.0
 47
0.0
 48
0.0
140
2.5
141
2.5
142
0.0
143
0.03937007874016
144
1.0
145
0.0
146
1.0
147
0.625
 71
     0
 72
     0
 73
     0
 74
     0
 75
     0
 76
     0
 77
     1
 78
     8
170
     0
171
     3
172
     1
173
     0
174
     0
175
     0
176
   137
177
   137
178
   137
  0
ENDTAB
  0
ENDSEC
  0
SECTION
  2
BLOCKS
  0
BLOCK
  8
0
  2
$MODEL_SPACE
 70
     0
 10
0.0
 20
0.0
 30
0.0
  3
$MODEL_SPACE
  1

  0
ENDBLK
  5
21
  8
0
  0
BLOCK
 67
     1
  8
0
  2
$PAPER_SPACE
 70
     0
 10
0.0
 20
0.0
 30
0.0
  3
$PAPER_SPACE
  1

  0
ENDBLK
  5
53
 67
     1
  8
0
  0
BLOCK
  8
0
 62
     7
  2
_OPEN30
 70
     0
 10
0.0
 20
0.0
 30
0.0
  3
_OPEN30
  1

  0
LINE
  5
D7
  8
0
  6
BYBLOCK
 62
     0
 10
-1.0
 20
0.26794919
 30
0.0
 11
0.0
 21
0.0
 31
0.0
  0
LINE
  5
D8
  8
0
  6
BYBLOCK
 62
     0
 10
0.0
 20
0.0
 30
0.0
 11
-1.0
 21
-0.26794919
 31
0.0
  0
LINE
  5
D9
  8
0
  6
BYBLOCK
 62
     0
 10
0.0
 20
0.0
 30
0.0
 11
-1.0
 21
0.0
 31
0.0
  0
ENDBLK
  5
DB
  8
0
 62
     7
  0
BLOCK
  8
0
 62
     7
  2
*U17
 70
     1
 10
0.0
 20
0.0
 30
0.0
  3
*U17
  1

  0
TEXT
  5
2071
  8
0
  6
CONTINUOUS
 62
     7
 10
-20.0
 20
-43.632322976641063
 30
0.0
 40
3.0
  1
NFS5-4040-50
  0
ENDBLK
  5
2073
  8
0
 62
     7
  0
BLOCK
  8
0
 62
     7
  2
*U18
 70
     1
 10
0.0
 20
0.0
 30
0.0
  3
*U18
  1

  0
TEXT
  5
2075
  8
0
  6
CONTINUOUS
 62
     7
 10
-20.0
 20
-48.523661101233166
 30
0.0
 40
3.0
  1
NFS5-4040
  0
ENDBLK
  5
2077
  8
0
 62
     7
  0
ENDSEC
  0
SECTION
  2
ENTITIES
  0
LINE
  5
1A0C
  8
CENTER
  6
CENTER
 62
     1
 10
0.0
 20
22.000000000405649
 30
0.0
 11
0.0
 21
-21.999999999594351
 31
0.0
  0
LINE
  5
1A0D
  8
0
  6
CONTINUOUS
 62
     7
 10
-17.06068356039799
 20
4.0000000000083134
 30
0.0
 11
-13.99999999544109
 21
7.060683064961907
 31
0.0
  0
LINE
  5
1A0E
  8
0
  6
CONTINUOUS
 62
     7
 10
-13.232243563612601
 20
5.7071043713904004
 30
0.0
 11
-17.060672393871581
 21
1.878649446684107
 31
0.0
  0
LINE
  5
1A0F
  8
0
  6
CONTINUOUS
 62
     7
 10
14.0
 20
7.0606828395712986
 30
0.0
 11
17.060683339566001
 21
4.0000000000083134
 31
0.0
  0
LINE
  5
1A10
  8
0
  6
CONTINUOUS
 62
     7
 10
17.060681313180108
 20
1.8786575559728069
 30
0.0
 11
13.232237560041821
 21
5.7071063147656949
 31
0.0
  0
ARC
  5
1A11
  8
0
  6
CONTINUOUS
 62
     7
 10
12.52513031658799
 20
4.9999999958468058
 30
0.0
 40
1.0
 50
44.999962543175293
 51
90.0
  0
LINE
  5
1A13
  8
CENTER
  6
CENTER
 62
     1
 10
-9.9999999954410868
 20
16.00000000000831
 30
0.0
 11
-9.9999999954410868
 21
4.0151745569239914
 31
0.0
  0
LINE
  5
1A14
  8
0
  6
CONTINUOUS
 62
     7
 10
-7.0606602913356928
 20
-14.000000000008299
 30
0.0
 11
-3.9999999954410859
 21
-17.060655605903531
 31
0.0
  0
LINE
  5
1A15
  8
0
  6
CONTINUOUS
 62
     7
 10
-5.7071079517466918
 20
-13.23223202375344
 30
0.0
 11
-2.0895919613521978
 21
-16.849759995274759
 31
0.0
  0
ARC
  5
1A16
  8
0
  6
CONTINUOUS
 62
     7
 10
-4.9999999996026068
 20
-12.52512641352631
 30
0.0
 40
1.0
 50
180.0
 51
224.9999051190286
  0
LINE
  5
1A18
  8
0
  6
CONTINUOUS
 62
     7
 10
-17.0606819395862
 20
-4.000000000008284
 30
0.0
 11
-14.0
 21
-7.0606814395915762
 31
0.0
  0
LINE
  5
1A19
  8
0
  6
CONTINUOUS
 62
     7
 10
-13.2322546534631
 20
-5.707106833979906
 30
0.0
 11
-17.060682250000401
 21
-1.8786798628695029
 31
0.0
  0
LINE
  5
1A1A
  8
0
  6
CONTINUOUS
 62
     7
 10
-14.0
 20
-12.93931112880294
 30
0.0
 11
-17.060685181208889
 21
-16.000000000008281
 31
0.0
  0
LINE
  5
1A1B
  8
0
  6
CONTINUOUS
 62
     7
 10
-15.99999999544109
 20
-17.060651564164559
 30
0.0
 11
-12.9393573312861
 21
-14.000000000008299
 31
0.0
  0
LINE
  5
1A1C
  8
0
  6
CONTINUOUS
 62
     7
 10
-17.060682250000401
 20
-1.8786798628695029
 30
0.0
 11
-18.0
 21
-1.8786798628695029
 31
0.0
  0
LINE
  5
1A1D
  8
0
  6
CONTINUOUS
 62
     7
 10
-17.060672393871581
 20
1.878649446684107
 30
0.0
 11
-18.0
 21
1.878649446684107
 31
0.0
  0
LINE
  5
1A1E
  8
0
  6
CONTINUOUS
 62
     7
 10
1.999974420100699
 20
-17.69730572943558
 30
0.0
 11
1.999974420100699
 21
-17.066313353296891
 31
0.0
  0
LINE
  5
1A1F
  8
0
  6
CONTINUOUS
 62
     7
 10
-2.000013209324492
 20
-17.06631335329666
 30
0.0
 11
-2.000013209324492
 21
-17.697305729435339
 31
0.0
  0
LINE
  5
1A20
  8
0
  6
CONTINUOUS
 62
     7
 10
-1.700025259528416
 20
-17.99999569751672
 30
0.0
 11
1.6999864703045939
 21
-17.99999569751672
 31
0.0
  0
ARC
  5
1A21
  8
0
  6
CONTINUOUS
 62
     7
 10
-1.700025259528416
 20
-17.699995687686268
 30
0.0
 40
0.3000000098304405
 50
179.48624894971701
 51
270.0
  0
ARC
  5
1A22
  8
0
  6
CONTINUOUS
 62
     7
 10
1.6999864703045939
 20
-17.699995687686268
 30
0.0
 40
0.3000000098304405
 50
270.0
 51
0.5137510502438653
  0
LINE
  5
1A23
  8
0
  6
CONTINUOUS
 62
     7
 10
4.0000000045641002
 20
-17.060653985037199
 30
0.0
 11
7.0606586795919952
 21
-14.000000000008299
 31
0.0
  0
LINE
  5
1A24
  8
0
  6
CONTINUOUS
 62
     7
 10
2.0895531655108068
 20
-16.8497599925374
 30
0.0
 11
5.7071067404783093
 21
-13.23220678745062
 31
0.0
  0
ARC
  5
1A25
  8
0
  6
CONTINUOUS
 62
     7
 10
-2.3000009592506951
 20
-17.06360119687438
 30
0.0
 40
0.3000000098304405
 50
359.48200923956949
 51
45.463515389546679
  0
ARC
  5
1A26
  8
0
  6
CONTINUOUS
 62
     7
 10
2.2999621699439952
 20
-17.063601187707249
 30
0.0
 40
0.3000000098304385
 50
134.53648636135199
 51
180.51799251132039
  0
LINE
  5
1A27
  8
0
  6
CONTINUOUS
 62
     7
 10
17.060682934080489
 20
-1.8786829786931061
 30
0.0
 11
13.23225870479911
 21
-5.707106816532999
 31
0.0
  0
ARC
  5
1A28
  8
0
  6
CONTINUOUS
 62
     7
 10
12.525151959761979
 20
-4.9999999991970014
 30
0.0
 40
1.0
 50
270.0
 51
314.99999707086528
  0
LINE
  5
1A29
  8
0
  6
CONTINUOUS
 62
     7
 10
14.0
 20
-7.0606844603825891
 30
0.0
 11
17.060684960377781
 21
-4.000000000008284
 31
0.0
  0
LINE
  5
1A2A
  8
0
  6
CONTINUOUS
 62
     7
 10
17.060681718754999
 20
-16.000000000008281
 30
0.0
 11
14.0
 21
-12.93931459125622
 31
0.0
  0
LINE
  5
1A2B
  8
0
  6
CONTINUOUS
 62
     7
 10
12.939351657811381
 20
-14.000000000008299
 30
0.0
 11
16.000000004564129
 21
-17.06065642676138
 31
0.0
  0
LINE
  5
1A2C
  8
0
  6
CONTINUOUS
 62
     7
 10
17.060682934080489
 20
-1.8786829786931061
 30
0.0
 11
18.000000434080391
 21
-1.8786829786931061
 31
0.0
  0
LINE
  5
1A2D
  8
0
  6
CONTINUOUS
 62
     7
 10
17.060681313180108
 20
1.8786575559728069
 30
0.0
 11
18.000000434080391
 21
1.8786575559728069
 31
0.0
  0
LINE
  5
1A2E
  8
0
  6
CONTINUOUS
 62
     7
 10
-5.7071099167247894
 20
13.23223007005261
 30
0.0
 11
-2.0896028510582019
 21
16.849769264952311
 31
0.0
  0
ARC
  5
1A2F
  8
0
  6
CONTINUOUS
 62
     7
 10
-4.9999999954410859
 20
12.525126428977099
 30
0.0
 40
1.0
 50
135.00025443782761
 51
180.0
  0
LINE
  5
1A30
  8
0
  6
CONTINUOUS
 62
     7
 10
-7.0606422995131899
 20
14.00000000000831
 30
0.0
 11
-3.9999999954410859
 21
17.060635994083889
 31
0.0
  0
LINE
  5
1A31
  8
CENTER
  6
CENTER
 62
     1
 10
-16.0
 20
10.00000000000831
 30
0.0
 11
-3.9999999954410792
 21
10.00000000000831
 31
0.0
  0
LINE
  5
1A32
  8
0
  6
CONTINUOUS
 62
     7
 10
-13.99999999544109
 20
12.9393143666515
 30
0.0
 11
-17.0606803187747
 21
16.00000000000831
 31
0.0
  0
LINE
  5
1A33
  8
0
  6
CONTINUOUS
 62
     7
 10
-15.99999999544109
 20
17.060638435808311
 30
0.0
 11
-12.93936883964439
 21
14.00000000000831
 31
0.0
  0
LINE
  5
1A34
  8
0
  6
CONTINUOUS
 62
     7
 10
1.999962927339225
 20
17.697315248569812
 30
0.0
 11
1.999962927339225
 21
17.066322872430991
 31
0.0
  0
LINE
  5
1A35
  8
0
  6
CONTINUOUS
 62
     7
 10
-2.0000247020858799
 20
17.066322872431101
 30
0.0
 11
-2.0000247020858799
 21
17.697315248569812
 31
0.0
  0
LINE
  5
1A36
  8
0
  6
CONTINUOUS
 62
     7
 10
4.0000000045640141
 20
17.060637614950309
 30
0.0
 11
7.0606439295027306
 21
14.00000000000831
 31
0.0
  0
LINE
  5
1A37
  8
0
  6
CONTINUOUS
 62
     7
 10
2.0895416727493048
 20
16.849769511671909
 30
0.0
 11
5.7071055900723016
 21
13.232217777752711
 31
0.0
  0
ARC
  5
1A38
  8
0
  6
CONTINUOUS
 62
     7
 10
-2.3000124444581891
 20
17.063609880606901
 30
0.0
 40
0.3000000098304405
 50
314.53664416702651
 51
0.5181503169714431
  0
ARC
  5
1A39
  8
0
  6
CONTINUOUS
 62
     7
 10
2.2999506771826068
 20
17.0636107068417
 30
0.0
 40
0.3000000098304385
 50
179.48200748871869
 51
225.46351363863869
  0
LINE
  5
1A3A
  8
0
  6
CONTINUOUS
 62
     7
 10
-1.7000367522897759
 20
18.000005216651221
 30
0.0
 11
1.699974977543121
 21
18.000005216651221
 31
0.0
  0
ARC
  5
1A3B
  8
0
  6
CONTINUOUS
 62
     7
 10
-1.7000367522897759
 20
17.700005206820691
 30
0.0
 40
0.3000000098304405
 50
90.0
 51
180.51375105028291
  0
ARC
  5
1A3C
  8
0
  6
CONTINUOUS
 62
     7
 10
1.699974977543121
 20
17.700005206820691
 30
0.0
 40
0.3000000098304405
 50
359.48624894973
 51
90.0
  0
LINE
  5
1A3D
  8
0
  6
CONTINUOUS
 62
     7
 10
17.060686581188719
 20
16.00000000000831
 30
0.0
 11
14.0
 21
12.939308108823409
 31
0.0
  0
LINE
  5
1A3E
  8
0
  6
CONTINUOUS
 62
     7
 10
12.939372891364989
 20
14.00000000000831
 30
0.0
 11
16.000000004564011
 21
17.060633573211401
 31
0.0
  0
LINE
  5
1A3F
  8
0
  6
CONTINUOUS
 62
     7
 10
-20.0
 20
19.00000000040562
 30
0.0
 11
-20.0
 21
13.30000000000841
 31
0.0
  0
LINE
  5
1A40
  8
0
  6
CONTINUOUS
 62
     7
 10
20.0
 20
19.00000000040562
 30
0.0
 11
20.0
 21
13.30000000000841
 31
0.0
  0
LINE
  5
1A41
  8
0
  6
CONTINUOUS
 62
     7
 10
-19.0
 20
20.00000000040562
 30
0.0
 11
-13.29999999544118
 21
20.00000000040562
 31
0.0
  0
LINE
  5
1A42
  8
0
  6
CONTINUOUS
 62
     7
 10
-19.0
 20
-19.999999999594351
 30
0.0
 11
-13.2999999954411
 21
-19.999999999594351
 31
0.0
  0
ARC
  5
1A43
  8
0
  6
CONTINUOUS
 62
     7
 10
-19.0
 20
-18.999999999594351
 30
0.0
 40
1.0
 50
180.0
 51
270.0
  0
ARC
  5
1A44
  8
0
  6
CONTINUOUS
 62
     7
 10
19.0
 20
-18.999999999594351
 30
0.0
 40
1.0
 50
270.0
 51
0.0
  0
ARC
  5
1A45
  8
0
  6
CONTINUOUS
 62
     7
 10
19.0
 20
19.00000000040562
 30
0.0
 40
1.0
 50
0.0
 51
90.0
  0
ARC
  5
1A46
  8
0
  6
CONTINUOUS
 62
     7
 10
-19.0
 20
19.00000000040562
 30
0.0
 40
1.0
 50
90.0
 51
180.0
  0
LINE
  5
1A47
  8
0
  6
CONTINUOUS
 62
     7
 10
-15.99999999544109
 20
18.00000000040562
 30
0.0
 11
-13.2999999954411
 21
18.00000000040562
 31
0.0
  0
LINE
  5
1A48
  8
0
  6
CONTINUOUS
 62
     7
 10
-15.99999999544109
 20
-17.999999999594358
 30
0.0
 11
-13.2999999954411
 21
-17.999999999594358
 31
0.0
  0
LINE
  5
1A49
  8
0
  6
CONTINUOUS
 62
     7
 10
-6.6999999954410887
 20
18.00000000040562
 30
0.0
 11
-3.9999999954410859
 21
18.00000000040562
 31
0.0
  0
ARC
  5
1A4A
  8
0
  6
CONTINUOUS
 62
     7
 10
-6.6999999954410887
 20
18.300000000405621
 30
0.0
 40
0.3
 50
180.0
 51
270.0
  0
LINE
  5
1A4B
  8
0
  6
CONTINUOUS
 62
     7
 10
13.300000004564
 20
18.000000000405691
 30
0.0
 11
16.000000004564011
 21
18.00000000040562
 31
0.0
  0
LINE
  5
1A4C
  8
0
  6
CONTINUOUS
 62
     7
 10
-15.99999999544109
 20
18.00000000040562
 30
0.0
 11
-15.99999999544109
 21
17.060638435808311
 31
0.0
  0
LINE
  5
1A4D
  8
0
  6
CONTINUOUS
 62
     7
 10
-3.9999999954410859
 20
18.00000000040562
 30
0.0
 11
-3.9999999954410859
 21
17.060635994083889
 31
0.0
  0
LINE
  5
1A4E
  8
0
  6
CONTINUOUS
 62
     7
 10
-12.99999999544108
 20
19.700000000405691
 30
0.0
 11
-12.99999999544108
 21
18.300000000405621
 31
0.0
  0
ARC
  5
1A4F
  8
0
  6
CONTINUOUS
 62
     7
 10
-13.2999999954411
 20
18.300000000405621
 30
0.0
 40
0.3
 50
270.0
 51
0.0
  0
LINE
  5
1A50
  8
0
  6
CONTINUOUS
 62
     7
 10
-6.9999999954410859
 20
19.700000000405691
 30
0.0
 11
-6.9999999954411862
 21
18.300000000405621
 31
0.0
  0
LINE
  5
1A51
  8
0
  6
CONTINUOUS
 62
     7
 10
-6.6999999954410887
 20
20.00000000040562
 30
0.0
 11
6.7000000045640027
 21
20.000000000405691
 31
0.0
  0
LINE
  5
1A52
  8
0
  6
CONTINUOUS
 62
     7
 10
7.0000000045640141
 20
19.700000000405691
 30
0.0
 11
7.0000000045641002
 21
18.300000000405689
 31
0.0
  0
ARC
  5
1A53
  8
0
  6
CONTINUOUS
 62
     7
 10
6.700000004564088
 20
18.300000000405689
 30
0.0
 40
0.3
 50
270.0
 51
0.0000000000040711
  0
LINE
  5
1A54
  8
0
  6
CONTINUOUS
 62
     7
 10
13.00000000456401
 20
19.700000000405691
 30
0.0
 11
13.00000000456401
 21
18.300000000405689
 31
0.0
  0
ARC
  5
1A55
  8
0
  6
CONTINUOUS
 62
     7
 10
13.300000004564
 20
18.300000000405689
 30
0.0
 40
0.3
 50
180.0
 51
269.99999999999841
  0
LINE
  5
1A56
  8
0
  6
CONTINUOUS
 62
     7
 10
13.30000000456411
 20
20.000000000405691
 30
0.0
 11
19.0
 21
20.00000000040562
 31
0.0
  0
LINE
  5
1A57
  8
0
  6
CONTINUOUS
 62
     7
 10
4.0000000045640141
 20
18.000000000405691
 30
0.0
 11
6.700000004564088
 21
18.000000000405691
 31
0.0
  0
LINE
  5
1A58
  8
0
  6
CONTINUOUS
 62
     7
 10
4.0000000045640141
 20
18.000000000405691
 30
0.0
 11
4.0000000045640141
 21
17.060637614950309
 31
0.0
  0
LINE
  5
1A59
  8
0
  6
CONTINUOUS
 62
     7
 10
16.000000004564011
 20
18.00000000040562
 30
0.0
 11
16.000000004564011
 21
17.060633573211401
 31
0.0
  0
LINE
  5
1A5A
  8
0
  6
CONTINUOUS
 62
     7
 10
-5.9999999954411862
 20
12.525126428977099
 30
0.0
 11
-5.9999999954410859
 21
10.16933020446581
 31
0.0
  0
LINE
  5
1A5B
  8
0
  6
CONTINUOUS
 62
     7
 10
-18.0
 20
16.00000000000831
 30
0.0
 11
-18.0
 21
13.300000000008311
 31
0.0
  0
LINE
  5
1A5C
  8
0
  6
CONTINUOUS
 62
     7
 10
4.0000000045641002
 20
-17.060653985037199
 30
0.0
 11
4.0000000045641002
 21
-17.999999999594358
 31
0.0
  0
LINE
  5
1A5D
  8
0
  6
CONTINUOUS
 62
     7
 10
16.000000004564129
 20
-17.06065642676138
 30
0.0
 11
16.000000004564129
 21
-17.999999999594358
 31
0.0
  0
LINE
  5
1A5E
  8
0
  6
CONTINUOUS
 62
     7
 10
13.30000000456411
 20
-19.999999999594351
 30
0.0
 11
19.0
 21
-19.999999999594351
 31
0.0
  0
LINE
  5
1A5F
  8
0
  6
CONTINUOUS
 62
     7
 10
7.0000000045641002
 20
-18.299999999594348
 30
0.0
 11
7.0000000045641002
 21
-19.699999999594279
 31
0.0
  0
ARC
  5
1A60
  8
0
  6
CONTINUOUS
 62
     7
 10
6.700000004564088
 20
-18.299999999594348
 30
0.0
 40
0.3
 50
0.0
 51
90.0
  0
LINE
  5
1A61
  8
0
  6
CONTINUOUS
 62
     7
 10
13.30000000456411
 20
-17.999999999594358
 30
0.0
 11
16.000000004564129
 21
-17.999999999594358
 31
0.0
  0
ARC
  5
1A62
  8
0
  6
CONTINUOUS
 62
     7
 10
13.30000000456411
 20
-18.299999999594348
 30
0.0
 40
0.3
 50
90.0
 51
180.0
  0
LINE
  5
1A63
  8
0
  6
CONTINUOUS
 62
     7
 10
-12.99999999544108
 20
-18.299999999594348
 30
0.0
 11
-12.99999999544108
 21
-19.699999999594279
 31
0.0
  0
ARC
  5
1A64
  8
0
  6
CONTINUOUS
 62
     7
 10
-13.2999999954411
 20
-18.299999999594348
 30
0.0
 40
0.3
 50
0.0
 51
90.0
  0
LINE
  5
1A65
  8
0
  6
CONTINUOUS
 62
     7
 10
-6.9999999954410859
 20
-18.299999999594348
 30
0.0
 11
-6.9999999954410859
 21
-19.699999999594279
 31
0.0
  0
LINE
  5
1A66
  8
0
  6
CONTINUOUS
 62
     7
 10
-15.99999999544109
 20
-17.060651564164559
 30
0.0
 11
-15.99999999544109
 21
-17.999999999594358
 31
0.0
  0
LINE
  5
1A67
  8
0
  6
CONTINUOUS
 62
     7
 10
-3.9999999954410859
 20
-17.060655605903531
 30
0.0
 11
-3.9999999954410859
 21
-17.999999999594358
 31
0.0
  0
LINE
  5
1A68
  8
0
  6
CONTINUOUS
 62
     7
 10
4.0000000045641002
 20
-17.999999999594358
 30
0.0
 11
6.700000004564088
 21
-17.999999999594358
 31
0.0
  0
LINE
  5
1A69
  8
0
  6
CONTINUOUS
 62
     7
 10
-6.6999999954410887
 20
-17.999999999594358
 30
0.0
 11
-3.9999999954410859
 21
-17.999999999594358
 31
0.0
  0
ARC
  5
1A6A
  8
0
  6
CONTINUOUS
 62
     7
 10
-6.6999999954410887
 20
-18.299999999594348
 30
0.0
 40
0.3
 50
90.0
 51
180.0
  0
LINE
  5
1A6B
  8
0
  6
CONTINUOUS
 62
     7
 10
-6.6999999954410887
 20
-19.999999999594351
 30
0.0
 11
6.7000000045640027
 21
-19.999999999594351
 31
0.0
  0
LINE
  5
1A6C
  8
0
  6
CONTINUOUS
 62
     7
 10
18.0
 20
16.00000000000831
 30
0.0
 11
18.0
 21
13.300000000008311
 31
0.0
  0
LINE
  5
1A6D
  8
0
  6
CONTINUOUS
 62
     7
 10
18.300000000000011
 20
-7.0000000000083134
 30
0.0
 11
19.700000000000099
 21
-7.000000000008284
 31
0.0
  0
ARC
  5
1A6E
  8
0
  6
CONTINUOUS
 62
     7
 10
18.300000000000011
 20
-6.7000000000083162
 30
0.0
 40
0.3
 50
180.0
 51
270.0
  0
LINE
  5
1A6F
  8
0
  6
CONTINUOUS
 62
     7
 10
18.300000000000011
 20
-13.000000000008299
 30
0.0
 11
19.700000000000099
 21
-13.00000000000828
 31
0.0
  0
ARC
  5
1A70
  8
0
  6
CONTINUOUS
 62
     7
 10
18.300000000000011
 20
-13.300000000008289
 30
0.0
 40
0.3
 50
90.0
 51
180.0
  0
LINE
  5
1A71
  8
0
  6
CONTINUOUS
 62
     7
 10
20.0
 20
-13.30000000000835
 30
0.0
 11
20.0
 21
-18.999999999594351
 31
0.0
  0
LINE
  5
1A72
  8
0
  6
CONTINUOUS
 62
     7
 10
18.0
 20
-13.300000000008289
 30
0.0
 11
18.0
 21
-16.000000000008281
 31
0.0
  0
LINE
  5
1A73
  8
0
  6
CONTINUOUS
 62
     7
 10
18.300000000000011
 20
13.00000000000831
 30
0.0
 11
19.700000000000099
 21
13.00000000000831
 31
0.0
  0
ARC
  5
1A74
  8
0
  6
CONTINUOUS
 62
     7
 10
18.300000000000011
 20
13.300000000008311
 30
0.0
 40
0.3
 50
180.0
 51
270.0
  0
LINE
  5
1A75
  8
0
  6
CONTINUOUS
 62
     7
 10
18.300000000000011
 20
7.0000000000083134
 30
0.0
 11
19.700000000000099
 21
7.0000000000083134
 31
0.0
  0
ARC
  5
1A76
  8
0
  6
CONTINUOUS
 62
     7
 10
18.300000000000011
 20
6.7000000000083162
 30
0.0
 40
0.3
 50
90.0
 51
180.0
  0
LINE
  5
1A77
  8
0
  6
CONTINUOUS
 62
     7
 10
18.0
 20
6.7000000000083162
 30
0.0
 11
18.0
 21
4.0000000000083134
 31
0.0
  0
LINE
  5
1A78
  8
0
  6
CONTINUOUS
 62
     7
 10
20.0
 20
6.7000000000083162
 30
0.0
 11
20.0
 21
-6.7000000000083162
 31
0.0
  0
LINE
  5
1A79
  8
0
  6
CONTINUOUS
 62
     7
 10
17.060683339566001
 20
4.0000000000083134
 30
0.0
 11
18.0
 21
4.0000000000083134
 31
0.0
  0
LINE
  5
1A7A
  8
0
  6
CONTINUOUS
 62
     7
 10
17.060686581188719
 20
16.00000000000831
 30
0.0
 11
18.0
 21
16.00000000000831
 31
0.0
  0
LINE
  5
1A7B
  8
0
  6
CONTINUOUS
 62
     7
 10
17.060684960377781
 20
-4.000000000008284
 30
0.0
 11
18.0
 21
-4.000000000008284
 31
0.0
  0
LINE
  5
1A7C
  8
0
  6
CONTINUOUS
 62
     7
 10
17.060681718754999
 20
-16.000000000008281
 30
0.0
 11
18.0
 21
-16.000000000008281
 31
0.0
  0
LINE
  5
1A7D
  8
0
  6
CONTINUOUS
 62
     7
 10
18.0
 20
1.8786575559728069
 30
0.0
 11
18.0
 21
-1.8786829786931061
 31
0.0
  0
LINE
  5
1A7E
  8
0
  6
CONTINUOUS
 62
     7
 10
18.0
 20
-4.000000000008284
 30
0.0
 11
18.0
 21
-6.7000000000083162
 31
0.0
  0
LINE
  5
1A7F
  8
0
  6
CONTINUOUS
 62
     7
 10
-19.699999999999999
 20
13.00000000000831
 30
0.0
 11
-18.299999999999901
 21
13.00000000000831
 31
0.0
  0
ARC
  5
1A80
  8
0
  6
CONTINUOUS
 62
     7
 10
-18.299999999999901
 20
13.300000000008311
 30
0.0
 40
0.3
 50
270.0
 51
0.0
  0
LINE
  5
1A81
  8
0
  6
CONTINUOUS
 62
     7
 10
-19.699999999999999
 20
7.0000000000083134
 30
0.0
 11
-18.300000000000001
 21
7.0000000000083134
 31
0.0
  0
ARC
  5
1A82
  8
0
  6
CONTINUOUS
 62
     7
 10
-18.300000000000001
 20
6.7000000000083162
 30
0.0
 40
0.3
 50
0.0
 51
90.0
  0
LINE
  5
1A83
  8
0
  6
CONTINUOUS
 62
     7
 10
-19.699999999999999
 20
-7.000000000008284
 30
0.0
 11
-18.300000000000001
 21
-7.0000000000083134
 31
0.0
  0
LINE
  5
1A84
  8
0
  6
CONTINUOUS
 62
     7
 10
-19.699999999999999
 20
-13.00000000000828
 30
0.0
 11
-18.300000000000001
 21
-13.000000000008299
 31
0.0
  0
LINE
  5
1A85
  8
0
  6
CONTINUOUS
 62
     7
 10
-18.0
 20
-4.000000000008284
 30
0.0
 11
-18.0
 21
-6.7000000000083162
 31
0.0
  0
ARC
  5
1A86
  8
0
  6
CONTINUOUS
 62
     7
 10
-18.300000000000001
 20
-6.7000000000083162
 30
0.0
 40
0.3
 50
270.0
 51
0.0
  0
LINE
  5
1A87
  8
0
  6
CONTINUOUS
 62
     7
 10
-20.0
 20
6.7000000000083162
 30
0.0
 11
-20.0
 21
-6.7000000000083162
 31
0.0
  0
LINE
  5
1A88
  8
0
  6
CONTINUOUS
 62
     7
 10
-18.0
 20
-13.300000000008289
 30
0.0
 11
-18.0
 21
-16.000000000008281
 31
0.0
  0
ARC
  5
1A89
  8
0
  6
CONTINUOUS
 62
     7
 10
-18.300000000000001
 20
-13.300000000008289
 30
0.0
 40
0.3
 50
0.0
 51
90.0
  0
LINE
  5
1A8A
  8
0
  6
CONTINUOUS
 62
     7
 10
-20.0
 20
-13.30000000000835
 30
0.0
 11
-20.0
 21
-18.999999999594351
 31
0.0
  0
LINE
  5
1A8B
  8
0
  6
CONTINUOUS
 62
     7
 10
-18.0
 20
16.00000000000831
 30
0.0
 11
-17.0606803187747
 21
16.00000000000831
 31
0.0
  0
LINE
  5
1A8C
  8
0
  6
CONTINUOUS
 62
     7
 10
-18.0
 20
4.0000000000083134
 30
0.0
 11
-17.06068356039799
 21
4.0000000000083134
 31
0.0
  0
LINE
  5
1A8D
  8
0
  6
CONTINUOUS
 62
     7
 10
-18.0
 20
-4.000000000008284
 30
0.0
 11
-17.0606819395862
 21
-4.000000000008284
 31
0.0
  0
LINE
  5
1A8E
  8
0
  6
CONTINUOUS
 62
     7
 10
-18.0
 20
-16.000000000008281
 30
0.0
 11
-17.060685181208889
 21
-16.000000000008281
 31
0.0
  0
LINE
  5
1A8F
  8
0
  6
CONTINUOUS
 62
     7
 10
-18.0
 20
6.7000000000083162
 30
0.0
 11
-18.0
 21
4.0000000000083134
 31
0.0
  0
LINE
  5
1A90
  8
0
  6
CONTINUOUS
 62
     7
 10
-18.0
 20
1.878649446684107
 30
0.0
 11
-18.0
 21
-1.8786798628695029
 31
0.0
  0
LINE
  5
1A91
  8
0
  6
CONTINUOUS
 62
     7
 10
-12.52513437262979
 20
6.0000000000083134
 30
0.0
 11
-10.16933019989869
 21
6.0000000000083134
 31
0.0
  0
ARC
  5
1A92
  8
0
  6
CONTINUOUS
 62
     7
 10
-12.52513437262979
 20
5.0000000000083134
 30
0.0
 40
1.0
 50
90.0
 51
135.00019526242599
  0
LINE
  5
1A93
  8
0
  6
CONTINUOUS
 62
     7
 10
13.00000000456413
 20
-18.299999999594348
 30
0.0
 11
13.00000000456413
 21
-19.699999999594279
 31
0.0
  0
ARC
  5
1A98
  8
0
  6
CONTINUOUS
 62
     7
 10
-13.29999999544118
 20
19.700000000405691
 30
0.0
 40
0.3
 50
0.0
 51
90.0
  0
ARC
  5
1A99
  8
0
  6
CONTINUOUS
 62
     7
 10
-6.6999999954410887
 20
19.700000000405691
 30
0.0
 40
0.3
 50
90.0
 51
180.0
  0
ARC
  5
1A9A
  8
0
  6
CONTINUOUS
 62
     7
 10
6.7000000045640027
 20
19.700000000405691
 30
0.0
 40
0.3
 50
0.0
 51
90.0
  0
ARC
  5
1A9B
  8
0
  6
CONTINUOUS
 62
     7
 10
13.30000000456411
 20
19.700000000405691
 30
0.0
 40
0.3
 50
90.0
 51
180.0
  0
ARC
  5
1A9C
  8
0
  6
CONTINUOUS
 62
     7
 10
19.700000000000099
 20
13.30000000000841
 30
0.0
 40
0.3
 50
270.0
 51
0.0
  0
ARC
  5
1A9D
  8
0
  6
CONTINUOUS
 62
     7
 10
19.700000000000099
 20
6.7000000000083162
 30
0.0
 40
0.3
 50
0.0
 51
90.0
  0
ARC
  5
1A9E
  8
0
  6
CONTINUOUS
 62
     7
 10
19.700000000000099
 20
-6.7000000000083162
 30
0.0
 40
0.3
 50
270.0
 51
0.0
  0
ARC
  5
1A9F
  8
0
  6
CONTINUOUS
 62
     7
 10
19.700000000000099
 20
-13.30000000000835
 30
0.0
 40
0.3
 50
0.0
 51
90.0
  0
ARC
  5
1AA0
  8
0
  6
CONTINUOUS
 62
     7
 10
13.30000000456411
 20
-19.699999999594279
 30
0.0
 40
0.3
 50
180.0
 51
270.0
  0
ARC
  5
1AA1
  8
0
  6
CONTINUOUS
 62
     7
 10
6.7000000045640027
 20
-19.699999999594279
 30
0.0
 40
0.3
 50
270.0
 51
0.0
  0
ARC
  5
1AA2
  8
0
  6
CONTINUOUS
 62
     7
 10
-6.6999999954410887
 20
-19.699999999594279
 30
0.0
 40
0.3
 50
180.0
 51
270.0
  0
ARC
  5
1AA3
  8
0
  6
CONTINUOUS
 62
     7
 10
-13.2999999954411
 20
-19.699999999594279
 30
0.0
 40
0.3
 50
270.0
 51
0.0
  0
ARC
  5
1AA4
  8
0
  6
CONTINUOUS
 62
     7
 10
-19.699999999999999
 20
-13.30000000000835
 30
0.0
 40
0.3
 50
90.0
 51
180.0
  0
ARC
  5
1AA5
  8
0
  6
CONTINUOUS
 62
     7
 10
-19.699999999999999
 20
-6.7000000000083162
 30
0.0
 40
0.3
 50
180.0
 51
270.0
  0
ARC
  5
1AA6
  8
0
  6
CONTINUOUS
 62
     7
 10
-19.699999999999999
 20
6.7000000000083162
 30
0.0
 40
0.3
 50
90.0
 51
180.0
  0
ARC
  5
1AA7
  8
0
  6
CONTINUOUS
 62
     7
 10
-19.699999999999999
 20
13.30000000000841
 30
0.0
 40
0.3
 50
180.0
 51
270.0
  0
ARC
  5
1AC7
  8
0
  6
CONTINUOUS
 62
     7
 10
-9.9999999954410868
 20
10.00000000000831
 30
0.0
 40
2.1000000000000001
 50
3.1801361404616451
 51
266.81986385953832
  0
ARC
  5
1AC8
  8
0
  6
CONTINUOUS
 62
     7
 10
-6.9523502182395873
 20
10.16933020446581
 30
0.0
 40
0.9523502227985291
 50
183.18013614046239
 51
0.0
  0
ARC
  5
1AC9
  8
0
  6
CONTINUOUS
 62
     7
 10
-10.16933019989869
 20
6.9523502228067002
 30
0.0
 40
0.9523502227985004
 50
270.0
 51
86.819863859538344
  0
LINE
  5
1ACA
  8
0
  6
CONTINUOUS
 62
     7
 10
-12.525147930034411
 20
-5.9999999950354939
 30
0.0
 11
-10.169330204060181
 21
-5.9999999950354939
 31
0.0
  0
ARC
  5
1ACB
  8
0
  6
CONTINUOUS
 62
     7
 10
-12.525147930034411
 20
-4.9999999950355081
 30
0.0
 40
1.0
 50
225.00000468003199
 51
270.0
  0
LINE
  5
1ACC
  8
0
  6
CONTINUOUS
 62
     7
 10
-5.9999999996026068
 20
-12.52512641352631
 30
0.0
 11
-5.9999999996026068
 21
-10.1693301994931
 31
0.0
  0
ARC
  5
1ACD
  8
0
  6
CONTINUOUS
 62
     7
 10
-9.9999999996026077
 20
-9.9999999950355072
 30
0.0
 40
2.1000000000000001
 50
93.180136140461627
 51
356.81986385953837
  0
ARC
  5
1ACE
  8
0
  6
CONTINUOUS
 62
     7
 10
-10.169330204060181
 20
-6.9523502178340371
 30
0.0
 40
0.9523502227985291
 50
273.18013614046328
 51
90.0
  0
ARC
  5
1ACF
  8
0
  6
CONTINUOUS
 62
     7
 10
-6.9523502224009937
 20
-10.1693301994931
 30
0.0
 40
0.9523502227985004
 50
0.0
 51
176.81986385953829
  0
LINE
  5
1AD0
  8
0
  6
CONTINUOUS
 62
     7
 10
5.9999999954412138
 20
-12.52509997011461
 30
0.0
 11
5.9999999954412138
 21
-10.169330203654519
 31
0.0
  0
ARC
  5
1AD1
  8
0
  6
CONTINUOUS
 62
     7
 10
4.9999999954412138
 20
-12.52509997011461
 30
0.0
 40
1.0
 50
314.99999707086528
 51
0.0
  0
LINE
  5
1AD2
  8
0
  6
CONTINUOUS
 62
     7
 10
12.525151959761979
 20
-5.9999999991970014
 30
0.0
 11
10.169330199898811
 21
-5.9999999991970014
 31
0.0
  0
ARC
  5
1AD3
  8
0
  6
CONTINUOUS
 62
     7
 10
9.9999999954412147
 20
-9.9999999991970014
 30
0.0
 40
2.1000000000000001
 50
183.1801361404616
 51
86.819863859538344
  0
ARC
  5
1AD4
  8
0
  6
CONTINUOUS
 62
     7
 10
6.952350218239701
 20
-10.169330203654519
 30
0.0
 40
0.9523502227985291
 50
3.1801361404624591
 51
180.0
  0
ARC
  5
1AD5
  8
0
  6
CONTINUOUS
 62
     7
 10
10.169330199898811
 20
-6.9523502219954159
 30
0.0
 40
0.9523502227985004
 50
90.0
 51
266.81986385953832
  0
LINE
  5
1AD6
  8
0
  6
CONTINUOUS
 62
     7
 10
12.52513031658799
 20
5.9999999958468058
 30
0.0
 11
10.1693302040602
 21
5.9999999958468058
 31
0.0
  0
LINE
  5
1AD7
  8
0
  6
CONTINUOUS
 62
     7
 10
5.9999999996027213
 20
12.525109805851191
 30
0.0
 11
5.9999999996027213
 21
10.16933020030441
 31
0.0
  0
ARC
  5
1AD8
  8
0
  6
CONTINUOUS
 62
     7
 10
4.9999999996027213
 20
12.525109805851191
 30
0.0
 40
1.0
 50
0.0
 51
45.000096481888562
  0
ARC
  5
1AD9
  8
0
  6
CONTINUOUS
 62
     7
 10
9.9999999996027213
 20
9.9999999958468067
 30
0.0
 40
2.1000000000000001
 50
273.18013614046168
 51
176.81986385953829
  0
ARC
  5
1ADA
  8
0
  6
CONTINUOUS
 62
     7
 10
10.1693302040602
 20
6.9523502186453072
 30
0.0
 40
0.9523502227985291
 50
93.180136140461627
 51
270.0
  0
ARC
  5
1ADB
  8
0
  6
CONTINUOUS
 62
     7
 10
6.952350222401094
 20
10.16933020030441
 30
0.0
 40
0.9523502227985004
 50
180.0
 51
356.81986385953837
  0
LINE
  5
1ADD
  8
0
  6
CONTINUOUS
 62
     7
 10
-12.93936883964439
 20
14.00000000000831
 30
0.0
 11
-12.50001083964349
 21
14.00000000000831
 31
0.0
  0
LINE
  5
1ADE
  8
0
  6
CONTINUOUS
 62
     7
 10
-7.0606422995131934
 20
14.00000000000831
 30
0.0
 11
-9.3464218396439946
 21
14.00000000000831
 31
0.0
  0
LINE
  5
1ADF
  8
0
  6
CONTINUOUS
 62
     7
 10
-9.5964218396439946
 20
13.93301300000841
 30
0.0
 11
-10.000011839643991
 21
13.70000000000841
 31
0.0
  0
LINE
  5
1AE0
  8
0
  6
CONTINUOUS
 62
     7
 10
-10.000011839643991
 20
13.70000000000841
 30
0.0
 11
-10.403600839644101
 21
13.93301300000841
 31
0.0
  0
LINE
  5
1AE1
  8
0
  6
CONTINUOUS
 62
     7
 10
-10.9036008396439
 20
13.93301300000841
 30
0.0
 11
-11.218896839643991
 21
13.750977000008399
 31
0.0
  0
LINE
  5
1AE2
  8
0
  6
CONTINUOUS
 62
     7
 10
-11.218896839643991
 20
13.750977000008399
 30
0.0
 11
-12.50001083964349
 21
14.00000000000831
 31
0.0
  0
ARC
  5
1AE3
  8
0
  6
CONTINUOUS
 62
     7
 10
-10.6536008396439
 20
13.500000000008409
 30
0.0
 40
0.5
 50
60.000000000000277
 51
119.9999999999997
  0
ARC
  5
1AE4
  8
0
  6
CONTINUOUS
 62
     7
 10
-9.3464218396439946
 20
13.500000000008409
 30
0.0
 40
0.5
 50
89.999999999996746
 51
119.9999999999997
  0
LINE
  5
1AE5
  8
0
  6
CONTINUOUS
 62
     7
 10
-14.0
 20
7.0606830604029929
 30
0.0
 11
-14.0
 21
7.4999953712081151
 31
0.0
  0
LINE
  5
1AE6
  8
0
  6
CONTINUOUS
 62
     7
 10
-14.0
 20
12.939314371210299
 30
0.0
 11
-14.0
 21
10.65358637120781
 31
0.0
  0
LINE
  5
1AE7
  8
0
  6
CONTINUOUS
 62
     7
 10
-13.933012
 20
9.5964073712078033
 30
0.0
 11
-13.699999999999999
 21
9.9999963712078141
 31
0.0
  0
LINE
  5
1AE8
  8
0
  6
CONTINUOUS
 62
     7
 10
-14.0
 20
7.4999953712081151
 30
0.0
 11
-13.750975999999991
 21
8.7811103712078022
 31
0.0
  0
ARC
  5
1AE9
  8
0
  6
CONTINUOUS
 62
     7
 10
-13.500000000000099
 20
9.3464073712076896
 30
0.0
 40
0.5
 50
149.99999999999801
 51
210.00000000000199
  0
LINE
  5
1AEA
  8
0
  6
CONTINUOUS
 62
     7
 10
-13.750975999999991
 20
8.7811103712078022
 30
0.0
 11
-13.933012
 21
9.0964073712078033
 31
0.0
  0
LINE
  5
1AEB
  8
0
  6
CONTINUOUS
 62
     7
 10
-13.933012
 20
10.40358637120781
 30
0.0
 11
-13.699999999999999
 21
9.9999963712078141
 31
0.0
  0
ARC
  5
1AEC
  8
0
  6
CONTINUOUS
 62
     7
 10
-13.500000000000099
 20
10.65358637120781
 30
0.0
 40
0.5
 50
180.0
 51
210.00000000000199
  0
LINE
  5
1AED
  8
CENTER
  6
CENTER
 62
     1
 10
-22.0
 20
0.0
 30
0.0
 11
22.0
 21
0.0
 31
0.0
  0
LINE
  5
1AEE
  8
0
  6
CONTINUOUS
 62
     7
 10
14.0
 20
12.939308108823409
 30
0.0
 11
14.0
 21
12.5000046288084
 31
0.0
  0
LINE
  5
1AEF
  8
0
  6
CONTINUOUS
 62
     7
 10
14.0
 20
7.0606828395713004
 30
0.0
 11
14.0
 21
9.3464136288088042
 31
0.0
  0
LINE
  5
1AF0
  8
0
  6
CONTINUOUS
 62
     7
 10
13.933012000000099
 20
10.40359262880871
 30
0.0
 11
13.700000000000101
 21
10.00000362880871
 31
0.0
  0
LINE
  5
1AF1
  8
0
  6
CONTINUOUS
 62
     7
 10
14.0
 20
12.5000046288084
 30
0.0
 11
13.75097600000012
 21
11.218889628808711
 31
0.0
  0
ARC
  5
1AF2
  8
0
  6
CONTINUOUS
 62
     7
 10
13.50000000000011
 20
10.653592628808809
 30
0.0
 40
0.5
 50
329.99999999999812
 51
30.000000000001961
  0
LINE
  5
1AF3
  8
0
  6
CONTINUOUS
 62
     7
 10
13.75097600000012
 20
11.218889628808711
 30
0.0
 11
13.933012000000099
 21
10.90359262880871
 31
0.0
  0
LINE
  5
1AF4
  8
0
  6
CONTINUOUS
 62
     7
 10
13.933012000000099
 20
9.5964136288087047
 30
0.0
 11
13.700000000000101
 21
10.00000362880871
 31
0.0
  0
ARC
  5
1AF5
  8
0
  6
CONTINUOUS
 62
     7
 10
13.50000000000011
 20
9.3464136288088042
 30
0.0
 40
0.5
 50
0.0
 51
30.000000000001961
  0
LINE
  5
1AF6
  8
0
  6
CONTINUOUS
 62
     7
 10
12.93935165781137
 20
-14.00000000000828
 30
0.0
 11
12.50001083964349
 21
-14.00000000000828
 31
0.0
  0
LINE
  5
1AF7
  8
0
  6
CONTINUOUS
 62
     7
 10
7.0606586795920103
 20
-14.00000000000828
 30
0.0
 11
9.3464218396440231
 21
-14.000000000008351
 31
0.0
  0
LINE
  5
1AF8
  8
0
  6
CONTINUOUS
 62
     7
 10
9.5964218396441083
 20
-13.93301300000841
 30
0.0
 11
10.00001183964411
 21
-13.700000000008369
 31
0.0
  0
LINE
  5
1AF9
  8
0
  6
CONTINUOUS
 62
     7
 10
10.00001183964411
 20
-13.700000000008369
 30
0.0
 11
10.403600839644101
 21
-13.93301300000841
 31
0.0
  0
LINE
  5
1AFA
  8
0
  6
CONTINUOUS
 62
     7
 10
10.90360083964398
 20
-13.93301300000841
 30
0.0
 11
11.21889683964411
 21
-13.75097700000839
 31
0.0
  0
LINE
  5
1AFB
  8
0
  6
CONTINUOUS
 62
     7
 10
11.21889683964411
 20
-13.75097700000839
 30
0.0
 11
12.50001083964349
 21
-14.00000000000828
 31
0.0
  0
ARC
  5
1AFC
  8
0
  6
CONTINUOUS
 62
     7
 10
10.65360083964398
 20
-13.5000000000084
 30
0.0
 40
0.5
 50
239.99999999999989
 51
300.00000000000011
  0
ARC
  5
1AFD
  8
0
  6
CONTINUOUS
 62
     7
 10
9.3464218396441083
 20
-13.5000000000084
 30
0.0
 40
0.5
 50
269.99999999999682
 51
300.00000000000011
  0
LINE
  5
1AFE
  8
0
  6
CONTINUOUS
 62
     7
 10
14.0
 20
-7.06068446038259
 30
0.0
 11
14.0
 21
-7.4999953712081293
 31
0.0
  0
LINE
  5
1AFF
  8
0
  6
CONTINUOUS
 62
     7
 10
14.0
 20
-12.93931437121033
 30
0.0
 11
14.0
 21
-10.653586371207821
 31
0.0
  0
LINE
  5
1B00
  8
0
  6
CONTINUOUS
 62
     7
 10
13.933012000000099
 20
-9.5964073712078317
 30
0.0
 11
13.700000000000101
 21
-9.9999963712078284
 31
0.0
  0
LINE
  5
1B01
  8
0
  6
CONTINUOUS
 62
     7
 10
14.0
 20
-7.4999953712081293
 30
0.0
 11
13.75097600000012
 21
-8.7811103712078307
 31
0.0
  0
ARC
  5
1B02
  8
0
  6
CONTINUOUS
 62
     7
 10
13.50000000000011
 20
-9.3464073712077465
 30
0.0
 40
0.5
 50
329.99999999999812
 51
30.000000000001961
  0
LINE
  5
1B03
  8
0
  6
CONTINUOUS
 62
     7
 10
13.75097600000012
 20
-8.7811103712078307
 30
0.0
 11
13.933012000000099
 21
-9.0964073712078317
 31
0.0
  0
LINE
  5
1B04
  8
0
  6
CONTINUOUS
 62
     7
 10
13.933012000000099
 20
-10.40358637120781
 30
0.0
 11
13.700000000000101
 21
-9.9999963712078284
 31
0.0
  0
ARC
  5
1B05
  8
0
  6
CONTINUOUS
 62
     7
 10
13.50000000000011
 20
-10.653586371207821
 30
0.0
 40
0.5
 50
0.0
 51
30.000000000001961
  0
LINE
  5
1B06
  8
0
  6
CONTINUOUS
 62
     7
 10
7.0606439295027341
 20
14.00000000000831
 30
0.0
 11
7.500004351234792
 21
14.00000000000831
 31
0.0
  0
LINE
  5
1B07
  8
0
  6
CONTINUOUS
 62
     7
 10
12.939372891364989
 20
14.00000000000831
 30
0.0
 11
10.65359335123429
 21
14.00000000000831
 31
0.0
  0
LINE
  5
1B08
  8
0
  6
CONTINUOUS
 62
     7
 10
10.40359335123421
 20
13.93301300000841
 30
0.0
 11
10.0000033512342
 21
13.70000000000841
 31
0.0
  0
LINE
  5
1B09
  8
0
  6
CONTINUOUS
 62
     7
 10
10.0000033512342
 20
13.70000000000841
 30
0.0
 11
9.5964143512342162
 21
13.93301300000841
 31
0.0
  0
LINE
  5
1B0A
  8
0
  6
CONTINUOUS
 62
     7
 10
9.0964143512343014
 20
13.93301300000841
 30
0.0
 11
8.7811183512341984
 21
13.750977000008399
 31
0.0
  0
LINE
  5
1B0B
  8
0
  6
CONTINUOUS
 62
     7
 10
8.7811183512341984
 20
13.750977000008399
 30
0.0
 11
7.500004351234792
 21
14.00000000000831
 31
0.0
  0
ARC
  5
1B0C
  8
0
  6
CONTINUOUS
 62
     7
 10
9.3464143512343014
 20
13.500000000008409
 30
0.0
 40
0.5
 50
60.000000000000277
 51
119.9999999999997
  0
ARC
  5
1B0D
  8
0
  6
CONTINUOUS
 62
     7
 10
10.6535933512342
 20
13.500000000008409
 30
0.0
 40
0.5
 50
89.999999999996746
 51
119.9999999999997
  0
LINE
  5
1B0E
  8
0
  6
CONTINUOUS
 62
     7
 10
-7.0606602913357088
 20
-14.00000000000828
 30
0.0
 11
-7.5000011095034997
 21
-14.00000000000828
 31
0.0
  0
LINE
  5
1B0F
  8
0
  6
CONTINUOUS
 62
     7
 10
-12.939357331286081
 20
-14.00000000000828
 30
0.0
 11
-10.653590109503
 21
-14.000000000008351
 31
0.0
  0
LINE
  5
1B10
  8
0
  6
CONTINUOUS
 62
     7
 10
-10.403590109503
 20
-13.93301300000841
 30
0.0
 11
-10.000000109503
 21
-13.700000000008369
 31
0.0
  0
LINE
  5
1B11
  8
0
  6
CONTINUOUS
 62
     7
 10
-10.000000109503
 20
-13.700000000008369
 30
0.0
 11
-9.5964111095029931
 21
-13.93301300000841
 31
0.0
  0
LINE
  5
1B12
  8
0
  6
CONTINUOUS
 62
     7
 10
-9.0964111095030944
 20
-13.93301300000841
 30
0.0
 11
-8.7811151095030056
 21
-13.75097700000839
 31
0.0
  0
LINE
  5
1B13
  8
0
  6
CONTINUOUS
 62
     7
 10
-8.7811151095030056
 20
-13.75097700000839
 30
0.0
 11
-7.5000011095034997
 21
-14.00000000000828
 31
0.0
  0
ARC
  5
1B14
  8
0
  6
CONTINUOUS
 62
     7
 10
-9.3464111095030944
 20
-13.5000000000084
 30
0.0
 40
0.5
 50
239.99999999999989
 51
300.00000000000011
  0
ARC
  5
1B15
  8
0
  6
CONTINUOUS
 62
     7
 10
-10.653590109503
 20
-13.5000000000084
 30
0.0
 40
0.5
 50
269.99999999999682
 51
300.00000000000011
  0
LINE
  5
1B16
  8
0
  6
CONTINUOUS
 62
     7
 10
-14.0
 20
-12.93931112880294
 30
0.0
 11
-14.0
 21
-12.500000439593769
 31
0.0
  0
LINE
  5
1B17
  8
0
  6
CONTINUOUS
 62
     7
 10
-14.0
 20
-7.0606814395915762
 30
0.0
 11
-14.0
 21
-9.3464094395940833
 31
0.0
  0
LINE
  5
1B18
  8
0
  6
CONTINUOUS
 62
     7
 10
-13.933012
 20
-10.403588439594071
 30
0.0
 11
-13.699999999999999
 21
-9.9999994395940774
 31
0.0
  0
LINE
  5
1B19
  8
0
  6
CONTINUOUS
 62
     7
 10
-14.0
 20
-12.500000439593769
 30
0.0
 11
-13.750975999999991
 21
-11.21888543959407
 31
0.0
  0
ARC
  5
1B1A
  8
0
  6
CONTINUOUS
 62
     7
 10
-13.500000000000099
 20
-10.653588439594159
 30
0.0
 40
0.5
 50
149.99999999999801
 51
210.00000000000199
  0
LINE
  5
1B1B
  8
0
  6
CONTINUOUS
 62
     7
 10
-13.750975999999991
 20
-11.21888543959407
 30
0.0
 11
-13.933012
 21
-10.903588439594071
 31
0.0
  0
LINE
  5
1B1C
  8
0
  6
CONTINUOUS
 62
     7
 10
-13.933012
 20
-9.5964094395940833
 30
0.0
 11
-13.699999999999999
 21
-9.9999994395940774
 31
0.0
  0
ARC
  5
1B1D
  8
0
  6
CONTINUOUS
 62
     7
 10
-13.500000000000099
 20
-9.3464094395940833
 30
0.0
 40
0.5
 50
180.0
 51
210.00000000000199
  0
LINE
  5
1B24
  8
CENTER
  6
CENTER
 62
     1
 10
9.9999999996027213
 20
15.99999999584681
 30
0.0
 11
9.9999999996027213
 21
4.0151745527624838
 31
0.0
  0
LINE
  5
1B25
  8
CENTER
  6
CENTER
 62
     1
 10
3.9999999950438081
 20
9.9999999958468067
 30
0.0
 11
15.99999999960273
 21
9.9999999958468067
 31
0.0
  0
LINE
  5
1B26
  8
CENTER
  6
CENTER
 62
     1
 10
9.9999999954412147
 20
-3.999999999197001
 30
0.0
 11
9.9999999954412147
 21
-15.98482544228132
 31
0.0
  0
LINE
  5
1B27
  8
CENTER
  6
CENTER
 62
     1
 10
3.999999990882301
 20
-9.9999999991970014
 30
0.0
 11
15.99999999544122
 21
-9.9999999991970014
 31
0.0
  0
LINE
  5
1B28
  8
CENTER
  6
CENTER
 62
     1
 10
-9.9999999996026077
 20
-3.9999999950355081
 30
0.0
 11
-9.9999999996026077
 21
-15.984825438119829
 31
0.0
  0
LINE
  5
1B29
  8
CENTER
  6
CENTER
 62
     1
 10
-16.000000004161521
 20
-9.9999999950355072
 30
0.0
 11
-3.9999999996026001
 21
-9.9999999950355072
 31
0.0
  0
LINE
  5
1B2B
  8
0
  6
CONTINUOUS
 62
     7
 10
62.765818845479167
 20
-19.999999999594351
 30
0.0
 11
112.7658188454792
 21
-19.999999999594351
 31
0.0
  0
LINE
  5
1B2C
  8
0
  6
CONTINUOUS
 62
     7
 10
62.765818845479167
 20
20.00000000040562
 30
0.0
 11
112.7658188454792
 21
20.00000000040562
 31
0.0
  0
LINE
  5
1B2D
  8
0
  6
CONTINUOUS
 62
     7
 10
62.765818845479167
 20
13.00000000000831
 30
0.0
 11
112.7658188454792
 21
13.00000000000831
 31
0.0
  0
LINE
  5
1B2E
  8
0
  6
CONTINUOUS
 62
     7
 10
62.765818845479167
 20
7.000000000008316
 30
0.0
 11
112.7658188454792
 21
7.000000000008316
 31
0.0
  0
LINE
  5
1B2F
  8
0
  6
CONTINUOUS
 62
     7
 10
62.765818845479167
 20
10.00000362880871
 30
0.0
 11
112.7658188454792
 21
10.00000362880871
 31
0.0
  0
LINE
  5
1B30
  8
0
  6
CONTINUOUS
 62
     7
 10
62.765818845479167
 20
11.218889628808711
 30
0.0
 11
112.7658188454792
 21
11.218889628808711
 31
0.0
  0
LINE
  5
1B31
  8
0
  6
CONTINUOUS
 62
     7
 10
62.765818845479167
 20
12.5000046288084
 30
0.0
 11
112.7658188454792
 21
12.5000046288084
 31
0.0
  0
LINE
  5
1B32
  8
0
  6
CONTINUOUS
 62
     7
 10
62.765818845479167
 20
-7.000000000008316
 30
0.0
 11
112.7658188454792
 21
-7.000000000008316
 31
0.0
  0
LINE
  5
1B33
  8
0
  6
CONTINUOUS
 62
     7
 10
62.765818845479167
 20
-7.4999953712081293
 30
0.0
 11
112.7658188454792
 21
-7.4999953712081293
 31
0.0
  0
LINE
  5
1B34
  8
0
  6
CONTINUOUS
 62
     7
 10
62.765818845479167
 20
-8.7811103712078307
 30
0.0
 11
112.7658188454792
 21
-8.7811103712078307
 31
0.0
  0
LINE
  5
1B35
  8
0
  6
CONTINUOUS
 62
     7
 10
62.765818845479167
 20
-9.9999999991970014
 30
0.0
 11
112.7658188454792
 21
-9.9999999991970014
 31
0.0
  0
LINE
  5
1B36
  8
0
  6
CONTINUOUS
 62
     7
 10
62.765818845479167
 20
-13.00000000000828
 30
0.0
 11
112.7658188454792
 21
-13.00000000000828
 31
0.0
  0
LINE
  5
1B38
  8
0
  6
CONTINUOUS
 62
     7
 10
62.765818845479167
 20
20.00000000040562
 30
0.0
 11
62.765818845479167
 21
-19.999999999594351
 31
0.0
  0
LINE
  5
1B39
  8
0
  6
CONTINUOUS
 62
     7
 10
112.7658188454792
 20
20.00000000040562
 30
0.0
 11
112.7658188454792
 21
-19.999999999594351
 31
0.0
  0
LINE
  5
1B3A
  8
CENTER
  6
CENTER
 62
     1
 10
60.765818845479167
 20
10.00000362880871
 30
0.0
 11
114.7658188454792
 21
10.00000362880871
 31
0.0
  0
LINE
  5
1B3B
  8
CENTER
  6
CENTER
 62
     1
 10
60.765818845479167
 20
-9.9999999991970014
 30
0.0
 11
114.7658188454792
 21
-9.9999999991970014
 31
0.0
  0
LINE
  5
1B3C
  8
CENTER
  6
CENTER
 62
     1
 10
60.765818845479167
 20
0.0
 30
0.0
 11
114.7658188454792
 21
0.0
 31
0.0
  0
INSERT
  5
1B3E
  8
0
  6
CONTINUOUS
 62
     7
  2
*U17
 10
0.0
 20
0.0
 30
0.0
  0
INSERT
  5
1B3F
  8
0
  6
CONTINUOUS
 62
     7
  2
*U18
 10
0.0
 20
0.0
 30
0.0
  0
CIRCLE
  5
1C1B
  8
0
  6
PHANTOM
 62
     3
 10
-9.9999999954410868
 20
10.00000000000831
 30
0.0
 40
2.1000000000000001
  0
CIRCLE
  5
1C1C
  8
0
  6
PHANTOM
 62
     3
 10
9.9999999996027213
 20
9.9999999958468067
 30
0.0
 40
2.1000000000000001
  0
CIRCLE
  5
1C1D
  8
0
  6
PHANTOM
 62
     3
 10
9.9999999996027178
 20
-9.9999999950355019
 30
0.0
 40
2.1000000000000001
  0
CIRCLE
  5
1C1E
  8
0
  6
PHANTOM
 62
     3
 10
-9.9999999954410903
 20
-9.9999999950355072
 30
0.0
 40
2.1000000000000001
  0
ENDSEC
  0
EOF
